<svg xmlns="http://www.w3.org/2000/svg" xmlns:xlink="http://www.w3.org/1999/xlink" version="1.1" width="1000" height="1000" viewBox="0 0 1000 1000" xml:space="preserve">
<desc>Created with Fabric.js 3.5.0</desc>
<defs>
</defs>
<rect x="0" y="0" width="100%" height="100%" fill="#ffffff"/>
<g transform="matrix(0.0625 0 0 0.0625 16 16)" id="261237">
<g style="" vector-effect="non-scaling-stroke">
		<g transform="matrix(1 0 0 1 -0.005 -0.005)" id="&#x41a;&#x43e;&#x43d;&#x442;&#x443;&#x440;_25">
<path style="stroke: none; stroke-width: 1; stroke-dasharray: none; stroke-linecap: butt; stroke-dashoffset: 0; stroke-linejoin: miter; stroke-miterlimit: 4; is-custom-font: none; font-file-url: none; fill: rgb(250,15,0); fill-rule: nonzero; opacity: 1;" transform=" translate(799.005, 408.005)" d="M -1055 -584.03 c 0 -44.13 35.84 -79.97 79.97 -79.97 h 352.05 c 44.13 0 79.97 35.84 79.97 79.97 v 352.05 c 0 44.13 -35.84 79.97 -79.97 79.97 h -352.05 c -44.13 0 -79.97 -35.84 -79.97 -79.97 V -584.03 z" stroke-linecap="round"/>
</g>
		<g transform="matrix(1 0 0 1 -0.005 -0.005)" id="&#x41f;&#x440;&#x44f;&#x43c;&#x43e;&#x443;&#x433;&#x43e;&#x43b;&#x44c;&#x43d;&#x438;&#x43a;_13">
<path style="stroke: none; stroke-width: 1; stroke-dasharray: none; stroke-linecap: butt; stroke-dashoffset: 0; stroke-linejoin: miter; stroke-miterlimit: 4; is-custom-font: none; font-file-url: none; fill: rgb(250,15,0); fill-rule: nonzero; opacity: 1;" transform=" translate(799.005, 408.005)" d="M -975.03 -664 h 352.05 c 44.13 0 79.97 35.84 79.97 79.97 v 352.05 c 0 44.13 -35.84 79.97 -79.97 79.97 h -352.05 c -44.13 0 -79.97 -35.84 -79.97 -79.97 v -352.05 C -1055 -628.16 -1019.16 -664 -975.03 -664 z" stroke-linecap="round"/>
</g>
		<g transform="matrix(1 0 0 1 -0.005 0)" id="&#x41a;&#x43e;&#x43d;&#x442;&#x443;&#x440;_26">
<path style="stroke: none; stroke-width: 1; stroke-dasharray: none; stroke-linecap: butt; stroke-dashoffset: 0; stroke-linejoin: miter; stroke-miterlimit: 4; is-custom-font: none; font-file-url: none; fill: rgb(255,255,255); fill-rule: nonzero; opacity: 1;" transform=" translate(799.005, 408)" d="M -758.55 -548.29 l 123.08 280.58 h -87.35 l -76.08 -173.57 l -46.39 105.78 h 54.37 l 29.7 67.79 h -201.32 l 123.08 -280.58 H -758.55 z" stroke-linecap="round"/>
</g>
</g>
</g>
</svg>