<?xml version="1.0" encoding="UTF-8" standalone="no"?><!-- Generator: Gravit.io --><svg xmlns="http://www.w3.org/2000/svg" xmlns:xlink="http://www.w3.org/1999/xlink" style="isolation:isolate" viewBox="0 0 64 64" width="64pt" height="64pt"><defs><clipPath id="_clipPath_GGnnUnD5VKUceMfnxCEBWRo9SeFj1mjs"><rect width="64" height="64"/></clipPath></defs><g clip-path="url(#_clipPath_GGnnUnD5VKUceMfnxCEBWRo9SeFj1mjs)"><path d=" M 56.624 56.52 C 50.006 61.4 40.416 64 32.16 64 C 20.56 64 10.156 59.72 2.27 52.594 C 1.67 52.034 2.206 51.27 2.95 51.706 C 11.46 56.66 22 59.64 32.852 59.64 C 40.689 59.604 48.442 58.019 55.664 54.976 C 56.784 54.5 57.724 55.71 56.624 56.522 M 59.376 53.372 C 58.536 52.292 53.784 52.862 51.656 53.112 C 51.006 53.192 50.908 52.626 51.492 52.22 C 55.292 49.56 61.48 50.326 62.204 51.22 C 62.928 52.114 62.016 58.34 58.464 61.308 C 57.918 61.764 57.398 61.522 57.664 60.916 C 58.464 58.924 60.252 54.456 59.404 53.372" fill-rule="evenodd" fill="rgb(255,153,0)"/><path d=" M 36.86 27.728 C 36.86 31.112 36.946 33.934 35.236 36.938 C 33.836 39.378 31.636 40.884 29.226 40.884 C 25.892 40.884 23.938 38.344 23.938 34.594 C 23.938 27.194 30.57 25.848 36.862 25.848 L 36.862 27.728 M 45.622 48.896 C 45.048 49.41 44.218 49.446 43.57 49.104 C 40.69 46.71 40.162 45.598 38.586 43.314 C 33.822 48.174 30.438 49.628 24.27 49.628 C 16.954 49.628 11.274 45.12 11.274 36.094 C 11.274 29.046 15.084 24.246 20.534 21.9 C 25.248 19.824 31.834 19.46 36.864 18.9 L 36.864 17.8 C 36.864 15.736 37.024 13.292 35.804 11.51 C 34.754 9.91 32.724 9.25 30.93 9.25 C 27.62 9.25 24.676 10.95 23.956 14.466 C 23.81 15.266 23.236 16.018 22.442 16.054 L 14 15.11 C 13.292 14.95 12.5 14.378 12.706 13.31 C 14.656 3.08 23.89 0 32.148 0 C 36.374 0 41.896 1.124 45.228 4.324 C 49.454 8.27 49.052 13.534 49.052 19.264 L 49.052 32.8 C 49.052 36.868 50.738 38.65 52.326 40.85 C 52.876 41.65 52.998 42.57 52.29 43.158 C 50.048 45.053 47.83 46.976 45.634 48.924 L 45.622 48.9" fill-rule="evenodd" fill="rgb(34,31,31)"/></g></svg>