<svg version="1.0" xmlns="http://www.w3.org/2000/svg"
 width="256.000000pt" height="261.000000pt" viewBox="0 0 256.000000 261.000000"
 preserveAspectRatio="xMidYMid meet">

<g transform="translate(0.000000,261.000000) scale(0.100000,-0.100000)"
fill="#000000" stroke="none">
<path d="M585 2540 c-148 -16 -246 -61 -340 -155 -70 -70 -117 -154 -142 -251
-16 -63 -18 -132 -18 -779 0 -527 3 -725 12 -770 40 -193 192 -354 389 -412
53 -15 130 -17 739 -21 780 -4 823 -1 953 63 137 68 240 197 279 351 16 63 18
133 18 784 0 775 0 782 -56 893 -50 99 -146 195 -248 246 -102 53 -125 54
-846 57 -369 1 -701 -2 -740 -6z m1500 -261 c45 -12 88 -49 113 -94 20 -37 31
-350 13 -368 -8 -8 -11 -8 -11 2 0 7 -4 9 -10 6 -6 -3 -7 1 -4 9 4 9 -1 18
-10 22 -14 5 -16 28 -16 156 l0 150 -34 34 -34 34 -393 1 c-217 0 -429 0 -472
0 -47 0 -75 4 -72 9 4 6 -1 10 -10 10 -9 0 -14 -3 -12 -7 3 -5 -14 -8 -38 -9
-24 0 -42 3 -40 7 3 4 -4 9 -15 12 -11 3 -18 1 -15 -3 3 -5 1 -11 -5 -15 -5
-3 -10 -1 -10 5 0 6 -4 8 -10 5 -5 -3 -7 0 -4 9 4 11 0 14 -15 11 -12 -2 -19
0 -16 6 4 5 -1 9 -10 9 -12 0 -15 -6 -10 -20 4 -12 2 -20 -5 -20 -6 0 -9 4 -6
9 14 22 -31 29 -218 30 -110 0 -201 3 -204 6 -11 11 1533 5 1573 -6z m-118
-343 l28 -24 3 -168 c2 -93 1 -183 -3 -201 -12 -63 -6 -62 -485 -63 -415 -2
-435 -1 -435 17 0 17 22 18 435 23 l435 5 3 189 c2 145 -1 191 -10 198 -7 4
-302 8 -655 8 -570 0 -643 -2 -657 -16 -13 -13 -16 -43 -16 -174 0 -87 4 -170
10 -184 l10 -26 155 0 c154 0 155 0 155 -22 l0 -23 -162 3 c-219 5 -203 -14
-203 238 l0 196 28 24 28 24 654 0 654 0 28 -24z m-847 -321 c0 -20 -6 -24
-37 -27 l-38 -3 -3 -212 -2 -212 37 -3 c33 -3 38 -7 41 -29 l3 -27 -110 0
-111 0 0 29 c0 27 3 29 40 29 l40 0 -2 213 -3 212 -37 3 c-32 3 -38 7 -38 27
0 23 1 23 110 23 109 1 110 0 110 -23z m-180 -399 c0 -18 -88 -27 -94 -9 -3 6
-20 13 -38 16 -18 2 4 5 50 5 64 2 82 -1 82 -12z m290 7 c-19 -2 -39 -10 -45
-17 -14 -17 -105 -9 -105 10 0 11 19 14 93 12 50 0 76 -3 57 -5z m67 1 c-3 -3
-12 -4 -19 -1 -8 3 -5 6 6 6 11 1 17 -2 13 -5z m56 -1 c-7 -2 -19 -2 -25 0 -7
3 -2 5 12 5 14 0 19 -2 13 -5z m50 0 c-7 -2 -19 -2 -25 0 -7 3 -2 5 12 5 14 0
19 -2 13 -5z m65 0 c-10 -2 -26 -2 -35 0 -10 3 -2 5 17 5 19 0 27 -2 18 -5z
m145 0 c-24 -2 -62 -2 -85 0 -24 2 -5 4 42 4 47 0 66 -2 43 -4z m84 1 c-3 -3
-12 -4 -19 -1 -8 3 -5 6 6 6 11 1 17 -2 13 -5z m206 -1 c-23 -2 -64 -2 -90 0
-26 2 -7 3 42 3 50 0 71 -1 48 -3z m-1049 -225 c8 -14 7 -21 -6 -34 -30 -30
-75 9 -48 42 16 18 39 15 54 -8z m174 10 c19 -19 14 -46 -8 -53 -22 -7 -50 9
-50 29 0 15 20 36 35 36 6 0 16 -5 23 -12z m187 -23 c0 -35 -31 -47 -51 -20
-18 25 0 57 29 53 17 -2 22 -10 22 -33z m184 21 c18 -22 -4 -58 -32 -54 -37 5
-36 68 1 68 11 0 25 -6 31 -14z m185 -8 c8 -14 7 -21 -6 -34 -30 -30 -75 9
-48 42 16 18 39 15 54 -8z m176 7 c18 -22 8 -50 -19 -50 -32 0 -49 28 -32 49
17 20 35 20 51 1z m174 -411 c-10 -8 -13 -13 -6 -9 14 7 17 -11 3 -20 -12 -7
-33 29 -24 39 3 3 15 6 27 6 20 0 20 0 0 -16z"/>
</g>
</svg>
