<?xml version="1.0" encoding="utf-8"?>
<!-- Generator: Adobe Illustrator 22.1.0, SVG Export Plug-In . SVG Version: 6.00 Build 0)  -->
<svg version="1.1" id="Layer_1" xmlns="http://www.w3.org/2000/svg" xmlns:xlink="http://www.w3.org/1999/xlink" x="0px" y="0px"
	 viewBox="-1.5 -7 36 36" style="enable-background:new 0 0 36 36;" xml:space="preserve">
<style type="text/css">
	.st1{fill:#fff;}
</style>
<g>
	<g>
		<path class="st1" d="M7.5,3h-6C0.7,3,0,2.3,0,1.5v0C0,0.7,0.7,0,1.5,0l6,0C8.3,0,9,0.7,9,1.5v0C9,2.3,8.3,3,7.5,3z"/>
		<path class="st1" d="M7.5,15h-6C0.7,15,0,14.3,0,13.5v0C0,12.7,0.7,12,1.5,12h6C8.3,12,9,12.7,9,13.5v0C9,14.3,8.3,15,7.5,15z"/>
		<path class="st1" d="M7.5,21h-6C0.7,21,0,20.3,0,19.5v0C0,18.7,0.7,18,1.5,18h6C8.3,18,9,18.7,9,19.5v0C9,20.3,8.3,21,7.5,21z"/>
		<path class="st1" d="M19.5,9h-6C12.7,9,12,8.3,12,7.5v0C12,6.7,12.7,6,13.5,6h6C20.3,6,21,6.7,21,7.5v0C21,8.3,20.3,9,19.5,9z"/>
		<path class="st1" d="M19.5,15h-6c-0.8,0-1.5-0.7-1.5-1.5v0c0-0.8,0.7-1.5,1.5-1.5h6c0.8,0,1.5,0.7,1.5,1.5v0
			C21,14.3,20.3,15,19.5,15z"/>
		<path class="st1" d="M31.5,3h-6C24.7,3,24,2.3,24,1.5v0C24,0.7,24.7,0,25.5,0l6,0C32.3,0,33,0.7,33,1.5v0C33,2.3,32.3,3,31.5,3z"
			/>
		<path class="st1" d="M31.5,9h-6C24.7,9,24,8.3,24,7.5v0C24,6.7,24.7,6,25.5,6h6C32.3,6,33,6.7,33,7.5v0C33,8.3,32.3,9,31.5,9z"/>
		<path class="st1" d="M31.5,21h-6c-0.8,0-1.5-0.7-1.5-1.5v0c0-0.8,0.7-1.5,1.5-1.5h6c0.8,0,1.5,0.7,1.5,1.5v0
			C33,20.3,32.3,21,31.5,21z"/>
	</g>
</g>
</svg>
