<svg version="1.1" id="Layer_1" xmlns="http://www.w3.org/2000/svg" xmlns:xlink="http://www.w3.org/1999/xlink" x="0px" y="0px"
	 viewBox="0 0 1428.36 294.1" xml:space="preserve">
<path shape-rendering="geometricPrecision" fill="#F1F1F1" d="M304.21,156.86l-14.03-10.43V0L158.12,6.38L26.06,0.01v37.37L5.5,29.2l-0.19-0.08l-0.2-0.05
	c-0.26-0.07-0.66-0.15-1.08-0.15H3.94l-0.1,0c-1.08,0.05-2.08,0.53-2.8,1.33c-0.72,0.8-1.09,1.83-1.03,2.9
	c0.08,1.36,0.82,2.58,1.99,3.27l22.34,13.81l1.72,1.06v96.09c0.19,41.28,31.34,76.24,62.06,101.57
	c30.24,24.79,60.84,40.43,64.69,42.36l2.89,1.47l1.54,0.77l1.08,0.54l5.1-2.79c2.55-1.27,33.81-17.04,64.69-42.36
	c27.95-23.03,56.09-54.07,61.12-90.54l10.96,5.4l0.28,0.14l0.3,0.08c0.4,0.11,0.79,0.16,1.15,0.16c1.19-0.03,2.2-0.48,2.94-1.28
	c0.74-0.79,1.13-1.82,1.08-2.9C305.89,158.73,305.25,157.57,304.21,156.86z M30.7,4.88l127.42,6.14h0.12l127.31-6.15v138.11
	l-4.36-3.24l-1.91-1.42l0.05-4.6V10.7l-121.15,5.9L37.04,10.7v31.04l-6.34-2.52V4.88z M233.67,42.37v-5.69h20.88L242.4,65.44h-6.74
	l9.99-23.07H233.67z M151.15,103.03c3.08,1.24,4.73,4.36,4.73,4.36l7.59,13.88l24.69,16.31c-2.19,3.97-2.98,7.11-3.38,8.36
	c-0.18,0.6-0.25,0.89-0.25,0.91l3.54,18.68c-0.18,0.06-0.35,0.08-0.53,0.14c-4.26,1.42-8.15,3.63-12.27,5.97l-2.04,1.15l-0.16,0.09
	c-0.73,0.41-1.45,0.82-2.19,1.21l-0.07,0.04l-0.07,0.04c-0.96,0.56-1.96,1.02-3.18,1.46c-1.83,0.66-3.67,1.01-5.33,1.01
	c-2.2,0-3.96-0.48-5.12-0.8c-0.37-0.1-0.69-0.19-0.94-0.25l-0.08-0.02l-0.08-0.02c-2.98-0.55-7.45-4.39-11.04-7.47
	c-2.41-2.06-4.68-4.02-6.87-5.41c-0.89-0.57-1.99-1.15-3.45-1.81l-0.29-0.14c-0.08-0.04-0.17-0.08-0.25-0.11l5.71-20.03
	c-0.02-0.02-0.04-0.05-0.05-0.07l-22.63-36.89c-0.57-0.74-0.48-1.78,0.16-2.41l15.44-28.73c0.25-0.39,0.63-0.65,1.05-0.76
	c0.14-0.04,0.28-0.06,0.43-0.06c0.02,0,0.04,0,0.06,0c0.33,0,0.67,0.09,0.96,0.28l14.87,6.27c0.02,0.01,0.04,0.02,0.04,0.03
	l16.72,7.49c0.91,0.37,1.32,1.44,0.94,2.38l-6.93,11.07c-0.29,0.7-0.95,1.13-1.64,1.15c-0.01,0-0.03,0-0.04,0
	c-0.22,0-0.45-0.04-0.66-0.13l-15.84-6.35l-2.39,3.93C140.28,97.79,142.77,98.77,151.15,103.03z M233.05,190.86
	c0.36,0,0.75-0.04,1.14-0.08c0.4-0.04,0.8-0.08,1.18-0.08c0.91,0,1.72,0.23,2.07,1.23c0.73,2.05-1.77,4.4-2.3,6.25
	c-0.22,0.76-0.11,1.78-0.38,2.57c-1.13,3.19-3.67,5.96-5.31,8.89c-0.39-0.02-0.93-0.19-1.28-0.39c-1.71-0.93,3.87-7.43,4.32-8.21
	c1.07-1.82-9.28-1.82-9.88-2.12c-2.16-1.06-3.77-3.83-4.6-5.99c-0.85-2.22-1.56-6.31,1.32-7.34c0.39-0.14,0.79-0.18,1.18-0.18
	c0.28,0,0.56,0.02,0.84,0.04c0.27,0.02,0.56,0.04,0.83,0.04c0.4,0,0.8-0.04,1.19-0.18c1.05-0.39,1.96-1.61,2.64-2.38
	c-3.04-2.44-5.88-3.32-8.68-3.32c-4.82,0-9.53,2.62-14.95,4.51c-3.68,0.7-7.09,1.25-8.61,1.56c-6.48,1.32-12.94,6.88-18.06,8.58
	c0,0-6.54,2.46-13.29,2.46c-0.66,0-1.32-0.02-1.97-0.07c-7.39-0.58-12.21-0.63-23.29-9.98c-5.76-4.56-7.24-7.84-22.24-10.99
	c-6.63-1.33-12.68-2.88-12.32-6.58c0.1-2.33,4.05-4.54,3.02-6.88c-0.54-1.23-1.07-4.19-0.17-6.12c-1.9-3.6-3.64-4.39-8.78-5.99
	c-2.76-0.86-5.23-0.89-5.55-0.89c-0.02,0-0.04,0-0.04,0l-0.15,0.03c0.2,1.03,0.25,2.11,0.07,3.14c-0.73,3.91-2.03,8.12-5.72,8.12
	c-0.28,0-0.56-0.02-0.86-0.07c-0.21-0.57,2.11-3.24-1.6-7.6c-2.23-2.57-6.75-9.92-1.86-13.42c0.33-0.23,0.75-0.5,1.27-0.75
	c0.06-0.04,0.12-0.07,0.18-0.1c1.23-0.59,2.96-1.14,5.25-1.14c2.63,0,5.99,0.73,10.16,2.92c1.07,0.92,8.28,1.95,13.25,2.8
	c0.92,0.15,1.77,0.31,2.49,0.46c5.41,1.07,9.54,6.09,5.74,9.86c-2.47,2.03-6.42,4.82-4.5,5.71c0.06,0.02,0.13,0.05,0.21,0.09
	c0.19,0.02,0.48,0.08,0.85,0.15c0.21,0.05,0.42,0.09,0.62,0.14c1.55,0.36,3.08,0.71,4.55,1.08c0.13,0.04,0.25,0.07,0.37,0.09
	c0.25,0.07,0.5,0.13,0.75,0.2c2.92,0.79,6.26,1.8,9.14,2.95c0.22,0.08,0.44,0.17,0.65,0.27c0.35,0.15,0.66,0.3,0.99,0.45
	c1.08,0.49,2.1,0.99,2.92,1.52c5.58,3.58,13.14,12.3,19.37,13.46c1.08,0.25,3.57,1.15,6.98,1.15c1.96,0,4.24-0.35,6.72-1.25
	c1.25-0.45,2.52-0.99,3.87-1.78c0.83-0.44,1.63-0.89,2.44-1.34c4.69-2.64,9.04-5.29,13.59-6.81c2.07-0.69,4.18-1.16,6.39-1.25
	c0.07,0,0.14-0.01,0.21-0.01c3.19-0.36,6.26-0.54,7.22-0.85c4.77-1.5,9.65-3.23,14.63-3.23c1.78,0,3.58,0.22,5.38,0.76
	c3.9,1.15,6.99,3.81,9.37,7.02c0.99,1.33,5.87,8.17,4.54,9.87c-1.48,1.92-4.72,3.96-5.12,6.52
	C231.13,190.46,231.93,190.86,233.05,190.86z M179.5,228.78c0.61,0.02,0.38,0.84,0.81,0.65c0.41-0.2,0.76-0.26,1.01,0.42
	c0.32,0.89-0.83,0.53-0.53,0.91c0.39,0.51-0.94,2.34-1.77,2.74c-0.83,0.38-0.8-0.64-1.41-0.65c-0.63-0.02-0.43,0.39-0.72-0.13
	c-0.29-0.51-0.08-0.92,0.24-1.21c0.32-0.3-0.05-0.83-0.05-0.83l-1.52-4.78l-12.73,10.34l12.8,11.36c0,0,2.09,4.38,1.05,4.33
	c-2.56-0.09-4.29-0.46-4.29-0.46l-14.15-11.5l-14.15,11.5c0,0-1.73,0.37-4.29,0.46c-1.05,0.04,1.05-4.33,1.05-4.33l12.8-11.36
	l-12.73-10.34l-1.52,4.78c0,0-0.37,0.53-0.05,0.83c0.32,0.3,0.53,0.7,0.24,1.21c-0.29,0.52-0.09,0.11-0.72,0.13
	c-0.61,0.01-0.58,1.03-1.41,0.65c-0.83-0.39-2.16-2.23-1.77-2.74c0.3-0.38-0.85-0.01-0.54-0.91c0.25-0.68,0.59-0.62,1.01-0.42
	c0.43,0.19,0.19-0.62,0.81-0.65c0.89-0.02,1.26-6.67,1.26-6.67l-7.86-6.94l-1.16-1.37c0,0-1.23,0.24-2.07-0.55
	c-0.85-0.79-1.1-3-0.26-4.01c0.79-0.94,2.48-1.12,3.94,0.29c0.83,0.79,0.67,1.68,0.67,1.68l1.42,1.2l8.31,6.32
	c0,0,6.6-2.24,6.54-2.85c-0.06-0.61,0.78-0.48,0.54-0.87c-0.25-0.38-0.36-0.73,0.31-1.05c0.85-0.42,0.62,0.76,0.97,0.42
	c0.46-0.45,2.49,0.6,2.98,1.37c0.48,0.77-0.55,0.86-0.49,1.48c0.06,0.6,0.45,0.37-0.03,0.71c-0.48,0.36-0.92,0.18-1.25-0.1
	c-0.47-0.37-0.21-0.56-0.21-0.56l-5.18,3.47l12.83,11.39l12.83-11.39l-5.18-3.47c0,0,0.26,0.19-0.21,0.56
	c-0.33,0.28-0.77,0.45-1.25,0.1c-0.48-0.34-0.09-0.11-0.03-0.71c0.06-0.62-0.97-0.71-0.49-1.48c0.5-0.77,2.52-1.82,2.98-1.37
	c0.34,0.34,0.12-0.85,0.97-0.42c0.67,0.32,0.57,0.67,0.31,1.05c-0.24,0.39,0.6,0.26,0.54,0.87c-0.05,0.61,6.54,2.85,6.54,2.85
	l8.31-6.32l1.42-1.2c0,0-0.17-0.89,0.66-1.68c1.46-1.41,3.15-1.23,3.94-0.29c0.84,1.01,0.59,3.22-0.26,4.01
	c-0.84,0.79-2.07,0.55-2.07,0.55l-1.16,1.37l-7.86,6.94C178.25,222.1,178.62,228.76,179.5,228.78z M162.88,61.85l-8.77,14.56
	l-2.15-0.92l-0.5-0.22l-2.25-0.95l-11.37-4.86l9.84-16.57c0.34-0.56,0.92-0.87,1.53-0.88c0.02,0,0.04,0,0.06,0
	c0.3,0,0.61,0.08,0.89,0.24l12.07,7.14C163.09,59.89,163.38,61,162.88,61.85z M166.05,63.87c0.33-0.54,0.9-0.84,1.5-0.86
	c0.02,0,0.04,0,0.06,0c0.32,0,0.64,0.08,0.93,0.26l11.03,6.53c0.86,0.51,1.12,1.63,0.6,2.47l-0.52,0.84
	c-0.03,0.05-0.08,0.08-0.11,0.14l-4.21,6.78l-3.94,6.32c-0.05-0.17-0.11-0.34-0.17-0.5c-0.39-0.97-1.06-1.79-1.92-2.36
	c-0.37-0.3-0.77-0.57-1.24-0.76l-10.68-4.79L166.05,63.87z M165.64,101.75l5.7-9.05l10.98-17.72c0.34-0.55,0.93-0.85,1.55-0.85
	c0.01,0,0.02,0,0.03,0c0.31,0,0.63,0.09,0.92,0.27l9.92,5.84c0.84,0.52,1.1,1.63,0.58,2.47l-9.86,15.72l-1.3,2.11l-5.39,8.6
	c-0.08,0.14-0.14,0.28-0.21,0.42c-0.35,0.49-0.89,0.78-1.46,0.78c0,0-0.01,0-0.02,0c-0.32,0-0.65-0.09-0.95-0.27l-9.91-5.85
	C165.38,103.71,165.11,102.6,165.64,101.75z M181.54,110.88l15.41-24.57c0.36-0.54,0.95-0.85,1.54-0.85c0.01,0,0.01,0,0.02,0
	c0.33,0,0.66,0.08,0.95,0.26l7.86,4.69c0.86,0.52,1.12,1.63,0.6,2.47l-15.43,24.57c-0.34,0.54-0.94,0.85-1.54,0.85
	c-0.01,0-0.02,0-0.03,0c-0.31,0-0.64-0.08-0.92-0.26l-7.88-4.7C181.27,112.84,181.01,111.73,181.54,110.88z M3.66,33.61
	C3.44,33.48,3.3,33.26,3.28,33c-0.02-0.41,0.3-0.77,0.73-0.79c0.01,0,0.01,0,0.02,0c0.1,0,0.27,0.04,0.27,0.04l32.75,13.02
	l55.04,21.88L90.44,36.5l44.48,31.49c0,0-0.51-0.21-1.27-0.21c-0.36,0-0.78,0.05-1.22,0.18c-1.38,0.42-1.7,1.31-1.7,1.31l-0.74,1.42
	c-0.02,0.02-0.04,0.03-0.05,0.05l-0.06,0.1l-0.05,0.1l-8.13,15.13l-11.32-7.91l-4.78,18.44L37.04,54.24l-6.34-3.92l-4.64-2.87
	L3.66,33.61z M225.16,245.37c-30.42,24.96-61.44,40.62-63.89,41.84l-3.05,1.66l-0.43-0.22l-1.44-0.73v-0.01l-1.29-0.65
	c-2.69-1.33-33.64-16.98-63.99-41.89c-30.41-24.98-60.34-59.22-60.37-97.99V54.17l4.62,2.85l1.72,1.07v3.73v85.6
	c0,73.92,113.79,131.88,118.64,134.31l2.61,1.33l2.42-1.33c4.7-2.37,112.44-57.31,118.27-128.37l4.79,2.36l1.04,0.52
	C280.69,191.34,253.24,222.32,225.16,245.37z M301.95,160.93c-0.01,0-0.01,0-0.02,0c-0.11,0-0.28-0.05-0.28-0.05L289.71,155
	l-4.5-2.22l-6.07-2.99l-48.09-23.69l-4.85,32.59l-59.29-39.66l-8.12-14.96l25.99,14.69l3.52,2.1c0.47,0.29,1.01,0.47,1.57,0.58
	c0.39,0.11,0.79,0.19,1.19,0.19c0.01,0,0.02,0,0.04,0c1.16,0,2.26-0.47,3.1-1.27c0.41-0.34,0.78-0.72,1.06-1.18l1.89-3.01l1.81-2.67
	l13.69,11.3L217,96.09l62.23,46.28l23.09,17.17c0.2,0.13,0.34,0.35,0.36,0.61C302.69,160.57,302.36,160.92,301.95,160.93z"/>
</svg>
