<svg width="32" height="32" viewBox="0 0 32 32" fill="none" xmlns="http://www.w3.org/2000/svg">
<path fill-rule="evenodd" clip-rule="evenodd" d="M16 0C7.16704 0 0 7.16704 0 16C0 24.833 7.16704 32 16 32C24.8156 32 32 24.833 32 16C32 7.16704 24.8156 0 16 0ZM26.5683 7.37526C28.4772 9.70064 29.6226 12.6681 29.6573 15.8785C29.2061 15.7917 24.6941 14.872 20.1475 15.4447C20.0434 15.2191 19.9566 14.9761 19.8525 14.7332C19.5748 14.0738 19.2625 13.397 18.9501 12.7549C23.9827 10.7072 26.2733 7.75706 26.5683 7.37526ZM16 2.36009C19.4707 2.36009 22.6464 3.6616 25.0586 5.7961C24.8156 6.14317 22.7505 8.9024 17.8916 10.7245C15.6529 6.61171 13.1714 3.24512 12.7896 2.72451C13.8134 2.48156 14.8894 2.36009 16 2.36009ZM10.1866 3.64426C10.551 4.13014 12.9805 7.51411 15.2538 11.5401C8.86768 13.2408 3.22778 13.2061 2.62039 13.2061C3.50541 8.97181 6.36877 5.44902 10.1866 3.64426ZM2.32538 16.0173C2.32538 15.8785 2.32538 15.7397 2.32538 15.6009C2.9154 15.6182 9.54448 15.705 16.3644 13.6573C16.7636 14.4208 17.128 15.2017 17.475 15.9827C17.3015 16.0347 17.1106 16.0868 16.9371 16.1388C9.89155 18.4122 6.14317 24.6247 5.83082 25.1453C3.6616 22.7332 2.32538 19.5228 2.32538 16.0173ZM16 29.6746C12.8417 29.6746 9.92624 28.5987 7.61821 26.7939C7.86118 26.2907 10.6378 20.9458 18.3427 18.256C18.3774 18.2386 18.3948 18.2386 18.4295 18.2212C20.3557 23.2017 21.1367 27.3839 21.3449 28.5813C19.6963 29.2928 17.8916 29.6746 16 29.6746ZM23.6182 27.3319C23.4794 26.4989 22.7506 22.5076 20.9631 17.5965C25.2495 16.9197 28.9978 18.0304 29.4664 18.1866C28.8764 21.987 26.6898 25.2668 23.6182 27.3319Z" fill="#EA4C89"/>
</svg>
