<?xml version="1.0" encoding="utf-8"?>
<!-- Generator: Adobe Illustrator 21.0.0, SVG Export Plug-In . SVG Version: 6.00 Build 0)  -->
<svg version="1.1" id="Layer_1" xmlns="http://www.w3.org/2000/svg" xmlns:xlink="http://www.w3.org/1999/xlink" x="0px" y="0px"
	 viewBox="0 0 1280 1280" style="enable-background:new 0 0 1280 1280;" xml:space="preserve">
<style type="text/css">
	.st0{fill:#252122;}
	.st1{fill:#F6971D;}
</style>
<path class="st0" d="M639.7,17C293.2,17,12.2,297.9,12.2,644.5S293.2,1272,639.7,1272c346.6,0,627.5-280.9,627.5-627.5
	S986.3,17,639.7,17z M639.7,1203.4c-308.7,0-558.9-250.2-558.9-558.9c0-308.7,250.2-558.9,558.9-558.9
	c308.7,0,558.9,250.2,558.9,558.9C1198.6,953.2,948.4,1203.4,639.7,1203.4z"/>
<g>
	<path class="st1" d="M573,917.4c0.1-4,0.3-7.9,0.3-11.9c0.1-205.8,0.2-411.7,0.3-617.5c0-3.6,0-7.2,0-11.7
		c50.9-25.9,101.8-51.8,153.9-78.3c0,252.5,0,503.3,0,754.7c-37.6,22.7-75.4,45.5-113.3,68.1c-13.5,8.1-27.3,15.8-40.9,23.7
		C573.2,1002.2,573.1,959.8,573,917.4z"/>
	<path class="st0" d="M573,917.4c0.1,42.4,0.2,84.8,0.4,127.1c-34.5-4.5-67.5-14.6-99.5-27.6c-68.3-27.6-126.9-68.3-170-129
		c-75.6-106.7-69.3-237.9,15.9-337.3c59-68.8,135.1-109.6,222.2-134.6c0,43.7,0,86.3,0,129.9c-8.6,3.7-18,7.5-27.2,11.8
		c-39.9,18.6-75.4,43.1-103.4,77.7c-47.7,58.9-47.7,128.3,0.2,187.2c36.9,45.4,85.9,71.7,140.6,89.1
		C558.9,913.9,566,915.5,573,917.4z"/>
	<path class="st0" d="M923.1,448.7c7.9-15.2,15.5-29.7,23.7-45.5c37.2,58.7,73.8,116.3,111.2,175.2
		c-74.4,13.3-147.2,26.3-222.2,39.7c10.5-20.4,20-39.1,30-58.6c-33.9-16.3-69-26.5-105.8-32.6c0-41.9,0-83.3,0-124.7
		C793.4,403.3,846.4,418.4,923.1,448.7z"/>
</g>
</svg>
