<?xml version="1.0" encoding="UTF-8" standalone="no"?>
<svg xmlns:dc="http://purl.org/dc/elements/1.1/" xmlns:cc="http://creativecommons.org/ns#" xmlns:rdf="http://www.w3.org/1999/02/22-rdf-syntax-ns#" xmlns:svg="http://www.w3.org/2000/svg" xmlns="http://www.w3.org/2000/svg" version="1.1" width="198.4" height="78.66" xml:space="preserve">
<path d="M 0,0 0,13.88 10.97,13.88 10.97,10.31 60.69,10.31 60.69,0 0,0 z M 65.84,0 99.22,58.09 132.6,0 120.7,0 C 120.7,0 100.5,34.91 99.22,37.16 97.92,34.91 77.75,0 77.75,0 L 65.84,0 z M 137.8,0 137.8,13.88 148.7,13.88 148.7,10.31 198.4,10.31 198.4,0 137.8,0 z M 0,19.12 0,29.47 60.69,29.47 60.69,19.12 0,19.12 z M 137.8,19.12 137.8,29.47 198.4,29.47 198.4,19.12 137.8,19.12 z M 0,34.66 0,48.59 60.69,48.59 60.69,38.25 10.97,38.25 10.97,34.66 0,34.66 z M 137.8,34.66 137.8,48.59 198.4,48.59 198.4,38.25 148.7,38.25 148.7,34.66 137.8,34.66 z M 42.19,69.72 C 41.32,69.72 40.71,69.89 40.41,70.19 40.1,70.49 39.97,71.03 39.97,71.84 L 39.97,76.56 C 39.97,77.38 40.1,77.93 40.41,78.22 40.71,78.52 41.32,78.66 42.19,78.66 L 48.72,78.66 C 49.59,78.66 50.19,78.52 50.5,78.22 50.8,77.93 50.97,77.38 50.97,76.56 L 50.97,71.84 C 50.97,71.03 50.8,70.49 50.5,70.19 50.19,69.89 49.59,69.72 48.72,69.72 L 42.19,69.72 z M 64.37,69.72 64.37,78.66 66.25,78.66 66.25,73.84 C 66.25,73.66 66.23,73.43 66.22,73.19 66.2,72.94 66.18,72.69 66.16,72.41 66.26,72.53 66.38,72.67 66.5,72.78 66.62,72.89 66.75,73.01 66.91,73.16 L 73.47,78.66 74.88,78.66 74.88,69.72 73.03,69.72 73.03,74.41 C 73.03,74.52 73.05,74.7 73.06,74.91 73.07,75.11 73.09,75.47 73.12,75.97 72.99,75.81 72.82,75.66 72.66,75.5 72.49,75.35 72.31,75.18 72.09,75 L 65.81,69.72 64.37,69.72 z M 88.53,69.72 88.53,78.66 97.31,78.66 97.31,77 90.59,77 90.59,69.72 88.53,69.72 z M 109.4,69.72 109.4,78.66 111.5,78.66 111.5,69.72 109.4,69.72 z M 125.1,69.72 125.1,78.66 127,78.66 127,73.84 C 127,73.66 127,73.43 126.9,73.19 126.9,72.94 126.9,72.69 126.9,72.41 127,72.53 127.1,72.67 127.2,72.78 127.3,72.89 127.5,73.01 127.6,73.16 L 134.2,78.66 135.6,78.66 135.6,69.72 133.8,69.72 133.8,74.41 C 133.8,74.52 133.8,74.7 133.8,74.91 133.8,75.11 133.8,75.47 133.8,75.97 133.7,75.81 133.6,75.66 133.4,75.5 133.2,75.35 133,75.18 132.8,75 L 126.5,69.72 125.1,69.72 z M 149.3,69.72 149.3,78.66 158.5,78.66 158.5,77 151.3,77 151.3,74.78 155.4,74.78 155.4,73.25 151.3,73.25 151.3,71.25 158.4,71.25 158.4,69.72 149.3,69.72 z M 42.03,71.31 48.87,71.31 48.87,77 42.03,77 42.03,71.31 z" /></svg>