<?xml version="1.0" encoding="UTF-8"?>
<svg width="64" height="64" viewBox="0 0 200 200" version="1.1" xmlns="http://www.w3.org/2000/svg"
    xmlns:xlink="http://www.w3.org/1999/xlink">
    <title>fa_logo_purple_orange</title>
    <g id="fa_logo_purple_orange" stroke="none" stroke-width="1" fill="none" fill-rule="evenodd">
        <g id="logo-white-only-copy" transform="translate(25, 22)" fill-rule="nonzero">
            <path
                d="M42.1484996,137.754645 C36.6833384,134.611754 31.6963641,130.701607 27.3395673,126.143375 C26.0759931,127.729247 24.5313734,129.068742 22.7829727,130.094854 C21.8172658,130.640438 20.7996702,131.088456 19.745243,131.432278 C43.3171444,157.188724 81.514904,163.302868 111.940339,146.189533 C113.379034,145.362954 114.266165,143.829671 114.266165,142.169663 C114.266165,140.509655 113.379034,138.976372 111.940339,138.149793 L111.940339,138.149793 C110.544127,137.311693 108.807093,137.282725 107.383745,138.073803 C87.1145338,149.52678 62.3048166,149.4054 42.1484996,137.754645 Z"
                id="Path" fill="#1E293B"></path>
            <path
                d="M42.1333109,23.8304593 C47.6002209,20.6754696 53.4933346,18.3259868 59.630634,16.8545787 C58.8680272,14.9186117 58.4764302,12.856306 58.4762967,10.7753799 C58.4791507,9.65265933 58.5910603,8.53287448 58.810447,7.43182054 C24.7434872,15.0010379 0.377235926,45.0557123 0,79.9718603 C0.00543281109,81.630629 0.893430551,83.1609286 2.33044934,83.9879579 C3.76746812,84.8149873 5.53593485,84.8135292 6.97158966,83.9841315 L6.97158966,83.9841315 C8.38121575,83.1916489 9.26556465,81.7110433 9.29545288,80.0934442 C9.54382298,56.8525337 22.0258546,35.4663534 42.1333109,23.8304593 Z"
                id="Path" fill="#1E293B"></path>
            <path
                d="M140.722828,80.7925521 C140.720716,87.1061507 139.810183,93.3865586 138.019249,99.4404944 C140.061684,99.7400409 142.029781,100.420535 143.821313,101.44663 C144.782663,101.997028 145.692586,102.63284 146.540081,103.34638 C156.995816,70.0401536 143.153599,33.9149136 113.125054,16.1402728 C111.686863,15.3863646 109.959746,15.4380661 108.569167,16.2766538 C107.178589,17.1152416 106.326144,18.6191435 106.32029,20.243732 L106.32029,20.243732 C106.303683,21.8581638 107.14136,23.3611307 108.522894,24.1952112 C128.489516,36.0495444 140.728313,57.561493 140.722828,80.7925521 Z"
                id="Path" fill="#1E293B"></path>
            <path
                d="M75.0167349,49.5150705 C87.6608927,49.5089266 99.0634414,57.1255404 103.906409,68.8126449 C108.749376,80.4997495 106.078804,93.9552423 97.1402067,102.90369 C88.201609,111.852137 74.7556924,114.530892 63.0734243,109.690625 C51.3911563,104.850357 43.773685,93.4444937 43.773685,80.7925521 C43.7904148,63.5313487 57.7661594,49.5402038 75.0167349,49.5150705 M75.0167349,40.2290952 C52.627938,40.2290952 34.4782321,58.3899751 34.4782321,80.7925521 C34.4782321,103.195129 52.627938,121.356006 75.0167349,121.356006 C97.4055318,121.356006 115.555241,103.195129 115.555241,80.7925521 C115.559269,70.0332192 111.289555,59.7134023 103.686237,52.1054045 C96.0829187,44.4974067 85.7694496,40.2250646 75.0167349,40.2290952 Z"
                id="Shape" fill="#1E293B"></path>
            <ellipse id="Oval" fill="#F58320" cx="75.0015463" cy="10.8209739" rx="10.8143177" ry="10.8209739"></ellipse>
            <ellipse id="Oval" fill="#F58320" cx="14.4444047" cy="115.763143" rx="10.8143177" ry="10.8209739"></ellipse>
            <ellipse id="Oval" fill="#F58320" cx="135.558688" cy="115.763143" rx="10.8143177" ry="10.8209739"></ellipse>
            <path
                d="M83.9780918,73.3911276 C83.9840178,69.0270314 80.8491326,65.2923902 76.5522173,64.5446237 C72.255302,63.7968572 68.0443705,66.2531497 66.5774916,70.3630144 C65.1106126,74.472879 66.8138325,79.0426297 70.6120269,81.1877 L67.7869382,95.5194112 C67.6945357,95.9718848 67.8127575,96.441852 68.1082279,96.7966347 C68.4036983,97.1514175 68.8443581,97.3525209 69.3058031,97.343483 L80.80361,97.343483 C81.265055,97.3525209 81.7057148,97.1514175 82.0011852,96.7966347 C82.2966556,96.441852 82.4148774,95.9718848 82.3224749,95.5194112 L79.4821976,81.1877 C82.2726337,79.5865952 83.9892107,76.6097505 83.9780918,73.3911276 L83.9780918,73.3911276 Z"
                id="Path" fill="#F58320"></path>
        </g>
    </g>
</svg>
