<?xml version="1.0" encoding="UTF-8" standalone="no"?>
<!-- Generator: Adobe Illustrator 22.0.1, SVG Export Plug-In . SVG Version: 6.00 Build 0)  -->

<svg
   xmlns:dc="http://purl.org/dc/elements/1.1/"
   xmlns:cc="http://creativecommons.org/ns#"
   xmlns:rdf="http://www.w3.org/1999/02/22-rdf-syntax-ns#"
   xmlns:svg="http://www.w3.org/2000/svg"
   xmlns="http://www.w3.org/2000/svg"
   xmlns:sodipodi="http://sodipodi.sourceforge.net/DTD/sodipodi-0.dtd"
   xmlns:inkscape="http://www.inkscape.org/namespaces/inkscape"
   version="1.1"
   id="Layer_1"
   x="0px"
   y="0px"
   viewBox="0 0 64 64.000001"
   xml:space="preserve"
   sodipodi:docname="fusionauthio-icon.svg"
   width="64"
   height="64"
   inkscape:version="0.92.4 (5da689c313, 2019-01-14)"><metadata
   id="metadata49"><rdf:RDF><cc:Work
       rdf:about=""><dc:format>image/svg+xml</dc:format><dc:type
         rdf:resource="http://purl.org/dc/dcmitype/StillImage" /><dc:title></dc:title></cc:Work></rdf:RDF></metadata><defs
   id="defs47" /><sodipodi:namedview
   pagecolor="#ffffff"
   bordercolor="#666666"
   borderopacity="1"
   objecttolerance="10"
   gridtolerance="10"
   guidetolerance="10"
   inkscape:pageopacity="0"
   inkscape:pageshadow="2"
   inkscape:window-width="1920"
   inkscape:window-height="1001"
   id="namedview45"
   showgrid="false"
   inkscape:zoom="4.205303"
   inkscape:cx="94.166817"
   inkscape:cy="80.099998"
   inkscape:window-x="-9"
   inkscape:window-y="-9"
   inkscape:window-maximized="1"
   inkscape:current-layer="Layer_1" />
<style
   type="text/css"
   id="style2">
	.st0{fill:#EC8D53;}
	.st1{fill:#FFFFFF;}
</style>






<g
   id="g906"
   transform="matrix(2.6397668,0,0,2.6397668,-35.322894,-50.457841)"><g
     transform="matrix(0.15722805,0,0,0.15722805,13.258327,18.768605)"
     style="fill:#ec8d53;fill-opacity:1"
     id="g6">
	<path
   inkscape:connector-curvature="0"
   style="fill:#ec8d53;fill-opacity:1"
   id="path4"
   d="m 77.7,2.2 c -3.9,0 -7.5,2.1 -9.4,5.5 -2.9,5.1 -1,11.7 4.2,14.5 1.6,0.9 3.4,1.3 5.2,1.3 3.9,0 7.5,-2.1 9.4,-5.5 C 90,12.8 88.1,6.3 82.9,3.5 81.2,2.7 79.4,2.2 77.7,2.2 Z"
   class="st0" />
</g><g
     transform="matrix(0.15722805,0,0,0.15722805,13.258327,18.768605)"
     style="fill:#ec8d53;fill-opacity:1"
     id="g10">
	<path
   inkscape:connector-curvature="0"
   style="fill:#ec8d53;fill-opacity:1"
   id="path8"
   d="m 16,103.6 c -3.9,0 -7.5,2.1 -9.4,5.5 -2.9,5.1 -1,11.7 4.2,14.5 1.6,0.9 3.4,1.3 5.2,1.3 3.9,0 7.5,-2.1 9.4,-5.5 2.9,-5.2 1,-11.7 -4.2,-14.5 -1.6,-0.8 -3.4,-1.3 -5.2,-1.3 z"
   class="st0" />
</g><g
     transform="matrix(0.15722805,0,0,0.15722805,13.258327,18.768605)"
     style="fill:#ec8d53;fill-opacity:1"
     id="g14">
	<path
   inkscape:connector-curvature="0"
   style="fill:#ec8d53;fill-opacity:1"
   id="path12"
   d="m 136.4,109.1 c -3.9,0 -7.5,2.1 -9.4,5.5 -2.9,5.1 -1,11.7 4.2,14.5 1.6,0.9 3.4,1.3 5.2,1.3 3.9,0 7.5,-2.1 9.4,-5.5 2.9,-5.2 1,-11.7 -4.2,-14.5 -1.6,-0.9 -3.4,-1.3 -5.2,-1.3 z"
   class="st0" />
</g><path
     inkscape:connector-curvature="0"
     style="fill:#ec8d53;fill-opacity:1;stroke-width:0.15722805"
     id="path40"
     d="m 29.657213,20.891185 c -0.330179,-0.125783 -0.707527,0.04717 -0.849032,0.377347 -0.125782,0.330179 0.04717,0.707526 0.377347,0.849031 2.971611,1.132042 5.125635,3.490463 6.084726,6.304845 l -4.056484,1.084874 c -0.251565,-0.676081 -0.628912,-1.28927 -1.116319,-1.855291 -1.084873,-1.257825 -2.594263,-1.996797 -4.26088,-2.122579 -1.650895,-0.11006 -3.191729,0.440239 -4.37094,1.415052 l -2.877273,-2.845827 c 1.352161,-1.226379 3.034501,-2.091133 4.842624,-2.468481 -0.172951,-0.408793 -0.220119,-0.864754 -0.125783,-1.304992 -4.229434,0.833308 -7.814234,4.009315 -9.009167,8.301641 -0.39307,1.446498 -0.518852,2.924441 -0.361624,4.402385 0.03144,0.330179 0.314456,0.581744 0.644635,0.581744 0.03144,0 0.04717,0 0.07861,0 0.361624,-0.04717 0.613189,-0.361625 0.581743,-0.723249 -0.141505,-1.304993 -0.04717,-2.625709 0.314457,-3.899256 0.408792,-1.493666 1.147764,-2.830105 2.122578,-3.946424 l 2.892996,2.830105 c -0.754694,0.959091 -1.242101,2.138301 -1.336438,3.427571 -0.188674,2.720046 1.39933,5.141358 3.789196,6.147617 l -1.194933,3.930701 c -1.745232,-0.660357 -3.238898,-1.760954 -4.386663,-3.207452 -0.298733,0.345902 -0.67608,0.581744 -1.116319,0.691804 1.509389,1.949627 3.616245,3.396126 6.069003,4.072206 1.037705,0.283011 2.091133,0.424516 3.144561,0.424516 2.499926,0 4.93696,-0.817586 6.996648,-2.374144 0.28301,-0.220119 0.345902,-0.628912 0.125782,-0.911922 -0.220119,-0.283011 -0.628912,-0.345902 -0.911922,-0.125783 -2.499926,1.886737 -5.644487,2.547095 -8.663266,1.808123 l 1.194933,-3.946424 c 0.235842,0.04717 0.487407,0.07861 0.738972,0.09434 0.141505,0.01572 0.283011,0.01572 0.440239,0.01572 3.238898,0 5.958943,-2.531371 6.179062,-5.785992 0.03145,-0.471684 0.01572,-0.943368 -0.06289,-1.383607 l 4.056484,-1.084873 c 0.314456,1.556557 0.267287,3.191729 -0.172951,4.826901 -0.09434,0.314456 -0.188674,0.628912 -0.314456,0.943368 0.220119,0.04717 0.440238,0.125783 0.644635,0.235842 0.188673,0.11006 0.361624,0.235842 0.518852,0.39307 0.157228,-0.39307 0.298733,-0.801863 0.408793,-1.210656 1.588003,-5.817437 -1.430775,-11.807826 -7.059539,-13.96185 z m -9.213564,10.48711 c 0.172951,-2.609985 2.374143,-4.65395 4.984129,-4.65395 0.11006,0 0.235842,0 0.345902,0.01572 1.336438,0.09434 2.547094,0.691803 3.427571,1.698063 0.880477,1.006259 1.304993,2.295529 1.210656,3.631968 -0.09434,1.336438 -0.707526,2.547094 -1.713785,3.427571 -1.00626,0.880477 -2.29553,1.304993 -3.616246,1.210656 -2.751491,-0.188673 -4.826901,-2.57854 -4.638227,-5.330031 z"
     class="st1" /><path
     inkscape:connector-curvature="0"
     style="fill:#ec8d53;fill-opacity:1;stroke-width:0.15722805"
     id="path42"
     d="M 29.216974,28.422408 C 28.336497,27.400426 27.110118,26.787236 25.77368,26.6929 c -0.11006,-0.01572 -0.235842,-0.01572 -0.345902,-0.01572 -2.625708,0 -4.826901,2.059687 -5.015575,4.685396 -0.188673,2.767213 1.90246,5.172803 4.669673,5.361476 2.782937,0.204397 5.172803,-1.933905 5.361477,-4.669673 0.09434,-1.336438 -0.345902,-2.625708 -1.226379,-3.631968 z m -3.773473,6.383459 c -0.754695,0 -1.367884,0.06289 -1.367884,-0.345902 l 0.597466,-3.411848 c -0.345901,-0.235843 -0.566021,-0.628913 -0.566021,-1.084874 0,-0.723249 0.597467,-1.320716 1.320716,-1.320716 0.723249,0 1.320716,0.597467 1.320716,1.320716 0,0.440239 -0.22012,0.833309 -0.566021,1.084874 l 0.613189,3.380403 c 0,0.01572 0,0.01572 0,0.03144 0.01572,0.408793 -0.597466,0.345902 -1.352161,0.345902 z"
     class="st0" /></g>
</svg>