<svg width="32" height="32" viewBox="0 0 125 125" fill="none" xmlns="http://www.w3.org/2000/svg">
    <path d="M95.5572 9.72452C66.624 -8.71258 28.1616 -0.150032 9.72452 28.7831C-8.71259 57.7162 -0.150032 96.1787 28.7831 114.616C57.7162 133.053 96.1787 124.49 114.616 95.5572C133.053 66.6241 124.49 28.1616 95.5572 9.72452ZM84.3016 76.2224C76.4986 88.4447 60.3402 92.0355 48.1179 84.2325C35.8955 76.4296 32.3048 60.2712 40.1078 48.0488C47.9107 35.8265 64.0691 32.2357 76.2915 40.0387C88.5138 47.8417 92.1045 64 84.3016 76.2224Z" fill="#005285"/>
    <path d="M27.4711 94.5905C26.2281 94.5905 24.9852 94.038 24.1566 93.0022C7.03146 72.0102 10.2079 41.0055 31.1999 23.8804C44.6652 12.901 63.1714 9.86264 79.4679 15.9393C81.6776 16.7679 82.8515 19.2538 82.0228 21.4635C81.1942 23.6732 78.7083 24.8471 76.4986 24.0185C63.0333 19.0467 47.7726 21.5326 36.7242 30.5785C19.3919 44.6653 16.837 70.2839 30.9237 87.5471C32.4429 89.4115 32.1667 92.1045 30.3023 93.6237C29.4736 94.2452 28.5069 94.5905 27.6092 94.5905H27.4711Z" fill="#30B0FF"/>
    <path d="M61.7904 111.577C60.2712 111.577 58.752 111.508 57.2329 111.37C50.6728 110.749 44.389 108.884 38.5886 105.777C36.517 104.672 35.6884 102.048 36.7932 99.9076C37.8981 97.836 40.5221 97.0073 42.6627 98.1122C47.4274 100.667 52.6063 102.186 58.0615 102.739C68.8337 103.775 79.3298 100.46 87.6852 93.5547C89.5496 92.0355 92.2426 92.3118 93.7618 94.1071C95.281 95.9716 95.0048 98.6646 93.2094 100.184C84.3016 107.572 73.3222 111.577 61.8594 111.577H61.7904Z" fill="#27A4F2"/>
    <path d="M100.736 88.6519C99.9766 88.6519 99.217 88.4447 98.5265 88.0304C96.4549 86.8565 95.7644 84.1635 97.0073 82.0919C101.081 75.1175 103.015 67.1765 102.532 59.0973C102.393 56.7495 104.189 54.6779 106.537 54.5398C108.884 54.4017 110.956 56.1971 111.094 58.5449C111.716 68.2813 109.368 77.9487 104.396 86.4422C103.567 87.8233 102.117 88.5829 100.667 88.5829L100.736 88.6519Z" fill="#1696E6"/></svg>