<?xml version="1.0" encoding="UTF-8" standalone="no"?><!DOCTYPE svg PUBLIC "-//W3C//DTD SVG 1.1//EN" "http://www.w3.org/Graphics/SVG/1.1/DTD/svg11.dtd"><svg width="100%" height="100%" viewBox="0 0 115 44" version="1.1" xmlns="http://www.w3.org/2000/svg" xmlns:xlink="http://www.w3.org/1999/xlink" xml:space="preserve" xmlns:serif="http://www.serif.com/" style="fill-rule:evenodd;clip-rule:evenodd;stroke-linejoin:round;stroke-miterlimit:1.41421;"><rect id="h44px_-mail_-_bg" serif:id="h44px_@mail_&amp;_bg" x="0" y="0" width="115" height="44" style="fill:none;"/><clipPath id="_clip1"><rect x="0" y="0" width="115" height="44"/></clipPath><g clip-path="url(#_clip1)"><path d="M115,4c0,-2.208 -1.792,-4 -4,-4l-107,0c-2.208,0 -4,1.792 -4,4l0,36c0,2.208 1.792,4 4,4l107,0c2.208,0 4,-1.792 4,-4l0,-36Z" style="fill:#005ff9;"/><g><rect x="16" y="8" width="83" height="28" style="fill:none;"/><rect x="95.68" y="10.59" width="2.654" height="18.019" style="fill:#fff;"/><path d="M92.812,28.609l-2.654,0l0,-12.769l2.654,0l0,12.769Zm-1.327,-18.467c0.989,0 1.792,0.803 1.792,1.792c0,0.989 -0.803,1.792 -1.792,1.792c-0.989,0 -1.792,-0.803 -1.792,-1.792c0,-0.989 0.803,-1.792 1.792,-1.792Z" style="fill:#fff;"/><path d="M87.29,28.609l-2.608,0l0,-1.397c-0.935,1.059 -2.582,1.725 -4.131,1.725c-3.704,0 -6.712,-3.008 -6.712,-6.713c0,-3.704 3.008,-6.712 6.712,-6.712c1.549,0 3.109,0.584 4.131,1.615l0,-1.287l2.608,0l0,12.769Zm-6.654,-10.414c2.284,0 4.081,1.634 4.081,4.029c0,2.395 -1.797,4.044 -4.081,4.044c-2.284,0 -4.02,-1.759 -4.02,-4.044c0,-2.284 1.736,-4.029 4.02,-4.029Z" style="fill:#fff;"/><path d="M54.361,28.609l-2.609,0l0,-12.769l2.609,0l0,0.892c0.579,-0.545 1.665,-1.218 3.171,-1.22c1.852,0 3.232,0.779 4.177,2.032c1.034,-1.241 2.739,-2.032 4.476,-2.032c3.26,0 5.482,2.201 5.482,5.631l0,7.466l-2.609,0l0,-7.466c0,-1.666 -1.356,-3.022 -3.022,-3.022c-1.667,0 -3.022,1.356 -3.022,3.022l0,7.466l-2.609,0l0,-7.466c0,-1.666 -1.356,-3.022 -3.022,-3.022c-1.666,0 -3.022,1.356 -3.022,3.022l0,7.466Z" style="fill:#fff;"/><path d="M34.211,22c0,2.322 -1.889,4.211 -4.211,4.211c-2.322,0 -4.211,-1.889 -4.211,-4.211c0,-2.322 1.889,-4.211 4.211,-4.211c2.322,0 4.211,1.889 4.211,4.211m-4.211,-14c-7.72,0 -14,6.28 -14,14c0,7.72 6.28,14 14,14c2.828,0 5.555,-0.842 7.886,-2.435l0.04,-0.028l-1.886,-2.192l-0.032,0.02c-1.794,1.155 -3.872,1.765 -6.008,1.765c-6.137,0 -11.13,-4.993 -11.13,-11.13c0,-6.137 4.993,-11.13 11.13,-11.13c6.137,0 11.13,4.993 11.13,11.13c0,0.795 -0.089,1.6 -0.262,2.392c-0.352,1.445 -1.364,1.887 -2.123,1.829c-0.764,-0.062 -1.658,-0.606 -1.664,-1.938l0,-1.015l0,-1.268c0,-3.905 -3.176,-7.081 -7.081,-7.081c-3.905,0 -7.081,3.176 -7.081,7.081c0,3.905 3.176,7.081 7.081,7.081c1.897,0 3.676,-0.741 5.017,-2.09c0.78,1.214 2.051,1.975 3.498,2.091c0.124,0.01 0.251,0.015 0.376,0.015c1.019,0 2.028,-0.341 2.842,-0.958c0.839,-0.638 1.466,-1.559 1.812,-2.666c0.055,-0.179 0.157,-0.588 0.157,-0.591l0.003,-0.015c0.204,-0.888 0.295,-1.773 0.295,-2.867c0,-7.72 -6.28,-14 -14,-14" style="fill:#ff9e00;fill-rule:nonzero;"/></g></g></svg>