<?xml version="1.0" encoding="UTF-8" standalone="no"?>
<svg
   xmlns:dc="http://purl.org/dc/elements/1.1/"
   xmlns:cc="http://creativecommons.org/ns#"
   xmlns:rdf="http://www.w3.org/1999/02/22-rdf-syntax-ns#"
   xmlns:svg="http://www.w3.org/2000/svg"
   xmlns="http://www.w3.org/2000/svg"
   xmlns:sodipodi="http://sodipodi.sourceforge.net/DTD/sodipodi-0.dtd"
   xmlns:inkscape="http://www.inkscape.org/namespaces/inkscape"
   viewBox="0 0 812.04942 199.62492"
   height="199.62492"
   width="812.04944"
   xml:space="preserve"
   id="svg2"
   version="1.1"
   sodipodi:docname="mercado-libre-logo.svg"
   inkscape:version="0.92.2 (5c3e80d, 2017-08-06)"
   inkscape:export-filename="C:\Users\suitedoalex\sites\mercado-libre-logo-7.png"
   inkscape:export-xdpi="5.9109702"
   inkscape:export-ydpi="5.9109702"><sodipodi:namedview
     pagecolor="#ffffff"
     bordercolor="#666666"
     borderopacity="1"
     objecttolerance="10"
     gridtolerance="10"
     guidetolerance="10"
     inkscape:pageopacity="0"
     inkscape:pageshadow="2"
     inkscape:window-width="1600"
     inkscape:window-height="837"
     id="namedview211"
     showgrid="false"
     fit-margin-top="0"
     fit-margin-left="0"
     fit-margin-right="0"
     fit-margin-bottom="0"
     inkscape:zoom="0.56480062"
     inkscape:cx="149.24214"
     inkscape:cy="228.33382"
     inkscape:window-x="-8"
     inkscape:window-y="-8"
     inkscape:window-maximized="1"
     inkscape:current-layer="g14" /><metadata
     id="metadata8"><rdf:RDF><cc:Work
         rdf:about=""><dc:format>image/svg+xml</dc:format><dc:type
           rdf:resource="http://purl.org/dc/dcmitype/StillImage" /><dc:title></dc:title></cc:Work></rdf:RDF></metadata><defs
     id="defs6"><clipPath
       id="clipPath18"
       clipPathUnits="userSpaceOnUse"><path
         id="path16"
         d="M 0,595.28 H 841.89 V 0 H 0 Z"
         inkscape:connector-curvature="0" /></clipPath></defs><g
     transform="matrix(1.3333333,0,0,-1.3333333,-156.58693,518.87412)"
     id="g10"><g
       id="g12"><g
         clip-path="url(#clipPath18)"
         id="g14"><g
           transform="translate(329.6772,316.9189)"
           id="g20"><path
             id="path22"
             style="fill:#002f6d;fill-opacity:1;fill-rule:nonzero;stroke:none"
             d="m 0,0 c 0,38.238 -47.506,69.407 -106.113,69.407 -58.604,0 -106.111,-31.169 -106.111,-69.407 0,-0.986 -0.013,-3.716 -0.013,-4.063 0,-40.564 41.524,-73.419 106.109,-73.419 C -41.142,-77.482 0,-44.636 0,-4.071 Z"
             inkscape:connector-curvature="0" /></g><g
           transform="translate(325.6143,316.9531)"
           id="g24"><path
             id="path26"
             style="fill:#ffe900;fill-opacity:1;fill-rule:nonzero;stroke:none"
             d="m 0,0 c 0,-36.048 -45.681,-65.271 -102.031,-65.271 -56.352,0 -102.028,29.223 -102.028,65.271 0,36.052 45.676,65.276 102.028,65.276 C -45.681,65.276 0,36.052 0,0"
             inkscape:connector-curvature="0" /></g><g
           transform="translate(189.7051,337.5469)"
           id="g28"><path
             id="path30"
             style="fill:#ffffff;fill-opacity:1;fill-rule:nonzero;stroke:none"
             d="m 0,0 c -0.055,-0.103 -1.072,-1.156 -0.413,-2.002 1.612,-2.057 6.583,-3.236 11.612,-2.109 2.995,0.673 6.831,3.727 10.551,6.676 4.029,3.202 8.028,6.407 12.047,7.682 4.255,1.354 6.981,0.774 8.782,0.228 1.977,-0.589 4.299,-1.89 8.006,-4.671 6.981,-5.248 35.057,-29.751 39.905,-33.989 3.906,1.766 21.264,9.239 44.858,14.44 C 133.3,-1.167 125.646,10.339 114.044,19.762 97.875,12.97 78.11,9.426 58.783,18.864 58.685,18.905 48.224,23.856 37.906,23.612 22.574,23.257 15.933,16.62 8.9,9.594 Z"
             inkscape:connector-curvature="0" /></g><g
           transform="translate(279.0542,306.6982)"
           id="g32"><path
             id="path34"
             style="fill:#ffffff;fill-opacity:1;fill-rule:nonzero;stroke:none"
             d="m 0,0 c -0.328,0.293 -33.01,28.887 -40.411,34.452 -4.285,3.213 -6.669,4.033 -9.171,4.351 -1.302,0.169 -3.103,-0.073 -4.36,-0.417 -3.444,-0.937 -7.947,-3.948 -11.945,-7.118 -4.141,-3.297 -8.042,-6.402 -11.665,-7.213 -4.625,-1.037 -10.276,0.187 -12.854,1.93 -1.047,0.702 -1.781,1.514 -2.135,2.339 -0.951,2.209 0.807,3.974 1.094,4.27 l 9.018,9.754 c 1.046,1.046 2.103,2.093 3.184,3.124 -2.911,-0.379 -5.599,-1.122 -8.217,-1.851 -3.267,-0.919 -6.41,-1.792 -9.589,-1.791 -1.328,0 -8.441,1.166 -9.79,1.533 -8.161,2.234 -15.324,4.409 -26.024,9.403 -12.818,-9.543 -21.393,-21.476 -23.868,-34.62 1.84,-0.488 4.81,-1.371 6.055,-1.648 29.012,-6.451 38.05,-13.097 39.688,-14.482 1.775,1.972 4.334,3.223 7.192,3.223 3.212,-0.004 6.104,-1.617 7.861,-4.109 1.663,1.311 3.954,2.433 6.916,2.432 1.345,0 2.742,-0.249 4.151,-0.728 3.271,-1.123 4.96,-3.302 5.838,-5.273 1.097,0.495 2.448,0.86 4.037,0.856 1.562,0 3.187,-0.356 4.825,-1.065 5.349,-2.295 6.183,-7.55 5.696,-11.512 0.382,0.046 0.765,0.062 1.154,0.062 6.342,-0.003 11.499,-5.158 11.499,-11.504 0,-1.963 -0.502,-3.81 -1.374,-5.429 1.724,-0.971 6.124,-3.167 9.986,-2.678 3.085,0.392 4.256,1.444 4.677,2.038 0.287,0.407 0.591,0.883 0.306,1.225 l -8.185,9.094 c 0,0 -1.348,1.275 -0.902,1.768 0.462,0.506 1.292,-0.219 1.883,-0.714 4.167,-3.479 9.253,-8.731 9.253,-8.731 0.085,-0.055 0.424,-0.719 2.304,-1.056 1.621,-0.29 4.485,-0.123 6.471,1.505 0.5,0.413 1.001,0.93 1.419,1.457 -0.031,-0.022 -0.06,-0.06 -0.09,-0.073 2.093,2.68 -0.233,5.39 -0.233,5.39 l -9.558,10.732 c 0,0 -1.365,1.263 -0.902,1.772 0.417,0.441 1.296,-0.224 1.894,-0.722 3.028,-2.531 7.304,-6.823 11.399,-10.835 0.798,-0.588 4.403,-2.812 9.169,0.32 2.897,1.895 3.477,4.228 3.395,5.987 -0.201,2.328 -2.019,3.989 -2.019,3.989 L -25.983,2.561 c 0,0 -1.378,1.179 -0.889,1.775 0.395,0.5 1.294,-0.222 1.879,-0.714 4.16,-3.479 15.419,-13.8 15.419,-13.8 0.157,-0.114 4.048,-2.883 8.855,0.177 C 1,-8.902 2.098,-7.245 2.191,-5.322 2.356,-1.982 0,0 0,0"
             inkscape:connector-curvature="0" /></g><g
           transform="translate(215.7334,290.0596)"
           id="g36"><path
             id="path38"
             style="fill:#ffffff;fill-opacity:1;fill-rule:nonzero;stroke:none"
             d="m 0,0 c -2.024,0.024 -4.24,-1.179 -4.53,-1.004 -0.158,0.107 0.125,0.919 0.315,1.387 0.194,0.468 2.86,8.489 -3.638,11.274 -4.973,2.137 -8.01,-0.266 -9.056,-1.351 -0.275,-0.286 -0.397,-0.262 -0.428,0.101 -0.1,1.443 -0.746,5.351 -5.04,6.658 -6.132,1.881 -10.076,-2.402 -11.077,-3.946 -0.447,3.495 -3.404,6.209 -7.025,6.213 -3.933,0.004 -7.122,-3.183 -7.127,-7.116 -10e-4,-3.932 3.186,-7.12 7.121,-7.12 1.91,-0.006 3.645,0.759 4.922,1.986 0.04,-0.035 0.056,-0.103 0.035,-0.239 -0.299,-1.761 -0.85,-8.161 5.85,-10.765 2.688,-1.042 4.973,-0.268 6.867,1.061 0.567,0.399 0.657,0.232 0.577,-0.301 -0.243,-1.647 0.064,-5.169 5.004,-7.171 3.759,-1.526 5.983,0.038 7.44,1.384 0.634,0.58 0.808,0.484 0.84,-0.41 0.179,-4.765 4.136,-8.545 8.94,-8.548 4.949,-0.003 8.959,3.999 8.964,8.944 C 8.958,-4.013 4.948,-0.055 0,0"
             inkscape:connector-curvature="0" /></g><g
           transform="translate(215.7334,272.79)"
           id="g40"><path
             id="path42"
             style="fill:#002f6d;fill-opacity:1;fill-rule:nonzero;stroke:none"
             d="m 0,0 c -4.486,0.005 -8.132,3.487 -8.296,7.929 -0.014,0.383 -0.052,1.395 -0.908,1.395 -0.353,0 -0.658,-0.211 -1.011,-0.528 -0.986,-0.916 -2.243,-1.844 -4.077,-1.844 -0.834,0 -1.735,0.192 -2.688,0.583 -4.738,1.917 -4.802,5.172 -4.608,6.48 0.051,0.35 0.068,0.711 -0.171,0.996 l -0.289,0.26 h -0.297 c -0.242,0 -0.488,-0.099 -0.825,-0.337 -1.372,-0.96 -2.684,-1.428 -4.021,-1.428 -0.734,0 -1.488,0.147 -2.246,0.437 -6.235,2.429 -5.742,8.316 -5.438,10.088 0.046,0.358 -0.044,0.637 -0.272,0.822 L -35.588,25.216 -36,24.82 c -1.215,-1.172 -2.806,-1.811 -4.477,-1.811 -3.571,0.003 -6.478,2.907 -6.476,6.476 0.003,3.576 2.912,6.475 6.486,6.471 3.227,0 5.976,-2.428 6.389,-5.652 l 0.22,-1.739 0.955,1.47 c 0.108,0.174 2.724,4.131 7.537,4.126 0.914,0 1.86,-0.147 2.811,-0.441 3.835,-1.171 4.485,-4.649 4.586,-6.097 0.068,-0.846 0.669,-0.884 0.786,-0.884 0.331,0 0.576,0.208 0.748,0.392 0.724,0.755 2.301,2.01 4.769,2.01 1.127,-0.002 2.329,-0.269 3.57,-0.804 C -2,25.722 -4.765,17.976 -4.798,17.894 -5.323,16.61 -5.342,16.044 -4.85,15.716 l 0.241,-0.112 h 0.175 c 0.276,0 0.618,0.118 1.182,0.309 0.83,0.287 2.083,0.72 3.253,0.717 H 0.004 C 4.594,16.578 8.326,12.844 8.323,8.307 8.317,3.723 4.584,0 0,0 m 64.583,37.33 c -10.065,8.787 -33.33,29.012 -39.63,33.743 -3.601,2.706 -6.056,4.136 -8.211,4.779 -0.97,0.292 -2.308,0.625 -4.033,0.627 -1.605,0 -3.325,-0.29 -5.122,-0.862 -4.071,-1.288 -8.128,-4.513 -12.052,-7.631 l -0.202,-0.16 c -3.656,-2.905 -7.434,-5.911 -10.292,-6.549 -1.247,-0.281 -2.53,-0.427 -3.812,-0.427 -3.2,0.005 -6.077,0.927 -7.156,2.304 -0.178,0.227 -0.063,0.596 0.353,1.125 l 0.054,0.071 8.855,9.543 c 6.938,6.936 13.489,13.484 28.568,13.832 0.251,0.006 0.505,0.01 0.755,0.01 9.385,-0.006 18.769,-4.208 19.821,-4.695 8.803,-4.291 17.887,-6.473 27.021,-6.481 9.517,-0.003 19.336,2.353 29.662,7.108 -1.153,0.971 -2.355,1.913 -3.589,2.84 -9.07,-3.933 -17.712,-5.921 -26.047,-5.917 -8.516,0.007 -17.027,2.052 -25.287,6.082 -0.435,0.208 -10.797,5.093 -21.576,5.099 -0.282,0 -0.571,-0.006 -0.852,-0.009 -12.667,-0.296 -19.803,-4.796 -24.6,-8.736 -4.667,-0.112 -8.693,-1.239 -12.275,-2.239 -3.196,-0.888 -5.957,-1.66 -8.65,-1.657 -1.108,0 -3.105,0.101 -3.285,0.107 -3.096,0.095 -18.692,3.921 -31.101,8.617 -1.267,-0.896 -2.486,-1.822 -3.673,-2.765 12.962,-5.315 28.737,-9.425 33.715,-9.748 1.384,-0.09 2.861,-0.247 4.338,-0.25 3.294,0 6.578,0.925 9.762,1.814 1.878,0.529 3.953,1.102 6.131,1.52 -0.581,-0.57 -1.161,-1.15 -1.742,-1.736 l -9,-9.732 c -0.71,-0.714 -2.244,-2.623 -1.232,-4.973 0.403,-0.948 1.221,-1.854 2.364,-2.626 2.146,-1.443 5.985,-2.419 9.551,-2.422 1.352,0 2.632,0.134 3.81,0.399 3.771,0.847 7.727,3.997 11.918,7.329 3.34,2.654 8.085,6.023 11.718,7.012 1.013,0.277 2.258,0.447 3.262,0.447 0.299,-0.002 0.58,-0.011 0.845,-0.048 2.399,-0.305 4.72,-1.122 8.863,-4.231 7.383,-5.548 40.069,-34.138 40.387,-34.421 0.025,-0.019 2.106,-1.817 1.961,-4.805 -0.077,-1.665 -1.003,-3.146 -2.61,-4.174 -1.395,-0.882 -2.835,-1.334 -4.291,-1.334 -2.185,0.005 -3.688,1.029 -3.785,1.098 -0.12,0.098 -11.318,10.366 -15.437,13.814 -0.658,0.544 -1.294,1.033 -1.941,1.033 -0.344,0.003 -0.649,-0.144 -0.855,-0.403 -0.648,-0.798 0.078,-1.904 0.933,-2.631 L 49.975,22.873 c 0.016,-0.016 1.627,-1.528 1.805,-3.544 0.102,-2.18 -0.938,-4.001 -3.105,-5.424 -1.544,-1.014 -3.108,-1.531 -4.637,-1.531 -2.008,0 -3.418,0.916 -3.729,1.132 l -1.878,1.849 c -3.429,3.375 -6.97,6.863 -9.561,9.027 -0.632,0.525 -1.308,1.009 -1.952,1.009 -0.315,0 -0.603,-0.118 -0.823,-0.349 -0.297,-0.329 -0.501,-0.92 0.235,-1.899 0.302,-0.403 0.659,-0.737 0.659,-0.737 L 36.537,11.688 C 36.616,11.592 38.504,9.349 36.75,7.111 L 36.415,6.685 C 36.129,6.367 35.82,6.077 35.527,5.831 33.9,4.493 31.724,4.349 30.864,4.349 c -0.463,0 -0.907,0.041 -1.294,0.109 -0.94,0.17 -1.573,0.433 -1.878,0.796 l -0.117,0.117 c -0.521,0.542 -5.333,5.452 -9.314,8.775 -0.525,0.44 -1.178,0.996 -1.856,0.996 -0.333,0 -0.633,-0.131 -0.861,-0.386 -0.789,-0.864 0.396,-2.152 0.897,-2.626 L 24.583,3.153 C 24.573,3.071 24.469,2.885 24.272,2.601 23.98,2.201 22.993,1.214 20.039,0.839 19.687,0.796 19.321,0.776 18.961,0.776 c -3.046,0 -6.293,1.478 -7.968,2.367 0.761,1.61 1.156,3.38 1.156,5.161 0.005,6.701 -5.437,12.149 -12.138,12.155 -0.142,0 -0.294,-0.006 -0.439,-0.011 0.22,3.06 -0.212,8.852 -6.158,11.404 -1.71,0.741 -3.418,1.117 -5.077,1.117 -1.298,0 -2.546,-0.222 -3.724,-0.673 -1.23,2.393 -3.276,4.137 -5.945,5.048 -1.473,0.51 -2.94,0.767 -4.357,0.767 -2.474,0 -4.754,-0.726 -6.788,-2.173 -1.947,2.42 -4.891,3.857 -7.99,3.857 -2.71,0 -5.319,-1.086 -7.251,-2.999 -2.533,1.934 -12.586,8.32 -39.489,14.428 -1.303,0.295 -4.293,1.153 -6.126,1.689 -0.304,-1.456 -0.535,-2.929 -0.688,-4.415 0,0 4.963,-1.188 5.939,-1.406 27.483,-6.105 36.564,-12.453 38.1,-13.652 -0.519,-1.248 -0.79,-2.596 -0.793,-3.955 -0.003,-5.674 4.614,-10.3 10.296,-10.306 0.638,0 1.269,0.054 1.891,0.17 0.855,-4.177 3.588,-7.345 7.768,-8.969 1.219,-0.471 2.456,-0.711 3.668,-0.711 0.783,-0.003 1.574,0.096 2.345,0.292 0.771,-1.961 2.51,-4.403 6.391,-5.979 1.359,-0.549 2.721,-0.836 4.045,-0.836 1.08,0 2.138,0.188 3.145,0.563 1.861,-4.532 6.286,-7.536 11.223,-7.536 3.27,-0.003 6.411,1.329 8.702,3.687 1.959,-1.091 6.101,-3.06 10.28,-3.069 0.542,0 1.051,0.038 1.557,0.102 4.153,0.525 6.087,2.146 6.974,3.41 0.159,0.219 0.304,0.454 0.427,0.695 0.982,-0.279 2.06,-0.509 3.294,-0.512 2.268,0 4.444,0.772 6.646,2.374 2.161,1.563 3.698,3.797 3.918,5.703 0.004,0.025 0.011,0.055 0.014,0.083 0.726,-0.151 1.474,-0.23 2.222,-0.23 2.334,0 4.629,0.73 6.824,2.166 4.234,2.776 4.97,6.403 4.9,8.774 0.742,-0.155 1.499,-0.235 2.25,-0.235 2.194,0 4.346,0.662 6.398,1.97 2.623,1.677 4.202,4.245 4.44,7.235 0.167,2.032 -0.338,4.081 -1.408,5.842 7.092,3.056 23.305,8.971 42.395,13.272 -0.115,1.48 -0.328,2.942 -0.592,4.397 C 86.138,46.711 68.902,39.252 64.583,37.33"
             inkscape:connector-curvature="0" /></g><g
           transform="translate(372.3848,355.1846)"
           id="g44"><path
             id="path46"
             style="fill:#002f6d;fill-opacity:1;fill-rule:nonzero;stroke:none"
             d="m 0,0 v -31.213 h -12.467 v 28.721 c 0,13.946 7.019,20.871 20.964,20.871 6.279,0 11.081,-1.385 14.59,-4.155 3.511,2.678 8.311,3.97 14.593,3.97 13.946,0 20.872,-6.925 20.779,-20.87 v -28.723 h -6.373 c -4.063,0.279 -6.094,2.217 -6.094,6.096 v 25.119 c -0.277,5.08 -3.049,7.574 -8.497,7.574 -5.448,0 -8.221,-2.494 -8.311,-7.574 V -31.213 H 16.809 V 0 C 16.53,5.081 13.762,7.574 8.313,7.574 2.863,7.574 0.092,5.081 0,0"
             inkscape:connector-curvature="0" /></g><g
           transform="translate(491.0654,348.9932)"
           id="g48"><path
             id="path50"
             style="fill:#002f6d;fill-opacity:1;fill-rule:nonzero;stroke:none"
             d="m 0,0 c 0.369,15.793 8.172,24.571 24.519,24.571 h 3.708 V 11.827 L 22.519,11.704 C 15.684,11.704 12.467,7.297 12.467,0.186 V -25.211 H 0 Z"
             inkscape:connector-curvature="0" /></g><g
           transform="translate(604.4424,344.4316)"
           id="g52"><path
             id="path54"
             style="fill:#002f6d;fill-opacity:1;fill-rule:nonzero;stroke:none"
             d="M 0,0 V 3.998 C -2.863,2.797 -6.188,2.307 -9.79,1.569 c -4.894,-0.924 -7.389,-3.233 -7.389,-6.834 0.278,-3.879 2.31,-5.725 6.188,-5.725 C -4.156,-10.99 0,-6.926 0,0 m -16.38,13.811 -11.437,0.013 c 0.437,9.438 5.187,15.728 19.135,15.728 13.484,0 20.319,-4.433 20.596,-13.484 V -0.555 c 0,-13.483 -8.127,-19.486 -21.335,-20.409 -11.727,-0.923 -19.855,4.525 -19.855,15.33 0.277,11.73 8.774,14.868 21.149,16.069 5.264,0.646 7.942,2.217 7.942,4.894 -0.277,2.771 -2.863,4.09 -7.942,4.156 -5.753,0.076 -7.606,-3.365 -8.253,-5.674"
             inkscape:connector-curvature="0" /></g><g
           transform="translate(636.0684,348.5366)"
           id="g56"><path
             id="path58"
             style="fill:#002f6d;fill-opacity:1;fill-rule:nonzero;stroke:none"
             d="m 0,0 c -0.092,-9.883 3.231,-14.869 10.251,-14.869 7.018,0 10.526,4.986 10.526,14.869 C 20.501,9.42 17.085,14.038 10.435,14.038 3.787,14.038 0.367,9.42 0,0 M 32.968,40.619 V -3.418 c 0,-14.683 -7.665,-21.979 -22.903,-21.887 -15.145,0.279 -22.719,8.497 -22.719,24.75 0,16.623 6.465,25.12 19.486,25.582 6.097,0 10.808,-2.494 13.945,-7.573 v 15.571 l 0.03,1.375 c 4.062,6.062 12.161,6.219 12.161,6.219"
             inkscape:connector-curvature="0" /></g><g
           transform="translate(450.3125,316.3428)"
           id="g60"><path
             id="path62"
             style="fill:#002f6d;fill-opacity:1;fill-rule:nonzero;stroke:none"
             d="M 0,0 H 3.215 V -64.7 H -9.067 V -7.905 C -9.067,-6.062 -5.25,0 0,0"
             inkscape:connector-curvature="0" /></g><g
           transform="translate(513.6289,262.0811)"
           id="g64"><path
             id="path66"
             style="fill:#002f6d;fill-opacity:1;fill-rule:nonzero;stroke:none"
             d="m 0,0 c -7.02,0 -10.345,4.985 -10.252,14.867 0.37,9.421 3.787,14.038 10.437,14.038 6.649,0 10.065,-4.617 10.343,-14.038 C 10.528,4.985 7.019,0 0,0 m 3.6,39.895 c -6.093,0 -10.712,-2.494 -13.852,-7.573 l -0.002,21.94 h -1.391 c -6.125,-0.074 -9.343,-3.344 -10.889,-6.016 V 48.668 11.45 c 0,-14.682 7.665,-21.979 22.903,-21.888 15.147,0.28 22.718,8.498 22.718,24.751 0,16.623 -6.465,25.121 -19.487,25.582"
             inkscape:connector-curvature="0" /></g><g
           transform="translate(467.5215,361.2886)"
           id="g68"><path
             id="path70"
             style="fill:#002f6d;fill-opacity:1;fill-rule:nonzero;stroke:none"
             d="m 0,0 c -1.565,1.717 -3.945,2.578 -7.137,2.578 -2.087,0 -3.82,-0.354 -5.201,-1.059 -1.381,-0.707 -2.486,-1.581 -3.314,-2.624 -0.829,-1.044 -1.413,-2.149 -1.75,-3.315 C -17.74,-5.586 -17.939,-6.629 -18,-7.55 H 3.268 C 2.654,-4.236 1.564,-1.72 0,0 m -14.777,-25.043 c 1.963,-1.904 4.787,-2.855 8.469,-2.855 2.639,0 4.912,0.659 6.814,1.98 1.901,1.319 3.068,2.716 3.498,4.189 h 11.51 c -1.842,-5.708 -4.665,-9.791 -8.471,-12.245 -3.807,-2.456 -8.41,-3.683 -13.811,-3.683 -3.744,0 -7.121,0.598 -10.128,1.795 -3.008,1.197 -5.555,2.901 -7.641,5.11 -2.088,2.21 -3.699,4.848 -4.834,7.919 -1.137,3.067 -1.703,6.444 -1.703,10.127 0,3.559 0.582,6.873 1.749,9.944 1.165,3.068 2.823,5.722 4.971,7.964 2.149,2.24 4.71,4.005 7.689,5.294 2.976,1.289 6.274,1.933 9.897,1.933 4.051,0 7.58,-0.783 10.588,-2.347 3.007,-1.565 5.479,-3.669 7.412,-6.307 1.934,-2.64 3.329,-5.648 4.19,-9.024 0.858,-3.376 1.165,-6.905 0.92,-10.587 H -18 c 0.184,-4.235 1.257,-7.306 3.223,-9.207"
             inkscape:connector-curvature="0" /></g><g
           transform="translate(546.9404,364.02)"
           id="g72"><path
             id="path74"
             style="fill:#002f6d;fill-opacity:1;fill-rule:nonzero;stroke:none"
             d="m 0,0 c -2.108,0 -3.876,-0.481 -5.302,-1.441 -1.426,-0.963 -2.589,-2.202 -3.486,-3.721 -0.9,-1.52 -1.535,-3.193 -1.907,-5.022 -0.372,-1.829 -0.558,-3.643 -0.558,-5.44 0,-1.737 0.186,-3.503 0.558,-5.301 0.372,-1.799 0.976,-3.427 1.813,-4.883 0.838,-1.457 1.968,-2.65 3.395,-3.58 1.425,-0.93 3.162,-1.395 5.208,-1.395 3.162,0 5.594,0.884 7.3,2.65 1.705,1.767 2.774,4.139 3.208,7.115 h 12.742 c -0.869,-6.387 -3.348,-11.253 -7.44,-14.601 -4.093,-3.348 -9.332,-5.022 -15.718,-5.022 -3.595,0 -6.897,0.604 -9.904,1.813 -3.008,1.209 -5.565,2.898 -7.672,5.069 -2.109,2.169 -3.752,4.758 -4.929,7.765 -1.178,3.007 -1.767,6.308 -1.767,9.905 0,3.72 0.542,7.175 1.628,10.369 1.084,3.193 2.68,5.952 4.789,8.277 2.107,2.325 4.68,4.139 7.719,5.441 3.037,1.302 6.51,1.953 10.416,1.953 2.851,0 5.594,-0.372 8.23,-1.116 2.635,-0.744 4.99,-1.876 7.069,-3.395 2.076,-1.52 3.766,-3.41 5.068,-5.672 1.302,-2.265 2.046,-4.946 2.231,-8.045 H 9.765 C 8.896,-2.76 5.641,0 0,0"
             inkscape:connector-curvature="0" /></g><g
           transform="translate(690.4863,342.9561)"
           id="g76"><path
             id="path78"
             style="fill:#002f6d;fill-opacity:1;fill-rule:nonzero;stroke:none"
             d="m 0,0 c 0.372,-1.83 1.007,-3.473 1.907,-4.929 0.898,-1.458 2.092,-2.62 3.58,-3.488 1.489,-0.869 3.348,-1.302 5.58,-1.302 2.233,0 4.107,0.433 5.626,1.302 1.519,0.868 2.728,2.03 3.627,3.488 0.899,1.456 1.535,3.099 1.908,4.929 0.372,1.828 0.557,3.704 0.557,5.626 0,1.921 -0.185,3.813 -0.557,5.673 -0.373,1.86 -1.009,3.502 -1.908,4.93 -0.899,1.425 -2.108,2.587 -3.627,3.487 -1.519,0.898 -3.393,1.348 -5.626,1.348 -2.232,0 -4.091,-0.45 -5.58,-1.348 C 3.999,18.816 2.805,17.654 1.907,16.229 1.007,14.801 0.372,13.159 0,11.299 -0.372,9.439 -0.558,7.547 -0.558,5.626 -0.558,3.704 -0.372,1.828 0,0 m -11.997,16.089 c 1.178,3.13 2.851,5.796 5.022,7.998 2.169,2.2 4.774,3.906 7.812,5.115 3.037,1.209 6.447,1.813 10.23,1.813 3.782,0 7.207,-0.604 10.277,-1.813 3.069,-1.209 5.687,-2.915 7.858,-5.115 2.17,-2.202 3.844,-4.868 5.023,-7.998 1.176,-3.131 1.766,-6.619 1.766,-10.463 0,-3.845 -0.59,-7.316 -1.766,-10.416 -1.179,-3.101 -2.853,-5.751 -5.023,-7.951 -2.171,-2.202 -4.789,-3.892 -7.858,-5.069 -3.07,-1.177 -6.495,-1.767 -10.277,-1.767 -3.783,0 -7.193,0.59 -10.23,1.767 -3.038,1.177 -5.643,2.867 -7.812,5.069 -2.171,2.2 -3.844,4.85 -5.022,7.951 -1.178,3.1 -1.767,6.571 -1.767,10.416 0,3.844 0.589,7.332 1.767,10.463"
             inkscape:connector-curvature="0" /></g><g
           transform="translate(543.9404,276.9932)"
           id="g80"><path
             id="path82"
             style="fill:#002f6d;fill-opacity:1;fill-rule:nonzero;stroke:none"
             d="m 0,0 c 0.369,15.793 8.172,24.57 24.519,24.57 h 3.708 V 11.827 L 22.519,11.703 C 15.684,11.703 12.467,7.297 12.467,0.186 V -25.211 H 0 Z"
             inkscape:connector-curvature="0" /></g><g
           transform="translate(606.3789,289.2861)"
           id="g84"><path
             id="path86"
             style="fill:#002f6d;fill-opacity:1;fill-rule:nonzero;stroke:none"
             d="m 0,0 c -1.565,1.718 -3.945,2.578 -7.137,2.578 -2.087,0 -3.82,-0.353 -5.201,-1.058 -1.381,-0.708 -2.486,-1.582 -3.314,-2.624 -0.829,-1.044 -1.413,-2.15 -1.75,-3.316 C -17.74,-5.586 -17.939,-6.629 -18,-7.549 H 3.268 C 2.654,-4.235 1.564,-1.719 0,0 m -14.777,-25.043 c 1.963,-1.903 4.787,-2.854 8.469,-2.854 2.639,0 4.912,0.659 6.814,1.979 1.901,1.319 3.068,2.717 3.498,4.189 h 11.51 c -1.842,-5.708 -4.665,-9.791 -8.471,-12.245 -3.807,-2.456 -8.41,-3.682 -13.811,-3.682 -3.744,0 -7.121,0.597 -10.128,1.795 -3.008,1.197 -5.555,2.9 -7.641,5.109 -2.088,2.211 -3.699,4.849 -4.834,7.919 -1.137,3.067 -1.703,6.444 -1.703,10.128 0,3.559 0.582,6.873 1.749,9.943 1.165,3.069 2.823,5.723 4.971,7.964 2.149,2.24 4.71,4.005 7.689,5.294 2.976,1.289 6.274,1.934 9.897,1.934 4.051,0 7.58,-0.784 10.588,-2.348 3.007,-1.564 5.479,-3.668 7.412,-6.307 1.934,-2.64 3.329,-5.648 4.19,-9.023 0.858,-3.376 1.165,-6.905 0.92,-10.588 H -18 c 0.184,-4.234 1.257,-7.305 3.223,-9.207"
             inkscape:connector-curvature="0" /></g><path
           id="path88"
           style="fill:#002f6d;fill-opacity:1;fill-rule:nonzero;stroke:none"
           d="m 478.989,305.155 h -12.285 v 11.188 h 12.285 z"
           inkscape:connector-curvature="0" /><path
           id="path90"
           style="fill:#002f6d;fill-opacity:1;fill-rule:nonzero;stroke:none"
           d="m 478.989,251.643 h -12.285 v 47.888 h 12.285 z"
           inkscape:connector-curvature="0" /></g></g></g></svg>