<svg width="104" height="104" viewBox="0 0 104 104" fill="none" xmlns="http://www.w3.org/2000/svg">
<path d="M26.8125 32.4899C26.8125 32.4899 78.8125 12.1875 78.8125 29.2398C78.8125 46.2922 27.6249 56.875 27.6249 75.4834C27.6249 94.0919 78.8125 72.2335 78.8125 72.2335" stroke="white" stroke-width="4.875" stroke-linecap="round"/>
<path fill-rule="evenodd" clip-rule="evenodd" d="M26.8125 11.375C38.0308 11.375 47.125 20.4692 47.125 31.6875C47.125 42.9058 38.0308 52 26.8125 52C15.5942 52 6.5 42.9058 6.5 31.6875C6.5 20.4692 15.5942 11.375 26.8125 11.375ZM27.2188 21.5312C32.6035 21.5312 36.9688 25.8965 36.9688 31.2812V32.0938C36.9688 37.4785 32.6035 41.8438 27.2188 41.8438H26.4062C21.0215 41.8438 16.6562 37.4785 16.6562 32.0938V31.2812C16.6562 25.8965 21.0215 21.5312 26.4062 21.5312H27.2188Z" fill="#FFCD83"/>
<path fill-rule="evenodd" clip-rule="evenodd" d="M78.8125 92.625C67.5942 92.625 58.5 83.5308 58.5 72.3125C58.5 61.0942 67.5942 52 78.8125 52C90.0308 52 99.125 61.0942 99.125 72.3125C99.125 83.5308 90.0308 92.625 78.8125 92.625ZM78.4062 82.4688C73.0215 82.4688 68.6562 78.1035 68.6562 72.7188V71.9062C68.6562 66.5215 73.0215 62.1562 78.4062 62.1562H79.2188C84.6035 62.1562 88.9688 66.5215 88.9688 71.9062V72.7188C88.9688 78.1035 84.6035 82.4688 79.2188 82.4688H78.4062Z" fill="#FFCD83"/>
</svg>
