<svg xmlns="http://www.w3.org/2000/svg" viewBox="0 0 89 101">
	<path fill="#95BF47" d="M77.667 19.756c-.07-.505-.51-.785-.877-.816-.363-.03-7.482-.139-7.482-.139s-5.954-5.781-6.542-6.37c-.588-.588-1.736-.41-2.183-.277-.006.003-1.118.347-2.99.927a20.969 20.969 0 00-1.433-3.518c-2.12-4.045-5.224-6.184-8.974-6.19h-.014c-.261 0-.52.025-.78.047a11.451 11.451 0 00-.338-.39c-1.635-1.749-3.73-2.6-6.24-2.525-4.844.138-9.668 3.637-13.58 9.851-2.752 4.373-4.847 9.866-5.44 14.119l-9.539 2.954c-2.808.883-2.896.969-3.263 3.616-.271 2-7.618 58.807-7.618 58.807L61.94 100.5l26.683-6.633S77.737 20.26 77.667 19.756zM54.51 14.035l-4.778 1.479c-.036-2.453-.327-5.865-1.47-8.814 3.676.696 5.485 4.855 6.248 7.335zm-7.999 2.477l-10.279 3.183c.994-3.804 2.877-7.591 5.191-10.074.86-.924 2.064-1.953 3.49-2.541 1.34 2.796 1.632 6.755 1.598 9.432zm-6.6-12.784c1.138-.025 2.095.225 2.913.763-1.31.68-2.574 1.657-3.762 2.93-3.076 3.301-5.435 8.426-6.375 13.37-2.933.907-5.801 1.797-8.442 2.613 1.667-7.782 8.19-19.46 15.666-19.676z" />
	<path fill="#5E8E3E" d="M76.793 18.943c-.363-.03-7.482-.139-7.482-.139s-5.954-5.782-6.542-6.37c-.22-.219-.516-.333-.827-.38l.003 88.443 26.68-6.63S77.74 20.263 77.67 19.758c-.07-.504-.513-.785-.877-.815z" />
	<path fill="#fff" d="M47.152 32.662l-3.099 11.594s-3.456-1.573-7.554-1.315c-6.01.38-6.073 4.17-6.012 5.121.327 5.186 13.969 6.318 14.734 18.463.602 9.555-5.068 16.092-13.239 16.608-9.807.618-15.206-5.166-15.206-5.166l2.078-8.84s5.435 4.101 9.785 3.827c2.841-.18 3.856-2.492 3.754-4.126-.428-6.764-11.536-6.364-12.238-17.478-.59-9.352 5.552-18.83 19.104-19.684 5.221-.336 7.893.996 7.893.996z" />
</svg>
