<svg width="24" height="24" viewBox="0 0 24 24" fill="none" xmlns="http://www.w3.org/2000/svg">
<path fill-rule="evenodd" clip-rule="evenodd" d="M15.2103 9.19238C16.3543 9.19238 17.3348 8.33691 17.3348 7.10693C17.3348 5.87646 16.3543 5.021 15.2103 5.021C14.0667 5.021 13.0867 5.87646 13.0867 7.10693C13.0867 8.33691 14.0667 9.19238 15.2103 9.19238ZM17.9881 12.5625C16.5716 14.3804 15.074 15.6377 12.4324 15.6377C9.7376 15.6377 7.63994 14.0332 6.00615 11.6797C5.35235 10.7168 4.34502 10.5029 3.60967 11.0112C2.92901 11.4927 2.76592 12.5088 3.3919 13.3916C5.65166 16.7881 8.7835 18.7666 12.4324 18.7666C15.782 18.7666 18.3968 17.1621 20.4388 14.4878C21.201 13.4985 21.1736 12.4824 20.4388 11.9204C19.7576 11.3853 18.7503 11.5732 17.9881 12.5625Z" fill="white"/>
</svg>
