<svg width="32" height="32" viewBox="0 0 384 197" fill="none" xmlns="http://www.w3.org/2000/svg">
<path d="M61.2039 0.166016C36.0184 0.166016 18.6567 11.217 5.51812 23.714C5.51812 23.714 0.212893 28.7415 0.279927 28.8947L55.4581 84.0729L110.627 28.8947C100.179 14.5112 80.4808 0.166016 61.2039 0.166016Z" fill="#FF6143"/>
<path d="M197.454 0.166016C172.269 0.166016 154.907 11.217 141.769 23.714C141.769 23.714 136.923 28.6074 136.703 28.8947L68.501 97.1061L123.593 152.198L246.877 28.8947C236.43 14.5112 216.741 0.166016 197.454 0.166016Z" fill="#FF6143"/>
<path d="M334.078 0.166016C308.893 0.166016 291.531 11.217 278.392 23.714C278.392 23.714 273.346 28.6457 273.154 28.8947L136.722 165.346L151.163 179.787C173.504 202.129 210.076 202.129 232.417 179.787L383.329 28.8947H383.501C373.053 14.5112 353.365 0.166016 334.078 0.166016Z" fill="#FF6143"/>
</svg>
