<svg width="120" height="40" viewBox="0 0 120 40" fill="none" xmlns="http://www.w3.org/2000/svg">
<rect width="120" height="40" fill="none"/>
<path d="M37.6558 16.4773V15.3494C37.6558 11.6408 40.842 8.89746 44.5863 8.89746C45.3372 8.89746 46.0881 9.00923 46.4229 9.12099L45.5604 12.4333C45.256 12.3216 44.9212 12.2809 44.5863 12.2809C42.6381 12.2809 41.3291 13.7034 41.3291 15.3596V16.4874H45.8243V19.2613H41.3291V33.3642H37.6558V19.2511H35.4844V16.4773H37.6558Z" fill="#3F00A5"/>
<path d="M46.5652 24.9213C46.5652 20.0442 50.0862 16.2949 54.7336 16.2949C57.1283 16.2949 59.2287 17.5752 60.4667 19.4854V16.488H64.1298V33.3647H60.4565V30.3674C59.178 32.2775 57.0877 33.5578 54.7234 33.5578C50.0862 33.5476 46.5652 29.7577 46.5652 24.9213ZM50.2384 24.9213C50.2384 28.1828 52.5215 30.7331 55.3323 30.7331C57.727 30.7331 60.4667 28.7417 60.4667 24.9213C60.4667 21.7004 58.2546 19.1094 55.3323 19.1094C52.5215 19.1094 50.2384 21.7308 50.2384 24.9213Z" fill="#3F00A5"/>
<path d="M66.4939 26.271V16.4863H70.1266V26.5047C70.1266 28.6791 71.7704 30.5588 74.0941 30.5588C77.057 30.5588 78.6603 28.0491 78.6603 26.2811V16.4965H82.2929V33.3733H78.6603V31.0871C77.5035 32.5502 75.6669 33.5663 73.5258 33.5663C69.1118 33.546 66.4939 30.2031 66.4939 26.271Z" fill="#3F00A5"/>
<path d="M84.3223 33.354V16.4772H87.9549V18.7634C89.0812 17.3002 90.9179 16.2842 93.0894 16.2842C97.4729 16.2842 100.131 19.627 100.131 23.5592V33.3438H96.4988V23.3255C96.4988 21.0393 94.7433 19.2714 92.4907 19.2714C89.4973 19.2714 87.9549 21.8928 87.9549 23.549V33.3337H84.3223V33.354Z" fill="#3F00A5"/>
<path d="M101.775 24.9213C101.775 20.0442 105.296 16.2949 109.944 16.2949C112.339 16.2949 114.439 17.5752 115.677 19.4854V16.488H119.35V33.3647H115.677V30.3674C114.398 32.2775 112.308 33.5578 109.944 33.5578C105.296 33.5476 101.775 29.7577 101.775 24.9213ZM105.449 24.9213C105.449 28.1828 107.732 30.7331 110.542 30.7331C112.937 30.7331 115.677 28.7417 115.677 24.9213C115.677 21.7004 113.465 19.1094 110.542 19.1094C107.732 19.1094 105.449 21.7308 105.449 24.9213Z" fill="#3F00A5"/>
<path d="M21.6945 10.5028C19.7767 11.1429 18.8533 12.2911 18.2242 14.0793C18.0618 14.5569 17.6559 15.0852 17.1993 15.4408L18.7721 17.1275L13.7797 13.6323L0 4C0 4 0.994414 10.4621 1.33942 12.8397C1.58295 14.5162 1.99898 15.2681 3.3181 16.0302L3.84574 16.3147L6.11869 17.5136L4.76913 16.8125L10.9994 20.2163L10.9589 20.3078L4.25163 17.1986C4.60678 18.4179 5.29678 20.765 5.59104 21.8014C5.9056 22.919 6.26075 23.3255 7.34649 23.7217L9.34546 24.4533L10.5834 23.9656L9.01061 25.0121L1.14662 35C6.37237 30.1432 10.7965 28.4159 14.0334 27.0036C18.1633 25.2153 20.6493 24.0672 22.2728 19.942C23.4296 17.0462 24.3327 13.3376 25.4793 11.9049L27.9248 8.77548C27.9248 8.77548 22.8614 10.1167 21.6945 10.5028Z" fill="#3F00A5"/>
</svg>
