<svg width="80" height="80" viewBox="0 0 80 80" fill="none" xmlns="http://www.w3.org/2000/svg">
<circle cx="39.9997" cy="39.9998" r="12.4999" fill="#6C47FF"/>
<path d="M62.232 6.74247C63.4816 7.57946 63.5883 9.34018 62.5248 10.4037L53.39 19.5385C52.5644 20.3641 51.2836 20.4945 50.2445 19.9622C47.1718 18.388 43.6895 17.4999 39.9998 17.4999C27.5734 17.4999 17.4999 27.5734 17.4999 39.9998C17.4999 43.6895 18.388 47.1718 19.9622 50.2445C20.4945 51.2836 20.3641 52.5644 19.5385 53.39L10.4037 62.5248C9.34018 63.5883 7.57946 63.4816 6.74247 62.232C2.48381 55.874 0 48.227 0 39.9998C0 17.9085 17.9085 0 39.9998 0C48.227 0 55.874 2.48381 62.232 6.74247Z" fill="#BAB1FF"/>
<path d="M62.5249 69.5959C63.5884 70.6594 63.4816 72.4201 62.232 73.2571C55.8741 77.5158 48.227 79.9996 39.9998 79.9996C31.7726 79.9996 24.1255 77.5158 17.7676 73.2571C16.518 72.4201 16.4112 70.6594 17.4747 69.5959L26.6095 60.4611C27.4351 59.6355 28.7159 59.505 29.7551 60.0374C32.8278 61.6116 36.3101 62.4997 39.9998 62.4997C43.6895 62.4997 47.1718 61.6116 50.2445 60.0374C51.2837 59.505 52.5645 59.6355 53.3901 60.4611L62.5249 69.5959Z" fill="#6C47FF"/>
</svg>
