<svg xmlns="http://www.w3.org/2000/svg" height="96" stroke-linejoin="round" viewBox="0 0 96 96" width="96">
  <path fill-rule="evenodd" clip-rule="evenodd"
    d="M9 15H87V75C87 78.314 84.314 81 81 81H15C11.686 81 9 78.314 9 75V15ZM0 6H9H87H96V15V75C96 83.284 88.284 91 80 91H16C7.716 91 0 83.284 0 75V15V6ZM24 66.8034L26.6516 64.1518L39.0909 51.7125C41.1412 49.6622 41.1412 46.3378 39.0909 44.2875L26.6516 31.8482L24 29.1966L18.6966 34.5L21.3482 37.1518L32.1966 48L21.3482 58.8482L18.6966 61.5L24 66.8034ZM48 58.5296H51.735H70.5H74.235V66H70.5H51.735H48V58.5296Z">
  </path>
</svg>