<svg width="137" height="23" viewBox="0 0 137 23" fill="none" xmlns="http://www.w3.org/2000/svg">
<path d="M76.5834 0.875H74.8117C74.7394 0.875 74.7033 0.913514 74.7033 0.990541V17.0892C74.7033 17.1662 74.7394 17.2047 74.8117 17.2047H76.5834C76.6557 17.2047 76.6919 17.1662 76.6919 17.0892V0.990541C76.6557 0.913514 76.6195 0.875 76.5834 0.875Z" fill="#0C2D66"/>
<path d="M108.871 5.88176H110.859C110.895 5.88176 110.968 5.95879 110.968 5.9973V7.88446C110.968 7.96149 110.932 8 110.859 8H108.871C108.834 8 108.798 8.03851 108.798 8.07703V17.0892C108.798 17.1662 108.762 17.2047 108.69 17.2047H106.918C106.846 17.2047 106.81 17.1662 106.81 17.0892V8.07703C106.81 8.03851 106.774 8 106.737 8H104.785C104.713 8 104.677 7.96149 104.677 7.88446V5.9973C104.677 5.92027 104.713 5.88176 104.785 5.88176H106.737C106.774 5.88176 106.81 5.84324 106.81 5.80473V0.990541C106.81 0.913514 106.846 0.875 106.918 0.875H108.69C108.762 0.875 108.798 0.913514 108.798 0.990541V5.80473C108.798 5.84324 108.834 5.88176 108.871 5.88176Z" fill="#0C2D66"/>
<path d="M112.739 2.26154H114.511C114.583 2.26154 114.619 2.30006 114.619 2.37708V4.26425C114.619 4.34127 114.583 4.37979 114.511 4.37979H112.739C112.667 4.37979 112.631 4.34127 112.631 4.26425V2.37708C112.631 2.30006 112.667 2.26154 112.739 2.26154Z" fill="#0C2D66"/>
<path d="M112.739 5.88181H114.511C114.583 5.88181 114.619 5.95884 114.619 5.99735V17.0892C114.619 17.1663 114.583 17.2048 114.511 17.2048H112.739C112.667 17.2048 112.631 17.1663 112.631 17.0892V5.99735C112.631 5.92033 112.667 5.88181 112.739 5.88181Z" fill="#0C2D66"/>
<path fill-rule="evenodd" clip-rule="evenodd" d="M131.649 15.2791C130.6 15.2791 129.696 14.8169 129.046 14.0467C129.009 13.9697 129.009 13.8926 129.082 13.8541L135.156 11.1197L136.928 10.3109C137 10.2724 137 10.2338 137 10.1953C136.421 7.5379 134.144 5.57371 131.468 5.68925C128.648 5.80479 126.298 8.23114 126.189 11.2352C126.045 14.5859 128.539 17.3588 131.685 17.3588C133.963 17.3588 135.915 15.8568 136.747 13.7386C136.783 13.6615 136.747 13.5845 136.674 13.5845L134.903 13.2379C134.867 13.2379 134.794 13.2379 134.794 13.3149C134.144 14.4703 132.987 15.2791 131.649 15.2791ZM131.649 7.80753C132.697 7.80753 133.637 8.30821 134.252 9.07848C134.288 9.15551 134.288 9.23253 134.216 9.27105C134.216 9.27105 128.359 11.9285 128.286 11.967C128.214 12.0055 128.142 11.9285 128.142 11.89V11.5819C128.105 9.46362 129.696 7.80753 131.649 7.80753Z" fill="#0C2D66"/>
<path d="M124.201 5.88181H125.936C126.009 5.88181 126.045 5.95884 125.972 6.03587L122.393 17.1278C122.357 17.1663 122.321 17.2048 122.284 17.2048H119.826C119.754 17.2048 119.717 17.1663 119.717 17.1278L116.138 6.03587C116.138 5.95884 116.174 5.88181 116.246 5.88181H117.982C118.054 5.88181 118.09 5.92033 118.09 5.95884L120.911 14.7784C120.983 14.971 121.2 14.971 121.272 14.7784L124.092 5.95884C124.128 5.92033 124.165 5.88181 124.201 5.88181Z" fill="#0C2D66"/>
<path d="M99.2532 15.279C97.0838 15.279 95.3845 13.1993 95.7822 10.8115C95.9991 9.50201 97.2284 8.15404 98.4577 7.88445C99.7955 7.57634 101.061 8.07701 101.856 9.03985C101.893 9.07837 101.965 9.07837 102.001 9.03985L103.266 7.69188C103.303 7.65337 103.303 7.57634 103.266 7.53782C102.218 6.30539 100.663 5.57363 98.9639 5.65066C96.1799 5.80472 93.8659 8.23107 93.7213 11.1966C93.5767 14.5473 96.0714 17.3203 99.217 17.3203C100.808 17.3203 102.254 16.5885 103.266 15.4331C103.303 15.3946 103.303 15.3561 103.266 15.3176L102.001 13.9696C101.965 13.9311 101.893 13.9311 101.856 13.9696C101.242 14.8169 100.302 15.279 99.2532 15.279Z" fill="#0C2D66"/>
<path fill-rule="evenodd" clip-rule="evenodd" d="M87.4301 15.279C86.3816 15.279 85.4777 14.8169 84.8269 14.0466C84.7907 13.9696 84.7907 13.8926 84.8631 13.854L90.9372 11.1196L92.7089 10.3108C92.7812 10.2723 92.7812 10.2338 92.7812 10.1953C92.2027 7.53783 89.9249 5.57364 87.2493 5.68918C84.4292 5.80472 82.079 8.23107 81.9706 11.2351C81.826 14.5858 84.3207 17.3588 87.4663 17.3588C89.7441 17.3588 91.6965 15.8567 92.5281 13.7385C92.5643 13.6615 92.5281 13.5844 92.4558 13.5844L90.6842 13.2378C90.648 13.2378 90.5757 13.2378 90.5757 13.3149C89.9249 14.4703 88.7317 15.279 87.4301 15.279ZM87.4302 7.80744C88.4787 7.80744 89.4187 8.30812 90.0334 9.07839C90.0696 9.15541 90.0696 9.23244 89.9972 9.27096C89.9972 9.27096 84.14 11.9284 84.0676 11.9669C83.9953 12.0054 83.923 11.9284 83.923 11.8899V11.5818C83.8869 9.46352 85.4777 7.80744 87.4302 7.80744Z" fill="#0C2D66"/>
<path d="M78.6804 0.875H80.4521C80.4882 0.875 80.5605 0.913514 80.5605 0.990541V17.0892C80.5605 17.1662 80.5244 17.2047 80.4521 17.2047H78.6804C78.6081 17.2047 78.572 17.1662 78.572 17.0892V0.990541C78.572 0.913514 78.6081 0.875 78.6804 0.875Z" fill="#0C2D66"/>
<path fill-rule="evenodd" clip-rule="evenodd" d="M62.4102 11.5433C62.4102 8.30813 64.8688 5.68921 67.906 5.68921C70.9431 5.68921 73.4017 8.30813 73.4017 11.5433C73.4017 14.7784 70.9431 17.3973 67.906 17.3973C64.8688 17.3973 62.4102 14.7784 62.4102 11.5433ZM71.4131 11.5433C71.4131 9.50204 69.8584 7.80744 67.9059 7.80744C65.9535 7.80744 64.3988 9.50204 64.3988 11.5433C64.3988 13.5845 65.9897 15.2791 67.9059 15.2791C69.8222 15.2791 71.4131 13.5845 71.4131 11.5433Z" fill="#0C2D66"/>
<path d="M54.3475 10.8115C53.9497 13.1993 55.6491 15.279 57.8184 15.279C58.8669 15.279 59.807 14.8169 60.4216 13.9696C60.4578 13.9311 60.5301 13.9311 60.5663 13.9696L61.8317 15.3176C61.8679 15.3561 61.8679 15.3946 61.8317 15.4331C60.8194 16.5885 59.3731 17.3203 57.7823 17.3203C54.6367 17.3203 52.1419 14.5473 52.2866 11.1966C52.4312 8.23107 54.7452 5.80472 57.5292 5.65066C59.2285 5.57363 60.7832 6.30539 61.8317 7.53782C61.8679 7.57634 61.8679 7.65337 61.8317 7.69188L60.5663 9.03985C60.5301 9.07837 60.4578 9.07837 60.4216 9.03985C59.6262 8.07701 58.3608 7.57634 57.023 7.88445C55.7937 8.15404 54.5644 9.50201 54.3475 10.8115Z" fill="#0C2D66"/>
<path d="M41.9755 5.68921C40.8185 5.68921 39.4807 6.45948 38.8661 7.3838C38.8299 7.46083 38.6853 7.42232 38.6853 7.34529V5.99732C38.6853 5.9588 38.6491 5.88178 38.5768 5.88178H36.8052C36.769 5.88178 36.6967 5.92029 36.6967 5.99732V17.1277C36.6967 17.1662 36.7329 17.2433 36.8052 17.2433H38.5768C38.613 17.2433 38.6853 17.2047 38.6853 17.1277V11.5818C38.6853 9.46353 40.0231 7.96151 41.9393 7.96151C44.4702 7.96151 45.2295 9.73313 45.2295 11.8129V17.1277C45.2295 17.1662 45.2657 17.2433 45.338 17.2433H47.1096C47.1458 17.2433 47.2181 17.2047 47.2181 17.1277V11.8129C47.2542 8.57772 45.808 5.68921 41.9755 5.68921Z" fill="#0C2D66"/>
<path fill-rule="evenodd" clip-rule="evenodd" d="M30.2971 15.279C29.2486 15.279 28.3447 14.8169 27.6939 14.0466C27.6577 13.9696 27.6577 13.8926 27.73 13.854L33.8042 11.1196L35.5759 10.3108C35.6482 10.2723 35.6482 10.2338 35.6482 10.1953C35.0697 7.53783 32.7919 5.57364 30.1163 5.68918C27.2962 5.80472 24.946 8.23107 24.8376 11.2351C24.6929 14.5858 27.1877 17.3588 30.3333 17.3588C32.6111 17.3588 34.5635 15.8567 35.3951 13.7385C35.4312 13.6615 35.3951 13.5844 35.3228 13.5844L33.5511 13.2378C33.515 13.2378 33.4427 13.2378 33.4427 13.3149C32.7919 14.4703 31.6349 15.279 30.2971 15.279ZM30.2971 7.80744C31.3456 7.80744 32.2857 8.30812 32.9003 9.07839C32.9365 9.15541 32.9365 9.23244 32.8642 9.27096C32.8642 9.27096 27.0069 11.9284 26.9346 11.9669C26.8623 12.0054 26.79 11.9284 26.79 11.8899V11.5818C26.79 9.46352 28.3808 7.80744 30.2971 7.80744Z" fill="#0C2D66"/>
<path fill-rule="evenodd" clip-rule="evenodd" d="M15.0755 7.1527C15.8347 6.18986 16.9194 5.61216 18.2933 5.57364C20.9327 5.53513 23.319 7.53783 23.7529 10.3493C24.4037 14.0466 21.7282 17.2817 18.3657 17.2817C16.9194 17.2817 15.7986 16.6655 15.0393 15.7027C14.967 15.6257 14.8585 15.6642 14.8585 15.7797V22.1344C14.8585 22.2115 14.8224 22.25 14.7501 22.25H13.0146C12.9423 22.25 12.9061 22.2115 12.9061 22.1344V5.99729C12.9061 5.92026 12.9423 5.88175 13.0146 5.88175H14.7862C14.8585 5.88175 14.8947 5.92026 14.8947 5.99729V7.07567C14.8947 7.19121 15.0032 7.22972 15.0755 7.1527ZM14.9308 10.8115C14.5331 13.3533 16.594 15.5486 18.9803 15.125C20.4265 14.8554 21.6197 13.6229 21.8366 12.0824C22.2343 9.54051 20.1735 7.34524 17.7872 7.76889C16.3409 7.99997 15.1839 9.27091 14.9308 10.8115Z" fill="#0C2D66"/>
<path fill-rule="evenodd" clip-rule="evenodd" d="M6.39804 5.68921C3.36095 5.68921 0.902344 8.30813 0.902344 11.5433C0.902344 14.7784 3.36095 17.3973 6.39804 17.3973C9.43514 17.3973 11.8937 14.7784 11.8937 11.5433C11.8937 8.30813 9.43514 5.68921 6.39804 5.68921ZM6.39803 7.80744C8.35045 7.80744 9.90516 9.50203 9.90516 11.5432C9.90516 13.5845 8.3143 15.2791 6.39803 15.2791C4.48177 15.2791 2.89091 13.5845 2.89091 11.5432C2.89091 9.50203 4.48177 7.80744 6.39803 7.80744Z" fill="#0C2D66"/>
</svg>
