<svg id="b4f7138d-771a-4302-9114-b1a94238dcbb" data-name="Layer 1" xmlns="http://www.w3.org/2000/svg" width="842.98446" height="770.56368" viewBox="0 0 842.98446 770.56368"><title>social_girl</title><path d="M965.45709,522.18421a298.78344,298.78344,0,0,0-20.93973-262.90595L467.1708,325.3724l457.45051-95.33557a297.75638,297.75638,0,0,0-236.381-116.37653c-164.72914,0-298.26843,133.53929-298.26843,298.26843a300.8275,300.8275,0,0,0,2.77606,40.70171Z" transform="translate(-178.50777 -64.71816)" fill="#f2f2f2"/><path d="M409.90851,519.31741C453.02062,630.97988,561.372,710.19715,688.24034,710.19715c119.04772,0,221.79116-69.75281,269.62825-170.6108Z" transform="translate(-178.50777 -64.71816)" fill="#f2f2f2"/><path d="M950.49664,623.05508c0,117.2136-172.82023,212.22676-385.99443,212.22676-114.52335,0-217.39673-27.4173-288.08049-70.97625-46.12048-28.4115-78.544-63.70073-91.55089-102.6979a120.87527,120.87527,0,0,1-6.36306-38.55261c0-117.202,319.87239-645.88566,385.99444-212.21513S950.49664,505.85312,950.49664,623.05508Z" transform="translate(-178.50777 -64.71816)" fill="#00b0ff"/><path d="M756.32974,700.02c0,43.27816-136.67709,78.36856-305.2865,78.36856-64.94067,0-125.14407-5.20509-174.62152-14.083-46.12048-28.4115-78.544-63.70073-91.55089-102.6979C237.214,637.7579,336.8006,621.65145,451.04324,621.65145,619.65265,621.65145,756.32974,656.74185,756.32974,700.02Z" transform="translate(-178.50777 -64.71816)" opacity="0.1"/><path d="M535.9654,253.63307c-24.19434-40.881-72.06091-42.78618-72.06091-42.78618s-46.64325-5.9647-76.5646,56.29749c-27.88909,58.03348-66.37958,114.066-6.19666,127.6512L392.014,360.96084l6.73222,36.3537a235.47744,235.47744,0,0,0,25.75.44009c64.451-2.08087,125.83093.6088,123.85459-22.51894C545.72364,344.49062,559.24521,292.96872,535.9654,253.63307Z" transform="translate(-178.50777 -64.71816)" fill="#2f2e41"/><path d="M377.707,611.647c-.89739,4.4619-1.56135,8.99776-3.08632,13.28592-1.514,4.25726-3.85141,8.19441-5.23571,12.49558-4.41251,13.71023,1.70454,28.99679,11.47444,39.57932a64.586,64.586,0,0,0,31.48927,18.69838c8.81372,2.21669,17.97794,2.53573,27.06092,2.84373,25.15128.85288,50.94968,1.61592,74.782-6.46705a129.9293,129.9293,0,0,0,21.72642-9.87016,16.26628,16.26628,0,0,0,5.63754-4.43891c1.81768-2.58781,2.05023-5.944,2.03437-9.10634-.05349-10.66228-2.215-21.2702-1.70184-31.92026.28427-5.89906,1.3883-11.79355.84486-17.67439-1.23248-13.33717-11.82334-25.27435-24.9188-28.08649-6.7607-1.4518-13.77293-.66071-20.656.00112a526.665,526.665,0,0,1-53.75795,2.40371c-18.33886-.11706-36.56447-2.91646-54.812-3.20882-5.39634-.08646-5.28732,1.57717-7.00533,6.79983A127.22233,127.22233,0,0,0,377.707,611.647Z" transform="translate(-178.50777 -64.71816)" fill="#2f2e41"/><path d="M429.75108,348.369c-.88129,4.6145-1.83384,9.39779-4.6069,13.19-3.19049,4.363-8.39248,6.8559-11.82475,11.03136-5.16627,6.28494-5.46281,15.12885-5.48411,23.26461-.01961,7.4948.13262,15.48882,4.31215,21.71008,2.71253,4.03763,6.8399,6.86835,10.87361,9.58672,15.674,10.56293,32.61146,21.31549,51.50933,21.66384,7.83008.14433,16.22569-1.8778,21.37779-7.77584a32.0978,32.0978,0,0,0,5.1759-9.23422,122.62369,122.62369,0,0,0,8.68011-37.3298c.43037-6.0321.38925-12.2401-1.65241-17.93246-2.29577-6.40087-6.93777-11.66749-10.00571-17.73621a39.48452,39.48452,0,0,1-3.80048-23.365,2.522,2.522,0,0,0-.13339-1.69328,2.46647,2.46647,0,0,0-2.03264-.82363l-37.47142-2.69752a81.54237,81.54237,0,0,1-10.40391-1.1902c-2.02-.41073-7.35526-3.27958-9.28133-2.51672C431.41762,327.93278,430.4819,344.5424,429.75108,348.369Z" transform="translate(-178.50777 -64.71816)" fill="#a0616a"/><path d="M429.75108,349.53871c-.88129,4.6145-1.83384,9.39779-4.6069,13.19-3.19049,4.363-8.39248,6.8559-11.82475,11.03136-5.16627,6.28494-5.46281,15.12886-5.48411,23.26461-.01961,7.4948.13262,15.48882,4.31215,21.71008,2.71253,4.03763,6.8399,6.86835,10.87361,9.58672,15.674,10.56293,32.61146,21.31549,51.50933,21.66384,7.83008.14433,16.22569-1.8778,21.37779-7.77584a32.0978,32.0978,0,0,0,5.1759-9.23422,122.62369,122.62369,0,0,0,8.68011-37.3298c.43037-6.0321.38925-12.2401-1.65241-17.93246-2.29577-6.40087-6.93777-11.66749-10.00571-17.73621a39.48452,39.48452,0,0,1-3.80048-23.365,2.522,2.522,0,0,0-.13339-1.69328,2.46647,2.46647,0,0,0-2.03264-.82363l-37.47142-2.69752a81.54237,81.54237,0,0,1-10.40391-1.1902c-2.02-.41073-7.35526-3.27958-9.28133-2.51672C431.41762,329.10246,430.4819,345.71208,429.75108,349.53871Z" transform="translate(-178.50777 -64.71816)" opacity="0.1"/><circle cx="287.07818" cy="233.70053" r="54.97497" fill="#a0616a"/><path d="M437.4616,421.54934c2.86529,2.99489,5.90149,5.96027,9.65608,7.7159,3.73472,1.74633,7.942,2.18093,12.06323,2.29685,9.90975.27875,20.65259-1.53705,27.5463-8.66149,8.88633-9.18376,8.59365-23.99634,15.559-34.71044a7.73191,7.73191,0,0,1,2.2445-2.45474,7.27553,7.27553,0,0,1,3.81757-.87773c8.79706-.08225,16.46016,5.62329,23.37609,11.06066,3.09816,2.4358,6.27339,4.95931,8.22793,8.38152a28.40881,28.40881,0,0,1,2.77463,8.497c3.432,16.7535,4.54347,33.88339,5.64657,50.94918.6093,9.42621,1.21888,18.86149,1.1736,28.30726-.14917,31.11982-7.38244,61.71921-14.57543,91.9967-.92682,3.90125-2.19515,8.26192-5.74294,10.13058a14.16108,14.16108,0,0,1-5.01121,1.22309c-20.60208,2.41956-41.2468,4.842-61.988,5.16148q-12.14133.187-24.27208-.5878a13.0753,13.0753,0,0,1-4.08874-.71279,11.53017,11.53017,0,0,1-4.45751-3.78539c-11.21918-14.13764-11.88141-33.68315-11.8097-51.73136q.263-66.18948,4.72972-132.2732c.24586-3.63632.29954-8.05259-2.32061-10.91314C424.72848,408.11424,431.29049,415.09912,437.4616,421.54934Z" transform="translate(-178.50777 -64.71816)" fill="#d0cde1"/><path d="M425.81683,358.07237c-1.85676,3.36105-15.54577,11.70709-18.18859,14.49277-14.76576,15.564-41.7154,14.98-55.21975,31.65026-4.75127,5.86514-7.2198,13.23459-9.03531,20.56114-2.56773,10.36213-3.93879,21.663.36265,31.43355,4.13894,9.40149,12.85189,15.90116,18.76741,24.29911,6.49517,9.22083,9.41553,20.41682,12.21419,31.34287,2.06644,8.0674,4.15,16.33463,3.34518,24.6235-.915,9.42426-5.47549,18.05357-8.16813,27.13121S366.7371,583.496,372.96289,590.63c4.57389,5.2411,11.74815,7.31887,18.60552,8.4877,8.75281,1.49191,17.64817,1.91666,26.51856,2.30858,7.83891.34634,16.47967.41368,22.50584-4.61162,4.75494-3.96521,6.82159-10.3998,7.08907-16.58533s-1.01946-12.3163-1.82557-18.45491c-.83566-6.36359-1.1568-12.78262-1.4255-19.19521q-1.80842-43.15875-.49353-86.373c.1826-5.99485.40405-12.06333-.87423-17.92316-1.68114-7.70667-5.84625-14.59405-9.32164-21.67506-6.89824-14.055-10.16057-27.70826-9.09426-43.32975C425.69967,357.85912,432.42391,346.11206,425.81683,358.07237Z" transform="translate(-178.50777 -64.71816)" fill="#575a89"/><path d="M503.01571,359.24205c2.82815,2.90671,12.43813,3.865,16.03575,5.73692,3.30481,1.71962,6.96168,2.61815,10.54142,3.64978A136.85239,136.85239,0,0,1,566.62472,385.625a22.474,22.474,0,0,1,6.19275,5.34907c2.01269,2.79991,2.74325,6.29362,3.42561,9.67368,1.76159,8.726,3.532,17.55711,3.13609,26.45029-.42019,9.44-3.2637,18.58269-6.08461,27.60116l-10.54037,33.69762c-7.86766,25.15293-15.78521,50.5535-17.999,76.81505A180.68882,180.68882,0,0,0,546.37687,608.84c.23165,1.45009.4259,3.11228-.53164,4.22562a4.16187,4.16187,0,0,1-2.58116,1.18765c-5.08724.79545-10.01045-1.79844-14.61964-4.09368a161.8956,161.8956,0,0,0-44.62931-14.603,103.754,103.754,0,0,0,13.86171-28.57513,172.93919,172.93919,0,0,0,4.1881-19.65215l4.90326-28.35907c1.798-10.39885,3.59909-20.82478,4.20611-31.36045a39.259,39.259,0,0,0-.68249-11.81348c-.939-3.74382-2.80592-7.175-4.47827-10.65365-8.08081-16.80894-11.87237-35.991-8.69287-54.36842,1.39144-8.04251,4.09543-16.0958,2.9679-24.17953-1.08406-7.77218.04257-13.81253-1.95158-21.50424C490.14923,333.50909,497.695,353.7736,503.01571,359.24205Z" transform="translate(-178.50777 -64.71816)" fill="#575a89"/><path d="M352.26865,430.79169c-3.68395,7.64473-9.84293,14.15734-11.93916,22.38043a48.89481,48.89481,0,0,0-1.041,11.69729c-.04968,5.91819-.08194,11.95638,1.73532,17.58887,1.17,3.62625,3.07338,6.97044,4.44462,10.52547a38.1647,38.1647,0,0,1,2.5,15.59354c-.37,7.36379-2.87163,14.51182-3.06713,21.8823-.30745,11.5907,5.05358,22.48691,10.28468,32.83458a24.13785,24.13785,0,0,1,35.08535-11.48652c1.38-1.27443,1.52734-3.36719,1.58134-5.24485q.58-20.1705,1.11892-40.34216c.56625-20.79787,1.10567-41.87363-3.67862-62.12166-2.16012-9.142-5.52124-18.24873-11.68289-25.33952-3.24445-3.73366-14.25851-13.56823-19.58437-9.38557-2.39506,1.881-1.83529,7.00117-2.2148,9.59392A40.70272,40.70272,0,0,1,352.26865,430.79169Z" transform="translate(-178.50777 -64.71816)" fill="#575a89"/><path d="M580.45606,408.76142c1.74239,5.42581,1.84662,11.22339,1.88132,16.922q.1062,17.43683-.46217,34.86905c-.194,5.94945-.46112,11.98088-2.26508,17.65357-1.18968,3.74106-3.02558,7.24924-4.25423,10.9777-3.6822,11.174-1.67035,23.29322-1.3546,35.054a39.82979,39.82979,0,0,1-.96459,11.33944c-1.94322,7.29077-7.16545,13.182-10.81031,19.78851-3.46163,6.27442-5.55036,13.30735-9.68468,19.16043s-11.29126,10.49094-18.22831,8.69412c-5.25611-1.36143-8.9909-6.01384-11.57423-10.78946a52.92085,52.92085,0,0,1-5.47168-34.328c2.59351-14.27428,10.97816-26.93743,14.002-41.12677,4.15244-19.48511-2.15855-39.59222-1.97075-59.514a28.76754,28.76754,0,0,1,1.25409-9.22536c1.58611-4.55052,4.99263-8.18446,8.13964-11.834a149.41208,149.41208,0,0,0,10.93961-14.357c2.253-3.36,5.31283-12.00185,9.30714-12.72039C567.8571,387.72109,578.24356,401.87168,580.45606,408.76142Z" transform="translate(-178.50777 -64.71816)" fill="#575a89"/><path d="M305.99533,602.98132a54.263,54.263,0,0,0-15.09437-1.60461,37.67315,37.67315,0,0,0-34.976,44.41107c1.04988,5.725,3.40848,11.12312,5.98119,16.34415,4.003,8.12375,8.80418,16.22887,16.21487,21.43477,4.33507,3.04532,9.35239,4.944,14.31008,6.81168l39.0307,14.70355c5.74186,2.16306,11.48457,4.32643,17.28326,6.33214a338.06023,338.06023,0,0,0,90.27264,17.94637c9.372.55808,18.88581.71338,28.02872-1.42026,2.16967-.50633,4.48408-1.26113,5.74025-3.1012a9.83055,9.83055,0,0,0,1.28255-4.23621l2.40174-16.81372c.33818-2.36746.66356-4.85939-.20414-7.08792-1.10022-2.82577-3.85807-4.60336-6.48761-6.11364C444.11933,675.8497,414.15829,667.719,392.56,647.4916c-5.0846-4.76186-9.33959-12.30987-15.51731-15.5445-7.00547-3.668-15.25573-5.76149-22.49684-9.14153C338.71586,615.41641,323.152,606.92512,305.99533,602.98132Z" transform="translate(-178.50777 -64.71816)" fill="#2f2e41"/><path d="M344.96181,625.64863c13.79572,4.32287,72.04124,34.27178,82.0247,44.72833-1.33819.48213-46.74164-24.96264-48.104-25.37151-12.38406-3.71673-24.837-7.45783-36.59746-12.89709-2.36589-1.09423-15.37022-6.2374-14.78129-9.2225C328.16832,619.51738,342.5127,624.88121,344.96181,625.64863Z" transform="translate(-178.50777 -64.71816)" opacity="0.1"/><path d="M517.072,738.08052a3.24057,3.24057,0,0,0,2.187-.64362,3.37783,3.37783,0,0,0,.68359-2.51663q-.03215-11.45313-.06426-22.90625c-6.587-3.13836-13.95495-4.14432-21.187-5.111l-33.74369-4.51038c.77526.10363-5.276,14.53367-4.34817,16.46013,1.63533,3.39539,14.13293,6.40464,17.66,8.0078C490.52094,732.43373,503.26224,738.56075,517.072,738.08052Z" transform="translate(-178.50777 -64.71816)" fill="#a0616a"/><path d="M411.20164,711.93474c-6.37111,1.01477-13.4821,1.91179-17.60813,6.87129-5.23235,6.28931-3.00489,15.66511-.50889,23.45633a10.10019,10.10019,0,0,0,2.1704,4.26818c1.7034,1.68045,4.31371,1.92665,6.70173,2.07786,5.81037.36792,11.99377.65616,17.07049-2.19385,2.40407-1.34961,4.391-3.322,6.63119-4.929a42.51558,42.51558,0,0,1,12.192-5.574,123.28631,123.28631,0,0,1,24.4733-5.04354c3.25649-.33212,6.57777-.54564,9.64105-1.69949s5.89971-3.44182,6.7896-6.59192c1.176-4.16272-1.24343-8.40676-3.56377-12.05744-2.89044-4.54764-5.95264-9.336-10.26244-12.68382-6.28749-4.884-9.39772-1.13477-15.73118,1.99062A133.4693,133.4693,0,0,1,411.20164,711.93474Z" transform="translate(-178.50777 -64.71816)" fill="#a0616a"/><path d="M394.552,717.67351l-40.45419-11.95685c-4.92-1.45418-9.924-2.92108-15.05445-2.91727s-10.49808,1.686-13.82539,5.5911c-3.13694,3.68169-4.0348,8.71355-4.81684,13.48678l-1.67287,10.21062c-.85014,5.18893-1.70183,10.47764-.93665,15.67977s3.4208,10.3994,8.03661,12.91771c5.59808,3.05422,12.45923,1.56244,18.707.28493a203.66649,203.66649,0,0,1,38.33637-4.111c4.84215-.05791,9.921.00275,14.1997-2.26494,5.08608-2.69559,8.12887-8.39526,8.65208-14.12769C406.51947,731.74449,403.61224,720.35141,394.552,717.67351Z" transform="translate(-178.50777 -64.71816)" fill="#2f2e41"/><path d="M532.97391,707.25386c5.24428-.91914,9.87265-3.89967,14.89781-5.659,7.07316-2.4763,14.73823-2.47627,22.2323-2.44892,2.75107.01,5.68068.07172,7.9707,1.5963,3.301,2.19764,4.14705,6.5956,4.70835,10.52132q1.69324,11.8428,3.38651,23.68558c.637,4.455,1.27016,9.02922.27664,13.41851s-3.98536,8.62075-8.3409,9.75307c-5.28995,1.37523-10.47581-2.004-15.47052-4.2238-12.48387-5.54827-26.99563-4.13019-40.01231-8.277-2.41563-.76956-5.00279-1.9463-5.98825-4.28219a9.74344,9.74344,0,0,1-.46589-4.093c.22292-7.61324-1.38283-18.00927.90929-25.28537C519.139,705.41574,527.12,707.25386,532.97391,707.25386Z" transform="translate(-178.50777 -64.71816)" fill="#2f2e41"/><path d="M618.5838,593.44792a70.25,70.25,0,0,1,24.74688-1.69077c6.61581.72884,13.43212,2.56976,18.26241,7.1489,5.87915,5.57345,7.76813,14.19294,7.92572,22.2925A69.64672,69.64672,0,0,1,654.381,665.678a40.3588,40.3588,0,0,1-8.65462,8.33144,56.96628,56.96628,0,0,1-11.2602,5.42631l-87.40763,34.47613c-22.995,9.06991-46.07121,18.1661-70.05624,24.14544a5.45988,5.45988,0,0,1-7.34686-2.6636,181.089,181.089,0,0,1-19.15731-35.04368,2.36141,2.36141,0,0,1,1.04367-3.7233l61.82411-35.52224c4.42847-2.54446,8.90632-5.12557,12.58345-8.67018a31.23955,31.23955,0,0,0,6.46041-8.99422c1.28152-2.67668,1.40106-8.99325,3.038-10.97173,1.60267-1.9371,7.08518-2.09169,9.61727-2.85358a87.26471,87.26471,0,0,0,10.4699-3.95778c13.82958-6.1869,26.14462-15.17616,39.40215-22.42039A101.09962,101.09962,0,0,1,618.5838,593.44792Z" transform="translate(-178.50777 -64.71816)" fill="#2f2e41"/><path d="M583.535,619.9758c-10.62159,7.97756-24.37468,15.31076-34.9018,23.49852-3.59279,2.79439-63.48555,36.46671-64.33241,40.9388,9.82122,1.65482,72.38326-42.11208,81.33434-46.47932s16.88589-10.526,24.74861-16.63924c2.00376-1.55793,10.49562-6.2413,4.74349-7.98188C591.88691,612.33215,585.9273,618.381,583.535,619.9758Z" transform="translate(-178.50777 -64.71816)" opacity="0.1"/><path d="M510.45033,360.0147H417.21254a14.28277,14.28277,0,0,0-14.28275,14.28275v5.23022h-1.01312v11.6968h1.01312v8.18776h-1.01312v7.01808h1.01312V492.736a14.28277,14.28277,0,0,0,14.28275,14.28275h93.23779A14.28277,14.28277,0,0,0,524.73308,492.736V374.29745A14.28277,14.28277,0,0,0,510.45033,360.0147Z" transform="translate(-178.50777 -64.71816)" fill="#3f3d56"/><polygon points="346.761 184.974 299.471 160.203 234.166 170.337 220.655 230.012 254.289 228.718 263.685 206.794 263.685 228.357 279.204 227.76 288.212 192.856 293.841 230.012 349.013 228.886 346.761 184.974" fill="#2f2e41"/><path d="M364.64085,585.71852c2.33648,3.48807,5.07414,6.89991,8.82712,8.78165,4.68954,2.35132,10.47818,1.93166,15.1742-.40671a26.70963,26.70963,0,0,0,10.95069-10.97926c5.13947-9.07555,6.20385-19.9354,5.56252-30.34541s-2.86409-20.6606-3.84787-31.04386c-.71513-7.54791-.77329-15.14084-.83089-22.72234-.0121-1.59323.01355-3.30985.95489-4.59531,1.13836-1.55452,3.22262-1.98282,5.06958-2.53158,10.3726-3.08186,17.25764-12.80417,22.19372-22.43349,3.296-6.42978,6.16208-13.45836,5.52649-20.65569s-5.809-14.448-12.99691-15.18224c-5.92594-.60531-11.39762,3.15856-15.67227,7.30712A67.20371,67.20371,0,0,0,385.875,480.23628c-.93835,7.31808-.66958,14.8353-2.66,21.93971-4.25,15.16928-17.54746,24.46965-24.17413,38.11929C351.739,555.33569,355.769,572.41081,364.64085,585.71852Z" transform="translate(-178.50777 -64.71816)" fill="#a0616a"/><path d="M560.32057,527.7656A28.66767,28.66767,0,0,1,544.244,543.21316a22.20351,22.20351,0,0,1-13.97568.85594,15.49745,15.49745,0,0,1-10.23805-9.15747,24.66874,24.66874,0,0,1-1.15322-6.87849c-.665-10.22953-.40805-20.77076,3.30768-30.32476,1.43316-3.685,3.36552-7.17973,4.49657-10.96836,1.29005-4.32124,1.496-8.88057,1.69315-13.386l1.22148-27.91129a18.16469,18.16469,0,0,0-.41461-6.052c-1.21836-4.0386-4.99285-6.66315-8.45611-9.07159-8.364-5.81652-16.62929-12.6038-20.68217-21.95056-1.24015-2.86-2.05864-6.03921-1.42913-9.0923,1.14279-5.54241,6.73609-9.13049,12.26447-10.33931a27.4335,27.4335,0,0,1,32.8891,22.10687c.547,3.14985.53943,6.36731.85956,9.54823.67909,6.74746,2.82116,13.25166,4.16121,19.89953,3.30083,16.37507,1.59044,33.30215,4.85456,49.67444C556.372,503.85519,566.66314,512.78744,560.32057,527.7656Z" transform="translate(-178.50777 -64.71816)" fill="#a0616a"/><circle cx="286.57163" cy="346.39087" r="11.6968" fill="#d0cde1"/><path d="M958.82881,423.63208a62.66342,62.66342,0,1,0,62.66342,62.66342A62.66341,62.66341,0,0,0,958.82881,423.63208Zm30.969,46.77046c.033.67666.04951,1.36975.04951,2.063,0,21.141-16.07447,45.5169-45.50035,45.5169a44.66127,44.66127,0,0,1-24.45836-7.22863,32.38749,32.38749,0,0,0,3.81237.231,32.03488,32.03488,0,0,0,19.85376-6.849A16.00356,16.00356,0,0,1,928.619,493.02889a15.07373,15.07373,0,0,0,3.00371.29708,16.0862,16.0862,0,0,0,4.20838-.56109,15.992,15.992,0,0,1-12.8233-15.67836v-.19806a15.60616,15.60616,0,0,0,7.2616,1.99689,16.00976,16.00976,0,0,1-4.96762-21.35562,45.28177,45.28177,0,0,0,32.94117,16.71816,15.64372,15.64372,0,0,1-.41255-3.64729,15.97342,15.97342,0,0,1,27.64348-10.92543,31.7488,31.7488,0,0,0,10.14975-3.87832,16.03488,16.03488,0,0,1-7.03057,8.846,32.30255,32.30255,0,0,0,9.176-2.52511A32.52585,32.52585,0,0,1,989.7978,470.40254Z" transform="translate(-178.50777 -64.71816)" fill="#3f3d56"/><circle cx="760.17182" cy="184.61635" r="11.13491" fill="#3f3d56"/><path d="M952.59833,221.49724H924.761a13.95947,13.95947,0,0,0-13.91863,13.91864v27.83726A13.95945,13.95945,0,0,0,924.761,277.17177h27.83737a13.95964,13.95964,0,0,0,13.91852-13.91863V235.41588a13.95966,13.95966,0,0,0-13.91852-13.91864Zm-13.91874,44.53963A16.70236,16.70236,0,1,1,955.382,249.33451,16.70665,16.70665,0,0,1,938.67959,266.03687Zm18.09417-30.621a4.17559,4.17559,0,1,1,4.17564-4.17554A4.16543,4.16543,0,0,1,956.77376,235.41588Z" transform="translate(-178.50777 -64.71816)" fill="#3f3d56"/><path d="M937.96494,183.8588a66.06057,66.06057,0,1,0,66.06057,66.06057A66.06056,66.06056,0,0,0,937.96494,183.8588Zm34.11937,79.39434a19.54331,19.54331,0,0,1-19.486,19.48608H924.761a19.54333,19.54333,0,0,1-19.48608-19.48608V235.41588A19.54334,19.54334,0,0,1,924.761,215.92979h27.83737a19.54332,19.54332,0,0,1,19.486,19.48609Z" transform="translate(-178.50777 -64.71816)" fill="#3f3d56"/><path d="M670,64.71816a65,65,0,1,0,65,65A65,65,0,0,0,670,64.71816ZM690.49524,104.049h-8.32056c-5.68078,0-6.765,2.68713-6.765,6.64709v8.415h13.53L687.17163,132.311h-11.762v35.82837H660.324V132.311H649.50476V119.1111H660.324v-9.75854c0-11.69135,8.10865-18.05561,18.55079-18.05561,4.99707,0,10.37133.37714,11.62048.54212Z" transform="translate(-178.50777 -64.71816)" fill="#3f3d56"/></svg>