<svg class="social-logo" viewBox="0 0 175 181" version="1.1" xmlns="http://www.w3.org/2000/svg" xmlns:xlink="http://www.w3.org/1999/xlink">
    <defs></defs>
    <rect width="100%" height="100%" fill="#FFF"/>
    <g fill-rule="evenodd">
        <g fill="#FF9900">
            <path d="M153.507609,149.082589 C154.515676,148.678569 155.38932,148.577566 156.128569,148.779576 C156.867818,148.981586 157.237437,149.570773 157.237437,150.547154 C157.237437,151.523535 156.733411,152.651407 155.725344,153.930804 C154.851687,155.00819 153.373211,156.47274 151.289874,158.324498 C149.206536,160.176256 145.997572,162.465667 141.662886,165.192801 C137.3282,167.919936 132.590358,170.411354 127.449219,172.667132 C122.308079,174.922909 115.990957,176.875643 108.497662,178.525391 C101.004367,180.175138 93.2927738,181 85.3626502,181 C77.3653221,181 69.368114,179.956298 61.370786,177.868862 C53.3734579,175.781426 46.3506996,173.205837 40.3023002,170.14202 C34.2539008,167.078203 28.457605,163.57675 22.913239,159.637556 C17.3688729,155.698362 12.9166457,152.163241 9.5564238,149.032087 C6.19620193,145.900933 3.3736579,142.954999 1.08870702,140.194196 C0.551071524,139.588167 0.215054377,139.032648 0.0806455023,138.527623 C-0.0537633725,138.022598 -0.0201616578,137.618584 0.181451654,137.315569 C0.383064967,137.012554 0.651878684,136.77688 0.987900871,136.608538 C1.32392306,136.440196 1.71034278,136.372861 2.14717162,136.406529 C2.58400046,136.440197 2.97042018,136.591703 3.30644237,136.861049 C16.2096944,144.739437 26.2902088,150.328295 33.548288,153.62779 C59.6908142,165.47904 86.5385842,168.509144 114.092404,162.718192 C126.861247,160.024726 139.999517,155.479571 153.507609,149.082589 Z"></path>
            <path d="M174.374483,137.467076 C175.113731,138.544462 175.197736,140.884376 174.626498,144.486886 C174.05526,148.089397 173.097611,151.540348 171.753523,154.839844 C169.468572,160.428785 166.612426,164.603595 163.185,167.364397 C162.042524,168.30711 161.16888,168.610121 160.56404,168.273437 C159.9592,167.936754 159.9592,167.128727 160.56404,165.84933 C161.975333,162.819181 163.470609,158.728541 165.049913,153.577288 C166.629218,148.426035 166.847629,145.109754 165.705153,143.628348 C165.369131,143.156992 164.848305,142.769812 164.142658,142.466797 C163.437011,142.163782 162.529765,141.961775 161.420892,141.86077 C160.312019,141.759765 159.320768,141.675596 158.44711,141.608259 C157.573453,141.540922 156.397393,141.540922 154.918895,141.608259 C153.440398,141.675596 152.381944,141.742931 151.743501,141.810268 C151.105059,141.877605 150.063406,141.978608 148.618511,142.113281 C147.173615,142.247955 146.417577,142.31529 146.350372,142.31529 C145.947146,142.382627 145.510323,142.433129 145.039892,142.466797 C144.569461,142.500465 144.199842,142.534133 143.931025,142.567801 C143.662207,142.60147 143.376592,142.635137 143.074172,142.668806 C142.771752,142.702474 142.53654,142.719308 142.368529,142.719308 L141.360468,142.719308 C141.259661,142.719308 141.158856,142.702474 141.058049,142.668806 C140.957243,142.635137 140.890039,142.584636 140.856437,142.517299 L140.705228,142.214286 C140.302001,141.136899 141.881282,139.790187 145.443117,138.174107 C149.004952,136.558028 152.465929,135.547993 155.826151,135.143973 C158.917555,134.672617 162.54654,134.638949 166.713215,135.042969 C170.87989,135.446989 173.43362,136.255016 174.374483,137.467076 Z"></path>
        </g>
        <g fill="#000">
            <path d="M134.656859,92.7220982 C134.656859,94.8095342 135.110482,96.9642746 136.017742,99.1863839 C136.925002,101.408493 138.000256,103.361227 139.243539,105.044643 C140.486821,106.728059 141.746885,108.276779 143.023769,109.690848 C144.300654,111.104918 145.40951,112.182288 146.350372,112.922991 L147.660852,114.03404 L124.777856,136.65904 C122.089678,134.167584 119.435143,131.625664 116.81417,129.033203 C114.193197,126.440742 112.244297,124.471175 110.967413,123.124442 L109.052096,121.104353 C108.312847,120.36365 107.472804,119.252612 106.531942,117.771205 C103.978174,121.744067 100.702006,125.195019 96.7033423,128.124163 C92.7046783,131.053307 88.4204597,133.191214 83.8505579,134.537946 C79.2806562,135.884679 74.5764161,136.659039 69.7376966,136.861049 C64.8989771,137.063059 60.2787414,136.356035 55.8768507,134.739955 C51.4749601,133.123876 47.5267586,130.918634 44.0321278,128.124163 C40.5374971,125.329692 37.7485548,121.525229 35.6652172,116.710658 C33.5818796,111.896088 32.5402265,106.425068 32.5402265,100.297433 C32.5402265,94.6411548 33.4810745,89.4563108 35.3627987,84.7427455 C37.244523,80.0291803 39.6638465,76.1068795 42.6208417,72.9757254 C45.5778369,69.8445714 49.1564196,67.0501425 53.3566969,64.5923549 C57.5569742,62.1345673 61.6731843,60.2155017 65.7054505,58.8351004 C69.7377168,57.4546992 74.1059397,56.2931595 78.8102503,55.3504464 C83.5145609,54.4077334 87.5299658,53.7848787 90.8565855,53.4818638 C94.1832051,53.1788489 97.5265758,52.9600081 100.886798,52.8253348 L100.886798,39.9977679 C100.886798,35.6208859 100.181162,32.3551075 98.7698684,30.2003348 C96.4849176,26.6314926 92.4191101,24.8470982 86.572324,24.8470982 C86.1690974,24.8470982 85.6146691,24.880766 84.9090225,24.9481027 C84.2033759,25.0154393 82.8425065,25.4194531 80.8263734,26.1601562 C78.8102402,26.9008594 76.9285442,27.89406 75.1812288,29.1397879 C73.4339135,30.3855159 71.5522174,32.3887511 69.5360843,35.1495536 C67.5199512,37.9103561 65.9070689,41.1424666 64.697389,44.8459821 L35.0603803,42.1188616 C35.0603803,38.0786628 35.799618,34.0721925 37.2781156,30.0993304 C38.7566133,26.1264682 41.0079281,22.3220048 44.0321278,18.6858259 C47.0563275,15.049647 50.6853127,11.8512043 54.9191923,9.09040179 C59.1530718,6.32959929 64.2437316,4.12435721 70.1913243,2.47460938 C76.138917,0.824861543 82.5400437,0 89.3948963,0 C96.11534,0 102.19725,0.841695452 107.64081,2.52511161 C113.084369,4.20852776 117.435791,6.27909857 120.695207,8.73688616 C123.954622,11.1946737 126.676361,13.9891026 128.860505,17.1202567 C131.044649,20.2514107 132.556726,23.1468431 133.396782,25.8066406 C134.236837,28.4664382 134.656859,30.9410228 134.656859,33.2304688 L134.656859,92.7220982 Z M66.9151244,94.843192 C66.9151244,100.634144 69.2672444,105.111963 73.971555,108.276786 C78.4070479,111.239598 83.0776862,111.98029 87.9836102,110.498884 C93.6287829,108.815468 97.4593784,104.674326 99.4755115,98.0753348 C100.416374,95.0451857 100.886798,91.6447361 100.886798,87.8738839 L100.886798,71.5111607 C96.9217358,71.645834 93.1919455,72.0498478 89.6973147,72.7232143 C86.202684,73.3965807 82.6241014,74.5244527 78.9614595,76.1068638 C75.2988177,77.689275 72.3754685,80.0796901 70.1913243,83.2781808 C68.0071801,86.4766715 66.9151244,90.3316367 66.9151244,94.843192 Z"></path>
        </g>
    </g>
</svg>