<svg xmlns="http://www.w3.org/2000/svg" width="769" height="769" style="shape-rendering:geometricPrecision;text-rendering:geometricPrecision;image-rendering:optimizeQuality;fill-rule:evenodd;clip-rule:evenodd"><path style="opacity:1" fill="#fefefe" d="M-.5-.5h768v768H-.5V-.5Z"/><path style="opacity:1" fill="#0343e0" d="M362.5 142.5c84.667-.167 169.334 0 254 .5 35.293 8.05 51.46 30.217 48.5 66.5a60.471 60.471 0 0 1-6 17 572.359 572.359 0 0 0-49.5 79.5c24.307 74.522 15.14 144.688-27.5 210.5-44.114 62.824-104.614 97.991-181.5 105.5-84.667.667-169.333.667-254 0-32.844-9.512-48.01-31.346-45.5-65.5a85.835 85.835 0 0 1 6-17 1495.582 1495.582 0 0 0 37-54 191.651 191.651 0 0 0 12.5-23c-27.721-85.473-13.888-163.473 41.5-234 43.513-50.175 98.347-78.841 164.5-86Z"/><path style="opacity:1" fill="#fdfdfe" d="M367.5 185.5c81.667-.167 163.334 0 245 .5 10.204 4.375 12.704 11.542 7.5 21.5l-11 16a2053.342 2053.342 0 0 1-44 74 25.238 25.238 0 0 0 0 10c28.249 77.295 15.582 146.961-38 209-35.592 37.044-79.092 57.877-130.5 62.5-81 .667-162 .667-243 0-7.785-3.328-10.618-9.161-8.5-17.5a982.094 982.094 0 0 0 50-77l6-14a49.226 49.226 0 0 0 0-14c-28.068-76.043-16.068-145.043 36-207 35.675-37.254 79.175-58.587 130.5-64Z"/><path style="opacity:1" fill="#0544e0" d="M360.5 221.5c21.861 1.011 30.028 12.011 24.5 33-3.658 6.417-9.158 10.251-16.5 11.5-21.853 2.764-41.519 10.764-59 24l-16 14c-10.817 4.718-20.317 2.884-28.5-5.5-6.304-9.964-5.971-19.631 1-29 26.404-25.952 57.904-41.952 94.5-48ZM423.5 229.5c8.791-.945 17.124.555 25 4.5 64.949 31.32 97.783 83.153 98.5 155.5-5.997 16.748-17.164 21.582-33.5 14.5-4.318-3.315-7.485-7.481-9.5-12.5-1.534-60.188-30.367-101.022-86.5-122.5-13.474-15.576-11.474-28.742 6-39.5Z"/><path style="opacity:1" fill="#0443e0" d="M370.5 302.5c43.185-3.168 73.685 14.832 91.5 54 11.755 42.418-.412 75.918-36.5 100.5-39.187 19.255-74.021 13.422-104.5-17.5-20.397-26.001-25.064-54.667-14-86 12.746-27.588 33.913-44.588 63.5-51Z"/><path style="opacity:1" fill="#0844e0" d="M240.5 320.5c17.049-2.421 26.716 4.745 29 21.5a533.954 533.954 0 0 1-5.5 27.5l-1 31c-4.531 13.855-14.031 19.355-28.5 16.5-8.895-3.559-14.061-10.059-15.5-19.5-1.638-21.87 1.029-43.203 8-64 3.076-5.911 7.576-10.245 13.5-13Z"/><path style="opacity:1" fill="#fdfdfe" d="M374.5 347.5c22.977-2.772 38.477 6.561 46.5 28 2.683 32.315-12.15 48.149-44.5 47.5-22.433-6.792-32.599-21.958-30.5-45.5 3.953-15.45 13.453-25.45 28.5-30Z"/><path style="opacity:1" fill="#0644e0" d="M500.5 435.5c15.635-.691 24.635 6.643 27 22a34.953 34.953 0 0 1-1.5 9c-9.227 15.905-20.727 30.072-34.5 42.5-11.774 7.174-22.274 5.674-31.5-4.5-4.979-9.596-4.646-18.929 1-28 10.157-8.49 18.491-18.49 25-30 3.906-5.096 8.739-8.762 14.5-11Z"/><path style="opacity:1" fill="#0544e0" d="M316.5 492.5a84.902 84.902 0 0 1 13 .5c22.21 10.608 45.543 14.442 70 11.5 13.919.418 21.586 7.584 23 21.5-.768 11.103-6.435 18.437-17 22-32.894 4.607-64.228-.393-94-15-10.727-9.392-12.56-20.226-5.5-32.5a68.064 68.064 0 0 1 10.5-8Z"/></svg>