<?xml version="1.0" standalone="no"?>
<!DOCTYPE svg PUBLIC "-//W3C//DTD SVG 20010904//EN"
 "http://www.w3.org/TR/2001/REC-SVG-20010904/DTD/svg10.dtd">
<svg version="1.0" xmlns="http://www.w3.org/2000/svg"
 viewBox="4 32 376.4 449.4" width="32" height="32"
 >

<g transform="translate(0.000000,231.000000) scale(0.100000,-0.100000)"
fill="#000000" stroke="none">
<path d="M1005 2116 c-387 -61 -689 -339 -797 -734 -33 -121 -31 -334 5 -467
l27 -99 -104 -156 c-114 -171 -131 -211 -122 -276 11 -87 56 -147 136 -183 43
-20 63 -21 575 -21 588 0 621 3 791 69 177 68 367 229 472 400 134 219 176
495 112 739 l-22 83 22 42 c12 23 59 99 106 168 87 132 109 189 97 251 -16 86
-89 167 -168 187 -64 16 -1024 13 -1130 -3z m1112 -178 c20 -16 15 -60 -10
-98 -13 -19 -65 -104 -116 -189 -103 -172 -100 -156 -62 -296 51 -185 33 -373
-53 -548 -114 -235 -321 -391 -584 -443 -58 -11 -180 -14 -570 -14 -447 0
-497 2 -514 17 -10 9 -18 26 -18 38 0 12 42 85 93 161 50 77 103 163 116 192
23 48 24 57 13 95 -51 177 -54 194 -54 302 1 314 178 591 462 724 83 38 194
68 275 73 116 8 1011 -4 1022 -14z"/>
<path d="M1025 1795 c-134 -29 -256 -94 -329 -175 -51 -57 -45 -114 15 -145
41 -21 66 -14 125 36 66 54 130 86 222 110 49 12 83 27 95 40 25 31 22 91 -5
116 -33 30 -55 33 -123 18z"/>
<path d="M1330 1773 c-51 -19 -76 -70 -56 -117 11 -27 29 -41 90 -70 169 -82
286 -262 286 -443 0 -76 98 -113 151 -57 21 23 24 33 21 92 -8 203 -121 403
-290 516 -60 40 -161 87 -180 85 -4 0 -14 -3 -22 -6z"/>
<path d="M1054 1460 c-76 -25 -148 -86 -189 -162 -28 -49 -30 -61 -30 -153 0
-89 3 -105 27 -151 88 -167 292 -231 457 -144 110 59 173 162 175 283 1 98
-23 164 -85 232 -95 103 -224 138 -355 95z m170 -174 c18 -8 46 -31 62 -51 75
-99 1 -245 -125 -245 -162 0 -214 215 -71 291 41 23 88 24 134 5z"/>
<path d="M580 1403 c-49 -18 -75 -84 -86 -213 -8 -95 6 -144 46 -165 42 -22
68 -18 99 13 25 25 28 36 34 122 3 52 10 108 16 124 27 69 -41 144 -109 119z"/>
<path d="M1624 930 c-12 -5 -35 -26 -50 -47 -16 -21 -48 -59 -71 -85 -53 -58
-59 -109 -18 -148 43 -41 86 -33 146 26 103 102 135 186 87 232 -28 25 -66 34
-94 22z"/>
<path d="M884 700 c-55 -22 -72 -100 -30 -139 46 -43 150 -73 271 -78 126 -6
157 3 180 47 13 26 14 38 5 66 -16 47 -41 58 -145 60 -67 1 -110 8 -168 28
-85 29 -83 28 -113 16z"/>
</g>
</svg>
