<svg width="120" height="90" viewBox="0 0 120 90" fill="none" xmlns="http://www.w3.org/2000/svg">
<rect width="100%" height="100%" fill="#39134c" /> 
<path d="M38.13 24.7024H22.4443C20.3528 24.7024 18.5228 22.869 18.5228 20.7738C18.5228 18.6785 20.3528 16.8452 22.4443 16.8452H38.13C40.2214 16.8452 42.0514 18.6785 42.0514 20.7738C42.0514 22.869 40.2214 24.7024 38.13 24.7024Z" fill="#fff"/>
<path d="M38.13 56.1309H22.4443C20.3528 56.1309 18.5228 54.2976 18.5228 52.2024C18.5228 50.1071 20.3528 48.2738 22.4443 48.2738H38.13C40.2214 48.2738 42.0514 50.1071 42.0514 52.2024C42.0514 54.2976 40.2214 56.1309 38.13 56.1309Z" fill="#fff"/>
<path d="M38.13 71.8452H22.4443C20.3528 71.8452 18.5228 70.0119 18.5228 67.9167C18.5228 65.8214 20.3528 63.9881 22.4443 63.9881H38.13C40.2214 63.9881 42.0514 65.8214 42.0514 67.9167C42.0514 70.0119 40.2214 71.8452 38.13 71.8452Z" fill="#fff"/>
<path d="M69.5014 40.4167H53.8157C51.7243 40.4167 49.8943 38.5833 49.8943 36.4881C49.8943 34.3928 51.7243 32.5595 53.8157 32.5595H69.5014C71.5928 32.5595 73.4228 34.3928 73.4228 36.4881C73.4228 38.5833 71.5928 40.4167 69.5014 40.4167Z" fill="#fff"/>
<path d="M69.5014 56.1309H53.8157C51.7243 56.1309 49.8943 54.2976 49.8943 52.2024C49.8943 50.1071 51.7243 48.2738 53.8157 48.2738H69.5014C71.5928 48.2738 73.4228 50.1071 73.4228 52.2024C73.4228 54.2976 71.5928 56.1309 69.5014 56.1309Z" fill="#fff"/>
<path d="M100.873 24.7024H85.1871C83.0957 24.7024 81.2657 22.869 81.2657 20.7738C81.2657 18.6785 83.0957 16.8452 85.1871 16.8452H100.873C102.964 16.8452 104.794 18.6785 104.794 20.7738C104.794 22.869 102.964 24.7024 100.873 24.7024Z" fill="#fff"/>
<path d="M100.873 40.4167H85.1871C83.0957 40.4167 81.2657 38.5833 81.2657 36.4881C81.2657 34.3928 83.0957 32.5595 85.1871 32.5595H100.873C102.964 32.5595 104.794 34.3928 104.794 36.4881C104.794 38.5833 102.964 40.4167 100.873 40.4167Z" fill="#fff"/>
<path d="M100.873 71.8452H85.1871C83.0957 71.8452 81.2657 70.0119 81.2657 67.9167C81.2657 65.8214 83.0957 63.9881 85.1871 63.9881H100.873C102.964 63.9881 104.794 65.8214 104.794 67.9167C104.794 70.0119 102.964 71.8452 100.873 71.8452Z" fill="#fff"/>
</svg>
