<svg xmlns="http://www.w3.org/2000/svg" viewBox="0 0 600 580.4"><path fill="#148eff" d="M473.5 197.6c-76-35-185-57.4-287.8-49 5.2-34 17.9-57.8 38.7-62.8 28.7-6.8 60 12 89.9 46.4 19.5 2.5 42.7 7 58.8 10.7C318.7 40.6 245.7-16.8 190.2 4.4c-42.2 16-63.8 74.2-61.2 152.3C74 168.4 31.1 189.2 3.7 219c-1.4 1.6-4.5 5.6-3.4 7.6.8 1.5 3.6-.2 4.8-1 31.9-22.3 72.6-34.3 125.7-41.9 7.5 83.3 42.8 189 101.3 273.8-32 12.5-58.8 13.4-73.6-2.2-20.3-21.4-19.6-58-4.8-101a669 669 0 0 1-20.1-56.3C72 396.4 58.9 488.3 105 525.8c35 28.5 96.2 18.1 162.5-23.1 37.7 41.7 77.1 68.5 116.7 77.3 2.1.4 7.2 1 8.3-.9.9-1.4-2-3-3.3-3.7-35.1-16.4-66-45.7-99-87.9C358.4 439.4 432.3 356 476.5 263c26.9 21.5 41 44.3 35 64.8-8.5 28.3-40.5 46-85.2 54.7a692.4 692.4 0 0 1-38.7 45.6c115.9 4 202-30.5 211.5-89.1 7.1-44.7-32.4-92.4-101.3-129.2 17.4-53.5 20.8-101 8.6-139.7-.7-2-2.6-6.8-4.9-6.8-1.7 0-1.7 3.2-1.6 4.7 3.4 38.6-6.5 80-26.5 129.7ZM260.2 444.3a502.8 502.8 0 0 1-77-264.8A503 503 0 0 1 451 245.2a503 503 0 0 1-190.8 199.1Z"/></svg>