<?xml version="1.0" encoding="UTF-8"?>
<svg version="1.1" xmlns="http://www.w3.org/2000/svg" width="703" height="682">
<path d="M0 0 C0.780579 -0.00175304 1.56115799 -0.00350607 2.3653909 -0.00531223 C4.98470183 -0.00996938 7.60395717 -0.00750746 10.22327042 -0.00507832 C12.11873045 -0.00694643 14.0141901 -0.00924714 15.90964913 -0.01194364 C21.12151524 -0.01806799 26.33336532 -0.01792729 31.5452342 -0.01674926 C37.16500694 -0.01654542 42.7847745 -0.02206249 48.40454483 -0.02680683 C59.41611554 -0.0351175 70.42768091 -0.03786186 81.43925449 -0.03841921 C90.38925612 -0.03889419 99.33925598 -0.04094801 108.28925705 -0.04411983 C129.52949784 -0.05149415 150.76973714 -0.05764453 172.00997925 -0.05712128 C173.02888041 -0.05709791 173.02888041 -0.05709791 174.06836543 -0.05707407 C177.51115351 -0.05699096 180.95394159 -0.05689192 184.39672968 -0.05678936 C185.42234903 -0.05675944 185.42234903 -0.05675944 186.46868796 -0.05672892 C187.85138979 -0.05668848 189.23409162 -0.05664669 190.61679344 -0.05660353 C212.12708501 -0.05599084 233.6373608 -0.06349616 255.14764786 -0.07717609 C279.31631221 -0.09254035 303.4849629 -0.10112944 327.65363336 -0.10021287 C340.44963691 -0.09988074 353.24562268 -0.10263498 366.04162216 -0.11339092 C376.93636435 -0.12248995 387.8310807 -0.1246761 398.72582504 -0.1178815 C404.2844551 -0.11461324 409.84303556 -0.11457066 415.40166092 -0.12323475 C420.49187181 -0.13108713 425.58199369 -0.12968118 430.67220238 -0.12095062 C432.51202767 -0.11941285 434.35185956 -0.1212422 436.19167706 -0.12681069 C453.96435649 -0.17703258 468.84562541 1.83961841 482.46112442 14.2809782 C496.94863402 29.2538315 497.41260041 47.19708357 497.35962296 66.80882549 C497.36193086 68.6800287 497.36510959 70.55123099 497.36907744 72.42243141 C497.3773887 77.53483036 497.37331692 82.64715417 497.36710501 87.75955331 C497.36256648 93.28449174 497.36957119 98.80941755 497.37506485 104.33435345 C497.38394538 115.14578342 497.38204286 125.95718558 497.37623957 136.76861662 C497.37171805 145.55682188 497.3711123 154.34501936 497.3732872 163.13322544 C497.37359367 164.38523804 497.37390013 165.63725064 497.37421589 166.92720301 C497.37485535 169.4708353 497.37550378 172.01446758 497.37616107 174.55809986 C497.38169799 197.71499272 497.37596167 220.87187106 497.36547587 244.02876058 C497.35598419 265.15084579 497.35683562 286.27290688 497.36639786 307.39499187 C497.37711567 331.14878351 497.38131224 354.90256347 497.37517333 378.65635818 C497.37453625 381.19019186 497.37390751 383.72402555 497.3732872 386.25785923 C497.37297865 387.5044778 497.3726701 388.75109636 497.3723522 390.03549125 C497.37062687 398.81148717 497.37353685 407.58747453 497.37824631 416.36346912 C497.38386073 427.06072529 497.3823268 437.7579521 497.37168482 448.45520491 C497.36643587 453.91084117 497.36435818 459.36642853 497.37098312 464.8220644 C497.37696065 469.82020008 497.37363774 474.81824173 497.36302802 479.81636893 C497.36080165 481.62035325 497.36191306 483.42434559 497.3667796 485.22832472 C497.41578943 504.91210262 495.40112173 521.31254444 481.10565567 536.12863445 C479.99034418 537.09521885 478.86733408 538.05294716 477.73944473 539.00482464 C471.66547498 544.29397258 466.06211569 550.06579812 460.39081192 555.77756023 C459.1220813 557.05149225 457.85310269 558.32517733 456.58389664 559.59863567 C453.86420807 562.32821764 451.14599724 565.05925958 448.42886734 567.79138851 C444.12824042 572.11519401 439.82263621 576.43401996 435.51605606 580.75189495 C423.27497518 593.02631678 411.0381186 605.30492814 398.81171036 617.59396648 C392.04914839 624.39108613 385.28121261 631.18280668 378.50728512 637.96860015 C374.2283647 642.25559963 369.95608649 646.54907496 365.68861771 650.84747243 C363.02934618 653.52279259 360.36375933 656.19175015 357.69635773 658.85896206 C356.46506419 660.09266938 355.23633362 661.32894105 354.01043701 662.56801128 C341.38508669 675.32330345 330.35653912 682.46341348 311.88773033 682.6577873 C309.23774611 682.6638356 306.58824705 682.65036109 303.93829727 682.63656902 C302.00195679 682.64118335 300.06561981 682.64753983 298.1292901 682.655478 C292.83213535 682.67212129 287.53527017 682.66394766 282.2381146 682.65153313 C276.51614152 682.64246449 270.79421745 682.65646137 265.07225418 682.66745281 C253.87230403 682.68522322 242.67246121 682.68140459 231.47250688 682.66980225 C222.36867225 682.66076241 213.26486765 682.65954632 204.16102982 682.66389751 C202.86447595 682.66451045 201.56792208 682.66512338 200.2320787 682.66575488 C197.59801288 682.66703381 194.96394706 682.66833066 192.32988125 682.66964525 C168.34379743 682.68072181 144.35777153 682.66924221 120.37169705 682.64827486 C98.49115585 682.62929347 76.61070778 682.63099202 54.73016739 682.65011883 C30.12780555 682.6715532 5.52549999 682.67994813 -19.07687044 682.66766977 C-21.70115311 682.6663956 -24.32543579 682.66513812 -26.94971848 682.66389751 C-28.24085779 682.66328041 -29.53199711 682.66266331 -30.86226186 682.66202751 C-39.95334697 682.6585763 -49.04439899 682.66439802 -58.13547897 682.67381573 C-69.21706749 682.6850433 -80.29854269 682.68197959 -91.38011825 682.66069275 C-97.03224541 682.65019268 -102.68418375 682.64604291 -108.33630943 682.65928936 C-113.51407385 682.67124041 -118.69147508 682.66460577 -123.86920673 682.64337915 C-125.73849372 682.63892461 -127.60781163 682.64115342 -129.47707862 682.6508823 C-145.6920737 682.72877768 -158.87551976 680.10448991 -171.37090683 668.90988445 C-185.33952563 654.52080555 -186.19909988 637.56210524 -186.14831161 618.63753033 C-186.15061844 616.76250305 -186.15379645 614.88747668 -186.1577661 613.01245219 C-186.16609211 607.88027189 -186.16199881 602.74816626 -186.15579367 597.61598575 C-186.15126124 592.073327 -186.15825684 586.53068093 -186.16375351 580.98802471 C-186.17264052 570.13822286 -186.17072862 559.2884487 -186.16492823 548.43864577 C-186.16040926 539.62034117 -186.15979985 530.80204433 -186.16197586 521.9837389 C-186.16228233 520.72810251 -186.16258879 519.47246613 -186.16290455 518.17878016 C-186.163544 515.62789634 -186.16419243 513.07701253 -186.16484973 510.52612872 C-186.17038845 487.2958263 -186.16464735 464.06554008 -186.15416453 440.83524109 C-186.14467263 419.63965515 -186.14552404 398.44409324 -186.15508652 377.2485075 C-186.16580097 353.42003744 -186.17000278 329.59158064 -186.16386199 305.76310736 C-186.1632249 303.22197632 -186.16259616 300.68084528 -186.16197586 298.13971424 C-186.16166731 296.88946017 -186.16135876 295.63920609 -186.16104086 294.35106553 C-186.15931452 285.54359577 -186.16222768 276.73613455 -186.16693497 267.92866611 C-186.17254567 257.19507249 -186.17102329 246.46150812 -186.16037348 235.72791784 C-186.15511952 230.25229068 -186.1530554 224.77671227 -186.15967178 219.30108547 C-186.1656389 214.2869377 -186.16234345 209.27288382 -186.15171668 204.25874455 C-186.14948592 202.44666071 -186.15061166 200.63456891 -186.15546826 198.82249021 C-186.21300588 175.56710642 -180.60733454 160.86355145 -164.1509819 144.22621441 C-160.54064511 140.61399618 -156.9077733 137.0250268 -153.26934433 133.44113445 C-151.04590453 131.24553607 -148.82405622 129.04838357 -146.60519028 126.84816265 C-145.23563019 125.4906304 -143.86341045 124.13577354 -142.48794174 122.78422832 C-139.33813089 119.66701281 -136.30791325 116.50475868 -133.41241074 113.14889812 C-129.80193092 108.9651226 -125.94922211 105.07344732 -122.01934433 101.19113445 C-121.29118515 100.46676189 -120.56302597 99.74238934 -119.81280136 98.99606609 C-116.73377482 95.93321021 -113.6487611 92.87641134 -110.5642662 89.81906414 C-108.29718975 87.57019328 -106.03321467 85.31823207 -103.76934433 83.06613445 C-103.08372421 82.38881268 -102.3981041 81.7114909 -101.69170761 81.01364422 C-98.47227636 77.81038506 -95.36175821 74.56773739 -92.39434433 71.12863445 C-88.79017256 66.95155696 -84.94268435 63.06698869 -81.01934433 59.19113445 C-80.29118515 58.46676189 -79.56302597 57.74238934 -78.81280136 56.99606609 C-75.73377482 53.93321021 -72.6487611 50.87641134 -69.5642662 47.81906414 C-67.29718975 45.57019328 -65.03321467 43.31823207 -62.76934433 41.06613445 C-62.08372421 40.38881268 -61.3981041 39.7114909 -60.69170761 39.01364422 C-56.7925418 35.134065 -53.08143543 31.15240576 -49.50159836 26.97571087 C-35.61929082 11.02198955 -21.96480577 -0.06275512 0 0 Z M-18.26934433 36.50363445 C-18.96157089 37.31961102 -18.96157089 37.31961102 -19.66778183 38.15207195 C-22.77487249 43.1590397 -23.18427852 48.21130175 -23.14881992 53.96609592 C-23.1520264 54.74052062 -23.15523288 55.51494531 -23.15853652 56.31283742 C-23.16684658 58.91125096 -23.16090872 61.50943461 -23.15504074 64.10785198 C-23.15806096 65.98823928 -23.1619498 67.86862536 -23.16663331 69.74900925 C-23.1769387 74.91914701 -23.17472502 80.08921562 -23.17045271 85.25935912 C-23.1679901 90.83410854 -23.17699387 96.40884111 -23.1844902 101.9835844 C-23.19725218 112.90625655 -23.19902903 123.82890414 -23.19668994 134.75158249 C-23.19490829 143.62818606 -23.19665313 152.50478217 -23.20091438 161.38138485 C-23.20150957 162.64382685 -23.20210476 163.90626885 -23.20271799 165.20696668 C-23.20392971 167.77146362 -23.20514385 170.33596057 -23.20636036 172.90045752 C-23.21414982 190.12429806 -23.21806513 207.34813501 -23.21404362 224.57197666 C-23.21388724 225.2455631 -23.21373087 225.91914953 -23.21356975 226.61314768 C-23.21276397 230.0271655 -23.21191819 233.4411833 -23.21105645 236.85520111 C-23.21088536 237.53323798 -23.21071427 238.21127485 -23.210538 238.90985829 C-23.21019135 240.28101363 -23.20984282 241.65216897 -23.20949241 243.02332431 C-23.20413507 264.35906252 -23.21206581 285.69475941 -23.23052597 307.03048992 C-23.25124119 331.00063929 -23.2619385 354.97075956 -23.25795048 378.94092095 C-23.25603628 391.63291035 -23.2585473 404.3248621 -23.27266502 417.01684475 C-23.28456173 427.82162564 -23.28600293 438.62634571 -23.27387486 449.43112741 C-23.26797416 454.94497527 -23.26691963 460.45871177 -23.27887726 465.9725523 C-23.28969531 471.01952313 -23.28668136 476.06628907 -23.27261557 481.11325015 C-23.26995738 482.93958049 -23.27237022 484.76592668 -23.28035144 486.59224151 C-23.29044836 489.07490523 -23.28204355 491.55685552 -23.26907444 494.0394907 C-23.27638379 494.74834103 -23.28369313 495.45719135 -23.29122397 496.18752199 C-23.21314774 503.3993888 -21.06706718 509.9559116 -15.89434433 515.12863445 C-9.54035448 519.61737191 -3.82085602 520.27895308 3.77042389 520.26006222 C4.53833002 520.26211485 5.30623615 520.26416749 6.09741217 520.26628232 C8.6796235 520.2719526 11.26178149 520.27049503 13.84399796 520.26907635 C15.71043419 520.27165996 17.57686987 520.27467311 19.44330478 520.27807975 C24.57954821 520.28615334 29.71577767 520.28793952 34.8520267 520.28867722 C40.38863548 520.29052713 45.925237 520.29807411 51.46184158 520.30481243 C63.57126675 520.31839847 75.68068861 520.32442079 87.79012012 520.32882309 C95.34942889 520.33158485 102.90873638 520.33582206 110.46804428 520.34032726 C131.39256196 520.35251989 152.31707896 520.36285485 173.24160004 520.36620235 C174.59451744 520.36642399 175.94743485 520.36664577 177.30035226 520.36686771 C178.6565258 520.36708835 180.01269934 520.36730883 181.36887288 520.36752915 C184.0895648 520.36797171 186.81025672 520.36841882 189.53094864 520.36886883 C190.54280735 520.36903291 190.54280735 520.36903291 191.57510766 520.36920032 C213.45011935 520.37283127 235.3250979 520.3887533 257.20009689 520.41205919 C280.33015956 520.43665717 303.46020402 520.45036844 326.5902822 520.45157027 C339.19792605 520.45248752 351.80552651 520.45825232 364.41315842 520.47638988 C375.14766313 520.49177822 385.88211104 520.49691878 396.61662468 520.48865178 C402.09413795 520.48474091 407.57153679 520.48569631 413.04903603 520.49970913 C418.06402059 520.5124215 423.07880441 520.5112739 428.09378859 520.49911842 C429.90738272 520.49715682 431.72099093 520.50026118 433.53456524 520.50896278 C448.09442585 520.59688528 448.09442585 520.59688528 461.41815567 515.06613445 C469.55475402 506.17264324 468.67160602 494.98526891 468.60686111 483.66839886 C468.61075697 481.78455661 468.61639969 479.90071731 468.62363201 478.01688492 C468.63836344 472.85570046 468.6282191 467.69482183 468.6138953 462.5336473 C468.60277646 456.96168737 468.61473107 451.38977003 468.62373734 445.81781292 C468.637665 434.90902332 468.63011732 424.00034955 468.61506175 413.09156547 C468.59819715 400.38831767 468.60141244 387.68509867 468.60515583 374.98184313 C468.61121097 351.63307017 468.59543539 328.28436906 468.5699682 304.93561571 C468.54684839 283.62607523 468.54146744 262.31660262 468.55170059 241.00705242 C468.55430266 235.54890667 468.55688769 230.09076093 468.55929852 224.63261509 C468.55974469 223.62463312 468.55974469 223.62463312 468.56019987 222.59628788 C468.56781584 204.78207824 468.56134261 186.96787428 468.5506025 169.15366662 C468.54907665 166.60019851 468.5475563 164.0467304 468.54604149 161.49326229 C468.54528367 160.23690358 468.54452586 158.98054488 468.54374508 157.68611469 C468.53900129 148.83012565 468.54085433 139.97415192 468.54510689 131.11816311 C468.5500317 120.32810954 468.54405724 109.53812618 468.52421259 98.7480887 C468.51433625 93.24231993 468.50923928 87.73665809 468.5171051 82.2308836 C468.52415743 77.19146416 468.51736762 72.15226059 468.49950147 67.11286964 C468.49545415 65.28935463 468.49646161 63.46581998 468.50302034 61.64231227 C468.51117342 59.16348539 468.50085505 56.6853854 468.4859724 54.20660496 C468.49271006 53.49889802 468.49944771 52.79119108 468.50638953 52.06203848 C468.43689221 46.07532611 467.13251894 40.5625665 463.23846817 35.88644695 C462.57589005 35.34761883 461.91331192 34.8087907 461.23065567 34.25363445 C460.24452286 33.42218914 460.24452286 33.42218914 459.23846817 32.57394695 C454.41640326 29.30624729 450.05621036 28.83879951 444.34438992 28.87136555 C443.56605394 28.86785947 442.78771797 28.8643534 441.98579606 28.86074108 C439.3680603 28.85140986 436.75054617 28.85635482 434.13280106 28.86120892 C432.24090211 28.85747352 430.3490047 28.85287245 428.45710975 28.84747827 C423.2505114 28.83521914 418.04397716 28.83551216 412.83736765 28.83786702 C407.22510636 28.83827445 401.61286583 28.82724311 396.00061417 28.81775188 C385.00227521 28.80112502 374.00395768 28.79564158 363.00560721 28.79452713 C354.06748053 28.79357747 345.12936094 28.78947128 336.1912365 28.78312588 C314.98448794 28.76837661 293.77774449 28.75607664 272.57099056 28.75712299 C271.89268953 28.75715415 271.2143885 28.75718531 270.51553289 28.75721741 C267.0775746 28.75738363 263.63961632 28.75758171 260.20165803 28.75778683 C259.51886 28.75782672 258.83606198 28.75786661 258.1325731 28.75790771 C256.75178882 28.75798858 255.37100455 28.75807218 253.99022028 28.75815849 C232.50694316 28.75938403 211.02372918 28.74437077 189.54047012 28.71701336 C165.40735044 28.68629425 141.27428308 28.6691061 117.14113837 28.6709398 C104.36192922 28.67160437 91.58279127 28.66608286 78.8035984 28.6445837 C67.92375616 28.62639754 57.04401738 28.62200349 46.16416653 28.63560255 C40.61181267 28.64214509 35.05965744 28.64220295 29.50732231 28.62489605 C24.42510309 28.60921727 19.34324089 28.61197582 14.26103065 28.62946431 C12.42188282 28.63254567 10.58270869 28.62885928 8.74359187 28.61774416 C6.24344396 28.60363399 3.74455021 28.61420002 1.24444485 28.63085651 C0.53049564 28.62092015 -0.18345357 28.61098379 -0.91903761 28.60074633 C-7.59685151 28.6947972 -13.99146224 31.23664667 -18.26934433 36.50363445 Z " fill="#FFFFFF" transform="translate(185.89434432983398,-0.12863445281982422)"/>
<path d="M0 0 C5.11938606 2.80668095 9.6643981 8.33001165 11.37829876 13.92594242 C13.12510754 22.81545759 10.92224259 32.1834458 9.62573242 41.01782227 C9.39362866 42.63168987 9.16206052 44.24563458 8.9309845 45.85964966 C8.30465065 50.22197969 7.67020121 54.58309212 7.03374648 58.94395566 C6.50207768 62.5917431 5.97429888 66.24008914 5.44647008 69.88843387 C4.20089966 78.49703943 2.94862312 87.10465111 1.69213867 95.71166992 C0.39792034 104.57798688 -0.8850051 113.44588595 -2.1623829 122.31464344 C-3.26163374 129.9438647 -4.36787331 137.57205034 -5.47969359 145.19944996 C-6.1427329 149.74856338 -6.80315591 154.29801667 -7.45685768 158.84848213 C-8.07178951 163.12689095 -8.69547109 167.40393554 -9.32579231 171.6801033 C-9.55503872 173.24531277 -9.78124993 174.8109704 -10.00412369 176.37709999 C-13.08884344 198.01762592 -13.08884344 198.01762592 -22.21875 205.9765625 C-27.37561353 209.11689284 -33.30031407 209.99394653 -39.21875 208.9765625 C-46.5910418 206.56746261 -51.3952519 202.72059235 -55.21875 195.9765625 C-58.62135292 185.76875374 -55.7048849 173.45579127 -54.13916016 163.02612305 C-53.91496109 161.48215284 -53.69163393 159.93805582 -53.46910095 158.3938446 C-52.86851945 154.24408167 -52.25567013 150.09621875 -51.64024401 145.94863486 C-50.99506357 141.58701836 -50.36082604 137.22380966 -49.72518921 132.86079407 C-48.6574668 125.54284009 -47.58228055 118.22601536 -46.50195312 110.90991211 C-45.11820915 101.53876544 -43.74690611 92.16584243 -42.37949562 82.79230022 C-41.19904674 74.70109107 -40.01286482 66.61072391 -38.82578611 58.52048516 C-38.44653673 55.93413009 -38.06807175 53.34766114 -37.68971634 50.76117516 C-37.09384213 46.69024374 -36.49437737 42.61985582 -35.89219856 38.54985237 C-35.67258848 37.06217355 -35.45408073 35.57433149 -35.23679543 34.08631134 C-31.43701172 8.08390522 -31.43701172 8.08390522 -24.21875 2.40234375 C-16.39433437 -2.61736407 -8.69208222 -3.69068571 0 0 Z " fill="#FFFFFF" transform="translate(431.21875,171.0234375)"/>
<path d="M0 0 C4.47443054 4.35349999 6.82644857 10.0683925 7.1015625 16.30078125 C6.36274907 26.48585211 1.09832335 32.32198758 -6.05078125 39.09375 C-8.93516013 41.85951891 -11.518301 44.84466533 -14.12817383 47.86767578 C-18.05191789 52.33747891 -22.20123716 56.60219912 -26.30273438 60.90820312 C-29.70108229 64.49409069 -32.99804923 68.06721178 -36 72 C-34.58286346 73.65908668 -33.16453347 75.31716448 -31.74121094 76.97094727 C-30.68004273 78.20753854 -29.62448211 79.44900842 -28.57910156 80.69897461 C-24.91284917 85.0122478 -21.01908468 89.03577835 -16.98828125 93.00390625 C-16.44900497 93.53535248 -15.9097287 94.06679871 -15.35411072 94.61434937 C-13.10712693 96.82472952 -10.85750687 99.03224193 -8.59838867 101.23022461 C-6.92977159 102.85623463 -5.27099172 104.49178806 -3.61328125 106.12890625 C-3.10904129 106.6145253 -2.60480133 107.10014435 -2.08528137 107.60047913 C3.44131722 113.08710801 6.61909154 118.62922068 7.09375 126.44921875 C6.84258712 133.28294201 4.2571831 138.63269414 -0.41015625 143.5625 C-5.48401321 148.15016428 -11.35357663 149.12102744 -18 149 C-26.23671935 147.93357637 -31.31584314 142.64632554 -37 137 C-37.64066406 136.38511719 -38.28132813 135.77023437 -38.94140625 135.13671875 C-41.86029889 132.29618564 -44.59166251 129.34529495 -47.23999023 126.25170898 C-50.80988067 122.1555341 -54.58859709 118.33146439 -58.47265625 114.53515625 C-59.88114912 113.14417354 -61.28934325 111.75288828 -62.69726562 110.36132812 C-64.88156379 108.20795026 -67.06810509 106.05701323 -69.26000977 103.91137695 C-71.40033817 101.81372565 -73.53080648 99.70644378 -75.66015625 97.59765625 C-76.30719009 96.96924332 -76.95422394 96.34083038 -77.62086487 95.69337463 C-84.19187707 89.1591136 -89.61832334 82.72514993 -90.25 73.25 C-90.00930811 63.21499949 -84.62305369 57.9044581 -78 51 C-76.26719604 49.1074906 -74.53817747 47.21150992 -72.8125 45.3125 C-67.99894678 40.05801061 -63.13584552 34.85010926 -58.26953125 29.64453125 C-54.43830784 25.54503836 -50.61884109 21.43510234 -46.8125 17.3125 C-46.3263623 16.7880127 -45.84022461 16.26352539 -45.33935547 15.72314453 C-42.87931613 13.0635311 -40.44772127 10.38421303 -38.0546875 7.6640625 C-37.57281982 7.12225342 -37.09095215 6.58044434 -36.59448242 6.0222168 C-35.27882885 4.5403658 -33.97301937 3.04979112 -32.66796875 1.55859375 C-23.02899205 -7.68522724 -10.41170453 -8.50329465 0 0 Z " fill="#FFFFFF" transform="translate(343,203)"/>
<path d="M0 0 C6.43187558 3.77639168 11.27269946 9.78135392 16.109375 15.34765625 C19.80124768 19.58403688 23.63258489 23.6741755 27.5 27.75 C32.84266701 33.40328001 38.16804157 39.06992056 43.42431641 44.80371094 C46.03562846 47.64997854 48.66977646 50.47057296 51.3359375 53.265625 C51.92608643 53.88864502 52.51623535 54.51166504 53.12426758 55.15356445 C54.25643697 56.34762346 55.39396088 57.53663801 56.5378418 58.71948242 C61.66576164 64.14918625 64.24423221 68.77444095 64.3125 76.4375 C63.8035975 93.83106044 43.15361279 108.34243376 31.5 119.875 C20.99221798 130.1730921 20.99221798 130.1730921 11.10473633 141.05688477 C6.09018727 146.89945495 0.30374057 151.73556191 -7.49609375 152.91015625 C-14.26343016 153.32189747 -19.75025848 151.63341233 -25.1875 147.5625 C-30.25092418 141.69796611 -32.71746795 136.17437022 -32.48486328 128.40771484 C-31.271644 116.79945749 -21.19959001 109.02764539 -13.3125 101.4375 C-10.81051298 99.00207902 -8.31500426 96.56007829 -5.8203125 94.1171875 C-5.22712219 93.5381366 -4.63393188 92.95908569 -4.02276611 92.36248779 C1.35902898 87.0846685 6.32366161 81.62317638 10.8125 75.5625 C9.74322266 74.510625 9.74322266 74.510625 8.65234375 73.4375 C7.68475677 72.47930707 6.71731687 71.52096561 5.75 70.5625 C5.28400391 70.10488281 4.81800781 69.64726562 4.33789062 69.17578125 C0.94431909 65.80529524 -2.20793942 62.27513031 -5.33764648 58.65966797 C-9.16650885 54.31890939 -13.2138855 50.17612235 -17.2265625 46.00585938 C-32.41165983 30.04391826 -32.41165983 30.04391826 -32.5625 20.8125 C-32.40511434 14.59113735 -30.75501323 9.40380019 -26.5390625 4.73828125 C-19.24486581 -1.83923673 -9.28460395 -4.08298848 0 0 Z " fill="#FFFFFF" transform="translate(500.1875,200.4375)"/>
</svg>
