<svg width="576" height="576" viewBox="0 0 576 576" fill="none" xmlns="http://www.w3.org/2000/svg">
<g clip-path="url(#clip0_18_10)">
<path d="M1578.6 346L1629.4 386.3L1602.1 409.3L1552.2 369L1578.6 346ZM1631.5 281.4V288.8C1631.5 302.7 1629.5 315.2 1625.6 326.2C1622.1 336.666 1616.48 346.299 1609.1 354.5C1602.11 362.197 1593.55 368.302 1584 372.4C1574.3 376.4 1563.7 378.5 1552 378.5C1540.3 378.5 1529.5 376.5 1519.8 372.4C1510.19 368.291 1501.57 362.19 1494.5 354.5C1487.19 346.283 1481.58 336.698 1478 326.3C1474.04 314.167 1472.11 301.462 1472.3 288.7V281.4C1472.3 267.4 1474.2 255 1478 243.9C1482 232.8 1487.4 223.4 1494.4 215.6C1501.4 207.8 1509.8 201.8 1519.5 197.8C1529.72 193.517 1540.72 191.373 1551.8 191.5C1562.79 191.38 1573.68 193.525 1583.8 197.8C1593.5 201.8 1601.9 207.8 1609 215.6C1616.42 223.792 1622.07 233.426 1625.6 243.9C1629.6 254.9 1631.5 267.5 1631.5 281.4ZM1586.9 288.8V281C1586.9 272 1586.1 264.1 1584.5 257.3C1583 250.3 1580.8 244.6 1577.8 239.9C1575.1 235.462 1571.27 231.819 1566.7 229.342C1562.14 226.866 1556.99 225.643 1551.8 225.8C1546.58 225.594 1541.41 226.794 1536.82 229.274C1532.23 231.755 1528.39 235.425 1525.7 239.9C1522.7 244.6 1520.5 250.4 1519 257.3C1517.6 264.1 1516.9 272 1516.9 281V288.6C1516.9 297.6 1517.6 305.5 1519 312.4C1520.22 318.526 1522.45 324.407 1525.6 329.8C1528.6 334.5 1532.3 338.1 1536.6 340.5C1541 342.9 1546.2 344.1 1552 344.1C1557.19 344.211 1562.33 342.97 1566.9 340.5C1571.2 338.1 1574.9 334.5 1577.8 329.8C1581.03 324.432 1583.29 318.545 1584.5 312.4C1586.19 304.615 1586.99 296.665 1586.9 288.7V288.8ZM1419.7 266.2V300H1326.4V266.3H1419.8L1419.7 266.2ZM1341 194V376H1297.1V194H1341ZM1449.3 194V376H1405.5V194H1449.3ZM1203.9 360.1L1238.9 240.7H1284.1L1229.8 396.1C1228.6 399.5 1227 403.2 1225.1 407.1C1223.2 411.1 1220.6 414.9 1217.3 418.5C1214 422.1 1209.6 425 1204.3 427.3C1198.19 429.693 1191.66 430.816 1185.1 430.6C1181.1 430.6 1178.1 430.4 1176.1 430L1167.6 428.1V398H1173.1C1176.75 398.1 1180.4 397.627 1183.9 396.6C1186.6 395.7 1188.7 394.4 1190.1 392.6C1191.69 390.728 1192.88 388.55 1193.6 386.2L1203.9 360.2V360.1ZM1195 240.7L1221.6 335.4L1226.2 380H1198L1149.9 240.8H1195V240.7ZM1066.1 240.7L1085.1 278L1104.7 240.8H1148.5L1113 306.6L1150.4 376H1106.3L1085.1 336L1064.1 376H1020L1057.4 306.6L1022 240.7H1066.1ZM883.9 309.7V307.1C883.809 297.8 885.228 288.546 888.1 279.7C890.553 271.603 894.779 264.153 900.469 257.891C906.16 251.63 913.173 246.714 921 243.5C929.878 239.866 939.409 238.096 949 238.3C959.7 238.3 969 240 977.1 243.5C984.933 246.69 991.942 251.613 997.6 257.9C1003.22 264.272 1007.47 271.724 1010.1 279.8C1013.02 288.602 1014.48 297.826 1014.4 307.1V309.7C1014.4 319.6 1013 328.7 1010.1 337.1C1007.3 345.5 1003.1 352.7 997.6 359C992.1 365.2 985.3 370 977.2 373.4C969.1 376.8 959.8 378.5 949.2 378.5C938.7 378.5 929.2 376.8 921.2 373.4C913.331 370.223 906.287 365.299 900.6 359C895.018 352.604 890.768 345.159 888.1 337.1C885.215 328.257 883.797 319.001 883.9 309.7ZM926 307.1V309.7C926 314.8 926.4 319.6 927.1 324C927.8 328.4 929.1 332.3 930.9 335.6C932.6 338.9 935 341.4 938 343.2C941 345.1 944.8 346 949.3 346C953.7 346 957.3 345 960.3 343.3C963.3 341.4 965.6 338.9 967.3 335.6C969.1 332.3 970.3 328.4 971.1 324C971.9 319.6 972.2 314.8 972.2 309.8V307C972.2 302.1 971.9 297.5 971.2 293.1C970.4 288.7 969.2 284.9 967.4 281.5C965.6 278.1 963.3 275.5 960.3 273.5C957.3 271.6 953.5 270.6 949 270.6C944.6 270.6 940.9 271.6 937.9 273.6C934.9 275.4 932.6 278.1 930.9 281.6C929.1 284.9 927.9 288.7 927.1 293.2C926.4 297.5 926 302.2 926 307V307.1ZM800.1 298.6H753.2L753 270H791C797.8 270 803.3 269.2 807.4 267.7C811.4 266.1 814.4 263.8 816.3 260.8C818.2 257.8 819.1 254.1 819.1 249.6C819.1 244.4 818.1 240.3 816.2 237.1C814.3 233.9 811.2 231.6 807.2 230.2C802.028 228.572 796.619 227.828 791.2 228H769.7V376H726V194H791.4C802.6 194 812.6 195 821.4 197.1C830.4 199.1 837.8 202.2 844 206.4C850.026 210.3 854.923 215.714 858.2 222.1C861.614 228.992 863.296 236.612 863.1 244.3C863.1 251.7 861.5 258.6 858.4 265.1C855.3 271.6 849.9 276.9 842.4 281C835.1 285 825.1 287 812.4 287.3L800 298.6H800.1ZM798.4 376H742.6L757.6 342.3H798.4C804.4 342.3 809.2 341.3 812.8 339.5C816.4 337.5 819 335.1 820.6 332C822.292 328.762 823.151 325.153 823.1 321.5C823.209 317.338 822.39 313.205 820.7 309.4C819.2 306 816.8 303.4 813.5 301.5C810.2 299.5 805.7 298.6 800.1 298.6H763.2L763.5 269.9H807.6L817.9 281.4C827.817 280.456 837.805 282.219 846.8 286.5C853.9 290.5 859 295.5 862.1 302C865.2 308.5 866.7 315.1 866.7 322.1C867.098 332.604 864.422 342.995 859 352C854 360 846.3 366 836.1 370C825.9 374 813.4 376 798.4 376ZM0 149C0 142.635 2.52856 136.53 7.02944 132.029C11.5303 127.529 17.6348 125 24 125H111C117.365 125 123.47 127.529 127.971 132.029C132.471 136.53 135 142.635 135 149V416C135 422.365 137.529 428.47 142.029 432.971C146.53 437.471 152.635 440 159 440H426.7C433.065 440 439.17 442.529 443.671 447.029C448.171 451.53 450.7 457.635 450.7 464V552C450.7 558.365 448.171 564.47 443.671 568.971C439.17 573.471 433.065 576 426.7 576H24C17.6348 576 11.5303 573.471 7.02944 568.971C2.52856 564.47 0 558.365 0 552L0 149Z" fill="white"/>
<path fill-rule="evenodd" clip-rule="evenodd" d="M147.3 0C140.935 0 134.83 2.52856 130.329 7.02944C125.829 11.5303 123.3 17.6348 123.3 24V427C123.3 433.365 125.829 439.47 130.329 443.971C134.83 448.471 140.935 451 147.3 451H550C556.365 451 562.47 448.471 566.971 443.971C571.472 439.47 574 433.365 574 427V24C574 17.6348 571.472 11.5303 566.971 7.02944C562.47 2.52856 556.365 0 550 0L147.3 0ZM168.5 21.2C162.135 21.2 156.03 23.7286 151.529 28.2294C147.029 32.7303 144.5 38.8348 144.5 45.2V405.8C144.5 412.165 147.029 418.27 151.529 422.771C156.03 427.271 162.135 429.8 168.5 429.8H528.8C535.165 429.8 541.27 427.271 545.771 422.771C550.272 418.27 552.8 412.165 552.8 405.8V45.2C552.8 38.8348 550.272 32.7303 545.771 28.2294C541.27 23.7286 535.165 21.2 528.8 21.2H168.5Z" fill="white"/>
<path d="M285 171.6L236 220.6M412.3 269.8L461.8 221.3M285.2 269.8L236.2 220.8M413.1 171.6L461.6 221.1" stroke="white" stroke-width="40" stroke-linecap="round"/>
<path d="M361.3 143.8L338 307" stroke="white" stroke-width="42" stroke-linecap="round"/>
<path d="M7.30005 131.3L127.8 9.5L134.8 133.7L7.30005 131.3ZM444.8 568L565.7 445.8L444.8 449.9V567.9V568Z" fill="white"/>
</g>
<defs>
<clipPath id="clip0_18_10">
<rect width="576" height="576" fill="white"/>
</clipPath>
</defs>
</svg>
