<?xml version="1.0" encoding="UTF-8"?>
<svg xmlns="http://www.w3.org/2000/svg" width="576" height="576" fill="none"><path d="m1578.62 346 50.76 40.25-27.26 23-49.87-40.25 26.37-23Zm52.88-64.625v7.375c0 13.917-1.96 26.417-5.88 37.5-3.83 11-9.33 20.417-16.5 28.25-7.08 7.75-15.45 13.708-25.12 17.875-9.67 4.083-20.33 6.125-32 6.125-11.75 0-22.5-2.042-32.25-6.125-9.67-4.167-18.08-10.125-25.25-17.875-7.08-7.833-12.58-17.25-16.5-28.25-3.83-11.083-5.75-23.583-5.75-37.5v-7.375c0-13.917 1.92-26.417 5.75-37.5 3.92-11.083 9.38-20.5 16.38-28.25 7.08-7.833 15.45-13.792 25.12-17.875 9.75-4.167 20.5-6.25 32.25-6.25 11.67 0 22.33 2.083 32 6.25 9.75 4.083 18.17 10.042 25.25 17.875 7.17 7.75 12.71 17.167 16.62 28.25 3.92 11.083 5.88 23.583 5.88 37.5Zm-44.62 7.375v-7.625c0-9-.8-16.917-2.38-23.75-1.5-6.917-3.75-12.708-6.75-17.375s-6.71-8.167-11.13-10.5c-4.33-2.417-9.29-3.625-14.87-3.625-5.83 0-10.92 1.208-15.25 3.625-4.33 2.333-7.96 5.833-10.88 10.5-2.91 4.667-5.12 10.458-6.62 17.375-1.42 6.833-2.12 14.75-2.12 23.75v7.625c0 8.917.7 16.833 2.12 23.75 1.5 6.833 3.71 12.625 6.62 17.375 3 4.75 6.67 8.333 11 10.75 4.42 2.417 9.55 3.625 15.38 3.625 5.58 0 10.54-1.208 14.88-3.625 4.33-2.417 7.95-6 10.87-10.75 3-4.75 5.25-10.542 6.75-17.375 1.58-6.917 2.38-14.833 2.38-23.75ZM1419.75 266.25V300h-93.37v-33.75h93.37ZM1341 194v182h-43.88V194H1341Zm108.25 0v182h-43.75V194h43.75ZM1203.88 360.125l35-119.375h45.24l-54.37 155.375c-1.17 3.417-2.71 7.083-4.63 11-1.91 4-4.54 7.792-7.87 11.375s-7.63 6.5-12.87 8.75c-5.17 2.25-11.59 3.375-19.26 3.375-4.08 0-7.08-.208-9-.625-1.83-.333-4.66-.958-8.5-1.875V398h5.5c4.5 0 8.09-.458 10.76-1.375 2.74-.917 4.83-2.25 6.24-4 1.5-1.75 2.67-3.875 3.5-6.375l10.26-26.125ZM1195 240.75l26.62 94.625 4.63 44.625H1198l-48.12-139.25H1195ZM1066.12 240.75l19 37.25 19.63-37.25h43.75l-35.5 65.875L1150.38 376h-44.13l-21.13-40-21 40H1020l37.38-69.375L1022 240.75h44.12ZM883.875 309.75v-2.625c0-9.917 1.417-19.042 4.25-27.375 2.833-8.417 7-15.708 12.5-21.875S912.917 246.917 921 243.5c8.083-3.5 17.417-5.25 28-5.25 10.667 0 20.042 1.75 28.125 5.25 8.167 3.417 15 8.208 20.5 14.375 5.495 6.167 9.665 13.458 12.495 21.875 2.84 8.333 4.26 17.458 4.26 27.375v2.625c0 9.833-1.42 18.958-4.26 27.375-2.83 8.333-7 15.625-12.495 21.875-5.5 6.167-12.292 10.958-20.375 14.375s-17.417 5.125-28 5.125c-10.583 0-19.958-1.708-28.125-5.125-8.167-3.417-15-8.208-20.5-14.375-5.5-6.25-9.667-13.542-12.5-21.875-2.833-8.417-4.25-17.542-4.25-27.375ZM926 307.125v2.625c0 5.083.375 9.833 1.125 14.25s2 8.292 3.75 11.625c1.75 3.25 4.125 5.792 7.125 7.625 3 1.833 6.75 2.75 11.25 2.75 4.417 0 8.083-.917 11-2.75 3-1.833 5.375-4.375 7.125-7.625 1.75-3.333 3-7.208 3.75-11.625s1.125-9.167 1.125-14.25v-2.625c0-4.917-.375-9.542-1.125-13.875-.75-4.417-2-8.292-3.75-11.625-1.75-3.417-4.125-6.083-7.125-8-3-1.917-6.75-2.875-11.25-2.875-4.417 0-8.125.958-11.125 2.875-2.917 1.917-5.25 4.583-7 8-1.75 3.333-3 7.208-3.75 11.625-.75 4.333-1.125 8.958-1.125 13.875ZM800.125 298.625H753.25l-.25-28.75h38c6.833 0 12.292-.75 16.375-2.25 4.083-1.583 7.042-3.875 8.875-6.875 1.917-3 2.875-6.75 2.875-11.25 0-5.167-.958-9.333-2.875-12.5s-4.958-5.458-9.125-6.875c-4.083-1.5-9.375-2.25-15.875-2.25h-21.5V376h-43.875V194h65.375c11.25 0 21.292 1.042 30.125 3.125 8.833 2 16.333 5.083 22.5 9.25 6.25 4.167 11 9.417 14.25 15.75 3.25 6.25 4.875 13.625 4.875 22.125 0 7.417-1.583 14.375-4.75 20.875s-8.458 11.792-15.875 15.875c-7.333 4-17.375 6.083-30.125 6.25l-12.125 11.375ZM798.375 376h-55.75l15-33.75h40.75c6 0 10.792-.917 14.375-2.75 3.667-1.917 6.292-4.417 7.875-7.5 1.667-3.167 2.5-6.667 2.5-10.5 0-4.667-.792-8.708-2.375-12.125-1.5-3.417-3.917-6.042-7.25-7.875-3.333-1.917-7.792-2.875-13.375-2.875H763.25l.25-28.75h44.125l10.25 11.5c12.167-.5 21.792 1.208 28.875 5.125 7.167 3.917 12.292 9.083 15.375 15.5s4.625 13.125 4.625 20.125c0 11.917-2.583 21.875-7.75 29.875-5.083 8-12.708 14-22.875 18s-22.75 6-37.75 6ZM0 149.004c0-13.255 10.745-24 24-24h87c13.255 0 24 10.745 24 24V416c0 13.255 10.745 24 24 24h267.708c13.255 0 24 10.745 24 24v88c0 13.255-10.745 24-24 24H24c-13.255 0-24-10.745-24-24V149.004Z" fill="#212121"/><path fill-rule="evenodd" clip-rule="evenodd" d="M147.292 0c-13.255 0-24 10.745-24 24v402.996c0 13.255 10.745 24 24 24H550c13.255 0 24-10.745 24-24V24c0-13.255-10.745-24-24-24H147.292Zm21.229 21.243c-13.255 0-24 10.745-24 24v360.51c0 13.255 10.745 24 24 24h360.25c13.255 0 24-10.745 24-24V45.243c0-13.255-10.745-24-24-24h-360.25Z" fill="#212121"/><path d="m284.959 171.574-48.99 49.022M412.333 269.845l49.476-48.53M285.189 269.848l-48.99-49.022M413.081 171.574l48.5 49.508" stroke="#212121" stroke-width="40" stroke-linecap="round"/><path d="m361.305 143.796-23.274 163.233" stroke="#212121" stroke-width="42" stroke-linecap="round"/><path d="M7.349 131.286 127.782 9.55l6.941 124.187-127.374-2.451ZM444.809 568.055l120.842-122.144-120.842 4.085v118.059Z" fill="#212121"/></svg>
