<svg fill="none" viewBox="0 0 576 576"><path fill="#212121" d="m1578.6 346 50.8 40.3-27.3 23-49.9-40.3 26.4-23Zm52.9-64.6v7.4c0 13.9-2 26.4-5.9 37.4a80.4 80.4 0 0 1-16.5 28.3 72.5 72.5 0 0 1-25.1 17.9c-9.7 4-20.3 6.1-32 6.1s-22.5-2-32.2-6.1a73.8 73.8 0 0 1-25.3-17.9 83.2 83.2 0 0 1-16.5-28.2 115.6 115.6 0 0 1-5.7-37.6v-7.3c0-14 1.9-26.4 5.7-37.5 4-11.1 9.4-20.5 16.4-28.3 7-7.8 15.4-13.8 25.1-17.8a81.2 81.2 0 0 1 32.3-6.3 80 80 0 0 1 32 6.3c9.7 4 18.1 10 25.2 17.8a80.4 80.4 0 0 1 16.6 28.3c4 11 5.9 23.6 5.9 37.5Zm-44.6 7.4V281c0-9-.8-16.9-2.4-23.7-1.5-7-3.7-12.7-6.7-17.4a29.4 29.4 0 0 0-26-14.1 29.1 29.1 0 0 0-26.1 14.1c-3 4.7-5.2 10.5-6.7 17.4-1.4 6.8-2.1 14.7-2.1 23.7v7.6c0 9 .7 16.9 2.1 23.8a56.2 56.2 0 0 0 6.6 17.4c3 4.7 6.7 8.3 11 10.7 4.4 2.4 9.6 3.6 15.4 3.6a30 30 0 0 0 14.9-3.6c4.3-2.4 8-6 10.9-10.7a54 54 0 0 0 6.7-17.4 106 106 0 0 0 2.4-23.7Zm-167.2-22.6V300h-93.3v-33.7h93.4ZM1341 194v182h-43.9V194h43.9Zm108.3 0v182h-43.8V194h43.8Zm-245.4 166.1 35-119.4h45.2l-54.3 155.4c-1.2 3.4-2.8 7.1-4.7 11-1.9 4-4.5 7.8-7.8 11.4s-7.7 6.5-13 8.8a48.3 48.3 0 0 1-19.2 3.3c-4 0-7-.2-9-.6l-8.5-1.9V398h5.5a35 35 0 0 0 10.8-1.4c2.7-.9 4.8-2.2 6.2-4a18 18 0 0 0 3.5-6.4l10.3-26Zm-8.9-119.4 26.6 94.7 4.6 44.6H1198l-48.1-139.2h45.1Zm-128.9 0 19 37.3 19.6-37.2h43.8l-35.5 65.8 37.4 69.4h-44.1l-21.2-40-21 40H1020l37.4-69.4-35.4-65.9h44.1Zm-182.2 69v-2.6a86 86 0 0 1 4.2-27.4 57 57 0 0 1 32.9-36.2 70 70 0 0 1 28-5.2c10.7 0 20 1.7 28.1 5.2a56 56 0 0 1 20.5 14.4 62.3 62.3 0 0 1 12.5 21.9 84.4 84.4 0 0 1 4.3 27.3v2.6c0 9.9-1.4 19-4.3 27.4-2.8 8.4-7 15.6-12.5 21.9-5.5 6.2-12.3 11-20.4 14.4s-17.4 5.1-28 5.1c-10.5 0-20-1.7-28-5.1a56 56 0 0 1-20.6-14.4 63.8 63.8 0 0 1-12.5-21.9 85.3 85.3 0 0 1-4.2-27.4Zm42.1-2.6v2.6c0 5.1.4 9.9 1.1 14.3s2 8.3 3.8 11.6c1.7 3.3 4.1 5.8 7.1 7.6 3 1.9 6.8 2.8 11.3 2.8 4.4 0 8-1 11-2.7 3-1.9 5.3-4.4 7-7.7 1.8-3.3 3-7.2 3.8-11.6s1.1-9.2 1.1-14.2V307c0-4.9-.3-9.5-1-13.9-.8-4.4-2-8.2-3.8-11.6-1.8-3.4-4.1-6-7.1-8-3-1.9-6.8-2.9-11.3-2.9-4.4 0-8.1 1-11.1 3-3 1.8-5.3 4.5-7 8-1.8 3.3-3 7.1-3.8 11.6-.7 4.3-1.1 9-1.1 13.8Zm-125.9-8.5h-46.9L753 270h38c6.8 0 12.3-.8 16.4-2.3 4-1.6 7-3.9 8.9-6.9 1.9-3 2.8-6.7 2.8-11.2 0-5.2-1-9.3-2.9-12.5s-5-5.5-9-6.9a48.2 48.2 0 0 0-16-2.2h-21.5v148H726V194h65.4c11.2 0 21.2 1 30 3.1 9 2 16.4 5.1 22.6 9.3a41 41 0 0 1 14.2 15.7 47.3 47.3 0 0 1 4.9 22.2c0 7.4-1.6 14.3-4.7 20.8s-8.5 11.8-16 15.9c-7.3 4-17.3 6-30 6.3L800 298.6Zm-1.7 77.4h-55.8l15-33.7h40.8c6 0 10.8-1 14.4-2.8 3.6-2 6.2-4.4 7.8-7.5a22 22 0 0 0 2.5-10.5 28 28 0 0 0-2.4-12.1c-1.5-3.4-3.9-6-7.2-7.9-3.3-2-7.8-2.9-13.4-2.9h-36.9l.3-28.7h44.1l10.3 11.5a55.1 55.1 0 0 1 28.9 5.1c7.1 4 12.2 9 15.3 15.5s4.6 13.1 4.6 20.1A54 54 0 0 1 859 352c-5 8-12.7 14-22.9 18s-22.7 6-37.7 6ZM0 149a24 24 0 0 1 24-24h87a24 24 0 0 1 24 24v267a24 24 0 0 0 24 24h267.7a24 24 0 0 1 24 24v88a24 24 0 0 1-24 24H24a24 24 0 0 1-24-24V149Z"/><path fill="#212121" fill-rule="evenodd" d="M147.3 0a24 24 0 0 0-24 24v403a24 24 0 0 0 24 24H550a24 24 0 0 0 24-24V24a24 24 0 0 0-24-24H147.3Zm21.2 21.2a24 24 0 0 0-24 24v360.6a24 24 0 0 0 24 24h360.3a24 24 0 0 0 24-24V45.2a24 24 0 0 0-24-24H168.5Z" clip-rule="evenodd"/><path stroke="#212121" stroke-linecap="round" stroke-width="40" d="m285 171.6-49 49m176.3 49.2 49.5-48.5m-176.6 48.5-49-49m176.9-49.2 48.5 49.5"/><path stroke="#212121" stroke-linecap="round" stroke-width="42" d="M361.3 143.8 338 307"/><path fill="#212121" d="M7.3 131.3 127.8 9.5l7 124.2-127.5-2.4ZM444.8 568l120.9-122.2-120.9 4.1v118Z"/></svg>