<svg xmlns="http://www.w3.org/2000/svg" xmlns:xlink="http://www.w3.org/1999/xlink" height="800" width="1200" enable-background="new 0 0 72.125 22.875" viewBox="-75.0003 -36.41325 650.0026 218.4795"><g transform="translate(-14.477 -6.714) scale(7.06516)"><defs><path id="a" d="M2.048.95H72.82v20.618H2.048z"/></defs><clipPath id="c"><use xlink:href="#a" overflow="visible" width="100%" height="100%"/></clipPath><defs><filter id="b" filterUnits="userSpaceOnUse" x="16.952" y=".95" width="39.466" height="18.979"><feFlood result="back"/><feBlend in="SourceGraphic" in2="back"/></filter></defs><mask maskUnits="userSpaceOnUse" x="16.952" y=".95" width="39.466" height="18.979" id="g"><g filter="url(#b)"><defs><path id="d" transform="rotate(-179.99 37.643 13.097)" d="M.885-1.914h73.516v30.021H.885z"/></defs><clipPath id="e" clip-path="url(#c)"><use xlink:href="#d" overflow="visible" width="100%" height="100%"/></clipPath><linearGradient id="f" gradientUnits="userSpaceOnUse" x1="-284.082" y1="272.799" x2="-283.083" y2="272.799" gradientTransform="matrix(29.0984 0 0 -29.0984 8282.156 7951.114)"><stop offset="0" stop-color="#231f20"/><stop offset=".852" stop-color="#f5f5f6"/><stop offset="1" stop-color="#fff"/></linearGradient><path clip-path="url(#e)" fill="url(#f)" d="M.883-1.921h73.52v30.035H.883z"/></g></mask><g clip-path="url(#c)" mask="url(#g)"><defs><path id="h" d="M16.952.95h39.465v18.979H16.952z"/></defs><clipPath id="i"><use xlink:href="#h" overflow="visible" width="100%" height="100%"/></clipPath><g clip-path="url(#i)"><defs><path id="j" d="M16.952.95h39.465v18.979H16.952z"/></defs><clipPath id="k"><use xlink:href="#j" overflow="visible" width="100%" height="100%"/></clipPath><path clip-path="url(#k)" d="M56.418 8.447C52.112 3.802 45.588.756 38.443.96c-16.699.476-21.578 14.39-21.49 18.97.893-9.04 9.261-17.615 21.202-17.527 6.819.052 13.037 3.28 16.617 7.582.275-.794.992-1.338 1.646-1.538" fill="#bbbdbf"/></g></g><path clip-path="url(#c)" d="M2.373 21.317a.324.324 0 01-.324-.323V9.938c0-.178.145-.324.324-.324h3.636l2.325-.001c1.729.004 3.77.976 3.771 3.209 0 1.245-.887 1.905-1.32 2.321.663.336 1.554 1.323 1.555 2.752.001 1.119-.436 1.98-1.156 2.556-.721.575-1.722.866-2.85.866H5.527zm1.768-5.073a.326.326 0 00-.323.324v2.655c0 .178.146.325.323.325h4.193c1.551-.009 2.231-.569 2.235-1.653-.007-1.012-.5-1.641-2.235-1.651zm4.192-1.771c1.125-.001 1.998-.65 2.001-1.65-.003-.891-.838-1.433-2.001-1.436H4.141a.325.325 0 00-.323.323v2.439c0 .178.146.323.323.323h4.192zm6.565 2.417c0 1.104.209 2.273.96 3.17.75.896 2.04 1.508 4.174 1.506h.001c2.133 0 3.423-.61 4.173-1.506.751-.896.96-2.066.96-3.17V9.938a.324.324 0 00-.324-.324H23.72a.325.325 0 00-.324.324v6.952c-.009 1.687-.677 2.894-3.364 2.903-2.687-.01-3.354-1.217-3.364-2.903V9.938a.325.325 0 00-.324-.324h-1.122a.325.325 0 00-.324.324zm22.404 1.161c0 .178-.09.208-.199.069l-6.447-8.25a.747.747 0 00-.523-.257h-1.097a.325.325 0 00-.324.324v11.059c0 .178.145.324.324.324h1.123a.325.325 0 00.324-.324v-8.112c0-.179.089-.21.2-.069l6.445 8.249c.11.142.345.254.524.254h1.097a.324.324 0 00.324-.323V9.938a.325.325 0 00-.324-.324h-1.123a.324.324 0 00-.323.324v8.113zm20.626-4.114h-1.122a.324.324 0 00-.324.324v6.734c0 .179.147.325.325.325h1.12c.18 0 .326-.146.326-.325v-6.734a.326.326 0 00-.325-.324m5.439 5.611a.325.325 0 01-.324-.324V16.43c0-.179.146-.324.324-.324h4.439a.325.325 0 00.324-.323v-1.126a.326.326 0 00-.324-.324h-4.439a.324.324 0 01-.324-.323v-2.3c0-.177.146-.323.324-.323h6.758a.325.325 0 00.322-.324V9.938a.324.324 0 00-.322-.324h-8.528a.325.325 0 00-.324.324v11.058c0 .179.146.325.324.325h8.821a.325.325 0 00.324-.325v-1.124a.324.324 0 00-.324-.323h-7.051zm-15.028-8.459c1.733 0 2.63.728 3.213 1.295l.126.12a.32.32 0 00.456-.002l.779-.801a.324.324 0 00-.007-.457l-.123-.111c-.778-.716-2.203-1.817-4.615-1.817-1.867 0-3.467.686-4.602 1.791a5.951 5.951 0 00-1.801 4.295c0 1.985.814 3.517 2.021 4.549 1.202 1.031 2.794 1.564 4.351 1.564 3.446-.004 4.87-1.529 5.186-1.931l.045-.056a.904.904 0 01.066-.086c.004-.004.006-.024.006-.046v-3.982a.325.325 0 00-.324-.323h-4.131a.324.324 0 00-.324.323v1.078c0 .179.146.324.324.324h2.353c.179 0 .325.146.325.323v1.244c0 .18-.038.356-.084.396l-.064.048c-.025.02-.053.04-.08.058-.468.338-1.373.858-3.218.858-2.913-.001-4.678-2.016-4.679-4.264.001-2.405 1.75-4.388 4.801-4.39"/><path clip-path="url(#c)" d="M57.367 9.506a1.665 1.665 0 100 3.33 1.665 1.665 0 000-3.33" fill="#00a3e3"/><path clip-path="url(#c)" d="M72.162 10.151c.088 0 .152.009.193.026.073.029.109.09.109.18 0 .063-.023.111-.069.141a.254.254 0 01-.103.034.174.174 0 01.123.07.198.198 0 01.037.11v.053l.002.053a.21.21 0 00.006.037l.006.009h-.116l-.002-.007-.001-.008-.003-.023v-.056c0-.082-.023-.138-.067-.163-.026-.017-.073-.023-.139-.023h-.099v.281h-.125v-.713h.248zm.133.113a.307.307 0 00-.149-.026h-.106v.258h.112a.322.322 0 00.119-.016c.049-.02.073-.057.073-.111 0-.053-.016-.088-.049-.105m.336.707a.616.616 0 01-.457.19.615.615 0 01-.455-.19.632.632 0 01-.188-.461c0-.179.063-.331.189-.458a.613.613 0 01.453-.189c.18 0 .332.063.457.189a.62.62 0 01.189.458c0 .18-.061.333-.188.461m-.848-.857a.538.538 0 00-.162.396c0 .155.053.287.16.397a.53.53 0 00.393.165.534.534 0 00.394-.165.54.54 0 00.161-.397.544.544 0 00-.161-.396.53.53 0 00-.394-.165.529.529 0 00-.391.165"/></g></svg>