<svg width="520" height="182" viewBox="0 0 520 182" fill="none" xmlns="http://www.w3.org/2000/svg">
<mask id="mask0_3332_107" style="mask-type:luminance" maskUnits="userSpaceOnUse" x="119" y="48" width="281" height="87">
<path d="M399.708 48H119.726V135H399.708V48Z" fill="white"/>
</mask>
<g mask="url(#mask0_3332_107)">
<path d="M247.528 108.675C246.088 110.163 244.358 111.343 242.445 112.143C240.533 112.943 238.477 113.346 236.403 113.327C234.652 113.38 232.907 113.075 231.279 112.43C229.65 111.786 228.171 110.815 226.933 109.579C224.683 107.24 223.388 103.899 223.388 99.9173C223.388 91.946 228.594 86.4936 236.403 86.4936C238.497 86.4642 240.573 86.8963 242.479 87.7588C244.387 88.6214 246.08 89.8931 247.438 91.4834L254.194 85.5276C249.792 80.1995 242.647 77.4458 235.863 77.4458C222.585 77.4458 213.17 86.5697 213.17 99.9931C213.17 106.632 215.51 112.223 219.456 116.17C223.402 120.118 229.023 122.437 235.509 122.437C243.934 122.437 250.656 119.028 254.43 114.742L247.528 108.675Z" fill="#2B2B31"/>
<path d="M260.539 60.4255H270.599V121.732H260.539V60.4255Z" fill="#2B2B31"/>
<path d="M319.051 103.4C319.217 102.065 319.309 100.722 319.328 99.3767C319.328 86.6642 310.979 77.4574 298.068 77.4574C295.22 77.4016 292.392 77.9276 289.756 79.003C287.12 80.0783 284.732 81.6803 282.741 83.7102C278.968 87.6578 276.705 93.2483 276.705 99.915C276.705 113.504 286.313 122.448 299.051 122.448C307.601 122.448 313.755 118.998 317.444 114.319L310.854 108.5L310.529 108.225C309.221 109.855 307.555 111.163 305.657 112.048C303.76 112.932 301.685 113.369 299.591 113.325C293.125 113.325 288.459 109.563 287.131 103.4H319.051ZM287.296 95.353C287.746 93.4103 288.666 91.6072 289.975 90.101C291.065 88.9171 292.4 87.9815 293.886 87.3584C295.372 86.7356 296.976 86.4398 298.587 86.4916C304.333 86.4916 307.932 90.0735 309.172 95.353H287.296Z" fill="#2B2B31"/>
<path d="M350.419 77.326V88.5064C349.256 88.4169 348.087 88.3269 347.373 88.3269C339.758 88.3269 335.438 93.7793 335.438 100.936V121.731H325.394V77.9471H335.438V84.5794H335.529C338.941 79.9279 343.836 77.3398 349.166 77.3398L350.419 77.326Z" fill="#2B2B31"/>
<path d="M373.843 103.394L366.582 111.449V121.732H356.531V60.4255H366.582V98.0319L384.519 78.0866H396.453L380.669 95.7061L396.73 121.732H385.426L374.031 103.394H373.843Z" fill="#2B2B31"/>
<path d="M189.234 59.4579L178.76 69.8999C178.431 70.2276 178.001 70.4358 177.539 70.4908C177.077 70.5459 176.61 70.4447 176.213 70.2036C172.092 67.7256 167.341 66.4898 162.531 66.6453C157.722 66.8009 153.061 68.3411 149.11 71.0801C146.68 72.7661 144.571 74.8693 142.88 77.2914C140.136 81.2323 138.592 85.8794 138.435 90.6742C138.278 95.469 139.513 100.207 141.994 104.318C142.234 104.713 142.334 105.178 142.279 105.637C142.224 106.096 142.016 106.523 141.689 106.851L131.215 117.293C131.004 117.504 130.75 117.668 130.469 117.773C130.189 117.877 129.889 117.92 129.591 117.899C129.292 117.877 129.002 117.791 128.74 117.648C128.478 117.504 128.25 117.305 128.072 117.065C122.405 109.299 119.476 99.8814 119.743 90.2817C120.01 80.6818 123.457 71.4401 129.546 63.9991C131.406 61.7224 133.493 59.6411 135.777 57.7878C143.24 51.7183 152.509 48.2826 162.137 48.0167C171.765 47.7508 181.21 50.6696 188.999 56.3177C189.241 56.4945 189.442 56.7217 189.587 56.9834C189.733 57.2451 189.82 57.5352 189.843 57.8337C189.865 58.1322 189.822 58.432 189.717 58.7123C189.612 58.9927 189.447 59.2471 189.234 59.4579Z" fill="#654BF6" fill-opacity="0.501961"/>
<path d="M189.224 123.505L178.75 113.063C178.421 112.735 177.991 112.527 177.529 112.472C177.067 112.417 176.6 112.518 176.202 112.759C172.318 115.095 167.867 116.33 163.33 116.33C158.793 116.33 154.342 115.095 150.457 112.759C150.059 112.518 149.592 112.417 149.13 112.472C148.668 112.527 148.238 112.735 147.909 113.063L137.435 123.505C137.216 123.715 137.045 123.972 136.936 124.255C136.827 124.539 136.781 124.843 136.803 125.146C136.825 125.449 136.913 125.743 137.062 126.008C137.211 126.273 137.416 126.503 137.664 126.679C145.119 132.088 154.102 135.001 163.323 135.001C172.543 135.001 181.526 132.088 188.982 126.679C189.23 126.504 189.437 126.275 189.587 126.011C189.737 125.746 189.827 125.452 189.85 125.149C189.873 124.846 189.829 124.541 189.721 124.258C189.612 123.973 189.443 123.716 189.224 123.505Z" fill="#654BF6"/>
<path d="M163.351 103.906C170.233 103.906 175.812 98.3437 175.812 91.4827C175.812 84.6221 170.233 79.0601 163.351 79.0601C156.469 79.0601 150.89 84.6221 150.89 91.4827C150.89 98.3437 156.469 103.906 163.351 103.906Z" fill="#654BF6"/>
</g>
</svg>
