<svg xmlns="http://www.w3.org/2000/svg" xmlns:xlink="http://www.w3.org/1999/xlink" fill="none" viewBox="0 0 185 185"><g filter="url(#a)"><rect width="125" height="125" x="30" y="20" fill="#fff" rx="62.5"/><rect width="125" height="125" x="30" y="20" fill="#fff" rx="62.5"/><path fill="url(#b)" fill-rule="evenodd" d="m55.9 105.7 13.5-10.3c7.2 9.3 14.8 13.7 23.3 13.7 8.4 0 15.9-4.3 22.7-13.6l13.7 10c-9.9 13.5-22.2 20.6-36.4 20.6s-26.6-7-36.8-20.4Z" clip-rule="evenodd"/><path fill="url(#c)" fill-rule="evenodd" d="m92.6 60.7-24 20.7-11.1-12.9 35.2-30.3 35 30.4-11.2 12.8-23.9-20.7Z" clip-rule="evenodd"/></g><defs><linearGradient id="b" x1="55.9" x2="129.1" y1="116.3" y2="116.3" gradientUnits="userSpaceOnUse"><stop stop-color="#8930FD"/><stop offset="1" stop-color="#49CCF9"/></linearGradient><linearGradient id="c" x1="57.5" x2="127.6" y1="67.6" y2="67.6" gradientUnits="userSpaceOnUse"><stop stop-color="#FF02F0"/><stop offset="1" stop-color="#FFC800"/></linearGradient><filter id="a" width="185" height="185" x="0" y="0" color-interpolation-filters="sRGB" filterUnits="userSpaceOnUse"><feFlood flood-opacity="0" result="BackgroundImageFix"/><feColorMatrix in="SourceAlpha" values="0 0 0 0 0 0 0 0 0 0 0 0 0 0 0 0 0 0 127 0"/><feOffset dy="10"/><feGaussianBlur stdDeviation="15"/><feColorMatrix values="0 0 0 0 0.0627451 0 0 0 0 0.117647 0 0 0 0 0.211765 0 0 0 0.1 0"/><feBlend in2="BackgroundImageFix" result="effect1_dropShadow"/><feBlend in="SourceGraphic" in2="effect1_dropShadow" result="shape"/></filter></defs></svg>