<svg width="29" height="20" viewBox="0 0 29 20" fill="none" xmlns="http://www.w3.org/2000/svg">
<path fill-rule="evenodd" clip-rule="evenodd" d="M19.8415 2.65683C21.432 3.82843 22.6116 5.4731 23.2117 7.35577C24.6667 7.54576 26.0038 8.25627 26.9759 9.356C27.948 10.4557 28.4894 11.8703 28.5 13.3384C28.5 15.8749 26.895 17.9774 24.3111 18.8244L24.1951 18.8615V16.9911C25.8025 16.3135 26.7465 14.9745 26.7465 13.3384C26.7425 12.2159 26.2999 11.1394 25.5133 10.3389C24.7267 9.53847 23.6585 9.0775 22.5367 9.05449H21.8409L21.6739 8.39078C21.2756 6.7457 20.339 5.28108 19.013 4.22984C17.687 3.17861 16.0478 2.6011 14.3561 2.58916C12.9363 2.58234 11.5441 2.98119 10.3431 3.73884C9.14214 4.49648 8.18229 5.58142 7.57641 6.86611L7.36302 7.30472L6.87594 7.35577C5.80298 7.47061 4.79282 7.91849 3.98705 8.63661C3.18129 9.35474 2.6203 10.3071 2.38272 11.3603C2.14514 12.4134 2.24288 13.5146 2.66224 14.5094C3.08159 15.5042 3.80155 16.3427 4.72119 16.9076V18.8801H4.70959L4.53563 18.8012C3.19505 18.1846 2.08614 17.156 1.3703 15.8651C0.654466 14.5743 0.369066 13.0885 0.555641 11.6242C0.742216 10.1598 1.39103 8.79317 2.40764 7.72328C3.42426 6.65338 4.75562 5.93603 6.20794 5.67562C6.99816 4.20383 8.17425 2.97528 9.60985 2.12197C11.0455 1.26866 12.6863 0.822847 14.3561 0.832427C16.3311 0.846667 18.2511 1.48522 19.8415 2.65683ZM11.3408 19.0379L10.9558 18.6527C10.6967 18.3926 10.5508 18.0406 10.5499 17.6734V11.8717C10.5505 11.8512 10.5591 11.8317 10.5738 11.8175C10.5885 11.8032 10.6082 11.7952 10.6288 11.7952H11.2875C11.3024 11.7949 11.3169 11.7902 11.3292 11.7818C11.3415 11.7734 11.3511 11.7615 11.3568 11.7477C11.3624 11.7339 11.3639 11.7187 11.3611 11.7041C11.3583 11.6894 11.3512 11.6759 11.3408 11.6652L8.76394 9.08465C8.75682 9.07742 8.74834 9.07168 8.73898 9.06777C8.72962 9.06385 8.71958 9.06183 8.70944 9.06183C8.69929 9.06183 8.68925 9.06385 8.67989 9.06777C8.67054 9.07168 8.66205 9.07742 8.65493 9.08465L6.07572 11.6652C6.06519 11.6761 6.0581 11.6898 6.05534 11.7046C6.05259 11.7195 6.0543 11.7349 6.06025 11.7488C6.06621 11.7627 6.07614 11.7745 6.0888 11.7827C6.10146 11.791 6.11628 11.7953 6.13139 11.7952H6.78083C6.80113 11.7952 6.8206 11.8032 6.83495 11.8176C6.84931 11.832 6.85737 11.8514 6.85737 11.8717V17.7755C6.85737 18.1448 7.00399 18.4989 7.26498 18.76C7.52596 19.0212 7.87994 19.1679 8.24903 19.1679H11.2875C11.3024 19.1676 11.3169 19.1629 11.3292 19.1545C11.3415 19.1461 11.3511 19.1342 11.3568 19.1204C11.3624 19.1066 11.3639 19.0914 11.3611 19.0768C11.3583 19.0621 11.3512 19.0486 11.3408 19.0379ZM16.6546 18.6527L17.042 19.0379C17.0525 19.0488 17.0596 19.0625 17.0624 19.0773C17.0651 19.0922 17.0634 19.1076 17.0575 19.1215C17.0515 19.1354 17.0416 19.1472 17.0289 19.1554C17.0163 19.1637 17.0014 19.168 16.9863 19.1679H13.9548C13.5857 19.1679 13.2318 19.0212 12.9708 18.76C12.7098 18.4989 12.5632 18.1448 12.5632 17.7755V13.3639C12.5632 13.3434 12.5552 13.3237 12.5409 13.3089C12.5266 13.2942 12.5071 13.2856 12.4866 13.285H11.8302C11.8153 13.2847 11.8008 13.2801 11.7885 13.2716C11.7762 13.2632 11.7666 13.2514 11.761 13.2376C11.7553 13.2237 11.7538 13.2086 11.7566 13.1939C11.7594 13.1793 11.7665 13.1658 11.7769 13.1551L14.3538 10.5791C14.3609 10.5719 14.3694 10.5662 14.3787 10.5623C14.3881 10.5583 14.3981 10.5563 14.4083 10.5563C14.4184 10.5563 14.4285 10.5583 14.4378 10.5623C14.4472 10.5662 14.4557 10.5719 14.4628 10.5791L17.042 13.1504C17.0525 13.1613 17.0596 13.175 17.0624 13.1899C17.0651 13.2047 17.0634 13.2201 17.0575 13.234C17.0515 13.2479 17.0416 13.2597 17.0289 13.268C17.0163 13.2762 17.0014 13.2805 16.9863 13.2804H16.3276C16.3071 13.281 16.2876 13.2896 16.2733 13.3043C16.2591 13.319 16.2511 13.3388 16.2511 13.3593V17.6734C16.2514 18.0403 16.3964 18.3922 16.6546 18.6527ZM22.7408 19.0379L22.3558 18.6527C22.0967 18.3926 21.9509 18.0406 21.9499 17.6734V14.8445C21.9499 14.8242 21.958 14.8047 21.9723 14.7904C21.9867 14.776 22.0062 14.7679 22.0265 14.7679H22.6875C22.7029 14.7681 22.718 14.7636 22.7308 14.7551C22.7436 14.7465 22.7535 14.7343 22.7593 14.72C22.7651 14.7057 22.7664 14.69 22.7631 14.675C22.7598 14.6599 22.752 14.6462 22.7408 14.6356L20.1616 12.0574C20.1547 12.0502 20.1464 12.0446 20.1373 12.0407C20.1281 12.0368 20.1182 12.0348 20.1083 12.0348C20.0983 12.0348 20.0885 12.0368 20.0793 12.0407C20.0702 12.0446 20.0619 12.0502 20.0549 12.0574L17.4757 14.6356C17.4645 14.6462 17.4568 14.6599 17.4535 14.675C17.4502 14.69 17.4515 14.7057 17.4573 14.72C17.463 14.7343 17.473 14.7465 17.4858 14.7551C17.4986 14.7636 17.5137 14.7681 17.5291 14.7679H18.1785C18.1988 14.7679 18.2183 14.776 18.2326 14.7904C18.247 14.8047 18.2551 14.8242 18.2551 14.8445V17.7755C18.2551 18.1448 18.4017 18.4989 18.6627 18.76C18.9237 19.0212 19.2776 19.1679 19.6467 19.1679H22.6875C22.7024 19.1676 22.7169 19.1629 22.7292 19.1545C22.7415 19.1461 22.7511 19.1342 22.7568 19.1204C22.7624 19.1066 22.764 19.0914 22.7611 19.0768C22.7583 19.0621 22.7512 19.0486 22.7408 19.0379Z" fill="#3448C5"/>
</svg>
