<?xml version="1.0" encoding="utf-8"?>
<!-- Generator: Adobe Illustrator 26.2.1, SVG Export Plug-In . SVG Version: 6.00 Build 0)  -->
<svg version="1.1" id="Layer_1" xmlns="http://www.w3.org/2000/svg" xmlns:xlink="http://www.w3.org/1999/xlink" x="0px" y="0px"
	 width="194.7px" height="215.2px" viewBox="0 0 194.7 215.2" style="enable-background:new 0 0 194.7 215.2;" xml:space="preserve"
	>
<style type="text/css">
	.st0{fill:url(#SVGID_1_);}
	.st1{fill:url(#SVGID_00000004519561486438896460000001266960168497785022_);}
	.st2{fill:url(#SVGID_00000049204468076180615810000015113731544435055266_);}
	.st3{fill:url(#SVGID_00000116951257355544416270000003794629356563808950_);}
</style>
<g>
	<linearGradient id="SVGID_1_" gradientUnits="userSpaceOnUse" x1="68.3919" y1="222.1531" x2="185.0265" y2="41.0264">
		<stop  offset="1.481436e-07" style="stop-color:#0083B5"/>
		<stop  offset="0.4173" style="stop-color:#00FFFF"/>
		<stop  offset="0.9952" style="stop-color:#6FF12D"/>
	</linearGradient>
	<path class="st0" d="M129.8,174.7c7.6-1.6,14-4.8,19.2-9.7c7.7-7.3,8.8-17.1,8.8-29.4V80.7c0-12.3-1.1-22.1-8.8-29.4
		c-5.2-4.9-11.6-8.1-19.2-9.7V15.4c12.5,1.8,22.9,6.5,31,14.2c10.6,10,19.9,23.5,19.9,40.5v75c0,17-9.3,30.5-19.9,40.5
		c-8.1,7.7-18.5,12.4-31,14.2V174.7z"/>
	
		<linearGradient id="SVGID_00000040544740507634666800000017273841385603649669_" gradientUnits="userSpaceOnUse" x1="5.037" y1="181.3564" x2="121.6716" y2="0.2297">
		<stop  offset="1.481436e-07" style="stop-color:#0083B5"/>
		<stop  offset="0.4173" style="stop-color:#00FFFF"/>
		<stop  offset="0.9952" style="stop-color:#6FF12D"/>
	</linearGradient>
	<path style="fill:url(#SVGID_00000040544740507634666800000017273841385603649669_);" d="M33.9,29.6c8.1-7.7,18.5-12.4,31-14.2
		v26.3c-7.6,1.6-14,4.8-19.2,9.7c-7.7,7.3-8.8,17-8.8,29.2v55.1c0,12.3,1.1,22.1,8.8,29.4c5.2,4.9,11.6,8.1,19.2,9.7v25.1
		c-12.5-1.8-22.9-6.5-31-14.2c-10.6-10-19.9-23.5-19.9-40.5V69.8C13.9,53,23.2,39.6,33.9,29.6z"/>
	<g>
		
			<linearGradient id="SVGID_00000060713993868866928010000000698955780952733088_" gradientUnits="userSpaceOnUse" x1="22.0278" y1="192.2974" x2="138.6624" y2="11.1707">
			<stop  offset="1.481436e-07" style="stop-color:#0083B5"/>
			<stop  offset="0.4173" style="stop-color:#00FFFF"/>
			<stop  offset="0.9952" style="stop-color:#6FF12D"/>
		</linearGradient>
		<path style="fill:url(#SVGID_00000060713993868866928010000000698955780952733088_);" d="M120.2,87.8l8.5-13.7l-17.8-9.4
			l-7.5,14.2c-1.1,2.1-3.1,3.3-5.5,3.3c-2.3,0-4.4-1.2-5.5-3.3L85,64.7L67.3,74l12.3,19.7L120.2,87.8z"/>
		
			<linearGradient id="SVGID_00000115475840050352750520000000840372054167564949_" gradientUnits="userSpaceOnUse" x1="37.9651" y1="202.5601" x2="154.5998" y2="21.4334">
			<stop  offset="1.481436e-07" style="stop-color:#0083B5"/>
			<stop  offset="0.4173" style="stop-color:#00FFFF"/>
			<stop  offset="0.9952" style="stop-color:#6FF12D"/>
		</linearGradient>
		<path style="fill:url(#SVGID_00000115475840050352750520000000840372054167564949_);" d="M142.4,97.7l-87.8,0.8v17.7l27.5-0.1
			l-14.8,23.8l17.7,9.3l7.5-14.2c1.1-2.1,3.1-3.3,5.5-3.3c2.3,0,4.4,1.2,5.5,3.3l7.5,14.2l17.8-9.4l-12-19.3L93.7,116l48.7-0.2V97.7
			z"/>
	</g>
</g>
</svg>
