<svg xmlns="http://www.w3.org/2000/svg" preserveAspectRatio="xMidYMid" viewBox="0 0 256 256"><path fill="#E74D89" d="M128 8.5a119.3 119.3 0 1 1 .2 238.6A119.3 119.3 0 0 1 128 8.5Z"/><path fill="#B2215A" d="M128 255.7A128 128 0 0 1 0 127.9a128 128 0 0 1 256-.1c0 70.5-57.4 127.9-128 127.9Zm107.9-110.4a161.2 161.2 0 0 0-68.1-4.7 466.5 466.5 0 0 1 21.2 77.8 108.6 108.6 0 0 0 46.9-73.1Zm-65.2 83.2c-1.6-9.6-8-43-23.3-82.8l-.7.2c-61.7 21.5-83.8 64.2-85.8 68.2a108.9 108.9 0 0 0 109.8 14.4ZM46.8 201c2.5-4.2 32.5-53.8 88.9-72.1l4.3-1.3c-2.7-6.2-5.7-12.4-8.9-18.5a403.9 403.9 0 0 1-112.4 15.5l-.1 3.3c.1 28.1 10.7 53.7 28.2 73.1ZM21 105.6c4.9.1 49.9.3 101.1-13.3C104 60.1 84.4 33.1 81.6 29.2A109.5 109.5 0 0 0 21 105.6Zm81.4-83.8c3 4 22.9 31 40.8 63.9 38.9-14.6 55.3-36.6 57.3-39.4a109 109 0 0 0-98.1-24.5Zm110.2 37.1c-2.3 3.1-20.6 26.6-61 43.1a451.8 451.8 0 0 1 9.7 21.4c36.4-4.6 72.5 2.8 76.1 3.5-.3-25.7-9.5-49.4-24.8-68Z"/></svg>