<svg xmlns="http://www.w3.org/2000/svg" xmlns:xlink="http://www.w3.org/1999/xlink" viewBox="0 0 100.2 111.8"><defs><style>.cls-1{fill:#633e9e}.cls-2{fill:#43257c}.cls-3{fill:#8361c5}.cls-4{fill:#764fc1}</style></defs><g id="Layer_2" data-name="Layer 2"><g id="Layer_1-2" data-name="Layer 1"><rect width="22.2" height="73.9" x="64.7" y="-3.7" class="cls-1" rx="11.1" transform="rotate(31.1 75.8 33.2)"/><rect width="22.2" height="73.9" x="63.8" y="41.2" class="cls-2" rx="11.1" transform="rotate(-28.9 74.9 78.1)"/><rect width="22.2" height="73.9" x="25.8" y="18.6" class="cls-3" rx="11.1" transform="rotate(-90 37 55.6)"/><path d="M75.2 55.6A11.2 11.2 0 0 0 64 44.3h-8l-3 5.2a12.2 12.2 0 0 0-.8 1.6l-.1.4v.1a11 11 0 0 0 .7 9.2l3.1 5.8h8.2a11.2 11.2 0 0 0 11.1-11.2Z" class="cls-4"/></g></g></svg>