<?xml version="1.0" standalone="no"?>
<!DOCTYPE svg PUBLIC "-//W3C//DTD SVG 20010904//EN"
 "http://www.w3.org/TR/2001/REC-SVG-20010904/DTD/svg10.dtd">
<svg version="1.0" xmlns="http://www.w3.org/2000/svg"
 width="736.000000pt" height="736.000000pt" viewBox="0 0 736.000000 736.000000"
 preserveAspectRatio="xMidYMid meet">

<g transform="translate(0.000000,736.000000) scale(0.100000,-0.100000)"
fill="#000000" stroke="none">
<path d="M1910 6006 c-111 -25 -170 -76 -200 -174 -20 -63 -20 -100 -20 -1801
0 -1132 4 -1749 10 -1772 29 -104 90 -146 407 -282 288 -123 656 -278 1033
-437 69 -29 188 -79 264 -112 272 -115 277 -115 546 -4 233 97 298 124 435
180 477 196 863 361 1014 433 131 63 198 121 238 209 20 45 27 81 35 182 5 72
7 803 5 1731 -3 1448 -5 1611 -19 1659 -29 94 -76 145 -170 181 -39 15 -195
16 -1783 18 -1344 1 -1753 -1 -1795 -11z m1041 -620 c2 -2 3 -65 1 -140 l-3
-136 -180 0 -179 0 0 -225 0 -225 181 -2 180 -3 0 -135 0 -135 -181 -3 -180
-2 2 -268 3 -267 178 -5 178 -5 2 -133 2 -132 -317 0 -318 0 0 910 0 910 313
0 c173 0 316 -2 318 -4z m640 -20 c65 -24 114 -68 146 -134 l28 -57 0 -370 0
-370 -28 -57 c-54 -110 -134 -148 -309 -148 l-108 0 0 -330 0 -330 -140 0
-140 0 0 903 c0 497 3 907 8 911 4 5 117 6 252 3 195 -3 254 -8 291 -21z m544
-886 l0 -905 -137 -3 -138 -3 0 904 c0 497 3 907 7 911 4 3 66 5 137 4 l131
-3 0 -905z m740 872 c65 -30 108 -73 137 -136 22 -48 23 -64 26 -303 l3 -253
-135 0 -135 0 -3 215 c-3 208 -4 215 -26 237 -20 20 -33 23 -102 23 -74 0 -82
-2 -107 -28 l-28 -27 -3 -598 c-2 -420 1 -605 9 -624 14 -34 57 -51 130 -51
71 0 104 16 119 56 5 17 10 117 10 233 l0 204 135 0 135 0 0 -235 c0 -129 -5
-256 -11 -284 -21 -97 -86 -164 -189 -195 -74 -22 -345 -22 -418 -1 -107 32
-174 114 -193 237 -6 39 -9 304 -7 684 l3 619 24 59 c37 92 106 157 201 187
14 4 104 7 200 6 159 -2 180 -4 225 -25z m-2217 -2267 c29 -13 55 -31 58 -39
3 -9 -10 -33 -32 -60 l-37 -45 -48 25 c-57 28 -98 30 -146 8 -40 -20 -62 -49
-73 -99 -25 -112 78 -208 186 -173 33 11 39 18 42 46 l3 32 -56 0 -56 0 3 53
3 52 120 0 120 0 3 -100 c2 -55 0 -110 -3 -122 -3 -15 -27 -33 -72 -55 -62
-30 -76 -33 -158 -33 -78 0 -97 4 -140 27 -98 51 -145 129 -145 238 0 133 89
243 220 271 55 12 150 0 208 -26z m2316 -6 c25 -12 46 -28 46 -34 0 -12 -56
-95 -64 -95 -2 0 -24 9 -50 21 -62 27 -124 29 -142 4 -21 -29 -3 -41 108 -76
64 -19 110 -40 131 -59 30 -27 32 -32 32 -97 0 -52 -5 -74 -20 -95 -51 -68
-166 -94 -285 -64 -61 16 -140 57 -140 74 0 4 17 26 38 50 l37 44 50 -28 c78
-44 184 -39 185 8 0 15 -53 41 -112 55 -133 31 -182 79 -175 171 4 59 27 97
75 125 67 40 203 38 286 -4z m-1703 -224 c59 -137 108 -256 108 -262 1 -9 -20
-13 -73 -13 l-74 0 -18 50 -18 50 -104 0 -104 0 -21 -50 -21 -50 -74 0 c-65 0
-73 2 -68 17 4 9 55 128 114 265 l107 249 69 -3 69 -3 108 -250z m331 238 c8
-10 36 -53 62 -96 27 -42 52 -79 56 -82 5 -3 33 34 64 82 30 49 60 94 66 101
7 7 37 12 80 12 49 0 70 -4 71 -12 0 -12 0 -492 -1 -510 0 -5 -31 -8 -70 -8
l-70 0 0 153 0 152 -65 -99 c-36 -55 -67 -102 -70 -104 -2 -3 -32 39 -66 92
-34 53 -65 96 -68 96 -3 0 -6 -64 -6 -142 l0 -143 -72 -3 -73 -3 0 259 c0 142
3 262 7 265 3 4 36 7 73 7 51 0 70 -4 82 -17z m931 -48 l-1 -60 -128 -2 c-71
-1 -135 -2 -142 -2 -9 -1 -12 -13 -10 -38 l3 -38 125 -5 125 -5 3 -52 3 -53
-130 0 -131 0 0 -45 0 -45 145 0 145 0 0 -60 0 -60 -215 0 -215 0 0 258 c0
142 3 262 7 266 4 3 99 5 211 4 l205 -3 0 -60z m-143 -1112 c0 -5 -160 -67
-355 -140 l-355 -131 -168 62 c-92 35 -251 94 -354 132 -103 38 -188 72 -188
77 0 4 320 7 710 7 391 0 710 -3 710 -7z"/>
<path d="M3320 4810 l0 -330 68 0 c110 0 106 -10 110 304 2 173 0 274 -8 299
-13 45 -38 57 -116 57 l-54 0 0 -330z"/>
<path d="M3065 2876 c-36 -81 -34 -86 23 -86 27 0 51 2 54 5 5 5 -38 123 -48
134 -2 2 -15 -21 -29 -53z"/>
</g>
</svg>
