<?xml version="1.0" standalone="no"?>
<!DOCTYPE svg PUBLIC "-//W3C//DTD SVG 20010904//EN"
 "http://www.w3.org/TR/2001/REC-SVG-20010904/DTD/svg10.dtd">
<svg version="1.0" xmlns="http://www.w3.org/2000/svg"
 width="1024.000000pt" height="1024.000000pt" viewBox="0 0 1024.000000 1024.000000"
 preserveAspectRatio="xMidYMid meet">

<g transform="translate(0.000000,1024.000000) scale(0.100000,-0.100000)"
fill="#000000" stroke="none">
<path d="M2745 8186 c-165 -40 -248 -139 -274 -330 -15 -103 -15 -4402 -1
-4531 13 -119 46 -184 120 -242 45 -35 260 -128 1200 -523 630 -265 1169 -490
1197 -501 71 -26 195 -26 266 0 28 11 567 236 1197 501 940 395 1155 488 1200
523 74 58 107 123 120 242 14 129 14 4428 -1 4531 -27 194 -115 297 -287 333
-79 17 -4668 14 -4737 -3z m3999 -806 c59 -18 80 -32 131 -83 51 -51 66 -75
86 -132 23 -68 24 -79 24 -375 l0 -305 -175 0 -175 0 -5 265 c-3 146 -9 273
-14 283 -17 35 -66 51 -154 51 -67 0 -87 -4 -110 -21 -53 -39 -53 -32 -50
-882 3 -740 4 -788 21 -813 24 -36 65 -48 156 -48 95 0 135 20 150 77 7 22 11
152 11 316 l0 277 181 0 181 0 -5 -332 c-5 -349 -9 -383 -55 -473 -30 -59
-109 -128 -178 -156 -56 -23 -70 -24 -289 -24 -251 0 -276 4 -365 57 -64 39
-109 95 -142 175 l-23 58 -3 870 c-3 902 -2 937 38 1031 43 100 155 181 281
203 30 6 135 8 234 7 153 -3 190 -7 249 -26z m-2696 -157 l-3 -168 -217 -3
-218 -2 0 -330 0 -330 210 0 210 0 0 -165 0 -165 -210 0 -210 0 0 -355 0 -355
223 -2 222 -3 3 -162 2 -163 -410 0 -410 0 0 1178 c0 648 3 1182 7 1185 3 4
186 7 405 7 l398 0 -2 -167z m852 156 c175 -28 283 -129 319 -297 14 -67 15
-817 1 -892 -26 -135 -105 -237 -218 -281 -50 -20 -80 -23 -234 -27 l-178 -4
0 -429 0 -429 -185 0 -185 0 0 1178 c0 648 3 1182 7 1185 11 11 603 8 673 -4z
m850 -1174 l0 -1185 -180 0 -180 0 0 1185 0 1185 180 0 180 0 0 -1185z m-2016
-1760 c59 -15 135 -54 156 -80 9 -11 1 -27 -41 -79 -29 -36 -54 -66 -56 -66
-2 0 -27 14 -56 30 -104 59 -220 34 -274 -57 -56 -95 -31 -216 56 -278 37 -26
51 -30 109 -30 91 1 112 14 112 70 l0 45 -70 0 -71 0 3 73 3 72 160 0 160 0 3
-163 2 -162 -47 -30 c-179 -114 -408 -101 -542 30 -24 24 -57 73 -74 109 -27
58 -31 76 -31 151 0 64 6 99 23 142 26 66 95 148 155 183 89 52 213 68 320 40z
m3069 0 c69 -14 166 -60 174 -82 3 -6 -16 -41 -42 -78 l-47 -65 -26 18 c-99
68 -242 70 -242 3 0 -28 17 -37 135 -72 131 -37 174 -58 208 -99 82 -97 44
-260 -74 -320 -121 -62 -336 -38 -457 51 l-42 31 26 31 c15 18 39 47 55 64
l28 33 67 -37 c54 -29 80 -37 138 -41 78 -5 106 8 106 48 0 28 -36 48 -139 75
-111 30 -183 65 -210 103 -56 79 -42 213 31 278 71 66 182 87 311 59z m-2200
-276 c65 -154 134 -316 152 -360 l34 -79 -103 0 -104 0 -25 63 -25 62 -140 3
-140 3 -25 -63 -25 -63 -102 -3 c-80 -2 -101 0 -97 10 3 7 68 162 144 343 77
182 142 338 146 348 5 14 20 17 100 17 l93 0 117 -281z m549 140 l87 -141 34
53 c18 30 58 93 88 142 l54 87 100 -2 100 -3 3 -357 2 -358 -100 0 -100 0 0
203 c-1 161 -3 199 -13 185 -7 -9 -47 -72 -91 -139 l-78 -122 -94 144 -94 144
0 -207 0 -208 -95 0 -95 0 0 353 c0 195 3 357 7 360 3 4 49 7 102 7 l96 0 87
-141z m1176 54 l3 -83 -191 0 -190 0 0 -55 0 -55 168 -2 167 -3 3 -77 3 -78
-171 0 -170 0 0 -60 0 -60 190 0 190 0 0 -80 0 -80 -285 0 -285 0 0 360 0 360
283 -2 282 -3 3 -82z m-698 -1658 l-525 -175 -505 175 -505 174 1030 0 1030 1
-525 -175z"/>
<path d="M4590 6630 l0 -430 98 0 c117 0 155 17 171 77 14 50 14 655 1 705
-18 65 -47 78 -166 78 l-104 0 0 -430z"/>
<path d="M4382 4190 c-5 -14 -22 -56 -37 -93 -15 -37 -25 -70 -22 -73 2 -3 36
-4 74 -2 l70 3 -38 95 c-34 87 -38 93 -47 70z"/>
</g>
</svg>
