<svg version="1.1" id="Layer_1" xmlns="http://www.w3.org/2000/svg" xmlns:xlink="http://www.w3.org/1999/xlink" x="0px" y="0px"
	 width="100%" viewBox="0 0 792 792" enable-background="new 0 0 792 792" xml:space="preserve">
<path fill="#FFFFFF" opacity="1.000000" stroke="none" 
	d="
M510.000000,793.000000 
	C340.000000,793.000000 170.500000,793.000000 1.000000,793.000000 
	C1.000000,529.000000 1.000000,265.000000 1.000000,1.000000 
	C265.000000,1.000000 529.000000,1.000000 793.000000,1.000000 
	C793.000000,265.000000 793.000000,529.000000 793.000000,793.000000 
	C698.833313,793.000000 604.666687,793.000000 510.000000,793.000000 
M637.768616,465.990784 
	C637.810730,465.598816 637.852783,465.206879 638.065979,464.149933 
	C640.138306,460.965942 642.501099,457.931915 644.235168,454.573242 
	C654.319397,435.040466 664.208557,415.407074 674.255493,395.854858 
	C684.670654,375.585999 693.437988,354.372803 707.472229,336.147247 
	C714.146179,327.480194 721.357727,319.227142 728.486572,310.591797 
	C727.779114,310.167572 727.006897,309.610504 726.160522,309.210541 
	C693.312744,293.690247 658.613342,287.604736 622.486084,289.187988 
	C615.179077,289.508179 607.830872,290.301514 600.645630,291.646088 
	C590.355896,293.571594 580.198547,296.204865 569.837952,297.729797 
	C556.618713,246.732040 533.640015,200.586929 501.132721,159.136398 
	C493.629883,149.569427 484.221069,144.703568 471.915405,144.718201 
	C382.439758,144.824509 292.963928,144.776016 203.488174,144.765289 
	C200.280441,144.764893 196.920410,144.427872 195.716263,148.465775 
	C194.587845,152.249771 197.579849,153.664200 199.869446,155.563187 
	C223.566727,175.217773 248.109116,193.958496 270.727295,214.787643 
	C321.334015,261.391510 364.628082,314.284393 401.024048,372.713654 
	C408.757996,385.129547 415.744812,398.010834 422.585480,411.204254 
	C398.227325,434.038086 371.294128,453.300354 341.255676,469.182129 
	C340.173340,468.768005 339.056030,468.427094 338.013672,467.929260 
	C268.921021,434.931610 205.874664,392.860687 149.266510,341.309784 
	C133.654266,327.092285 118.990723,311.832458 103.908760,297.033661 
	C99.409256,292.618652 96.664818,292.874542 93.919807,298.958130 
	C93.926941,385.457886 93.933586,471.957642 93.948463,558.457397 
	C93.948608,559.287048 94.058189,560.116638 93.979492,561.762878 
	C95.101463,573.316772 100.677971,582.041016 110.412666,588.346252 
	C189.911423,639.837524 276.822723,659.629700 370.287048,645.529480 
	C480.475006,628.906128 566.403625,572.638000 628.883423,480.476196 
	C631.564819,476.520996 633.715088,472.205719 636.078613,468.035583 
	C636.078613,468.035583 636.050354,468.063171 636.668884,467.893372 
	C636.861023,467.304047 637.053162,466.714691 637.144836,466.101532 
	C637.144836,466.101532 637.178955,466.198975 637.768616,465.990784 
z"/>
<path fill="#4C6FFB" opacity="1.000000" stroke="none" 
	d="
M636.112793,468.058197 
	C633.715088,472.205719 631.564819,476.520996 628.883423,480.476196 
	C566.403625,572.638000 480.475006,628.906128 370.287048,645.529480 
	C276.822723,659.629700 189.911423,639.837524 110.412666,588.346252 
	C100.677971,582.041016 95.101463,573.316772 94.325127,561.051025 
	C94.781334,559.023499 94.988503,557.707825 94.988693,556.392212 
	C95.001305,471.848450 95.001999,387.304718 94.956757,302.760986 
	C94.955917,301.187042 94.391716,299.613464 94.090363,298.039703 
	C96.664818,292.874542 99.409256,292.618652 103.908760,297.033661 
	C118.990723,311.832458 133.654266,327.092285 149.266510,341.309784 
	C205.874664,392.860687 268.921021,434.931610 338.013672,467.929260 
	C339.056030,468.427094 340.173340,468.768005 341.877197,469.465759 
	C384.314484,489.700134 427.652893,505.529175 472.241058,518.067810 
	C493.767212,524.121155 515.541626,526.862549 537.765747,523.886047 
	C575.273743,518.862732 606.515503,502.192047 630.823547,472.925354 
	C632.340759,471.098724 634.338562,469.671326 636.112793,468.058197 
z"/>
<path fill="#78D5B9" opacity="1.000000" stroke="none" 
	d="
M423.075867,410.677734 
	C415.744812,398.010834 408.757996,385.129547 401.024048,372.713654 
	C364.628082,314.284393 321.334015,261.391510 270.727295,214.787643 
	C248.109116,193.958496 223.566727,175.217773 199.869446,155.563187 
	C197.579849,153.664200 194.587845,152.249771 195.716263,148.465775 
	C196.920410,144.427872 200.280441,144.764893 203.488174,144.765289 
	C292.963928,144.776016 382.439758,144.824509 471.915405,144.718201 
	C484.221069,144.703568 493.629883,149.569427 501.132721,159.136398 
	C533.640015,200.586929 556.618713,246.732040 569.629150,298.312439 
	C533.666138,310.514313 503.289673,330.491913 477.096375,357.345367 
	C459.431030,375.455902 441.105896,392.922882 423.075867,410.677734 
z"/>
<path fill="#293E96" opacity="1.000000" stroke="none" 
	d="
M422.830688,410.940979 
	C441.105896,392.922882 459.431030,375.455902 477.096375,357.345367 
	C503.289673,330.491913 533.666138,310.514313 569.702515,298.715515 
	C580.198547,296.204865 590.355896,293.571594 600.645630,291.646088 
	C607.830872,290.301514 615.179077,289.508179 622.486084,289.187988 
	C658.613342,287.604736 693.312744,293.690247 726.160522,309.210541 
	C727.006897,309.610504 727.779114,310.167572 728.486572,310.591797 
	C721.357727,319.227142 714.146179,327.480194 707.472229,336.147247 
	C693.437988,354.372803 684.670654,375.585999 674.255493,395.854858 
	C664.208557,415.407074 654.319397,435.040466 644.235168,454.573242 
	C642.501099,457.931915 640.138306,460.965942 637.753174,464.651062 
	C637.353271,465.501129 637.266113,465.850037 637.178955,466.198975 
	C637.178955,466.198975 637.144836,466.101532 636.873535,466.197357 
	C636.418274,466.883179 636.234314,467.473175 636.050354,468.063171 
	C636.050354,468.063171 636.078613,468.035583 636.095703,468.046875 
	C634.338562,469.671326 632.340759,471.098724 630.823547,472.925354 
	C606.515503,502.192047 575.273743,518.862732 537.765747,523.886047 
	C515.541626,526.862549 493.767212,524.121155 472.241058,518.067810 
	C427.652893,505.529175 384.314484,489.700134 342.253418,469.524292 
	C371.294128,453.300354 398.227325,434.038086 422.830688,410.940979 
z"/>
<path fill="#2A5FFB" opacity="1.000000" stroke="none" 
	d="
M94.005081,298.498901 
	C94.391716,299.613464 94.955917,301.187042 94.956757,302.760986 
	C95.001999,387.304718 95.001305,471.848450 94.988693,556.392212 
	C94.988503,557.707825 94.781334,559.023499 94.393723,560.642700 
	C94.058189,560.116638 93.948608,559.287048 93.948463,558.457397 
	C93.933586,471.957642 93.926941,385.457886 94.005081,298.498901 
z"/>
<path fill="#4C6FFB" opacity="1.000000" stroke="none" 
	d="
M636.359619,467.978271 
	C636.234314,467.473175 636.418274,466.883179 636.923767,466.209259 
	C637.053162,466.714691 636.861023,467.304047 636.359619,467.978271 
z"/>
<path fill="#4C6FFB" opacity="1.000000" stroke="none" 
	d="
M637.473755,466.094879 
	C637.266113,465.850037 637.353271,465.501129 637.667603,464.983551 
	C637.852783,465.206879 637.810730,465.598816 637.473755,466.094879 
z"/>
</svg>