<?xml version="1.0" encoding="UTF-8"?>
<svg width="400px" height="400px" viewBox="0 0 400 400" version="1.1" xmlns="http://www.w3.org/2000/svg" xmlns:xlink="http://www.w3.org/1999/xlink">
    <title>Group 2</title>
    <defs>
        <path d="M151.500652,-1.13129991e-14 C151.218849,-0.0141431646 150.671346,0.074405344 150.671346,0.074405344 C-5.13742979,11.6823098 -2.96754812,159.968862 1.2232623,220.294546 C1.56142568,225.156664 24.5847156,399.919221 41.4002921,400 C64.6087667,400.108393 53.0065423,368.609273 53.0065423,368.609273 C53.0065423,368.609273 88.8357572,378.953349 150.671346,379.355842 L150.671346,379.371942 L151.500652,379.363892 L152.333983,379.371942 L152.333983,379.355842 C214.16152,378.953349 249.994761,368.609273 249.994761,368.609273 C249.994761,368.609273 238.392536,400.108393 261.601011,400 C278.412562,399.919221 301.435852,225.156664 301.778041,220.294546 C305.964825,159.968862 308.138733,11.6823098 152.333983,0.074405344 C152.333983,0.074405344 151.879072,-1.13129991e-14 151.585192,-1.13129991e-14 L151.500652,-1.13129991e-14" id="path-1"></path>
        <linearGradient x1="50%" y1="-2.782%" x2="50%" y2="99.64%" id="linearGradient-3">
            <stop stop-color="#5EB8E6" offset="0%"></stop>
            <stop stop-color="#26A8DF" offset="100%"></stop>
        </linearGradient>
        <path d="M151.500652,-1.13129991e-14 C151.218849,-0.0141431646 150.671346,0.074405344 150.671346,0.074405344 C-5.13742979,11.6823098 -2.96754812,159.968862 1.2232623,220.294546 C1.56142568,225.156664 24.5847156,399.919221 41.4002921,400 C64.6087667,400.108393 53.0065423,368.609273 53.0065423,368.609273 C53.0065423,368.609273 88.8357572,378.953349 150.671346,379.355842 L150.671346,379.371942 L151.500652,379.363892 L152.333983,379.371942 L152.333983,379.355842 C214.16152,378.953349 249.994761,368.609273 249.994761,368.609273 C249.994761,368.609273 238.392536,400.108393 261.601011,400 C278.412562,399.919221 301.435852,225.156664 301.778041,220.294546 C305.964825,159.968862 308.138733,11.6823098 152.333983,0.074405344 C152.333983,0.074405344 151.879072,-1.13129991e-14 151.585192,-1.13129991e-14 L151.500652,-1.13129991e-14" id="path-4"></path>
        <path d="M151.500652,-1.13129991e-14 C151.218849,-0.0141431646 150.671346,0.074405344 150.671346,0.074405344 C-5.13742979,11.6823098 -2.96754812,159.968862 1.2232623,220.294546 C1.56142568,225.156664 24.5847156,399.919221 41.4002921,400 C64.6087667,400.108393 53.0065423,368.609273 53.0065423,368.609273 C53.0065423,368.609273 88.8357572,378.953349 150.671346,379.355842 L150.671346,379.371942 L151.500652,379.363892 L152.333983,379.371942 L152.333983,379.355842 C214.16152,378.953349 249.994761,368.609273 249.994761,368.609273 C249.994761,368.609273 238.392536,400.108393 261.601011,400 C278.412562,399.919221 301.435852,225.156664 301.778041,220.294546 C305.964825,159.968862 308.138733,11.6823098 152.333983,0.074405344 C152.333983,0.074405344 151.879072,-1.13129991e-14 151.585192,-1.13129991e-14 L151.500652,-1.13129991e-14" id="path-6"></path>
        <path d="M151.500652,-1.13129991e-14 C151.218849,-0.0141431646 150.671346,0.074405344 150.671346,0.074405344 C-5.13742979,11.6823098 -2.96754812,159.968862 1.2232623,220.294546 C1.56142568,225.156664 24.5847156,399.919221 41.4002921,400 C64.6087667,400.108393 53.0065423,368.609273 53.0065423,368.609273 C53.0065423,368.609273 88.8357572,378.953349 150.671346,379.355842 L150.671346,379.371942 L151.500652,379.363892 L152.333983,379.371942 L152.333983,379.355842 C214.16152,378.953349 249.994761,368.609273 249.994761,368.609273 C249.994761,368.609273 238.392536,400.108393 261.601011,400 C278.412562,399.919221 301.435852,225.156664 301.778041,220.294546 C305.964825,159.968862 308.138733,11.6823098 152.333983,0.074405344 C152.333983,0.074405344 151.879072,-1.13129991e-14 151.585192,-1.13129991e-14 L151.500652,-1.13129991e-14" id="path-8"></path>
        <path d="M151.500652,-1.13129991e-14 C151.218849,-0.0141431646 150.671346,0.074405344 150.671346,0.074405344 C-5.13742979,11.6823098 -2.96754812,159.968862 1.2232623,220.294546 C1.56142568,225.156664 24.5847156,399.919221 41.4002921,400 C64.6087667,400.108393 53.0065423,368.609273 53.0065423,368.609273 C53.0065423,368.609273 88.8357572,378.953349 150.671346,379.355842 L150.671346,379.371942 L151.500652,379.363892 L152.333983,379.371942 L152.333983,379.355842 C214.16152,378.953349 249.994761,368.609273 249.994761,368.609273 C249.994761,368.609273 238.392536,400.108393 261.601011,400 C278.412562,399.919221 301.435852,225.156664 301.778041,220.294546 C305.964825,159.968862 308.138733,11.6823098 152.333983,0.074405344 C152.333983,0.074405344 151.879072,-1.13129991e-14 151.585192,-1.13129991e-14 L151.500652,-1.13129991e-14" id="path-10"></path>
        <path d="M151.500652,-1.13129991e-14 C151.218849,-0.0141431646 150.671346,0.074405344 150.671346,0.074405344 C-5.13742979,11.6823098 -2.96754812,159.968862 1.2232623,220.294546 C1.56142568,225.156664 24.5847156,399.919221 41.4002921,400 C64.6087667,400.108393 53.0065423,368.609273 53.0065423,368.609273 C53.0065423,368.609273 88.8357572,378.953349 150.671346,379.355842 L150.671346,379.371942 L151.500652,379.363892 L152.333983,379.371942 L152.333983,379.355842 C214.16152,378.953349 249.994761,368.609273 249.994761,368.609273 C249.994761,368.609273 238.392536,400.108393 261.601011,400 C278.412562,399.919221 301.435852,225.156664 301.778041,220.294546 C305.964825,159.968862 308.138733,11.6823098 152.333983,0.074405344 C152.333983,0.074405344 151.879072,-1.13129991e-14 151.585192,-1.13129991e-14 L151.500652,-1.13129991e-14" id="path-12"></path>
        <path d="M151.500652,-1.13129991e-14 C151.218849,-0.0141431646 150.671346,0.074405344 150.671346,0.074405344 C-5.13742979,11.6823098 -2.96754812,159.968862 1.2232623,220.294546 C1.56142568,225.156664 24.5847156,399.919221 41.4002921,400 C64.6087667,400.108393 53.0065423,368.609273 53.0065423,368.609273 C53.0065423,368.609273 88.8357572,378.953349 150.671346,379.355842 L150.671346,379.371942 L151.500652,379.363892 L152.333983,379.371942 L152.333983,379.355842 C214.16152,378.953349 249.994761,368.609273 249.994761,368.609273 C249.994761,368.609273 238.392536,400.108393 261.601011,400 C278.412562,399.919221 301.435852,225.156664 301.778041,220.294546 C305.964825,159.968862 308.138733,11.6823098 152.333983,0.074405344 C152.333983,0.074405344 151.879072,-1.13129991e-14 151.585192,-1.13129991e-14 L151.500652,-1.13129991e-14" id="path-14"></path>
        <path d="M151.500652,-1.13129991e-14 C151.218849,-0.0141431646 150.671346,0.074405344 150.671346,0.074405344 C-5.13742979,11.6823098 -2.96754812,159.968862 1.2232623,220.294546 C1.56142568,225.156664 24.5847156,399.919221 41.4002921,400 C64.6087667,400.108393 53.0065423,368.609273 53.0065423,368.609273 C53.0065423,368.609273 88.8357572,378.953349 150.671346,379.355842 L150.671346,379.371942 L151.500652,379.363892 L152.333983,379.371942 L152.333983,379.355842 C214.16152,378.953349 249.994761,368.609273 249.994761,368.609273 C249.994761,368.609273 238.392536,400.108393 261.601011,400 C278.412562,399.919221 301.435852,225.156664 301.778041,220.294546 C305.964825,159.968862 308.138733,11.6823098 152.333983,0.074405344 C152.333983,0.074405344 151.879072,-1.13129991e-14 151.585192,-1.13129991e-14 L151.500652,-1.13129991e-14" id="path-16"></path>
        <path d="M151.500652,-1.13129991e-14 C151.218849,-0.0141431646 150.671346,0.074405344 150.671346,0.074405344 C-5.13742979,11.6823098 -2.96754812,159.968862 1.2232623,220.294546 C1.56142568,225.156664 24.5847156,399.919221 41.4002921,400 C64.6087667,400.108393 53.0065423,368.609273 53.0065423,368.609273 C53.0065423,368.609273 88.8357572,378.953349 150.671346,379.355842 L150.671346,379.371942 L151.500652,379.363892 L152.333983,379.371942 L152.333983,379.355842 C214.16152,378.953349 249.994761,368.609273 249.994761,368.609273 C249.994761,368.609273 238.392536,400.108393 261.601011,400 C278.412562,399.919221 301.435852,225.156664 301.778041,220.294546 C305.964825,159.968862 308.138733,11.6823098 152.333983,0.074405344 C152.333983,0.074405344 151.879072,-1.13129991e-14 151.585192,-1.13129991e-14 L151.500652,-1.13129991e-14" id="path-18"></path>
        <path d="M151.500652,-1.13129991e-14 C151.218849,-0.0141431646 150.671346,0.074405344 150.671346,0.074405344 C-5.13742979,11.6823098 -2.96754812,159.968862 1.2232623,220.294546 C1.56142568,225.156664 24.5847156,399.919221 41.4002921,400 C64.6087667,400.108393 53.0065423,368.609273 53.0065423,368.609273 C53.0065423,368.609273 88.8357572,378.953349 150.671346,379.355842 L150.671346,379.371942 L151.500652,379.363892 L152.333983,379.371942 L152.333983,379.355842 C214.16152,378.953349 249.994761,368.609273 249.994761,368.609273 C249.994761,368.609273 238.392536,400.108393 261.601011,400 C278.412562,399.919221 301.435852,225.156664 301.778041,220.294546 C305.964825,159.968862 308.138733,11.6823098 152.333983,0.074405344 C152.333983,0.074405344 151.879072,-1.13129991e-14 151.585192,-1.13129991e-14 L151.500652,-1.13129991e-14" id="path-20"></path>
        <path d="M151.500652,-1.13129991e-14 C151.218849,-0.0141431646 150.671346,0.074405344 150.671346,0.074405344 C-5.13742979,11.6823098 -2.96754812,159.968862 1.2232623,220.294546 C1.56142568,225.156664 24.5847156,399.919221 41.4002921,400 C64.6087667,400.108393 53.0065423,368.609273 53.0065423,368.609273 C53.0065423,368.609273 88.8357572,378.953349 150.671346,379.355842 L150.671346,379.371942 L151.500652,379.363892 L152.333983,379.371942 L152.333983,379.355842 C214.16152,378.953349 249.994761,368.609273 249.994761,368.609273 C249.994761,368.609273 238.392536,400.108393 261.601011,400 C278.412562,399.919221 301.435852,225.156664 301.778041,220.294546 C305.964825,159.968862 308.138733,11.6823098 152.333983,0.074405344 C152.333983,0.074405344 151.879072,-1.13129991e-14 151.585192,-1.13129991e-14 L151.500652,-1.13129991e-14" id="path-22"></path>
        <path d="M151.500652,-1.13129991e-14 C151.218849,-0.0141431646 150.671346,0.074405344 150.671346,0.074405344 C-5.13742979,11.6823098 -2.96754812,159.968862 1.2232623,220.294546 C1.56142568,225.156664 24.5847156,399.919221 41.4002921,400 C64.6087667,400.108393 53.0065423,368.609273 53.0065423,368.609273 C53.0065423,368.609273 88.8357572,378.953349 150.671346,379.355842 L150.671346,379.371942 L151.500652,379.363892 L152.333983,379.371942 L152.333983,379.355842 C214.16152,378.953349 249.994761,368.609273 249.994761,368.609273 C249.994761,368.609273 238.392536,400.108393 261.601011,400 C278.412562,399.919221 301.435852,225.156664 301.778041,220.294546 C305.964825,159.968862 308.138733,11.6823098 152.333983,0.074405344 C152.333983,0.074405344 151.879072,-1.13129991e-14 151.585192,-1.13129991e-14 L151.500652,-1.13129991e-14" id="path-24"></path>
        <polygon id="path-26" points="5.86552429 6.9108086 2.40337543 4.39120104 0 6.50429045 5.75682892 12.9240573 5.76890618 12.9160075 5.77695769 12.9240573 16.0989922 2.42300919 14.2592224 0"></polygon>
        <linearGradient x1="0.001%" y1="49.999%" x2="100.006%" y2="49.999%" id="linearGradient-28">
            <stop stop-color="#8CC63F" offset="0%"></stop>
            <stop stop-color="#38B549" offset="100%"></stop>
        </linearGradient>
        <path d="M4.90841846e-06,26.4116052 C-0.00319399401,33.4121287 2.77524906,40.1272013 7.72411308,45.0795835 C12.6729771,50.0319656 19.3868768,52.8159837 26.3888305,52.8191854 C40.9687226,52.8102963 52.7820996,40.9885213 52.777654,26.4116052 C52.7843232,11.8331175 40.9702953,0.0088891518 26.3888305,-2.84217094e-14 C19.3861789,0.00320145202 12.6716688,2.7877721 7.72268907,7.74102488 C2.77370932,12.6942777 -0.00426211611,19.4103845 4.90841846e-06,26.4116052 M11.8397538,18.0115716 L26.3888305,11.813176 L40.9338815,18.0115716 C40.9338815,18.0115716 39.9677004,41.0019844 26.3888305,41.0019844 C12.8099606,41.0019844 11.8397538,18.0115716 11.8397538,18.0115716" id="path-29"></path>
        <linearGradient x1="-0.001%" y1="49.999%" x2="100.001%" y2="49.999%" id="linearGradient-31">
            <stop stop-color="#8CC63F" offset="0%"></stop>
            <stop stop-color="#38B549" offset="100%"></stop>
        </linearGradient>
    </defs>
    <g id="Page-1" stroke="none" stroke-width="1" fill="none" fill-rule="evenodd">
        <g id="logo-square" transform="translate(48.000000, 0.000000)">
            <g id="Clipped">
                <mask id="mask-2" fill="white">
                    <use xlink:href="#path-1"></use>
                </mask>
                <g id="a"></g>
                <path d="M151.500652,-1.13129991e-14 C151.218849,-0.0141431646 150.671346,0.074405344 150.671346,0.074405344 C-5.13742979,11.6823098 -2.96754812,159.968862 1.2232623,220.294546 C1.56142568,225.156664 24.5847156,399.919221 41.4002921,400 C64.6087667,400.108393 53.0065423,368.609273 53.0065423,368.609273 C53.0065423,368.609273 88.8357572,378.953349 150.671346,379.355842 L150.671346,379.371942 L151.500652,379.363892 L152.333983,379.371942 L152.333983,379.355842 C214.16152,378.953349 249.994761,368.609273 249.994761,368.609273 C249.994761,368.609273 238.392536,400.108393 261.601011,400 C278.412562,399.919221 301.435852,225.156664 301.778041,220.294546 C305.964825,159.968862 308.138733,11.6823098 152.333983,0.074405344 C152.333983,0.074405344 151.879072,-1.13129991e-14 151.585192,-1.13129991e-14 L151.500652,-1.13129991e-14" id="Path" fill="url(#linearGradient-3)" fill-rule="nonzero" mask="url(#mask-2)"></path>
            </g>
            <g id="Clipped">
                <mask id="mask-5" fill="white">
                    <use xlink:href="#path-4"></use>
                </mask>
                <g id="a"></g>
                <path d="M216.766183,154.941722 C224.421452,154.921781 230.619823,148.717479 230.630882,141.063756 C230.619815,133.410689 224.420801,127.207542 216.766183,127.189814 C209.11091,127.207535 202.910741,133.410037 202.897459,141.063756 C202.908526,148.719046 209.109342,154.923994 216.766183,154.941722" id="Path" fill="#1A1A1A" fill-rule="nonzero" mask="url(#mask-5)"></path>
            </g>
            <g id="Clipped">
                <mask id="mask-7" fill="white">
                    <use xlink:href="#path-6"></use>
                </mask>
                <g id="a"></g>
                <path d="M222.261338,139.357184 C224.503683,139.357184 226.331376,137.529865 226.331376,135.283953 C226.331376,133.046091 224.503683,131.214747 222.265364,131.214747 C220.102442,131.331482 218.40817,133.118431 218.407099,135.28406 C218.406028,137.449688 220.098532,139.238311 222.261338,139.357184" id="Path" fill="#FFFFFF" fill-rule="nonzero" mask="url(#mask-7)"></path>
            </g>
            <g id="Clipped">
                <mask id="mask-9" fill="white">
                    <use xlink:href="#path-8"></use>
                </mask>
                <g id="a"></g>
                <path d="M85.5225613,154.941722 C93.1778302,154.921781 99.3762007,148.717479 99.3872597,141.063756 C99.376193,133.410689 93.1771793,127.207542 85.5225613,127.189814 C77.8679432,127.207542 71.6689295,133.410689 71.6578628,141.063756 C71.6689218,148.717479 77.8672923,154.921781 85.5225613,154.941722" id="Path" fill="#1A1A1A" fill-rule="nonzero" mask="url(#mask-9)"></path>
            </g>
            <g id="Clipped">
                <mask id="mask-11" fill="white">
                    <use xlink:href="#path-10"></use>
                </mask>
                <g id="a"></g>
                <path d="M91.8268928,139.357184 C93.9897533,139.239375 95.683136,137.451591 95.683136,135.285965 C95.683136,133.12034 93.9897533,131.332556 91.8268928,131.214747 C89.6277908,131.283886 87.8808805,133.086226 87.8808805,135.285965 C87.8808805,137.485705 89.6277908,139.288045 91.8268928,139.357184" id="Path" fill="#FFFFFF" fill-rule="nonzero" mask="url(#mask-11)"></path>
            </g>
            <g id="Clipped">
                <mask id="mask-13" fill="white">
                    <use xlink:href="#path-12"></use>
                </mask>
                <g id="a"></g>
                <path d="M174.918465,181.17623 C173.392443,179.891904 171.11633,180.076902 169.817834,181.590798 C169.753422,181.663247 163.207546,189.008748 151.30339,189.008748 C138.598108,189.008748 133.529684,182.576906 133.026464,181.892668 C132.29295,180.823537 131.044664,180.226865 129.751823,180.327413 C128.458983,180.42796 127.318001,181.21045 126.758675,182.380128 C126.199348,183.549806 126.306653,184.928968 127.040167,185.998099 C127.325996,186.416692 134.161727,196.273751 151.30339,196.273751 C166.669694,196.273751 174.986903,186.714537 175.329092,186.316068 C176.630418,184.781791 176.446888,182.484529 174.918465,181.17623" id="Path" fill="#1A1A1A" fill-rule="nonzero" mask="url(#mask-13)"></path>
            </g>
            <g id="Clipped">
                <mask id="mask-15" fill="white">
                    <use xlink:href="#path-14"></use>
                </mask>
                <g id="a"></g>
                <path d="M224.531864,273.282779 L152.124643,316.019509 L79.7093718,273.282779 C79.7093718,273.242529 79.7093718,273.198255 79.721449,273.162031 C79.7778096,272.89236 83.7753838,269.551667 89.8744019,264.596975 L90.035432,264.456102 C110.031355,248.207451 152.124643,214.933337 152.124643,214.933337 C152.124643,214.933337 194.209881,248.207451 214.201778,264.456102 C220.397414,269.483243 224.467452,272.880286 224.523812,273.166056 C224.531864,273.198255 224.531864,273.246554 224.531864,273.282779" id="Path" fill="#A7A9AC" fill-rule="nonzero" mask="url(#mask-15)"></path>
            </g>
            <g id="Clipped">
                <mask id="mask-17" fill="white">
                    <use xlink:href="#path-16"></use>
                </mask>
                <g id="a"></g>
                <path d="M122.881563,322.262179 L201.013406,322.262179 C204.233209,322.262179 207.320654,320.981012 209.596266,318.703601 C211.871877,316.426189 213.149166,313.338103 213.147033,310.118958 L213.147033,223.856611 C213.149254,217.153889 207.717496,211.717835 201.013406,211.713391 L103.115108,211.713391 C99.8953056,211.713391 96.8078605,212.994557 94.5322488,215.271969 C92.2566371,217.54938 90.9793483,220.637467 90.9814817,223.856611 L90.9814817,290.336416 L122.881563,322.262179 Z" id="Path" fill="#FFFFFF" fill-rule="nonzero" mask="url(#mask-17)"></path>
            </g>
            <g id="Clipped">
                <mask id="mask-19" fill="white">
                    <use xlink:href="#path-18"></use>
                </mask>
                <g id="a"></g>
                <path d="M224.535889,273.697347 L224.535889,343.224026 C224.52484,348.093364 220.581757,352.039239 215.711436,352.054727 L88.5096711,352.054727 C83.6432736,352.039197 79.7071279,348.089453 79.7093708,343.224026 L79.7093708,273.697347 L152.120618,316.430052 L224.535889,273.697347 Z" id="Path" fill="#D1D3D4" fill-rule="nonzero" mask="url(#mask-19)"></path>
            </g>
            <g id="Clipped">
                <mask id="mask-21" fill="white">
                    <use xlink:href="#path-20"></use>
                </mask>
                <g id="a"></g>
                <path d="M222.072128,349.325823 L175.461942,302.680884 L152.104515,316.466276 L128.73501,302.676859 L82.1248245,349.325823 C83.7737698,351.089139 86.0791193,352.091514 88.4935681,352.094976 L215.691307,352.094976 C218.107554,352.088935 220.414416,351.087169 222.068102,349.325823" id="Path" fill="#F4F4F4" fill-rule="nonzero" mask="url(#mask-21)"></path>
            </g>
            <g id="Clipped">
                <mask id="mask-23" fill="white">
                    <use xlink:href="#path-22"></use>
                </mask>
                <g id="a"></g>
                <path d="M3.26431982,236.756519 C4.88267313,274.731754 18.8520412,318.857086 50.0234582,333.809709 C80.5346514,348.444363 129.825989,343.413198 130.160127,333.407216 C130.341286,327.985632 125.135985,329.531206 125.462072,325.011207 C125.904905,318.90136 136.013574,322.052882 135.313093,314.908628 C134.733384,309.1248 124.805874,312.775414 124.419401,307.047935 C123.924233,299.754758 133.541761,301.030661 128.887989,294.027279 C124.238242,287.023897 112.362266,305.965228 77.704546,296.220867 C46.4646912,287.44249 35.8648797,264.802247 31.3681119,231.282611 C26.8713441,197.758951 2.01633593,207.398663 3.26834558,236.756519 M300.356949,236.756519 C298.742622,274.731754 284.773254,318.857086 253.601837,333.809709 C223.086618,348.444363 173.79528,343.413198 173.465168,333.407216 C173.284009,327.985632 178.48931,329.531206 178.159198,325.011207 C177.716365,318.90136 167.607695,322.052882 168.312202,314.908628 C168.887885,309.1248 178.819421,312.775414 179.205894,307.047935 C179.697036,299.754758 170.083534,301.030661 174.733281,294.027279 C179.387053,287.023897 191.259003,305.965228 225.916723,296.220867 C257.156578,287.44249 267.75639,264.802247 272.253157,231.282611 C276.749925,197.758951 301.604933,207.398663 300.356949,236.756519" id="Shape" fill="#179BC9" fill-rule="nonzero" mask="url(#mask-23)"></path>
            </g>
            <g id="Clipped">
                <mask id="mask-25" fill="white">
                    <use xlink:href="#path-24"></use>
                </mask>
                <g id="a"></g>
                <path d="M3.26431982,233.536573 C4.88267313,271.511809 18.8520412,315.63714 50.0234582,330.589764 C80.5346514,345.224417 129.825989,340.193252 130.160127,330.18727 C130.341286,324.765687 125.135985,326.311261 125.462072,321.791262 C125.904905,315.681415 136.013574,318.832937 135.313093,311.688682 C134.733384,305.904854 124.805874,309.555468 124.419401,303.832014 C123.924233,296.534812 133.541761,297.810716 128.887989,290.807334 C124.238242,283.803952 112.362266,302.745282 77.704546,293.000922 C46.4646912,284.21852 35.8648797,261.582301 31.3681119,228.062665 C26.8713441,194.539005 2.01633593,204.178718 3.26834558,233.536573 M300.356949,233.536573 C298.742622,271.511809 284.773254,315.63714 253.601837,330.589764 C223.086618,345.224417 173.79528,340.193252 173.465168,330.18727 C173.284009,324.765687 178.48931,326.311261 178.159198,321.791262 C177.716365,315.681415 167.607695,318.832937 168.312202,311.688682 C168.887885,305.904854 178.819421,309.555468 179.205894,303.827989 C179.697036,296.534812 170.083534,297.810716 174.733281,290.807334 C179.387053,283.803952 191.259003,302.745282 225.916723,293.000922 C257.156578,284.21852 267.75639,261.582301 272.253157,228.062665 C276.749925,194.539005 301.604933,204.178718 300.356949,233.536573" id="Shape" fill="#27AAE1" fill-rule="nonzero" mask="url(#mask-25)"></path>
            </g>
            <g id="Clipped" transform="translate(144.926594, 255.182659)">
                <mask id="mask-27" fill="white">
                    <use xlink:href="#path-26"></use>
                </mask>
                <g id="d"></g>
                <polygon id="Path" fill="url(#linearGradient-28)" fill-rule="nonzero" mask="url(#mask-27)" points="5.86552429 6.9108086 2.40337543 4.39120104 0 6.50429045 5.75682892 12.9240573 5.76890618 12.9160075 5.77695769 12.9240573 16.0989922 2.42300919 14.2592224 0"></polygon>
            </g>
            <g id="Clipped" transform="translate(125.602963, 234.253011)">
                <mask id="mask-30" fill="white">
                    <use xlink:href="#path-29"></use>
                </mask>
                <g id="g"></g>
                <path d="M4.90841846e-06,26.4116052 C-0.00319399401,33.4121287 2.77524906,40.1272013 7.72411308,45.0795835 C12.6729771,50.0319656 19.3868768,52.8159837 26.3888305,52.8191854 C40.9687226,52.8102963 52.7820996,40.9885213 52.777654,26.4116052 C52.7843232,11.8331175 40.9702953,0.0088891518 26.3888305,-2.84217094e-14 C19.3861789,0.00320145202 12.6716688,2.7877721 7.72268907,7.74102488 C2.77370932,12.6942777 -0.00426211611,19.4103845 4.90841846e-06,26.4116052 M11.8397538,18.0115716 L26.3888305,11.813176 L40.9338815,18.0115716 C40.9338815,18.0115716 39.9677004,41.0019844 26.3888305,41.0019844 C12.8099606,41.0019844 11.8397538,18.0115716 11.8397538,18.0115716" id="Shape" fill="url(#linearGradient-31)" fill-rule="nonzero" mask="url(#mask-30)"></path>
            </g>
            <g id="Group" transform="translate(288.368253, 344.536154)" fill="#43B0E3" fill-rule="nonzero" font-family="Helvetica" font-size="8.04986442" font-weight="normal">
                <text id="TM">
                    <tspan x="0.00122577749" y="8">TM</tspan>
                </text>
            </g>
        </g>
    </g>
</svg>