<svg width="152" height="28" viewBox="0 0 152 28" fill="none" xmlns="http://www.w3.org/2000/svg">
    <path
            d="M33.6654 22.4625V13.5209H31.9707V10.9629H33.6654V9.34829C33.5885 7.96549 34.0082 6.6006 34.8493 5.49834C35.6287 4.55857 36.8035 4.03535 38.0258 4.08364C39.1413 4.0962 40.2397 4.35915 41.2393 4.85296L40.5672 7.3619C40.2858 7.21743 39.989 7.10506 39.6824 7.02693C39.3782 6.94147 39.0642 6.89568 38.7482 6.89071C37.5856 6.89071 37.0043 7.66896 37.0043 9.22547V10.964H40.1875V13.522H37.0043V22.4636L33.6654 22.4625Z"
            fill="#202020"
    />
    <path
            d="M52.5741 12.3285C51.6373 12.3283 50.7113 12.5274 49.8579 12.9125C49.1008 13.2453 48.4904 13.8403 48.1397 14.5874V22.4615H44.8008V9.44777H47.8653V12.2292C48.2744 11.3827 48.8757 10.643 49.6216 10.0686C50.268 9.54892 51.0705 9.26035 51.9009 9.24902C52.0846 9.24902 52.2212 9.24902 52.312 9.26131C52.3999 9.26921 52.4874 9.28151 52.5741 9.29815V12.3285Z"
            fill="#202020"
    />
    <path
            fill-rule="evenodd"
            clip-rule="evenodd"
            d="M62.6372 22.7098C61.6558 22.7247 60.6818 22.5385 59.7755 22.1627C58.9627 21.8231 58.2287 21.3202 57.6194 20.6855C57.0304 20.0655 56.5692 19.3364 56.2618 18.5394C55.6328 16.8847 55.6328 15.0578 56.2618 13.4031C56.569 12.6051 57.0302 11.8748 57.6194 11.2537C58.2293 10.6197 58.9631 10.1169 59.7755 9.77651C60.6826 9.40083 61.6574 9.21498 62.6395 9.23051C63.6184 9.21396 64.5902 9.39987 65.4934 9.77651C67.1072 10.4594 68.3714 11.7693 68.9936 13.4031C69.6243 15.0575 69.6243 16.885 68.9936 18.5394C68.6883 19.3349 68.2319 20.0644 67.6496 20.6877C67.0446 21.324 66.3123 21.8265 65.5002 22.1627C64.5935 22.5386 63.6191 22.7248 62.6372 22.7098ZM59.4912 17.556C59.3107 17.0501 59.222 16.5163 59.2291 15.9794V15.9783C59.2242 15.4459 59.3129 14.9169 59.4912 14.4151C59.651 13.959 59.8962 13.5373 60.2137 13.1723C60.5155 12.829 60.8839 12.5502 61.2968 12.3527C61.7164 12.1531 62.176 12.0512 62.6409 12.0546C63.1044 12.0515 63.5631 12.149 63.9849 12.3405C64.3988 12.5308 64.7678 12.8059 65.068 13.1477C65.3859 13.5121 65.6311 13.9335 65.7905 14.3894C65.9686 14.8912 66.0573 15.4203 66.0526 15.9526C66.059 16.4934 65.9703 17.0312 65.7905 17.5415C65.6309 17.9976 65.3857 18.4194 65.068 18.7842C64.7676 19.1255 64.3986 19.4002 63.9849 19.5904C63.1294 19.9704 62.1523 19.9704 61.2968 19.5904C60.8831 19.4002 60.5142 19.1255 60.2137 18.7842C59.8984 18.4231 59.6534 18.0066 59.4912 17.556Z"
            fill="#202020"
    />
    <path
            d="M86.2859 22.4624H82.947V15.16C83.0104 14.3599 82.8183 13.5602 82.3982 12.8755C82.0426 12.3998 81.474 12.1301 80.8794 12.1553C80.5295 12.1584 80.1832 12.2258 79.8578 12.3541C79.503 12.489 79.171 12.6773 78.8733 12.9123C78.5584 13.1598 78.2778 13.4478 78.0389 13.7688C77.7909 14.0969 77.6049 14.4673 77.49 14.8619V22.4624H74.1522V9.44761H77.1674V11.8572C77.6578 11.0197 78.3858 10.3457 79.2597 9.91993C80.2191 9.44575 81.2782 9.20724 82.3489 9.2243C83.0413 9.19576 83.729 9.34982 84.3426 9.67093C84.836 9.94857 85.2481 10.3501 85.5377 10.8355C85.8301 11.3424 86.0285 11.8977 86.1235 12.4746C86.2316 13.0896 86.286 13.7128 86.2859 14.3371V22.4624Z"
            fill="#202020"
    />
    <path
            d="M99.2775 21.7912C98.7378 22.0226 98.1846 22.2213 97.6209 22.3864C96.9545 22.5875 96.2618 22.6883 95.5656 22.6856C95.1235 22.6882 94.6832 22.6296 94.2573 22.5114C93.8647 22.4031 93.4997 22.2128 93.1865 21.9531C92.8676 21.683 92.6157 21.3428 92.4506 20.9594C92.2553 20.4915 92.1617 19.9876 92.1762 19.481V12H90.4816V9.4475H92.1762V5.22461H95.5152V9.4475H98.2806V12.0056H95.5152V18.3633C95.4757 18.7313 95.6147 19.0959 95.8893 19.3448C96.1472 19.5376 96.463 19.638 96.7853 19.6295C97.1336 19.6301 97.4794 19.5716 97.8079 19.4565C98.1384 19.3448 98.4061 19.241 98.6043 19.1584L99.2775 21.7912Z"
            fill="#202020"
    />
    <path
            fill-rule="evenodd"
            clip-rule="evenodd"
            d="M106.675 22.1761C107.577 22.5421 108.544 22.7236 109.517 22.7099V22.711C110.839 22.7464 112.146 22.4155 113.291 21.7552C114.284 21.1837 115.085 20.3321 115.595 19.3077L112.73 18.5138C112.491 19.0683 112.063 19.521 111.522 19.7923C110.947 20.1114 110.299 20.2783 109.64 20.2768C109.215 20.2784 108.793 20.2027 108.395 20.0535C107.589 19.7544 106.93 19.159 106.551 18.3898C106.343 17.9615 106.216 17.4985 106.177 17.0243H116.267C116.304 16.8611 116.325 16.6947 116.329 16.5274C116.342 16.3286 116.342 16.1221 116.342 15.9066C116.344 15.0414 116.188 14.1832 115.88 13.3742C115.583 12.5779 115.126 11.8507 114.536 11.2371C113.927 10.6112 113.198 10.1131 112.393 9.77211C111.49 9.39556 110.519 9.20964 109.541 9.2261C108.554 9.21127 107.575 9.39705 106.663 9.77211C105.843 10.1125 105.102 10.615 104.482 11.2493C103.885 11.8707 103.419 12.606 103.114 13.411C102.795 14.2475 102.634 15.1357 102.64 16.0305C102.636 16.9064 102.801 17.7748 103.126 18.5886C103.439 19.3852 103.909 20.1114 104.508 20.7246C105.125 21.3489 105.862 21.8426 106.675 22.1761ZM111.82 12.5177C112.472 13.1301 112.861 13.9705 112.904 14.8625L106.128 14.8648C106.154 14.4085 106.268 13.9616 106.464 13.5483C106.644 13.1668 106.893 12.8216 107.199 12.53C107.499 12.2476 107.849 12.0241 108.233 11.8712C108.633 11.7127 109.061 11.6327 109.491 11.6356C110.353 11.6161 111.189 11.9326 111.82 12.5177Z"
            fill="#202020"
    />
    <path
            fill-rule="evenodd"
            clip-rule="evenodd"
            d="M123.607 22.0145C124.349 22.3672 125.163 22.5456 125.986 22.5359C126.862 22.5404 127.727 22.3315 128.504 21.9274C129.265 21.5392 129.896 20.9397 130.323 20.2011V21.8347C130.335 22.3974 130.229 22.9563 130.009 23.4749C129.819 23.9156 129.529 24.3062 129.161 24.6161C128.796 24.9194 128.372 25.1438 127.916 25.2749C127.435 25.4168 126.936 25.4879 126.435 25.4859C125.596 25.4914 124.767 25.3134 124.004 24.9644C123.275 24.6357 122.631 24.1426 122.125 23.5241L120.306 25.2871C120.982 26.1308 121.837 26.814 122.81 27.2869C123.95 27.7926 125.189 28.0342 126.435 27.9937C127.414 28.0034 128.388 27.8614 129.324 27.5728C130.159 27.3153 130.937 26.9023 131.618 26.3557C132.26 25.8329 132.777 25.1727 133.129 24.424C133.495 23.6129 133.678 22.731 133.663 21.8414V9.4474H130.751V11.7286C130.279 10.9809 129.636 10.3561 128.873 9.90632C128.057 9.43788 127.127 9.2019 126.185 9.22409C124.511 9.19844 122.913 9.91758 121.825 11.1859C121.283 11.8167 120.861 12.54 120.578 13.3208C120.274 14.1652 120.123 15.0566 120.13 15.9537C120.125 16.8163 120.269 17.6733 120.556 18.4872C120.821 19.2545 121.226 19.9662 121.751 20.5864C122.261 21.1883 122.894 21.6751 123.607 22.0145ZM128.18 19.7042C127.844 19.8209 127.49 19.8798 127.134 19.8784V19.8773C126.64 19.8819 126.151 19.7802 125.7 19.5791C125.267 19.3853 124.877 19.1066 124.555 18.7596C124.227 18.4053 123.969 17.9923 123.795 17.5425C123.609 17.0677 123.515 16.5617 123.52 16.0519C123.519 15.5458 123.599 15.0429 123.758 14.5624C123.907 14.098 124.139 13.6644 124.444 13.2828C124.739 12.9141 125.107 12.61 125.526 12.3895C125.96 12.1636 126.444 12.0485 126.935 12.0545C127.657 12.0634 128.357 12.3077 128.927 12.7502C129.56 13.2168 130.045 13.8547 130.324 14.5881V17.6921C130.202 17.9979 130.033 18.2831 129.823 18.5374C129.61 18.8001 129.363 19.0339 129.089 19.233C128.81 19.4334 128.504 19.5922 128.18 19.7042Z"
            fill="#202020"
    />
    <path
            fill-rule="evenodd"
            clip-rule="evenodd"
            d="M141.868 22.0142C142.61 22.3668 143.424 22.5452 144.246 22.5357C145.121 22.5399 145.984 22.331 146.76 21.9271C147.521 21.539 148.153 20.9394 148.579 20.2009V21.84C148.592 22.4026 148.486 22.9616 148.267 23.4803C148.076 23.9209 147.786 24.3115 147.419 24.6214C147.054 24.9248 146.63 25.1492 146.173 25.2802C145.692 25.4221 145.193 25.4932 144.691 25.4912C143.853 25.4966 143.024 25.3186 142.262 24.9698C141.532 24.641 140.888 24.148 140.381 23.5294L138.566 25.2869C139.242 26.1304 140.097 26.8134 141.07 27.2867C142.209 27.7922 143.449 28.0339 144.695 27.9935C145.674 28.0033 146.649 27.8613 147.585 27.5725C148.419 27.3153 149.197 26.9023 149.877 26.3555C150.518 25.8324 151.033 25.1722 151.383 24.4238C151.75 23.6128 151.933 22.7308 151.918 21.8412V9.44717H149.006V11.7283C148.536 10.9812 147.894 10.3565 147.133 9.90609C146.317 9.43755 145.387 9.20155 144.445 9.22386C142.771 9.19839 141.173 9.91752 140.086 11.1857C139.544 11.8162 139.121 12.5395 138.839 13.3206C138.535 14.165 138.383 15.0564 138.391 15.9535C138.386 16.816 138.529 17.673 138.816 18.487C139.081 19.2539 139.486 19.9655 140.011 20.5861C140.521 21.1881 141.154 21.6749 141.868 22.0142ZM146.434 19.7043C146.098 19.8211 145.744 19.88 145.387 19.8785V19.8774C144.894 19.882 144.405 19.7803 143.954 19.5793C143.521 19.3855 143.131 19.1068 142.808 18.7597C142.48 18.4054 142.223 17.9924 142.049 17.5426C141.863 17.0678 141.769 16.5619 141.774 16.052C141.773 15.5461 141.853 15.0432 142.011 14.5625C142.161 14.0983 142.393 13.6648 142.697 13.2829C142.992 12.9142 143.361 12.6101 143.78 12.3896C144.214 12.1637 144.698 12.0486 145.188 12.0547C145.911 12.0634 146.611 12.3077 147.181 12.7503C147.814 13.2166 148.298 13.8547 148.577 14.5882V17.6923C148.456 17.9982 148.287 18.2834 148.077 18.5375C147.864 18.7999 147.617 19.0337 147.343 19.2331C147.064 19.4333 146.758 19.592 146.434 19.7043Z"
            fill="#202020"
    />
    <path
            fill-rule="evenodd"
            clip-rule="evenodd"
            d="M6.46585 1.19623C9.33323 -0.844867 12.2006 -0.218469 14.8529 2.6556V2.66006C17.5052 5.53748 20.4443 11.1527 19.4362 17.1063C19.2308 18.3918 18.7945 19.6298 18.1482 20.7609C16.8803 22.8949 14.7943 24.4211 12.372 24.9871C9.68536 25.6739 6.83507 25.2682 4.44861 23.8594C4.146 23.6677 3.85571 23.4574 3.57944 23.2296C1.46639 21.3647 0.192838 18.7322 0.0445006 15.9227C-0.0725664 14.3598 0.0429305 12.7881 0.387241 11.2588C0.699958 9.85385 1.17075 8.48857 1.79069 7.18889C2.81781 4.83064 4.42596 2.7693 6.46585 1.19623ZM4.22056 9.2833C4.54874 8.11648 5.70689 4.71763 8.44098 3.00815C8.57743 2.92438 8.65869 2.7744 8.65414 2.61471C8.6496 2.45502 8.55993 2.30988 8.41893 2.23396C8.27793 2.15804 8.107 2.16287 7.97055 2.24665C6.36141 3.32177 5.08673 4.82495 4.29112 6.58566C3.90696 7.37536 3.59362 8.19738 3.35475 9.04212C3.32112 9.16154 3.33882 9.28953 3.40362 9.39542C3.46842 9.50131 3.57447 9.57557 3.69637 9.60041C3.92766 9.64912 4.15711 9.51031 4.22056 9.2833Z"
            fill="#202020"
    />
    <path
            d="M11.9844 27.1149C15.3768 28.6647 19.3586 28.1516 22.2442 25.7929C27.1008 21.7486 28.446 13.4871 28.446 13.4871C28.446 13.4871 29.304 9.20725 27.7247 6.73738C26.1454 4.26752 22.2442 4.28873 18.6745 5.50915C20.2697 8.75328 21.1482 12.3008 21.2507 15.9123C21.2055 21.3587 17.3414 26.0299 11.9866 27.1115"
            fill="#202020"
    />
</svg>