<svg width="24" height="24" viewBox="0 0 24 24" fill="none" xmlns="http://www.w3.org/2000/svg">
    <rect width="24" height="24" rx="4" fill="#010101"/>
    <path fill-rule="evenodd" clip-rule="evenodd" d="M7.40763 4.64403C8.95177 3.54492 10.4959 3.88223 11.9242 5.42988V5.43229C13.3526 6.98175 14.9353 10.0055 14.3924 13.2115C14.2818 13.9037 14.0468 14.5703 13.6988 15.1794C13.016 16.3285 11.8927 17.1504 10.5882 17.4552C9.1414 17.825 7.60647 17.6066 6.32131 16.8479C6.15835 16.7447 6.00202 16.6314 5.85324 16.5088C4.71533 15.5046 4.0295 14.087 3.94961 12.5741C3.88657 11.7325 3.94877 10.8861 4.13419 10.0626C4.30259 9.30607 4.55612 8.57088 4.88997 7.87102C5.44309 6.60112 6.30911 5.49111 7.40763 4.64403ZM6.19819 8.99926C6.37492 8.37094 6.99861 6.54069 8.47096 5.62015C8.54445 5.57504 8.58821 5.49428 8.58576 5.40828C8.58331 5.32229 8.53502 5.24414 8.45909 5.20325C8.38316 5.16237 8.29111 5.16498 8.21763 5.21009C7.35108 5.78903 6.66464 6.59848 6.23619 7.5466C6.02931 7.97185 5.86057 8.4145 5.73193 8.86939C5.71382 8.93369 5.72336 9.00261 5.75825 9.05963C5.79315 9.11665 5.85026 9.15664 5.9159 9.17002C6.04046 9.19625 6.16402 9.1215 6.19819 8.99926Z" fill="white"/>
    <path d="M10.375 18.601C12.2019 19.4356 14.3462 19.1593 15.9001 17.8891C18.5155 15.7114 19.2399 11.2626 19.2399 11.2626C19.2399 11.2626 19.7019 8.95795 18.8515 7.62796C18.001 6.29796 15.9001 6.30938 13.9778 6.96656C14.8368 8.7135 15.3099 10.6238 15.3651 12.5686C15.3407 15.5014 13.2599 18.0168 10.3762 18.5992" fill="white"/>
</svg>
