<svg xml:space="preserve" id="Layer_1" x="0" y="0" version="1.1" viewBox="0 0 64 64"><metadata id="metadata49"/><style id="style2" type="text/css">.st0{fill:#ec8d53}.st1{fill:#fff}</style><g id="g906" transform="translate(-35.32 -50.46)scale(2.63977)"><g id="g6" fill="#ec8d53" fill-opacity="1" transform="translate(13.26 18.77)scale(.15723)"><path id="path4" fill="#ec8d53" fill-opacity="1" d="M77.7 2.2c-3.9 0-7.5 2.1-9.4 5.5a10.6 10.6 0 0 0 9.4 15.8c3.9 0 7.5-2.1 9.4-5.5 2.9-5.2 1-11.7-4.2-14.5-1.7-.8-3.5-1.3-5.2-1.3Z" class="st0"/></g><g id="g10" fill="#ec8d53" fill-opacity="1" transform="translate(13.26 18.77)scale(.15723)"><path id="path8" fill="#ec8d53" fill-opacity="1" d="M16 103.6c-3.9 0-7.5 2.1-9.4 5.5a10.6 10.6 0 0 0 9.4 15.8c3.9 0 7.5-2.1 9.4-5.5 2.9-5.2 1-11.7-4.2-14.5-1.6-.8-3.4-1.3-5.2-1.3z" class="st0"/></g><g id="g14" fill="#ec8d53" fill-opacity="1" transform="translate(13.26 18.77)scale(.15723)"><path id="path12" fill="#ec8d53" fill-opacity="1" d="M136.4 109.1c-3.9 0-7.5 2.1-9.4 5.5a10.6 10.6 0 0 0 9.4 15.8c3.9 0 7.5-2.1 9.4-5.5 2.9-5.2 1-11.7-4.2-14.5-1.6-.9-3.4-1.3-5.2-1.3z" class="st0"/></g><path id="path40" fill="#ec8d53" fill-opacity="1" stroke-width=".16" d="M29.66 20.9a.68.68 0 0 0-.85.37c-.13.33.05.7.38.85a10.27 10.27 0 0 1 6.08 6.3l-4.06 1.09a6.17 6.17 0 0 0-9.75-2.56L18.6 24.1a10.4 10.4 0 0 1 4.84-2.47c-.17-.4-.22-.86-.12-1.3-4.23.83-7.82 4-9.01 8.3a11.9 11.9 0 0 0-.37 4.4c.04.33.32.58.65.58h.08a.66.66 0 0 0 .58-.72 10.21 10.21 0 0 1 2.44-7.85l2.89 2.83a6.2 6.2 0 0 0 2.45 9.58l-1.2 3.93a10.16 10.16 0 0 1-4.38-3.2c-.3.34-.68.57-1.12.68a11.54 11.54 0 0 0 9.22 4.5c2.5 0 4.93-.82 7-2.38a.65.65 0 0 0-.8-1.03 10.26 10.26 0 0 1-8.65 1.8l1.19-3.94a5.58 5.58 0 0 0 1.18.1 6.21 6.21 0 0 0 6.12-7.16l4.05-1.09c.32 1.56.27 3.2-.17 4.83-.1.32-.19.63-.32.94.22.05.44.13.65.24.19.11.36.24.52.4a11.6 11.6 0 0 0-6.65-15.17zm-9.22 10.48a5.01 5.01 0 0 1 8.76-2.94 5 5 0 1 1-8.76 2.94z" class="st1"/><path id="path42" fill="#ec8d53" fill-opacity="1" stroke-width=".16" d="M29.22 28.42a4.98 4.98 0 0 0-3.45-1.73l-.34-.01a5.03 5.03 0 1 0 3.79 1.75zm-3.78 6.39c-.75 0-1.36.06-1.36-.35l.6-3.41a1.3 1.3 0 0 1-.57-1.09c0-.72.6-1.32 1.32-1.32.72 0 1.32.6 1.32 1.32 0 .44-.22.84-.57 1.09l.62 3.38v.03c.01.4-.6.35-1.36.35z" class="st0"/></g></svg>