<svg viewBox="0 0 1024 1024" xmlns="http://www.w3.org/2000/svg"><path stroke="null" id="svg_1" p-id="1445" fill="#D81E06" d="m511.99997,1024.00004c-281.04999,0 -510.99997,-230.17501 -510.99997,-511.50002s229.94999,-511.50002 510.99997,-511.50002s510.99997,230.17501 510.99997,511.50002s-229.94999,511.50002 -510.99997,511.50002z"/><path id="svg_2" p-id="1446" fill="#FFFFFF" d="m721.664,467.968l-235.52,0a22.272,22.272 0 0 0 -20.736,20.736l0,51.776c0,10.368 10.368,20.736 20.736,20.736l142.336,0c10.368,0 20.736,10.304 20.736,20.672l0,10.368c0,33.664 -28.48,62.08 -62.144,62.08l-194.176,0a22.272,22.272 0 0 1 -20.672,-20.672l0,-196.736c0,-33.664 28.48,-62.08 62.08,-62.08l287.36,0a22.272,22.272 0 0 0 20.736,-20.736l0,-51.84a22.272,22.272 0 0 0 -20.736,-20.672l-287.36,0a152.96,152.96 0 0 0 -152.704,152.768l0,287.36c0,10.304 10.368,20.672 20.736,20.672l302.848,0c75.072,0 137.216,-62.08 137.216,-137.216l0,-116.48a22.272,22.272 0 0 0 -20.736,-20.736z"/></svg>