<svg xmlns="http://www.w3.org/2000/svg" fill-rule="evenodd" clip-rule="evenodd" image-rendering="optimizeQuality" shape-rendering="geometricPrecision" text-rendering="geometricPrecision" viewBox="0 0 598 602"><path fill="#231f20" d="M282.5-.5h36c105.9 9.8 186 60.1 240.5 151 22.3 41 35.2 84.7 38.5 131v38c-7.8 95.9-50.2 172.4-127 229.5a302 302 0 0 1-146 52.5h-48C176.4 590.7 98.9 543.4 44 459.5a309.2 309.2 0 0 1-44.5-138v-42c10.7-105.4 61-185.6 151-240.5a309.6 309.6 0 0 1 132-39.5Z"/><path fill="#fefefe" d="M277.5 35.5c82.7-4.7 153.2 22 211.5 80 67.7 77.1 88 165.4 61 265-28.8 87.1-86.6 145.3-173.5 174.5-94.8 25.2-179.5 6.2-254-57C52.9 431.1 25 349.6 39 253.5 58.2 163 109.4 97.8 192.5 58a297 297 0 0 1 85-22.5Z"/><path fill="#f8971d" d="M353.5 85.5c1 126.5 1.3 253.2 1 380a2272.3 2272.3 0 0 1-78 47v-64c-.2-108 0-216 .5-324a8192 8192 0 0 0 76.5-39Z"/><path fill="#fef6ec" d="M353.5 85.5c0-.5.4-.9 1-1 1.3 127.2 1.3 254.2 0 381 .3-126.8 0-253.5-1-380Z" opacity=".8"/><path fill="#231f20" d="M370.5 187.5c28.5 4 55.8 12 82 24a351 351 0 0 0 12.5-22c19 28.7 37.5 57.7 55.5 87-37 7-74 13.6-111 19.5 4.7-9.5 9.7-18.8 15-28a194 194 0 0 0-53.5-17.5c-.5-21-.7-42-.5-63Z"/><path fill="#231f20" d="M276.5 448.5v64a220.3 220.3 0 0 1-128.5-69c-39-49.7-44-102.7-15-159a195.2 195.2 0 0 1 88.5-75.5 235.8 235.8 0 0 1 39-13.5c.2 21.7 0 43.3-.5 65a146.9 146.9 0 0 0-72 54 69.5 69.5 0 0 0-1 75c15 22.7 35.2 39.2 60.5 49.5 9.4 4 19 7.2 29 9.5Z"/></svg>