<svg xmlns:xlink="http://www.w3.org/1999/xlink" viewBox="0 0 3364.7 3364.7"><defs><radialGradient id="a" cx="217.8" cy="3291" r="4271.9" gradientUnits="userSpaceOnUse"><stop offset=".1" stop-color="#fa8f21"/><stop offset=".8" stop-color="#d82d7e"/></radialGradient><radialGradient id="b" cx="2330.6" cy="3182.9" r="3759.3" gradientUnits="userSpaceOnUse"><stop offset=".6" stop-color="#8c3aaa" stop-opacity="0"/><stop offset="1" stop-color="#8c3aaa"/></radialGradient></defs><path fill="url(#a)" d="M853.2 3352.8c-200.1-9.1-308.8-42.4-381.1-70.6-95.8-37.3-164.1-81.7-236-153.5s-116.4-140.1-153.5-235.9c-28.2-72.3-61.5-181-70.6-381.1-10-216.3-12-281.2-12-829.2s2.2-612.8 11.9-829.3C21 653.1 54.5 544.6 82.5 472.1A640 640 0 0 1 236 236 633.5 633.5 0 0 1 472 82.5C544.3 54.3 653 21 853.1 11.9 1069.5 2 1134.5 0 1682.3 0c548 0 612.8 2.2 829.3 11.9 200.1 9.1 308.6 42.6 381.1 70.6 95.8 37.1 164.1 81.7 236 153.5s116.2 140.2 153.5 236c28.2 72.3 61.5 181 70.6 381.1 9.9 216.5 11.9 281.3 11.9 829.3 0 547.8-2 612.8-11.9 829.3-9.1 200.1-42.6 308.8-70.6 381.1-37.3 95.8-81.7 164.1-153.5 235.9s-140.2 116.2-236 153.5c-72.3 28.2-181 61.5-381.1 70.6-216.3 9.9-281.3 11.9-829.3 11.9-547.8 0-612.8-1.9-829.1-11.9"/><path fill="url(#b)" d="M853.2 3352.8c-200.1-9.1-308.8-42.4-381.1-70.6-95.8-37.3-164.1-81.7-236-153.5s-116.4-140.1-153.5-235.9c-28.2-72.3-61.5-181-70.6-381.1-10-216.3-12-281.2-12-829.2s2.2-612.8 11.9-829.3C21 653.1 54.5 544.6 82.5 472.1A640 640 0 0 1 236 236 633.5 633.5 0 0 1 472 82.5C544.3 54.3 653 21 853.1 11.9 1069.5 2 1134.5 0 1682.3 0c548 0 612.8 2.2 829.3 11.9 200.1 9.1 308.6 42.6 381.1 70.6 95.8 37.1 164.1 81.7 236 153.5s116.2 140.2 153.5 236c28.2 72.3 61.5 181 70.6 381.1 9.9 216.5 11.9 281.3 11.9 829.3 0 547.8-2 612.8-11.9 829.3-9.1 200.1-42.6 308.8-70.6 381.1-37.3 95.8-81.7 164.1-153.5 235.9s-140.2 116.2-236 153.5c-72.3 28.2-181 61.5-381.1 70.6-216.3 9.9-281.3 11.9-829.3 11.9-547.8 0-612.8-1.9-829.1-11.9"/><path fill="#fff" d="M1269.3 1689.5a416.6 416.6 0 1 1 833.2 0 416.6 416.6 0 0 1-833.3 0m-225.2 0a641.8 641.8 0 1 0 1283.7 0 641.8 641.8 0 0 0-1283.7 0m1159.1-667.3a150 150 0 1 0 150-150 150 150 0 0 0-150 150M1181 2707c-122-5.5-188.2-25.8-232.2-43-58.3-22.7-100-49.8-143.8-93.5s-70.8-85.3-93.5-143.7c-17.1-44-37.4-110.2-43-232.1-6-131.8-7.2-171.3-7.2-505.2s1.3-373.2 7.2-505.1c5.6-121.9 26-188 43-232.1 22.8-58.4 49.8-100 93.5-143.8s85.4-70.9 143.8-93.5c44-17.2 110.3-37.5 232.1-43 131.8-6 171.4-7.3 505-7.3s373.3 1.3 505.2 7.3c121.9 5.6 188 26 232.1 43 58.4 22.6 100 49.8 143.8 93.5s70.8 85.4 93.5 143.8c17.2 44 37.5 110.2 43 232.1 6 131.9 7.3 171.3 7.3 505.2s-1.2 373.2-7.3 505.1c-5.5 121.9-26 188.1-43 232.1-22.7 58.4-49.8 100-93.5 143.7s-85.4 70.8-143.8 93.5c-44 17.2-110.2 37.5-232.1 43-131.8 6-171.3 7.3-505.1 7.3s-373.3-1.2-505-7.3m-10.4-2260c-133 6.2-224 27.3-303.4 58.2-82.2 31.9-151.9 74.7-221.4 144.1S533.4 788.5 501.5 870.8c-31 79.4-52 170.3-58 303.4-6.2 133.3-7.6 175.9-7.6 515.3s1.4 382 7.5 515.4c6 133 27.2 224 58 303.4 32 82.2 74.7 152 144.3 221.4S784.8 2842 867 2874c79.6 30.9 170.3 52 303.4 58 133.4 6.1 175.9 7.6 515.4 7.6s382-1.4 515.3-7.6c133-6 224-27.1 303.4-58 82.2-32 151.9-74.7 221.4-144.2s112.2-139.2 144.2-221.4c31-79.5 52.1-170.4 58-303.4 6.1-133.4 7.5-176 7.5-515.4s-1.4-382-7.4-515.3c-6-133.1-27.2-224-58-303.4-32-82.2-74.8-151.9-144.3-221.5s-139.2-112.2-221.3-144.2c-79.5-30.9-170.4-52-303.4-58-133.3-6.1-175.9-7.6-515.3-7.6s-382.1 1.4-515.4 7.6"/></svg>