<svg xmlns="http://www.w3.org/2000/svg" xmlns:xlink="http://www.w3.org/1999/xlink" id="Layer_1" data-name="Layer 1" version="1.1" viewBox="0 0 512 512"><defs id="defs10"><clipPath id="clip-path"><rect id="rect4" width="1881.2" height="1175.8" x="-1018.6" y="565.7" class="cls-1"/></clipPath><clipPath id="clip-path-2"><rect id="rect7" width="512" height="512" class="cls-1"/></clipPath><style id="style2">.cls-1{fill:none}.cls-2{clip-path:url(#clip-path)}.cls-3{fill:#b17c81;stroke:#b17c81}.cls-10,.cls-11,.cls-12,.cls-13,.cls-3,.cls-4,.cls-5,.cls-6,.cls-7,.cls-8,.cls-9{stroke-width:1.51px}.cls-4{fill:#a2747c;stroke:#a2747c}.cls-5{fill:#996976;stroke:#996976}.cls-6{fill:#aa787e;stroke:#aa787e}.cls-7{fill:#b2777e;stroke:#b2777e}.cls-8{fill:#b27a7f;stroke:#b27a7f}.cls-9{fill:#c78485;stroke:#c78485}.cls-10{fill:#c08184;stroke:#c08184}.cls-11{fill:#c48485;stroke:#c48485}.cls-12{fill:#d58b88;stroke:#d58b88}.cls-13{fill:#e09790;stroke:#e09790}.cls-14{clip-path:url(#clip-path-2)}.cls-15{fill:#4d4d4d}.cls-16{fill:#e1e1e1}.cls-17{fill:#c8c8c8}.cls-18{fill:#c2c2c2}.cls-19{fill:#c7c7c7}.cls-20{fill:#cecece}.cls-21{fill:#d3d3d3}.cls-22{fill:#c6c6c6}.cls-23{fill:#d5d5d5}.cls-24{fill:#d0d0d0}.cls-25{fill:#bfbfbf}.cls-26{fill:#d9d9d9}.cls-27{fill:#d4d4d4}.cls-28{fill:#d8d8d8}.cls-29{fill:#e2e2e2}.cls-30{fill:#e4e4e4}.cls-31{fill:#dedede}.cls-32{fill:#c5c5c5}.cls-33{fill:#d1d1d1}.cls-34{fill:#ddd}.cls-35{fill:#e3e3e3}.cls-36{fill:#00b8e3}.cls-37{fill:#33c6e9}.cls-38{fill:#008aaa}</style></defs><g id="g36" class="cls-2" clip-path="url(#clip-path)"><path id="path14" d="m-42.8 358 245 24.8 199.4 2Z" class="cls-3"/><path id="path16" d="m-42.8 358 444.4 26.8 227.2-2Z" class="cls-4"/><path id="path18" d="m401.6 384.7 163.7 139 63.5-141Z" class="cls-5"/><path id="path20" d="m202.2 382.8 54.6 14.8 144.8-12.9Z" class="cls-6"/><path id="path22" d="M401.6 384.7 356 537.5l209.3-13.9Z" class="cls-7"/><path id="path24" d="m256.8 397.6 99.2 140 45.6-152.9Z" class="cls-8"/><path id="path26" d="m256.8 397.6-92.3 136 191.5 4Z" class="cls-9"/><path id="path28" d="m202.2 382.8-37.7 150.7 92.3-135.9Z" class="cls-10"/><path id="path30" d="m-42.8 358 207.3 175.5 37.7-150.7Z" class="cls-11"/><path id="path32" d="m-42.8 358-51.6 137.9 259 37.7Z" class="cls-12"/><path id="path34" d="M-94.4 495.9-34 598l198.4-64.5Z" class="cls-13"/></g><g id="g110" class="cls-14" clip-path="url(#clip-path-2)"><path id="path38" d="M438.5 152c-1.4 0-2.7-.7-3.3-1.9L377.4 50a4 4 0 0 0-3.4-2H138.3a4 4 0 0 0-3.3 2L75 153.8 19.2 254a3.9 3.9 0 0 0 0 3.8L75 358l60 104c.7 1.2 2 1.9 3.3 1.9H374a4 4 0 0 0 3.4-1.9l57.8-100.1c.7-1.2 2-1.9 3.3-1.9h72c2.3 0 4.3-2 4.3-4.3V156.3c0-2.4-2-4.3-4.3-4.3h-72z" class="cls-15"/><path id="path27674" fill="#e2e2e2" fill-opacity="1" stroke="none" stroke-linecap="butt" stroke-linejoin="miter" stroke-opacity="1" stroke-width="1" d="M72.9 157.6 17.6 256l5.8 13 54.9 89.5 35.8 1.5H461l38.3-9.7 15.5-42.8v-95.1l-4.3-60.4H147.9l-75 5.6"/><path id="path40" d="M510.5 152H78.3a4 4 0 0 0-3.3 1.9l-2.1 3.7-26.5 45.9L17.2 254a3.8 3.8 0 0 0 0 3.8l6.3 11L75 358.1a3.8 3.8 0 0 0 3.3 1.9h432.2a4.3 4.3 0 0 0 4.3-4.3V156.3a4.3 4.3 0 0 0-4.3-4.3Z" class="cls-1"/><path id="path42" d="m88.1 245.5-64.6 23.4-6.3-11a3.8 3.8 0 0 1 0-3.8l29.2-50.6Z" class="cls-16"/><polygon id="polygon44" points="472.2 264.2 514.8 258.1 514.8 307.5 472.2 264.2" class="cls-17"/><path id="path46" d="m472.2 264.2 42.6 43.3v48.2a4.3 4.3 0 0 1-4.3 4.3H461Z" class="cls-18"/><polygon id="polygon48" points="472.2 264.2 461 360 401.5 360 383.4 316.5 472.2 264.2" class="cls-19"/><polygon id="polygon50" points="472.2 264.2 514.8 212.4 514.8 258.1 472.2 264.2" class="cls-20"/><path id="path52" d="M514.8 156.3v56.1l-42.6 51.8-32-112.2h70.3a4.3 4.3 0 0 1 4.3 4.3Z" class="cls-21"/><polygon id="polygon54" points="401.5 360 370.1 360 361.9 348.3 383.4 316.5 401.5 360" class="cls-22"/><polygon id="polygon56" points="472.2 264.2 354.4 214.4 416.4 152 440.1 152 472.2 264.2" class="cls-23"/><path id="path58" d="m354.4 214.4 29 102.1 88.8-52.3Z" class="cls-24"/><polygon id="polygon60" points="370.1 360 361.5 360 361.9 348.3 370.1 360" class="cls-25"/><polygon id="polygon62" points="416.4 152 354.4 214.4 343.2 158.6 367.2 152 416.4 152" class="cls-26"/><path id="path64" d="m354.4 214.4-143 33 150.5 101Z" class="cls-27"/><path id="path66" d="m354.4 214.4 7.5 134 21.5-31.9Z" class="cls-24"/><path id="path68" d="m343.2 158.6-131.7 88.8 143-33Z" class="cls-26"/><polygon id="polygon70" points="211.5 247.4 149.5 360 114.2 360 88.1 245.5 211.5 247.4" class="cls-28"/><path id="path72" d="m148 152-60 93.5-15.2-87.9L75 154a4 4 0 0 1 3.3-1.9H148Z" class="cls-29"/><path id="path74" d="M114.2 360H78.3a3.8 3.8 0 0 1-3.3-2l-51.5-89 64.6-23.5Z" class="cls-28"/><polygon id="polygon76" points="46.4 203.5 72.8 157.6 88.1 245.5" class="cls-30"/><polygon id="polygon78" points="276.8 152 235.5 152 172.4 152 211.5 247.4 343.2 158.6 303.5 152 276.8 152" class="cls-31"/><polygon id="polygon80" points="156.1 152 147.9 152 88.1 245.5 211.5 247.4 172.4 152 156.1 152" class="cls-31"/><polygon id="polygon82" points="333.2 360 356.2 360 361.5 360 361.9 348.3 333.2 360" class="cls-32"/><polygon id="polygon84" points="361.9 348.3 211.5 247.4 238.6 360 276.8 360 333.2 360 361.9 348.3" class="cls-24"/><polygon id="polygon86" points="149.5 360 156.1 360 235.5 360 238.6 360 211.5 247.4 149.5 360" class="cls-33"/><polygon id="polygon88" points="343.6 152 343.2 158.6 367.2 152 356.2 152 343.6 152" class="cls-34"/><polygon id="polygon90" points="303.5 152 343.2 158.6 339.6 152 303.5 152" class="cls-35"/><polygon id="polygon92" points="339.6 152 343.2 158.6 343.6 152 339.6 152" class="cls-29"/><path id="path94" d="M235.2 153.8 177 254.5a3.4 3.4 0 0 0-.4 1.6H136l79.7-138.2a3.1 3.1 0 0 1 1.2 1.2h.1l18 31.5a3.5 3.5 0 0 1 0 3.2Z" class="cls-36"/><path id="path96" d="m235 361.9-18 31.3a3.5 3.5 0 0 1-1.1 1.1L136 256.1h40.6a3 3 0 0 0 .4 1.6.4.4 0 0 0 0 .2l58 100.6a3.4 3.4 0 0 1 0 3.4Z" class="cls-37"/><path id="path98" d="m215.8 118-79.7 138-20 34.7L97 257.6a3 3 0 0 1-.4-1.5 3.4 3.4 0 0 1 .4-1.7l19.3-33.4 58.8-101.7a3.4 3.4 0 0 1 3-1.8h36a3.6 3.6 0 0 1 1.7.4Z" class="cls-38"/><path id="path100" d="M215.8 394.3a3.6 3.6 0 0 1-1.7.5H178a3.4 3.4 0 0 1-3-1.8l-53.7-93-5.3-9.2 20-34.7Z" class="cls-36"/><path id="path102" d="m376.2 256.1-79.8 138.2a3.7 3.7 0 0 1-1.2-1.1v-.1L277 361.7a3.5 3.5 0 0 1 0-3.2l58-100.6a3.4 3.4 0 0 0 .6-1.8H376Z" class="cls-38"/><path id="path104" d="M415.7 256.1a3.4 3.4 0 0 1-.5 1.8L337 393.2a3.4 3.4 0 0 1-3 1.6h-36a3.7 3.7 0 0 1-1.7-.5l79.8-138.2 20-34.6 19 32.9a3.4 3.4 0 0 1 .5 1.7Z" class="cls-36"/><path id="path106" d="M376.2 256.1h-40.6a3.4 3.4 0 0 0-.5-1.7l-58-100.6a3.4 3.4 0 0 1 0-3.4l18.1-31.3a3.7 3.7 0 0 1 1.2-1.2Z" class="cls-36"/><path id="path108" d="m396.2 221.4-20 34.7-79.8-138.2a3.7 3.7 0 0 1 1.7-.4h36a3.4 3.4 0 0 1 3 1.6Z" class="cls-37"/></g></svg>