<svg width="48" height="48" viewBox="0 0 48 48" fill="none" xmlns="http://www.w3.org/2000/svg">
<rect width="48" height="48" rx="8" fill="#F2F5F9"/>
<g clip-path="url(#clip0_2_436)">
<path fill-rule="evenodd" clip-rule="evenodd" d="M14.5696 29.7649C13.8405 29.7649 13.1783 29.7698 12.5163 29.7581C12.4413 29.7568 12.3523 29.6764 12.2959 29.6101C10.8488 27.9087 9.40498 26.204 7.96051 24.5001C7.91377 24.445 7.86546 24.3913 7.77907 24.2923V29.7485H6V18.0165H7.76104V23.3985C7.85706 23.29 7.90992 23.2356 7.95674 23.1765C9.27247 21.5179 10.589 19.8601 11.8999 18.1977C12.0092 18.0592 12.1187 17.9966 12.3001 18.0002C12.9121 18.0124 13.5245 18.0049 14.2045 18.0049C12.5982 19.9589 11.0234 21.8744 9.44253 23.7975C11.1441 25.778 12.8355 27.7466 14.5696 29.7649Z" fill="black"/>
<path fill-rule="evenodd" clip-rule="evenodd" d="M32.1128 25.6968C32.1092 25.1537 32.0241 24.7354 31.8475 24.3361C31.1325 22.7194 29.0737 22.3767 27.9363 23.6853C27.1265 24.6171 27.0263 26.1481 27.7076 27.1791C28.4161 28.2511 29.717 28.6104 30.7846 28.0011C31.7083 27.474 32.0734 26.6175 32.1128 25.6968ZM31.9262 22.1661V18.0337H33.5882V29.775C33.2068 29.775 32.8239 29.7793 32.4415 29.7688C32.4007 29.7677 32.3507 29.6858 32.3248 29.6318C32.2215 29.4161 32.1259 29.1966 32.0177 28.9568C31.5198 29.443 30.9386 29.7022 30.2848 29.8197C28.3256 30.1717 26.3958 29.0215 25.8184 27.1108C25.3373 25.5189 25.5075 24.0079 26.5791 22.6842C27.6844 21.3191 29.7041 20.8877 31.1918 21.6722C31.4445 21.8053 31.6695 21.9916 31.9262 22.1661Z" fill="black"/>
<path fill-rule="evenodd" clip-rule="evenodd" d="M40.3747 24.919C40.3808 23.8517 39.3434 22.9023 38.1661 22.8831C36.9936 22.8639 35.9829 23.7901 35.9568 24.919H40.3747ZM35.9475 26.3361C35.9889 27.1759 36.6852 27.9866 37.5507 28.2025C38.4875 28.4362 39.2927 28.2113 39.9422 27.4762C39.9899 27.4222 40.0674 27.3619 40.132 27.3607C40.6774 27.3516 41.2232 27.3555 41.7979 27.3555C41.5875 27.9185 41.2909 28.3967 40.8887 28.8058C40.1202 29.5874 39.1676 29.8909 38.0928 29.8712C36.0819 29.8343 34.4494 28.3343 34.2059 26.3191C34.0662 25.1636 34.2118 24.066 34.856 23.0826C35.7108 21.7776 36.9397 21.1578 38.4899 21.3231C40.0162 21.4858 41.0548 22.3652 41.6429 23.7656C41.9733 24.5519 42.0991 25.3787 41.9178 26.231C41.9119 26.2585 41.9017 26.2851 41.8864 26.3361H35.9475Z" fill="black"/>
<path fill-rule="evenodd" clip-rule="evenodd" d="M24.942 29.7676H23.2748V29.514C23.2743 27.9717 23.2799 26.4294 23.271 24.8872C23.2662 24.0343 22.6667 23.2265 21.8794 22.9738C20.7388 22.6075 19.4945 23.3866 19.2939 24.5969C19.2666 24.7618 19.2567 24.9313 19.2564 25.0987C19.2536 26.5606 19.2547 28.0225 19.2547 29.4843V29.7619H17.5984V21.3918C17.9756 21.3918 18.3521 21.3867 18.7281 21.3984C18.7749 21.3999 18.8336 21.4837 18.8617 21.5416C18.966 21.7561 19.0598 21.9756 19.1651 22.2099C19.9925 21.4264 20.9739 21.206 22.0377 21.3235C23.4176 21.4761 24.5713 22.5731 24.8437 23.9633C24.9066 24.2837 24.9439 24.6144 24.9462 24.9407C24.9567 26.4903 24.9511 28.04 24.9508 29.5895C24.9508 29.6403 24.9459 29.6912 24.942 29.7676Z" fill="black"/>
<path fill-rule="evenodd" clip-rule="evenodd" d="M14.999 29.7674H16.6494V21.3976H14.999V29.7674Z" fill="black"/>
<path fill-rule="evenodd" clip-rule="evenodd" d="M16.8479 19.0524C16.8465 19.616 16.3774 20.082 15.8161 20.0774C15.2706 20.0731 14.7995 19.6034 14.793 19.0576C14.7863 18.5085 15.2696 18.0209 15.8218 18.0196C16.3805 18.0181 16.8493 18.49 16.8479 19.0524Z" fill="black"/>
</g>
<defs>
<clipPath id="clip0_2_436">
<rect width="36" height="11.8828" fill="white" transform="translate(6 18)"/>
</clipPath>
</defs>
</svg>
