<svg xmlns="http://www.w3.org/2000/svg" shape-rendering="geometricPrecision" text-rendering="geometricPrecision" image-rendering="optimizeQuality" fill-rule="evenodd" clip-rule="evenodd" viewBox="0 0 512 512"><path fill="#D0232B" d="M105 0h302c57.928.155 104.845 47.072 105 104.996V407c-.155 57.926-47.072 104.844-104.996 104.998L105 512C47.074 511.844.156 464.926.002 407.003L0 105C.156 47.072 47.074.155 104.997 0H105z"/><path fill="#fff" d="M237.167 325.265l-11.73-31.785s-19 21.203-47.476 21.203c-25.253 0-43.136-21.934-43.136-57.016 0-44.926 22.668-61 44.927-61 32.144 0 42.371 20.82 51.166 47.487l11.73 36.512c11.723 35.453 33.663 63.94 96.836 63.94 45.303 0 76.04-13.902 76.04-50.421 0-29.593-16.83-44.927-48.243-52.281l-23.364-5.104c-16.081-3.668-20.82-10.227-20.82-21.204 0-12.406 9.851-19.762 25.932-19.762 17.564 0 27.039 6.6 28.47 22.317l36.517-4.364c-2.931-32.91-25.602-46.429-62.867-46.429-32.909 0-65.059 12.406-65.059 52.286 0 24.866 12.083 40.558 42.377 47.859l24.866 5.857c18.618 4.371 24.859 12.084 24.859 22.678 0 13.519-13.147 19.002-38.007 19.002-36.896 0-52.287-19.385-61.009-46.046l-12.083-36.512c-15.271-47.545-39.76-65.067-88.355-65.067-53.73 0-82.264 33.963-82.264 91.73 0 55.52 28.476 85.497 79.709 85.497 41.253 0 61.001-19.384 61.001-19.384l-.017.005v.002z"/></svg>