<?xml version="1.0" encoding="UTF-8"?>
<svg xmlns="http://www.w3.org/2000/svg" xml:space="preserve" width="708.767" height="179.332">
  <path d="m158.431 165.498-8.354-22.708s-13.575 15.14-33.932 15.14c-18.013 0-30.802-15.662-30.802-40.721 0-32.106 16.182-43.591 32.107-43.591 22.969 0 30.277 14.878 36.543 33.934l8.354 26.103c8.351 25.318 24.013 45.678 69.17 45.678 32.37 0 54.295-9.918 54.295-36.02 0-21.143-12.009-32.107-34.458-37.328l-16.705-3.654c-11.484-2.61-14.877-7.309-14.877-15.14 0-8.875 7.046-14.096 18.533-14.096 12.529 0 19.315 4.699 20.36 15.923l26.102-3.133c-2.088-23.492-18.271-33.15-44.896-33.15-23.491 0-46.462 8.875-46.462 37.327 0 17.75 8.614 28.975 30.277 34.195l17.752 4.175c13.312 3.133 17.748 8.614 17.748 16.185 0 9.656-9.396 13.572-27.146 13.572-26.364 0-37.325-13.834-43.591-32.89l-8.614-26.101c-10.961-33.934-28.452-46.463-63.169-46.463-38.37 0-58.731 24.275-58.731 65.517 0 39.677 20.361 61.08 56.906 61.08 29.492 0 43.59-13.834 43.59-13.834zM46.726 153.229c-2.61.784-5.221 1.306-8.614 1.306-6.265 0-10.703-2.87-10.703-10.442V1.827H0v148.792c0 19.577 13.575 27.672 29.497 27.672 5.221 0 10.181-.785 16.446-2.349l.783-22.713zm330.185-4.176c-6.787 4.701-12.529 7.051-20.36 7.051-9.92 0-15.401-5.221-15.401-18.012V77.006h36.023V55.603H341.41V26.625l-27.669 3.394v25.583h-17.49v21.403h17.49v66.826c0 24.02 13.834 35.5 36.284 35.5 12.269 0 23.232-2.346 31.847-7.305l-4.961-22.973zm23.807 9.396c0 10.705 8.354 19.318 19.056 19.318 11.226 0 19.578-8.613 19.578-19.318 0-10.963-8.353-19.313-19.578-19.313-10.702 0-19.056 8.35-19.056 19.313zm67.009-81.443v99.195h27.409V77.006h30.803V55.603h-30.803V44.638c0-16.444 7.049-21.665 18.534-21.665 8.092 0 13.574 1.825 19.839 5.221l4.437-22.974C530.638 1.827 522.023 0 511.582 0c-22.973 0-43.855 10.963-43.855 43.593v12.01h-17.489v21.403h17.489zm167.427 2.352c-3.133-19.578-15.923-26.629-32.63-26.629-16.706 0-31.062 7.571-37.329 26.104l-3.393-23.23h-22.188v120.598h27.409v-68.129c0-23.235 12.008-32.11 24.799-32.11 13.312 0 18.795 8.875 18.795 23.232V176.2h27.147v-68.39c0-22.974 12.269-31.849 25.061-31.849 13.052 0 18.532 8.875 18.532 23.232v77.006h27.409v-86.66c0-25.843-15.14-36.81-35.24-36.81-16.965 0-32.107 7.571-38.372 26.629z"/>
</svg>