<svg width="118" height="36" viewBox="0 0 118 36" fill="none" xmlns="http://www.w3.org/2000/svg">
  <g clip-path="url(#clip0_3163_230)">
    <path fill-rule="evenodd" clip-rule="evenodd"
      d="M0 5.62127C0 4.58692 0 4.06975 0.189869 3.65348C0.357191 3.28664 0.626294 2.97572 0.96511 2.75777C1.34958 2.51044 1.86074 2.43703 2.88305 2.29021L17.463 0.196199C18.7865 0.00612588 19.4482 -0.0889106 19.9624 0.111751C20.4138 0.2879 20.7905 0.61494 21.0287 1.03745C21.3 1.51875 21.3 2.18826 21.3 3.52727L21.3 32.4727C21.3 33.8117 21.3 34.4812 21.0287 34.9626C20.7905 35.3851 20.4138 35.7121 19.9624 35.8882C19.4482 36.0889 18.7865 35.9939 17.463 35.8038L2.88305 33.7098C1.86074 33.563 1.34958 33.4896 0.96511 33.2422C0.626294 33.0243 0.357191 32.7134 0.189869 32.3465C0 31.9302 0 31.4131 0 30.3787L0 5.62127ZM14.7 15.4267C14.7 15.1172 14.7 14.9625 14.7582 14.8402C14.8094 14.7325 14.8916 14.6425 14.9942 14.5817C15.1108 14.5127 15.2649 14.4986 15.5731 14.4706L16.9531 14.3452C17.3162 14.3122 17.4978 14.2957 17.6379 14.3562C17.7611 14.4094 17.8629 14.5024 17.927 14.6202C18 14.7543 18 14.9366 18 15.3012L18 20.6988C18 21.0634 18 21.2457 17.927 21.3798C17.8629 21.4976 17.7611 21.5906 17.6379 21.6438C17.4978 21.7043 17.3162 21.6878 16.9531 21.6548L15.5731 21.5294H15.5731C15.2649 21.5014 15.1108 21.4873 14.9942 21.4183C14.8916 21.3575 14.8094 21.2675 14.7582 21.1598C14.7 21.0375 14.7 20.8828 14.7 20.5733L14.7 15.4267ZM25.44 3H23.4L23.4 33H25.44C26.6161 33 27.2042 33 27.6534 32.7711C28.0485 32.5698 28.3698 32.2485 28.5711 31.8534C28.8 31.4042 28.8 30.8161 28.8 29.64L28.8 6.36C28.8 5.18389 28.8 4.59583 28.5711 4.14662C28.3698 3.75148 28.0485 3.43022 27.6534 3.22889C27.2042 3 26.6161 3 25.44 3Z"
      fill="#191C1D" />
    <path fill-rule="evenodd" clip-rule="evenodd"
      d="M0 5.62127C0 4.58692 0 4.06975 0.189869 3.65348C0.357191 3.28664 0.626294 2.97572 0.96511 2.75777C1.34958 2.51044 1.86074 2.43703 2.88305 2.29021L17.463 0.196199C18.7865 0.00612588 19.4482 -0.0889106 19.9624 0.111751C20.4138 0.2879 20.7905 0.61494 21.0287 1.03745C21.3 1.51875 21.3 2.18826 21.3 3.52727L21.3 32.4727C21.3 33.8117 21.3 34.4812 21.0287 34.9626C20.7905 35.3851 20.4138 35.7121 19.9624 35.8882C19.4482 36.0889 18.7865 35.9939 17.463 35.8038L2.88305 33.7098C1.86074 33.563 1.34958 33.4896 0.96511 33.2422C0.626294 33.0243 0.357191 32.7134 0.189869 32.3465C0 31.9302 0 31.4131 0 30.3787L0 5.62127ZM14.7 15.4267C14.7 15.1172 14.7 14.9625 14.7582 14.8402C14.8094 14.7325 14.8916 14.6425 14.9942 14.5817C15.1108 14.5127 15.2649 14.4986 15.5731 14.4706L16.9531 14.3452C17.3162 14.3122 17.4978 14.2957 17.6379 14.3562C17.7611 14.4094 17.8629 14.5024 17.927 14.6202C18 14.7543 18 14.9366 18 15.3012L18 20.6988C18 21.0634 18 21.2457 17.927 21.3798C17.8629 21.4976 17.7611 21.5906 17.6379 21.6438C17.4978 21.7043 17.3162 21.6878 16.9531 21.6548L15.5731 21.5294H15.5731C15.2649 21.5014 15.1108 21.4873 14.9942 21.4183C14.8916 21.3575 14.8094 21.2675 14.7582 21.1598C14.7 21.0375 14.7 20.8828 14.7 20.5733L14.7 15.4267ZM25.44 3H23.4L23.4 33H25.44C26.6161 33 27.2042 33 27.6534 32.7711C28.0485 32.5698 28.3698 32.2485 28.5711 31.8534C28.8 31.4042 28.8 30.8161 28.8 29.64L28.8 6.36C28.8 5.18389 28.8 4.59583 28.5711 4.14662C28.3698 3.75148 28.0485 3.43022 27.6534 3.22889C27.2042 3 26.6161 3 25.44 3Z"
      fill="url(#paint0_linear_3163_230)" />
  </g>
  <path fill-rule="evenodd" clip-rule="evenodd"
    d="M55.0387 26.9999C55.1278 26.9999 55.2 26.9277 55.2 26.8386V24.0105C55.2 23.9214 55.1278 23.8492 55.0387 23.8492H47.3503C47.2612 23.8492 47.189 23.777 47.189 23.6879L47.189 7.96122C47.189 7.87214 47.1168 7.79993 47.0277 7.79993H43.6613C43.5722 7.79993 43.5 7.87214 43.5 7.96122L43.5 26.8386C43.5 26.9277 43.5722 26.9999 43.6613 26.9999H55.0387ZM86.25 27.5605L86.25 12.6112C86.25 12.5221 86.1778 12.4499 86.0887 12.4499L82.851 12.4499C82.7619 12.4499 82.6897 12.5221 82.6897 12.6112V12.8198C82.6897 12.9416 82.5596 13.0199 82.45 12.9669C82.1654 12.8295 81.8739 12.7142 81.5755 12.621C80.956 12.4087 80.387 12.2999 79.8703 12.2999C78.4215 12.2999 77.1565 12.6085 76.0818 13.2325C75.0094 13.855 74.18 14.7218 73.5956 15.8297L73.5951 15.8307L73.5946 15.8318C73.0296 16.9397 72.75 18.0642 72.75 19.5259C72.75 21.0248 73.0294 22.3412 73.594 23.4681H73.5945C74.1596 24.5763 74.9699 25.4443 76.0237 26.0674H76.0248C77.0996 26.6913 78.3645 26.9999 79.8133 26.9999C80.3666 26.9999 80.9361 26.8916 81.5209 26.6781C81.9197 26.5495 82.3093 26.3788 82.6897 26.1665L82.6897 27.5321C82.6897 28.2596 82.3508 29.0427 81.677 29.5381L81.6753 29.5394C81.0094 30.0422 80.1372 30.3099 79.045 30.3289C78.282 30.3101 77.5877 30.1986 76.9609 29.9963L76.9588 29.9956L76.9566 29.9949C76.3234 29.8091 75.6404 29.5294 74.9073 29.1542L74.8865 29.1436C74.8075 29.1032 74.7107 29.1341 74.6698 29.2128L73.538 31.3926C73.5017 31.4624 73.5212 31.5483 73.5841 31.5957L73.7933 31.7534C74.1485 32.0094 74.5696 32.2336 75.0546 32.4271C75.5366 32.6195 76.0284 32.7735 76.5299 32.8891C77.0478 33.023 77.5386 33.1191 78.0019 33.1769L78.0027 33.177L78.2093 33.202C78.6175 33.2518 79.0127 33.2999 79.2649 33.2999C80.8699 33.2999 81.8489 33.0995 82.9013 32.6329C83.9708 32.1671 84.7955 31.5036 85.3666 30.6394C85.9578 29.7738 86.25 28.7448 86.25 27.5605ZM79.8987 23.7032C79.1704 23.7032 78.5406 23.5223 78.0027 23.1653C77.4625 22.7744 76.9866 22.2608 76.7488 21.6912C76.4742 21.0338 76.3673 20.3983 76.3673 19.5259C76.3673 18.6923 76.5065 18.1209 76.7807 17.4825L76.7814 17.4809C77.055 16.8257 77.4535 16.3122 77.9758 15.9345C78.5131 15.5596 79.1515 15.3693 79.8988 15.3693C80.5955 15.3693 81.2232 15.5155 81.7855 15.805L81.7874 15.806C82.0455 15.9347 82.3073 16.1038 82.5727 16.3142C82.6476 16.3736 82.6897 16.4647 82.6897 16.5603L82.6897 22.6398C82.6897 22.7317 82.651 22.8198 82.5803 22.8786C82.3592 23.0625 82.1582 23.1858 81.894 23.312C81.217 23.6354 80.6287 23.7032 79.8987 23.7032ZM63.5601 26.9999L63.5579 26.9999C62.0934 26.9999 60.8189 26.695 59.741 26.0783C58.6653 25.4627 57.8378 24.6054 57.2615 23.5089L57.2609 23.5078C56.6853 22.3934 56.4 21.1106 56.4 19.664C56.4 18.1799 56.6946 16.8863 57.2906 15.789C57.8856 14.6936 58.7219 13.8368 59.7971 13.2216L59.7983 13.2209C60.8939 12.605 62.1677 12.2999 63.614 12.2999C65.0782 12.2999 66.3436 12.6047 67.4034 13.2219C68.4784 13.8371 69.3145 14.6937 69.9094 15.789C70.5052 16.886 70.8 18.1702 70.8 19.6359C70.8 21.0838 70.4955 22.3677 69.8814 23.4826C69.2867 24.5964 68.4505 25.4628 67.3748 26.0783L67.3738 26.0788L67.3728 26.0794C66.296 26.6762 65.0232 26.9809 63.5601 26.9999ZM66.745 21.8422L66.7458 21.8404C67.052 21.1912 67.2068 20.4574 67.2068 19.6359C67.2068 18.7936 67.0606 18.0493 66.7722 17.3997C66.4846 16.7515 66.0739 16.253 65.5416 15.8976L65.54 15.8965L65.5384 15.8954C65.0094 15.5246 64.3707 15.3357 63.614 15.3357C62.8968 15.3357 62.2659 15.5236 61.7156 15.8969C61.1626 16.272 60.733 16.7814 60.427 17.4296C60.1386 18.0801 59.9836 18.8152 59.9651 19.6377C59.9653 20.4792 60.1115 21.2229 60.3997 21.8721C60.6867 22.5188 61.1061 23.0272 61.6579 23.4019C62.2075 23.7565 62.8481 23.9361 63.586 23.9361C64.3426 23.9361 64.9813 23.7471 65.5103 23.3763C66.0447 23.0017 66.4562 22.4927 66.7442 21.844L66.745 21.8422ZM94.1988 15.3813C94.1988 15.2922 94.271 15.22 94.3601 15.22H97.0802C97.1693 15.22 97.2415 15.1478 97.2415 15.0587V12.6276C97.2415 12.5386 97.1693 12.4663 97.0802 12.4663H94.3601C94.271 12.4663 94.1988 12.3941 94.1988 12.3051V7.96122C94.1988 7.87214 94.1266 7.79993 94.0375 7.79993H90.8729C90.7838 7.79993 90.7116 7.87214 90.7116 7.96122V12.3051C90.7116 12.3941 90.6394 12.4663 90.5503 12.4663L88.5132 12.4663C88.4234 12.4663 88.3509 12.5397 88.3519 12.6295L88.3802 15.0606C88.3813 15.1489 88.4532 15.22 88.5415 15.22L90.5503 15.22C90.6394 15.22 90.7116 15.2922 90.7116 15.3813L90.7116 22.1743C90.7116 23.1996 90.9129 24.0817 91.3241 24.8131L91.3255 24.8155L91.3269 24.8178C91.7559 25.5266 92.3422 26.0689 93.0827 26.4426C93.824 26.8168 94.7137 26.9999 95.7453 26.9999C96.0412 26.9999 96.3538 26.9602 96.6828 26.8821C97.0269 26.8049 97.3442 26.708 97.6342 26.591C97.948 26.4719 98.5359 26.153 98.7137 26.0334L98.7213 26.0283C98.7932 25.9799 98.814 25.8834 98.7685 25.8097L97.4464 23.6692C97.4046 23.6016 97.3199 23.5744 97.2466 23.6052L97.2415 23.6074C97.0243 23.6988 96.8969 23.7421 96.6635 23.7965C96.4319 23.8504 96.2009 23.8773 95.9703 23.8773C95.355 23.8773 94.9245 23.6759 94.6448 23.2949C94.3516 22.8764 94.1988 22.3366 94.1988 21.6633L94.1988 15.3813ZM106.46 26.9999L106.458 26.9999C104.993 26.9999 103.719 26.695 102.641 26.0783C101.565 25.4627 100.738 24.6054 100.161 23.5089L100.161 23.5078C99.5853 22.3934 99.3 21.1106 99.3 19.664C99.3 18.1799 99.5946 16.8863 100.191 15.789C100.786 14.6936 101.622 13.8368 102.697 13.2216L102.698 13.2209C103.794 12.605 105.068 12.2999 106.514 12.2999C107.978 12.2999 109.244 12.6047 110.303 13.2219C111.378 13.8371 112.214 14.6937 112.809 15.789C113.405 16.886 113.7 18.1702 113.7 19.6359C113.7 21.0838 113.395 22.3677 112.781 23.4826C112.187 24.5964 111.351 25.4628 110.275 26.0783L110.274 26.0788L110.273 26.0794C109.196 26.6762 107.923 26.9809 106.46 26.9999ZM109.645 21.8422L109.646 21.8404C109.952 21.1912 110.107 20.4574 110.107 19.6359C110.107 18.7936 109.961 18.0493 109.672 17.3997C109.385 16.7515 108.974 16.253 108.442 15.8976L108.44 15.8965L108.438 15.8954C107.909 15.5246 107.271 15.3357 106.514 15.3357C105.797 15.3357 105.166 15.5236 104.616 15.8969C104.063 16.272 103.633 16.7814 103.327 17.4296C103.039 18.0801 102.884 18.8152 102.865 19.6377C102.865 20.4792 103.012 21.2229 103.3 21.8721C103.587 22.5188 104.006 23.0272 104.558 23.4019C105.107 23.7565 105.748 23.9361 106.486 23.9361C107.243 23.9361 107.881 23.7471 108.41 23.3763C108.945 23.0017 109.356 22.4927 109.644 21.844L109.645 21.8422Z"
    fill="white" />
  <defs>
    <linearGradient id="paint0_linear_3163_230" x1="-8.91429" y1="24.8965" x2="26.9632" y2="10.8165"
      gradientUnits="userSpaceOnUse">
      <stop stop-color="#4B2EFB" />
      <stop offset="1" stop-color="#E65FFC" />
    </linearGradient>
    <clipPath id="clip0_3163_230">
      <rect width="28.8" height="36" fill="white" />
    </clipPath>
  </defs>
</svg>
