<svg viewBox="0 0 98 85" fill="none" xmlns="http://www.w3.org/2000/svg">
<path d="M55.42 1.18797e-06H42.26C31.0543 0.0132386 20.3115 4.47093 12.3888 12.3955C4.46609 20.3201 0.0105861 31.0643 0 42.27C0.0132325 53.474 4.46991 64.2153 12.3923 72.1377C20.3148 80.0601 31.056 84.5166 42.26 84.5298H55.47C66.6757 84.5192 77.4197 80.0638 85.3442 72.1411C93.2688 64.2184 97.7268 53.4757 97.74 42.27C97.7294 31.0539 93.2658 20.3008 85.3301 12.3745C77.3944 4.44821 66.6362 -0.00265476 55.42 1.18797e-06ZM5.22998 42.27C5.22998 32.457 9.12817 23.0458 16.067 16.1069C23.0059 9.16809 32.417 5.27002 42.23 5.27002C44.2972 5.26926 46.361 5.43961 48.4 5.77979C57.0318 7.20742 64.8734 11.6613 70.5206 18.3438C76.1678 25.0262 79.2517 33.501 79.22 42.25C79.2097 47.8682 77.214 53.3016 73.5853 57.5908C69.9567 61.88 64.9288 64.7489 59.39 65.6899C63.0796 62.9963 66.0805 59.4688 68.1484 55.3955C70.2164 51.3222 71.2929 46.8182 71.29 42.25C71.3013 35.8051 69.1652 29.5401 65.2194 24.4443C61.2735 19.3486 55.7426 15.7122 49.5 14.1099C47.1255 13.4962 44.6825 13.1871 42.23 13.1899C34.5356 13.2137 27.1641 16.2851 21.729 21.7314C16.2939 27.1778 13.2379 34.5556 13.23 42.25C13.2105 49.3902 15.0052 56.4181 18.4458 62.6748C21.8864 68.9315 26.86 74.2119 32.9 78.02C24.9949 75.9442 17.9979 71.3127 12.9988 64.8467C7.99962 58.3807 5.27879 50.4432 5.26001 42.27H5.22998ZM48.8201 19.4399C53.7721 20.8661 58.1255 23.8649 61.223 27.9834C64.3205 32.1019 65.9937 37.1167 65.99 42.27C65.9916 47.4216 64.3174 52.4338 61.2201 56.5503C58.1228 60.6668 53.7705 63.6641 48.8201 65.0898C43.8697 63.6641 39.5172 60.6668 36.4199 56.5503C33.3226 52.4338 31.6485 47.4216 31.65 42.27C31.6463 37.1167 33.3195 32.1019 36.417 27.9834C39.5145 23.8649 43.868 20.8661 48.8201 19.4399ZM55.42 79.25H55.27C53.2597 79.239 51.2534 79.0682 49.27 78.7397C40.852 77.3437 33.18 73.0675 27.5658 66.6416C21.9515 60.2157 18.7435 52.039 18.49 43.5098C18.49 43.0898 18.49 42.68 18.49 42.27C18.4963 36.6507 20.4906 31.2148 24.1199 26.9248C27.7492 22.6348 32.7795 19.7674 38.3201 18.8301C34.6287 21.5227 31.6258 25.0492 29.556 29.1226C27.4863 33.196 26.4083 37.701 26.41 42.27C26.401 48.7132 28.5379 54.9756 32.4836 60.0693C36.4294 65.1631 41.9591 68.798 48.2 70.3999C50.5735 71.0185 53.0171 71.3276 55.47 71.3198C63.173 71.3119 70.5584 68.2491 76.0062 62.8032C81.454 57.3573 84.5194 49.973 84.53 42.27C84.5523 35.1292 82.7588 28.0999 79.318 21.8428C75.8772 15.5856 70.902 10.306 64.86 6.5C72.7634 8.57837 79.7564 13.2146 84.7476 19.6855C89.7387 26.1564 92.447 34.0979 92.45 42.27C92.4473 47.1298 91.4875 51.9415 89.625 56.4302C87.7625 60.9189 85.034 64.9966 81.5953 68.4307C78.1567 71.8647 74.0751 74.5874 69.5839 76.4438C65.0927 78.3003 60.2798 79.2539 55.42 79.25Z" fill="#FC5200"/>
</svg>
