<?xml version="1.0" encoding="UTF-8" standalone="no"?>
<!-- Generator: Adobe Illustrator 17.0.0, SVG Export Plug-In . SVG Version: 6.00 Build 0)  -->

<svg
   xmlns:dc="http://purl.org/dc/elements/1.1/"
   xmlns:cc="http://creativecommons.org/ns#"
   xmlns:rdf="http://www.w3.org/1999/02/22-rdf-syntax-ns#"
   xmlns:svg="http://www.w3.org/2000/svg"
   xmlns="http://www.w3.org/2000/svg"
   xmlns:sodipodi="http://sodipodi.sourceforge.net/DTD/sodipodi-0.dtd"
   xmlns:inkscape="http://www.inkscape.org/namespaces/inkscape"
   version="1.1"
   id="Layer_1"
   x="0px"
   y="0px"
   width="271.27399"
   height="298.871"
   viewBox="0 0 271.27398 298.871"
   enable-background="new 0 0 1600 1200"
   xml:space="preserve"
   inkscape:version="0.91 r13725"
   sodipodi:docname="logo.svg"><metadata
     id="metadata144"><rdf:RDF><cc:Work
         rdf:about=""><dc:format>image/svg+xml</dc:format><dc:type
           rdf:resource="http://purl.org/dc/dcmitype/StillImage" /><dc:title></dc:title></cc:Work></rdf:RDF></metadata><defs
     id="defs142" /><sodipodi:namedview
     pagecolor="#ffffff"
     bordercolor="#666666"
     borderopacity="1"
     objecttolerance="10"
     gridtolerance="10"
     guidetolerance="10"
     inkscape:pageopacity="0"
     inkscape:pageshadow="2"
     inkscape:window-width="1203"
     inkscape:window-height="1168"
     id="namedview140"
     showgrid="false"
     inkscape:zoom="1.1125147"
     inkscape:cx="151.70799"
     inkscape:cy="136.82484"
     inkscape:window-x="561"
     inkscape:window-y="0"
     inkscape:window-maximized="0"
     inkscape:current-layer="g5"
     fit-margin-top="0"
     fit-margin-left="0"
     fit-margin-right="0"
     fit-margin-bottom="0" /><g
     id="g3"
     transform="translate(-648.292,-401.988)"><g
       id="g5"><g
         id="email"
         transform="translate(0,-58)"><path
           style="fill:#5a3620"
           inkscape:connector-curvature="0"
           id="path10"
           d="m 890.306,557.81 29.26,11.373 0,172.027 c 0,9.753 -7.895,17.649 -17.638,17.649 l -235.998,0 c -9.743,0 -17.638,-7.896 -17.638,-17.649 l 0,-172.026 29.259,-8.937" /><path
           style="fill:#fee70f;fill-opacity:0.89499996"
           inkscape:connector-curvature="0"
           id="path12"
           d="M 758.871,656.221 649.49,747.45 c 2.507,6.648 8.901,11.409 16.44,11.409 l 235.998,0 c 7.536,0 13.933,-4.761 16.444,-11.409 l -107.402,-91.229 -52.099,0 z" /><g
           id="g14"><path
             style="fill:#f9e82d;fill-opacity:1"
             inkscape:connector-curvature="0"
             id="path16"
             d="m 810.391,656.686 107.981,90.764 c -0.331,0.881 -0.744,1.726 -1.205,2.536 l 0.028,0.035 c 1.501,-2.596 2.371,-5.594 2.371,-8.81 l 0,-172.004 -109.175,87.479 z" /><path
             style="fill:#f9e82d;fill-opacity:1"
             inkscape:connector-curvature="0"
             id="path18"
             d="m 649.49,747.45 108.864,-90.764 -110.061,-87.479 0,172.003 c 0,3.216 0.876,6.214 2.367,8.81 l 0.039,-0.035 c -0.466,-0.809 -0.877,-1.654 -1.209,-2.535 z" /></g></g><path
         style="opacity:0.1;fill:#3d5263"
         inkscape:connector-curvature="0"
         id="path26"
         d="m 783.931,446.247 c -66.396,0 -120.223,53.827 -120.223,120.223 0,66.396 53.827,120.221 120.223,120.221 66.397,0 120.222,-53.825 120.222,-120.221 0,-66.395 -53.825,-120.223 -120.222,-120.223 z m -11.96,215.702 c -53.009,0 -95.982,-43.855 -95.982,-97.953 0,-54.098 42.973,-97.952 95.982,-97.952 53.007,0 95.98,43.855 95.98,97.952 -10e-4,54.098 -42.973,97.953 -95.98,97.953 z" /><g
         id="g28"><g
           id="g30"><polyline
             style="fill:#3d5263"
             id="polyline32"
             points="691.144,492.5 673.257,540.276 686.55,605.582 712.496,631.852      " /><g
             id="g34"><g
               id="g36"><polyline
                 style="fill:#fef3df"
                 id="polyline38"
                 points="658.248,450.81 673.501,487.076 693.836,496.903 724.04,458.731        " /><g
                 id="g40"><path
                   style="fill:#b58765"
                   inkscape:connector-curvature="0"
                   id="path42"
                   d="m 710.634,473.205 c 0,0 -22.482,-25.556 -49.793,-18.975 0,0 4.667,34.118 46.349,44.019 l 2.61,8.533 c 0,0 -65.612,-9.689 -59.339,-67.593 0,0 49.008,-19.884 72.598,15.106" /><polyline
                   style="fill:#fef3df"
                   id="polyline44"
                   points="909.697,450.81 894.447,487.076 874.114,496.903 843.907,458.731         " /><path
                   style="fill:#b58765"
                   inkscape:connector-curvature="0"
                   id="path46"
                   d="m 857.314,473.205 c 0,0 22.48,-25.556 49.79,-18.975 0,0 -4.664,34.118 -46.347,44.019 l -2.613,8.533 c 0,0 65.611,-9.689 59.339,-67.593 0,0 -49.006,-19.884 -72.6,15.106" /></g></g><path
               sodipodi:nodetypes="cccscccccc"
               style="fill:#b58765"
               inkscape:connector-curvature="0"
               id="path48"
               d="m 726.619,647.067 55.945,0 16.40428,-204.81407 c -55.814,0 -112.41728,30.01707 -112.41728,77.85207 0,1.454 0.085,2.787 0.121,4.175 0.127,3.934 0.448,7.585 0.856,11.135 1.689,14.816 5.451,27.177 8.461,43.383 1.452,7.831 5.002,23.374 5.002,23.374 0.056,0.408 0.165,0.804 0.224,1.211 2.535,16.546 11.832,32.027 25.404,43.684 z" /><path
               style="fill:#b58765"
               inkscape:connector-curvature="0"
               id="path50"
               d="m 781.992,433.489 0,213.577 55.944,0 c 13.572,-11.657 22.867,-27.138 25.406,-43.684 0.058,-0.407 0.163,-0.803 0.221,-1.211 0,0 3.549,-15.543 5.002,-23.374 3.011,-16.206 6.774,-28.567 8.464,-43.381 0.405,-3.552 0.724,-7.203 0.846,-11.137 0.042,-1.388 0.126,-2.721 0.126,-4.175 0,-47.834 -40.191,-86.615 -96.009,-86.615 z" /><g
               id="g52"><g
                 id="g54"><path
                   style="fill:#fef3df"
                   inkscape:connector-curvature="0"
                   id="path56"
                   d="m 860.944,613.502 c 0,28.321 -35.091,51.289 -78.383,51.289 -43.299,0 -78.388,-22.968 -78.388,-51.289 0,-28.325 35.089,-51.289 78.388,-51.289 43.292,0 78.383,22.964 78.383,51.289 z" /></g></g><g
               id="g58"><g
                 id="g60"><g
                   id="g62"><path
                     style="fill:#5a3620"
                     inkscape:connector-curvature="0"
                     id="path64"
                     d="m 747.044,605.582 c 0,6.215 -5.04,11.256 -11.261,11.256 -6.21,0 -11.253,-5.041 -11.253,-11.256 0,-6.223 5.043,-11.257 11.253,-11.257 6.22,0 11.261,5.034 11.261,11.257 z" /></g></g><g
                 id="g66"><g
                   id="g68"><path
                     style="fill:#5a3620"
                     inkscape:connector-curvature="0"
                     id="path70"
                     d="m 840.856,605.582 c 0,6.215 -5.037,11.256 -11.257,11.256 -6.218,0 -11.259,-5.041 -11.259,-11.256 0,-6.223 5.041,-11.257 11.259,-11.257 6.22,0 11.257,5.034 11.257,11.257 z" /></g></g></g><g
               id="g72"><path
                 style="fill:#87654a"
                 inkscape:connector-curvature="0"
                 id="path74"
                 d="m 875.228,525.835 c 0.354,-3.113 0.634,-6.311 0.743,-9.754 0.035,-1.218 0.109,-2.384 0.109,-3.661 0,-40.785 -33.369,-74.043 -80.237,-75.775 l -7.335,0.005 c -0.003,0 -0.003,0 -0.006,0 -0.007,0.018 -28.632,88.422 76.583,140.268 0.946,-4.317 2.078,-9.585 2.73,-13.088 2.64,-14.196 5.934,-25.021 7.413,-37.995 z" /></g><g
               id="g76"><g
                 id="g78"><g
                   id="g80"><g
                     id="g82"><path
                       style="fill:#5a3620"
                       inkscape:connector-curvature="0"
                       id="path84"
                       d="m 843.907,519.681 c 0,6.964 -5.65,12.611 -12.618,12.611 -6.963,0 -12.614,-5.646 -12.614,-12.611 0,-6.97 5.651,-12.614 12.614,-12.614 6.968,0 12.618,5.644 12.618,12.614 z" /></g></g></g><g
                 id="g86"><g
                   id="g88"><g
                     id="g90"><path
                       style="fill:#5a3620"
                       inkscape:connector-curvature="0"
                       id="path92"
                       d="m 752.028,519.681 c 0,6.964 -5.649,12.611 -12.612,12.611 -6.969,0 -12.612,-5.646 -12.612,-12.611 0,-6.97 5.642,-12.614 12.612,-12.614 6.964,0 12.612,5.644 12.612,12.614 z" /></g></g></g><g
                 id="g94"><g
                   id="g96"><path
                     style="fill:#ffffff"
                     inkscape:connector-curvature="0"
                     id="path98"
                     d="m 748.75,515.894 c 0,2.558 -2.071,4.629 -4.63,4.629 -2.558,0 -4.633,-2.072 -4.633,-4.629 0,-2.552 2.076,-4.626 4.633,-4.626 2.559,0 4.63,2.073 4.63,4.626 z" /></g></g><g
                 id="g100"><g
                   id="g102"><path
                     style="fill:#ffffff"
                     inkscape:connector-curvature="0"
                     id="path104"
                     d="m 839.771,515.894 c 0,2.558 -2.073,4.629 -4.629,4.629 -2.558,0 -4.631,-2.072 -4.631,-4.629 0,-2.552 2.072,-4.626 4.631,-4.626 2.555,0 4.629,2.073 4.629,4.626 z" /></g></g></g></g><path
             style="fill:#fef3df"
             inkscape:connector-curvature="0"
             id="path106"
             d="m 734.557,443.625 c 0,0 -18.236,-25.199 0,-41.637 0,0 13.125,32.012 40.242,31.502" /><path
             style="fill:#fef3df"
             inkscape:connector-curvature="0"
             id="path108"
             d="m 834.496,443.625 c 0,0 18.236,-25.199 0,-41.637 0,0 -13.126,32.012 -40.242,31.502" /><path
             style="fill:#f1f2f2"
             inkscape:connector-curvature="0"
             id="path110"
             d="m 786.264,431.965 c -66.396,0 -120.223,53.827 -120.223,120.223 0,66.396 53.827,120.221 120.223,120.221 66.397,0 120.222,-53.825 120.222,-120.221 10e-4,-66.395 -53.825,-120.223 -120.222,-120.223 z m -11.96,215.702 c -53.009,0 -95.982,-43.855 -95.982,-97.953 0,-54.098 42.973,-97.952 95.982,-97.952 53.007,0 95.979,43.855 95.979,97.952 0,54.098 -42.972,97.953 -95.979,97.953 z" /></g><g
           id="g112"><path
             style="fill:#ffffff"
             inkscape:connector-curvature="0"
             id="path114"
             d="m 781.737,436.751 c 66.396,0 120.221,53.827 120.221,120.223 0,30.718 -11.526,58.74 -30.482,79.991 21.636,-21.74 35.01,-51.708 35.01,-84.803 0,-66.395 -53.825,-120.222 -120.222,-120.222 -35.678,0 -67.721,15.549 -89.739,40.233 21.772,-21.879 51.91,-35.422 85.212,-35.422 z" /></g></g><path
         d="m 648.292,644.7595 0,46.15088 c 0,5.49435 7.88,9.94862 17.6,9.94862 l 236.073,0 c 9.72,0 17.6,-4.45427 17.6,-9.94862 l 0,-14.07618 c 10e-4,0 -175.814,20.0804 -271.273,-32.0747 z"
         id="path124"
         inkscape:connector-curvature="0"
         style="opacity:0.1;fill:#3d5263" /></g><g
       id="g126" /></g></svg>