<svg xmlns="http://www.w3.org/2000/svg" xmlns:xlink="http://www.w3.org/1999/xlink" viewBox="0 0 32 32"><defs><path id="a" d="M82.26 23.48h-3v-1.1a6.64 6.64 0 0 1-4.46 1.61 7.72 7.72 0 1 1 0-15.42c1.78 0 3.3.6 4.46 1.62v-1.1h3v14.39Zm-38.1 0h-3V9.08h3v.8a5.23 5.23 0 0 1 3.47-1.31c2 0 3.8.9 4.98 2.33a6.47 6.47 0 0 1 11.46 4.14v8.44h-3v-8.44a3.48 3.48 0 0 0-6.96 0v8.44h-3v-8.44a3.48 3.48 0 0 0-6.95 0v8.44Zm41.69 0h3V9.08h-3v14.4Zm6.59 0h3V2.9h-3v20.57ZM74.8 11.53a4.7 4.7 0 0 1 4.7 4.75 4.7 4.7 0 0 1-4.7 4.76 4.76 4.76 0 1 1 0-9.51ZM87.35 2.4a2.06 2.06 0 1 1 0 4.12 2.06 2.06 0 0 1 0-4.12Z"/></defs><g fill="none" fill-rule="evenodd"><path fill="#FF9E00" d="M16.08 0c-8.82 0-16 7.18-16 16A16.02 16.02 0 0 0 25.1 29.22L23 26.78A12.82 12.82 0 0 1 3.27 16c0-7.06 5.75-12.81 12.81-12.81A12.82 12.82 0 0 1 28.6 18.75c-.4 1.69-1.58 2.2-2.48 2.14-.9-.07-1.95-.7-1.96-2.27V16a8.08 8.08 0 0 0-16.13 0 8.08 8.08 0 0 0 13.82 5.64 5.15 5.15 0 0 0 4.44 2.45c1.16 0 2.29-.38 3.22-1.1a5.97 5.97 0 0 0 2.24-3.7A16.02 16.02 0 0 0 16.08 0Zm-4.87 16a4.88 4.88 0 1 1 9.76.01 4.88 4.88 0 0 1-9.76-.01Z"/><use xlink:href="#a" fill="#FFFFFF"/></g></svg>