<svg xmlns="http://www.w3.org/2000/svg" width="800" height="800" viewBox="-0.5 0 257 257" preserveAspectRatio="xMidYMid" xmlns:v="https://vecta.io/nano"><path d="M128.418 80.526c-26.511 0-48.885 21.475-48.885 48.728-.118 12.957 4.994 25.417 14.188 34.579s21.696 14.257 34.697 14.139c26.511 0 48.875-21.475 48.875-48.718 0-27.253-22.364-48.728-48.875-48.728h0zm-76.221 47.896c0-41.286 33.969-75.138 75.396-75.138 41.417 0 75.385 33.853 75.385 75.138 0 2.478 0 5.788-.825 8.265-.835 7.422 4.972 13.2 12.43 13.2 12.43 0 14.081-15.678 14.081-21.465 0-55.328-45.574-100.746-101.071-100.746-55.518 0-101.071 45.418-101.071 100.746 0 55.338 45.553 100.746 101.071 100.746 29.822 0 56.333-12.388 74.56-33.03l20.703 17.343c-22.364 26.43-57.158 42.951-94.448 42.951-34.097.105-66.827-13.35-90.932-37.383S-.118 162.392.001 128.411C.001 58.228 57.159.432 128.418.432 198.832.432 256 58.238 256 128.432c0 28.075-13.255 51.206-40.591 51.206-11.605 0-19.053-5.788-23.199-11.565-13.255 21.475-37.29 35.508-64.626 35.508-20.017.068-39.234-7.827-53.388-21.933s-22.076-33.257-22.008-53.206l.01-.02zm76.211-22.298c12.43 0 22.374 9.91 22.374 22.298s-9.944 22.298-22.364 22.298c-5.941.024-11.647-2.317-15.848-6.504a22.17 22.17 0 0 1-6.526-15.794c0-12.388 9.944-22.298 22.374-22.298h-.01z" fill="#c02428"/></svg>