<svg preserveAspectRatio="xMidYMid" viewBox="0 0 256 256"><path fill="#0058CC" d="M6.8 87A128 128 0 0 1 131.4 0L114 20.7a91.8 91.8 0 0 0-71.4 60.5c-16.4 48.4 11 101.3 61.3 118.3 50.2 17 104.2-8.4 120.5-56.7a91.8 91.8 0 0 0-19.7-91.2l-1.4-27.2A128 128 0 1 1 6.8 87Zm158.4-75a3 3 0 0 1 3.7 1.2h.1v.2l.5 1.2.2 5v6.2l.5 19 .7 21.8 1 38v.2c0 2.2-.5 18-11.8 29.1a35 35 0 0 1-36.6 7.5 35 35 0 0 1-24.6-28.2 43.2 43.2 0 0 1 7.8-29.5l.2-.3.5-.6 23.8-29.6 13.9-17L157 21.6l3.5-4.6.4-.5 1.7-2.1.3-.4 1-1.2 1-.6.2-.2Z"/></svg>