<?xml version="1.0" encoding="UTF-8"?>
<!DOCTYPE svg PUBLIC "-//W3C//DTD SVG 1.1//EN" "http://www.w3.org/Graphics/SVG/1.1/DTD/svg11.dtd">
<svg xmlns="http://www.w3.org/2000/svg" version="1.1" width="192px" height="192px" style="shape-rendering:geometricPrecision; text-rendering:geometricPrecision; image-rendering:optimizeQuality; fill-rule:evenodd; clip-rule:evenodd" xmlns:xlink="http://www.w3.org/1999/xlink">
<g><path style="opacity:0.004" fill="#45c4ff" d="M 5.5,18.5 C 3.5,18.5 1.5,18.5 -0.5,18.5C -0.5,18.1667 -0.5,17.8333 -0.5,17.5C 1.84201,16.0131 3.84201,16.3464 5.5,18.5 Z"/></g>
<g><path style="opacity:0.004" fill="#45c4ff" d="M 191.5,17.5 C 191.5,17.8333 191.5,18.1667 191.5,18.5C 189.5,18.5 187.5,18.5 185.5,18.5C 187.158,16.3464 189.158,16.0131 191.5,17.5 Z"/></g>
<g><path style="opacity:0.008" fill="#389eff" d="M 5.5,19.5 C 5.5,19.1667 5.5,18.8333 5.5,18.5C 8.01632,18.7553 10.3496,19.5886 12.5,21C 11.552,21.4828 10.552,21.6495 9.5,21.5C 9.15829,20.6618 8.49162,20.3284 7.5,20.5C 7.15829,19.6618 6.49162,19.3284 5.5,19.5 Z"/></g>
<g><path style="opacity:0.008" fill="#399bff" d="M 185.5,18.5 C 185.5,18.8333 185.5,19.1667 185.5,19.5C 184.508,19.3284 183.842,19.6618 183.5,20.5C 182.508,20.3284 181.842,20.6618 181.5,21.5C 180.448,21.6495 179.448,21.4828 178.5,21C 180.65,19.5886 182.984,18.7553 185.5,18.5 Z"/></g>
<g><path style="opacity:0.985" fill="#1abffc" d="M 5.5,19.5 C 5.84171,20.3382 6.50838,20.6716 7.5,20.5C 7.84171,21.3382 8.50838,21.6716 9.5,21.5C 11.5093,23.0652 13.8427,24.0652 16.5,24.5C 16.8417,25.3382 17.5084,25.6716 18.5,25.5C 22.877,28.0178 27.5437,30.0178 32.5,31.5C 32.8417,32.3382 33.5084,32.6716 34.5,32.5C 36.1392,33.4725 37.4726,34.8058 38.5,36.5C 37.6805,39.3054 37.1805,42.3054 37,45.5C 36.5026,42.854 36.3359,40.1873 36.5,37.5C 34.095,37.1336 31.7617,36.4669 29.5,35.5C 19.5312,35.7699 9.53124,36.1032 -0.5,36.5C -0.5,31.1667 -0.5,25.8333 -0.5,20.5C 1.3792,19.6586 3.3792,19.3253 5.5,19.5 Z"/></g>
<g><path style="opacity:0.994" fill="#1abefc" d="M 185.5,19.5 C 187.621,19.3253 189.621,19.6586 191.5,20.5C 191.5,25.8333 191.5,31.1667 191.5,36.5C 179.707,36.4482 167.874,36.4482 156,36.5C 154.768,39.3004 154.101,42.3004 154,45.5C 153.819,42.3054 153.319,39.3054 152.5,36.5C 153.527,34.8058 154.861,33.4725 156.5,32.5C 157.492,32.6716 158.158,32.3382 158.5,31.5C 163.456,30.0178 168.123,28.0178 172.5,25.5C 173.492,25.6716 174.158,25.3382 174.5,24.5C 177.157,24.0652 179.491,23.0652 181.5,21.5C 182.492,21.6716 183.158,21.3382 183.5,20.5C 184.492,20.6716 185.158,20.3382 185.5,19.5 Z"/></g>
<g><path style="opacity:0.016" fill="#2db2ff" d="M 16.5,24.5 C 18.0894,23.3789 19.7561,23.5456 21.5,25C 20.552,25.4828 19.552,25.6495 18.5,25.5C 18.1583,24.6618 17.4916,24.3284 16.5,24.5 Z"/></g>
<g><path style="opacity:0.016" fill="#2db2ff" d="M 174.5,24.5 C 173.508,24.3284 172.842,24.6618 172.5,25.5C 170.653,25.7658 169.986,25.4325 170.5,24.5C 171.995,23.2947 173.328,23.2947 174.5,24.5 Z"/></g>
<g><path style="opacity:0.012" fill="#30b7ff" d="M 32.5,31.5 C 33.8488,30.2035 35.1821,30.3702 36.5,32C 35.9056,32.4643 35.2389,32.631 34.5,32.5C 34.1583,31.6618 33.4916,31.3284 32.5,31.5 Z"/></g>
<g><path style="opacity:0.008" fill="#35c8ff" d="M 158.5,31.5 C 157.508,31.3284 156.842,31.6618 156.5,32.5C 154.621,32.6068 154.288,32.1068 155.5,31C 156.749,30.2599 157.749,30.4265 158.5,31.5 Z"/></g>
<g><path style="opacity:0.999" fill="#1cb8fa" d="M 38.5,36.5 C 38.5,43.1667 38.5,49.8333 38.5,56.5C 37.6829,58.9686 37.1829,61.6353 37,64.5C 36.5065,62.8659 36.3398,61.1992 36.5,59.5C 36.7892,55.8936 36.4558,52.3936 35.5,49C 32.5738,48.7822 29.7405,48.2822 27,47.5C 17.9172,48.4845 8.75058,48.8178 -0.5,48.5C -0.5,44.5 -0.5,40.5 -0.5,36.5C 9.53124,36.1032 19.5312,35.7699 29.5,35.5C 31.7617,36.4669 34.095,37.1336 36.5,37.5C 36.3359,40.1873 36.5026,42.854 37,45.5C 37.1805,42.3054 37.6805,39.3054 38.5,36.5 Z"/></g>
<g><path style="opacity:0.999" fill="#1cb8fa" d="M 191.5,36.5 C 191.5,40.5 191.5,44.5 191.5,48.5C 181.584,48.819 171.75,48.4856 162,47.5C 159.931,48.2638 157.764,48.7638 155.5,49C 154.736,51.0693 154.236,53.236 154,55.5C 153.814,52.9644 153.314,50.631 152.5,48.5C 152.5,44.5 152.5,40.5 152.5,36.5C 153.319,39.3054 153.819,42.3054 154,45.5C 154.101,42.3004 154.768,39.3004 156,36.5C 167.874,36.4482 179.707,36.4482 191.5,36.5 Z"/></g>
<g><path style="opacity:0.004" fill="#445eff" d="M 41.5,38.5 C 41.1667,38.5 40.8333,38.5 40.5,38.5C 39.4707,34.6358 39.804,34.6358 41.5,38.5 Z"/></g>
<g><path style="opacity:0.004" fill="#3ba0c0" d="M 150.5,149.5 C 150.167,149.5 149.833,149.5 149.5,149.5C 149.012,111.414 149.512,73.4141 151,35.5C 150.519,73.4445 150.352,111.445 150.5,149.5 Z"/></g>
<g><path style="opacity:1" fill="#1eb2f8" d="M 36.5,59.5 C 23.9601,59.2181 11.6268,59.5514 -0.5,60.5C -0.5,56.5 -0.5,52.5 -0.5,48.5C 8.75058,48.8178 17.9172,48.4845 27,47.5C 29.7405,48.2822 32.5738,48.7822 35.5,49C 36.4558,52.3936 36.7892,55.8936 36.5,59.5 Z"/></g>
<g><path style="opacity:1" fill="#1eb2f9" d="M 191.5,48.5 C 191.5,52.1667 191.5,55.8333 191.5,59.5C 179.787,59.7385 168.287,59.7385 157,59.5C 155.245,60.67 154.245,62.3367 154,64.5C 153.768,63.2625 153.268,62.2625 152.5,61.5C 152.5,57.1667 152.5,52.8333 152.5,48.5C 153.314,50.631 153.814,52.9644 154,55.5C 154.236,53.236 154.736,51.0693 155.5,49C 157.764,48.7638 159.931,48.2638 162,47.5C 171.75,48.4856 181.584,48.819 191.5,48.5 Z"/></g>
<g><path style="opacity:0.004" fill="#14e5ff" d="M 91.5,53.5 C 89.0248,53.2533 89.0248,52.5866 91.5,51.5C 92.463,51.9698 92.463,52.6365 91.5,53.5 Z"/></g>
<g><path style="opacity:0.004" fill="#356dff" d="M 105.5,56.5 C 106.497,55.2875 107.497,55.4542 108.5,57C 107.906,57.4643 107.239,57.631 106.5,57.5C 106.5,56.8333 106.167,56.5 105.5,56.5 Z"/></g>
<g><path style="opacity:0.999" fill="#21a9f7" d="M 38.5,56.5 C 38.5,63.8333 38.5,71.1667 38.5,78.5C 37.71,79.6085 37.21,80.9419 37,82.5C 36.8008,80.5975 35.9675,79.0975 34.5,78C 23.0545,77.6813 11.3878,77.5146 -0.5,77.5C -0.5,71.8333 -0.5,66.1667 -0.5,60.5C 11.6268,59.5514 23.9601,59.2181 36.5,59.5C 36.3398,61.1992 36.5065,62.8659 37,64.5C 37.1829,61.6353 37.6829,58.9686 38.5,56.5 Z"/></g>
<g><path style="opacity:0.999" fill="#21acf8" d="M 105.5,56.5 C 106.167,56.5 106.5,56.8333 106.5,57.5C 109.678,60.2583 113.345,62.2583 117.5,63.5C 117.5,64.1667 117.833,64.5 118.5,64.5C 120.663,66.0828 122.996,67.4161 125.5,68.5C 126.167,69.1667 126.833,69.8333 127.5,70.5C 125.864,71.2455 124.197,70.9122 122.5,69.5C 121.914,69.7093 121.414,70.0426 121,70.5C 115.198,69.813 109.365,69.1463 103.5,68.5C 91.8793,69.3128 80.2126,69.8128 68.5,70C 66.701,71.0363 65.0343,71.2029 63.5,70.5C 72.8333,64.8333 82.1667,59.1667 91.5,53.5C 93.7819,52.6103 96.1152,52.4436 98.5,53C 100.577,54.705 102.91,55.8717 105.5,56.5 Z"/></g>
<g><path style="opacity:1" fill="#21a9f7" d="M 191.5,59.5 C 191.5,65.5 191.5,71.5 191.5,77.5C 180.085,77.5437 168.585,77.5437 157,77.5C 155.245,78.67 154.245,80.3367 154,82.5C 153.79,80.9419 153.29,79.6085 152.5,78.5C 152.5,72.8333 152.5,67.1667 152.5,61.5C 153.268,62.2625 153.768,63.2625 154,64.5C 154.245,62.3367 155.245,60.67 157,59.5C 168.287,59.7385 179.787,59.7385 191.5,59.5 Z"/></g>
<g><path style="opacity:0.016" fill="#388be3" d="M 117.5,63.5 C 118.497,62.2875 119.497,62.4542 120.5,64C 119.906,64.4643 119.239,64.631 118.5,64.5C 117.833,64.5 117.5,64.1667 117.5,63.5 Z"/></g>
<g><path style="opacity:0.012" fill="#2f86ff" d="M 125.5,68.5 C 124.632,66.1081 125.299,65.9414 127.5,68C 126.906,68.4643 126.239,68.631 125.5,68.5 Z"/></g>
<g><path style="opacity:0.996" fill="#23a5f6" d="M 127.5,70.5 C 128.167,70.5 128.833,70.5 129.5,70.5C 129.5,71.1667 129.833,71.5 130.5,71.5C 133.095,73.0144 134.429,75.3477 134.5,78.5C 133.683,80.9686 133.183,83.6353 133,86.5C 132.506,84.8659 132.34,83.1992 132.5,81.5C 132.657,80.1266 132.49,78.7932 132,77.5C 109.32,77.5523 85.9868,77.5523 62,77.5C 59.2439,77.4235 58.0772,78.7569 58.5,81.5C 58.6495,82.552 58.4828,83.552 58,84.5C 57.8019,82.6183 57.3019,80.9516 56.5,79.5C 56.5,78.1667 56.5,76.8333 56.5,75.5C 58.228,73.1226 60.5614,71.456 63.5,70.5C 65.0343,71.2029 66.701,71.0363 68.5,70C 80.2126,69.8128 91.8793,69.3128 103.5,68.5C 109.365,69.1463 115.198,69.813 121,70.5C 121.414,70.0426 121.914,69.7093 122.5,69.5C 124.197,70.9122 125.864,71.2455 127.5,70.5 Z"/></g>
<g><path style="opacity:0.012" fill="#3fa1ff" d="M 129.5,70.5 C 130.497,69.2875 131.497,69.4542 132.5,71C 131.906,71.4643 131.239,71.631 130.5,71.5C 129.833,71.5 129.5,71.1667 129.5,70.5 Z"/></g>
<g><path style="opacity:1" fill="#24a0f4" d="M 132.5,81.5 C 130.97,82.0668 129.47,82.7334 128,83.5C 110.418,82.6125 93.4177,82.6125 77,83.5C 70.8347,82.8138 64.668,82.1472 58.5,81.5C 58.0772,78.7569 59.2439,77.4235 62,77.5C 85.9868,77.5523 109.32,77.5523 132,77.5C 132.49,78.7932 132.657,80.1266 132.5,81.5 Z"/></g>
<g><path style="opacity:1" fill="#269df4" d="M 134.5,78.5 C 134.5,84.1667 134.5,89.8333 134.5,95.5C 132.989,93.5242 132.156,91.1909 132,88.5C 131.667,89.1667 131.333,89.8333 131,90.5C 130.751,89.376 130.251,88.376 129.5,87.5C 107.028,87.5648 84.6943,87.5648 62.5,87.5C 60.1243,88.3758 58.6243,90.0425 58,92.5C 57.8091,90.2922 57.3091,88.2922 56.5,86.5C 56.5,84.1667 56.5,81.8333 56.5,79.5C 57.3019,80.9516 57.8019,82.6183 58,84.5C 58.4828,83.552 58.6495,82.552 58.5,81.5C 64.668,82.1472 70.8347,82.8138 77,83.5C 93.4177,82.6125 110.418,82.6125 128,83.5C 129.47,82.7334 130.97,82.0668 132.5,81.5C 132.34,83.1992 132.506,84.8659 133,86.5C 133.183,83.6353 133.683,80.9686 134.5,78.5 Z"/></g>
<g><path style="opacity:0.999" fill="#269cf4" d="M 191.5,77.5 C 191.5,83.5 191.5,89.5 191.5,95.5C 181.293,95.7531 171.127,95.7531 161,95.5C 158.272,95.7642 155.939,96.7642 154,98.5C 153.722,97.5842 153.222,96.9175 152.5,96.5C 152.5,90.5 152.5,84.5 152.5,78.5C 153.29,79.6085 153.79,80.9419 154,82.5C 154.245,80.3367 155.245,78.67 157,77.5C 168.585,77.5437 180.085,77.5437 191.5,77.5 Z"/></g>
<g><path style="opacity:0.012" fill="#4ba8ff" d="M 56.5,75.5 C 55.6687,89.9943 55.1687,104.661 55,119.5C 54.3333,104.5 54.3333,89.5 55,74.5C 56.1068,73.2881 56.6068,73.6214 56.5,75.5 Z"/></g>
<g><path style="opacity:1" fill="#279bf3" d="M -0.5,77.5 C 11.3878,77.5146 23.0545,77.6813 34.5,78C 35.9675,79.0975 36.8008,80.5975 37,82.5C 37.21,80.9419 37.71,79.6085 38.5,78.5C 38.5,84.5 38.5,90.5 38.5,96.5C 37.7784,96.9175 37.2784,97.5842 37,98.5C 33.9919,96.7737 30.6585,95.7737 27,95.5C 18.0379,95.3867 8.87125,95.72 -0.5,96.5C -0.5,90.1667 -0.5,83.8333 -0.5,77.5 Z"/></g>
<g><path style="opacity:1" fill="#2898f3" d="M 56.5,86.5 C 57.3091,88.2922 57.8091,90.2922 58,92.5C 58.6243,90.0425 60.1243,88.3758 62.5,87.5C 84.6943,87.5648 107.028,87.5648 129.5,87.5C 130.251,88.376 130.751,89.376 131,90.5C 131.333,89.8333 131.667,89.1667 132,88.5C 132.156,91.1909 132.989,93.5242 134.5,95.5C 134.5,98.5 134.5,101.5 134.5,104.5C 134.167,104.5 133.833,104.5 133.5,104.5C 133.002,101.513 132.502,98.5131 132,95.5C 107.549,96.2845 83.2155,96.2845 59,95.5C 58.6667,97.1667 58.3333,98.8333 58,100.5C 57.8019,98.6183 57.3019,96.9516 56.5,95.5C 56.5,92.5 56.5,89.5 56.5,86.5 Z"/></g>
<g><path style="opacity:1" fill="#2a92f1" d="M 56.5,95.5 C 57.3019,96.9516 57.8019,98.6183 58,100.5C 58.3333,98.8333 58.6667,97.1667 59,95.5C 83.2155,96.2845 107.549,96.2845 132,95.5C 132.502,98.5131 133.002,101.513 133.5,104.5C 133.795,106.735 133.461,108.735 132.5,110.5C 132.5,108.5 132.5,106.5 132.5,104.5C 107.925,104.828 83.4253,104.494 59,103.5C 58.5045,105.473 58.3379,107.473 58.5,109.5C 57.8333,108.167 57.1667,106.833 56.5,105.5C 56.5,102.167 56.5,98.8333 56.5,95.5 Z"/></g>
<g><path style="opacity:0.999" fill="#2b8ef0" d="M 38.5,96.5 C 38.5,99.5 38.5,102.5 38.5,105.5C 37.08,107.886 36.08,110.553 35.5,113.5C 23.5506,112.521 11.5506,112.187 -0.5,112.5C -0.5,107.167 -0.5,101.833 -0.5,96.5C 8.87125,95.72 18.0379,95.3867 27,95.5C 30.6585,95.7737 33.9919,96.7737 37,98.5C 37.2784,97.5842 37.7784,96.9175 38.5,96.5 Z"/></g>
<g><path style="opacity:0.999" fill="#2c8cef" d="M 132.5,110.5 C 132.539,111.756 132.039,112.756 131,113.5C 106.908,112.506 82.7414,112.172 58.5,112.5C 58.5,111.5 58.5,110.5 58.5,109.5C 58.3379,107.473 58.5045,105.473 59,103.5C 83.4253,104.494 107.925,104.828 132.5,104.5C 132.5,106.5 132.5,108.5 132.5,110.5 Z"/></g>
<g><path style="opacity:0.999" fill="#2b8ef0" d="M 191.5,95.5 C 191.5,101.167 191.5,106.833 191.5,112.5C 179.449,112.187 167.449,112.521 155.5,113.5C 154.92,110.553 153.92,107.886 152.5,105.5C 152.5,102.5 152.5,99.5 152.5,96.5C 153.222,96.9175 153.722,97.5842 154,98.5C 155.939,96.7642 158.272,95.7642 161,95.5C 171.127,95.7531 181.293,95.7531 191.5,95.5 Z"/></g>
<g><path style="opacity:0.999" fill="#2e86ee" d="M 38.5,105.5 C 38.5,111.167 38.5,116.833 38.5,122.5C 37.6862,120.369 37.1862,118.036 37,115.5C 36.8142,117.9 36.3142,120.234 35.5,122.5C 23.5506,121.521 11.5506,121.187 -0.5,121.5C -0.5,118.5 -0.5,115.5 -0.5,112.5C 11.5506,112.187 23.5506,112.521 35.5,113.5C 36.08,110.553 37.08,107.886 38.5,105.5 Z"/></g>
<g><path style="opacity:0.993" fill="#2e87ef" d="M 133.5,104.5 C 133.833,104.5 134.167,104.5 134.5,104.5C 134.5,109.5 134.5,114.5 134.5,119.5C 133.833,119.5 133.5,119.833 133.5,120.5C 132.833,120.5 132.5,120.833 132.5,121.5C 131.833,121.5 131.5,121.833 131.5,122.5C 130.391,122.557 129.391,122.89 128.5,123.5C 118.522,122.168 108.189,121.501 97.5,121.5C 87.1667,121.667 76.8333,121.833 66.5,122C 65.4734,122.513 64.4734,123.013 63.5,123.5C 60.3252,123.16 58.1585,121.493 57,118.5C 56.501,114.179 56.3343,109.846 56.5,105.5C 57.1667,106.833 57.8333,108.167 58.5,109.5C 58.5,110.5 58.5,111.5 58.5,112.5C 82.7414,112.172 106.908,112.506 131,113.5C 132.039,112.756 132.539,111.756 132.5,110.5C 133.461,108.735 133.795,106.735 133.5,104.5 Z"/></g>
<g><path style="opacity:0.999" fill="#2e87ef" d="M 152.5,105.5 C 153.92,107.886 154.92,110.553 155.5,113.5C 167.449,112.521 179.449,112.187 191.5,112.5C 191.5,115.5 191.5,118.5 191.5,121.5C 179.495,121.333 167.495,121.5 155.5,122C 154.648,123.728 153.648,123.895 152.5,122.5C 152.5,116.833 152.5,111.167 152.5,105.5 Z"/></g>
<g><path style="opacity:0.004" fill="#4357ea" d="M 134.5,119.5 C 135.507,121.268 134.841,122.601 132.5,123.5C 131.893,123.376 131.56,123.043 131.5,122.5C 132.167,122.5 132.5,122.167 132.5,121.5C 133.167,121.5 133.5,121.167 133.5,120.5C 134.167,120.5 134.5,120.167 134.5,119.5 Z"/></g>
<g><path style="opacity:1" fill="#317fed" d="M 128.5,123.5 C 125.291,125.265 122.291,127.265 119.5,129.5C 115.164,131.332 111.164,133.665 107.5,136.5C 106.508,136.328 105.842,136.662 105.5,137.5C 102.423,139.368 99.0898,140.701 95.5,141.5C 93.0678,141.114 90.7345,140.447 88.5,139.5C 88.5,138.833 88.1667,138.5 87.5,138.5C 85.3374,136.917 83.0041,135.584 80.5,134.5C 79.4863,133.326 78.153,132.66 76.5,132.5C 76.5,131.833 76.1667,131.5 75.5,131.5C 72.322,128.742 68.6553,126.742 64.5,125.5C 64.5,124.833 64.1667,124.5 63.5,124.5C 63.5,124.167 63.5,123.833 63.5,123.5C 64.4734,123.013 65.4734,122.513 66.5,122C 76.8333,121.833 87.1667,121.667 97.5,121.5C 108.189,121.501 118.522,122.168 128.5,123.5 Z"/></g>
<g><path style="opacity:1" fill="#3080ed" d="M 191.5,121.5 C 191.5,125.167 191.5,128.833 191.5,132.5C 179.167,132.5 166.833,132.5 154.5,132.5C 153.833,132.5 153.167,132.5 152.5,132.5C 152.5,129.167 152.5,125.833 152.5,122.5C 153.648,123.895 154.648,123.728 155.5,122C 167.495,121.5 179.495,121.333 191.5,121.5 Z"/></g>
<g><path style="opacity:1" fill="#3080ed" d="M 38.5,122.5 C 38.5,125.5 38.5,128.5 38.5,131.5C 37.8333,131.833 37.1667,132.167 36.5,132.5C 24.1667,132.5 11.8333,132.5 -0.5,132.5C -0.5,128.833 -0.5,125.167 -0.5,121.5C 11.5506,121.187 23.5506,121.521 35.5,122.5C 36.3142,120.234 36.8142,117.9 37,115.5C 37.1862,118.036 37.6862,120.369 38.5,122.5 Z"/></g>
<g><path style="opacity:0.02" fill="#457ce9" d="M 63.5,124.5 C 64.1667,124.5 64.5,124.833 64.5,125.5C 63.5029,126.713 62.5029,126.546 61.5,125C 62.0944,124.536 62.7611,124.369 63.5,124.5 Z"/></g>
<g><path style="opacity:0.008" fill="#2a80e9" d="M 119.5,129.5 C 120.239,129.369 120.906,129.536 121.5,130C 120.563,130.692 119.897,130.525 119.5,129.5 Z"/></g>
<g><path style="opacity:0.004" fill="#336291" d="M 75.5,131.5 C 76.1667,131.5 76.5,131.833 76.5,132.5C 75.5029,133.713 74.5029,133.546 73.5,132C 74.0944,131.536 74.7611,131.369 75.5,131.5 Z"/></g>
<g><path style="opacity:0.999" fill="#3379eb" d="M -0.5,132.5 C 11.8333,132.5 24.1667,132.5 36.5,132.5C 36.5,135.833 36.5,139.167 36.5,142.5C 24.1667,142.5 11.8333,142.5 -0.5,142.5C -0.5,139.167 -0.5,135.833 -0.5,132.5 Z"/></g>
<g><path style="opacity:0.999" fill="#3379eb" d="M 154.5,132.5 C 166.833,132.5 179.167,132.5 191.5,132.5C 191.5,135.833 191.5,139.167 191.5,142.5C 179.167,142.5 166.833,142.5 154.5,142.5C 154.5,139.167 154.5,135.833 154.5,132.5 Z"/></g>
<g><path style="opacity:0.016" fill="#3b70ff" d="M 80.5,134.5 C 81.3678,136.892 80.7012,137.059 78.5,135C 79.0944,134.536 79.7611,134.369 80.5,134.5 Z"/></g>
<g><path style="opacity:0.008" fill="#1e77ed" d="M 107.5,137.5 C 107.5,137.167 107.5,136.833 107.5,136.5C 110.167,136.833 110.167,137.167 107.5,137.5 Z"/></g>
<g><path style="opacity:0.004" fill="#3441f2" d="M 87.5,138.5 C 88.1667,138.5 88.5,138.833 88.5,139.5C 87.5029,140.713 86.5029,140.546 85.5,139C 86.0944,138.536 86.7611,138.369 87.5,138.5 Z"/></g>
<g><path style="opacity:0.004" fill="#3a57f0" d="M 105.5,137.5 C 106.167,137.5 106.833,137.5 107.5,137.5C 105.606,140.187 104.939,140.187 105.5,137.5 Z"/></g>
<g><path style="opacity:0.999" fill="#3573ea" d="M 38.5,131.5 C 38.5,138.5 38.5,145.5 38.5,152.5C 36.4176,152.472 34.5843,153.139 33,154.5C 21.5001,153.498 10.3334,153.498 -0.5,154.5C -0.5,150.5 -0.5,146.5 -0.5,142.5C 11.8333,142.5 24.1667,142.5 36.5,142.5C 36.5,139.167 36.5,135.833 36.5,132.5C 37.1667,132.167 37.8333,131.833 38.5,131.5 Z"/></g>
<g><path style="opacity:0.999" fill="#3573ea" d="M 152.5,132.5 C 153.167,132.5 153.833,132.5 154.5,132.5C 154.5,135.833 154.5,139.167 154.5,142.5C 166.833,142.5 179.167,142.5 191.5,142.5C 191.5,146.167 191.5,149.833 191.5,153.5C 179.687,153.624 168.52,153.957 158,154.5C 156.416,153.139 154.582,152.472 152.5,152.5C 152.5,145.833 152.5,139.167 152.5,132.5 Z"/></g>
<g><path style="opacity:0.008" fill="#4bafff" d="M 40.5,38.5 C 40.8333,38.5 41.1667,38.5 41.5,38.5C 41.9877,76.9192 41.4877,115.253 40,153.5C 40.4814,115.222 40.6481,76.8888 40.5,38.5 Z"/></g>
<g><path style="opacity:0.008" fill="#3666ff" d="M 149.5,149.5 C 149.833,149.5 150.167,149.5 150.5,149.5C 151.412,150.738 151.579,152.072 151,153.5C 150.209,152.255 149.709,150.922 149.5,149.5 Z"/></g>
<g><path style="opacity:0.994" fill="#376ee9" d="M 38.5,152.5 C 38.1667,153.167 37.8333,153.833 37.5,154.5C 36.8333,154.5 36.5,154.833 36.5,155.5C 35.5084,155.328 34.8417,155.662 34.5,156.5C 33.5084,156.328 32.8417,156.662 32.5,157.5C 31.5084,157.328 30.8417,157.662 30.5,158.5C 29.5084,158.328 28.8417,158.662 28.5,159.5C 23.0157,161.407 18.0157,164.073 13.5,167.5C 12.5084,167.328 11.8417,167.662 11.5,168.5C 10.5084,168.328 9.84171,168.662 9.5,169.5C 8.50838,169.328 7.84171,169.662 7.5,170.5C 6.50838,170.328 5.84171,170.662 5.5,171.5C 4.50838,171.328 3.84171,171.662 3.5,172.5C 2.16667,172.167 0.833333,171.833 -0.5,171.5C -0.5,165.833 -0.5,160.167 -0.5,154.5C 10.3334,153.498 21.5001,153.498 33,154.5C 34.5843,153.139 36.4176,152.472 38.5,152.5 Z"/></g>
<g><path style="opacity:0.993" fill="#376ee9" d="M 152.5,152.5 C 154.582,152.472 156.416,153.139 158,154.5C 168.52,153.957 179.687,153.624 191.5,153.5C 191.5,159.5 191.5,165.5 191.5,171.5C 190.508,171.328 189.842,171.662 189.5,172.5C 180.347,168.423 171.347,164.09 162.5,159.5C 162.158,158.662 161.492,158.328 160.5,158.5C 157.476,156.987 154.809,154.987 152.5,152.5 Z"/></g>
<g><path style="opacity:0.012" fill="#5554ff" d="M 37.5,154.5 C 38.8333,155.167 38.8333,155.167 37.5,154.5 Z"/></g>
<g><path style="opacity:0.012" fill="#5554ff" d="M 36.5,155.5 C 36.8333,155.5 37.1667,155.5 37.5,155.5C 37.3147,156.17 36.9813,156.17 36.5,155.5 Z"/></g>
<g><path style="opacity:0.008" fill="#3372ff" d="M 34.5,157.5 C 34.5,157.167 34.5,156.833 34.5,156.5C 35.1667,156.5 35.8333,156.5 36.5,156.5C 36.1583,157.338 35.4916,157.672 34.5,157.5 Z"/></g>
<g><path style="opacity:0.012" fill="#5265e9" d="M 32.5,158.5 C 32.5,158.167 32.5,157.833 32.5,157.5C 33.1667,157.5 33.8333,157.5 34.5,157.5C 34.1583,158.338 33.4916,158.672 32.5,158.5 Z"/></g>
<g><path style="opacity:0.012" fill="#4261f2" d="M 30.5,158.5 C 31.1667,158.5 31.8333,158.5 32.5,158.5C 31.4617,160.519 30.1284,160.853 28.5,159.5C 29.4916,159.672 30.1583,159.338 30.5,158.5 Z"/></g>
<g><path style="opacity:0.012" fill="#3d61f8" d="M 160.5,158.5 C 160.842,159.338 161.508,159.672 162.5,159.5C 161.151,160.797 159.818,160.63 158.5,159C 159.094,158.536 159.761,158.369 160.5,158.5 Z"/></g>
<g><path style="opacity:0.008" fill="#2280ff" d="M 13.5,168.5 C 13.5,168.167 13.5,167.833 13.5,167.5C 16.1667,167.833 16.1667,168.167 13.5,168.5 Z"/></g>
<g><path style="opacity:0.008" fill="#2a80e9" d="M 11.5,169.5 C 11.5,169.167 11.5,168.833 11.5,168.5C 12.1667,168.5 12.8333,168.5 13.5,168.5C 13.1583,169.338 12.4916,169.672 11.5,169.5 Z"/></g>
<g><path style="opacity:0.008" fill="#1d77ff" d="M 9.5,170.5 C 9.5,170.167 9.5,169.833 9.5,169.5C 10.1667,169.5 10.8333,169.5 11.5,169.5C 11.1583,170.338 10.4916,170.672 9.5,170.5 Z"/></g>
<g><path style="opacity:0.012" fill="#5265e9" d="M 7.5,171.5 C 7.5,171.167 7.5,170.833 7.5,170.5C 8.16667,170.5 8.83333,170.5 9.5,170.5C 9.15829,171.338 8.49162,171.672 7.5,171.5 Z"/></g>
<g><path style="opacity:0.012" fill="#5755c5" d="M 5.5,172.5 C 5.5,172.167 5.5,171.833 5.5,171.5C 6.16667,171.5 6.83333,171.5 7.5,171.5C 7.15829,172.338 6.49162,172.672 5.5,172.5 Z"/></g>
<g><path style="opacity:0.012" fill="#5265e9" d="M 3.5,173.5 C 3.5,173.167 3.5,172.833 3.5,172.5C 4.16667,172.5 4.83333,172.5 5.5,172.5C 5.15829,173.338 4.49162,173.672 3.5,173.5 Z"/></g>
<g><path style="opacity:0.008" fill="#3a75a9" d="M 189.5,173.5 C 189.5,173.167 189.5,172.833 189.5,172.5C 190.167,172.5 190.833,172.5 191.5,172.5C 191.5,172.833 191.5,173.167 191.5,173.5C 190.833,173.5 190.167,173.5 189.5,173.5 Z"/></g>
<g><path style="opacity:0.008" fill="#4880ff" d="M 3.5,173.5 C 3.10343,174.525 2.43677,174.692 1.5,174C 2.09442,173.536 2.76109,173.369 3.5,173.5 Z"/></g>
<g><path style="opacity:0.008" fill="#6880ff" d="M 189.5,173.5 C 189.103,174.525 188.437,174.692 187.5,174C 188.094,173.536 188.761,173.369 189.5,173.5 Z"/></g>
</svg>
