<svg xmlns="http://www.w3.org/2000/svg" xml:space="preserve" id="圖層_1" x="0" y="0" version="1.1" viewBox="0 0 521.1 100"><style>.st0{fill:#03cf5d}</style><path d="m150 0-39.2 100H144l4.8-13.2h37.5l4.8 13.2h33.3L185.3 0H150zm6.5 62.7 11.1-31.2 11.2 31.2h-22.3z" class="st0"/><polygon points="363.2 62 408.8 62 408.8 38 363.2 38 363.2 24.5 409.3 24.5 409.3 0 331.4 0 331.4 100 410.3 100 410.3 75.5 363.2 75.5" class="st0"/><polygon points="264.2 65.8 240.7 0 207.4 0 246.6 100 281.9 100 321.1 0 287.7 0" class="st0"/><polygon points="68.1 53.5 30.9 0 0 0 0 100 32.4 100 32.4 46.5 69.6 100 100.5 100 100.5 0 68.1 0" class="st0"/><path d="m495.8 65.7 3-1.3c11.7-4.8 17.6-15.4 17.6-28.7 0-12.7-4.6-22-13.7-27.8A62.4 62.4 0 0 0 468.2 0H426v100h31.4V72h11.2l19.1 28h33.4l-25.3-34.3zM474 46.6h-17V25.5h17a10.5 10.5 0 0 1 0 21z" class="st0"/></svg>