<svg preserveAspectRatio="xMidYMid" viewBox="0 0 256 226"><polygon fill="#05BDBA" points="69.2 188.1 66.8 188.1 54.7 176 54.7 173.6 73.1 155.2 85.9 155.2 87.6 156.9 87.6 169.6"/><polygon fill="#05BDBA" points="54.7 51.6 54.7 49.2 66.8 37.1 69.2 37.1 87.6 55.6 87.6 68.4 85.9 70.1 73.1 70.1"/><path fill="#014847" d="M161 149.2h-17.6l-1.5-1.5v-41c0-7.4-2.9-13-11.7-13.2-4.5-.1-9.7 0-15.3.2l-.8.8v53.2l-1.5 1.5H95.1l-1.5-1.5V77.5l1.5-1.4h39.5a27.8 27.8 0 0 1 27.8 27.8v43.8l-1.5 1.5Z"/><polygon fill="#05BDBA" points="71.7 122.9 1.5 122.9 0 121.4 0 103.8 1.5 102.4 71.7 102.4 73.1 103.8 73.1 121.4"/><polygon fill="#05BDBA" points="254.5 122.9 184.3 122.9 182.9 121.4 182.9 103.8 184.3 102.4 254.5 102.4 256 103.8 256 121.4"/><polygon fill="#05BDBA" points="117.9 54.1 117.9 1.5 119.3 0 136.9 0 138.4 1.5 138.4 54.1 136.9 55.6 119.3 55.6"/><polygon fill="#05BDBA" points="117.9 223.8 117.9 171.1 119.3 169.7 136.9 169.7 138.4 171.1 138.4 223.8 136.9 225.3 119.3 225.3"/></svg>