<?xml version="1.0" encoding="UTF-8"?>
<!DOCTYPE svg PUBLIC "-//W3C//DTD SVG 1.1//EN" "http://www.w3.org/Graphics/SVG/1.1/DTD/svg11.dtd">
<svg xmlns="http://www.w3.org/2000/svg" version="1.1" width="200px" height="136px" style="shape-rendering:geometricPrecision; text-rendering:geometricPrecision; image-rendering:optimizeQuality; fill-rule:evenodd; clip-rule:evenodd" xmlns:xlink="http://www.w3.org/1999/xlink">
<g><path style="opacity:0.977" fill="#22b572" d="M -0.5,-0.5 C -0.166667,-0.5 0.166667,-0.5 0.5,-0.5C 27.1959,30.5252 53.8626,61.5252 80.5,92.5C 80.5,93.1667 80.5,93.8333 80.5,94.5C 53.5,94.5 26.5,94.5 -0.5,94.5C -0.5,62.8333 -0.5,31.1667 -0.5,-0.5 Z"/></g>
<g><path style="opacity:0.984" fill="#28aae1" d="M 80.5,-0.5 C 80.8333,-0.5 81.1667,-0.5 81.5,-0.5C 101.177,22.2071 120.843,44.8738 140.5,67.5C 140.709,68.9217 141.209,70.255 142,71.5C 149.109,78.7652 155.609,86.4319 161.5,94.5C 134.5,94.5 107.5,94.5 80.5,94.5C 80.5,93.8333 80.5,93.1667 80.5,92.5C 80.5,61.5 80.5,30.5 80.5,-0.5 Z"/></g>
<g><path style="opacity:0.996" fill="#0e9ccd" d="M 198.5,-0.5 C 198.833,-0.5 199.167,-0.5 199.5,-0.5C 199.5,31.1667 199.5,62.8333 199.5,94.5C 186.833,94.5 174.167,94.5 161.5,94.5C 155.609,86.4319 149.109,78.7652 142,71.5C 141.209,70.255 140.709,68.9217 140.5,67.5C 160.208,45.1274 179.541,22.4607 198.5,-0.5 Z"/></g>
<g><path style="opacity:0.818" fill="#343534" d="M 72.5,135.5 C 70.5,135.5 68.5,135.5 66.5,135.5C 66.1667,134.167 65.8333,134.167 65.5,135.5C 62.5,135.5 59.5,135.5 56.5,135.5C 52.2208,132.249 50.7208,127.915 52,122.5C 52.6853,119.943 54.1853,118.109 56.5,117C 59.7603,116.216 62.9269,116.383 66,117.5C 66.4986,113.848 66.6653,110.182 66.5,106.5C 68.5,106.5 70.5,106.5 72.5,106.5C 72.5,116.167 72.5,125.833 72.5,135.5 Z M 59.5,121.5 C 66.4863,121.331 68.153,124.164 64.5,130C 57.4159,130.475 55.7492,127.642 59.5,121.5 Z"/></g>
<g><path style="opacity:0.908" fill="#343534" d="M 162.5,135.5 C 161.5,135.5 160.5,135.5 159.5,135.5C 159.5,125.833 159.5,116.167 159.5,106.5C 160.5,106.5 161.5,106.5 162.5,106.5C 162.5,116.167 162.5,125.833 162.5,135.5 Z"/></g>
<g><path style="opacity:0.864" fill="#343534" d="M 25.5,135.5 C 22.8333,135.5 20.1667,135.5 17.5,135.5C 13.6891,129.222 9.8558,122.889 6,116.5C 5.50046,122.825 5.33379,129.158 5.5,135.5C 3.83333,135.5 2.16667,135.5 0.5,135.5C 0.5,126.167 0.5,116.833 0.5,107.5C 2.85684,107.337 5.19018,107.503 7.5,108C 11.209,113.919 15.0424,119.752 19,125.5C 19.4995,119.509 19.6662,113.509 19.5,107.5C 21.5,107.5 23.5,107.5 25.5,107.5C 25.5,116.833 25.5,126.167 25.5,135.5 Z"/></g>
<g><path style="opacity:0.667" fill="#343534" d="M 150.5,108.5 C 153.5,108.167 154.833,109.5 154.5,112.5C 152.833,112.5 151.167,112.5 149.5,112.5C 149.433,111.041 149.766,109.708 150.5,108.5 Z"/></g>
<g><path style="opacity:0.836" fill="#343534" d="M 44.5,135.5 C 40.8333,135.5 37.1667,135.5 33.5,135.5C 27.4187,129.949 27.0853,124.116 32.5,118C 43.8637,113.716 49.3637,117.55 49,129.5C 47.668,131.66 46.168,133.66 44.5,135.5 Z M 36.5,121.5 C 43.4863,121.331 45.153,124.164 41.5,130C 34.4159,130.475 32.7492,127.642 36.5,121.5 Z"/></g>
<g><path style="opacity:0.812" fill="#343534" d="M 90.5,135.5 C 87.1667,135.5 83.8333,135.5 80.5,135.5C 73.8913,129.378 73.8913,123.211 80.5,117C 90.4523,114.455 95.1189,118.288 94.5,128.5C 93.1266,128.343 91.7932,128.51 90.5,129C 94.3946,131.154 94.3946,133.321 90.5,135.5 Z M 83.5,120.5 C 85.6648,120.116 87.3315,120.783 88.5,122.5C 86.2351,123.647 83.9018,123.814 81.5,123C 82.3805,122.292 83.0472,121.458 83.5,120.5 Z M 81.5,129.5 C 83.9664,128.366 86.633,128.199 89.5,129C 86.8919,131.946 84.2252,132.112 81.5,129.5 Z"/></g>
<g><path style="opacity:0.736" fill="#343534" d="M 125.5,135.5 C 124.167,135.5 122.833,135.5 121.5,135.5C 121.666,130.821 121.499,126.155 121,121.5C 118.368,118.808 116.034,119.141 114,122.5C 113.501,126.821 113.334,131.154 113.5,135.5C 112.167,135.5 110.833,135.5 109.5,135.5C 109.666,130.821 109.499,126.155 109,121.5C 106.047,119.113 103.714,119.779 102,123.5C 101.501,127.486 101.334,131.486 101.5,135.5C 100.5,135.5 99.5,135.5 98.5,135.5C 98.653,129.131 98.3197,122.797 97.5,116.5C 99.451,116.227 100.951,116.893 102,118.5C 105.394,115.968 108.894,115.968 112.5,118.5C 117.43,115.349 121.596,116.016 125,120.5C 125.499,125.489 125.666,130.489 125.5,135.5 Z"/></g>
<g><path style="opacity:0.772" fill="#343534" d="M 145.5,135.5 C 144.167,135.5 142.833,135.5 141.5,135.5C 141.167,134.167 140.833,134.167 140.5,135.5C 137.5,135.5 134.5,135.5 131.5,135.5C 129.568,132.823 129.068,129.823 130,126.5C 133.579,124.484 137.413,123.151 141.5,122.5C 138.766,118.879 135.599,118.545 132,121.5C 130.941,121.37 130.108,120.87 129.5,120C 134.266,115.628 139.099,115.462 144,119.5C 144.265,124.882 144.765,130.215 145.5,135.5 Z M 137.5,126.5 C 138.833,126.5 140.167,126.5 141.5,126.5C 140.383,132.692 137.383,133.859 132.5,130C 133.955,128.374 135.622,127.208 137.5,126.5 Z"/></g>
<g><path style="opacity:0.868" fill="#343534" d="M 153.5,135.5 C 152.5,135.5 151.5,135.5 150.5,135.5C 150.5,129.167 150.5,122.833 150.5,116.5C 151.5,116.5 152.5,116.5 153.5,116.5C 153.5,122.833 153.5,129.167 153.5,135.5 Z"/></g>
<g><path style="opacity:0.742" fill="#343534" d="M 181.5,135.5 C 178.167,135.5 174.833,135.5 171.5,135.5C 165.419,129.949 165.085,124.116 170.5,118C 179.689,114.593 184.689,117.76 185.5,127.5C 180.489,127.334 175.489,127.501 170.5,128C 173.592,133.415 177.425,133.915 182,129.5C 182.925,130.047 183.758,130.713 184.5,131.5C 183.476,132.852 182.476,134.185 181.5,135.5 Z M 175.5,119.5 C 178.412,119.789 180.412,121.289 181.5,124C 177.833,124.667 174.167,124.667 170.5,124C 171.445,121.554 173.111,120.054 175.5,119.5 Z"/></g>
<g><path style="opacity:0.671" fill="#343534" d="M 199.5,116.5 C 199.5,117.833 199.5,119.167 199.5,120.5C 196.956,120.104 194.789,120.771 193,122.5C 192.501,126.821 192.334,131.154 192.5,135.5C 191.167,135.5 189.833,135.5 188.5,135.5C 188.5,129.167 188.5,122.833 188.5,116.5C 192.127,117.539 195.794,117.539 199.5,116.5 Z"/></g>
</svg>
