<svg xmlns="http://www.w3.org/2000/svg" preserveAspectRatio="xMidYMid" viewBox="0 0 256 268"><path fill="#FFFFFF" d="M16 11.5 164 .6c18.3-1.6 23-.5 34.4 7.8l47.2 33.3c7.8 5.7 10.4 7.3 10.4 13.5v182.5c0 11.5-4.2 18.2-18.7 19.3L65.4 267.4c-10.9.5-16-1-21.8-8.3L8.8 213.8C2.6 205.5 0 199.3 0 192V29.7c0-9.3 4.2-17.1 16-18.2Z"/><path fill="#000000" d="m164 .6-148 11c-11.8 1-16 8.8-16 18.1V192c0 7.3 2.6 13.5 8.8 21.8l34.8 45.3c5.7 7.2 11 8.8 21.8 8.3L237.3 257c14.5-1 18.7-7.8 18.7-19.3V55.2c0-5.9-2.3-7.6-9.2-12.7l-1.2-.8-47.2-33.3C186.9.1 182.3-1 164 .6ZM69.4 52.2c-14 1-17.2 1.2-25.2-5.3L24 30.8c-2-2.1-1-4.7 4.1-5.2l142.3-10.4c12-1 18.2 3.1 22.9 6.7l24.4 17.7c1 .5 3.6 3.7.5 3.7L71 52l-1.8.1ZM53 236.2v-155c0-6.7 2-9.9 8.3-10.4L230 61c5.7-.5 8.3 3.2 8.3 10v153.8c0 6.8-1 12.5-10.4 13l-161.4 9.4c-9.4.5-13.5-2.6-13.5-11ZM212.4 89.5c1 4.7 0 9.4-4.7 10l-7.8 1.5v114.4c-6.7 3.6-13 5.7-18.2 5.7-8.3 0-10.4-2.6-16.6-10.4l-50.9-80V208l16.1 3.6s0 9.4-13 9.4l-35.8 2c-1-2 0-7.2 3.7-8.2l9.3-2.6V109.8l-13-1c-1-4.7 1.6-11.5 8.8-12l38.5-2.6 53 81.1v-71.7l-13.6-1.6c-1-5.7 3.1-9.9 8.3-10.4l35.9-2Z"/></svg>