<svg xmlns="http://www.w3.org/2000/svg" preserveAspectRatio="xMidYMid" viewBox="0 0 256 256"><path fill="currentColor" d="m140.8 1.8-5.2 64.8a66.1 66.1 0 0 0-17 .3l-3-31.4c0-1 .8-1.9 1.8-1.9h5.3l-2.6-31.8c0-1 .7-1.8 1.7-1.8h17.4c1 0 1.8.9 1.6 1.8ZM96.8 5c-.2-1-1.2-1.5-2.1-1.2l-16.4 6c-1 .4-1.4 1.4-1 2.3l13.4 29-5 1.9c-1 .3-1.4 1.4-1 2.2l13.6 28.5a61 61 0 0 1 15.9-6L96.9 5Zm-40 18 37.6 53a61.7 61.7 0 0 0-12.8 11.2L59 65c-.7-.7-.6-1.9 0-2.5l4.2-3.4-22.4-22.7c-.7-.7-.6-1.8.1-2.5l13.3-11.1c.8-.7 1.9-.5 2.5.2ZM25 53.8c-.7-.6-1.9-.3-2.4.5L14 69.4c-.5.9-.1 2 .7 2.4l29 13.6-2.8 4.6c-.5.9-.1 2 .8 2.4l28.8 13.1c2-5.3 4.8-10.3 8.2-14.8l-53.6-37Zm-21 41c.1-1 1.1-1.6 2-1.4l63 16.4c-1.6 5.3-2.6 11-2.7 16.8L34.7 124c-1 0-1.7-1-1.5-2l1-5.2-31.9-3c-1 0-1.6-1-1.5-2l3-17.2v.1Zm-2.4 42.4c-1 .1-1.6 1-1.5 2l3 17.2c.2 1 1.2 1.5 2.1 1.3l31-8 .9 5.3c0 1 1 1.5 2 1.3l30.5-8.4c-1.8-5.3-3-10.9-3.2-16.6l-64.9 6h.1Zm10.1 45.1c-.5-.8-.1-1.9.7-2.3l58.7-28a60.6 60.6 0 0 0 8.8 14.6L54 185c-.8.6-2 .4-2.4-.5l-2.7-4.7L22.7 198c-.8.5-1.9.3-2.4-.6l-8.8-15h.1Zm71.2-12.2-45.7 46.3c-.7.7-.6 1.8.1 2.5L50.6 230c.8.7 1.9.5 2.4-.2l18.5-26 4.2 3.4c.7.7 1.9.5 2.5-.3l17.9-26A64 64 0 0 1 82.9 170Zm-9 74.3c-1-.3-1.3-1.4-1-2.3L100 183c5 2.5 10.4 4.4 16 5.5l-8 30.6c-.2 1-1.2 1.5-2.2 1.1l-5-1.8-8.5 30.8c-.3.9-1.3 1.5-2.2 1.1l-16.4-6 .1.1Zm46.7-55.1-5.3 64.9c0 1 .7 1.8 1.7 1.8h17.4c1 0 1.8-.9 1.6-1.8l-2.5-31.8h5.3c1 0 1.8-.9 1.7-1.9l-3-31.4a58.4 58.4 0 0 1-17 .2Zm62.8-175.6c.4-.9 0-1.9-1-2.3l-16.3-6c-1-.3-2 .3-2.2 1.2l-8.5 30.8-5-1.8c-1-.4-2 .2-2.3 1l-8 30.7c5.8 1.1 11 3 16 5.5l27.3-59ZM219 39.5l-45.8 46.3a62.1 62.1 0 0 0-13.1-10.7L178 49c.6-.8 1.7-1 2.5-.4l4.1 3.5 18.5-26c.6-.8 1.7-1 2.4-.3L219 37c.8.7.8 1.8.1 2.5ZM243.7 76c1-.4 1.3-1.4.8-2.3l-8.8-15c-.5-1-1.6-1.1-2.4-.6L207 76l-2.7-4.5c-.5-.9-1.6-1.2-2.4-.5l-25.8 18.3A63 63 0 0 1 185 104l58.7-28Zm9.3 23.7 3 17c.1 1-.5 2-1.5 2l-64.8 6.1a61 61 0 0 0-3.2-16.6l30.4-8.4c1-.3 2 .4 2 1.3l1 5.3 30.9-8c1-.2 2 .3 2 1.3h.2Zm-3 62.9c1 .2 2-.4 2.1-1.4l3-17.1c.2-1-.5-1.8-1.5-2l-31.8-3 1-5.2c0-1-.5-1.9-1.5-2l-31.6-2.6c-.1 5.8-1 11.5-2.7 16.8l63 16.4Zm-16.7 39.1c-.5.9-1.7 1-2.4.6l-53.6-37c3.4-4.5 6.2-9.5 8.2-14.8l28.8 13.2c1 .4 1.3 1.4.8 2.3l-2.7 4.6 28.9 13.7c.8.4 1.2 1.5.7 2.3l-8.7 15.1Zm-71.7-21.8 37.7 53c.5.8 1.7 1 2.4.3L215 222c.8-.6.8-1.7.1-2.5l-22.4-22.6 4.1-3.4c.8-.7.8-1.8.1-2.5l-22.5-22.2a61 61 0 0 1-12.8 11Zm-.3 72.2c-1 .4-2-.2-2.2-1.1l-17.3-62.7a61 61 0 0 0 16-6l13.5 28.4c.4 1 0 2-1 2.3l-5 1.9 13.3 29c.5.9 0 1.9-.9 2.2l-16.4 6Z"/></svg>