<?xml version="1.0" encoding="utf-8"?>
<!-- Generator: Adobe Illustrator 24.2.1, SVG Export Plug-In . SVG Version: 6.00 Build 0)  -->
<svg version="1.1" id="Layer_1" xmlns="http://www.w3.org/2000/svg" xmlns:xlink="http://www.w3.org/1999/xlink" x="0px" y="0px"
	 viewBox="0 0 323.9 108.8" style="enable-background:new 0 0 323.9 108.8;" xml:space="preserve">
<style type="text/css">
	.st0{fill:#1C1F2A;}
	.st1{fill:#40535D;}
	.st2{fill:#04AADA;}
</style>
<g>
	<g>
		<path class="st0" d="M107.2,36.1c0.7-4.7,4.7-10.3,12.6-10.3c7.2,0,11.4,5.2,11.9,10.3H107.2z M97.3,39.7
			c0,12.8,9.2,21.3,22.6,21.3c8.7,0,14.6-4.3,17.9-8.1c0.4-0.4,0.4-0.9,0.2-1.3c0,0,0,0-0.2-0.2l-4.7-4.5c-0.4-0.4-1.1-0.4-1.6,0
			c-2.5,2.2-6.1,5.4-11.9,5.4c-6.7,0-11.4-4-12.6-9.2h32.7c0.7,0,1.3-0.4,1.6-1.1v-0.2v-2c0-12.1-7.8-22.2-21.3-22.2
			C105.8,17.7,97.3,27.6,97.3,39.7L97.3,39.7z M147.5,59.2c0,0.4,0.2,1.1,0.9,1.1h0.2h7c0.4,0,1.1-0.2,1.1-0.9v-0.2V0.9
			c0-0.4-0.2-0.9-0.9-0.9h-7.4c-0.7,0-0.9,0.4-0.9,0.9L147.5,59.2z M82.7,59.2c0,0.4,0.2,1.1,0.9,1.1h0.2h7c0.4,0,1.1-0.2,1.1-0.9
			v-0.2V35.9c0-9.9-5.8-18.2-18.4-18.2h-0.2c-6.1,0-10.8,2-13.5,4.5V20c0-0.7-0.4-1.1-0.9-1.1l0,0h-7c-0.4,0-1.1,0.2-1.1,0.9V20
			v39.5c0,0.4,0.2,1.1,0.9,1.1H52h7c0.4,0,1.1-0.2,1.1-0.9v-0.2v-22c0-6.7,3.6-11.9,11.7-11.9S83,30.5,83,37.4L82.7,59.2z
			 M215.2,71.5c3.1,3.8,9.9,8.3,19.5,8.3c13.2,0,21.3-8.1,21.3-21.1V20c0-0.4-0.2-1.1-0.9-1.1h-0.2h-6.7c-0.4,0-1.1,0.2-1.1,0.9V20
			v2.2c-2.9-2.5-6.7-4.5-13-4.5c-11.9,0-22.4,8.7-22.4,21.7s10.1,21.7,22.4,21.7c4.7,0,9.2-1.6,12.8-4.3v2.7
			c0,7.4-4.3,12.1-12.3,12.1c-6.5,0-11-3.6-13.7-6.3c-0.4-0.4-1.3-0.4-1.8,0l0,0l-3.8,4.5C214.8,70.2,214.8,70.9,215.2,71.5
			L215.2,71.5z M35.4,39.5c0,7.4-5.6,13.2-12.8,13.2c-7.4,0-12.6-6.3-12.6-13.2V39c0-7,5.2-12.8,12.6-12.8
			C29.8,26,35.4,32.1,35.4,39.5L35.4,39.5z M0,39.5c0,11.9,9.6,21.7,22.4,21.7c13,0,22.4-9.9,22.4-21.7V39
			c0-11.9-9.6-21.3-22.4-21.3C9.6,17.7,0,27.1,0,39.5L0,39.5z M197.5,39.5c0,7.4-5.6,13.2-12.8,13.2c-7.2,0-12.6-6.3-12.6-13.2V39
			c0-7,5.2-12.8,12.6-12.8C192.1,26,197.5,32.1,197.5,39.5L197.5,39.5z M162.1,39.5c0,11.9,9.6,21.7,22.4,21.7
			c12.8,0,22.4-9.9,22.4-21.7V39c0-11.9-9.6-21.3-22.4-21.3C171.7,17.7,162.1,27.1,162.1,39.5L162.1,39.5z M264.8,59.2
			c0,0.4,0.2,1.1,0.9,1.1h0.2h7c0.4,0,1.1-0.2,1.1-0.9v-0.2V19.7c0-0.4-0.2-0.9-0.9-0.9h-7.4c-0.7,0-0.9,0.4-0.9,0.9L264.8,59.2z
			 M264.8,8.3c0,0.4,0.2,1.1,0.9,1.1h0.2h7c0.4,0,1.1-0.2,1.1-0.9V8.3V0.9c0-0.4-0.2-0.9-0.9-0.9h-7.4c-0.7,0-0.9,0.4-0.9,0.9
			L264.8,8.3z M314.6,59.2c0,0.4,0.2,1.1,0.9,1.1h0.2h7c0.4,0,1.1-0.2,1.1-0.9v-0.2V35.9c0-9.9-5.8-18.2-18.4-18.2h-0.2
			c-6.1,0-10.8,2-13.5,4.5V20c0-0.7-0.4-1.1-0.9-1.1l0,0h-7c-0.4,0-1.1,0.2-1.1,0.9V20v39.5c0,0.4,0.2,1.1,0.9,1.1h0.2h7
			c0.4,0,1.1-0.2,1.1-0.9v-0.2v-22c0-6.7,3.6-11.9,11.7-11.9c8.1,0,11.2,4.9,11.2,11.9L314.6,59.2z M247.1,39.5
			c0,7.4-5.6,13.2-12.8,13.2c-7.4,0-12.6-6.3-12.6-13.2V39c0-7,5.2-12.8,12.6-12.8C241.5,26,247.1,32.1,247.1,39.5z"/>
	</g>
	<g>
		<path class="st1" d="M133,87.2h1.7v6.3c0.9-1.3,2.4-2,3.9-2c3,0,5.2,2.4,5.2,6.1s-2.2,6.1-5.2,6.1c-1.7,0-3-0.9-3.9-2v1.7H133
			V87.2z M138.2,101.9c2.4,0,3.7-2,3.7-4.6c0-2.6-1.3-4.6-3.7-4.6c-1.5,0-2.8,0.9-3.5,2v5.2C135.4,101.1,136.9,101.9,138.2,101.9z"
			/>
		<path class="st1" d="M147.6,106.3c0.9,0,1.3-0.2,1.7-1.3l0.9-1.7l-4.8-11.7h2l3.9,9.5l3.9-9.5h2l-5.9,14.1c-0.7,1.7-2,2.4-3.5,2.4
			c-0.4,0-1.1,0-1.3-0.2l0.2-1.7C146.7,106.3,147.1,106.3,147.6,106.3z"/>
	</g>
	<g>
		<g>
			<g>
				<path class="st2" d="M187.2,87.4c0-0.2,0.2-0.4,0.4-0.4h0.3c0.2,0,0.4,0.2,0.6,0.3l8.7,8.4h0v-8c0-0.2,0.2-0.4,0.4-0.4h2.7
					c0.2,0,0.4,0.2,0.4,0.4v15.2c0,0.3-0.2,0.4-0.4,0.4h-0.2c-0.2,0-0.4-0.1-0.6-0.2l-8.8-8.9h0v8.4c0,0.2-0.2,0.4-0.4,0.4h-2.7
					c-0.2,0-0.4-0.2-0.4-0.4L187.2,87.4"/>
				<path class="st2" d="M203.6,87.6c0-0.2,0.2-0.4,0.4-0.4h9.4c0.2,0,0.4,0.2,0.4,0.4v2.5c0,0.2-0.2,0.4-0.4,0.4h-6.3v2.8h5.2
					c0.2,0,0.4,0.2,0.4,0.4v2.5c0,0.2-0.2,0.4-0.4,0.4h-5.2v3.1h6.3c0.2,0,0.4,0.2,0.4,0.4v2.5c0,0.2-0.2,0.4-0.4,0.4H204
					c-0.2,0-0.4-0.2-0.4-0.4V87.6"/>
				<path class="st1" d="M225.1,87.6c0-0.2,0.2-0.4,0.4-0.4h2.7c0.2,0,0.4,0.2,0.4,0.4v15c0,0.2-0.2,0.4-0.4,0.4h-2.7
					c-0.2,0-0.4-0.2-0.4-0.4V87.6"/>
				<path class="st1" d="M231.5,87.6c0-0.2,0.2-0.4,0.4-0.4h5.5c4.4,0,7.9,3.6,7.9,7.9c0,4.4-3.6,7.9-7.9,7.9h-5.5
					c-0.2,0-0.4-0.2-0.4-0.4V87.6 M237.4,99.7c2.6,0,4.2-2,4.2-4.6c0-2.6-1.7-4.6-4.2-4.6h-2.4v9.2H237.4z"/>
				<path class="st1" d="M247.8,87.6c0-0.2,0.2-0.4,0.4-0.4h9.4c0.2,0,0.4,0.2,0.4,0.4v2.5c0,0.2-0.2,0.4-0.4,0.4h-6.3v2.8h5.2
					c0.2,0,0.4,0.2,0.4,0.4v2.5c0,0.2-0.2,0.4-0.4,0.4h-5.2v3.1h6.3c0.2,0,0.4,0.2,0.4,0.4v2.5c0,0.2-0.2,0.4-0.4,0.4h-9.4
					c-0.2,0-0.4-0.2-0.4-0.4V87.6"/>
				<path class="st1" d="M260.5,87.3c0-0.2,0.2-0.4,0.4-0.4h0.3c0.2,0,0.4,0.2,0.6,0.3l8.7,8.4h0v-8c0-0.2,0.2-0.4,0.4-0.4h2.7
					c0.2,0,0.4,0.2,0.4,0.4v15.2c0,0.3-0.2,0.4-0.4,0.4h-0.2c-0.2,0-0.4-0.1-0.6-0.2l-8.8-8.9h0v8.4c0,0.2-0.2,0.4-0.4,0.4h-2.7
					c-0.2,0-0.4-0.2-0.4-0.4L260.5,87.3"/>
				<path class="st1" d="M280.7,90.5h-3.2c-0.2,0-0.4-0.2-0.4-0.4v-2.5c0-0.2,0.2-0.4,0.4-0.4h10.1c0.2,0,0.4,0.2,0.4,0.4v2.5
					c0,0.2-0.2,0.4-0.4,0.4h-3.2v12.1c0,0.2-0.2,0.4-0.4,0.4h-2.7c-0.2,0-0.4-0.2-0.4-0.4V90.5"/>
				<path class="st1" d="M290.9,87.6c0-0.2,0.2-0.4,0.4-0.4h2.7c0.2,0,0.4,0.2,0.4,0.4v15c0,0.2-0.2,0.4-0.4,0.4h-2.7
					c-0.2,0-0.4-0.2-0.4-0.4V87.6"/>
				<path class="st1" d="M301,90.5h-3.2c-0.2,0-0.4-0.2-0.4-0.4v-2.5c0-0.2,0.2-0.4,0.4-0.4h10.1c0.2,0,0.4,0.2,0.4,0.4v2.5
					c0,0.2-0.2,0.4-0.4,0.4h-3.2v12.1c0,0.2-0.2,0.4-0.4,0.4h-2.7c-0.2,0-0.4-0.2-0.4-0.4V90.5"/>
				<path class="st1" d="M315.2,95.4l-5-7.6c-0.2-0.3,0-0.7,0.4-0.7h2.9c0.2,0,0.3,0.1,0.4,0.2l3.1,4.6l3.1-4.6
					c0.1-0.1,0.2-0.2,0.4-0.2h2.9c0.4,0,0.5,0.4,0.4,0.7l-5.1,7.5v7.2c0,0.2-0.2,0.4-0.4,0.4h-2.7c-0.2,0-0.4-0.2-0.4-0.4V95.4"/>
			</g>
		</g>
		<g>
			<path class="st2" d="M176.1,83.3c4,0,7.8,2.2,9.8,5.7l-1.2,0.7c-1.8-3.1-5-4.9-8.6-4.9V83.3z"/>
			<path class="st2" d="M183.1,106.9c-4.4,2.5-9.8,2.5-14.1,0c-4.4-2.5-7.1-7.2-7.1-12.2c0-5.1,2.7-9.7,7.1-12.2
				c4.4-2.5,9.8-2.5,14.1,0l-0.7,1.2c-3.9-2.3-8.8-2.3-12.7,0c-3.9,2.3-6.4,6.5-6.4,11c0,4.5,2.4,8.7,6.4,11c3.9,2.3,8.8,2.3,12.7,0
				L183.1,106.9z"/>
			<path class="st2" d="M176.1,86.2c4.7,0,8.5,3.8,8.5,8.5c0,4.7-3.8,8.5-8.5,8.5s-8.5-3.8-8.5-8.5C167.6,90,171.4,86.2,176.1,86.2z
				 M171.1,94.7c0,2.7,2.2,4.9,4.9,4.9s4.9-2.2,4.9-4.9c0-2.7-2.2-4.9-4.9-4.9S171.1,91.9,171.1,94.7z"/>
			<path class="st2" d="M184.6,99.6c-1.8,3.1-5,4.9-8.6,4.9s-6.8-1.9-8.6-4.9c-1.8-3.1-1.8-6.8,0-9.9l-1.2-0.7c-2,3.5-2,7.8,0,11.3
				c2,3.5,5.8,5.7,9.8,5.7s7.8-2.2,9.8-5.7L184.6,99.6z"/>
		</g>
	</g>
</g>
</svg>
