<svg xmlns="http://www.w3.org/2000/svg" fill="none" viewBox="0 0 104 104"><path stroke="white" stroke-linecap="round" stroke-width="4.9" d="M26.8 32.5s52-20.3 52-3.3S27.6 57 27.6 75.5c0 18.6 51.2-3.3 51.2-3.3"/><path fill="#FFCD83" fill-rule="evenodd" d="M26.8 11.4a20.3 20.3 0 1 1 0 40.6 20.3 20.3 0 0 1 0-40.6Zm.4 10.1c5.4 0 9.8 4.4 9.8 9.8v.8c0 5.4-4.4 9.7-9.8 9.7h-.8a9.8 9.8 0 0 1-9.7-9.7v-.8c0-5.4 4.3-9.8 9.7-9.8h.8Z" clip-rule="evenodd"/><path fill="#FFCD83" fill-rule="evenodd" d="M78.8 92.6a20.3 20.3 0 1 1 0-40.6 20.3 20.3 0 0 1 0 40.6Zm-.4-10.1a9.8 9.8 0 0 1-9.7-9.8V72c0-5.4 4.3-9.7 9.7-9.7h.8c5.4 0 9.8 4.3 9.8 9.7v.8c0 5.4-4.4 9.8-9.8 9.8h-.8Z" clip-rule="evenodd"/></svg>