<svg height="48pt" viewBox="0 0 48 48" width="48pt" xmlns="http://www.w3.org/2000/svg" xmlns:xlink="http://www.w3.org/1999/xlink"><linearGradient id="a" gradientTransform="matrix(48 0 0 -46.985 .495 47.544)" gradientUnits="userSpaceOnUse" x1="0" x2="1" y1=".5" y2=".5"><stop offset="0" stop-color="#ff758c"/><stop offset=".98260869565" stop-color="#ff7eb3"/></linearGradient><path d="m22.856 4.831c1.197-.099 2.09-1.135 1.991-2.312-.098-1.177-1.154-2.052-2.358-1.952-6.028.492-11.654 3.205-15.738 7.594-4.072 4.389-6.31 10.131-6.255 16.066.057 6.235 2.643 12.202 7.179 16.579 4.545 4.366 10.677 6.793 17.037 6.737 6.36-.057 12.446-2.592 16.91-7.038 4.454-4.457 6.929-10.468 6.872-16.703-.011-1.181-.997-2.13-2.202-2.12-1.204.011-2.173.978-2.162 2.159.047 5.101-1.98 10.017-5.623 13.665-3.654 3.636-8.631 5.713-13.835 5.759-5.203.046-10.218-1.942-13.938-5.513-3.71-3.582-5.828-8.462-5.875-13.563-.045-4.856 1.778-9.556 5.116-13.148 3.337-3.591 7.943-5.803 12.881-6.21zm18.134 10.078c.558 1.04 1.856 1.431 2.896.872 1.039-.558 1.43-1.856.872-2.895-2.382-4.428-6.126-7.988-10.67-10.139-1.067-.51-2.345-.058-2.851 1.009-.507 1.068-.052 2.348 1.015 2.858 3.727 1.763 6.78 4.666 8.738 8.295zm-4.721 1.283v11.154h2.231v-11.154zm-15.615 4.462s-2.231 0-2.231 2.231v2.23s0 2.231 2.231 2.231h2.231v2.231h-4.462s0 2.231 2.231 2.231h2.231s2.23 0 2.23-2.231v-2.231s0-2.231-2.23-2.231h-2.231v-2.23h4.461s0-2.231-2.23-2.231zm6.692 0v8.923c0 2.231 2.231 2.231 2.231 2.231h2.231c2.23 0 2.23-2.231 2.23-2.231v-8.923h-2.23v8.923h-2.231v-8.923zm-14.5 2.231c.618 0 1.116.995 1.116 2.23v2.231c0 1.236-.498 2.231-1.116 2.231s-1.115-.995-1.115-2.231v-2.231c0-1.235.497-2.23 1.115-2.23zm23.423 6.692v2.231h2.231v-2.231zm-24.538-8.923c-1.236 0-2.231.995-2.231 2.231v6.692c0 1.236.995 2.231 2.231 2.231h2.231c1.235 0 2.23-.995 2.23-2.231v-6.692c0-1.236-.995-2.231-2.23-2.231z" fill="url(#a)" fill-rule="evenodd"/></svg>