<svg width="250" height="250" viewBox="0 0 250 250" fill="none" xmlns="http://www.w3.org/2000/svg">
<path opacity="0.8" d="M37.8419 71.6921L65.1425 87.4541C86.2537 99.6426 93.4921 126.639 81.3036 147.75C80.2315 149.607 79.045 151.353 77.7583 152.989L12.6182 115.381C8.67588 113.105 5.58417 109.922 3.44179 106.254C-0.964934 98.6912 -1.30613 89.0446 3.38448 80.9202C10.348 68.8591 25.7752 64.7254 37.8419 71.6921Z" fill="#3D53F6"/>
<path opacity="0.5" d="M37.8419 180.052L65.1425 164.29C86.2537 152.101 93.4921 125.105 81.3036 103.994C80.2315 102.137 79.045 100.391 77.7583 98.7544L12.6182 136.363C8.67588 138.639 5.58417 141.822 3.44179 145.49C-0.964934 153.053 -1.30613 162.699 3.38448 170.824C10.348 182.885 25.7752 187.019 37.8419 180.052Z" fill="#3D53F6"/>
<path opacity="0.5" d="M212.753 71.6921L185.452 87.4541C164.341 99.6426 157.103 126.639 169.291 147.75C170.363 149.607 171.55 151.353 172.836 152.989L237.976 115.381C241.919 113.105 245.01 109.922 247.153 106.254C251.56 98.6912 251.901 89.0446 247.21 80.9202C240.247 68.8591 224.819 64.7254 212.753 71.6921Z" fill="#3D53F6"/>
<path opacity="0.8" d="M212.753 180.052L185.452 164.29C164.341 152.101 157.103 125.105 169.291 103.994C170.363 102.137 171.55 100.391 172.836 98.7544L237.976 136.363C241.919 138.639 245.01 141.822 247.153 145.49C251.56 153.053 251.901 162.699 247.21 170.824C240.247 182.885 224.819 187.019 212.753 180.052Z" fill="#3D53F6"/>
<path d="M125.297 150.525C139.228 150.525 150.52 139.232 150.52 125.302C150.52 111.372 139.228 100.079 125.297 100.079C111.367 100.079 100.075 111.372 100.075 125.302C100.075 139.232 111.367 150.525 125.297 150.525Z" fill="#FF2F1D"/>
<path opacity="0.8" d="M71.1172 212.753L86.8793 185.452C99.0678 164.341 126.064 157.102 147.175 169.291C149.032 170.363 150.778 171.55 152.415 172.836L114.806 237.976C112.53 241.919 109.347 245.01 105.679 247.153C98.1164 251.559 88.4698 251.901 80.3454 247.21C68.2842 240.247 64.1505 224.819 71.1172 212.753Z" fill="#FF2F1D"/>
<path opacity="0.5" d="M179.477 212.752L163.715 185.452C151.526 164.341 124.53 157.102 103.419 169.291C101.562 170.363 99.8157 171.549 98.1794 172.836L135.788 237.976C138.064 241.919 141.247 245.01 144.915 247.153C152.478 251.559 162.124 251.901 170.249 247.21C182.31 240.246 186.444 224.819 179.477 212.752Z" fill="#FF2F1D"/>
<path opacity="0.5" d="M71.1172 37.8419L86.8793 65.1425C99.0678 86.2537 126.064 93.4921 147.175 81.3036C149.032 80.2315 150.778 79.045 152.415 77.7583L114.806 12.6182C112.53 8.67589 109.347 5.58416 105.679 3.44179C98.1164 -0.964936 88.4698 -1.30613 80.3454 3.38449C68.2842 10.348 64.1505 25.7752 71.1172 37.8419Z" fill="#3D53F6"/>
<path opacity="0.8" d="M179.477 37.8419L163.715 65.1425C151.526 86.2537 124.53 93.4921 103.419 81.3036C101.562 80.2315 99.8157 79.045 98.1794 77.7583L135.788 12.6182C138.064 8.67589 141.247 5.58416 144.915 3.44179C152.478 -0.964936 162.124 -1.30613 170.249 3.38449C182.31 10.348 186.444 25.7752 179.477 37.8419Z" fill="#3D53F6"/>
</svg>
