<?xml version="1.0" encoding="UTF-8"?>
<svg id="Isolation_Mode" data-name="Isolation Mode" xmlns="http://www.w3.org/2000/svg" xmlns:xlink="http://www.w3.org/1999/xlink" viewBox="0 0 100 100">
	<path d="m60.89,18.21h-24.02c-12.73,0-23.06,10.48-23.06,23.4v24.37c0,12.92,10.32,23.4,23.06,23.4h24.02c12.73,0,23.06-10.48,23.06-23.4v-24.37c0-12.92-10.32-23.4-23.06-23.4Z" style="fill: #ebac21; stroke-width: 0px;"/>
	<g style="mask: url(#mask);">
		<g style="opacity: .1;">
			<path d="m60.89,18.21h-24.02c-12.73,0-23.06,10.48-23.06,23.4v24.37c0,12.92,10.32,23.4,23.06,23.4h24.02c12.73,0,23.06-10.48,23.06-23.4v-24.37c0-12.92-10.32-23.4-23.06-23.4Z" style="stroke-width: 0px;"/>
		</g>
	</g>
	<path d="m73.2,50.8c0,4.58-2.82,8.47-6.74,9.89l2.37,3.93-3.51,4.32,3.51,4.22-5.66,7.59-3.99-4.26v-16.09c-3.55-1.61-6.03-5.3-6.03-9.6,0-5.78,4.49-10.46,10.02-10.46s10.02,4.68,10.02,10.46Zm-10.02,1.6c1.34,0,2.42-1.13,2.42-2.53s-1.08-2.53-2.42-2.53-2.42,1.13-2.42,2.53,1.08,2.53,2.42,2.53Z" style="fill: #353535; fill-rule: evenodd; stroke-width: 0px;"/>
	<path d="m73.23,50.83c0,4.52-2.74,8.38-6.58,9.85l2.19,3.93-3.23,4.32,3.23,4.22-5.66,7.66v-28.41c1.34,0,2.42-1.13,2.42-2.53s-1.08-2.53-2.42-2.53v-7.02c5.55,0,10.05,4.7,10.05,10.49Z" style="fill-rule: evenodd; stroke-width: 0px;"/>
	<path d="m55.91,62.3c-3.24-2.66-5.71-6.04-5.71-11.38h-17.35c-3.64,0-6.59,2.99-6.59,6.69v8.36c0,1.85,1.47,3.34,3.29,3.34h23.06c1.82,0,3.29-1.5,3.29-3.34v-3.66Z" style="fill-rule: evenodd; stroke-width: 0px;"/>
	<path d="m40.27,48.92c-.8-.15-1.6-.3-2.36-.62-2.87-1.2-4.55-3.43-5.09-6.57-.37-2.15-.2-4.27.67-6.28,1.24-2.86,3.45-4.4,6.36-4.93,1.74-.31,3.47-.24,5.15.38,2.52.94,4.21,2.74,4.99,5.39.79,2.67.67,5.35-.52,7.88-1.24,2.64-3.39,4.06-6.12,4.62-.23.05-.45.09-.68.14-.8,0-1.6,0-2.4,0Z" style="fill: #141313; stroke-width: 0px;"/>
</svg>