<svg xmlns="http://www.w3.org/2000/svg" fill="none" viewBox="0 0 250 250"><path fill="#3D53F6" d="m37.84 71.7 27.3 15.75A44.14 44.14 0 0 1 77.76 153l-65.14-37.6a25.21 25.21 0 1 1 25.22-43.7Z" opacity=".8"/><path fill="#3D53F6" d="m37.84 180.05 27.3-15.76a44.14 44.14 0 0 0 12.62-65.54l-65.14 37.61a25.21 25.21 0 1 0 25.22 43.69Z" opacity=".5"/><path fill="#3D53F6" d="m212.75 71.7-27.3 15.75A44.14 44.14 0 0 0 172.84 153l65.14-37.6a25.21 25.21 0 1 0-25.22-43.69Z" opacity=".5"/><path fill="#3D53F6" d="m212.75 180.05-27.3-15.76a44.14 44.14 0 0 1-12.61-65.54l65.14 37.61a25.21 25.21 0 1 1-25.22 43.69Z" opacity=".8"/><path fill="#FF2F1D" d="M125.3 150.53a25.22 25.22 0 1 0 0-50.45 25.22 25.22 0 0 0 0 50.45Z"/><path fill="#FF2F1D" d="m71.12 212.75 15.76-27.3a44.14 44.14 0 0 1 65.54-12.61l-37.61 65.14a25.21 25.21 0 1 1-43.69-25.22Z" opacity=".8"/><path fill="#FF2F1D" d="m179.48 212.75-15.76-27.3a44.14 44.14 0 0 0-65.54-12.61l37.6 65.14a25.21 25.21 0 1 0 43.69-25.22Z" opacity=".5"/><path fill="#3D53F6" d="m71.12 37.84 15.76 27.3a44.14 44.14 0 0 0 65.54 12.62L114.8 12.62a25.21 25.21 0 1 0-43.69 25.22Z" opacity=".5"/><path fill="#3D53F6" d="m179.48 37.84-15.76 27.3a44.14 44.14 0 0 1-65.54 12.62l37.6-65.14a25.21 25.21 0 1 1 43.69 25.22Z" opacity=".8"/></svg>