<svg class="logomark" viewBox="0 0 38 42"><path fill="currentColor" d="M36.98 12.4c0 .3.02.62 0 .93-.04.36-.1.72-.16 1.08a22.54 22.54 0 0 1-.33 1.51 8.59 8.59 0 0 1-.36 1.08c-.31.77-.66 1.52-1.12 2.21-.28.43-.56.85-.86 1.27a4.12 4.12 0 0 1-.37.43c-.22.24-.44.49-.68.7a13.5 13.5 0 0 1-1.13.9c-.35.25-.75.43-1.12.68-.4.26-.86.38-1.3.58-.38.18-.79.24-1.18.38-.5.18-1.02.23-1.53.33-.54.12-1.1.2-1.64.32-.45.09-.9.2-1.34.3-.26.05-.51.1-.76.17l-.9.32c-.2.08-.4.13-.6.22-.28.14-.54.32-.82.47a4.5 4.5 0 0 0-1.19.96c-.29.32-.54.68-.8 1.03a8.5 8.5 0 0 0-.96 1.92l-.73 1.99-.65 1.87a63.99 63.99 0 0 1-.62 1.62 13.45 13.45 0 0 1-1.12 2.21 7.2 7.2 0 0 1-1.14 1.48c-.37.34-.72.7-1.17.94-.45.24-.9.45-1.4.56a6.64 6.64 0 0 1-1.8.13c-.24-.01-.46-.08-.7-.12a2.88 2.88 0 0 1-.4-.09c-.11-.03-.22-.1-.32-.15-.3-.15-.63-.26-.9-.45a8.8 8.8 0 0 1-.96-.77c-.56-.5-.97-1.1-1.34-1.74a13.04 13.04 0 0 1-.69-1.32c-.19-.44-.33-.9-.49-1.35a24.92 24.92 0 0 1-.34-1.06l-.24-.96-.21-.9-.32-1.6a35.83 35.83 0 0 1-.14-.69l-.17-1.02-.13-.76-.12-.84-.11-.72-.1-.68a70 70 0 0 1-.09-.73l-.08-.7-.1-.83-.02-.29-.1-1.2a20.67 20.67 0 0 1-.05-.76c-.02-.39-.05-.77-.05-1.16A94.45 94.45 0 0 1 1 18.18c0-.38 0-.75.03-1.13.02-.4.08-.78.12-1.18l.1-.93.1-.52c.1-.43.18-.86.29-1.3.07-.3.18-.6.26-.9.16-.58.4-1.12.63-1.66.1-.25.23-.5.36-.73.19-.32.37-.66.58-.97.26-.37.53-.74.82-1.1a12.9 12.9 0 0 1 .87-.96c.24-.24.52-.45.77-.66.26-.22.5-.44.77-.63.42-.3.84-.57 1.27-.85.25-.15.51-.3.77-.43l1.22-.65c.26-.13.53-.24.8-.35.68-.28 1.36-.56 2.05-.82.46-.17.93-.3 1.4-.45l.72-.23c.2-.06.4-.09.6-.13.22-.05.43-.12.66-.16l.9-.15 1.02-.15c.14-.02.29-.02.43-.03l1.41-.08c.19 0 .38-.05.57-.02.44.08.89.02 1.33.05.43.03.85.08 1.28.13l.91.15.8.1.65.13c.46.1.92.2 1.37.32.4.11.8.28 1.2.37.48.11.9.33 1.36.48.46.15.86.42 1.3.6.51.23.96.55 1.42.87.34.23.68.49 1 .77.46.4.92.83 1.35 1.28.26.26.48.56.71.85.38.46.66.99.93 1.52.22.42.4.87.54 1.33.12.37.16.77.24 1.15.1.42.1.85.08 1.27l-.02.01z"/></svg>