<svg xmlns="http://www.w3.org/2000/svg" viewBox="0 0 122 34" fill="none">
  <path d="M22.6515 6.79091H24.9212C26.1696 6.79091 27.1909 7.81296 27.1909 9.06212V11.3333C27.1909 12.5825 26.1696 13.6045 24.9212 13.6045H22.6515C21.4032 13.6045 20.3818 12.5825 20.3818 11.3333V9.06212C20.3818 7.81296 21.4032 6.79091 22.6515 6.79091Z" fill="#BCF42E"/>
  <path d="M20.3818 2.27121V4.54242C20.3818 5.79158 19.3605 6.81363 18.1121 6.81363H15.8424C14.5941 6.81363 13.5728 5.79158 13.5728 4.54242V2.27121C13.5728 1.02204 14.5941 0 15.8424 0H18.1121C19.3605 0 20.3818 1.02204 20.3818 2.27121Z" fill="#BCF42E"/>
  <path d="M27.1909 15.8758V18.147C27.1909 19.3961 28.2123 20.4182 29.4606 20.4182H31.7303C32.9786 20.4182 34 19.3961 34 18.147V15.8758C34 14.6266 32.9786 13.6045 31.7303 13.6045H29.4606C28.2123 13.6045 27.1909 14.6266 27.1909 15.8758Z" fill="#BCF42E"/>
  <path d="M11.3258 6.79091H9.05609C7.80776 6.79091 6.78639 7.81296 6.78639 9.06212V11.3333C6.78639 12.5825 7.80776 13.6045 9.05609 13.6045H11.3258C12.5741 13.6045 13.5955 12.5825 13.5955 11.3333V9.06212C13.5955 7.81296 12.5741 6.79091 11.3258 6.79091Z" fill="#BCF42E"/>
  <path d="M6.78638 15.8758V18.147C6.78638 19.3961 5.76502 20.4182 4.51669 20.4182H2.26969C1.02136 20.4182 0 19.3961 0 18.147V15.8758C0 14.6266 1.02136 13.6045 2.26969 13.6045H4.53939C5.78772 13.6045 6.80908 14.6266 6.80908 15.8758H6.78638Z" fill="#BCF42E"/>
  <path d="M22.6515 27.2091H24.9212C26.1696 27.2091 27.1909 26.187 27.1909 24.9379V22.6667C27.1909 21.4175 26.1696 20.3955 24.9212 20.3955H22.6515C21.4032 20.3955 20.3818 21.4175 20.3818 22.6667V24.9379C20.3818 26.187 21.4032 27.2091 22.6515 27.2091Z" fill="#BCF42E"/>
  <path d="M20.3818 31.7288V29.4576C20.3818 28.2084 19.3605 27.1864 18.1121 27.1864H15.8424C14.5941 27.1864 13.5728 28.2084 13.5728 29.4576V31.7288C13.5728 32.978 14.5941 34 15.8424 34H18.1121C19.3605 34 20.3818 32.978 20.3818 31.7288Z" fill="#BCF42E"/>
  <path d="M11.3258 27.2091H9.05609C7.80776 27.2091 6.78639 26.187 6.78639 24.9379V22.6667C6.78639 21.4175 7.80776 20.3955 9.05609 20.3955H11.3258C12.5741 20.3955 13.5955 21.4175 13.5955 22.6667V24.9379C13.5955 26.187 12.5741 27.2091 11.3258 27.2091Z" fill="#BCF42E"/>
  <path d="M18.1121 20.3955H15.8424C14.5941 20.3955 13.5728 19.3734 13.5728 18.1242V15.853C13.5728 14.6039 14.5941 13.5818 15.8424 13.5818H18.1121C19.3605 13.5818 20.3818 14.6039 20.3818 15.853V18.1242C20.3818 19.3734 19.3605 20.3955 18.1121 20.3955Z" fill="#BCF42E"/>
  <path d="M20.3818 24.9379C20.3818 26.187 21.4032 27.2091 22.6515 27.2091C21.4032 27.2091 20.3818 28.2311 20.3818 29.4803C20.3818 28.2311 19.3605 27.2091 18.1121 27.2091C19.3605 27.2091 20.3818 26.187 20.3818 24.9379Z" fill="#BCF42E"/>
  <path d="M27.1909 18.1243C27.1909 19.3734 28.2123 20.3955 29.4606 20.3955C28.2123 20.3955 27.1909 21.4175 27.1909 22.6667C27.1909 21.4175 26.1696 20.3955 24.9212 20.3955C26.1696 20.3955 27.1909 19.3734 27.1909 18.1243Z" fill="#BCF42E"/>
  <path d="M6.78639 18.1243C6.78639 19.3734 7.80776 20.3955 9.05609 20.3955C7.80776 20.3955 6.78639 21.4175 6.78639 22.6667C6.78639 21.4175 5.76503 20.3955 4.5167 20.3955C5.76503 20.3955 6.78639 19.3734 6.78639 18.1243Z" fill="#BCF42E"/>
  <path d="M13.5955 18.1243C13.5955 19.3734 14.6168 20.3955 15.8652 20.3955C14.6168 20.3955 13.5955 21.4175 13.5955 22.6667C13.5955 21.4175 12.5741 20.3955 11.3258 20.3955C12.5741 20.3955 13.5955 19.3734 13.5955 18.1243Z" fill="#BCF42E"/>
  <path d="M18.1121 6.79092C19.3605 6.79092 20.3818 5.76888 20.3818 4.51971C20.3818 5.76888 21.4032 6.79091 22.6515 6.79091C21.4032 6.79091 20.3818 7.81296 20.3818 9.06212C20.3818 7.81296 19.3605 6.79092 18.1121 6.79092Z" fill="#BCF42E"/>
  <path d="M24.9212 13.6045C26.1696 13.6045 27.1909 12.5825 27.1909 11.3333C27.1909 12.5825 28.2123 13.6045 29.4606 13.6045C28.2123 13.6045 27.1909 14.6266 27.1909 15.8758C27.1909 14.6266 26.1696 13.6045 24.9212 13.6045Z" fill="#BCF42E"/>
  <path d="M11.3258 6.79091C12.5741 6.79091 13.5955 5.76888 13.5955 4.51971C13.5955 5.76888 14.6168 6.79092 15.8652 6.79092C14.6168 6.79092 13.5955 7.81296 13.5955 9.06212C13.5955 7.81296 12.5741 6.79091 11.3258 6.79091Z" fill="#BCF42E"/>
  <path d="M4.53939 13.6045C5.78772 13.6045 6.80908 12.5825 6.80908 11.3333C6.80908 12.5825 7.83044 13.6045 9.07878 13.6045C7.83044 13.6045 6.80908 14.6266 6.80908 15.8758C6.80908 14.6266 5.78772 13.6045 4.53939 13.6045Z" fill="#BCF42E"/>
  <path d="M49.688 24.336C48.96 24.336 48.2413 24.2053 47.532 23.944C46.8413 23.664 46.2627 23.272 45.796 22.768L45.908 21.62V29.88H42.016V11.484H45.376L45.936 13.864L45.628 13.024C46.2627 12.4827 46.972 12.0347 47.756 11.68C48.54 11.3253 49.4453 11.148 50.472 11.148C51.6107 11.148 52.628 11.4187 53.524 11.96C54.42 12.4827 55.12 13.248 55.624 14.256C56.1467 15.2453 56.408 16.44 56.408 17.84C56.408 19.2213 56.1187 20.3973 55.54 21.368C54.9613 22.3387 54.168 23.076 53.16 23.58C52.152 24.084 50.9947 24.336 49.688 24.336ZM48.904 21.256C49.5387 21.256 50.1173 21.116 50.64 20.836C51.1813 20.556 51.6107 20.164 51.928 19.66C52.264 19.1373 52.432 18.5493 52.432 17.896C52.432 17.2053 52.2827 16.608 51.984 16.104C51.704 15.5813 51.312 15.18 50.808 14.9C50.3227 14.6013 49.7813 14.452 49.184 14.452C48.6613 14.452 48.1947 14.5267 47.784 14.676C47.392 14.8067 47.0373 15.012 46.72 15.292C46.4213 15.5533 46.16 15.8893 45.936 16.3V19.296C46.0853 19.688 46.3 20.0333 46.58 20.332C46.86 20.6307 47.196 20.864 47.588 21.032C47.9987 21.1813 48.4373 21.256 48.904 21.256ZM62.6807 24.336C61.542 24.336 60.506 24.112 59.5727 23.664C58.658 23.1973 57.93 22.488 57.3887 21.536C56.8473 20.584 56.5767 19.3707 56.5767 17.896C56.5767 16.5147 56.8567 15.32 57.4167 14.312C57.9767 13.304 58.714 12.5293 59.6287 11.988C60.5433 11.428 61.514 11.148 62.5407 11.148C63.754 11.148 64.6687 11.3533 65.2847 11.764C65.9193 12.156 66.442 12.5947 66.8527 13.08L66.6847 13.556L67.0487 11.764H70.6887V24H66.7687V21.34L67.0767 22.18C67.0393 22.18 66.9273 22.292 66.7407 22.516C66.554 22.7213 66.274 22.9733 65.9007 23.272C65.546 23.552 65.098 23.7947 64.5567 24C64.034 24.224 63.4087 24.336 62.6807 24.336ZM63.8007 21.144C64.2673 21.144 64.6873 21.0787 65.0607 20.948C65.434 20.7987 65.7607 20.5933 66.0407 20.332C66.3207 20.052 66.5633 19.7067 66.7687 19.296V16.3C66.6193 15.8893 66.3953 15.544 66.0967 15.264C65.798 14.9653 65.4433 14.7413 65.0327 14.592C64.622 14.424 64.1647 14.34 63.6607 14.34C63.1007 14.34 62.578 14.4893 62.0927 14.788C61.626 15.068 61.2527 15.46 60.9727 15.964C60.6927 16.468 60.5527 17.0467 60.5527 17.7C60.5527 18.3533 60.702 18.9413 61.0007 19.464C61.2993 19.9867 61.6913 20.3973 62.1767 20.696C62.6807 20.9947 63.222 21.144 63.8007 21.144ZM73.7479 29.88L81.8959 11.764H85.4239L77.5279 29.88H73.7479ZM77.0239 24.056L71.0319 11.764H75.4279L80.0479 22.096L77.0239 24.056ZM93.8009 24.336C92.7742 24.336 91.9062 24.168 91.1969 23.832C90.5062 23.4773 89.8996 23.02 89.3769 22.46L89.6849 21.62V24H85.7649V1.908H89.6569V13.864V12.604C90.1422 12.1933 90.7862 11.848 91.5889 11.568C92.3916 11.288 93.3062 11.148 94.3329 11.148C95.3969 11.148 96.3676 11.4 97.2449 11.904C98.1222 12.408 98.8222 13.1453 99.3449 14.116C99.8862 15.068 100.157 16.2347 100.157 17.616C100.157 18.9973 99.8582 20.192 99.2609 21.2C98.6822 22.208 97.9076 22.9827 96.9369 23.524C95.9662 24.0653 94.9209 24.336 93.8009 24.336ZM92.9329 21.032C93.5116 21.032 94.0436 20.8827 94.5289 20.584C95.0329 20.2853 95.4342 19.8747 95.7329 19.352C96.0316 18.8293 96.1809 18.2413 96.1809 17.588C96.1809 16.9347 96.0316 16.356 95.7329 15.852C95.4342 15.348 95.0329 14.956 94.5289 14.676C94.0436 14.3773 93.5116 14.228 92.9329 14.228C92.4289 14.228 91.9529 14.312 91.5049 14.48C91.0756 14.6293 90.7022 14.8533 90.3849 15.152C90.0862 15.432 89.8529 15.7773 89.6849 16.188V19.184C89.9089 19.5947 90.1702 19.94 90.4689 20.22C90.7862 20.4813 91.1502 20.6867 91.5609 20.836C91.9716 20.9667 92.4289 21.032 92.9329 21.032ZM101.278 11.764H105.198V24H101.278V11.764ZM101.194 7.424C101.194 6.84533 101.418 6.36933 101.866 5.996C102.332 5.62267 102.827 5.436 103.35 5.436C103.872 5.436 104.348 5.62267 104.778 5.996C105.226 6.36933 105.45 6.84533 105.45 7.424C105.45 8.00267 105.226 8.47867 104.778 8.852C104.348 9.20667 103.872 9.384 103.35 9.384C102.827 9.384 102.332 9.20667 101.866 8.852C101.418 8.47867 101.194 8.00267 101.194 7.424ZM110.831 11.764L111.139 13.948L111.083 13.752C111.512 12.9867 112.119 12.3707 112.903 11.904C113.687 11.4187 114.648 11.176 115.787 11.176C116.944 11.176 117.905 11.5213 118.671 12.212C119.455 12.884 119.856 13.7613 119.875 14.844V24H115.955V16.3C115.936 15.7587 115.787 15.3293 115.507 15.012C115.245 14.676 114.797 14.508 114.163 14.508C113.565 14.508 113.043 14.704 112.595 15.096C112.147 15.488 111.801 16.02 111.559 16.692C111.316 17.364 111.195 18.1387 111.195 19.016V24H107.275V11.764H110.831Z" fill="white"/>

</svg>