<svg height="117" preserveAspectRatio="xMidYMid" viewBox="0 0 512 117" width="512" xmlns="http://www.w3.org/2000/svg"><path d="m80.2140333.28608388h16.3224998v17.19332652h-16.3224998z" fill="#525254"/><path d="m365.996107.28608388h16.322499v17.19332652h-16.322499z" fill="#525254"/><path d="m44.137599 23.6490765c-10.2880163 0-16.2376178 4.6166392-19.1078879 7.8060029-.3411-2.7476628-2.1534885-6.312708-9.2269909-6.312708h-15.36050349v16.0772851h6.29541716c1.06574103 0 1.40841292.3395281 1.40841292 1.4036972v73.4119523h18.30936811v-27.5536501c0-.7435037-.014147-1.4382788-.0330097-2.060747 2.8592669 2.6266272 8.3215826 6.2435448 16.8537984 6.2435448 17.8959612 0 30.408201-14.1863021 30.408201-34.5045448 0-20.6404801-11.8803403-34.5108324-29.5468056-34.5108324m-3.7190903 53.0669871c-9.8573187 0-14.3356316-9.4376242-14.3356316-18.1820451 0-13.7728951 7.5324941-18.6819058 14.5792744-18.6819058 8.64382 0 14.4566671 7.4523278 14.4566671 18.5530109 0 12.6584256-7.3894522 18.31094-14.7003099 18.31094" fill="#231f1f"/><path d="m97.7877571 73.8174995v-38.8995477c0-6.5767854-3.1689291-9.7755804-9.6608324-9.7755804h-16.3586533v16.0772851h6.3017047c1.0610254 0 1.4021254.3395281 1.4021254 1.4021254v38.7706527c0 6.6695269 3.0714719 9.7740085 9.6451135 9.7740085h16.379088v-15.9373869h-6.3032767c-1.0138687 0-1.4052692-.4039756-1.4052692-1.4115567" fill="#231f1f"/><path d="m145.614065 23.6490765c-10.29116 0-16.232902 4.6166392-19.115747 7.8060029-.3411-2.7476628-2.144058-6.312708-9.215988-6.312708h-15.369935v16.0772851h6.301705c1.061025 0 1.405269.3395281 1.405269 1.4036972v73.4119523h18.317227v-27.5536501c0-.7435037-.018862-1.4382788-.042441-2.060747 2.848264 2.6266272 8.327871 6.2435448 16.856943 6.2435448 17.897533 0 30.403485-14.1863021 30.403485-34.5045448 0-20.6404801-11.872481-34.5108324-29.540518-34.5108324m-3.734809 53.0669871c-9.830597 0-14.324629-9.4376242-14.324629-18.1820451 0-13.7728951 7.530922-18.6819058 14.58399-18.6819058 8.642248 0 14.453524 7.4523278 14.453524 18.5530109 0 12.6584256-7.381593 18.31094-14.712885 18.31094" fill="#231f1f"/><path d="m208.904621 23.6490765c-19.724069 0-33.515827 14.1941615-33.515827 34.5108324 0 19.9881459 14.88265 34.5045448 35.387947 34.5045448 16.132301 0 25.988048-9.5492283 26.404599-9.9532039l.735644-.7262129-7.972623-13.2368809-1.186777 1.1223291c-.07545.056588-7.312429 6.7261149-16.871089 6.7261149-9.175119 0-15.891802-5.5990702-17.474695-14.3843602h43.414014l.103745-1.1993516c.028294-.1650484.391401-4.0617623.391401-5.9653204 0-18.7777911-11.822181-31.3984913-29.416339-31.3984913m-13.812193 24.9804668c1.986869-6.4793283 6.952467-10.151262 13.812193-10.151262 5.511044 0 9.758289 4.1922291 10.503365 10.151262z" fill="#231f1f"/><path d="m304.907768 73.8174995v-63.7574072c0-6.57206966-3.212942-9.77400842-9.788156-9.77400842h-16.363369v16.07728512h6.300133c1.059454 0 1.409985.3426718 1.409985 1.406841v11.5250933c-2.702078-2.4411443-7.980483-5.6462268-17.064432-5.6462268-17.767066 0-30.164558 14.1941615-30.164558 34.5108324 0 20.64048 11.88034 34.5045448 29.546806 34.5045448 10.102533 0 15.92324-4.6905181 18.766788-7.9553324.370966 2.8498355 2.214792 6.4573218 9.066658 6.4573218h15.861936v-15.935815h-6.168094c-1.015441 0-1.403697-.4055475-1.403697-1.4131286m-32.649716 2.8985641c-8.706695 0-14.340347-7.2857075-14.340347-18.5561547 0-10.9544975 5.861576-18.3077962 14.590278-18.3077962 9.895044 0 14.330916 9.1248181 14.330916 18.1883326 0 13.7760389-7.538782 18.6756183-14.580847 18.6756183" fill="#231f1f"/><path d="m353.315675 24.2684009c-7.618949 0-14.635863 4.3981466-18.79351 11.4056297v-1.5090139c0-5.9826111-3.304112-9.0242172-9.785012-9.0242172h-15.739329v16.078857h6.293845c1.061026 0 1.411557.3379562 1.411557 1.4036972v48.5446613h18.306224v-26.4250332c0-3.4801632.443273-6.8314315 1.309384-9.9264818 2.75395-9.112243 10.078955-12.3566228 16.001835-12.3566228 2.100044 0 3.631064.2232083 3.653071.2294959l1.53102.2310677v-18.1993358l-1.11447-.1886267c-.056588-.0110032-1.606471-.2640774-3.074615-.2640774" fill="#231f1f"/><path d="m383.561971 73.8174995v-38.8995477c0-6.5767854-3.151638-9.7755804-9.648257-9.7755804h-14.800911v16.0772851h4.731387c1.067313 0 1.406841.3395281 1.406841 1.4021254v38.7706527c0 6.6695269 3.073044 9.7740085 9.657689 9.7740085h16.36494v-15.9373869h-6.303276c-1.015441 0-1.408413-.4039756-1.408413-1.4115567" fill="#231f1f"/><path d="m452.358856 41.2196565v-16.0772851h-9.769293c-5.705959 0-8.768 1.9774369-10.575672 6.8392909l-11.935357 33.3350591c-.411835 1.237077-.800091 2.6219116-1.128616 3.95173-.34896-1.336106-.759223-2.7382313-1.211927-3.9768802l-11.935357-33.3209121c-1.831251-4.9121545-4.787975-6.8282877-10.5741-6.8282877h-10.383901v16.0772851h2.69579c1.427276 0 1.886267.4841419 2.227367 1.378547l18.474417 48.5682396h20.585464l18.47756-48.5682396c.337956-.8944051.809523-1.378547 2.241514-1.378547z" fill="#231f1f"/><path d="m511.196249 61.0128882c.015719-.1650484.386685-4.0617623.386685-5.9653204 0-18.7777911-11.826897-31.3984913-29.425771-31.3984913-19.724068 0-33.506395 14.1941615-33.506395 34.5108324 0 19.9881459 14.865359 34.5045448 35.376944 34.5045448 16.133873 0 25.995907-9.5492283 26.40617-9.9532039l.745076-.7262129-7.958476-13.2368809-1.210355 1.1223291c-.062876.056588-7.33758 6.7261149-16.861658 6.7261149-9.181406 0-15.899662-5.5990702-17.48727-14.3843602h43.428161zm-42.849706-12.3833449c2.002587-6.4793283 6.952467-10.151262 13.81062-10.151262 5.525192 0 9.756718 4.1922291 10.506509 10.151262z" fill="#231f1f"/><g fill="#3b3b3c"><path d="m353.315675 24.2684009c-5.918164 0-11.429209 2.6769277-15.566421 7.1316623 3.49431-.0314378 7.012198-.0597318 10.528515-.0597318 3.090335 0 6.153947.028294 9.226991.0471567v-6.6663831l-1.11447-.1886267c-.056588-.0110032-1.606471-.2640774-3.074615-.2640774"/><path d="m432.013891 31.9816623-.752935 2.118907c7.07979.4872857 14.102992 1.0248719 21.0979 1.6253336v-10.5835315h-9.767721c-5.705959 0-8.769572 1.9774369-10.577244 6.8392909"/><path d="m44.137599 23.6490765c-10.2880163 0-16.2391896 4.6166392-19.1078879 7.804431-.3426718-2.7460909-2.1534885-6.3111361-9.2269909-6.3111361h-15.36050349v16.0772851h6.29541716c1.06574103 0 1.40841292.3395281 1.40841292 1.4021254v40.9099942c8.41432411-2.9268581 17.03456571-5.7483996 25.82142761-8.4614808-5.3805775-3.0793314-7.8845973-9.9987886-7.8845973-16.5378486 0-13.7713233 7.5324941-18.680334 14.5792744-18.680334 8.64382 0 14.4566671 7.4523278 14.4566671 18.5530109 0 4.6622241-1.0122968 8.359308-2.6454899 11.1855652 6.8392909-1.9365678 13.7728952-3.8149757 20.8133879-5.6226485.227924-1.8752641.397688-3.8055443.397688-5.8081314 0-20.6404801-11.8803403-34.5108324-29.5468056-34.5108324"/><path d="m88.1269247 25.1423714h-16.3586533v16.0772851h6.3017047c1.0594535 0 1.4005535.3395281 1.4005535 1.4036972v19.8026631c6.0360554-1.5027263 12.1318426-2.9614397 18.3172275-4.3667089v-23.1413561c0-6.5752135-3.1689291-9.7755804-9.6608324-9.7755804"/><path d="m80.2140333.28608388h16.3224998v17.19332652h-16.3224998z"/><path d="m145.615637 23.6490765c-10.29116 0-16.232902 4.6166392-19.115748 7.804431-.342671-2.7460909-2.144057-6.3111361-9.217559-6.3111361h-15.368363v16.0772851h6.300133c1.061025 0 1.406841.3395281 1.406841 1.4021254v12.8250458c6.1901-1.3125277 12.466655-2.5857581 18.780935-3.81026 2.0969-8.4976342 8.041786-11.784455 13.736741-11.784455 5.155798 0 9.263145 2.6879309 11.768737 7.1803909 6.318995-1.0531659 12.680432-2.0686065 19.096884-3.0290309-4.170222-12.5719717-14.158008-20.3543962-27.388601-20.3543962"/><path d="m208.904621 23.6490765c-14.411082 0-25.621798 7.5875102-30.629838 19.5936017 7.782425-1.1207572 15.645016-2.1676355 23.57677-3.1390632 2.029309-1.0578816 4.391859-1.6237618 7.053068-1.6237618 1.009153 0 1.945999.1886267 2.854551.4479885 7.19611-.8142387 14.458239-1.56403 21.776956-2.2509457-5.031618-8.1659655-13.717879-13.0278195-24.631507-13.0278195"/><path d="m295.119612.28608388h-16.363369v16.07728512h6.300133c1.057882 0 1.409985.3426718 1.409985 1.406841v11.5250933c-2.702078-2.4411443-7.980483-5.6462268-17.064432-5.6462268-9.943772 0-18.202479 4.4468751-23.551619 11.9353564 19.348387-1.6284775 39.047305-2.7963913 59.057458-3.4990259v-22.0253147c0-6.57206966-3.212942-9.77400842-9.788156-9.77400842"/><path d="m324.738725 25.1423714h-15.742473v6.8282877c8.353021-.2656493 16.743766-.4558479 25.206819-.5517332-.927415-4.15136-4.079053-6.2765545-9.464346-6.2765545"/><path d="m365.996107.28608388h16.322499v17.19332652h-16.322499z"/><path d="m373.915285 25.1423714h-14.80091v6.2561199c8.084227.0723069 16.130729.2200646 24.133218.4385572-.910124-4.4720254-3.961161-6.6946771-9.332308-6.6946771"/><path d="m395.228534 25.1423714h-10.383901v6.7434057c7.108084.2106331 14.173727.4699949 21.198501.7906603l-.2405-.7057783c-1.831251-4.9121545-4.787975-6.8282877-10.5741-6.8282877"/><path d="m482.157163 23.6490765c-11.246868 0-20.543023 4.6260705-26.480049 12.3581946 8.598235.754507 17.144598 1.6017554 25.595076 2.5338858 1.301524.1430419 2.57947.2750806 3.86056.4244101 8.154962.9226991 16.221899 1.9365678 24.219672 3.0274591-4.189085-11.3333228-14.090416-18.3439496-27.195259-18.3439496"/></g></svg>