<svg xmlns="http://www.w3.org/2000/svg" fill="none" viewBox="0 0 240 240"><path fill="#fff" fill-rule="evenodd" d="M238.2 217.8V229a9.2 9.2 0 0 0-9.3 9.3h-11a9.2 9.2 0 0 0-18.5 0h-11a9.2 9.2 0 0 0-18.6 0h-11a9.2 9.2 0 0 0-9.3-9.3 9.2 9.2 0 0 0-9.2 9.3h-11a9.2 9.2 0 0 0-18.5 0H99.7a9.2 9.2 0 1 0-18.5 0h-11a9.2 9.2 0 0 0-18.5 0h-11a9.2 9.2 0 1 0-18.5 0H11a9.2 9.2 0 0 0-9.3-9.3v-11a9.2 9.2 0 0 0 0-18.5v-11a9.2 9.2 0 0 0 0-18.6v-11a9.2 9.2 0 0 0 9.3-9.3 9.2 9.2 0 0 0-9.3-9.2v-11a9.2 9.2 0 0 0 0-18.5V99.7a9.2 9.2 0 1 0 0-18.5v-11a9.2 9.2 0 0 0 0-18.5v-11a9.2 9.2 0 1 0 0-18.5V11A9.2 9.2 0 0 0 11 1.7h11a9.2 9.2 0 1 0 18.5 0h11a9.2 9.2 0 0 0 18.6 0h11a9.2 9.2 0 0 0 18.5 0h11a9.2 9.2 0 0 0 18.5 0h11.1a9.2 9.2 0 0 0 9.2 9.3 9.2 9.2 0 0 0 9.3-9.3h11a9.2 9.2 0 0 0 18.5 0h11a9.2 9.2 0 0 0 18.5 0H229a9.2 9.2 0 0 0 9.3 9.3v11a9.2 9.2 0 1 0 0 18.5v11a9.2 9.2 0 0 0 0 18.6v11a9.2 9.2 0 0 0 0 18.5v11a9.2 9.2 0 0 0 0 18.5v11.1a9.2 9.2 0 0 0-9.3 9.2 9.2 9.2 0 0 0 9.3 9.3v11a9.2 9.2 0 0 0 0 18.5v11a9.2 9.2 0 1 0 0 18.5Z" clip-rule="evenodd"/><rect width="177.2" height="177.2" x="31.4" y="31.4" fill="#FFDE00" rx="2"/><path fill="#000" d="M81.2 160h5.9c3 0 4.9-1.9 4.9-5V86.7c0-3-2-5-5-5h-5.8V66.5h42.4c22.7 0 40.7 11.7 40.7 34.2 0 22.6-18 34.3-40.7 34.3H109v20c0 3.1 2 5 5 5h12v15.4H81.1V160Zm41-40.8c15.1 0 23.8-6.4 23.8-18.2 0-12.1-8.7-18.2-23.7-18.2H109v36.6h13.3v-.2Z"/></svg>