<svg width="240" height="240" fill="none" xmlns="http://www.w3.org/2000/svg"><path fill-rule="evenodd" clip-rule="evenodd" d="M238.154 217.846v11.077a9.231 9.231 0 0 0-9.231 9.231h-11.077a9.231 9.231 0 0 0-18.461 0h-11.077a9.231 9.231 0 0 0-18.462 0h-11.077a9.23 9.23 0 0 0-9.231-9.231 9.23 9.23 0 0 0-9.23 9.231h-11.077a9.231 9.231 0 0 0-18.462 0H99.692a9.23 9.23 0 1 0-18.461 0H70.154a9.231 9.231 0 0 0-18.462 0H40.615a9.23 9.23 0 1 0-18.461 0H11.077a9.231 9.231 0 0 0-9.23-9.231v-11.077a9.231 9.231 0 0 0 0-18.461v-11.077a9.231 9.231 0 0 0 0-18.462v-11.077a9.23 9.23 0 0 0 9.23-9.231 9.23 9.23 0 0 0-9.23-9.23v-11.077a9.231 9.231 0 0 0 0-18.462V99.692a9.23 9.23 0 1 0 0-18.461V70.154a9.23 9.23 0 0 0 0-18.462V40.615a9.23 9.23 0 1 0 0-18.461V11.077a9.23 9.23 0 0 0 9.23-9.23h11.077a9.23 9.23 0 1 0 18.461 0h11.077a9.23 9.23 0 0 0 18.462 0H81.23a9.23 9.23 0 0 0 18.461 0h11.077a9.231 9.231 0 0 0 18.462 0h11.077a9.23 9.23 0 0 0 9.23 9.23 9.23 9.23 0 0 0 9.231-9.23h11.077a9.231 9.231 0 0 0 18.462 0h11.077a9.231 9.231 0 0 0 18.461 0h11.077a9.231 9.231 0 0 0 9.231 9.23v11.077a9.23 9.23 0 1 0 0 18.461v11.077a9.231 9.231 0 0 0 0 18.462V81.23a9.231 9.231 0 0 0 0 18.461v11.077a9.231 9.231 0 0 0 0 18.462v11.077a9.23 9.23 0 0 0-9.231 9.23 9.23 9.23 0 0 0 9.231 9.231v11.077a9.231 9.231 0 0 0 0 18.462v11.077a9.23 9.23 0 1 0 0 18.461Z" fill="#fff"/><rect x="31.384" y="31.385" width="177.231" height="177.231" rx="2" fill="#FFDE00"/><path d="M81.23 160.055h5.844c3.001 0 4.897-1.937 4.897-5.003v-68.42c0-3.066-1.896-5.002-4.897-5.002h-5.843V66.462h42.328c22.743 0 40.749 11.78 40.749 34.209 0 22.592-18.006 34.372-40.749 34.372h-14.531v20.009c0 3.066 1.896 5.003 5.054 5.003h11.846v15.33H81.231v-15.33Zm41.065-40.826c15.005 0 23.691-6.455 23.691-18.235 0-12.102-8.686-18.234-23.691-18.234h-13.267v36.63h13.267v-.161Z" fill="#000"/></svg>