<svg viewBox="0 0 20 20"><circle cx="10" cy="10" r="10" fill="#FF4500"/><path fill="#FFF" d="M16.67 10a1.46 1.46 0 0 0-2.47-1 7.12 7.12 0 0 0-3.85-1.23L11 4.65l2.14.45a1 1 0 1 0 .13-.61L10.82 4a.31.31 0 0 0-.37.24l-.74 3.47a7.14 7.14 0 0 0-3.9 1.23 1.46 1.46 0 1 0-1.61 2.39 2.87 2.87 0 0 0 0 .44c0 2.24 2.61 4.06 5.83 4.06s5.83-1.82 5.83-4.06a2.87 2.87 0 0 0 0-.44 1.46 1.46 0 0 0 .81-1.33Zm-10 1a1 1 0 1 1 1 1 1 1 0 0 1-1-1Zm5.81 2.75a3.84 3.84 0 0 1-2.47.77 3.84 3.84 0 0 1-2.47-.77.27.27 0 0 1 .38-.38A3.27 3.27 0 0 0 10 14a3.28 3.28 0 0 0 2.09-.61.27.27 0 1 1 .39.4Zm-.18-1.71a1 1 0 1 1 1-1 1 1 0 0 1-1.01 1.04Z"/></svg>