<?xml version="1.0" standalone="no"?>
<!DOCTYPE svg PUBLIC "-//W3C//DTD SVG 20010904//EN"
 "http://www.w3.org/TR/2001/REC-SVG-20010904/DTD/svg10.dtd">
<svg version="1.0" xmlns="http://www.w3.org/2000/svg"
 width="400.000000pt" height="400.000000pt" viewBox="0 0 400.000000 400.000000"
 preserveAspectRatio="xMidYMid meet">

<g transform="translate(0.000000,400.000000) scale(0.100000,-0.100000)"
fill="#000000" stroke="none">
<path d="M0 2000 l0 -2000 2000 0 2000 0 0 2000 0 2000 -2000 0 -2000 0 0
-2000z m2269 1069 c254 -41 455 -188 550 -402 87 -196 70 -457 -41 -645 -45
-76 -161 -192 -230 -232 -32 -17 -58 -37 -58 -42 0 -6 71 -133 157 -282 86
-149 185 -319 219 -377 33 -59 68 -117 78 -130 9 -13 16 -27 16 -31 0 -5 -134
-7 -297 -6 l-297 3 -31 55 c-18 30 -114 200 -214 378 l-183 322 -134 0 -134 0
0 -380 0 -380 -250 0 -250 0 0 1080 0 1080 518 0 c312 0 543 -4 581 -11z"/>
<path d="M1670 2361 l0 -281 233 0 c269 0 311 8 372 67 60 58 80 112 80 218 0
80 -3 95 -28 137 -28 48 -64 81 -127 114 -31 17 -64 19 -282 22 l-248 4 0
-281z"/>
</g>
</svg>
