<svg width="400" height="400" viewBox="0 0 400 400" fill="none" xmlns="http://www.w3.org/2000/svg">
<g clip-path="url(#clip0_7_12)">
<rect width="400" height="400" fill="white"/>
<path d="M124 298.314V102.667H212.041C224.525 102.667 235.798 105.369 245.86 110.772C256.109 116.175 264.121 123.629 269.897 133.132C275.673 142.448 278.561 153.069 278.561 164.994C278.561 177.292 275.673 188.379 269.897 198.254C264.121 207.943 256.201 215.583 246.139 221.173C236.078 226.763 224.711 229.558 212.041 229.558H169.278V298.314H124ZM232.445 298.314L182.694 209.993L231.327 203.006L286.667 298.314H232.445ZM169.278 193.223H207.849C212.693 193.223 216.886 192.199 220.426 190.149C224.153 187.913 226.947 184.839 228.811 180.925C230.861 177.013 231.885 172.541 231.885 167.51C231.885 162.479 230.767 158.1 228.531 154.373C226.295 150.461 223.035 147.479 218.749 145.429C214.65 143.38 209.619 142.355 203.656 142.355H169.278V193.223Z" fill="black"/>
</g>
<defs>
<clipPath id="clip0_7_12">
<rect width="400" height="400" fill="white"/>
</clipPath>
</defs>
</svg>
