<?xml version="1.0" standalone="no"?>
<!DOCTYPE svg PUBLIC "-//W3C//DTD SVG 20010904//EN"
 "http://www.w3.org/TR/2001/REC-SVG-20010904/DTD/svg10.dtd">
<svg version="1.0" xmlns="http://www.w3.org/2000/svg"
 width="256.000000pt" height="256.000000pt" viewBox="0 0 256.000000 256.000000"
 preserveAspectRatio="xMidYMid meet">

<g transform="translate(0.000000,256.000000) scale(0.100000,-0.100000)"
fill="#EB0029" stroke="none">
<path d="M1140 2554 c-561 -72 -997 -471 -1116 -1024 -26 -119 -26 -381 0
-500 111 -513 493 -895 1006 -1006 119 -26 381 -26 500 0 513 111 895 493
1006 1006 26 119 26 381 0 500 -109 507 -483 886 -986 1001 -83 19 -331 33
-410 23z m443 -699 c144 -37 279 -70 300 -76 l37 -10 0 -398 0 -399 -102 -12
c-57 -7 -114 -13 -127 -14 -27 -1 -18 -38 -91 376 l-33 186 -23 -10 c-18 -8
-22 -17 -19 -37 10 -57 46 -523 41 -528 -6 -7 -246 -37 -250 -32 -2 2 -24 116
-48 253 -24 137 -48 251 -53 253 -6 1 -16 -1 -23 -6 -10 -6 -9 -53 9 -249 12
-133 19 -248 16 -255 -7 -19 -236 -45 -246 -28 -4 6 -24 109 -45 229 -21 119
-39 218 -41 220 -2 2 -13 1 -25 -3 -18 -6 -21 -12 -16 -43 9 -62 38 -423 35
-426 -2 -2 -36 -7 -76 -11 -64 -6 -72 -5 -77 12 -38 127 -186 718 -180 720 5
2 178 82 384 178 206 96 379 174 383 175 4 0 126 -29 270 -65z m337 -1095 c0
-108 -2 -120 -17 -120 -10 1 -139 22 -287 48 l-270 47 -8 34 c-5 18 -7 35 -5
38 5 5 513 70 560 72 l27 1 0 -120z"/>
</g>
</svg>
