<svg preserveAspectRatio="xMidYMid" viewBox="0 0 256 180"><path fill="#00A1E0" d="M106.6 19.7a44.8 44.8 0 0 1 71.8 9.4A55.4 55.4 0 0 1 255.8 80a55.4 55.4 0 0 1-66 54.5 40.3 40.3 0 0 1-52.7 16.6 46 46 0 0 1-85.5-2A43 43 0 0 1 0 106.8c0-16 8.6-30 21.4-37.4a49.6 49.6 0 0 1 85-49.8"/><path fill="#FFFFFF" d="M37.2 93c-.2.4 0 .5 0 .5l1.5 1c2.6 1.3 5.1 1.7 7.7 1.7 5.2 0 8.5-2.8 8.5-7.3 0-4.2-3.7-5.7-7.1-6.8l-.5-.2c-2.6-.8-4.8-1.5-4.8-3.2v-.1c0-1.5 1.3-2.6 3.3-2.6 2.3 0 5 .8 6.7 1.7 0 0 .5.4.7-.1l1-3c.1-.2 0-.4-.2-.5a15 15 0 0 0-7.5-2h-.6c-4.8 0-8.1 2.9-8.1 7v.1c0 4.4 3.7 5.8 7.2 6.8l.5.2c2.5.8 4.7 1.4 4.7 3.2v.1c0 1.6-1.4 2.8-3.7 2.8-.9 0-3.7 0-6.7-2l-1-.5s-.4-.2-.6.3l-1 2.9Z"/><path fill="#FFFFFF" d="M114 93c-.2.4 0 .5 0 .5l1.5 1c2.6 1.3 5.1 1.7 7.7 1.7 5.2 0 8.5-2.8 8.5-7.3 0-4.2-3.7-5.7-7.1-6.8l-.5-.2c-2.6-.8-4.8-1.5-4.8-3.2v-.1c0-1.5 1.3-2.6 3.3-2.6 2.3 0 5 .8 6.7 1.7 0 0 .5.4.7-.1l1-3c.1-.2 0-.4-.2-.5a15 15 0 0 0-7.5-2h-.6c-4.8 0-8.1 2.9-8.1 7v.1c0 4.4 3.7 5.8 7.2 6.8l.5.2c2.5.8 4.7 1.4 4.7 3.2v.1c0 1.6-1.4 2.8-3.7 2.8-.9 0-3.7 0-6.7-2-.4-.1-.6-.3-.9-.5-.1 0-.5-.2-.7.3l-1 2.9Z"/><path fill="#FFFFFF" d="M166.4 84.2c0 2.5-.5 4.5-1.4 6-1 1.3-2.3 2-4.3 2s-3.3-.7-4.2-2a11 11 0 0 1-1.4-6c0-2.6.5-4.6 1.4-6 .9-1.4 2.3-2 4.2-2 2 0 3.4.6 4.3 2 1 1.4 1.4 3.4 1.4 6m4.4-4.7a9.6 9.6 0 0 0-5.4-6.4c-1.3-.6-2.9-1-4.7-1a11 11 0 0 0-4.7 1 9.7 9.7 0 0 0-5.3 6.4 16.6 16.6 0 0 0 0 9.4c.4 1.4 1 2.7 2 3.8a10.3 10.3 0 0 0 8 3.5c1.8 0 3.4-.4 4.7-1a9.4 9.4 0 0 0 3.4-2.5c.9-1.1 1.5-2.4 2-3.8a16.5 16.5 0 0 0 0-9.4"/><path fill="#FFFFFF" d="M206.7 91.5c-.1-.4-.5-.3-.5-.3a10 10 0 0 1-4.5.8c-2 0-3.8-.6-5-1.9-1.2-1.2-1.9-3.2-1.8-6 0-2.4.6-4.3 1.6-5.7a5.9 5.9 0 0 1 4.9-2.2c1.8 0 3.2.2 4.6.7 0 0 .4.1.5-.3l1.1-3c.1-.3-.2-.5-.3-.5a17 17 0 0 0-11 0 10.1 10.1 0 0 0-5.7 6.3c-.5 1.5-.7 3-.7 4.7 0 3.7 1 6.6 2.9 8.8 2 2.1 4.8 3.2 8.6 3.2 2.3 0 4.6-.4 6.2-1.1 0 0 .4-.2.2-.5l-1-3Z"/><path fill="#FFFFFF" d="M214.4 81.7c.2-1.4.6-2.6 1.2-3.5.9-1.4 2.3-2.1 4.2-2.1 2 0 3.3.7 4.2 2.1a8 8 0 0 1 1 3.5h-10.6Zm14.7-3a9.2 9.2 0 0 0-4.7-5.7 13.1 13.1 0 0 0-9.2.1 9.7 9.7 0 0 0-5.3 6.5 16.6 16.6 0 0 0 0 9.4 9.7 9.7 0 0 0 5.9 6.2c1.5.6 3.3 1 5.3 1 4.3 0 6.6-1 7.5-1.6.2 0 .3-.2.1-.7l-1-2.7c0-.4-.5-.2-.5-.2-1 .4-2.6 1-6 1-2.4 0-4-.6-5.1-1.7-1.1-1-1.7-2.7-1.8-5l14.9.1s.3 0 .4-.4c0-.1.5-3-.5-6.4Z"/><path fill="#FFFFFF" d="M95.7 81.7c.2-1.4.6-2.6 1.2-3.5.9-1.4 2.3-2.1 4.2-2.1 2 0 3.2.7 4.2 2.1.6 1 .8 2.2 1 3.5H95.7Zm14.7-3a9.2 9.2 0 0 0-4.7-5.7 12.8 12.8 0 0 0-9.2.1 9.7 9.7 0 0 0-5.3 6.5 16.8 16.8 0 0 0 0 9.4 9.7 9.7 0 0 0 5.9 6.2c1.4.6 3.3 1 5.3 1 4.3 0 6.6-1 7.5-1.6.2 0 .3-.2.1-.7l-1-2.7c0-.4-.5-.2-.5-.2-1 .4-2.6 1-6 1-2.4 0-4-.6-5.2-1.7-1-1-1.6-2.7-1.7-5l14.8.1s.4 0 .5-.4c0-.1.5-3-.5-6.4Z"/><path fill="#FFFFFF" d="M63.6 91.4a3 3 0 0 1-.8-.8 4 4 0 0 1-.5-2c0-1.3.5-2.2 1.4-2.8 0 0 1.2-1.2 4.3-1.1 2 0 4 .3 4 .3v6.8s-1.9.4-4 .5c-3 .2-4.4-.9-4.4-.9m6-10.4h-2.4a14 14 0 0 0-3.6.4c-1.2.3-2.2.8-3.1 1.5-1 .6-1.6 1.4-2.2 2.4-.5 1-.8 2.1-.8 3.4 0 1.3.3 2.5.7 3.4.5 1 1.1 1.7 2 2.3.8.6 1.8 1 3 1.3a26.8 26.8 0 0 0 8.4 0l3.7-.7 1-.2c.4-.1.4-.5.4-.5V80.7c0-3-.8-5.2-2.4-6.5-1.5-1.4-3.8-2-6.8-2-1 0-2.9 0-4 .3 0 0-3.2.6-4.5 1.7 0 0-.3.1-.1.6l1 2.8c.1.3.5.2.5.2l.2-.1c2.9-1.6 6.5-1.5 6.5-1.5a6 6 0 0 1 3.7 1c.8.6 1.2 1.5 1.2 3.5v.6l-2.5-.3"/><path fill="#FFFFFF" d="M189.1 73.4a.4.4 0 0 0-.2-.6l-2.5-.4A7.4 7.4 0 0 0 180 75v-2c0-.3-.2-.5-.5-.5h-3.8c-.2 0-.4.2-.4.5v22c0 .3.2.5.5.5h3.9c.2 0 .4-.2.4-.4v-11c0-1.5.2-3 .5-4 .3-.9.8-1.6 1.3-2.1.5-.6 1.2-1 1.8-1.1l2-.3 1.6.2c.3 0 .5-.2.6-.4l1.1-3.1"/><path fill="#FFFFFF" d="M152.5 63.1a12.7 12.7 0 0 0-3.4-.5c-2.7 0-4.8.8-6.3 2.3a12.2 12.2 0 0 0-3 6.7l-.2 1h-3.3s-.4 0-.5.4l-.6 3.1c0 .3.1.5.5.5h3.3l-3.4 18.5a23 23 0 0 1-.8 3.7l-1 2.1c-.5.5-.8.9-1.4 1a5.5 5.5 0 0 1-3.8 0s-.3-.2-.5.2l-1.1 3c-.1.3 0 .5.2.6l1.4.4a10.9 10.9 0 0 0 5.8-.4c1-.4 2-1 2.7-2 .9-.9 1.4-1.9 2-3.2.5-1.4 1-3 1.3-5l3.3-18.9h4.9s.4 0 .5-.4l.5-3.1c0-.3 0-.5-.5-.5h-4.7c0-.1.2-1.8.8-3.3.2-.7.7-1.2 1-1.6.4-.4.8-.6 1.3-.8l1.6-.2a6.2 6.2 0 0 1 2 .3c.4.1.5 0 .6-.2l1.1-3.2c.1-.3-.2-.4-.3-.5"/><path fill="#FFFFFF" d="M86.3 95.2c0 .2-.2.4-.4.4h-4a.4.4 0 0 1-.4-.4V63.6c0-.3.2-.5.5-.5h3.9c.2 0 .4.2.4.5v31.6Z"/></svg>