<svg xmlns="http://www.w3.org/2000/svg" viewBox="0 0 400 400"><rect width="400" height="400" fill="black"/><mask id="mask0" maskUnits="userSpaceOnUse" x="60" y="60" width="280" height="280"><rect x="60" y="60" width="280" height="280" fill="white"/></mask><g mask="url(#mask0)"><path d="M114.672 210.668C133.692 212.929 151.398 221.521 164.941 235.065C178.485 248.609 187.078 266.315 189.339 285.335C198.767 279.899 206.654 272.149 212.253 262.816C217.852 253.484 220.98 242.878 221.339 232.001C239.249 225.701 254.889 214.231 266.281 199.042C277.673 183.852 284.305 165.626 285.339 146.668C285.339 138.181 281.967 130.042 275.966 124.041C269.965 118.039 261.826 114.668 253.339 114.668C234.38 115.702 216.154 122.334 200.965 133.726C185.776 145.117 174.306 160.757 168.005 178.668C157.128 179.027 146.522 182.154 137.19 187.754C127.858 193.353 120.108 201.24 114.672 210.668Z" stroke="white" stroke-width="10" stroke-linecap="round" stroke-linejoin="round"/><path d="M146.665 221.336C135.564 227.603 126.587 237.043 120.886 248.446C115.184 259.849 113.018 272.694 114.665 285.336C127.307 286.982 140.152 284.817 151.555 279.115C162.958 273.414 172.398 264.437 178.665 253.336" stroke="white" stroke-width="10" stroke-linecap="round" stroke-linejoin="round"/><circle cx="232" cy="168" r="12" stroke="white" stroke-width="10"/></g></svg>