<svg viewBox="0 0 432 91"><style>.st0{fill:#fc4c02}</style><path d="M74.5 49.5c1.6 2.8 2.5 6.3 2.5 10.4v.2c0 4.2-.8 8-2.5 11.4a25.6 25.6 0 0 1-7.1 8.6 35.4 35.4 0 0 1-11.2 5.4 51.8 51.8 0 0 1-14.7 1.9c-8.2 0-15.9-1.1-23-3.4A51 51 0 0 1 .2 73.8l14.4-17.1a48 48 0 0 0 28.2 9.4c2.5 0 4.2-.3 5.3-.9 1.1-.6 1.6-1.5 1.6-2.5v-.2c0-1.2-.8-2.1-2.4-2.9-1.6-.8-4.5-1.6-8.8-2.4-4.5-.9-8.8-2-12.9-3.2a44.5 44.5 0 0 1-10.8-4.7 22.2 22.2 0 0 1-7.4-7.2c-2-3.1-2.9-6.7-2.9-10.9V31a24 24 0 0 1 8.8-19.3c2.9-2.5 6.5-4.4 10.7-5.8a66.4 66.4 0 0 1 35.2.7A47.8 47.8 0 0 1 75 14.9L61.9 33a40.6 40.6 0 0 0-24.1-8c-2 0-3.5.3-4.4.9-1 .6-1.4 1.4-1.4 2.4v.2c0 1.1.7 2 2.2 2.8 1.5.8 4.3 1.6 8.5 2.4 5.1.9 9.8 2 14 3.3 4.2 1.3 7.8 3 10.9 5 2.9 2.2 5.3 4.6 6.9 7.5zm1-21.4h23.7v57.8h26.9V28.1h23.7V5.3H75.5v22.8zM387.9.3l-43.3 85.6h25.8l17.5-34.6 17.6 34.6h25.8L387.9.3zM267.3.3l43.4 85.6h-25.8l-17.5-34.6-17.5 34.6h-48.2l-15.2-23h-5.7v23h-26.9V5.3H193a53 53 0 0 1 17.8 2.5c4.6 1.6 8.4 3.9 11.2 6.7 2.5 2.4 4.3 5.2 5.5 8.3 1.2 3.1 1.8 6.7 1.8 10.8v.2c0 5.9-1.4 10.9-4.3 14.9a29.2 29.2 0 0 1-11.6 9.7l14 20.4L267.3.3zm-64.8 35.3c0-2.6-.9-4.5-2.8-5.8a12.6 12.6 0 0 0-7.5-1.9h-11.7v15.8h11.6c3.2 0 5.8-.7 7.6-2.1a7 7 0 0 0 2.8-5.8v-.2zM345.2 5.3 327.6 40 310 5.3h-25.8l43.4 85.6 43.3-85.6h-25.7z" class="st0"/></svg>