<svg preserveAspectRatio="xMidYMid" viewBox="0 0 256 256"><path fill="#E44332" d="M224 0H32A32 32 0 0 0 0 32v192a32 32 0 0 0 32 32h192a32 32 0 0 0 32-32V32a32 32 0 0 0-32-32"/><path fill="#FFFFFF" d="m54.1 120.8 102.6-59.6c2.2-1.3 2.3-5.2-.2-6.6l-8.8-5.1a8 8 0 0 0-8 0c-1.2.8-83.1 48.3-85.8 50a11 11 0 0 1-10.6 0L0 74v21.6l43 25.2c3.8 2.2 7.5 2.1 11.1 0"/><path fill="#FFFFFF" d="M54.1 161.6 156.7 102c2.2-1.3 2.3-5.2-.2-6.6l-8.8-5.1a8 8 0 0 0-8 0l-85.8 50a11 11 0 0 1-10.6 0L0 114.7v21.6l43 25.2c3.8 2.2 7.5 2.1 11.1 0"/><path fill="#FFFFFF" d="m54.1 205 102.6-59.6c2.2-1.3 2.3-5.2-.2-6.7l-8.8-5a8 8 0 0 0-8 0L54 183.6a10.6 10.6 0 0 1-10.6 0L0 158.2v21.6L43 205c3.8 2.1 7.5 2 11.1 0"/></svg>