<svg fill-rule="evenodd" clip-rule="evenodd" image-rendering="optimizeQuality" shape-rendering="geometricPrecision" text-rendering="geometricPrecision" viewBox="0 0 105 80"><path fill="#ff3534" d="M-.5-.5h15C9.9 6.3 4.9 13-.5 19.5v-20Z"/><path fill="#ff3b35" d="M14.5-.5h8v7a6.9 6.9 0 0 0-4.5 3c-2.1 4.1-5 7.6-8.5 10.5l1 1a44.1 44.1 0 0 0-11 12.5v-14C4.9 13 9.9 6.3 14.5-.5Z"/><path fill="#ff4837" d="M42.5-.5h6a31.4 31.4 0 0 0-7 12 37 37 0 0 1 1-12Z" opacity=".7"/><path fill="#ff4e37" d="M48.5-.5h12a7 7 0 0 1-2 2.5l1 1c-2.4 2.6-4.9 5.1-7.5 7.5-1 2.5-2.1 4.8-3.5 7-2 1.7-3.9 3.7-5.5 6-.2 2.2-.7 4.2-1.5 6v-18c1.4-4.4 3.7-8.4 7-12Z" opacity=".9"/><path fill="#ff5538" d="M65.5-.5h6c.1 1 0 2-.5 3A439 439 0 0 0 58.5 16c2.8 2.2 2.6 2.7-.5 1.5-4.4 6.4-9.4 13-15 20-.2-2.2-.7-4.2-1.5-6v-2c.8-1.8 1.3-3.8 1.5-6 1.6-2.3 3.5-4.3 5.5-6 2.2.7 4.2 0 6-2l-1-2c1.8-2 4.1-4.2 7-6.5a8 8 0 0 1 0-4L62 1.5c3.2 2.7 3.7 2.5 1.5-.5 1-.3 1.6-.8 2-1.5Z"/><path fill="#ff5a39" d="M71.5-.5h12a143 143 0 0 1-14 17.5c.6.4.9.9 1 1.5h-4v4a262 262 0 0 0-23.5 30 8.8 8.8 0 0 0-1.5-4v-17c.8 1.8 1.3 3.8 1.5 6 5.6-7 10.6-13.6 15-20 3.1 1.2 3.3.7.5-1.5 4-4.6 8.2-9 12.5-13.5.5-1 .6-2 .5-3Z"/><path fill="#ff6039" d="M83.5-.5h12a14.4 14.4 0 0 1-6 5.5c.6 1.6-.1 2.9-2 4l1 1c-2.7 2-5 4.3-7 7 1 .3 1.6.8 2 1.5h-13c-.1-.6-.4-1.1-1-1.5 4.8-5 9.5-10.9 14-17.5Z"/><path fill="#ff673a" d="M95.5-.5h9v6c-2 .7-3.7 1.8-5 3.5l1 1a55.1 55.1 0 0 1-6 6.5 31 31 0 0 1 2 2h-13c-.4-.7-1-1.2-2-1.5 2-2.7 4.3-5 7-7l-1-1c1.9-1.1 2.6-2.4 2-4 2.5-1.3 4.5-3.1 6-5.5Z"/><path fill="#ff5238" d="M60.5-.5h5c-.4.7-1 1.2-2 1.5 2.2 3 1.7 3.2-1.5.5L60.5 3a8 8 0 0 0 0 4 51.6 51.6 0 0 0-7 6.5l1 2c-1.8 2-3.8 2.7-6 2 1.4-2.2 2.5-4.5 3.5-7 2.6-2.4 5.1-4.9 7.5-7.5l-1-1a7 7 0 0 0 2-2.5Z"/><path fill="#ff6c3b" d="M104.5 5.5v13h-8a31 31 0 0 0-2-2c2.2-2 4.2-4.2 6-6.5l-1-1c1.3-1.7 3-2.8 5-3.5Z" opacity=".9"/><path fill="#ff4136" d="M22.5 6.5v14c-1.2.5-2.4 1.2-3.5 2-2.5 5.4-6.4 10-11.5 14-1.3 4.6-4 8-8 10v-13c2.8-4.8 6.5-9 11-12.5l-1-1A32 32 0 0 0 18 9.5a6.9 6.9 0 0 1 4.5-3Z"/><path fill="#ff4737" d="M22.5 20.5v14a14 14 0 0 0-4 2.5l1 1a5 5 0 0 1-3 .5c-.1 3-1.6 5-4.5 6a90.6 90.6 0 0 1-9 14c-.7.8-1.5 1-2.5 1h-1v-13c4-2 6.7-5.4 8-10 5.1-4 9-8.6 11.5-14 1.1-.8 2.3-1.5 3.5-2Z"/><path fill="#ff6039" d="M66.5 22.5v7h5a9039.9 9039.9 0 0 1-39 50h-11a184 184 0 0 0 13-18c6.2-2.2 8.5-6.5 7-13a8.8 8.8 0 0 1 1.5 4 262 262 0 0 1 23.5-30Z"/><path fill="#ff663a" d="M71.5 29.5h12a99 99 0 0 0-13 19h-4v4a1497 1497 0 0 0-22 27h-12l39-50Z"/><path fill="#ff6d3b" d="M83.5 29.5c7-1.7 9.7 1 8 8a4 4 0 0 0-3.5 2c-2 3-3.8 6-5.5 9h-12a99 99 0 0 1 13-19Z"/><path fill="#ff4d37" d="M22.5 34.5v15a29.1 29.1 0 0 0-3 4.5l-3 1c1.1.8 1.1 1.6 0 2.5a10.1 10.1 0 0 1-6 5c-.9 2.9-2.2 5.5-4 8a14.2 14.2 0 0 1-6-11c1 0 1.8-.2 2.5-1 3.5-4.4 6.5-9.1 9-14 2.9-1 4.4-3 4.5-6 1 .1 2 0 3-.5l-1-1c1.2-1 2.6-2 4-2.5Z"/><path fill="#ff723c" d="M91.5 37.5a48 48 0 0 1-.5 10 20 20 0 0 1-8.5 1c1.7-3 3.6-6 5.5-9a4 4 0 0 1 3.5-2Z" opacity=".8"/><path fill="#ff6d3b" d="M66.5 52.5v8h6c-3 1.9-5.2 4.5-6.5 8l-1-1c-.5 1.2-1.3 2-2.5 2.5v3l-3 1 1 1a6.9 6.9 0 0 0-3 4.5h-13a1497 1497 0 0 1 22-27Z"/><path fill="#ff5538" d="M22.5 49.5a12 12 0 0 0 3 10c-1.3 2-2.4 4-3.5 6l-1-2c-.7 2.4-1.9 4.6-3.5 6.5 1.2 1 1 1.7-.5 2.5l-1-1a37.8 37.8 0 0 1-3.5 4c-1.5 0-2.5-.6-3-2 1.4-2.5 2.4-5.1 3-8 2 .3 3.6-.2 5-1.5a11 11 0 0 1-1-6.5c1.1-.9 1.1-1.7 0-2.5l3-1c.9-1.7 1.9-3.2 3-4.5Z"/><path fill="#ff5238" d="M16.5 57.5a11 11 0 0 0 1 6.5 5.9 5.9 0 0 1-5 1.5c-.6 2.9-1.6 5.5-3 8a6.5 6.5 0 0 1-3-3c1.8-2.5 3.1-5.1 4-8 2.6-.8 4.6-2.5 6-5Z"/><path fill="#ff5a39" d="M25.5 59.5c2.7 1.6 5.7 2.3 9 2a184 184 0 0 1-13 18h-2c-2.5-1-4.8-2.4-7-4 1.2-1.2 2.4-2.6 3.5-4l1 1c1.5-.8 1.7-1.6.5-2.5 1.6-2 2.8-4.1 3.5-6.5l1 2c1-2 2.2-4 3.5-6Z"/><path fill="#ff733c" d="M72.5 60.5h8c1.3 1 1.3 2 0 3-4.2 5.5-8.5 10.8-13 16h-10a6.9 6.9 0 0 1 3-4.5l-1-1 3-1v-3c1.2-.5 2-1.3 2.5-2.5l1 1c1.3-3.5 3.5-6.1 6.5-8Z"/><path fill="#ff793c" d="M80.5 60.5h14a70 70 0 0 0-5 3.5c.8 1.6.2 2.6-2 3l1 1c-3.2 3.7-6.2 7.5-9 11.5h-12c4.5-5.2 8.8-10.5 13-16 1.3-1 1.3-2 0-3Z"/><path fill="#ff803d" d="M94.5 60.5h10v4c-1.1.4-2.1 1-3 2-2.8 4.6-5.8 9-9 13h-13c2.8-4 5.8-7.8 9-11.5l-1-1c2.2-.4 2.8-1.4 2-3a70 70 0 0 1 5-3.5Z"/><path fill="#ff873e" d="M104.5 73.5v6h-7c2.3-1.9 4.1-4.2 5.5-7 .4.6.9.9 1.5 1Z"/><path fill="#ff853e" d="M104.5 64.5v9c-.6-.1-1.1-.4-1.5-1a20.7 20.7 0 0 1-5.5 7h-5c3.2-4 6.2-8.4 9-13 .9-1 1.9-1.6 3-2Z"/></svg>