<svg width="116" height="50" viewBox="0 0 116 50" fill="none" xmlns="http://www.w3.org/2000/svg">
<g clip-path="url(#clip0_638_4)">
<g clip-path="url(#clip1_638_4)">
<mask id="mask0_638_4" style="mask-type:luminance" maskUnits="userSpaceOnUse" x="0" y="0" width="50" height="50">
<path d="M50 0H0V50H50V0Z" fill="white"/>
</mask>
<g mask="url(#mask0_638_4)">
<mask id="mask1_638_4" style="mask-type:luminance" maskUnits="userSpaceOnUse" x="0" y="0" width="50" height="50">
<path d="M50 0H0V50H50V0Z" fill="white"/>
</mask>
<g mask="url(#mask1_638_4)">
<path fill-rule="evenodd" clip-rule="evenodd" d="M49.999 15.8369C49.999 15.2305 49.999 14.624 49.9952 14.0244C49.9921 13.5117 49.9862 13.0059 49.9727 12.4932C49.9579 11.3789 49.8604 10.2676 49.6806 9.16796C49.4921 8.06836 49.1406 7.00196 48.6387 6.00586C47.6173 4.00684 45.9902 2.38184 43.9902 1.3623C42.9952 0.857421 41.9296 0.505859 40.83 0.318359C39.7296 0.139648 38.6181 0.0410157 37.504 0.024414C36.9952 0.0117187 36.4854 0.00585937 35.9765 0.00585937C35.3721 4.85064e-10 34.7667 0 34.1642 0H15.835C15.2305 0 14.626 4.85064e-10 14.0225 0.00585937C13.5127 0.00585937 13.0039 0.0117187 12.4941 0.024414C11.3799 0.0410157 10.2686 0.139648 9.16796 0.318359C8.06835 0.505859 7.00294 0.857421 6.00781 1.3623C4.00781 2.38184 2.38183 4.00782 1.36035 6.00586C0.857421 7.00196 0.506835 8.06836 0.318358 9.16796C0.137695 10.2676 0.0400392 11.3789 0.0263673 12.4932C0.0126953 13.0059 0.00683594 13.5117 0.00390625 14.0244C0 14.624 0 15.2305 0 15.8369V34.1611C0 34.7676 0 35.374 0.00390625 35.9736C0.00390625 36.4863 0.0126953 36.9932 0.0263673 37.5049C0.0400392 38.619 0.137695 39.7305 0.318358 40.8301C0.506835 41.9307 0.857421 42.9961 1.36035 43.9932C2.38183 45.9911 4.00879 47.6161 6.00781 48.6368C7.00294 49.1415 8.06835 49.4932 9.16796 49.6807C10.2676 49.8624 11.3789 49.9609 12.4941 49.9736C13.0029 49.9863 13.5127 49.9932 14.0225 49.9932C14.627 49.999 15.2314 49.999 15.835 49.999H34.1631C34.7675 49.999 35.3731 49.999 35.9756 49.9932C36.4854 49.9932 36.9952 49.9863 37.504 49.9736C38.6181 49.9609 39.7304 49.8624 40.83 49.6807C41.9296 49.4932 42.9952 49.1415 43.9902 48.6368C45.9892 47.6172 47.6162 45.9911 48.6377 43.9932C49.1406 42.9961 49.4912 41.9307 49.6798 40.8301C49.8604 39.7305 49.9579 38.619 49.9727 37.5049C49.9862 36.9932 49.9921 36.4863 49.9952 35.9736C49.999 35.374 49.999 34.7676 49.999 34.1611V15.8369Z" fill="#FF5B24"/>
</g>
<path d="M25.76 31.7969C30.1358 31.7969 32.6202 29.668 34.9856 26.5928C36.2873 24.9365 37.9425 24.5821 39.1263 25.5284C40.3088 26.4746 40.4269 28.249 39.1263 29.9042C35.6954 34.3994 31.3196 37.12 25.76 37.12C19.7277 37.12 14.4055 33.8075 10.7385 28.0117C9.67401 26.4746 9.91034 24.8184 11.093 23.9903C12.2756 23.1621 14.05 23.5175 15.1144 25.1738C17.717 29.0761 21.2648 31.7969 25.76 31.7969ZM33.921 17.249C33.921 19.3779 32.2648 20.7969 30.3723 20.7969C28.4796 20.7969 26.8233 19.3779 26.8233 17.249C26.8233 15.1201 28.4796 13.7002 30.3723 13.7002C32.2648 13.7002 33.921 15.2373 33.921 17.249Z" fill="white"/>
</g>
</g>
<g clip-path="url(#clip2_638_4)">
<mask id="mask2_638_4" style="mask-type:luminance" maskUnits="userSpaceOnUse" x="66" y="0" width="50" height="50">
<path d="M116 0H66V50H116V0Z" fill="white"/>
</mask>
<g mask="url(#mask2_638_4)">
<mask id="mask3_638_4" style="mask-type:luminance" maskUnits="userSpaceOnUse" x="66" y="-1" width="50" height="51">
<path d="M116 -0.000976562H66V49.999H116V-0.000976562Z" fill="white"/>
</mask>
<g mask="url(#mask3_638_4)">
<path fill-rule="evenodd" clip-rule="evenodd" d="M115.999 15.8369C115.999 15.2305 115.999 14.624 115.995 14.0244C115.992 13.5117 115.986 13.0049 115.973 12.4932C115.958 11.3789 115.86 10.2676 115.681 9.16796C115.492 8.06738 115.141 7.00196 114.639 6.00488C113.617 4.00684 111.99 2.38086 109.99 1.36133C108.995 0.856446 107.93 0.504882 106.83 0.317382C105.73 0.138672 104.618 0.0410155 103.504 0.0244141C102.995 0.0117187 102.485 0.00488281 101.976 0.00488281C101.372 -0.000976562 100.767 -0.000976562 100.164 -0.000976562H81.835C81.2305 -0.000976562 80.626 -0.000976562 80.0225 0.00488281C79.5127 0.00488281 79.0039 0.0117187 78.4941 0.0244141C77.3799 0.0410155 76.2686 0.138672 75.168 0.317382C74.0684 0.504882 73.0029 0.856446 72.0078 1.36133C70.0078 2.38184 68.3818 4.00684 67.3604 6.00488C66.8574 7.00196 66.5068 8.06738 66.3184 9.16796C66.1377 10.2676 66.04 11.3789 66.0264 12.4932C66.0127 13.0049 66.0068 13.5117 66.0039 14.0244C66 14.624 66 15.2305 66 15.8369V34.1611C66 34.7676 66 35.374 66.0039 35.9736C66.0039 36.4863 66.0127 36.9932 66.0264 37.5049C66.04 38.6192 66.1377 39.7305 66.3184 40.8301C66.5068 41.9307 66.8574 42.9961 67.3604 43.9932C68.3818 45.9913 70.0088 47.6161 72.0078 48.6367C73.0029 49.1415 74.0684 49.4932 75.168 49.6807C76.2676 49.8624 77.3789 49.9609 78.4941 49.9736C79.0029 49.9863 79.5127 49.9932 80.0225 49.9932C80.627 49.999 81.2314 49.999 81.835 49.999H100.163C100.767 49.999 101.373 49.999 101.976 49.9932C102.485 49.9932 102.995 49.9863 103.504 49.9736C104.618 49.9609 105.73 49.8624 106.83 49.6807C107.93 49.4932 108.995 49.1415 109.99 48.6367C111.989 47.6171 113.616 45.9913 114.638 43.9932C115.141 42.9961 115.491 41.9307 115.68 40.8301C115.86 39.7305 115.958 38.6192 115.973 37.5049C115.986 36.9932 115.992 36.4863 115.995 35.9736C115.999 35.374 115.999 34.7676 115.999 34.1611V15.8369Z" fill="#5A78FF"/>
</g>
<path fill-rule="evenodd" clip-rule="evenodd" d="M88.5035 11.2404C88.3531 11.2404 88.2016 11.2687 88.0551 11.3302L78.8413 15.1632C78.5513 15.2843 78.3247 15.5109 78.2046 15.8029C78.0845 16.0939 78.0845 16.4142 78.2046 16.7062L87.0024 38.0372C87.2506 38.6397 87.941 38.926 88.5376 38.677L97.7514 34.8428C98.3512 34.5939 98.6362 33.9024 98.3883 33.2999L89.5903 11.9689C89.4028 11.5148 88.9653 11.2404 88.5035 11.2404ZM88.0922 40.1437C87.0922 40.1437 86.1411 39.5489 85.7358 38.5645L76.939 17.2326C76.6792 16.6017 76.6792 15.9064 76.939 15.2756C77.1997 14.6437 77.689 14.1525 78.3179 13.8908L87.5318 10.0578C88.8287 9.5187 90.3218 10.1388 90.8599 11.4416L99.6576 32.7737C100.195 34.0764 99.5766 35.5764 98.2797 36.1153L89.066 39.9485C88.7485 40.0812 88.4185 40.1437 88.0943 40.1437H88.0922Z" fill="url(#paint0_radial_638_4)"/>
<path fill-rule="evenodd" clip-rule="evenodd" d="M96.3085 25.6246C93.6396 26.7273 91.4121 28.2517 89.9521 30.0857L86.1904 21.0192C87.786 19.1022 89.8769 17.6618 92.5458 16.5593C95.2158 15.4568 97.911 14.9196 100.202 15.2312L103.964 24.2975C101.585 24.0486 98.9783 24.5221 96.3085 25.6246Z" fill="url(#paint1_linear_638_4)"/>
<path fill-rule="evenodd" clip-rule="evenodd" d="M96.3085 25.6246C93.6396 26.7273 91.4121 28.2517 89.9521 30.0857L86.1904 21.0192C87.786 19.1022 89.8769 17.6618 92.5458 16.5593C95.2158 15.4568 97.911 14.9196 100.202 15.2312L103.964 24.2975C101.585 24.0486 98.9783 24.5221 96.3085 25.6246Z" fill="url(#paint2_radial_638_4)"/>
<path fill-rule="evenodd" clip-rule="evenodd" d="M97.5665 28.4073C94.6836 28.4073 92.0459 28.9581 89.999 30.082V21.0177C92.2051 19.8691 94.6857 19.3418 97.5684 19.3428C100.451 19.3428 103.143 19.8711 105.136 21.0206V30.085C103.036 28.9589 100.449 28.4083 97.5665 28.4073Z" fill="white"/>
</g>
</g>
</g>
<defs>
<radialGradient id="paint0_radial_638_4" cx="0" cy="0" r="1" gradientUnits="userSpaceOnUse" gradientTransform="translate(93.9841 23.7939) rotate(-78.91) scale(8.71581 6.82715)">
<stop stop-color="#626262"/>
<stop offset="1" stop-color="white"/>
</radialGradient>
<linearGradient id="paint1_linear_638_4" x1="87.9658" y1="27.2369" x2="96.0585" y2="21.6707" gradientUnits="userSpaceOnUse">
<stop stop-color="#D3D0DD"/>
<stop offset="1" stop-color="white"/>
</linearGradient>
<radialGradient id="paint2_radial_638_4" cx="0" cy="0" r="1" gradientUnits="userSpaceOnUse" gradientTransform="translate(97.431 22.8898) rotate(90) scale(5.72754 13.2061)">
<stop stop-color="#DAD7E2"/>
<stop offset="0.58" stop-color="#D9D6E2"/>
<stop offset="1" stop-color="white" stop-opacity="0"/>
</radialGradient>
<clipPath id="clip0_638_4">
<rect width="116" height="50" fill="white"/>
</clipPath>
<clipPath id="clip1_638_4">
<rect width="50" height="50" fill="white"/>
</clipPath>
<clipPath id="clip2_638_4">
<rect width="50" height="50" fill="white" transform="translate(66)"/>
</clipPath>
</defs>
</svg>
