<?xml version="1.0" encoding="utf-8"?>
<!-- Generator: Adobe Illustrator 21.1.0, SVG Export Plug-In . SVG Version: 6.00 Build 0)  -->
<svg version="1.1" id="Layer_1" xmlns="http://www.w3.org/2000/svg" xmlns:xlink="http://www.w3.org/1999/xlink" x="0px" y="0px"
	 viewBox="0 0 163.5 66.1" style="enable-background:new 0 0 163.5 66.1;" xml:space="preserve">
<style type="text/css">
	.st0{fill:#FF5B24;}
	.st1{fill:none;}
</style>
<path class="st0" d="M28,22l5.1,14.9l5-14.9H44l-8.8,22.1h-4.4L22,22H28z"/>
<path class="st1" d="M141.4,38.1l14.9-5.1l-14.9-5v-6l22.1,8.8v4.4L141.4,44V38.1z"/>
<path class="st1" d="M28,44l5.1,14.9l5-14.9H44l-8.8,22.1h-4.4L22,44H28z"/>
<path class="st1" d="M38.1,22.1L33,7.2l-5,14.9h-6L30.9,0h4.4l8.8,22.1H38.1z"/>
<path class="st1" d="M22.1,28L7.2,33.1l14.9,5.1v5.9L0,35.3v-4.4L22.1,22V28z"/>
<path class="st0" d="M57.3,40.6c3.7,0,5.8-1.8,7.8-4.4c1.1-1.4,2.5-1.7,3.5-0.9s1.1,2.3,0,3.7c-2.9,3.8-6.6,6.1-11.3,6.1
	c-5.1,0-9.6-2.8-12.7-7.7c-0.9-1.3-0.7-2.7,0.3-3.4s2.5-0.4,3.4,1C50.5,38.3,53.5,40.6,57.3,40.6z M64.2,28.3c0,1.8-1.4,3-3,3
	s-3-1.2-3-3s1.4-3,3-3C62.8,25.3,64.2,26.6,64.2,28.3z"/>
<path class="st0" d="M78.3,22v3c1.5-2.1,3.8-3.6,7.2-3.6c4.3,0,9.3,3.6,9.3,11.3c0,8.1-4.8,12-9.8,12c-2.6,0-5-1-6.8-3.5v10.6h-5.4
	V22H78.3z M78.3,33c0,4.5,2.6,6.9,5.5,6.9c2.8,0,5.6-2.2,5.6-6.9c0-4.6-2.8-6.8-5.6-6.8C81,26.2,78.3,28.3,78.3,33z"/>
<path class="st0" d="M104.3,22v3c1.5-2.1,3.8-3.6,7.2-3.6c4.3,0,9.3,3.6,9.3,11.3c0,8.1-4.8,12-9.8,12c-2.6,0-5-1-6.8-3.5v10.6h-5.4
	V22H104.3z M104.3,33c0,4.5,2.6,6.9,5.5,6.9c2.8,0,5.6-2.2,5.6-6.9c0-4.6-2.8-6.8-5.6-6.8C106.9,26.2,104.3,28.3,104.3,33z"/>
<path class="st0" d="M132.3,21.4c4.5,0,7.7,2.1,9.1,7.3l-4.9,0.8c-0.1-2.6-1.7-3.5-4.1-3.5c-1.8,0-3.2,0.8-3.2,2.1
	c0,1,0.7,2,2.8,2.4l3.7,0.7c3.6,0.7,5.6,3.1,5.6,6.3c0,4.8-4.3,7.2-8.4,7.2c-4.3,0-9.1-2.2-9.8-7.6l4.9-0.8c0.3,2.8,2,3.8,4.8,3.8
	c2.1,0,3.5-0.8,3.5-2.1c0-1.2-0.7-2.1-3-2.5l-3.4-0.6c-3.6-0.7-5.8-3.2-5.8-6.4C124.2,23.5,128.7,21.4,132.3,21.4z"/>
</svg>
