<svg xmlns="http://www.w3.org/2000/svg" baseProfile="basic" viewBox="0 0 48 48"><linearGradient id="a" x1="25.503" x2=".665" y1="26.5" y2="26.5" gradientUnits="userSpaceOnUse"><stop offset="0" stop-color="#0c63ad"/><stop offset="1" stop-color="#50e6ff"/></linearGradient><path fill="url(#a)" d="m26.6 31-2.5 5.5a11 11 0 0 1-8.2 4c-6.6.2-9.7-5.8-9.7-5.8A44 44 0 0 1 1 17c0-.8.2-1.6.7-2.3a4.2 4.2 0 0 1 4-2.1 4.7 4.7 0 0 1 3.6 1.8c.5 1 .8 2 .8 3a41.3 41.3 0 0 0 3.5 12c.3.8.8 1.4 1.5 2l.4.1c1 .2 1.6-.6 2-1.4l1.4-3.7c0-.3 0-.5.2-.8l.3-1.3 2-5.7L26.7 31z"/><radialGradient id="b" cx="26.403" cy="22.574" r="21.814" gradientTransform="matrix(1 0 0 1.1255 0 -2.8)" gradientUnits="userSpaceOnUse"><stop offset="0" stop-color="#185c37"/><stop offset=".661" stop-color="#30dc80"/><stop offset="1" stop-color="#5eee5c"/></radialGradient><path fill="url(#b)" d="M32.3 7.5a11.2 11.2 0 0 0-4.7 1 10.3 10.3 0 0 0-3.6 3l-3 8 5.8 11 2-6.2.1-1a30.3 30.3 0 0 1 1.6-4.9 3.6 3.6 0 0 1 1.1-1.6 1.3 1.3 0 0 1 1.5.1l.6.7.5.7.8 1.7a8.7 8.7 0 0 0 .9 1.4c.4.5 1 .9 1.6 1.2.5.3 1.2.4 1.8.4a5.2 5.2 0 0 0 1.8-.3 4.1 4.1 0 0 0 1.5-1c.4-.4.7-1 1-1.5a5.8 5.8 0 0 0 .3-1.7 4.8 4.8 0 0 0-.4-2s-1.7-4.5-4.8-6.8a10.5 10.5 0 0 0-6.4-2.2z"/><linearGradient id="c" x1="1.591" x2="52.822" y1="27.9" y2="18.867" gradientUnits="userSpaceOnUse"><stop offset="0" stop-color="#103f8d"/><stop offset=".494" stop-color="#2f64f7"/><stop offset="1" stop-color="#11408b"/></linearGradient><path fill="url(#c)" d="m15 7.5-1.1.1a11 11 0 0 0-7.2 5c.4 0 .9.3 1.2.5.6.3 1 .7 1.4 1.2.5.9.8 2 .8 3a47.3 47.3 0 0 0 1.3 6.7 21.7 21.7 0 0 1 3-6.8l.7-.6a1 1 0 0 1 .5-.1c.2 0 .5 0 .8.2l.7.7a17.6 17.6 0 0 1 1.9 5.2l1.3 5.3a37.3 37.3 0 0 0 1.7 5.3c2 4.6 5.1 6 5.1 6a11.6 11.6 0 0 0 5 1.2 9.6 9.6 0 0 0 4.6-1 12.7 12.7 0 0 0 4.2-3.3 22.6 22.6 0 0 0 1.8-3 35.4 35.4 0 0 0 2.8-7.5 42.5 42.5 0 0 0 1-5l.4-2.5a5.6 5.6 0 0 0 0-2.3l-.2-.4a4.6 4.6 0 0 0-2-2.3 3.9 3.9 0 0 0-2.2-.7 5.6 5.6 0 0 0-1.1.2 23 23 0 0 1 2.1 3.9 4.8 4.8 0 0 1 .4 1.9 5.8 5.8 0 0 1-.3 1.7 7.7 7.7 0 0 1-1 1.6 3.4 3.4 0 0 1-1.5 1 5.2 5.2 0 0 1-1.8.3 4 4 0 0 1-2.3-.7l-.4 1.8A21.3 21.3 0 0 1 35 28a14.1 14.1 0 0 1-1.1 2.2 3 3 0 0 1-1.3 1.1 1.8 1.8 0 0 1-.6 0 1 1 0 0 1-.5-.1 3.3 3.3 0 0 1-.9-1 13 13 0 0 1-.7-1.4c-.4-1-1-3.4-1-3.4l-.7-2.6-.6-2.5-.5-1.7a19.5 19.5 0 0 0-2.8-6.6A11 11 0 0 0 19 8a9 9 0 0 0-2.6-.5H15z"/></svg>