<svg version="1.1" viewBox="0 0 512 512" xml:space="preserve" xmlns="http://www.w3.org/2000/svg" xmlns:xlink="http://www.w3.org/1999/xlink"><g id="_x33_71-wechat"><g><g><path d="M342.248,169.517c8.712,0,17.221,0.724,25.616,1.759C352.687,104.625,282.682,54.21,198.503,54.21     c-95.28,0-172.502,64.541-172.502,144.134c0,45.889,25.819,86.602,65.866,112.945l-22.742,45.605l61.953-26.608     c13.285,4.731,27.09,8.627,41.835,10.44c-2.015-8.796-3.16-17.813-3.16-27.068C169.753,234.178,247.115,169.517,342.248,169.517z      M256.003,119.066c11.905,0,21.56,9.685,21.56,21.623c0,11.942-9.654,21.62-21.56,21.62c-11.912,0-21.563-9.678-21.563-21.62     C234.44,128.75,244.091,119.066,256.003,119.066z M141.001,162.309c-11.907,0-21.562-9.678-21.562-21.62     c0-11.938,9.656-21.623,21.562-21.623s21.563,9.685,21.563,21.623C162.563,152.631,152.906,162.309,141.001,162.309z" style="fill:#51C332;"/><path d="M485.999,313.656c0-63.684-64.376-115.312-143.751-115.312     c-79.378,0-143.745,51.628-143.745,115.312c0,63.679,64.367,115.308,143.745,115.308c13.054,0,25.471-1.845,37.519-4.465     l77.483,33.291l-26.798-53.701C464.035,382.983,485.999,350.527,485.999,313.656z M299.125,306.448     c-11.906,0-21.563-9.681-21.563-21.625c0-11.938,9.656-21.616,21.563-21.616c11.91,0,21.561,9.682,21.561,21.616     C320.686,296.768,311.033,306.448,299.125,306.448z M385.373,306.448c-11.912,0-21.561-9.681-21.561-21.625     c0-11.938,9.648-21.616,21.561-21.616c11.911,0,21.563,9.682,21.563,21.616C406.936,296.768,397.284,306.448,385.373,306.448z" style="fill:#51C332;"/></g></g></g><g id="Layer_1"/></svg>
