<svg xmlns="http://www.w3.org/2000/svg" viewBox="0 0 122.5 122.5"><g fill="#464342"><path d="M8.7 61.3a52.7 52.7 0 0 0 29.6 47.3l-25-68.7c-3 6.5-4.6 13.7-4.6 21.4z"/><path d="M96.7 58.6c0-6.5-2.3-11-4.3-14.5-2.7-4.3-5.2-8-5.2-12.3 0-4.8 3.7-9.3 8.9-9.3h.7a52.4 52.4 0 0 0-79.4 9.9h3.3c5.5 0 14-.6 14-.6 2.9-.2 3.2 4 .4 4.3 0 0-2.9.4-6 .5l19.1 57L59.7 59l-8.2-22.5c-2.8-.1-5.5-.5-5.5-.5-2.8-.1-2.5-4.5.3-4.3 0 0 8.7.7 13.9.7 5.5 0 14-.7 14-.7 2.8-.2 3.2 4 .3 4.3 0 0-2.8.4-6 .5l19 56.5 5.2-17.5c2.3-7.3 4-12.5 4-17z"/><path d="m62.2 65.9-15.8 45.8a52.6 52.6 0 0 0 32.3-.9l-.4-.7z"/><path d="M107.4 36a49.6 49.6 0 0 1-3.6 24.2l-16.1 46.5A52.5 52.5 0 0 0 107.4 36z"/><path d="M61.3 0a61.3 61.3 0 1 0 .1 122.7A61.3 61.3 0 0 0 61.3 0zm0 119.7a58.5 58.5 0 1 1 .1-117 58.5 58.5 0 0 1-.1 117z"/></g></svg>