<svg xmlns="http://www.w3.org/2000/svg" xmlns:xlink="http://www.w3.org/1999/xlink" viewBox="0,0,256,256" width="480px" height="480px" fill-rule="nonzero"><g transform="translate(32,32) scale(0.75,0.75)"><g fill-opacity="0" fill="#ff0000" fill-rule="nonzero" stroke="none" stroke-width="1" stroke-linecap="butt" stroke-linejoin="miter" stroke-miterlimit="10" stroke-dasharray="" stroke-dashoffset="0" font-family="none" font-weight="none" font-size="none" text-anchor="none" style="mix-blend-mode: normal"><path d="M-42.66667,298.66667v-341.33333h341.33333v341.33333z" id="bgRectangle"></path></g><g fill="#ff0000" fill-rule="nonzero" stroke="none" stroke-width="1" stroke-linecap="butt" stroke-linejoin="miter" stroke-miterlimit="10" stroke-dasharray="" stroke-dashoffset="0" font-family="none" font-weight="none" font-size="none" text-anchor="none" style="mix-blend-mode: normal"><path d="M128,292.57143c-90.89029,0 -164.57143,-73.68114 -164.57143,-164.57143v0c0,-90.89029 73.68114,-164.57143 164.57143,-164.57143v0c90.89029,0 164.57143,73.68114 164.57143,164.57143v0c0,90.89029 -73.68114,164.57143 -164.57143,164.57143z" id="shape"></path></g><g fill="#ffffff" fill-rule="nonzero" stroke="none" stroke-width="1" stroke-linecap="butt" stroke-linejoin="miter" stroke-miterlimit="10" stroke-dasharray="" stroke-dashoffset="0" font-family="none" font-weight="none" font-size="none" text-anchor="none" style="mix-blend-mode: normal"><g transform="scale(5.33333,5.33333)"><path d="M21.413,47.315c1.685,0.076 3.206,-0.076 4.891,0c-0.383,-4.097 0.719,-8.451 0.297,-12.544c-0.118,-1.142 0.076,-2.779 0.171,-3.924c0.102,-1.229 1.069,-3.553 1.533,-4.696c3.541,-8.731 5.77,-15.742 8.924,-24.62c-1.548,-0.029 -3.702,0.029 -5.25,0c-2.934,7.419 -5.846,15.183 -8.022,22.859c-3.659,-6.121 -5.157,-12.182 -7.055,-18.386c-0.13,-0.424 -0.284,-0.885 -0.66,-1.12c-0.247,-0.154 -0.549,-0.183 -0.839,-0.205c-1.56,-0.118 -3.126,-0.149 -4.689,-0.09c3.636,7.742 6.793,16.44 9.267,24.628c0.411,1.36 0.806,2.729 1.013,4.134c0.218,1.48 0.447,2.718 0.453,4.213c0.009,2.887 -0.044,6.865 -0.034,9.751z"></path><path d="M37.228,1.033c-1.75,-0.028 -3.5,0.028 -5.25,0c-0.238,-0.004 -0.401,0.161 -0.482,0.367c-2.823,7.142 -5.525,14.344 -7.685,21.717c-2.11,-3.802 -3.592,-7.875 -4.862,-12.033c-0.335,-1.095 -0.659,-2.193 -0.986,-3.291c-0.27,-0.904 -0.439,-2.011 -0.95,-2.815c-0.522,-0.821 -1.483,-0.798 -2.35,-0.848c-1.315,-0.076 -2.633,-0.086 -3.95,-0.041c-0.401,0.014 -0.593,0.409 -0.432,0.752c2.538,5.416 4.725,10.992 6.675,16.645c1.884,5.463 3.992,11.069 3.99,16.917c0,2.97 -0.043,5.941 -0.034,8.911c0.001,0.199 0.102,0.33 0.234,0.406c0.072,0.051 0.156,0.09 0.266,0.094c1.631,0.063 3.261,-0.063 4.891,0c0.253,0.01 0.523,-0.238 0.5,-0.5c-0.29,-3.347 0.333,-6.672 0.39,-10.014c0.026,-1.503 -0.185,-2.988 -0.088,-4.49c0.082,-1.276 0.2,-2.483 0.603,-3.701c0.908,-2.743 2.12,-5.396 3.142,-8.098c1.122,-2.965 2.185,-5.951 3.229,-8.944c1.21,-3.467 2.4,-6.941 3.629,-10.402c0.114,-0.314 -0.175,-0.627 -0.48,-0.632zM30.286,19.685c-1.051,2.814 -2.242,5.576 -3.274,8.396c-0.426,1.163 -0.695,2.274 -0.806,3.505c-0.061,0.682 -0.122,1.366 -0.138,2.051c-0.018,0.764 0.083,1.516 0.114,2.278c0.148,3.64 -0.621,7.255 -0.403,10.893c-1.288,-0.021 -2.575,0.037 -3.862,0.015c0.012,-5.353 0.438,-10.808 -0.961,-16.031c-1.566,-5.848 -3.647,-11.615 -5.86,-17.245c-1.123,-2.857 -2.331,-5.681 -3.617,-8.468c0.98,-0.018 1.96,-0.013 2.939,0.038c0.445,0.023 1.19,-0.067 1.573,0.2c0.355,0.247 0.446,0.872 0.561,1.249c0.612,2.017 1.195,4.043 1.828,6.053c1.316,4.174 2.906,8.253 5.146,12.025c0.22,0.371 0.796,0.295 0.914,-0.119c2.174,-7.647 4.961,-15.101 7.878,-22.492c1.403,0.014 2.805,-0.007 4.208,0c-2.082,5.883 -4.056,11.805 -6.24,17.652z"></path></g></g></g></svg>