<?xml version="1.0" encoding="UTF-8"?>
<svg version="1.1" xmlns="http://www.w3.org/2000/svg" width="511" height="512">
<path d="M0 0 C4.91286045 5.02451637 7.36119311 10.49407704 7.84375 17.52734375 C7.55244659 24.62786432 4.24931492 30.03355417 0.0546875 35.57421875 C-2.21788957 39.47298121 -2.46253019 42.66290488 -1.6484375 47.06640625 C0.80390946 55.57515391 0.80390946 55.57515391 6.75 61.8125 C8.38843477 62.61936738 10.03510926 63.40961291 11.6875 64.1875 C18.07037947 67.22696642 21.23617452 71.08761414 24.625 77.1875 C26.68128334 83.81330187 26.54979749 88.712859 23.625 95.0625 C21.20559934 99.45831247 18.9036911 102.0151162 14.75 104.8125 C13.88375 105.410625 13.0175 106.00875 12.125 106.625 C6.23903258 108.69598854 0.08801101 108.98531468 -5.8515625 106.8984375 C-12.82322111 103.28436698 -17.28946164 98.40093214 -19.734375 90.8671875 C-21.91289003 82.18613517 -18.67671158 76.26680707 -14.25 68.8125 C-13.59 68.1525 -12.93 67.4925 -12.25 66.8125 C-11.19386515 58.91206266 -12.32723789 50.36434262 -16.6796875 43.5859375 C-18.20302566 41.56741588 -18.20302566 41.56741588 -21.0625 40.875 C-26.78178229 40.76285721 -30.57761406 43.82778757 -34.63793945 47.63183594 C-35.12866943 48.10395508 -35.61939941 48.57607422 -36.125 49.0625 C-37.17767868 50.0528351 -38.23106478 51.04241878 -39.28515625 52.03125 C-39.79191895 52.50949219 -40.29868164 52.98773438 -40.82080078 53.48046875 C-42.69234133 55.22476756 -44.62073049 56.89704467 -46.5625 58.5625 C-49.65207108 61.23800485 -52.52723381 64.06540724 -55.38749695 66.98257446 C-57.13056216 68.69515128 -58.92501746 70.27738514 -60.78833008 71.85693359 C-66.15040228 76.52229663 -71.1270516 81.56474048 -76.13671875 86.6015625 C-77.16683733 87.63355193 -78.19718118 88.66531653 -79.22773743 89.6968689 C-81.91915202 92.39206893 -84.6075518 95.09025604 -87.29528809 97.78912354 C-90.02641705 100.53050464 -92.7603931 103.26904309 -95.49414062 106.0078125 C-100.30444105 110.82763458 -105.11226647 115.64991112 -109.91825867 120.47402954 C-111.58512567 122.14570692 -113.26060656 123.80881296 -114.94172668 125.46615601 C-117.26124196 127.7094958 -117.26124196 127.7094958 -118.9375 130.125 C-119.370625 130.681875 -119.80375 131.23875 -120.25 131.8125 C-120.91 131.8125 -121.57 131.8125 -122.25 131.8125 C-122.48630127 132.37549805 -122.72260254 132.93849609 -122.96606445 133.51855469 C-124.54807106 136.3450491 -126.47864009 138.24854599 -128.79296875 140.515625 C-129.70240234 141.41410156 -130.61183594 142.31257812 -131.54882812 143.23828125 C-132.51134531 144.18006931 -133.47423819 145.12147355 -134.4375 146.0625 C-142.39954727 153.87618614 -150.11182132 161.5999424 -156.625 170.6875 C-157.29273438 171.61304688 -157.96046875 172.53859375 -158.6484375 173.4921875 C-161.38972803 177.46371573 -161.74539667 179.94109939 -161.25 184.8125 C-152.63738514 197.73142229 -124.86873868 200.60558029 -110.7046814 204.43969727 C-104.64162686 206.08117757 -98.58059988 207.73011082 -92.51953125 209.37890625 C-91.87737986 209.55352009 -91.23522846 209.72813393 -90.57361794 209.90803909 C-79.77661082 212.84441168 -68.98632486 215.80481701 -58.19921875 218.77734375 C-57.43955936 218.98666597 -56.67989998 219.1959882 -55.89722061 219.41165352 C-49.1193165 221.27951984 -42.34177284 223.14869152 -35.56469727 225.01956177 C-34.49990552 225.3134836 -34.49990552 225.3134836 -33.41360283 225.61334324 C-31.9990264 226.00382109 -30.58446153 226.39434084 -29.16990852 226.78490353 C-25.74864504 227.72913046 -22.32683968 228.67130455 -18.90377808 229.60899353 C-17.58217125 229.97109103 -16.26056681 230.33319726 -14.93896484 230.6953125 C-13.97426679 230.95953176 -13.97426679 230.95953176 -12.99007988 231.22908878 C-8.58120855 232.439385 -4.18149495 233.67984904 0.21630859 234.9296875 C2.53349705 235.57823791 4.85071547 236.22668124 7.16796875 236.875 C8.19867996 237.1743042 9.22939117 237.4736084 10.29133606 237.78198242 C20.49143349 240.63085477 20.49143349 240.63085477 30.69548035 238.98071289 C32.68688327 237.71569341 32.68688327 237.71569341 34.75 234.8125 C36.01865204 227.70804857 33.55174878 220.34991382 30.75 213.8125 C28.25515246 210.78005979 26.01714973 209.26157279 22.375 207.875 C16.15634279 205.24049498 11.71718604 201.95971867 8.50390625 195.76171875 C6.10035631 189.54735906 6.11849466 182.93256057 8.75 176.8125 C12.67665458 169.97211765 17.24761247 166.31329584 24.75 163.8125 C32.94898844 163.06713741 38.96499519 164.42701079 45.5 169.625 C50.73615113 174.35632042 52.54263957 179.70209348 53 186.5625 C52.87906448 193.09301793 50.68250816 197.82563433 46.5625 202.8125 C44.12326031 205.96343805 42.90415177 208.25499987 43.32421875 212.40625 C43.46472656 213.2003125 43.60523438 213.994375 43.75 214.8125 C43.97623047 216.49859375 43.97623047 216.49859375 44.20703125 218.21875 C45.67133275 225.68771137 45.67133275 225.68771137 50.8046875 230.9765625 C54.07944889 232.45713391 57.34908594 233.65964778 60.75 234.8125 C61.74 235.4725 62.73 236.1325 63.75 236.8125 C63.75 237.4725 63.75 238.1325 63.75 238.8125 C64.41 238.8125 65.07 238.8125 65.75 238.8125 C69.91636704 245.80124471 72.15192921 251.57510308 70.2890625 259.86328125 C68.30943052 265.86040166 65.04888418 270.67012119 59.7109375 274.13671875 C53.2629993 277.38347208 47.02505327 278.18279034 40.10546875 275.96484375 C33.98590643 273.2582907 29.87420454 269.76336579 26.75 263.8125 C26.27893339 262.23882693 25.84083302 260.65487972 25.4375 259.0625 C24.48487198 255.9175962 24.48487198 255.9175962 22.19873047 253.68286133 C15.17903997 250.72474508 7.9041066 248.78828049 0.55001831 246.86724854 C-2.7274128 246.0109633 -6.0003147 245.13790106 -9.27366638 244.26617432 C-10.99818297 243.80711685 -12.72292788 243.34891633 -14.44789124 242.89154053 C-22.76402147 240.68485478 -31.05999242 238.40736538 -39.353302 236.11663818 C-43.51484636 234.96737583 -47.6773491 233.82159614 -51.83984375 232.67578125 C-52.68131454 232.44411255 -53.52278534 232.21244385 -54.38975525 231.97375488 C-69.99819484 227.67837438 -85.61608371 223.41756445 -101.23876953 219.17431641 C-104.42520372 218.30884915 -107.61110891 217.4414906 -110.79638672 216.57177734 C-142.66004495 205.40268103 -142.66004495 205.40268103 -174.3125 208.75 C-175.16972656 209.29527344 -176.02695313 209.84054687 -176.91015625 210.40234375 C-181.24441288 213.01447504 -185.23261094 213.2237614 -190.25 212.8125 C-198.66826209 210.1556214 -203.8004529 205.44029503 -208.25 197.8125 C-210.39534505 190.84012858 -209.55783276 184.20177392 -206.25 177.8125 C-202.36762707 171.5084489 -197.37762093 168.56262915 -190.25 166.8125 C-186.92851083 166.44964824 -183.62048989 166.24974153 -180.28515625 166.05859375 C-170.85961082 165.29436034 -165.90662883 160.15214651 -159.25 153.8125 C-157.79802516 152.55511972 -156.34023182 151.30440653 -154.875 150.0625 C-151.9611308 147.52819292 -149.5983205 144.88960962 -147.25 141.8125 C-145.6045622 140.12487149 -143.93711423 138.4584651 -142.25 136.8125 C-141.425 135.9875 -140.6 135.1625 -139.75 134.3125 C-138.925 133.4875 -138.1 132.6625 -137.25 131.8125 C-136.425 130.966875 -135.6 130.12125 -134.75 129.25 C-132.25 126.8125 -132.25 126.8125 -129.875 125 C-127.62336369 123.12363641 -125.91004203 121.33468267 -124.02255249 119.11750793 C-120.5902187 115.15667571 -116.98949638 111.42878466 -113.26416016 107.74487305 C-112.60459824 107.08837769 -111.94503632 106.43188232 -111.26548767 105.75549316 C-109.84690777 104.34401209 -108.42719998 102.93366382 -107.00645828 101.52435875 C-104.74909577 99.28456304 -102.49544549 97.04109149 -100.24276733 94.79658508 C-93.84192288 88.42003558 -87.43546557 82.04914811 -81.02441406 75.68286133 C-77.08923478 71.77464673 -73.15909033 67.86142537 -69.231884 63.94519997 C-67.74522954 62.4647024 -66.25668739 60.98609762 -64.76613235 59.50952721 C-46.55743735 43.24287574 -46.55743735 43.24287574 -38.875 21.625 C-38.56699978 12.55449025 -36.66947266 5.724401 -29.875 -0.6875 C-20.42445346 -7.91318786 -9.26305169 -6.23474633 0 0 Z " fill="#252525" transform="translate(348.25,139.1875)"/>
<path d="M0 0 C0.66 0 1.32 0 2 0 C8.43344657 23.15316743 14.69650712 46.34823688 20.7734375 69.59765625 C21.01416489 70.51834396 21.25489227 71.43903168 21.50291443 72.38761902 C22.68956955 76.92732601 23.8744028 81.4674949 25.0559082 86.00854492 C27.93020311 97.03659503 30.91279369 108.02968143 34 119 C34.42599487 120.5154541 34.42599487 120.5154541 34.8605957 122.06152344 C35.09866943 122.9074707 35.33674316 123.75341797 35.58203125 124.625 C35.79150391 125.37007813 36.00097656 126.11515625 36.21679688 126.8828125 C36.63166068 128.35727928 37.04847567 129.83119788 37.46679688 131.3046875 C39 136.77554563 39 136.77554563 39 139 C31.77326126 138.33206009 24.77570856 136.75197115 17.74389648 135.00097656 C16.36772085 134.66571449 14.98763462 134.34613296 13.60424805 134.04199219 C11.58337268 133.59614417 9.58046539 133.10091954 7.57421875 132.59375 C6.38401123 132.31208984 5.19380371 132.03042969 3.9675293 131.74023438 C0.14705125 129.49980924 -0.25728094 127.75417553 -1.3731842 123.60348511 C-1.58003342 122.74433502 -1.78688263 121.88518494 -2 121 C-2.49843816 119.22176743 -2.99925734 117.4442009 -3.50219727 115.66723633 C-4.02620787 113.72286885 -4.54749773 111.77776657 -5.06640625 109.83203125 C-5.34596664 108.79358566 -5.62552704 107.75514008 -5.91355896 106.68522644 C-6.79907519 103.39499282 -7.68109439 100.10383697 -8.5625 96.8125 C-9.4477927 93.5105389 -10.33389218 90.20880257 -11.22215271 86.90763855 C-11.77267401 84.86133987 -12.32147329 82.8145769 -12.86830139 80.76728821 C-13.24395485 79.37004768 -13.24395485 79.37004768 -13.62719727 77.94458008 C-13.95337791 76.72621208 -13.95337791 76.72621208 -14.28614807 75.48323059 C-15.1076787 72.62542508 -16.04358765 69.81521707 -17 67 C-17.5393367 67.56820465 -18.0786734 68.1364093 -18.63435364 68.72183228 C-23.73392577 74.08236325 -28.86434748 79.41045794 -34.03188038 84.70543861 C-36.68732043 87.42860821 -39.32938799 90.16245207 -41.9440918 92.92480469 C-44.4701705 95.59260249 -47.02713965 98.22692335 -49.60816002 100.84156418 C-50.58490835 101.84225427 -51.5501794 102.85428657 -52.50315285 103.87764359 C-59.95191619 111.85366425 -59.95191619 111.85366425 -64.88859558 112.20639038 C-67.73473548 111.71525673 -70.28435876 110.97359997 -73 110 C-74.19971436 109.71302246 -75.39942871 109.42604492 -76.63549805 109.13037109 C-78.18297729 108.70618896 -78.18297729 108.70618896 -79.76171875 108.2734375 C-81.46811523 107.809375 -81.46811523 107.809375 -83.20898438 107.3359375 C-84.35689453 107.01882812 -85.50480469 106.70171875 -86.6875 106.375 C-87.87794922 106.05015625 -89.06839844 105.7253125 -90.29492188 105.390625 C-93.19777315 104.59787847 -96.09940035 103.80093812 -99 103 C-99 99 -99 99 -97.625 97.25 C-96 96 -96 96 -94 96 C-93.773125 95.443125 -93.54625 94.88625 -93.3125 94.3125 C-91.62449964 91.33840412 -89.53323483 89.27991135 -87 87 C-86.34 87 -85.68 87 -85 87 C-84.7525 86.38125 -84.505 85.7625 -84.25 85.125 C-82.76259631 82.59641373 -81.56321991 82.28160996 -79 81 C-78.731875 80.42765625 -78.46375 79.8553125 -78.1875 79.265625 C-76.59218602 76.22193385 -74.43225768 74.16811665 -72 71.75 C-71.113125 70.85796875 -70.22625 69.9659375 -69.3125 69.046875 C-67 67 -67 67 -65 67 C-64.773125 66.443125 -64.54625 65.88625 -64.3125 65.3125 C-62.62449964 62.33840412 -60.53323483 60.27991135 -58 58 C-57.34 58 -56.68 58 -56 58 C-55.7525 57.38125 -55.505 56.7625 -55.25 56.125 C-53.76259631 53.59641373 -52.56321991 53.28160996 -50 52 C-49.505 51.01 -49.505 51.01 -49 50 C-47.75491604 47.50983207 -46.53283204 47.01313282 -44 46 C-44 45.34 -44 44.68 -44 44 C-43.34 44 -42.68 44 -42 44 C-41.7525 43.38125 -41.505 42.7625 -41.25 42.125 C-39.76259631 39.59641373 -38.56321991 39.28160996 -36 38 C-35.505 37.01 -35.505 37.01 -35 36 C-33.74191204 33.48382409 -32.4699603 33.19514208 -30 32 C-29.505 30.515 -29.505 30.515 -29 29 C-28.34 29 -27.68 29 -27 29 C-26.7525 28.38125 -26.505 27.7625 -26.25 27.125 C-24.76259631 24.59641373 -23.56321991 24.28160996 -21 23 C-20.67 22.34 -20.34 21.68 -20 21 C-18.75491604 18.50983207 -17.53283204 18.01313282 -15 17 C-15 16.34 -15 15.68 -15 15 C-14.34 15 -13.68 15 -13 15 C-12.34 13.68 -11.68 12.36 -11 11 C-10.34 11 -9.68 11 -9 11 C-9 10.34 -9 9.68 -9 9 C-8.34 9 -7.68 9 -7 9 C-6.62875 8.071875 -6.62875 8.071875 -6.25 7.125 C-4.77229238 4.61289704 -3.56044823 4.23892656 -1 3 C-0.67 2.01 -0.34 1.02 0 0 Z " fill="#F932A0" transform="translate(367,12)"/>
<path d="M0 0 C2.2731754 8.45770512 4.54366383 16.91612985 6.8125 25.375 C7.15158386 26.63918762 7.49066772 27.90337524 7.84002686 29.20587158 C12.7610953 47.56104671 17.63480544 65.92787279 22.40942383 84.32177734 C25.6441712 96.765084 29.02505934 109.16424213 32.58203125 121.51953125 C32.79150391 122.25107422 33.00097656 122.98261719 33.21679688 123.73632812 C33.62888208 125.1725464 34.04587337 126.60736275 34.46679688 128.04101562 C35.54011249 131.81976806 36.09923013 135.08611038 36 139 C30.63217068 137.6706205 25.26520128 136.33783524 19.89892578 135.00219727 C18.08208818 134.55046639 16.26503843 134.09958776 14.44775391 133.6496582 C4.67571187 131.22963119 -5.0684951 128.74809538 -14.75947571 126.02043152 C-21.53453253 124.11670374 -28.32955416 122.29143095 -35.12890625 120.4765625 C-36.29820679 120.16424179 -37.46750732 119.85192108 -38.67224121 119.53013611 C-43.50681225 118.23948226 -48.34174841 116.95020394 -53.17700195 115.66210938 C-69.81898624 111.22695677 -86.42749703 106.68844442 -103 102 C-97.74042233 95.79858279 -92.2753421 89.84929781 -86.625 84 C-86.16996094 83.50902832 -85.71492188 83.01805664 -85.24609375 82.51220703 C-83.90773831 81.07042455 -82.5361836 79.65968638 -81.1640625 78.25 C-80.36436035 77.40953125 -79.5646582 76.5690625 -78.74072266 75.703125 C-75.54288464 73.71594186 -73.71948796 73.81803647 -70.06689453 74.51159668 C-69.38481934 74.67276978 -68.70274414 74.83394287 -68 75 C-66.76983154 75.28391602 -65.53966309 75.56783203 -64.2722168 75.86035156 C-63.01062744 76.2003418 -61.74903809 76.54033203 -60.44921875 76.890625 C-59.75637283 77.07571121 -59.06352692 77.26079742 -58.34968567 77.45149231 C-56.1276365 78.04619479 -53.90760923 78.64810066 -51.6875 79.25 C-50.15900637 79.65999167 -48.63035971 80.06941325 -47.1015625 80.47827148 C-44.10005906 81.28163872 -41.09923396 82.08745134 -38.09912109 82.89599609 C-32.90246775 84.29638173 -27.70252266 85.68408511 -22.5 87.0625 C-21.74291748 87.26584961 -20.98583496 87.46919922 -20.20581055 87.67871094 C-16.65175129 88.66222661 -16.65175129 88.66222661 -13 89 C-13.21377289 88.25133163 -13.42754578 87.50266327 -13.64779663 86.73130798 C-15.6584864 79.66482614 -17.63345222 72.5897654 -19.56929588 65.50244808 C-20.56575129 61.85921307 -21.57546759 58.2208031 -22.61669922 54.59008789 C-23.62160122 51.084158 -24.59007268 47.56996527 -25.53435135 44.04724312 C-25.9003638 42.70691159 -26.27924405 41.37002401 -26.67124557 40.03706169 C-29.71685655 29.63543491 -29.71685655 29.63543491 -28.01879883 25.76148987 C-26.47455279 23.9210511 -24.87891082 22.49164205 -23 21 C-22.14954102 20.101604 -21.29908203 19.20320801 -20.42285156 18.27758789 C-15.91467954 13.72899358 -15.91467954 13.72899358 -13.68505859 11.49975586 C-12.23374698 10.0462221 -10.79066512 8.58481827 -9.34765625 7.12304688 C-8.43371094 6.20716797 -7.51976562 5.29128906 -6.578125 4.34765625 C-5.74700195 3.51242432 -4.91587891 2.67719238 -4.05957031 1.81665039 C-2 0 -2 0 0 0 Z " fill="#FB18D1" transform="translate(463,362)"/>
<path d="M0 0 C1.77536725 6.04034018 3.50723602 12.09166124 5.19970703 18.15576172 C5.70944581 19.96737147 6.2277413 21.77661105 6.75732422 23.58251953 C7.42909119 25.88154812 8.06292451 28.18778024 8.6875 30.5 C8.89665039 31.18634521 9.10580078 31.87269043 9.32128906 32.57983398 C9.82421875 34.53125 9.82421875 34.53125 10 38 C7.73828125 40.80859375 7.73828125 40.80859375 5 43 C3.7625 44.2684375 3.7625 44.2684375 2.5 45.5625 C0.10821597 47.89448943 -2.39394339 49.91515471 -5 52 C-7.47553685 54.35477895 -9.73913508 56.658177 -11.8125 59.375 C-14.31159325 62.3739119 -17.08535632 64.76959114 -20.04296875 67.3046875 C-24.16566272 70.87604316 -27.61494837 74.74138666 -31 79 C-32.32354779 80.34304758 -33.65553295 81.67789414 -35 83 C-33.2061767 83.52681056 -31.41154668 84.05093569 -29.61450195 84.56665039 C-27.8611833 85.07907634 -26.11376238 85.61198808 -24.37182617 86.16186523 C-18.42169338 87.97164304 -12.67122436 89.25646319 -6.52372742 90.14691162 C22.50356413 94.4538723 22.50356413 94.4538723 28.55535889 101.91845703 C34.61870713 112.12860263 36.47767513 125.28748654 37 137 C36.67 137.66 36.34 138.32 36 139 C31.34443187 137.81222828 26.68952919 136.62188992 22.03515625 135.42944336 C20.46078063 135.0264402 18.88624315 134.62406867 17.31152344 134.22241211 C8.29674219 131.92254634 -0.69187436 129.55294729 -9.65003967 127.04141235 C-19.95632107 124.15979463 -30.30270552 121.42598617 -40.64233398 118.66702271 C-61.12019562 113.20173031 -81.58945807 107.7123667 -102 102 C-100.53237346 98.61498585 -98.65186862 96.4006303 -96.05249023 93.79852295 C-95.22804413 92.96843719 -94.40359802 92.13835144 -93.5541687 91.28311157 C-92.64812897 90.3811203 -91.74208923 89.47912903 -90.80859375 88.54980469 C-89.84562354 87.58412365 -88.88307916 86.61801782 -87.92092896 85.65151978 C-85.3099639 83.03144186 -82.69271791 80.41772382 -80.0740242 77.80537319 C-77.33598711 75.07239886 -74.60283214 72.33454918 -71.86889648 69.59747314 C-67.2791462 65.00408526 -62.68519673 60.41492874 -58.08886719 55.828125 C-52.76937455 50.51952946 -47.45714282 45.20374967 -42.14860058 39.88420558 C-37.59343022 35.31997193 -33.03438975 30.7596315 -28.47206593 26.20254827 C-25.74580707 23.47941273 -23.02093014 20.75493137 -20.29953003 18.02693939 C-17.74316945 15.46481945 -15.18200046 12.90760728 -12.61697006 10.35416794 C-11.22325364 8.96437492 -9.83448149 7.56962927 -8.4458313 6.17477417 C-7.62138519 5.35596771 -6.79693909 4.53716125 -5.94750977 3.69354248 C-4.87014305 2.61730684 -4.87014305 2.61730684 -3.77101135 1.51932907 C-2 0 -2 0 0 0 Z " fill="#FC7B20" transform="translate(114,268)"/>
<path d="M0 0 C18.85674758 7.47114905 37.21253511 16.27611322 55.60693359 24.8046875 C56.83438797 25.37359459 56.83438797 25.37359459 58.0866394 25.95399475 C59.61574562 26.66305049 61.14452239 27.37281739 62.67288208 28.08348083 C67.75831337 30.44313997 72.87101701 32.73663132 78 35 C76.55785801 38.2948617 74.76816735 40.48934769 72.24047852 43.03417969 C71.46950333 43.81468689 70.69852814 44.59519409 69.90419006 45.39935303 C68.65417458 46.6480014 68.65417458 46.6480014 67.37890625 47.921875 C66.52320541 48.78186096 65.66750458 49.64184692 64.78587341 50.52789307 C62.97690948 52.34259713 61.16532262 54.15468978 59.35131836 55.96435547 C56.56801951 58.74448677 53.79831789 61.53768757 51.02929688 64.33203125 C49.27164421 66.09195604 47.51320715 67.85109787 45.75390625 69.609375 C44.50692711 70.87016876 44.50692711 70.87016876 43.23475647 72.15643311 C42.46062912 72.92433167 41.68650177 73.69223022 40.88891602 74.48339844 C40.20877945 75.16416443 39.52864288 75.84493042 38.82789612 76.54632568 C37 78 37 78 34 78 C33.58459961 77.04222656 33.16919922 76.08445312 32.74121094 75.09765625 C28.67744241 65.75374907 24.5096518 56.46238637 20.26000977 47.20166016 C19.22303518 44.94122099 18.18843309 42.67970773 17.15429688 40.41796875 C13.96048229 33.4363477 10.75467807 26.46075898 7.515625 19.5 C7.0009668 18.39011719 6.48630859 17.28023437 5.95605469 16.13671875 C5.00847134 14.09537891 4.05623608 12.05618991 3.09863281 10.01953125 C2.68452148 9.12621094 2.27041016 8.23289063 1.84375 7.3125 C1.48474609 6.54550781 1.12574219 5.77851563 0.75585938 4.98828125 C0 3 0 3 0 0 Z " fill="#F75C52" transform="translate(154,160)"/>
<path d="M0 0 C45.5820419 3.96853295 45.5820419 3.96853295 64.91479492 6.0480957 C71.93627056 6.80251407 78.95992421 7.44455601 86 8 C86 8.66 86 9.32 86 10 C83.57718741 11.85544509 81.14380607 13.59534372 78.625 15.3125 C77.0500801 16.40393687 75.47588373 17.49641837 73.90234375 18.58984375 C73.08749512 19.15429199 72.27264648 19.71874023 71.43310547 20.30029297 C67.6493532 22.9435283 63.91961831 25.65959943 60.1875 28.375 C52.92102608 33.64569626 45.58681194 38.81365418 38.22436523 43.94921875 C31.11098284 48.9127945 24.04400413 53.93857981 17 59 C15 58 15 58 14.19003296 55.76722717 C13.92800079 54.78064621 13.66596863 53.79406525 13.39599609 52.77758789 C13.09583588 51.6629567 12.79567566 50.5483255 12.48641968 49.3999176 C12.16863556 48.18642136 11.85085144 46.97292511 11.5234375 45.72265625 C11.19332672 44.48583603 10.86321594 43.24901581 10.52310181 41.97471619 C9.82396397 39.3539665 9.13012836 36.73189191 8.44042969 34.10864258 C7.55541628 30.74278495 6.66127064 27.37944476 5.76364708 24.01693058 C4.90949207 20.81553225 4.06013963 17.61287223 3.2109375 14.41015625 C2.88910492 13.19868423 2.56727234 11.98721222 2.23568726 10.73902893 C1.79490341 9.0623539 1.79490341 9.0623539 1.34521484 7.35180664 C1.08477386 6.36443008 0.82433289 5.37705353 0.55599976 4.35975647 C0 2 0 2 0 0 Z " fill="#F91CC6" transform="translate(393,238)"/>
<path d="M0 0 C7.2203186 0.61862065 14.09085194 2.43295193 21.07910156 4.27368164 C23.09829878 4.80546783 25.1192255 5.33017036 27.140625 5.85351562 C34.79844056 7.84550119 42.41368692 9.94883927 50.00732422 12.17456055 C52.66225474 12.90684314 55.29273812 13.50169049 58 14 C56.73934799 17.41633337 55.30076708 20.26056874 53.19921875 23.23046875 C52.36185181 24.4208374 52.36185181 24.4208374 51.50756836 25.63525391 C50.9069458 26.47749512 50.30632324 27.31973633 49.6875 28.1875 C49.06302979 29.07099121 48.43855957 29.95448242 47.79516602 30.86474609 C42.12896478 38.86417309 36.39441677 46.81440675 30.63525391 54.74707031 C27.79403759 58.66148419 24.95871987 62.58015695 22.125 66.5 C21.58262695 67.25023437 21.04025391 68.00046875 20.48144531 68.7734375 C16.60252738 74.1468303 12.76736575 79.54759429 9 85 C6.50155779 81.25233669 6.40061965 77.93886404 6.03515625 73.57421875 C5.95722336 72.72680618 5.87929047 71.87939362 5.79899597 71.00630188 C5.54564604 68.23401531 5.30401677 65.46084031 5.0625 62.6875 C4.80401515 59.8190174 4.54284308 56.95078686 4.28164673 54.08255005 C4.10659355 52.15692427 3.93258594 50.23120316 3.75961304 48.3053894 C3.2363928 42.49743985 2.67891293 36.69455318 2.07421875 30.89453125 C2.0032045 30.20985275 1.93219025 29.52517426 1.85902405 28.81974792 C1.53291249 25.68477457 1.20151498 22.55046456 0.86352539 19.41674805 C0.18914916 12.91481468 -0.16600518 6.53691526 0 0 Z " fill="#FA4A75" transform="translate(239,396)"/>
</svg>
