<svg viewBox="0 0 511 512"><path fill="#252525" d="M348.3 139.2c4.9 5 7.3 10.5 7.8 17.5a31.4 31.4 0 0 1-7.8 18 15 15 0 0 0-1.7 11.6c2.5 8.5 2.5 8.5 8.4 14.7l5 2.4a27 27 0 0 1 12.9 13c2 6.6 1.9 11.5-1 17.8a25 25 0 0 1-8.9 9.8l-2.6 1.8c-6 2-12 2.4-18 .3-7-3.6-11.4-8.5-13.9-16-2.2-8.7 1-14.6 5.5-22.1l2-2c1-7.9 0-16.4-4.4-23.2-1.6-2-1.6-2-4.4-2.7-5.7-.1-9.5 3-13.6 6.7l-1.5 1.4-3.1 3-1.6 1.5-5.7 5c-3.1 2.7-6 5.6-8.8 8.5a98.4 98.4 0 0 1-5.4 4.8c-5.4 4.7-10.4 9.8-15.4 14.8A10312.3 10312.3 0 0 1 261 237l-8.2 8.2a22863.4 22863.4 0 0 0-19.5 19.5c-2.3 2.2-2.3 2.2-4 4.6L228 271h-2l-.7 1.7a30.2 30.2 0 0 1-5.8 7l-2.8 2.7-2.9 2.9c-8 7.8-15.7 15.5-22.2 24.6l-2 2.8c-2.7 4-3.1 6.4-2.6 11.3 8.6 13 36.4 15.8 50.5 19.6l18.2 5a185873397.3 185873397.3 0 0 0 34.4 9.4l2.3.6a47587.3 47587.3 0 0 1 66.1 18.4c10.2 2.8 10.2 2.8 20.4 1.2 2-1.3 2-1.3 4.1-4.2a37.9 37.9 0 0 0-4-21c-2.5-3-4.7-4.6-8.4-6a25 25 0 0 1-13.8-12 24.7 24.7 0 0 1 .2-19c4-6.8 8.5-10.5 16-13 8.2-.7 14.2.6 20.8 5.8 5.2 4.7 7 10 7.4 17a24.6 24.6 0 0 1-6.4 16.2c-2.4 3.2-3.6 5.4-3.2 9.6l.4 2.4.5 3.4c1.4 7.5 1.4 7.5 6.6 12.8a108 108 0 0 0 9.9 3.8l3 2v2h2c4.2 7 6.4 12.8 4.5 21-2 6-5.2 10.9-10.5 14.3-6.5 3.3-12.7 4-19.6 1.9A25.4 25.4 0 0 1 375 403c-.5-1.6-1-3.2-1.3-4.7-1-3.2-1-3.2-3.3-5.4-7-3-14.2-5-21.6-6.8l-9.8-2.6a5490.8 5490.8 0 0 0-30.1-8.2l-12.5-3.4-2.5-.7a14547.8 14547.8 0 0 0-56.4-15.4c-32-11.2-32-11.2-63.6-7.9l-2.6 1.7A20.4 20.4 0 0 1 158 352a30 30 0 0 1-18-15c-2.1-7-1.3-13.6 2-20 3.9-6.3 8.9-9.2 16-11 3.3-.4 6.6-.6 10-.8 9.4-.7 14.3-5.9 21-12.2l4.4-3.7c2.9-2.6 5.3-5.2 7.6-8.3l5-5 2.5-2.5 2.5-2.5 2.5-2.6c2.5-2.4 2.5-2.4 4.9-4.2 2.2-1.9 4-3.7 5.8-5.9 3.5-4 7-7.7 10.8-11.4l2-2a3916.8 3916.8 0 0 1 30.2-30 8164.6 8164.6 0 0 0 16.3-16.2c18.2-16.3 18.2-16.3 25.9-37.9.3-9 2.2-15.9 9-22.3 9.4-7.2 20.6-5.5 29.9.7Z"/><path fill="#F932A0" d="M367 12h2a5488 5488 0 0 1 18.8 69.6l.7 2.8 3.6 13.6c2.8 11 5.8 22 8.9 33l.9 3 .7 2.6.6 2.3 1.3 4.4c1.5 5.5 1.5 5.5 1.5 7.7a142 142 0 0 1-25.4-5l-6-1.4-3.6-.9c-3.9-2.2-4.3-4-5.4-8.1a317837293.2 317837293.2 0 0 1-2.1-8l-1.6-5.8-.8-3.1a8183.3 8183.3 0 0 1-7-26l-.7-2.8-.7-2.4A187 187 0 0 0 350 79l-1.6 1.7A1738.9 1738.9 0 0 1 325 105a529.4 529.4 0 0 1-10.6 11c-7.5 8-7.5 8-12.4 8.3-2.8-.5-5.4-1.2-8.1-2.2l-3.6-.9-3.2-.8-3.4-1-3.5-1A14753508161.7 14753508161.7 0 0 0 268 115c0-4 0-4 1.4-5.7 1.6-1.3 1.6-1.3 3.6-1.3l.7-1.7c1.7-3 3.8-5 6.3-7.3h2l.8-1.9c1.4-2.5 2.6-2.8 5.2-4.1l.8-1.7c1.6-3 3.8-5.1 6.2-7.5l2.7-2.8c2.3-2 2.3-2 4.3-2l.7-1.7c1.7-3 3.8-5 6.3-7.3h2l.8-1.9c1.4-2.5 2.6-2.8 5.2-4.1l1-2c1.2-2.5 2.5-3 5-4v-2h2l.8-1.9c1.4-2.5 2.6-2.8 5.2-4.1l1-2c1.3-2.5 2.5-2.8 5-4l1-3h2l.8-1.9c1.4-2.5 2.6-2.8 5.2-4.1l1-2c1.2-2.5 2.5-3 5-4v-2h2l2-4h2v-2h2l.8-1.9c1.4-2.5 2.6-2.9 5.2-4.1l1-3Z"/><path fill="#FB18D1" d="m463 362 6.8 25.4 1 3.8c5 18.4 9.8 36.7 14.6 55.1 3.2 12.5 6.6 24.9 10.2 37.2l.6 2.2c.4 1.5.8 3 1.3 4.3 1 3.8 1.6 7 1.5 11a14227 14227 0 0 1-21.6-5.4c-9.7-2.4-19.5-4.9-29.2-7.6l-20.3-5.5-3.6-1-14.5-3.8c-16.6-4.5-33.2-9-49.8-13.7a375.3 375.3 0 0 1 21.8-23.7l2.5-2.6c3.2-2 5-1.9 8.6-1.2l2.1.5 3.7.9 3.9 1 2 .6a6403 6403 0 0 0 35.8 9.6l2.4.6c3.5 1 3.5 1 7.2 1.3l-.6-2.3a2084 2084 0 0 1-12-42.7l-1-4c-3.1-10.4-3.1-10.4-1.4-14.2a33 33 0 0 1 5-4.8l2.6-2.7 6.7-6.8 4.4-4.4 2.7-2.8 2.5-2.5c2.1-1.8 2.1-1.8 4.1-1.8Z"/><path fill="#FC7B20" d="M114 268a1378.7 1378.7 0 0 1 8.7 30.5l.6 2c.5 2 .5 2 .7 5.5-2.3 2.8-2.3 2.8-5 5l-2.5 2.6a99.6 99.6 0 0 1-7.5 6.4 62.2 62.2 0 0 0-6.8 7.4c-2.5 3-5.3 5.4-8.2 7.9A85.1 85.1 0 0 0 83 347l-4 4a907.6 907.6 0 0 0 10.6 3.2c6 1.8 11.7 3 17.9 4 29 4.3 29 4.3 35 11.7 6.1 10.2 8 23.4 8.5 35.1l-1 2a14352.8 14352.8 0 0 1-45.7-12l-31-8.3C53 381.2 32.5 375.7 12 370c1.5-3.4 3.3-5.6 6-8.2l2.4-2.5 2.8-2.8a4820.2 4820.2 0 0 0 10.7-10.7l8.2-8.2a13590 13590 0 0 1 59.3-59.2l4.2-4.2 2.5-2.5 2.1-2.2c1.8-1.5 1.8-1.5 3.8-1.5Z"/><path fill="#F75C52" d="M154 160c18.9 7.5 37.2 16.3 55.6 24.8l2.5 1.2a4808.1 4808.1 0 0 1 19.9 9 25 25 0 0 1-5.8 8l-2.3 2.4-2.5 2.5-2.6 2.6a2763.8 2763.8 0 0 1-19 19.1l-2.6 2.6-2.3 2.3-2 2C191 238 191 238 188 238l-1.3-2.9a1528.8 1528.8 0 0 0-15.5-34.7l-9.7-20.9-1.5-3.4-2.9-6-1.3-2.8-1-2.3c-.8-2-.8-2-.8-5Z"/><path fill="#F91CC6" d="M393 238c45.6 4 45.6 4 65 6 7 .8 14 1.4 21 2v2a163.6 163.6 0 0 1-12.1 8.6l-2.5 1.7-11.2 8a1458 1458 0 0 1-22 15.6L410 297c-2-1-2-1-2.8-3.2l-.8-3-1-3.4-.9-3.7-1-3.7a2260.3 2260.3 0 0 1-7.3-27.6l-1-3.7-.9-3.3-.7-3c-.6-2.4-.6-2.4-.6-4.4Z"/><path fill="#FA4A75" d="M239 396c7.2.6 14 2.4 21 4.3l6.1 1.6a774 774 0 0 1 23 6.3c2.6.7 5.2 1.3 7.9 1.8a38 38 0 0 1-4.8 9.2l-1.7 2.4-1.8 2.6-1.9 2.7a2518.8 2518.8 0 0 1-25.7 35.6l-1.6 2.3c-3.9 5.3-7.7 10.7-11.5 16.2-2.5-3.7-2.6-7-3-11.4a314370181.6 314370181.6 0 0 0-5.1-54.2c-.7-6.5-1-12.9-.9-19.4Z"/></svg>