<?xml version="1.0" encoding="utf-8"?>
<!-- Generator: Adobe Illustrator 27.0.0, SVG Export Plug-In . SVG Version: 6.00 Build 0)  -->
<svg version="1.1" id="Layer_1" xmlns="http://www.w3.org/2000/svg" xmlns:xlink="http://www.w3.org/1999/xlink" x="0px" y="0px"
	 viewBox="0 0 1024 450" style="enable-background:new 0 0 1024 450;" xml:space="preserve">
<style type="text/css">
	.st0{fill:#089949;}
	.st1{fill:#F9B21D;}
	.st2{fill:#E42527;}
	.st3{fill:#226DB4;}
</style>
<g>
	<g>
		<g>
			<path class="st0" d="M458.1,353c-7.7,0-15.5-1.6-23-4.9l0,0l-160-71.3c-28.6-12.7-41.5-46.4-28.8-75l71.3-160
				c12.7-28.6,46.4-41.5,75-28.8l160,71.3c28.6,12.7,41.5,46.4,28.8,75l-71.3,160C500.6,340.5,479.8,353,458.1,353z M448.4,318.1
				c12.1,5.4,26.3-0.1,31.7-12.1l71.3-160c5.4-12.1-0.1-26.3-12.1-31.7L379.2,43c-12.1-5.4-26.3,0.1-31.7,12.1l-71.3,160
				c-5.4,12.1,0.1,26.3,12.1,31.7L448.4,318.1z"/>
		</g>
		<g>
			<path class="st1" d="M960,353.1H784.8c-31.3,0-56.8-25.5-56.8-56.8V121.1c0-31.3,25.5-56.8,56.8-56.8H960
				c31.3,0,56.8,25.5,56.8,56.8v175.2C1016.8,327.6,991.3,353.1,960,353.1z M784.8,97.1c-13.2,0-24,10.8-24,24v175.2
				c0,13.2,10.8,24,24,24H960c13.2,0,24-10.8,24-24V121.1c0-13.2-10.8-24-24-24H784.8z"/>
		</g>
		<path class="st2" d="M303.9,153.2L280.3,206c-0.3,0.6-0.6,1.1-0.9,1.6l9.2,56.8c2.1,13.1-6.8,25.4-19.8,27.5l-173,28
			c-6.3,1-12.7-0.5-17.9-4.2c-5.2-3.7-8.6-9.3-9.6-15.6l-28-173c-1-6.3,0.5-12.7,4.2-17.9c3.7-5.2,9.3-8.6,15.6-9.6l173-28
			c1.3-0.2,2.6-0.3,3.8-0.3c11.5,0,21.8,8.4,23.7,20.2l9.3,57.2L294.3,94l-1.3-7.7c-5-30.9-34.2-52-65.1-47l-173,28
			C40,69.6,26.8,77.7,18,90c-8.9,12.3-12.4,27.3-10,42.3l28,173c2.4,15,10.5,28.1,22.8,37C68.5,349.4,80,353,91.9,353
			c3,0,6.1-0.2,9.2-0.7l173-28c30.9-5,52-34.2,47-65.1L303.9,153.2z"/>
		<g>
			<path class="st3" d="M511.4,235.8l25.4-56.9l-7.2-52.9c-0.9-6.3,0.8-12.6,4.7-17.7c3.9-5.1,9.5-8.4,15.9-9.2l173.6-23.6
				c1.1-0.1,2.2-0.2,3.3-0.2c5.2,0,10.2,1.7,14.5,4.9c0.8,0.6,1.5,1.3,2.2,1.9c7.7-8.1,17.8-13.9,29.1-16.4
				c-3.2-4.4-7-8.3-11.5-11.7c-12.1-9.2-27-13.1-42-11.1L545.6,66.5c-15,2-28.4,9.8-37.5,21.9c-9.2,12.1-13.1,27-11.1,42
				L511.4,235.8z"/>
			<path class="st3" d="M806.8,265.1l-22.8-168c-12.8,0.4-23.1,11-23.1,23.9v49.3l13.5,99.2c0.9,6.3-0.8,12.6-4.7,17.7
				s-9.5,8.4-15.9,9.2l-173.6,23.6c-6.3,0.9-12.6-0.8-17.7-4.7c-5.1-3.9-8.4-9.5-9.2-15.9l-8-58.9l-25.4,56.9l0.9,6.4
				c2,15,9.8,28.4,21.9,37.5c10,7.6,21.9,11.6,34.3,11.6c2.6,0,5.2-0.2,7.8-0.5L758.2,329c15-2,28.4-9.8,37.5-21.9
				C804.9,295,808.8,280.1,806.8,265.1z"/>
		</g>
	</g>
	<g>
		<path d="M317,436.2l24.8-36.6h-20.4c-1.1,0-2-0.9-2-2v-4.9c0-1.1,0.9-2,2-2h33.5c1.1,0,2,0.9,2,2v1.9c0,0.4-0.1,0.8-0.3,1.1
			l-24.3,36.6h21.8c1.1,0,2,0.9,2,2v4.9c0,1.1-0.9,2-2,2h-35.4c-1.1,0-2-0.9-2-2v-1.8C316.6,436.9,316.8,436.5,317,436.2z"/>
		<path d="M421.4,415.6c0-15,11-25.8,26-25.8c15.5,0,26,10.6,26,25.9c0,15.5-10.7,26.2-26.2,26.2
			C431.6,441.9,421.4,431.2,421.4,415.6z M461.5,415.8c0-9.1-4.4-16.9-14.3-16.9c-10,0-13.8,8.1-13.8,17.3c0,8.7,4.7,16.7,14.3,16.7
			C457.6,432.8,461.5,424.3,461.5,415.8z"/>
		<path d="M544.5,390.6h7.4c1.1,0,2,0.9,2,2v18.6h21v-18.6c0-1.1,0.9-2,2-2h7.4c1.1,0,2,0.9,2,2v46.5c0,1.1-0.9,2-2,2H577
			c-1.1,0-2-0.9-2-2v-18.8h-21v18.8c0,1.1-0.9,2-2,2h-7.4c-1.1,0-2-0.9-2-2v-46.5C542.5,391.5,543.4,390.6,544.5,390.6z"/>
		<path d="M655.4,415.6c0-15,11-25.8,26-25.8c15.5,0,26,10.6,26,25.9c0,15.5-10.7,26.2-26.2,26.2
			C665.6,441.9,655.4,431.2,655.4,415.6z M695.4,415.8c0-9.1-4.4-16.9-14.3-16.9c-10,0-13.8,8.1-13.8,17.3c0,8.7,4.7,16.7,14.3,16.7
			C691.5,432.8,695.4,424.3,695.4,415.8z"/>
	</g>
</g>
</svg>
