<svg xml:space="preserve" id="Layer_1" x="0" y="0" style="enable-background:new 0 0 1024 450;" version="1.1" viewBox="0 0 1024 450"><style>.st0{fill:#089949;}
	.st1{fill:#F9B21D;}
	.st2{fill:#E42527;}
	.st3{fill:#226DB4;}</style><g><g><g><path d="M458.1 353a57 57 0 0 1-23-4.9l-160-71.3a57 57 0 0 1-28.8-75l71.3-160a57 57 0 0 1 75-28.8l160 71.3a57 57 0 0 1 28.8 75l-71.3 160a57 57 0 0 1-52 33.7zm-9.7-34.9a24 24 0 0 0 31.7-12.1l71.3-160a24 24 0 0 0-12.1-31.7L379.2 43a24 24 0 0 0-31.7 12.1l-71.3 160a24 24 0 0 0 12.1 31.7l160.1 71.3z" class="st0"/></g><g><path d="M960 353.1H784.8a56.9 56.9 0 0 1-56.8-56.8V121.1a56.9 56.9 0 0 1 56.8-56.8H960a56.9 56.9 0 0 1 56.8 56.8v175.2a56.9 56.9 0 0 1-56.8 56.8zm-175.2-256a24 24 0 0 0-24 24v175.2a24 24 0 0 0 24 24H960a24 24 0 0 0 24-24V121.1a24 24 0 0 0-24-24H784.8z" class="st1"/></g><path d="M303.9 153.2 280.3 206l-.9 1.6 9.2 56.8a24 24 0 0 1-19.8 27.5l-173 28c-6.3 1-12.7-.5-17.9-4.2a23.6 23.6 0 0 1-9.6-15.6l-28-173c-1-6.3.5-12.7 4.2-17.9 3.7-5.2 9.3-8.6 15.6-9.6l173-28 3.8-.3c11.5 0 21.8 8.4 23.7 20.2l9.3 57.2L294.3 94l-1.3-7.7c-5-30.9-34.2-52-65.1-47l-173 28a56.4 56.4 0 0 0-46.9 65l28 173a56.3 56.3 0 0 0 65.1 47l173-28c30.9-5 52-34.2 47-65.1l-17.2-106z" class="st2"/><g><path d="m511.4 235.8 25.4-56.9-7.2-52.9c-.9-6.3.8-12.6 4.7-17.7 3.9-5.1 9.5-8.4 15.9-9.2l173.6-23.6 3.3-.2c5.2 0 10.2 1.7 14.5 4.9l2.2 1.9a57.2 57.2 0 0 1 29.1-16.4 56.5 56.5 0 0 0-53.5-22.8L545.6 66.5a56.5 56.5 0 0 0-48.6 63.9l14.4 105.4z" class="st3"/><path d="M806.8 265.1 784 97.1a24 24 0 0 0-23.1 23.9v49.3l13.5 99.2c.9 6.3-.8 12.6-4.7 17.7s-9.5 8.4-15.9 9.2L580.2 320c-6.3.9-12.6-.8-17.7-4.7a23.5 23.5 0 0 1-9.2-15.9l-8-58.9-25.4 56.9.9 6.4a56 56 0 0 0 21.9 37.5 56.3 56.3 0 0 0 42.1 11.1L758.2 329a56.5 56.5 0 0 0 48.6-63.9z" class="st3"/></g></g><g><path d="m317 436.2 24.8-36.6h-20.4a2 2 0 0 1-2-2v-4.9c0-1.1.9-2 2-2h33.5a2 2 0 0 1 2 2v1.9c0 .4-.1.8-.3 1.1l-24.3 36.6h21.8a2 2 0 0 1 2 2v4.9a2 2 0 0 1-2 2h-35.4a2 2 0 0 1-2-2v-1.8c-.1-.5.1-.9.3-1.2z"/><path d="M421.4 415.6a25 25 0 0 1 26-25.8c15.5 0 26 10.6 26 25.9a25 25 0 0 1-26.2 26.2c-15.6 0-25.8-10.7-25.8-26.3zm40.1.2c0-9.1-4.4-16.9-14.3-16.9-10 0-13.8 8.1-13.8 17.3 0 8.7 4.7 16.7 14.3 16.7 9.9-.1 13.8-8.6 13.8-17.1z"/><path d="M544.5 390.6h7.4a2 2 0 0 1 2 2v18.6h21v-18.6c0-1.1.9-2 2-2h7.4a2 2 0 0 1 2 2v46.5a2 2 0 0 1-2 2H577a2 2 0 0 1-2-2v-18.8h-21v18.8a2 2 0 0 1-2 2h-7.4a2 2 0 0 1-2-2v-46.5c-.1-1.1.8-2 1.9-2z"/><path d="M655.4 415.6a25 25 0 0 1 26-25.8c15.5 0 26 10.6 26 25.9a25 25 0 0 1-26.2 26.2c-15.6 0-25.8-10.7-25.8-26.3zm40 .2c0-9.1-4.4-16.9-14.3-16.9-10 0-13.8 8.1-13.8 17.3 0 8.7 4.7 16.7 14.3 16.7 9.9-.1 13.8-8.6 13.8-17.1z"/></g></g></svg>