<?xml version="1.0" encoding="utf-8"?>
<!-- Generator: Adobe Illustrator 25.4.1, SVG Export Plug-In . SVG Version: 6.00 Build 0)  -->
<svg version="1.0" id="Layer_3" xmlns="http://www.w3.org/2000/svg" xmlns:xlink="http://www.w3.org/1999/xlink" x="0px" y="0px"
	 viewBox="0 0 507.7 507.7" enable-background="new 0 0 507.7 507.7" xml:space="preserve">
<g id="Layer_1">
	<g>
		<g>
			<g>
				<defs>
					<circle id="SVGID_1_" cx="253.9" cy="253.9" r="242"/>
				</defs>
				<clipPath id="SVGID_00000125595205375989906680000004557790817512297916_">
					<use xlink:href="#SVGID_1_"  overflow="visible"/>
				</clipPath>
				<g clip-path="url(#SVGID_00000125595205375989906680000004557790817512297916_)">
					<path fill="#E5E5E4" d="M0,0h507.7v507.7H0V0z"/>
				</g>
			</g>
		</g>
	</g>
	<g>
		<g>
			<g>
				<defs>
					<circle id="SVGID_00000130627508870928463620000013682135151872415141_" cx="253.9" cy="253.9" r="237.2"/>
				</defs>
				<clipPath id="SVGID_00000171681266011228199830000010378459769351693483_">
					<use xlink:href="#SVGID_00000130627508870928463620000013682135151872415141_"  overflow="visible"/>
				</clipPath>
				<g clip-path="url(#SVGID_00000171681266011228199830000010378459769351693483_)">
					<path fill="#FFFFFF" d="M4.8,4.8H503V503H4.8V4.8z"/>
				</g>
			</g>
		</g>
	</g>
	<g>
		<g>
			<g>
				<defs>
					<circle id="SVGID_00000101802749355611890330000005652569264861595804_" cx="253.9" cy="253.9" r="218.2"/>
				</defs>
				<clipPath id="SVGID_00000035506223385866401570000006976416471830683019_">
					<use xlink:href="#SVGID_00000101802749355611890330000005652569264861595804_"  overflow="visible"/>
				</clipPath>
				<g clip-path="url(#SVGID_00000035506223385866401570000006976416471830683019_)">
					<path fill="#4A8CFF" d="M23.8,23.8H484V484H23.8V23.8z"/>
				</g>
			</g>
		</g>
	</g>
</g>
<g id="Layer_2">
	<path fill="#FFFFFF" d="M191.3,213.5L191.3,213.5c-22.3,0-40.4,18.1-40.4,40.3c0,22.3,18,40.4,40.3,40.4s40.4-18,40.4-40.3
		S213.6,213.5,191.3,213.5z M208.4,271c-9.5,9.4-24.8,9.4-34.2,0c-9.4-9.4-9.4-24.8,0-34.2c9.4-9.5,24.8-9.5,34.2,0l0,0
		C217.9,246.2,217.9,261.5,208.4,271z"/>
	<path fill="#FFFFFF" d="M142.9,278.3l-4-0.2h-36.3l48.5-48.5l-0.2-4c-0.2-6.5-5.4-11.7-11.9-11.9l-4-0.2H74.2l0.2,4
		c0.3,6.4,5.4,11.6,11.9,11.9l4,0.2h36.3l-48.5,48.5l0.2,4c0.2,6.5,5.4,11.7,11.9,11.9l4,0.2H155l-0.2-4
		C154.2,283.5,149.5,278.7,142.9,278.3z"/>
	<path fill="#FFFFFF" d="M401.2,213.5c-9.3,0-18.1,4-24.2,10.9c-10.7-12.2-28.8-14.5-42.3-5.4c-3.1-3.5-10.2-5.5-14.2-5.5v80.7
		l4-0.2c6.7-0.4,11.7-5.2,11.9-11.9l0.2-4v-28.2l0.2-4c0-2.8,0.7-5.6,2-8.1c4.4-7.7,14.3-10.3,22-5.9c2.4,1.4,4.5,3.4,5.9,5.9h0
		c1.3,2.5,2,5.3,2,8.1l0.2,4v28.2l0.2,4c0.3,6.5,5.4,11.7,11.9,11.9l4,0.2v-44.4l0.2-4c0-2.9,0.7-5.6,2-8.1
		c4.5-7.7,14.4-10.3,22.1-5.8c2.4,1.4,4.5,3.4,5.9,5.9c1.3,2.5,2,5.3,2,8.1l0.2,4v28.2l0.2,4c0.2,6.5,5.4,11.7,11.9,11.9l4,0.2
		v-48.5C433.5,228,419.1,213.5,401.2,213.5z"/>
	<path fill="#FFFFFF" d="M304.6,225.3c-7.6-7.6-17.8-11.8-28.5-11.8s-21,4.3-28.5,11.8c-15.7,15.8-15.7,41.4,0,57.1
		c15.8,15.7,41.4,15.7,57.1,0C320.4,266.6,320.4,241.1,304.6,225.3L304.6,225.3z M293.2,271c-9.5,9.4-24.8,9.4-34.2,0
		c-9.4-9.4-9.4-24.8,0-34.2c9.4-9.5,24.8-9.5,34.2,0l0,0C302.7,246.2,302.7,261.5,293.2,271z"/>
</g>
</svg>
