<?xml version="1.0" encoding="UTF-8"?>
<svg version="1.1" xmlns="http://www.w3.org/2000/svg" width="274" height="109">
<path d="M0 0 C5.78797866 4.3600234 5.78797866 4.3600234 7.67636108 7.92976379 C11.97856827 11.88216544 16.7589797 11.03591407 22.39306641 10.97924805 C23.62914139 10.98651917 24.86521637 10.99379028 26.13874817 11.00128174 C28.82455042 11.01350729 31.5085453 11.01668076 34.19417191 11.00427818 C38.4378597 10.98474497 42.68099175 10.99992737 46.9246521 11.01972961 C53.63352285 11.04687445 60.3421672 11.0503708 67.05108202 11.04395658 C79.07404012 11.0330112 91.09693073 11.05755139 103.11981905 11.09770423 C107.34091741 11.11080257 111.56180875 11.11201855 115.78291726 11.1035713 C119.01886012 11.09910735 122.25478322 11.10677265 125.49072266 11.11206055 C127.25182625 11.10351799 127.25182625 11.10351799 129.04850769 11.09480286 C130.64685707 11.10070938 130.64685707 11.10070938 132.27749634 11.10673523 C133.20699915 11.10577189 134.13650196 11.10480856 135.09417152 11.10381603 C137.3125 11.3515625 137.3125 11.3515625 139.3125 13.3515625 C139.58700545 16.70052904 139.39878804 19.98632913 139.3125 23.3515625 C135.3525 23.3515625 131.3925 23.3515625 127.3125 23.3515625 C127.3125 22.0315625 127.3125 20.7115625 127.3125 19.3515625 C126.39174163 19.35709326 126.39174163 19.35709326 125.45238209 19.36273575 C110.51276535 19.451093 95.57320262 19.51727504 80.63338947 19.55881119 C73.40857367 19.57943197 66.18393233 19.60754304 58.95922852 19.65332031 C52.66178352 19.69320324 46.36446488 19.71899885 40.06689709 19.72791648 C36.73263823 19.73312891 33.39882492 19.7474696 30.06466103 19.77448273 C26.34147186 19.80345232 22.6190354 19.80752102 18.89575195 19.80566406 C17.23958359 19.82723572 17.23958359 19.82723572 15.54995728 19.84924316 C8.07085499 19.80878855 8.07085499 19.80878855 4.21183777 17.4821167 C2.86562335 15.97202048 1.57982821 14.40706876 0.33984375 12.80859375 C-3.96514831 7.59117562 -10.44745524 4.85263919 -17.046875 3.83203125 C-25.83557078 3.55351624 -31.75665914 5.70580423 -38.9375 10.5390625 C-44.76553256 16.49955034 -47.7700957 23.17580721 -48 31.4765625 C-47.90055165 39.76392513 -45.0440199 46.79611863 -39.40234375 52.8828125 C-32.95648681 58.40363758 -25.52059438 59.836928 -17.24609375 59.75390625 C-9.20259435 58.84448755 -2.75672665 54.97938455 2.5625 48.9765625 C3.50013495 47.78442663 4.42563313 46.58193414 5.3125 45.3515625 C10.1875 46.2265625 10.1875 46.2265625 11.3125 47.3515625 C11.70837914 50.51317264 11.5628177 51.96600823 9.80859375 54.66796875 C2.43093149 62.71760025 -6.44593994 68.78175533 -17.71484375 69.4765625 C-28.74446973 69.77822748 -38.92401123 66.23648974 -47 58.6015625 C-54.62387706 50.39241811 -58.26549409 40.94089228 -57.93359375 29.734375 C-56.68557344 17.6503688 -51.29427236 8.86325831 -42.12890625 1.078125 C-29.54200191 -7.82333375 -13.10532388 -8.03843994 0 0 Z " fill="#52C5DE" transform="translate(85.6875,26.6484375)"/>
<path d="M0 0 C2.475 0.495 2.475 0.495 5 1 C5 1.66 5 2.32 5 3 C5.680625 2.773125 6.36125 2.54625 7.0625 2.3125 C10.99316649 1.89434399 13.79255799 2.7965211 17 5 C18.00979816 6.33659966 18.99132784 7.69482651 19.95024109 9.06838989 C22.99874407 12.61331466 24.99315384 13.6034347 29.6497345 13.98654175 C31.9066124 14.02121596 34.16442539 14.01216741 36.42114258 13.96826172 C37.65765564 13.97597092 38.8941687 13.98368011 40.16815186 13.99162292 C43.54307838 14.00526647 46.91436656 13.98384976 50.28888917 13.94721746 C53.82340953 13.91779175 57.35768378 13.93531718 60.89225769 13.94827271 C67.58000097 13.96606202 74.266994 13.94502256 80.95463914 13.9084512 C90.78277181 13.85611947 100.61094595 13.85463219 110.43919659 13.8624897 C111.51969326 13.86334361 111.51969326 13.86334361 112.62201816 13.86421478 C114.0577889 13.8653973 115.49355955 13.86670866 116.92933005 13.86815274 C121.13795207 13.87096119 125.34624411 13.85969535 129.55480063 13.83639216 C132.77845734 13.82015377 136.00214262 13.81546977 139.22583008 13.80810547 C140.395186 13.7976973 141.56454193 13.78728912 142.76933289 13.77656555 C143.83056366 13.77616776 144.89179443 13.77576996 145.98518372 13.77536011 C146.91079007 13.77050032 147.83639643 13.76564053 148.79005146 13.76063347 C151 14 151 14 153 16 C153.27450545 19.34896654 153.08628804 22.63476663 153 26 C149.04 26 145.08 26 141 26 C141 24.68 141 23.36 141 22 C140.07924163 22.00553076 140.07924163 22.00553076 139.13988209 22.01117325 C124.20026535 22.0995305 109.26070262 22.16571254 94.32088947 22.20724869 C87.09607367 22.22786947 79.87143233 22.25598054 72.64672852 22.30175781 C66.34928352 22.34164074 60.05196488 22.36743635 53.75439709 22.37635398 C50.42013823 22.38156641 47.08632492 22.3959071 43.75216103 22.42292023 C40.02897186 22.45188982 36.3065354 22.45595852 32.58325195 22.45410156 C30.92708359 22.47567322 30.92708359 22.47567322 29.23745728 22.49768066 C21.75587355 22.45721263 21.75587355 22.45721263 17.904953 20.12786865 C15.83766646 17.81867035 13.89858044 15.44978122 12 13 C8.46232819 9.2340913 4.96395906 5.65465302 0 4 C0 2.68 0 1.36 0 0 Z " fill="#407EB8" transform="translate(72,24)"/>
<path d="M0 0 C8.91 0 17.82 0 27 0 C27.66 1.65 28.32 3.3 29 5 C27.10600285 6.75202288 25.20988262 8.50164978 23.3125 10.25 C22.78205078 10.74113281 22.25160156 11.23226562 21.70507812 11.73828125 C21.17978516 12.22167969 20.65449219 12.70507812 20.11328125 13.203125 C19.63673096 13.64301758 19.16018066 14.08291016 18.66918945 14.53613281 C16.50852041 16.43102408 14.24411203 18.20471038 12 20 C17.61 20.33 23.22 20.66 29 21 C29 22.98 29 24.96 29 27 C25.04903022 27.04939662 21.0981797 27.08571755 17.14697266 27.10986328 C15.1408864 27.12488107 13.13488676 27.15028981 11.12890625 27.17578125 C9.87207031 27.18222656 8.61523438 27.18867187 7.3203125 27.1953125 C6.15773926 27.20578613 4.99516602 27.21625977 3.79736328 27.22705078 C1 27 1 27 -1 25 C-0.625 22.875 -0.625 22.875 0 21 C0.66 21 1.32 21 2 21 C2 20.34 2 19.68 2 19 C3.69274284 17.43567213 5.45569852 15.94671428 7.25 14.5 C8.22453125 13.7059375 9.1990625 12.911875 10.203125 12.09375 C12.44894762 10.41251966 14.4465803 9.11864101 17 8 C17 7.34 17 6.68 17 6 C11.39 6 5.78 6 0 6 C0 4.02 0 2.04 0 0 Z " fill="#5890D8" transform="translate(104,54)"/>
<path d="M0 0 C4.875 0.875 4.875 0.875 6 2 C6.39587914 5.16161014 6.2503177 6.61444573 4.49609375 9.31640625 C0.27264659 13.92453171 -3.33874609 17.32377088 -9 20 C-10.5159375 20.8971875 -10.5159375 20.8971875 -12.0625 21.8125 C-18.88114112 24.68595924 -28.00353767 22.53130119 -35 21 C-34.67 19.02 -34.34 17.04 -34 15 C-33.05640625 14.99742188 -32.1128125 14.99484375 -31.140625 14.9921875 C-20.97122275 14.6858802 -12.41273919 13.12737369 -4.703125 5.82421875 C-3.02950151 3.9397187 -1.47300024 2.04352851 0 0 Z " fill="#4296D9" transform="translate(91,72)"/>
<path d="M0 0 C1.58941406 0.00290039 1.58941406 0.00290039 3.2109375 0.00585938 C4.31695312 0.01810547 5.42296875 0.03035156 6.5625 0.04296875 C7.66851562 0.04361328 8.77453125 0.04425781 9.9140625 0.04492188 C18.14097287 0.08995971 18.14097287 0.08995971 21.5625 1.23046875 C21.5625 4.53046875 21.5625 7.83046875 21.5625 11.23046875 C17.6025 11.23046875 13.6425 11.23046875 9.5625 11.23046875 C9.5625 9.91046875 9.5625 8.59046875 9.5625 7.23046875 C-30.0375 7.23046875 -69.6375 7.23046875 -110.4375 7.23046875 C-110.4375 6.90046875 -110.4375 6.57046875 -110.4375 6.23046875 C-101.24595818 6.09720677 -92.05438189 5.9667016 -82.86275673 5.83931732 C-78.59045169 5.78003044 -74.31816175 5.7199409 -70.04589844 5.65771484 C-47.17478722 5.32533033 -24.31106372 5.15764709 -1.4375 5.23046875 C-1.4375 4.24046875 -1.4375 3.25046875 -1.4375 2.23046875 C-3.7475 2.23046875 -6.0575 2.23046875 -8.4375 2.23046875 C-5.07037354 -0.01428222 -3.93625945 -0.01666245 0 0 Z " fill="#7BC3E3" transform="translate(203.4375,38.76953125)"/>
<path d="M0 0 C1.98 0 3.96 0 6 0 C6.33 4.95 6.66 9.9 7 15 C12.94 14.505 12.94 14.505 19 14 C19.33 9.38 19.66 4.76 20 0 C22.31 0 24.62 0 27 0 C27.08112454 2.58396679 27.14054748 5.16537568 27.1875 7.75 C27.21263672 8.47960937 27.23777344 9.20921875 27.26367188 9.9609375 C27.30798412 13.21050186 27.2353876 15.56394273 25.67578125 18.453125 C22.12746502 21.72849383 17.67713517 21.25098466 13.125 21.3125 C12.41730469 21.34150391 11.70960938 21.37050781 10.98046875 21.40039062 C7.51952072 21.44228292 5.12478144 21.0614936 2.01171875 19.52734375 C-0.91998087 15.84421821 -0.5583364 12.81121078 -0.3125 8.25 C-0.28994141 7.45722656 -0.26738281 6.66445312 -0.24414062 5.84765625 C-0.18540471 3.8976238 -0.09572654 1.94856688 0 0 Z " fill="#41A5D8" transform="translate(181,60)"/>
<path d="M0 0 C1.79244141 0.01740234 1.79244141 0.01740234 3.62109375 0.03515625 C5.41740234 0.04869141 5.41740234 0.04869141 7.25 0.0625 C8.17683594 0.07410156 9.10367188 0.08570313 10.05859375 0.09765625 C10.05859375 1.74765625 10.05859375 3.39765625 10.05859375 5.09765625 C7.41859375 5.09765625 4.77859375 5.09765625 2.05859375 5.09765625 C2.38859375 5.75765625 2.71859375 6.41765625 3.05859375 7.09765625 C8.66859375 7.42765625 14.27859375 7.75765625 20.05859375 8.09765625 C21.22910804 10.43868484 21.25781835 11.99118578 21.30859375 14.59765625 C21.334375 15.39171875 21.36015625 16.18578125 21.38671875 17.00390625 C21.2784375 17.69484375 21.17015625 18.38578125 21.05859375 19.09765625 C17.75571039 21.29957849 16.78396648 21.33725593 12.953125 21.29296875 C11.97021484 21.28652344 10.98730469 21.28007813 9.97460938 21.2734375 C8.95044922 21.25667969 7.92628906 21.23992187 6.87109375 21.22265625 C5.83533203 21.21363281 4.79957031 21.20460938 3.73242188 21.1953125 C1.1742469 21.17173485 -1.38346373 21.13882655 -3.94140625 21.09765625 C-3.94140625 19.44765625 -3.94140625 17.79765625 -3.94140625 16.09765625 C2.32859375 15.76765625 8.59859375 15.43765625 15.05859375 15.09765625 C14.72859375 14.43765625 14.39859375 13.77765625 14.05859375 13.09765625 C11.38998755 12.83759274 8.79583661 12.67625716 6.12109375 12.59765625 C-1.67159873 12.36746377 -1.67159873 12.36746377 -3.94140625 10.09765625 C-4.171875 7.96875 -4.171875 7.96875 -4.12890625 5.53515625 C-4.12246094 4.72949219 -4.11601562 3.92382812 -4.109375 3.09375 C-3.83678272 -0.14566057 -3.31747452 0.11014192 0 0 Z " fill="#60B9D5" transform="translate(214.94140625,59.90234375)"/>
<path d="M0 0 C9.24 0 18.48 0 28 0 C28 1.98 28 3.96 28 6 C24.37 6 20.74 6 17 6 C17 12.93 17 19.86 17 27 C14.69 27 12.38 27 10 27 C10 20.07 10 13.14 10 6 C6.7 6 3.4 6 0 6 C0 4.02 0 2.04 0 0 Z " fill="#5B9CD6" transform="translate(135,54)"/>
<path d="M0 0 C2.05938216 1.57885966 2.84571211 2.69142423 4 5 C4.43244838 8.8920354 4.29425531 10.54880853 2.125 13.875 C1.42375 14.57625 0.7225 15.2775 0 16 C-0.66 16 -1.32 16 -2 16 C-2 17.32 -2 18.64 -2 20 C-3.32 20.33 -4.64 20.66 -6 21 C-6.33 19.35 -6.66 17.7 -7 16 C-7.61875 15.896875 -8.2375 15.79375 -8.875 15.6875 C-11 15 -11 15 -13 12 C-13.6779661 4.88135593 -13.6779661 4.88135593 -11.125 1.5625 C-7.08878552 -1.40530476 -4.90603916 -1.03285035 0 0 Z " fill="#1B69D2" transform="translate(70,48)"/>
<path d="M0 0 C2.43945807 -0.00222623 4.87849016 -0.02057959 7.31787109 -0.03930664 C8.88167166 -0.04223466 10.44547432 -0.0442234 12.00927734 -0.04516602 C12.73216949 -0.05235153 13.45506165 -0.05953705 14.19985962 -0.06694031 C17.89305115 -0.05011327 20.64513577 0.14299272 23.78271484 2.18530273 C23.78271484 3.17530273 23.78271484 4.16530273 23.78271484 5.18530273 C18.39738283 5.21042269 13.01208651 5.22835661 7.62670898 5.24023438 C5.8028097 5.24519715 3.97891424 5.25196953 2.1550293 5.26074219 C-9.67802367 5.31614343 -21.41381688 5.04354328 -33.21728516 4.18530273 C-33.21728516 3.52530273 -33.21728516 2.86530273 -33.21728516 2.18530273 C-23.10912838 -1.18408286 -10.59965091 -0.00108492 0 0 Z " fill="#3399DD" transform="translate(178.21728515625,38.814697265625)"/>
<path d="M0 0 C2.31 0 4.62 0 7 0 C7 1.98 7 3.96 7 6 C8.98 6 10.96 6 13 6 C13 7.65 13 9.3 13 11 C11.02 11 9.04 11 7 11 C7 16.28 7 21.56 7 27 C4.69 27 2.38 27 0 27 C-0.07347656 25.39318359 -0.07347656 25.39318359 -0.1484375 23.75390625 C-0.22345294 22.35674361 -0.2990013 20.9596095 -0.375 19.5625 C-0.4059375 18.85544922 -0.436875 18.14839844 -0.46875 17.41992188 C-0.57280629 15.60760812 -0.77919892 13.80182012 -1 12 C-1.66 11.67 -2.32 11.34 -3 11 C-3 9.35 -3 7.7 -3 6 C-2.01 6 -1.02 6 0 6 C0 4.02 0 2.04 0 0 Z " fill="#52BEDA" transform="translate(240,54)"/>
<path d="M0 0 C0 0.99 0 1.98 0 3 C-2.97 2.505 -2.97 2.505 -6 2 C-6 1.34 -6 0.68 -6 0 C-8.475 -0.495 -8.475 -0.495 -11 -1 C-11 0.32 -11 1.64 -11 3 C-10.1646875 3.185625 -10.1646875 3.185625 -9.3125 3.375 C-6.77885636 4.05976855 -4.42078968 4.99133763 -2 6 C-2 6.99 -2 7.98 -2 9 C-3.155 8.525625 -4.31 8.05125 -5.5 7.5625 C-10.70037337 5.79039825 -15.88297149 5.53212839 -21.32617188 5.37915039 C-25.29996193 5.23909852 -28.4085885 4.73306485 -32 3 C-32 2.01 -32 1.02 -32 0 C-21.97796911 -7.23813342 -10.74824342 -3.77367794 0 0 Z " fill="#4EA2D9" transform="translate(83,25)"/>
<path d="M0 0 C2 1 2 1 3 2 C3.33 1.34 3.66 0.68 4 0 C4.72703125 0.70576172 4.72703125 0.70576172 5.46875 1.42578125 C10.11092827 5.73765068 13.93537559 8.1589533 20 10 C20 10.99 20 11.98 20 13 C19.01 13 18.02 13 17 13 C17 14.32 17 15.64 17 17 C17.84304687 17.04898438 18.68609375 17.09796875 19.5546875 17.1484375 C20.65039062 17.22320312 21.74609375 17.29796875 22.875 17.375 C23.96554688 17.44460937 25.05609375 17.51421875 26.1796875 17.5859375 C29 18 29 18 31 20 C21.14313435 20.41070274 12.30434203 18.58767995 4 13 C2.40934305 10.42512406 1.63229059 7.95068941 1 5 C0.34 5 -0.32 5 -1 5 C-0.67 3.35 -0.34 1.7 0 0 Z " fill="#60B4DF" transform="translate(39,76)"/>
<path d="M0 0 C0.9449231 0.23771118 0.9449231 0.23771118 1.90893555 0.48022461 C6.09450649 1.18404584 10.21917867 1.2350933 14.45703125 1.31640625 C15.35999435 1.33718735 16.26295746 1.35796844 17.19328308 1.37937927 C20.06628097 1.4445528 22.93936714 1.50360955 25.8125 1.5625 C27.76498294 1.60571586 29.71745708 1.64933112 31.66992188 1.69335938 C36.44652503 1.80020107 41.22321664 1.90155857 46 2 C46 2.33 46 2.66 46 3 C43.36 3 40.72 3 38 3 C38 3.99 38 4.98 38 6 C29.81215127 7.00552528 21.61542055 7.16696079 13.375 7.25 C11.75561523 7.2819043 11.75561523 7.2819043 10.10351562 7.31445312 C8.57887695 7.3212207 8.57887695 7.3212207 7.0234375 7.328125 C5.64551025 7.34214355 5.64551025 7.34214355 4.23974609 7.35644531 C3.13107178 7.18000488 3.13107178 7.18000488 2 7 C0 4 0 4 0 0 Z " fill="#206BD2" transform="translate(90,37)"/>
<path d="M0 0 C4.875 0.875 4.875 0.875 6 2 C6.42290542 5.23856519 6.25761095 6.62358789 4.390625 9.3515625 C3.68421875 10.10179688 2.9778125 10.85203125 2.25 11.625 C1.55390625 12.38039063 0.8578125 13.13578125 0.140625 13.9140625 C-1.8300807 15.83442171 -3.67525005 17.52797596 -6 19 C-8.75 18.6875 -8.75 18.6875 -11 18 C-11.3125 15.3125 -11.3125 15.3125 -11 12 C-8.875 9.5625 -8.875 9.5625 -6 7 C-4.87844355 5.74448715 -3.7743706 4.47315691 -2.6875 3.1875 C-2.17574219 2.58292969 -1.66398437 1.97835937 -1.13671875 1.35546875 C-0.76160156 0.90816406 -0.38648437 0.46085937 0 0 Z " fill="#408DDE" transform="translate(91,72)"/>
<path d="M0 0 C0.79019531 0.04511719 1.58039063 0.09023438 2.39453125 0.13671875 C2.98621094 0.19472656 3.57789063 0.25273438 4.1875 0.3125 C4.1875 1.9625 4.1875 3.6125 4.1875 5.3125 C3.218125 5.43625 2.24875 5.56 1.25 5.6875 C-0.2659375 5.996875 -0.2659375 5.996875 -1.8125 6.3125 C-3.22884833 9.14519666 -3.1588005 11.78716438 -3.375 14.9375 C-3.45878906 16.12601563 -3.54257813 17.31453125 -3.62890625 18.5390625 C-3.68949219 19.45429687 -3.75007812 20.36953125 -3.8125 21.3125 C-5.7925 21.3125 -7.7725 21.3125 -9.8125 21.3125 C-9.94809675 18.74821485 -10.04683188 16.19114784 -10.125 13.625 C-10.16689453 12.90376953 -10.20878906 12.18253906 -10.25195312 11.43945312 C-10.34594942 7.32241552 -10.1290112 5.74045881 -7.59375 2.3125 C-4.64773305 0.1940159 -3.54138229 -0.26428226 0 0 Z " fill="#4D97CC" transform="translate(173.8125,59.6875)"/>
<path d="M0 0 C8.25 0 16.5 0 25 0 C25.33 0.99 25.66 1.98 26 3 C22.37 3 18.74 3 15 3 C15 9.93 15 16.86 15 24 C14.01 24 13.02 24 12 24 C12 17.4 12 10.8 12 4 C8.04 4 4.08 4 0 4 C0 2.68 0 1.36 0 0 Z " fill="#2C82D2" transform="translate(135,55)"/>
<path d="M0 0 C-1.32 0.33 -2.64 0.66 -4 1 C-3.67 1.99 -3.34 2.98 -3 4 C0.51190809 5.22969878 0.51190809 5.22969878 4 6 C0.97357383 8.01761744 -1.5048508 9.05339709 -5 10 C-5.99 9.67 -6.98 9.34 -8 9 C-8 9.66 -8 10.32 -8 11 C-9.32 11.33 -10.64 11.66 -12 12 C-12 12.99 -12 13.98 -12 15 C-12.66 15 -13.32 15 -14 15 C-14 15.66 -14 16.32 -14 17 C-14.66 17 -15.32 17 -16 17 C-16.33 17.99 -16.66 18.98 -17 20 C-17.66 20 -18.32 20 -19 20 C-19 18.68 -19 17.36 -19 16 C-18.34 15.67 -17.68 15.34 -17 15 C-17.33 14.01 -17.66 13.02 -18 12 C-15.55782146 5.97595959 -9.74583758 2.37291879 -4.125 -0.4375 C-2 -1 -2 -1 0 0 Z " fill="#3FB1DD" transform="translate(55,24)"/>
<path d="M0 0 C1.80597656 0.00676758 1.80597656 0.00676758 3.6484375 0.01367188 C6.59901073 0.0253805 9.54947859 0.04178005 12.5 0.0625 C12.5 0.3925 12.5 0.7225 12.5 1.0625 C4.085 1.5575 4.085 1.5575 -4.5 2.0625 C-4.5 2.7225 -4.5 3.3825 -4.5 4.0625 C1.11 4.0625 6.72 4.0625 12.5 4.0625 C12.5 4.3925 12.5 4.7225 12.5 5.0625 C-2.68 5.0625 -17.86 5.0625 -33.5 5.0625 C-33.5 4.7325 -33.5 4.4025 -33.5 4.0625 C-29.54 4.0625 -25.58 4.0625 -21.5 4.0625 C-21.5 3.0725 -21.5 2.0825 -21.5 1.0625 C-14.31917746 -0.06616889 -7.25794868 -0.05184249 0 0 Z " fill="#2F84D4" transform="translate(149.5,38.9375)"/>
<path d="M0 0 C8.91 0 17.82 0 27 0 C26.34 1.65 25.68 3.3 25 5 C22.69 5.33 20.38 5.66 18 6 C18 5.67 18 5.34 18 5 C12.06 4.67 6.12 4.34 0 4 C0 2.68 0 1.36 0 0 Z " fill="#226ECC" transform="translate(105,55)"/>
<path d="M0 0 C1.98 0 3.96 0 6 0 C6.02692484 2.29160319 6.04636124 4.58329546 6.0625 6.875 C6.07410156 8.15117188 6.08570313 9.42734375 6.09765625 10.7421875 C6 14 6 14 5 16 C5.66 16.33 6.32 16.66 7 17 C6.34 17.99 5.68 18.98 5 20 C1.125 18.125 1.125 18.125 0 17 C-0.07325168 14.13732433 -0.09238205 11.299281 -0.0625 8.4375 C-0.05798828 7.63119141 -0.05347656 6.82488281 -0.04882812 5.99414062 C-0.03700518 3.99606244 -0.01906914 1.99802217 0 0 Z " fill="#4F99C7" transform="translate(181,60)"/>
<path d="M0 0 C5.05369645 -0.04948633 10.10725142 -0.08576045 15.16113281 -0.10986328 C16.87990781 -0.1199127 18.59866575 -0.13355445 20.31738281 -0.15087891 C22.78975641 -0.17517391 25.26190369 -0.18649368 27.734375 -0.1953125 C28.50118591 -0.20563507 29.26799683 -0.21595764 30.05804443 -0.22659302 C33.85956767 -0.22739012 36.77864518 -0.14509572 40 2 C40 2.99 40 3.98 40 5 C30.76 5 21.52 5 12 5 C12 4.67 12 4.34 12 4 C16.95 4 21.9 4 27 4 C26.67 3.34 26.34 2.68 26 2 C13.13 1.505 13.13 1.505 0 1 C0 0.67 0 0.34 0 0 Z " fill="#43A6D7" transform="translate(162,39)"/>
<path d="M0 0 C0.78375 0.04125 1.5675 0.0825 2.375 0.125 C4.375 5.875 4.375 5.875 4.375 8.125 C3.715 8.125 3.055 8.125 2.375 8.125 C2.065625 8.90875 1.75625 9.6925 1.4375 10.5 C0.375 13.125 0.375 13.125 -0.625 15.125 C-1.615 15.125 -2.605 15.125 -3.625 15.125 C-3.625 13.805 -3.625 12.485 -3.625 11.125 C-2.965 11.125 -2.305 11.125 -1.625 11.125 C-1.955 10.135 -2.285 9.145 -2.625 8.125 C-3.945 8.455 -5.265 8.785 -6.625 9.125 C-4.3125 0.20535714 -4.3125 0.20535714 0 0 Z " fill="#1767E2" transform="translate(67.625,50.875)"/>
<path d="M0 0 C1.67542976 0.28604898 3.34385343 0.61781233 5 1 C5 1.33 5 1.66 5 2 C11.93 2.495 11.93 2.495 19 3 C19.33 3.99 19.66 4.98 20 6 C11.97497656 6.79681084 4.06350113 7.12867289 -4 7 C-1.125 1.125 -1.125 1.125 0 0 Z " fill="#2370D1" transform="translate(109,73)"/>
<path d="M0 0 C3.3 0 6.6 0 10 0 C10.33 2.64 10.66 5.28 11 8 C7.04 8 3.08 8 -1 8 C-0.67 5.36 -0.34 2.72 0 0 Z " fill="#45C1DF" transform="translate(214,42)"/>
<path d="M0 0 C1.79244141 0.01740234 1.79244141 0.01740234 3.62109375 0.03515625 C5.41740234 0.04869141 5.41740234 0.04869141 7.25 0.0625 C8.17683594 0.07410156 9.10367188 0.08570313 10.05859375 0.09765625 C10.05859375 1.74765625 10.05859375 3.39765625 10.05859375 5.09765625 C7.41859375 5.09765625 4.77859375 5.09765625 2.05859375 5.09765625 C1.72859375 4.10765625 1.39859375 3.11765625 1.05859375 2.09765625 C0.39859375 2.09765625 -0.26140625 2.09765625 -0.94140625 2.09765625 C-0.94140625 5.06765625 -0.94140625 8.03765625 -0.94140625 11.09765625 C-1.93140625 10.76765625 -2.92140625 10.43765625 -3.94140625 10.09765625 C-3.96829841 8.61858733 -3.98775246 7.13938142 -4.00390625 5.66015625 C-4.01550781 4.83644531 -4.02710938 4.01273438 -4.0390625 3.1640625 C-3.88296719 -0.13891421 -3.35803623 0.11148859 0 0 Z " fill="#66B3D7" transform="translate(214.94140625,59.90234375)"/>
<path d="M0 0 C-1.3921875 0.37125 -1.3921875 0.37125 -2.8125 0.75 C-6.16458325 2.06454245 -7.1877803 2.97963384 -9 6 C-7.02 6 -5.04 6 -3 6 C-3.33 6.66 -3.66 7.32 -4 8 C-8.62 7.34 -13.24 6.68 -18 6 C-17.67 4.02 -17.34 2.04 -17 0 C-14.54203147 -0.19436491 -12.08390706 -0.3807742 -9.625 -0.5625 C-8.92632812 -0.61857422 -8.22765625 -0.67464844 -7.5078125 -0.73242188 C-2.2265625 -1.11328125 -2.2265625 -1.11328125 0 0 Z " fill="#49A3DF" transform="translate(74,87)"/>
<path d="M0 0 C0.66 0.33 1.32 0.66 2 1 C0.46294916 4.78218127 -1.84529742 6.9369256 -4.875 9.625 C-5.73867187 10.40101562 -6.60234375 11.17703125 -7.4921875 11.9765625 C-9.63154679 13.70271221 -11.49339953 14.91574957 -14 16 C-14.99 15.34 -15.98 14.68 -17 14 C-16.34 14 -15.68 14 -15 14 C-15 13.01 -15 12.02 -15 11 C-13.35666496 9.96210419 -11.68756133 8.96432076 -10 8 C-9.34 7.01 -8.68 6.02 -8 5 C-4.375 4.3125 -4.375 4.3125 -1 4 C-0.67 2.68 -0.34 1.36 0 0 Z " fill="#307DD1" transform="translate(131,56)"/>
<path d="M0 0 C2.475 0.495 2.475 0.495 5 1 C5 1.66 5 2.32 5 3 C6.11375 2.7215625 6.11375 2.7215625 7.25 2.4375 C9.94990963 2.00796892 11.44631077 2.14877026 14 3 C14 3.99 14 4.98 14 6 C14.66 6.33 15.32 6.66 16 7 C13.6875 8.5625 13.6875 8.5625 11 10 C7.63355388 8.87785129 5.75134051 7.20107241 3 5 C2.01 4.67 1.02 4.34 0 4 C0 2.68 0 1.36 0 0 Z " fill="#2C7BD8" transform="translate(72,24)"/>
<path d="M0 0 C0.33 0.66 0.66 1.32 1 2 C4.96 2 8.92 2 13 2 C13 2.33 13 2.66 13 3 C11.02 3.33 9.04 3.66 7 4 C7 4.33 7 4.66 7 5 C10.63 5.33 14.26 5.66 18 6 C14.20836973 8.52775351 11.19125969 8.22443035 6.8125 8.125 C6.06291016 8.11597656 5.31332031 8.10695313 4.54101562 8.09765625 C2.69387346 8.07412578 0.84689588 8.03825561 -1 8 C-1.33 7.01 -1.66 6.02 -2 5 C-1.34 4.67 -0.68 4.34 0 4 C0 2.68 0 1.36 0 0 Z " fill="#67B5DE" transform="translate(187,73)"/>
<path d="M0 0 C0.66 0.33 1.32 0.66 2 1 C2.625 3.5625 2.625 3.5625 3 6 C5.31 6.33 7.62 6.66 10 7 C10 7.66 10 8.32 10 9 C10.66 9 11.32 9 12 9 C12 9.66 12 10.32 12 11 C12.99 11.33 13.98 11.66 15 12 C12.75 13.125 12.75 13.125 10 14 C7.6875 13.125 7.6875 13.125 6 12 C6 11.34 6 10.68 6 10 C4.68 9.67 3.36 9.34 2 9 C1.67 7.68 1.34 6.36 1 5 C0.34 5 -0.32 5 -1 5 C-0.67 3.35 -0.34 1.7 0 0 Z " fill="#45B6DE" transform="translate(39,76)"/>
<path d="M0 0 C2.31 0 4.62 0 7 0 C7.0809313 2.60478883 7.14045434 5.20706653 7.1875 7.8125 C7.22520508 8.91948242 7.22520508 8.91948242 7.26367188 10.04882812 C7.29296875 12.20703125 7.29296875 12.20703125 7 16 C6.01 16.99 5.02 17.98 4 19 C4.66 13.06 5.32 7.12 6 1 C4.68 1 3.36 1 2 1 C2.33 5.62 2.66 10.24 3 15 C1.68 14.67 0.36 14.34 -1 14 C-0.67 9.38 -0.34 4.76 0 0 Z " fill="#76BDDD" transform="translate(201,60)"/>
<path d="M0 0 C6.13191489 0.33446809 6.13191489 0.33446809 8.875 2.4375 C11.22027774 5.6948302 11.39132595 8.00847533 11 12 C9.125 14.875 9.125 14.875 7 17 C6.34 17 5.68 17 5 17 C5.309375 16.2575 5.61875 15.515 5.9375 14.75 C7.51138309 10.67642023 8.36384764 8.24308154 7 4 C6.01 4 5.02 4 4 4 C4 3.34 4 2.68 4 2 C2.02 2 0.04 2 -2 2 C-1.34 1.34 -0.68 0.68 0 0 Z " fill="#558ED7" transform="translate(63,47)"/>
<path d="M0 0 C1.65 0 3.3 0 5 0 C5 1.65 5 3.3 5 5 C-4.24 5 -13.48 5 -23 5 C-23 4.67 -23 4.34 -23 4 C-14.97497656 3.20318916 -7.06350113 2.87132711 1 3 C0.67 2.01 0.34 1.02 0 0 Z " fill="#4C88D0" transform="translate(128,76)"/>
<path d="M0 0 C5.94 0 11.88 0 18 0 C18 0.99 18 1.98 18 3 C11.73 3 5.46 3 -1 3 C-0.67 2.01 -0.34 1.02 0 0 Z " fill="#2071DD" transform="translate(110,40)"/>
<path d="M0 0 C4.62 0 9.24 0 14 0 C13.67 1.32 13.34 2.64 13 4 C8.71 4 4.42 4 0 4 C0 2.68 0 1.36 0 0 Z " fill="#49AEDE" transform="translate(211,76)"/>
<path d="M0 0 C0.99 0 1.98 0 3 0 C4.14982602 4.09003859 4.11094256 8.03177051 4.0625 12.25 C4.05798828 12.99507812 4.05347656 13.74015625 4.04882812 14.5078125 C4.03709246 16.3385764 4.0191585 18.16929873 4 20 C5.65 20 7.3 20 9 20 C9 15.05 9 10.1 9 5 C9.33 5 9.66 5 10 5 C10 10.28 10 15.56 10 21 C7.69 21 5.38 21 3 21 C2.92652344 19.39318359 2.92652344 19.39318359 2.8515625 17.75390625 C2.77654706 16.35674361 2.7009987 14.9596095 2.625 13.5625 C2.5940625 12.85544922 2.563125 12.14839844 2.53125 11.41992188 C2.42719371 9.60760812 2.22080108 7.80182012 2 6 C1.34 5.67 0.68 5.34 0 5 C0 3.35 0 1.7 0 0 Z " fill="#91D6E6" transform="translate(237,60)"/>
<path d="M0 0 C4.875 0.875 4.875 0.875 6 2 C6.3125 4.3125 6.3125 4.3125 6 7 C4 9.3125 4 9.3125 2 11 C2 8.69 2 6.38 2 4 C0.02 5.32 -1.96 6.64 -4 8 C-4.66 7.67 -5.32 7.34 -6 7 C-4.02 4.69 -2.04 2.38 0 0 Z " fill="#5F9DD9" transform="translate(91,72)"/>
<path d="M0 0 C0.33 0 0.66 0 1 0 C1 6.27 1 12.54 1 19 C0.01 19 -0.98 19 -2 19 C-2 13.39 -2 7.78 -2 2 C-1.34 2 -0.68 2 0 2 C0 1.34 0 0.68 0 0 Z " fill="#2985E0" transform="translate(149,60)"/>
<path d="M0 0 C0.66 0 1.32 0 2 0 C2 4.62 2 9.24 2 14 C2.99 14 3.98 14 5 14 C5 10.04 5 6.08 5 2 C5.33 2 5.66 2 6 2 C6 6.62 6 11.24 6 16 C4.02 16 2.04 16 0 16 C0 10.72 0 5.44 0 0 Z " fill="#5A9CCD" transform="translate(164,65)"/>
<path d="M0 0 C0.99 0 1.98 0 3 0 C3 0.66 3 1.32 3 2 C2.113125 2.680625 1.22625 3.36125 0.3125 4.0625 C-3.74689471 7.28698374 -5.73921168 11.42108452 -8 16 C-8.37640625 16.75152344 -8.7528125 17.50304687 -9.140625 18.27734375 C-9.42421875 18.84582031 -9.7078125 19.41429688 -10 20 C-10.05422947 18.5629191 -10.09289723 17.12524538 -10.125 15.6875 C-10.14820313 14.88699219 -10.17140625 14.08648437 -10.1953125 13.26171875 C-10 11 -10 11 -8 8 C-7.34 8 -6.68 8 -6 8 C-6 7.34 -6 6.68 -6 6 C-5.34 6 -4.68 6 -4 6 C-4 5.01 -4 4.02 -4 3 C-2.68 2.67 -1.36 2.34 0 2 C0 1.34 0 0.68 0 0 Z " fill="#74C8DF" transform="translate(47,33)"/>
<path d="M0 0 C2.31 0 4.62 0 7 0 C7 1.98 7 3.96 7 6 C8.98 6 10.96 6 13 6 C13 7.65 13 9.3 13 11 C10.69 11 8.38 11 6 11 C6.33 10.01 6.66 9.02 7 8 C6.40206327 5.64811553 5.74118205 3.31074405 5 1 C3.68 1 2.36 1 1 1 C1 2.65 1 4.3 1 6 C0.67 6 0.34 6 0 6 C0 4.02 0 2.04 0 0 Z " fill="#75C7D8" transform="translate(240,54)"/>
<path d="M0 0 C-0.33 0.99 -0.66 1.98 -1 3 C-0.01 3 0.98 3 2 3 C2 3.66 2 4.32 2 5 C-5.26 5 -12.52 5 -20 5 C-20 4.67 -20 4.34 -20 4 C-13.565 3.505 -13.565 3.505 -7 3 C-6.67 2.01 -6.34 1.02 -6 0 C-3 -1 -3 -1 0 0 Z " fill="#69C0DD" transform="translate(231,76)"/>
<path d="M0 0 C0.33 0 0.66 0 1 0 C1.10957031 1.01320312 1.21914063 2.02640625 1.33203125 3.0703125 C1.49159893 4.42194461 1.65178833 5.77350343 1.8125 7.125 C1.88275391 7.79015625 1.95300781 8.4553125 2.02539062 9.140625 C2.58045143 13.66992115 3.91873384 16.980592 6 21 C5.67 21.66 5.34 22.32 5 23 C0.53249138 20.02166092 0.05365761 16.10842277 -1 11 C-1.66023166 3.32046332 -1.66023166 3.32046332 0 0 Z " fill="#80CFE2" transform="translate(36,53)"/>
<path d="M0 0 C0.99 0.33 1.98 0.66 3 1 C3.19477739 2.62414378 3.38059458 4.24936423 3.5625 5.875 C3.66691406 6.77992187 3.77132812 7.68484375 3.87890625 8.6171875 C4 11 4 11 3 13 C3.66 13.33 4.32 13.66 5 14 C3.68 14.33 2.36 14.66 1 15 C-1.80396138 10.05183286 -0.77350507 5.38317715 0 0 Z " fill="#379CD5" transform="translate(183,63)"/>
<path d="M0 0 C0.99 0.66 1.98 1.32 3 2 C2.67 2.66 2.34 3.32 2 4 C1.34 4 0.68 4 0 4 C0 5.32 0 6.64 0 8 C0.99 8 1.98 8 3 8 C3.33 7.34 3.66 6.68 4 6 C4 7.32 4 8.64 4 10 C2.68 10.33 1.36 10.66 0 11 C-0.33 9.35 -0.66 7.7 -1 6 C-1.639375 5.896875 -2.27875 5.79375 -2.9375 5.6875 C-3.618125 5.460625 -4.29875 5.23375 -5 5 C-5.33 4.01 -5.66 3.02 -6 2 C-3 1 -3 1 0 2 C0 1.34 0 0.68 0 0 Z " fill="#2E74D7" transform="translate(64,58)"/>
<path d="M0 0 C0.33 0.66 0.66 1.32 1 2 C0.67 2.66 0.34 3.32 0 4 C0.66 4.33 1.32 4.66 2 5 C1.01 5.33 0.02 5.66 -1 6 C-1.33 7.65 -1.66 9.3 -2 11 C-2.99 11.33 -3.98 11.66 -5 12 C-5 12.66 -5 13.32 -5 14 C-5.66 14 -6.32 14 -7 14 C-6.44010697 10.00987629 -5.24330232 7.4744948 -2.9375 4.1875 C-2.38964844 3.39730469 -1.84179688 2.60710938 -1.27734375 1.79296875 C-0.64505859 0.90544922 -0.64505859 0.90544922 0 0 Z " fill="#77CCE2" transform="translate(37,34)"/>
<path d="M0 0 C0.66 0.66 1.32 1.32 2 2 C1.34 3.65 0.68 5.3 0 7 C-0.66 7 -1.32 7 -2 7 C-2 7.66 -2 8.32 -2 9 C-2.66 9 -3.32 9 -4 9 C-4.33 9.99 -4.66 10.98 -5 12 C-5.66 12 -6.32 12 -7 12 C-7 10.68 -7 9.36 -7 8 C-6.34 7.67 -5.68 7.34 -5 7 C-5.33 6.34 -5.66 5.68 -6 5 C-4.02 3.35 -2.04 1.7 0 0 Z " fill="#49BBDF" transform="translate(43,32)"/>
<path d="M0 0 C0.66 0.66 1.32 1.32 2 2 C1.625 5.625 1.625 5.625 1 9 C0.01 8.67 -0.98 8.34 -2 8 C-2 8.66 -2 9.32 -2 10 C-2.99 9.67 -3.98 9.34 -5 9 C-5 5 -5 5 -2.5 2.25 C-1.675 1.5075 -0.85 0.765 0 0 Z " fill="#1E72DC" transform="translate(92,74)"/>
<path d="M0 0 C-0.5625 1.9375 -0.5625 1.9375 -2 4 C-5.625 4.75 -5.625 4.75 -9 5 C-9.33 3.68 -9.66 2.36 -10 1 C-6.52674819 -0.1577506 -3.63932552 -0.06866652 0 0 Z " fill="#3CA4DA" transform="translate(61,24)"/>
<path d="M0 0 C0.50789063 0.39832031 1.01578125 0.79664062 1.5390625 1.20703125 C5.53903498 4.28566175 9.36879143 6.91595614 14 9 C14 9.33 14 9.66 14 10 C11.69 9.67 9.38 9.34 7 9 C7 8.34 7 7.68 7 7 C5.35 7 3.7 7 2 7 C1.34 4.69 0.68 2.38 0 0 Z " fill="#76C2DE" transform="translate(42,76)"/>
<path d="M0 0 C1.5 1.25 1.5 1.25 3 3 C3 4.32 3 5.64 3 7 C3.61875 7.0825 4.2375 7.165 4.875 7.25 C7 8 7 8 8.25 10.0625 C8.4975 10.701875 8.745 11.34125 9 12 C6 12 6 12 4.4296875 10.609375 C3.66011719 9.68898438 3.66011719 9.68898438 2.875 8.75 C2.35679688 8.14671875 1.83859375 7.5434375 1.3046875 6.921875 C-0.06166605 4.90916259 -0.66145372 3.40060091 -1 1 C-0.67 0.67 -0.34 0.34 0 0 Z " fill="#75CDE4" transform="translate(33,73)"/>
<path d="M0 0 C0.33 0 0.66 0 1 0 C1.33 2.64 1.66 5.28 2 8 C-1.96 8 -5.92 8 -10 8 C-9.67 6.68 -9.34 5.36 -9 4 C-9 4.66 -9 5.32 -9 6 C-4.545 5.505 -4.545 5.505 0 5 C0 3.35 0 1.7 0 0 Z " fill="#86CEDD" transform="translate(223,42)"/>
<path d="M0 0 C2 1 2 1 2.62109375 2.734375 C3.04706889 5.28144284 3.09646629 7.66856169 3.0625 10.25 C3.05347656 11.14203125 3.04445312 12.0340625 3.03515625 12.953125 C3.02355469 13.62859375 3.01195312 14.3040625 3 15 C2.01 15 1.02 15 0 15 C0 10.05 0 5.1 0 0 Z " fill="#328FD8" transform="translate(166,64)"/>
<path d="M0 0 C0.99 0 1.98 0 3 0 C3 2.64 3 5.28 3 8 C1.68 8.33 0.36 8.66 -1 9 C-1.125 2.25 -1.125 2.25 0 0 Z " fill="#46BBD3" transform="translate(231,70)"/>
<path d="M0 0 C0.33 0 0.66 0 1 0 C1.78441153 6.56492112 2.10914408 12.46837378 1 19 C0.67 19 0.34 19 0 19 C-1.59456558 12.82105839 -1.59456558 6.17894161 0 0 Z " fill="#92DBE6" transform="translate(29,49)"/>
<path d="M0 0 C0.99 0.33 1.98 0.66 3 1 C3 1.99 3 2.98 3 4 C0.15501823 5.97568178 -2.88256767 7.49901406 -6 9 C-4.68775452 5.06326356 -3.08089673 2.77280706 0 0 Z " fill="#66C0DA" transform="translate(43,28)"/>
<path d="M0 0 C4.0042343 3.49087093 5.62671065 5.64951939 6 11 C4 9 4 9 2 6 C1.67 6.99 1.34 7.98 1 9 C0.34 9 -0.32 9 -1 9 C-1.33 7.35 -1.66 5.7 -2 4 C-1.34 4 -0.68 4 0 4 C0 2.68 0 1.36 0 0 Z " fill="#4DBADA" transform="translate(37,71)"/>
<path d="M0 0 C1.98 0 3.96 0 6 0 C5.01 0.66 4.02 1.32 3 2 C3.99 2.66 4.98 3.32 6 4 C0.06 4 -5.88 4 -12 4 C-12 3.67 -12 3.34 -12 3 C-8.04 3 -4.08 3 0 3 C0 2.01 0 1.02 0 0 Z " fill="#2877D5" transform="translate(128,40)"/>
<path d="M0 0 C0.99 0.33 1.98 0.66 3 1 C3.33 2.65 3.66 4.3 4 6 C1.69 6 -0.62 6 -3 6 C-1.125 1.125 -1.125 1.125 0 0 Z " fill="#176DD4" transform="translate(109,73)"/>
<path d="M0 0 C0.66 0 1.32 0 2 0 C2.35858439 3.85478218 2.2754818 5.57759458 0.125 8.875 C-0.57625 9.57625 -1.2775 10.2775 -2 11 C-2.66 11 -3.32 11 -4 11 C-3.71125 10.29875 -3.4225 9.5975 -3.125 8.875 C-1.97866412 5.94547497 -0.97374346 2.99078347 0 0 Z " fill="#4986D1" transform="translate(72,53)"/>
<path d="M0 0 C2.475 0.495 2.475 0.495 5 1 C5 1.66 5 2.32 5 3 C5.66 3 6.32 3 7 3 C7 3.99 7 4.98 7 6 C4.61435923 5.42415568 2.33317216 4.77772405 0 4 C0 2.68 0 1.36 0 0 Z " fill="#2A8BDE" transform="translate(72,24)"/>
<path d="M0 0 C3.3 0 6.6 0 10 0 C9.67 1.32 9.34 2.64 9 4 C7.68 4.33 6.36 4.66 5 5 C5 4.01 5 3.02 5 2 C3.35 1.67 1.7 1.34 0 1 C0 0.67 0 0.34 0 0 Z " fill="#1B77D8" transform="translate(121,56)"/>
<path d="M0 0 C1.32 0 2.64 0 4 0 C4.25 2.25 4.25 2.25 4 5 C2 7.3125 2 7.3125 0 9 C0 6.03 0 3.06 0 0 Z " fill="#498BCF" transform="translate(93,74)"/>
<path d="M0 0 C0.66 0 1.32 0 2 0 C2 1.65 2 3.3 2 5 C-0.95664519 6.4783226 -3.74229737 6.06032783 -7 6 C-6.67 4.68 -6.34 3.36 -6 2 C-5.67 2.99 -5.34 3.98 -5 5 C-3.00016466 4.20882096 -3.00016466 4.20882096 -1 3 C-0.67 2.01 -0.34 1.02 0 0 Z " fill="#50BEDA" transform="translate(221,42)"/>
<path d="M0 0 C0.99 0 1.98 0 3 0 C1.125 4.75 1.125 4.75 0 7 C-0.99 7 -1.98 7 -3 7 C-3 5.68 -3 4.36 -3 3 C-2.34 3 -1.68 3 -1 3 C-0.67 2.01 -0.34 1.02 0 0 Z " fill="#1D6CD4" transform="translate(67,59)"/>
<path d="M0 0 C2.64 0.66 5.28 1.32 8 2 C5.01353231 3.99097846 2.40312738 4.94124926 -1 6 C-0.67 4.02 -0.34 2.04 0 0 Z " fill="#68BDDD" transform="translate(51,28)"/>
<path d="M0 0 C4.62 0 9.24 0 14 0 C14 0.33 14 0.66 14 1 C10.37 1 6.74 1 3 1 C3 1.99 3 2.98 3 4 C2.01 4 1.02 4 0 4 C0 2.68 0 1.36 0 0 Z " fill="#5FA7C5" transform="translate(211,76)"/>
<path d="M0 0 C0.66 0 1.32 0 2 0 C2 0.66 2 1.32 2 2 C1.34 2 0.68 2 0 2 C0.33 4.31 0.66 6.62 1 9 C0.34 9 -0.32 9 -1 9 C-1.33 9.66 -1.66 10.32 -2 11 C-2.25 3.375 -2.25 3.375 0 0 Z " fill="#6093D9" transform="translate(59,49)"/>
<path d="M0 0 C0.66 0 1.32 0 2 0 C3.09658936 3.28976808 2.79953138 4.71303767 2 8 C1.01 7.67 0.02 7.34 -1 7 C-0.67 4.69 -0.34 2.38 0 0 Z " fill="#41AED8" transform="translate(214,62)"/>
<path d="M0 0 C-1.1875 2 -1.1875 2 -3 4 C-5.6875 4.25 -5.6875 4.25 -8 4 C-7.625 2.0625 -7.625 2.0625 -7 0 C-4.3333581 -1.33332095 -2.83319697 -0.67102033 0 0 Z " fill="#3484D7" transform="translate(86,27)"/>
<path d="M0 0 C3.34373475 0.55728913 6.03312999 1.35173889 9 3 C8.34 3.66 7.68 4.32 7 5 C4.375 4.625 4.375 4.625 2 4 C2 3.34 2 2.68 2 2 C1.34 2 0.68 2 0 2 C0 1.34 0 0.68 0 0 Z " fill="#60A1E1" transform="translate(75,23)"/>
<path d="M0 0 C2.64 0.66 5.28 1.32 8 2 C7.01 2.99 6.02 3.98 5 5 C3.0625 4.1875 3.0625 4.1875 1 3 C0.67 2.01 0.34 1.02 0 0 Z " fill="#3FB1E4" transform="translate(46,85)"/>
<path d="M0 0 C0.33 0.66 0.66 1.32 1 2 C0.34 2 -0.32 2 -1 2 C-0.34 3.98 0.32 5.96 1 8 C-0.32 8 -1.64 8 -3 8 C-3.1875 5.125 -3.1875 5.125 -3 2 C-2.01 1.34 -1.02 0.68 0 0 Z " fill="#2A7DCD" transform="translate(83,82)"/>
<path d="M0 0 C0.33 1.32 0.66 2.64 1 4 C1.99 4 2.98 4 4 4 C4.33 3.34 4.66 2.68 5 2 C5 3.32 5 4.64 5 6 C3.68 6.33 2.36 6.66 1 7 C0.87625 6.195625 0.7525 5.39125 0.625 4.5625 C0.315625 3.2940625 0.315625 3.2940625 0 2 C-0.66 1.67 -1.32 1.34 -2 1 C-1.34 0.67 -0.68 0.34 0 0 Z " fill="#6696D1" transform="translate(63,62)"/>
<path d="M0 0 C0.99 0.33 1.98 0.66 3 1 C1.71937515 2.7074998 0.38232443 4.37373596 -1 6 C-1.66 6 -2.32 6 -3 6 C-3 4.68 -3 3.36 -3 2 C-2.01 2 -1.02 2 0 2 C0 1.34 0 0.68 0 0 Z " fill="#528FD7" transform="translate(90,82)"/>
<path d="M0 0 C2.17854707 3.2678206 3.49760034 6.38058265 5 10 C1.125 8.125 1.125 8.125 0 7 C-0.04092937 4.66702567 -0.04241723 2.33294775 0 0 Z " fill="#56A1D0" transform="translate(181,70)"/>
<path d="M0 0 C1.32 0.66 2.64 1.32 4 2 C3.319375 2.61875 3.319375 2.61875 2.625 3.25 C0.94049626 5.06408095 0.00734029 6.75285627 -1 9 C-1.09765625 2.84765625 -1.09765625 2.84765625 -1 1 C-0.67 0.67 -0.34 0.34 0 0 Z " fill="#42A0DE" transform="translate(168,64)"/>
<path d="M0 0 C0.66 0.33 1.32 0.66 2 1 C0.60667426 4.36720387 -0.9789286 5.9859524 -4 8 C-4.33 7.01 -4.66 6.02 -5 5 C-3.68 4.67 -2.36 4.34 -1 4 C-0.67 2.68 -0.34 1.36 0 0 Z " fill="#5298DB" transform="translate(131,56)"/>
<path d="M0 0 C0.66 0 1.32 0 2 0 C1.48792856 3.75519057 0.7824918 6.66688525 -1 10 C-1.02689216 8.52093108 -1.04634621 7.04172517 -1.0625 5.5625 C-1.07410156 4.73878906 -1.08570313 3.91507813 -1.09765625 3.06640625 C-1 1 -1 1 0 0 Z " fill="#7FCEE0" transform="translate(38,43)"/>
<path d="M0 0 C1.04449911 3.13349732 0.93423645 3.98968256 0 7 C0.66 7.33 1.32 7.66 2 8 C1.01 8.33 0.02 8.66 -1 9 C-1.33 8.67 -1.66 8.34 -2 8 C-1.28 1.28 -1.28 1.28 0 0 Z " fill="#3984DB" transform="translate(90,34)"/>
<path d="M0 0 C-1.32 0.33 -2.64 0.66 -4 1 C-4 1.66 -4 2.32 -4 3 C-5.98 3.33 -7.96 3.66 -10 4 C-7.39928297 0.98864344 -3.94054294 -1.97027147 0 0 Z " fill="#84CAE8" transform="translate(55,24)"/>
<path d="M0 0 C1.32 0 2.64 0 4 0 C4 0.66 4 1.32 4 2 C4.99 2 5.98 2 7 2 C7 2.99 7 3.98 7 5 C3.34683329 3.75023244 2.21934164 3.32901247 0 0 Z " fill="#79C6DD" transform="translate(41,86)"/>
<path d="M0 0 C2.64 0.66 5.28 1.32 8 2 C7.34 3.32 6.68 4.64 6 6 C3.97945196 4.35830472 1.97956942 2.69088222 0 1 C0 0.67 0 0.34 0 0 Z " fill="#609AD9" transform="translate(81,34)"/>
<path d="M0 0 C2.97 0.33 5.94 0.66 9 1 C9 1.99 9 2.98 9 4 C6.03 3.01 3.06 2.02 0 1 C0 0.67 0 0.34 0 0 Z " fill="#6FABDF" transform="translate(72,30)"/>
</svg>
