<svg height="256" preserveAspectRatio="xMidYMid" viewBox="0 0 256 256" width="256" xmlns="http://www.w3.org/2000/svg"><path d="m254.575575 142.027814-31.511-15.222 29.851-13.961c2.315-1.086 3.674-3.95 2.073-6.62l-3.102-3.591c-2.002-2.189-4.176-3.786-6.817-2.747l-22.178 8.36c-.484.182-1.015.205-1.513.064l-8.585-2.432c-.637-.18-1.321-.011-1.801.444l-9.183 8.717c-2.058-11.799-6.854-22.657-13.741-31.871l13.425-.105c.578-.005 1.109-.321 1.388-.828l4.752-8.619c.247-.449.638-.802 1.109-1.002l21.968-9.367c1.349-.575 2.179-3.378 1.92-5.196l-.715-6.56c-.584-1.884-3.229-3.542-4.494-3.075l-33.045 11.518 11.236-30.98c.869-2.405-.195-5.39-3.215-6.147l-4.733-.345c-2.964-.132-5.63.275-6.763 2.878l-9.771 21.593c-.213.471-.572.862-1.024 1.115l-7.79 4.351c-.578.323-.942.926-.96 1.587l-.33 12.662c-9.398-6.604-20.374-11.106-32.259-12.817l9.425-9.574c.406-.413.558-1.012.397-1.567l-2.735-9.455c-.142-.492-.116-1.018.075-1.493l8.911-22.15700003c.548-1.36-.847-3.93-2.317-5.032l-5.143-4.133c-1.746-.918-4.789-.221-5.353 1.003l-15.222 31.51200003-13.961-29.85100003c-1.086-2.316-3.949-3.674-6.62-2.074l-3.591 3.103c-2.189 2.002-3.7860004 4.175-2.7460004 6.81700003l8.3590004 22.177c.183.485.205 1.015.064 1.513l-2.431 8.586c-.181.636-.012 1.32.444 1.8l8.716 9.183c-11.799 2.059-22.6570004 6.854-31.8700004 13.741l-.106-13.424c-.004-.579-.321-1.109-.827-1.389l-8.62-4.752c-.448-.247-.801-.637-1.002-1.108l-9.366-21.969c-.575-1.349-3.378-2.179-5.197-1.919l-6.56.714c-1.883.585-3.542 3.23-3.075 4.494l11.519 33.046-30.98-11.236c-2.406-.87-5.391.195-6.148 3.215l-.345 4.733c-.132 2.963.275 5.63 2.878 6.762l21.593 9.771c.472.214.863.573 1.115 1.025l4.352 7.79c.322.577.926.942 1.587.959l12.661.33c-6.603 9.398-11.106 20.374-12.816 32.259l-9.575-9.425c-.412-.406-1.011-.557-1.567-.397l-9.455 2.735c-.492.143-1.017.116-1.492-.075l-22.15700003-8.911c-1.361-.547-3.93.848-5.032 2.317l-4.134 5.144c-.918 1.745-.22 4.788 1.004 5.352l31.51100003 15.222-29.85100003 13.961c-2.316 1.086-3.674 3.95-2.074 6.62l3.103 3.591c2.002 2.189 4.176 3.786 6.81700003 2.747l22.178-8.36c.484-.182 1.014-.205 1.513-.064l8.585 2.432c.636.18 1.321.011 1.801-.444l9.183-8.717c2.058 11.799 6.854 22.657 13.741 31.871l-13.425.105c-.578.005-1.109.321-1.388.828l-4.752 8.619c-.248.449-.638.801-1.109 1.003l-21.968 9.366c-1.349.575-2.18 3.378-1.92 5.196l.714 6.56c.585 1.884 3.23 3.542 4.495 3.075l33.045-11.518-11.236 30.98c-.869 2.405.195 5.39 3.215 6.147l4.733.345c2.963.132 5.63-.275 6.762-2.878l9.771-21.593c.214-.471.573-.862 1.025-1.115l7.79-4.351c.577-.323.942-.926.959-1.587l.331-12.662c9.398 6.604 20.3730004 11.106 32.2590004 12.817l-9.426 9.574c-.405.413-.557 1.012-.396 1.567l2.735 9.455c.142.492.115 1.018-.076 1.493l-8.911 22.157c-.547 1.36.848 3.93 2.318 5.032l5.143 4.133c1.745.918 4.788.221 5.353-1.003l15.221-31.512 13.962 29.851c1.086 2.316 3.949 3.674 6.62 2.074l3.59-3.103c2.189-2.002 3.787-4.176 2.747-6.817l-8.359-22.177c-.183-.485-.205-1.015-.064-1.513l2.431-8.586c.18-.636.011-1.32-.444-1.8l-8.716-9.184c11.798-2.058 22.657-6.853 31.87-13.741l.106 13.426c.004.578.321 1.109.827 1.388l8.62 4.752c.448.247.801.637 1.002 1.108l9.366 21.969c.575 1.349 3.378 2.179 5.197 1.919l6.559-.714c1.884-.585 3.542-3.23 3.076-4.494l-11.519-33.046 30.98 11.236c2.406.87 5.391-.195 6.148-3.215l.345-4.733c.132-2.963-.276-5.63-2.878-6.762l-21.593-9.771c-.472-.214-.863-.573-1.116-1.025l-4.351-7.79c-.323-.577-.926-.942-1.587-.959l-12.662-.33c6.604-9.398 11.106-20.374 12.817-32.259l9.575 9.425c.412.406 1.011.557 1.566.397l9.456-2.735c.491-.143 1.017-.116 1.492.075l22.157 8.911c1.361.547 3.93-.848 5.032-2.317l4.133-5.144c.919-1.745.221-4.788-1.003-5.352zm-72.841-22.386h-15.935c-1.159-5.267-3.389-10.129-6.453-14.351l11.169-11.169c5.771 7.232 9.744 15.961 11.219 25.52zm-32.92-24.277c-4.381-2.801-9.359-4.748-14.707-5.596v-15.793c9.645 1.078 18.524 4.677 25.969 10.127zm-1.94 32.635c0 10.424-8.45 18.875-18.875 18.875-10.424 0-18.875-8.451-18.875-18.875s8.451-18.875 18.875-18.875c10.425 0 18.875 8.451 18.875 18.875zm-27.233-53.735v15.935c-5.267 1.16-10.129 3.39-14.35 6.453l-11.1700004-11.169c7.2330004-5.771 15.9610004-9.744 25.5200004-11.219zm-24.2770004 32.92c-2.8 4.382-4.748 9.36-5.595 14.707h-15.794c1.079-9.645 4.678-18.524 10.127-25.969zm-21.099 29.173h15.935c1.159 5.267 3.389 10.129 6.453 14.351l-11.17 11.169c-5.77-7.232-9.743-15.961-11.218-25.52zm32.9190004 24.277c4.382 2.801 9.36 4.748 14.707 5.596v15.793c-9.644-1.078-18.524-4.677-25.9680004-10.127zm29.174 21.1v-15.935c5.266-1.16 10.129-3.39 14.35-6.453l11.169 11.169c-7.232 5.771-15.961 9.744-25.519 11.219zm24.277-32.92c2.8-4.382 4.747-9.36 5.595-14.707h15.794c-1.079 9.645-4.678 18.524-10.127 25.969z" fill="#e16426"/></svg>