<svg width="2560" height="1280" viewBox="0 0 2560 1280" fill="none" xmlns="http://www.w3.org/2000/svg">
<g clip-path="url(#clip0_511_47)">
<rect width="2560" height="1280" fill="#111111"/>
<path d="M438.668 1160.38C1283.52 617.831 3403.85 1713.01 2144.14 1267.27L1980.48 1809.63C1746.84 1726.27 1275.31 1558.8 1258.29 1555.83C1237 1552.12 -35.3605 1436.43 151.807 1269.12C242.949 1225.11 254.011 1278.96 438.668 1160.38Z" fill="url(#paint0_radial_511_47)"/>
<path d="M2335.05 977.4C1638.8 708.04 1258.25 143.506 1155 -105.091L2257.61 -196C2573.53 307.367 3031.29 1246.76 2335.05 977.4Z" fill="url(#paint1_radial_511_47)"/>
<path d="M888.078 42.3028C465.467 1294.94 73.8505 662.761 -266.668 854.807L-294.52 -12.0731C-119.086 -25.2806 234.782 -53.0437 246.789 -58.4363C261.797 -65.1771 1132.31 -620.045 1050.51 -275.273C1001.27 -160.866 980.447 -231.483 888.078 42.3028Z" fill="url(#paint2_radial_511_47)"/>
</g>
<defs>
<radialGradient id="paint0_radial_511_47" cx="0" cy="0" r="1" gradientUnits="userSpaceOnUse" gradientTransform="translate(1016.5 939) rotate(93.0267) scale(757.557 879.417)">
<stop stop-color="#44BBCC"/>
<stop offset="1" stop-color="#111111"/>
</radialGradient>
<radialGradient id="paint1_radial_511_47" cx="0" cy="0" r="1" gradientUnits="userSpaceOnUse" gradientTransform="translate(1653 619) rotate(-46.5881) scale(548.572 1194.34)">
<stop stop-color="#BB44CC"/>
<stop offset="1" stop-color="#111111"/>
</radialGradient>
<radialGradient id="paint2_radial_511_47" cx="0" cy="0" r="1" gradientUnits="userSpaceOnUse" gradientTransform="translate(666.999 571.116) rotate(-129.513) scale(513.947 862.777)">
<stop stop-color="#FF4400"/>
<stop offset="1" stop-color="#111111"/>
</radialGradient>
<clipPath id="clip0_511_47">
<rect width="2560" height="1280" fill="white"/>
</clipPath>
</defs>
</svg>
