<svg xmlns="http://www.w3.org/2000/svg" width="132" height="24" fill="none" viewBox="0 0 132 24"><path fill="#EDEDF0" d="M38.557 19.495c2.16 0 3.25-1.113 3.725-1.871h.214c.094.805.664 1.563 1.779 1.563h2.111v-2.369h-.545c-.38 0-.57-.213-.57-.544V6.776h-2.8v1.516h-.213c-.545-.758-1.684-1.824-3.772-1.824-3.321 0-5.789 2.747-5.789 6.513s2.515 6.514 5.86 6.514m.498-2.7c-1.969 0-3.51-1.445-3.51-3.79 0-2.298 1.494-3.86 3.487-3.86 1.898 0 3.487 1.397 3.487 3.86 0 2.108-1.352 3.79-3.463 3.79M48.04 24h2.799v-6.376h.213c.522.758 1.637 1.871 3.844 1.871 3.321 0 5.741-2.795 5.741-6.514 0-3.742-2.586-6.513-5.931-6.513-2.135 0-3.18 1.16-3.678 1.8h-.213V6.776h-2.776zm6.263-7.134c-1.922 0-3.512-1.421-3.512-3.885 0-2.108 1.353-3.884 3.464-3.884 1.97 0 3.511 1.54 3.511 3.884 0 2.298-1.494 3.885-3.463 3.885M62.082 24h2.8v-6.376h.213c.522.758 1.637 1.871 3.843 1.871 3.321 0 5.51-2.795 5.51-6.514 0-3.742-2.355-6.513-5.7-6.513-2.135 0-3.179 1.16-3.677 1.8h-.214V6.776h-2.775zm6.263-7.134c-1.922 0-3.511-1.421-3.511-3.885 0-2.108 1.352-3.884 3.463-3.884 1.97 0 3.512 1.54 3.512 3.884 0 2.298-1.495 3.885-3.464 3.885m9.805 2.609h3.961l2.254-9.735h.143l2.253 9.735H90.7l3.153-12.411h-2.821l-2.254 9.759h-.214l-2.253-9.76h-3.725l-2.278 9.76h-.213l-2.23-9.76h-2.99zm17.122 0h2.8v-6.134c0-2.345 1.09-3.79 3.131-3.79h1.233V6.756h-.925c-1.59 0-2.8 1.09-3.274 2.132h-.19V7.064h-2.775zm21.057 0h2.183v-2.487h-2.159c-.854 0-1.21-.379-1.21-1.255V9.527h3.511V7.064h-3.511V3.582h-2.657v3.482h-2.325v2.463h2.159v6.23c0 2.629 1.589 3.718 4.009 3.718m9.693.02c2.586 0 4.864-1.28 5.67-3.86l-2.562-.617c-.451 1.374-1.755 2.085-3.131 2.085-2.041 0-3.393-1.327-3.417-3.411h9.419v-.782c0-3.695-2.301-6.442-6.097-6.442-3.346 0-6.216 2.629-6.216 6.537 0 3.79 2.538 6.49 6.334 6.49m-3.416-7.84c.166-1.492 1.518-2.748 3.298-2.748 1.708 0 3.108 1.066 3.25 2.748z"/><path fill="#EDEDF0" fill-rule="evenodd" d="M108.916 19.475h-2.8V9.527h-2.182V7.064h4.982z" clip-rule="evenodd"/><path fill="#EDEDF0" d="M107.309 5.341c1.02 0 1.779-.758 1.779-1.753 0-.97-.759-1.729-1.779-1.729-1.021 0-1.78.758-1.78 1.73 0 .994.759 1.752 1.78 1.752"/><path fill="#FD366E" d="M24.443 16.432v5.478H10.752c-3.989 0-7.472-2.203-9.335-5.478A11.041 11.041 0 0 1 0 11.695v-1.48a10.97 10.97 0 0 1 .381-2.247C1.661 3.368 5.82 0 10.751 0c4.934 0 9.092 3.37 10.371 7.967h-5.854c-.96-1.499-2.624-2.49-4.516-2.49s-3.555.991-4.516 2.49a5.47 5.47 0 0 0-.67 1.494 5.562 5.562 0 0 0-.202 1.494 5.5 5.5 0 0 0 1.69 3.983 5.32 5.32 0 0 0 3.698 1.494z"/><path fill="#FD366E" d="M24.443 9.46v5.478h-9.994a5.5 5.5 0 0 0 1.691-3.983 5.56 5.56 0 0 0-.203-1.494z"/></svg>