<svg xmlns="http://www.w3.org/2000/svg" xmlns:xlink="http://www.w3.org/1999/xlink" preserveAspectRatio="xMidYMid" viewBox="0 0 256 305"><defs><linearGradient id="a" x1="0%" x2="100%" y1="50%" y2="50%"><stop offset="0%" stop-color="#FF1800"/><stop offset="100%" stop-color="#FF009B"/></linearGradient></defs><path fill="url(#a)" d="M206.72 54.81a36.94 36.94 0 0 0 4.55-17.76A37.11 37.11 0 0 0 174.22 0a37.11 37.11 0 0 0-35.97 28.15l-10.24-.4C57.3 27.76 0 85.05 0 155.75a127.6 127.6 0 0 0 36.39 89.37 36.76 36.76 0 0 0-7.46 22.25 37.11 37.11 0 0 0 37.05 37.05 37.15 37.15 0 0 0 34.54-23.66 128.53 128.53 0 0 0 27.47 2.97c70.7-.01 128-57.32 128.01-128a127.62 127.62 0 0 0-49.28-100.9v-.02Zm-32.51 4.99a23.1 23.1 0 0 1-5.74-.73l-15.38 44.6 22.45-3.67-31.62 51.54 26.32-6.4L81.63 250.8a22.75 22.75 0 0 1-27.84 35.7 22.75 22.75 0 0 1 20.4-40.42l25.12-54.78-24.5 6.63 39.84-57.03-24.5 5.92 69.45-92.45a22.75 22.75 0 0 1 14.6-40.17 22.75 22.75 0 0 1 0 45.5v.1Z"/></svg>
