<svg width="160" height="160" viewBox="0 0 160 160" fill="none" xmlns="http://www.w3.org/2000/svg">
<path d="M49.4945 76.1463C50.8126 73.8462 50.0049 70.9336 47.6905 69.6408C45.3762 68.348 42.4315 69.1646 41.1134 71.4646L25.5507 98.6214C24.2326 100.922 25.0403 103.834 27.3547 105.127C29.669 106.42 32.6137 105.603 33.9318 103.303L49.4945 76.1463Z" fill="white"/>
<path d="M82.9945 55.3463C84.3126 53.0462 83.5049 50.1336 81.1905 48.8408C78.8762 47.548 75.9315 48.3646 74.6134 50.6646L59.0507 77.8214C57.7326 80.1215 58.5403 83.0341 60.8547 84.3269C63.169 85.6197 66.1137 84.8031 67.4318 82.5031L82.9945 55.3463Z" fill="white"/>
<path d="M134.394 55.3463C135.712 53.0462 134.905 50.1336 132.59 48.8408C130.276 47.548 127.331 48.3646 126.013 50.6646L110.451 77.8214C109.133 80.1215 109.94 83.0341 112.255 84.3269C114.569 85.6197 117.514 84.8031 118.832 82.5031L134.394 55.3463Z" fill="white"/>
<path d="M100.994 76.1463C102.313 73.8462 101.505 70.9336 99.1905 69.6408C96.8762 68.348 93.9315 69.1646 92.6134 71.4646L77.0507 98.6214C75.7326 100.922 76.5403 103.834 78.8547 105.127C81.169 106.42 84.1137 105.603 85.4318 103.303L100.994 76.1463Z" fill="white"/>
</svg>
