<svg xmlns="http://www.w3.org/2000/svg" xmlns:xlink="http://www.w3.org/1999/xlink" preserveAspectRatio="xMidYMid" viewBox="0 0 256 256"><defs><linearGradient id="a" x1="0%" x2="100%" y1="100%" y2="0%"><stop offset="0%" stop-color="#2E27AD"/><stop offset="100%" stop-color="#527FFF"/></linearGradient></defs><rect width="256" height="256" fill="url(#a)"/><path fill="#FFF" d="M166.7 175.5c-10.7 8.7-33.1 13.2-54.6 13.2-21.4 0-43.8-4.5-54.5-13.2V193c0 8.7 22.4 18.4 54.5 18.4 32.2 0 54.5-9.7 54.6-18.4v-17.4Zm0-33h6.4c0 3.8-2 7.4-5.7 10.7 4.5 4 5.7 8 5.7 10.8v29c0 16-31.4 24.6-61 24.6-29.4 0-60.7-8.6-60.9-24.6v-29c0-2.8 1.2-6.7 5.7-10.8-4.5-4-5.7-7.9-5.7-10.7v-29c0-2.8 1.2-6.7 5.7-10.7-4.5-4-5.7-8-5.7-10.7V63c0-16 31.4-24.7 61-24.7 16.6 0 32.6 2.7 43.9 7.3l-2.5 5.8a115.3 115.3 0 0 0-41.5-6.8C80 44.6 57.6 54.3 57.6 63S80 81.4 112.1 81.4h2.6l.3 6.4h-3c-21.4 0-43.8-4.6-54.5-13.2V92c0 3.4 3.4 6.3 6.3 8.1 8.6 5.5 24 9.3 41.2 10l-.2 6.4a100 100 0 0 1-42.6-10c-2.4 1.8-4.7 4.3-4.7 7 0 8.7 22.4 18.4 54.5 18.4 3.2 0 6.3-.1 9.3-.3l.5 6.3c-3.2.2-6.5.4-9.8.4-21.4 0-43.8-4.6-54.5-13.2v17.3c0 3.4 3.4 6.3 6.3 8.2 9.9 6.3 28.3 10.2 48.2 10.2h1.4v6.3H112c-20.2 0-38.6-3.7-49.8-10-2.4 1.7-4.7 4.2-4.7 7 0 8.6 22.4 18.3 54.5 18.3 32.2 0 54.5-9.7 54.6-18.4 0-2.7-2.3-5.2-4.7-7-1.6.9-3.3 1.8-5.2 2.5l-2.4-5.8c2.3-1 4.3-2 6-3.1 2.8-1.9 6.3-4.8 6.3-8.1ZM194 96h-18c-1 0-2-.6-2.6-1.4-.6-1-.7-2-.3-3L184 64.4h-41.3l-19.2 38.1H144a3.2 3.2 0 0 1 3 4.1l-18.2 56.9L194.1 96Zm9.8-1-80 82.6a3.2 3.2 0 0 1-4 .6 3.2 3.2 0 0 1-1.3-3.7l21-65.7h-21.2c-1.1 0-2.1-.6-2.7-1.5-.6-1-.7-2.1-.2-3.1L138 59.8c.6-1 1.7-1.7 2.9-1.7h48c1 0 2 .5 2.6 1.4.6.9.8 2 .4 3l-11 27.2h20.8c1.3 0 2.4.8 3 2 .4 1.1.2 2.5-.7 3.4ZM62.3 194a68.7 68.7 0 0 0 17 6.4l1.5-6.1a62 62 0 0 1-15.4-5.8l-3.1 5.6Zm17-44.3 1.5-6.2c-6-1.5-11.4-3.5-15.4-5.7l-3.1 5.5a68.6 68.6 0 0 0 17 6.4Zm-17-57.2 3.1-5.5c4 2.2 9.3 4.2 15.4 5.7L79.2 99a68.7 68.7 0 0 1-17-6.4Z"/></svg>
