<svg xmlns="http://www.w3.org/2000/svg" fill="none" color="#1f8aed" viewBox="0 0 140 114"><path fill="currentColor" fill-rule="evenodd" d="M118.58 56.97c0 9.66-3.87 11.39-8.2 11.39h-9.2V45.57h9.2c4.33 0 8.2 1.73 8.2 11.4Zm-4.7 0c0-6.75-2.04-7.07-5-7.07H106v14.13h2.87c2.97 0 5.02-.32 5.02-7.06ZM65.13 68.36V45.57h14.5v4.33h-9.67v4.65h7.3v4.28h-7.3v5.2h9.67v4.33h-14.5Zm22.6 45.57h4.84V0h-4.83v113.93Zm40.52-55.69v5.79h4.01c2.5 0 3.15-1.64 3.15-2.87 0-.96-.46-2.92-3.88-2.92h-3.28Zm0-8.34v4.33h3.28c1.87 0 2.97-.82 2.97-2.19 0-1.36-1.1-2.14-2.97-2.14h-3.28Zm-4.83-4.33h9.3c4.88 0 6.33 3.42 6.33 5.88 0 2.28-1.45 3.92-2.46 4.38 2.92 1.41 3.42 4.28 3.42 5.74 0 1.91-.96 6.79-7.3 6.79h-9.29V45.57Zm-86.04 11.4c0 9.66-3.87 11.39-8.2 11.39h-9.2V45.57h9.2c4.33 0 8.2 1.73 8.2 11.4Zm14.22 7.24c2.46 0 3.74-.82 4.2-1.37v-2.5h-3.93v-3.92h7.8v9.07c-.69 1.05-4.43 3.1-7.84 3.1-5.6 0-10.35-2.19-10.35-11.85s4.79-11.4 9.12-11.4c6.79 0 8.47 3.56 9.02 6.7l-4.01.92c-.23-1.46-1.5-3.29-4.42-3.29-2.96 0-5.01.32-5.01 7.07 0 6.74 2.14 7.47 5.42 7.47Zm-18.91-7.24c0-6.75-2.06-7.07-5.02-7.07H24.8v14.13h2.87c2.96 0 5.02-.32 5.02-7.06ZM0 68.36V45.57h14.5v4.33H4.82v4.65h7.3v4.28h-7.3v5.2h9.66v4.33H0Z" clip-rule="evenodd"/></svg>
