<?xml version="1.0" encoding="UTF-8"?>
<svg width="256px" height="290px" viewBox="0 0 256 290" version="1.1" xmlns="http://www.w3.org/2000/svg" preserveAspectRatio="xMidYMid">
    <title>fauna</title>
    <g>
        <path d="M198.882591,60.8523114 C181.301943,66.8425639 172.836442,77.5868116 167.069224,94.3209098 C165.580987,98.7896395 161.859994,103.734348 157.674279,107.062176 L172.092726,122.845845 L126.324829,90.1376064 L4.26325641e-13,2.84217094e-14 C4.26325641e-13,2.84217094e-14 9.11627288,60.4720111 12.2790368,82.7213482 C14.5115524,98.4093392 18.3255706,105.445297 30.4184773,112.576933 L35.2557687,115.239035 L56.0929294,126.4591 L43.7208677,119.898317 L100.836668,151.750277 L100.465212,152.606556 L38.9766012,123.511572 C42.2325508,134.921385 48.5579178,156.884733 51.255638,166.583597 C54.1394079,177.042258 57.3951966,180.845261 67.348693,184.554998 L85.6745048,191.400404 L97.0232129,186.835996 L82.6047657,196.629734 L10.511565,290.094365 C58.4184698,244.645664 98.9761716,228.481694 128.650852,215.265254 C166.511236,198.531236 189.301918,187.787149 204.185087,149.183049 C214.790079,122.085245 223.068244,87.3806301 233.581578,73.973637 L256,44.6885029 C256,44.6885029 209.580045,57.2392976 198.882591,60.8523114 Z" fill="#3A1AB6"></path>
    </g>
</svg>
