<svg role="img" viewBox="0 0 24 24" xmlns="http://www.w3.org/2000/svg"><title>Hasura</title><path d="M2.1216.0014c-.1221-.01-.2481.0345-.3354.1382C.448 1.7248.0338 6.021.7236 8.1721c.228.714.293 1.4694.1567 2.2072-.1332.7289-.2692 1.6118-.2692 2.2221C.6111 18.8946 5.712 24 12.0001 24c6.2909 0 11.3889-5.1024 11.3889-11.3986 0-.6133-.1334-1.4932-.2696-2.2221-.1362-.7378-.071-1.4931.157-2.2072.6899-2.151.2753-6.4473-1.0628-8.0325-.1746-.2074-.5033-.1777-.6483.0504l-1.6491 2.5895a1.2678 1.2678 0 0 1-1.6934.2757C16.4348 1.885 14.2973 1.2034 12 1.2034c-2.2973 0-4.435.6815-6.223 1.8518-.5507.3615-1.2849.2399-1.6934-.2757L2.4345.19a.4092.4092 0 0 0-.3129-.1886zM12 3.8046c1.347 0 2.626.3053 3.7716.8505 2.848 1.351 4.8582 4.1864 5.0358 7.499.009.157.0117.3143.0117.4743-.0029 4.865-3.958 8.8234-8.819 8.8234-4.8612 0-8.8165-3.9584-8.8165-8.8234 0-.16.006-.3173.012-.4743.1776-3.3155 2.1878-6.1509 5.0358-7.502C9.374 4.107 10.653 3.8047 12 3.8047zM9.5664 8.732a.2539.2539 0 0 0-.2192.1274c-.0444.08-.0444.1775.003.2546l1.8474 3.1112-2.4811 3.7866a.257.257 0 0 0-.0117.2607.252.252 0 0 0 .222.1333h1.8592a.2575.2575 0 0 0 .2133-.1157l1.3409-2.0976 1.202 2.0859a.2511.2511 0 0 0 .2191.1274h1.8325a.2471.2471 0 0 0 .2188-.1274c.0534-.08.0536-.175.0062-.2549l-2.2529-3.9081-1.9332-3.259a.2512.2512 0 0 0-.2192-.1244Z"/></svg>