<svg xmlns="http://www.w3.org/2000/svg" fill="none" viewBox="0 0 103 132"><path fill="#166788" d="M99.87 53.9a42.87 42.87 0 0 1-10.58 10.7 53.33 53.33 0 0 1-7.26 4.38c-8.97 4.54-19.62 7-30.78 7s-21.8-2.46-30.78-7a65.9 65.9 0 0 1-3.6-1.98 53.13 53.13 0 0 1-3.65-2.4A42.74 42.74 0 0 1 2.64 53.9 26.54 26.54 0 0 0 0 65.31c0 4.72 1.3 9.23 3.64 13.36a37.36 37.36 0 0 0 1.87 2.91c8.45 11.78 25.78 19.87 45.74 19.87 19.97 0 37.3-8.1 45.75-19.87a34.05 34.05 0 0 0 1.86-2.9 26.93 26.93 0 0 0 3.65-13.37c0-4-.94-7.83-2.64-11.43Z"/><path fill="#166788" d="M99.87 84a42.87 42.87 0 0 1-10.58 10.71 53.29 53.29 0 0 1-7.26 4.38c-8.97 4.54-19.62 7-30.78 7s-21.8-2.46-30.78-7a65.64 65.64 0 0 1-3.6-1.98 53.1 53.1 0 0 1-3.65-2.4A42.74 42.74 0 0 1 2.64 84 26.54 26.54 0 0 0 0 95.43c0 4.72 1.3 9.22 3.64 13.36a37.93 37.93 0 0 0 1.87 2.9c8.45 11.78 25.78 19.88 45.74 19.88 19.97 0 37.3-8.1 45.75-19.87a34.44 34.44 0 0 0 1.86-2.91 26.92 26.92 0 0 0 3.65-13.36c0-4-.94-7.83-2.64-11.43Z"/><path fill="#1A1A1A" d="M51.25 0C23 0 0 16.21 0 36.14a26.5 26.5 0 0 0 3.49 13.08c.28.51.58 1.02.89 1.51 3.56 5.68 9.14 10.6 16.1 14.29A53.06 53.06 0 0 0 24.6 67a67.66 67.66 0 0 0 26.65 5.28A67.6 67.6 0 0 0 77.9 67a65.13 65.13 0 0 0 4.13-1.98c6.96-3.7 12.53-8.61 16.1-14.29a31.78 31.78 0 0 0 1.74-3.16c1.7-3.6 2.64-7.44 2.64-11.43C102.5 16.21 79.5 0 51.25 0Zm26.72 42.42a16.51 16.51 0 0 1-.96 1.74C75.05 47.28 72 49.98 68.17 52a29.88 29.88 0 0 1-2.27 1.09A37.25 37.25 0 0 1 51.25 56a37.25 37.25 0 0 1-15.81-3.44 28.2 28.2 0 0 1-1.1-.55c-3.82-2.03-6.88-4.73-8.85-7.85a21.08 21.08 0 0 1-.95-1.74 14.56 14.56 0 0 1-1.45-6.28c0-10.95 12.63-19.86 28.16-19.86 15.54 0 28.17 8.91 28.17 19.86 0 2.2-.52 4.3-1.45 6.28Z"/></svg>
