<svg xmlns="http://www.w3.org/2000/svg" data-name="Layer 1" viewBox="0 0 200 75"><path d="M39.2 19c-10.6 0-17.7 6.2-17.7 18.1v8.5a8 8 0 0 1 3.5-.8 7.9 7.9 0 0 1 3.5.8v-8.5c0-7.8 4.2-11.8 10.8-11.8S50 29.3 50 37.1v18.6h6.9V37c0-12-7-18.1-17.7-18.1Z"/><path d="M60.7 37.8c0-10.9 8-18.8 19.2-18.8s19.2 8 19.2 18.8v2.5H67.9c1 6.4 5.8 10 12 10 4.6 0 7.9-1.5 10-4.6h7.6c-2.7 6.7-9.3 11-17.6 11-11.3 0-19.2-8-19.2-18.9Zm31.1-3.6c-1.4-5.8-6-8.9-11.9-8.9s-10.4 3.2-11.8 8.9Z"/><path d="M102.7 37.8c0-10.9 8-18.8 19.3-18.8s19.3 8 19.3 18.8-8 18.8-19.3 18.8-19.3-8-19.3-18.8Zm31.6 0c0-7.2-4.9-12.5-12.3-12.5s-12.3 5.3-12.3 12.5 5 12.5 12.3 12.5 12.3-5.2 12.3-12.5Z"/><path d="M180.6 62.8h.8c4.5 0 6.1-2 6.1-7V20.2h7v35.2c0 8.8-3.6 13.4-12.4 13.4h-1.5Z"/><path d="M177.2 59.1h-6.9v-8.5H153a8.6 8.6 0 0 1-7.9-4.4 7.7 7.7 0 0 1 1-8.2l15.6-20.5a8.7 8.7 0 0 1 15.6 5.1v22h5.2v6h-5.2Zm-25.5-17.3a1.8 1.8 0 0 0-.4 1 1.7 1.7 0 0 0 1.8 1.7h17.2v-22a1.7 1.7 0 0 0-1.2-1.7 2.4 2.4 0 0 0-.6-.1 1.6 1.6 0 0 0-1.4.7l-15.4 20.4Z"/><path fill="#018bff" d="M191 5.5a5.9 5.9 0 1 0 5.9 6 5.9 5.9 0 0 0-5.9-6Z"/><path fill="#018bff" d="M24.7 47a5.8 5.8 0 0 0-3.5 1.2l-6.5-4.4a6 6 0 0 0 .2-1.6A5.9 5.9 0 1 0 9 48a5.8 5.8 0 0 0 3.5-1.2l6.5 4.5a5.9 5.9 0 0 0 0 3.2l-6.5 4.4A5.8 5.8 0 0 0 9 57.7a5.9 5.9 0 1 0 5.9 5.9 6 6 0 0 0-.2-1.6l6.5-4.4a5.8 5.8 0 0 0 3.5 1.2 5.9 5.9 0 0 0 0-11.8Z"/></svg>
