<svg width="200" height="75" viewBox="0 0 200 75" fill="none" xmlns="http://www.w3.org/2000/svg">
<path d="M39.2 19C28.6 19 21.5 25.2 21.5 37.1V45.6C22.591 45.0716 23.7878 44.7981 25 44.8C26.2126 44.7945 27.4102 45.0682 28.5 45.6V37.1C28.5 29.3 32.7 25.3 39.3 25.3C45.9 25.3 50 29.3 50 37.1V55.7H56.9V37C56.9 25 49.9 18.9 39.2 18.9V19Z" fill="white"/>
<path d="M60.7002 37.8C60.7002 26.9 68.7002 19 79.9002 19C91.1002 19 99.1002 27 99.1002 37.8V40.3H67.9002C68.9002 46.7 73.7002 50.3 79.9002 50.3C84.5002 50.3 87.8002 48.8 89.9002 45.7H97.5002C94.8002 52.4 88.2002 56.7 79.9002 56.7C68.6002 56.7 60.7002 48.7 60.7002 37.8ZM91.8002 34.2C90.4002 28.4 85.8002 25.3 79.9002 25.3C74.0002 25.3 69.5002 28.5 68.1002 34.2H91.8002Z" fill="white"/>
<path d="M102.7 37.8C102.7 26.9 110.7 19 122 19C133.3 19 141.3 27 141.3 37.8C141.3 48.6 133.3 56.6 122 56.6C110.7 56.6 102.7 48.6 102.7 37.8ZM134.3 37.8C134.3 30.6 129.4 25.3 122 25.3C114.6 25.3 109.7 30.6 109.7 37.8C109.7 45 114.7 50.3 122 50.3C129.3 50.3 134.3 45.1 134.3 37.8Z" fill="white"/>
<path d="M180.6 62.8H181.4C185.9 62.8 187.5 60.8 187.5 55.8V20.2H194.5V55.4C194.5 64.2 190.9 68.8 182.1 68.8H180.6V62.8Z" fill="white"/>
<path d="M177.2 59.1H170.3V50.6H153C151.404 50.6725 149.82 50.2993 148.425 49.5221C147.03 48.745 145.878 47.5946 145.1 46.2C144.47 44.8794 144.23 43.4068 144.407 41.9545C144.584 40.5023 145.171 39.1306 146.1 38L161.7 17.5C162.796 16.0711 164.309 15.0177 166.03 14.4852C167.75 13.9526 169.594 13.9672 171.306 14.5269C173.017 15.0865 174.513 16.1637 175.587 17.6097C176.661 19.0558 177.259 20.7994 177.3 22.6V44.6H182.5V50.6H177.3L177.2 59.1ZM151.7 41.8C151.468 42.0847 151.328 42.4337 151.3 42.8C151.3 43.0319 151.347 43.2615 151.438 43.4745C151.53 43.6876 151.664 43.8796 151.833 44.0389C152.001 44.1981 152.201 44.3212 152.419 44.4005C152.637 44.4798 152.868 44.5136 153.1 44.5H170.3V22.5C170.316 22.1237 170.208 21.7526 169.99 21.445C169.773 21.1373 169.46 20.9104 169.1 20.8C168.905 20.7414 168.703 20.7078 168.5 20.7C168.226 20.687 167.954 20.7445 167.708 20.8671C167.463 20.9897 167.254 21.1732 167.1 21.4L151.7 41.8Z" fill="white"/>
<path d="M191 5.5C189.838 5.50017 188.701 5.84382 187.733 6.48781C186.765 7.13179 186.009 8.04741 185.56 9.11968C185.11 10.1919 184.988 11.3731 185.207 12.5147C185.427 13.6564 185.979 14.7078 186.794 15.5367C187.609 16.3657 188.651 16.9354 189.789 17.1742C190.927 17.413 192.11 17.3103 193.19 16.8791C194.269 16.4478 195.197 15.7072 195.858 14.7502C196.518 13.7932 196.881 12.6624 196.9 11.5C196.914 10.7168 196.771 9.93885 196.48 9.21145C196.19 8.48404 195.757 7.82178 195.208 7.26327C194.659 6.70477 194.004 6.26122 193.281 5.95848C192.559 5.65574 191.784 5.49989 191 5.5Z" fill="#018BFF"/>
<path d="M24.7001 47C23.4337 47.0072 22.2045 47.4286 21.2001 48.2L14.7001 43.8C14.8385 43.2781 14.9057 42.7399 14.9001 42.2C14.9199 41.029 14.5909 39.8787 13.9547 38.8953C13.3186 37.912 12.4043 37.1403 11.3281 36.6783C10.2519 36.2164 9.06259 36.0852 7.91159 36.3014C6.7606 36.5177 5.69999 37.0716 4.86483 37.8926C4.02966 38.7136 3.45773 39.7646 3.22185 40.9117C2.98598 42.0588 3.09683 43.2502 3.5403 44.3341C3.98377 45.418 4.73978 46.3455 5.71208 46.9983C6.68438 47.6511 7.82897 47.9998 9.0001 48C10.2665 47.9928 11.4957 47.5714 12.5001 46.8L19.0001 51.3C18.7053 52.3463 18.7053 53.4537 19.0001 54.5L12.5001 58.9C11.4957 58.1286 10.2665 57.7072 9.0001 57.7C7.83319 57.7 6.69249 58.046 5.72224 58.6943C4.75199 59.3426 3.99577 60.2641 3.54921 61.3422C3.10265 62.4202 2.98581 63.6065 3.21347 64.751C3.44112 65.8955 4.00304 66.9468 4.82817 67.7719C5.6533 68.5971 6.70458 69.159 7.84907 69.3866C8.99356 69.6143 10.1798 69.4974 11.2579 69.0509C12.336 68.6043 13.2575 67.8481 13.9058 66.8779C14.5541 65.9076 14.9001 64.7669 14.9001 63.6C14.9057 63.0601 14.8385 62.5219 14.7001 62L21.2001 57.6C22.2045 58.3714 23.4337 58.7928 24.7001 58.8C26.2649 58.8 27.7656 58.1784 28.872 57.0719C29.9785 55.9655 30.6001 54.4648 30.6001 52.9C30.6001 51.3352 29.9785 49.8345 28.872 48.7281C27.7656 47.6216 26.2649 47 24.7001 47Z" fill="#018BFF"/>
</svg>
