<svg xmlns="http://www.w3.org/2000/svg" preserveAspectRatio="xMidYMid" viewBox="0 0 256 264"><path d="M255 158a13 13 0 0 0-10.7-8.6 26 26 0 0 0-8.6.5 77 77 0 0 1-13.3 1.7c11.9-20 21.5-42.7 27-64.2 9-34.7 4.2-50.5-1.4-57.6A77.5 77.5 0 0 0 185.6.4c-14-.2-26.2 2.5-32.5 4.5-6-1-12.3-1.6-19-1.7a61.7 61.7 0 0 0-33 8.1 151 151 0 0 0-23.5-5.8C54.8 1.7 36.4 4.6 23 14.2 6.6 25.7-.9 45.7.5 73.6c.4 9 5.4 36 13.2 61.5a215 215 0 0 0 14.2 36.3c7 13.4 14.6 21.2 23 24a22.6 22.6 0 0 0 22.4-4.8c1.1 1.4 2.7 2.7 4.7 4 2.6 1.6 5.7 3 8.9 3.8 11.3 2.8 22 2 31-1.9a643.2 643.2 0 0 1 .3 10.7A109.5 109.5 0 0 0 123 240c1.4 4.2 3.6 11 9.3 16.5 6 5.5 13.1 7.3 19.7 7.3 3.3 0 6.4-.5 9.2-1 9.8-2.2 21-5.4 29-16.9 7.6-10.8 11.4-27.2 12-53l.3-2 .1-1.4 1.8.2h.5c10 .4 22.2-1.7 29.7-5.2 6-2.7 25-12.8 20.5-26.3"/><path fill="#336791" d="M238 160.7c-29.8 6.2-31.9-4-31.9-4 31.4-46.5 44.5-105.6 33.2-120.1C208.4-3 155 15.8 154 16.3h-.3a106 106 0 0 0-19.8-2 49 49 0 0 0-31.4 9.3S7-15.7 11.5 73.1c1 18.9 27 142.9 58.2 105.4 11.4-13.7 22.4-25.3 22.4-25.3 5.5 3.7 12 5.5 18.9 4.8l.5-.4c-.2 1.7 0 3.4.2 5.3-8 9-5.7 10.6-21.7 13.9-16.2 3.3-6.7 9.3-.5 10.8 7.6 2 25 4.6 36.8-12l-.4 2c3.1 2.5 5.3 16.3 5 29-.4 12.5-.7 21.1 1.8 27.8 2.5 6.8 5 22 26 17.4 17.7-3.7 26.8-13.5 28-29.9 1-11.6 3-9.8 3.2-20.2l1.6-5c1.9-15.7.3-20.7 11.2-18.4l2.6.2c8 .4 18.4-1.2 24.6-4 13.2-6.2 21-16.5 8-13.8"/><path fill="#FFF" d="M108 81.5c-2.6-.3-5 0-6.3 1-.6.4-.9 1-1 1.5 0 1 .7 2.3 1.2 3 1.3 1.7 3.3 3 5.2 3.2h.9c3.2 0 6.2-2.5 6.4-4.3.4-2.4-3-4-6.3-4.4"/><path fill="#FFF" d="M196.9 81.6c-.3-1.8-3.6-2.4-6.6-2-3.1.5-6.1 1.9-5.9 3.7.2 1.5 2.8 3.9 5.8 3.9h.8c2-.3 3.6-1.6 4.3-2.4 1-1.1 1.7-2.4 1.6-3.2"/><path fill="#FFF" d="M247.8 160c-1.1-3.4-4.8-4.5-10.8-3.3-18 3.8-24.5 1.2-26.6-.4a246 246 0 0 0 31.7-71.1c3-11.4 4.6-22 4.7-30.6.1-9.5-1.5-16.4-4.8-20.7a70.4 70.4 0 0 0-56.9-26.5c-16.3-.2-30.2 4-32.8 5.2a82 82 0 0 0-18.5-2.4c-12.3-.2-23 2.7-31.8 8.7-3.8-1.4-13.6-4.8-25.7-6.7-20.9-3.4-37.5-.9-49.3 7.5-14.1 10-20.7 28-19.4 53.2.4 8.5 5.3 34.6 13 59.7 10 33 21 51.6 32.4 55.5 1.4.4 3 .7 4.6.7 4.2 0 9.4-1.9 14.7-8.3a529.8 529.8 0 0 1 20.3-23c4.5 2.5 9.5 3.8 14.6 4v.4l-2.6 3.2c-3.5 4.4-4.2 5.4-15.5 7.7-3.3.7-11.8 2.4-12 8.4-.1 6.6 10.2 9.3 11.3 9.6 4.1 1 8 1.6 11.8 1.6 9 0 17-3 23.5-8.8-.2 23.4.8 46.4 3.6 53.4 2.3 5.8 7.9 19.8 25.6 19.8 2.6 0 5.5-.3 8.7-1 18.5-4 26.5-12.1 29.6-30.2a901 901 0 0 0 5.9-45c2.8.9 6.5 1.3 10.4 1.3a61 61 0 0 0 23.7-4.5c6.7-3.1 18.8-10.7 16.6-17.4Zm-44.1-83.5c0 3.7-.6 7-1.1 10.5a80.8 80.8 0 0 0-.3 26 49.2 49.2 0 0 1-2.2 28c-.7-1.1-1.3-2.5-2-4-.5-1.2-1.7-3.4-3.3-6.3-6.4-11.5-21.4-38.4-13.7-49.3 2.2-3.3 8-6.7 22.6-4.9Zm-17.6-61.7c21.3.4 38.2 8.4 50.1 23.7 9.2 11.7-1 65-30.1 111l-1-1.2-.3-.4c7.6-12.5 6-24.8 4.8-35.8-.6-4.5-1-8.7-1-12.7.2-4.2.7-7.8 1.3-11.3a71.5 71.5 0 0 0 1.3-16c-.5-5-6.3-20.2-18-33.8a81 81 0 0 0-28.6-21.5c5.5-1.2 13-2.2 21.5-2Zm-119.4 161c-6 7-10 5.7-11.3 5.3-8.8-3-18.9-21.4-27.8-50.7A330.6 330.6 0 0 1 15 72.5C13.8 50 19.3 34.2 31.2 25.8c19.4-13.8 51.3-5.6 64.2-1.4l-.6.5c-21 21.3-20.5 57.6-20.5 59.8a150.2 150.2 0 0 1-.6 34 38.4 38.4 0 0 0 12.7 34.7 540 540 0 0 0-19.7 22.4Zm22.5-30a31 31 0 0 1-8.2-26c2-13.6 1.2-25.4.8-31.8v-2.3c3-2.7 17.2-10.3 27.4-8 4.6 1 7.4 4.2 8.6 9.6 6 28.1.8 39.9-3.4 49.3-.9 1.9-1.7 3.7-2.4 5.6l-.6 1.5c-1.3 3.7-2.6 7.2-3.4 10.4-7 0-13.7-3-18.8-8.3Zm1 37.9c-2-.5-3.8-1.4-4.9-2.1.9-.4 2.5-1 5.2-1.6 13.4-2.7 15.4-4.7 20-10.4 1-1.3 2.1-2.8 3.8-4.6 2.4-2.7 3.5-2.2 5.5-1.4 1.6.7 3.2 2.7 3.8 5 .3 1 .7 3-.5 4.6-9.4 13.1-23 13-32.9 10.5Zm69.8 65c-16.3 3.4-22-4.9-25.9-14.4-2.4-6.2-3.6-33.9-2.8-64.5l-.1-1.1-.5-2.2a15 15 0 0 0-8.1-9.7c-1.5-.6-4.2-1.7-7.5-1 .7-2.8 2-6 3.2-9.5l.6-1.5c.6-1.7 1.4-3.4 2.2-5.2 4.4-9.9 10.5-23.3 4-53.8-2.5-11.4-10.8-17-23.3-15.7A53.5 53.5 0 0 0 82 76.7c1-11.5 4.6-33 18-46.6a44.3 44.3 0 0 1 33.6-12.6 71.2 71.2 0 0 1 54.4 26c8.5 10 13 20.1 14.9 25.5-13.8-1.4-23.1 1.4-27.9 8.1-10.3 14.8 5.7 43.4 13.3 57.2 1.4 2.5 2.7 4.7 3 5.6a51 51 0 0 0 8.1 13l2 2.6c-4.2 1.2-11.7 4-11 17.8-.5 7-4.4 39.6-6.4 51-2.6 15.3-8.2 21-24 24.3Zm68.1-78c-4.2 2-11.4 3.5-18.1 3.8-7.5.3-11.3-.9-12.2-1.6-.4-8.6 2.8-9.5 6.2-10.5l1.5-.5 1 .8c6 4 16.8 4.4 32 1.3h.1c-2 1.8-5.5 4.4-10.5 6.7Z"/></svg>
