<?xml version="1.0" encoding="UTF-8"?>
<svg id="Layer_1" xmlns="http://www.w3.org/2000/svg" version="1.1" viewBox="0 0 80 80">
  <!-- Generator: Adobe Illustrator 29.0.1, SVG Export Plug-In . SVG Version: 2.1.0 Build 192)  -->
  <defs>
    <style>
      .st0 {
        fill: #99cbca;
        stroke: #000;
        stroke-miterlimit: 10;
        stroke-width: .1px;
      }
    </style>
  </defs>
  <path class="st0" d="M65.2,68.3c-.7,0-1.4-.3-1.8-1-.6-1-.3-2.3.7-3l4.2-2.7h0c2.3-1.3,3.7-3.8,3.7-6.4v-28c0-2.6-1.4-5.1-3.7-6.4h0l-24.2-15.1c-1-.6-2-.2-2.3,0s-1.2.9-1.2,2.1v31.7c0,2.3,1.2,4.4,3.1,5.6,2,1.2,4.3,1.3,6.4.3l6-3c1-.5,2.3,0,3,.9.5,1,0,2.3-.9,3l-6,3c-3.4,1.7-7.4,1.6-10.7-.5-3.2-2-5.2-5.5-5.2-9.3V7.7c0-2.4,1.3-4.6,3.4-5.8,2.1-1.2,4.6-1.2,6.8,0h0l24.2,15.1c3.6,2.1,5.8,6,5.8,10.2v28.1c0,4.2-2.3,8.1-5.8,10.2l-4.2,2.7c-.4.2-.8.3-1.2.3h0Z"/>
  <path class="st0" d="M33.8,79c-1.1,0-2.3-.3-3.3-.9l-20.6-11.6c-3.9-2.3-6.4-6.5-6.4-11.1v-19.7c0-5.8,3.1-11.2,8.1-14.1l14.5-8.5c1-.6,2.3-.3,3,.8.6,1,.3,2.3-.8,3l-14.5,8.5c-3.6,2.1-5.9,6.1-5.9,10.3v19.7c0,3,1.6,5.8,4.2,7.3l20.6,11.6c1,.6,2,.2,2.3,0s1.1-.8,1.1-2v-14.8c0-1.2.9-2.2,2.2-2.2s2.2.9,2.2,2.2v14.8c0,2.4-1.2,4.6-3.3,5.8-.9.6-2.2.9-3.3.9h0ZM65.4,41.8c1.2,0,2.2-1,2.2-2.2s-1-2.2-2.2-2.2-2.2,1-2.2,2.2,1,2.2,2.2,2.2Z"/>
</svg>