<svg width="440" height="180" viewBox="0 0 440 180" fill="none" xmlns="http://www.w3.org/2000/svg">
    <rect y="29" width="358" height="121" rx="24" fill="white" />
    <path d="M90.1 120.5C89.3 120.5 88.5 120.1 88 119.3C87.3 118.1 87.6 116.6 88.8 115.8L93.7 112.7H93.8C96.4 111.2 98.1 108.3 98.1 105.3V73C98.1 70 96.5 67.1 93.8 65.6C93.8 65.6 93.8 65.6 93.7 65.6L65.8 48.2C64.6 47.5 63.5 48 63.1 48.2C62.7 48.4 61.7 49.2 61.7 50.6V87.1C61.7 89.8 63.1 92.2 65.3 93.6C67.6 95 70.3 95.1 72.7 93.9L79.6 90.5C80.8 89.9 82.3 90.4 83 91.6C83.6 92.8 83.1 94.3 81.9 95L75 98.4C71.1 100.4 66.5 100.2 62.7 97.8C59 95.5 56.7 91.5 56.7 87.1V50.6C56.7 47.8 58.2 45.3 60.6 43.9C63 42.5 65.9 42.5 68.4 43.9C68.4 43.9 68.4 43.9 68.5 43.9L96.4 61.3C100.6 63.7 103.1 68.2 103.1 73V105.4C103.1 110.2 100.5 114.7 96.4 117.1L91.5 120.2C91 120.4 90.6 120.5 90.1 120.5Z" fill="black" />
    <path d="M53.9 132.9C52.6 132.9 51.3 132.6 50.1 131.9L26.4 118.5C21.9 115.9 19 111 19 105.7V83C19 76.3 22.6 70.1 28.3 66.8L45 57C46.2 56.3 47.7 56.7 48.4 57.9C49.1 59.1 48.7 60.6 47.5 61.3L30.8 71.1C26.6 73.5 24 78.1 24 83V105.7C24 109.2 25.9 112.4 28.8 114.1L52.5 127.5C53.7 128.2 54.8 127.7 55.2 127.5C55.6 127.3 56.5 126.6 56.5 125.2V108.1C56.5 106.7 57.6 105.6 59 105.6C60.4 105.6 61.5 106.7 61.5 108.1V125.2C61.5 128 60.1 130.5 57.7 131.9C56.6 132.6 55.2 132.9 53.9 132.9Z" fill="black" />
    <path d="M90.3 90C91.6807 90 92.8 88.8807 92.8 87.5C92.8 86.1193 91.6807 85 90.3 85C88.9193 85 87.8 86.1193 87.8 87.5C87.8 88.8807 88.9193 90 90.3 90Z" fill="black" />
    <path d="M128.5 74.9C128.5 74.4 128.9 74 129.4 74H139.8C145.6 74 150.4 78.7 150.4 84.4C150.4 90.3 145.6 95 139.9 95H132.1V106.1C132.1 106.6 131.7 107 131.2 107H129.4C128.9 107 128.5 106.6 128.5 106.1V74.9V74.9ZM139.6 91.6C143.5 91.6 146.8 88.7 146.8 84.4C146.8 80.2 143.5 77.6 139.6 77.6H132.1V91.6H139.6Z" fill="black" />
    <path d="M164.2 84.8C170.2 84.8 175.2 90 175.2 96.1C175.2 102.3 170.3 107.6 164.2 107.6C158.2 107.6 153.2 102.4 153.2 96.1C153.2 90 158.1 84.8 164.2 84.8ZM164.2 104.4C168.5 104.4 171.7 100.6 171.7 96.1C171.7 91.7 168.5 87.9 164.2 87.9C159.9 87.9 156.7 91.6 156.7 96.1C156.7 100.6 159.9 104.4 164.2 104.4Z" fill="black" />
    <path d="M180 104.9C179.8 104.7 179.7 104.3 179.9 104L180.6 102.8C180.9 102.3 181.3 102.1 181.9 102.5C182.7 103.1 184.5 104.4 187.3 104.4C189.5 104.4 191 103.4 191 101.7C191 99.6 189.3 98.8 186.1 97.2C183.2 95.8 179.9 94.2 179.9 90.5C179.9 88.2 181.6 84.8 186.7 84.8C189.5 84.8 191.9 85.7 192.9 86.5C193.4 86.9 193.5 87.3 193.1 88L192.6 88.9C192.3 89.5 191.6 89.6 191.1 89.3C190.2 88.7 188.6 88 186.6 88C184.2 88 183.4 89.4 183.4 90.4C183.4 92.3 184.9 93 187.6 94.3C191.4 96 194.6 97.5 194.6 101.4C194.6 104.8 191.6 107.6 187.2 107.6C183.5 107.6 181.1 106 180 104.9Z" fill="black" />
    <path d="M198.8 88.3C198.1 88.3 197.7 87.8 197.7 87.3V86.4C197.7 85.8 198.1 85.4 198.8 85.4H201.7V79.4C201.7 78.8 202.2 78.4 202.7 78.4L204.2 78.3C204.8 78.3 205.2 78.8 205.2 79.3V85.4H211.6C212.2 85.4 212.7 85.8 212.7 86.4V87.3C212.7 87.9 212.2 88.3 211.6 88.3H205.2V101.3C205.2 103.6 205.9 104.4 207.1 104.4C209.1 104.4 210.5 103.6 211.4 103C212.2 102.5 212.5 102.9 212.8 103.4L213.2 104.4C213.5 105.1 213.4 105.4 212.8 105.8C211.9 106.5 209.6 107.5 206.7 107.5C202.5 107.5 201.7 104.9 201.7 101.5V88.3H198.8Z" fill="black" />
    <path d="M236.6 107.2C236.6 114.7 232 117.4 227.1 117.4C223.7 117.4 220.6 115.6 219.5 114.6C219.1 114.3 219 113.7 219.3 113.3L220.2 111.9C220.5 111.4 221.1 111.4 221.6 111.9C222.8 112.9 224.7 114.2 227.1 114.2C230.5 114.2 233.2 112.3 233.2 107.2V105.6C233.2 105.6 230.7 107.5 227.2 107.5C221.2 107.5 216.9 102.4 216.9 96.1C216.9 89.9 221.1 84.7 227.1 84.7C231 84.7 233.6 86.9 233.6 86.9L233.9 85.9C234.1 85.5 234.4 85.1 234.9 85.1H235.6C236.2 85.1 236.7 85.6 236.7 86.1L236.6 107.2ZM227.6 104.3C230.6 104.3 233.1 102.5 233.1 102.5V90.6C233.1 90.6 230.9 88 227.3 88C223 88 220.3 91.9 220.3 96.1C220.3 100.8 223.4 104.3 227.6 104.3Z" fill="black" />
    <path d="M244 86.3C244 85.8 244.5 85.3 245 85.3H245.8C246.2 85.3 246.6 85.5 246.7 86.1L247.1 87.7C247.1 87.7 249.3 84.9 253.8 84.9C255.5 84.9 258.1 85.1 257.6 86.6L257 88.3C256.8 89 256.2 89.1 255.7 88.8C255.2 88.6 254.4 88.2 253.3 88.2C249.1 88.2 247.4 91 247.4 91V106C247.4 106.6 246.9 107 246.4 107H245C244.4 107 244 106.5 244 106V86.3Z" fill="black" />
    <path d="M270.7 84.8C276.4 84.8 280.6 89 280.6 94.7C280.6 95.1 280.6 95.6 280.5 96C280.5 96.6 280 96.9 279.5 96.9H263.6C263.7 100.5 266.8 104.4 270.7 104.4C273.6 104.4 275.4 103.4 276.6 102.6C277.4 102.1 277.7 101.9 278.3 102.7L278.9 103.5C279.3 104.2 279.5 104.4 278.7 105C277.4 106 274.5 107.5 270.7 107.5C264.1 107.5 260.1 102.3 260.1 96.1C260.1 90 264.1 84.8 270.7 84.8ZM277.1 94.2C277 91 274.5 88 270.7 88C267 88 264.1 90.8 263.7 94.2H277.1Z" fill="black" />
    <path d="M285.1 104.9C284.9 104.7 284.8 104.3 285 104L285.7 102.8C286 102.3 286.4 102.1 287 102.5C287.8 103.1 289.6 104.4 292.4 104.4C294.6 104.4 296.1 103.4 296.1 101.7C296.1 99.6 294.4 98.8 291.2 97.2C288.3 95.8 285 94.2 285 90.5C285 88.2 286.7 84.8 291.8 84.8C294.6 84.8 297 85.7 298 86.5C298.5 86.9 298.6 87.3 298.2 88L297.7 88.9C297.4 89.5 296.7 89.6 296.2 89.3C295.3 88.7 293.7 88 291.7 88C289.3 88 288.5 89.4 288.5 90.4C288.5 92.3 290 93 292.7 94.3C296.5 96 299.7 97.5 299.7 101.4C299.7 104.8 296.7 107.6 292.3 107.6C288.7 107.6 286.3 106 285.1 104.9Z" fill="black" />
    <path d="M307.5 101.3C309.2 101.3 310.6 102.7 310.6 104.4C310.6 106.1 309.2 107.6 307.5 107.6C305.8 107.6 304.4 106.1 304.4 104.4C304.4 102.7 305.8 101.3 307.5 101.3Z" fill="black" />
    <path d="M320.4 109.4C320.4 115.3 317.8 118 314.2 118.7C313.7 118.8 313.4 118.6 313.2 118.1L312.7 116.7C312.5 116 312.8 115.6 313.4 115.4C315.6 114.6 316.9 113.4 316.9 109.6V86.3C316.9 85.7 317.4 85.3 317.9 85.3H319.3C319.8 85.3 320.3 85.7 320.3 86.3V109.4H320.4ZM316 77.1C316 75.6 317.1 74.5 318.6 74.5C320 74.5 321.1 75.6 321.1 77.1C321.1 78.5 320 79.6 318.6 79.6C317.1 79.6 316 78.4 316 77.1Z" fill="black" />
    <path d="M326.6 104.9C326.4 104.7 326.3 104.3 326.5 104L327.2 102.8C327.5 102.3 327.9 102.1 328.5 102.5C329.3 103.1 331.1 104.4 333.9 104.4C336.1 104.4 337.6 103.4 337.6 101.7C337.6 99.6 335.9 98.8 332.7 97.2C329.8 95.8 326.5 94.2 326.5 90.5C326.5 88.2 328.2 84.8 333.3 84.8C336.1 84.8 338.5 85.7 339.5 86.5C340 86.9 340.1 87.3 339.7 88L339.2 88.9C338.9 89.5 338.2 89.6 337.7 89.3C336.8 88.7 335.2 88 333.2 88C330.8 88 330 89.4 330 90.4C330 92.3 331.5 93 334.2 94.3C338 96 341.2 97.5 341.2 101.4C341.2 104.8 338.2 107.6 333.8 107.6C330.2 107.6 327.8 106 326.6 104.9Z" fill="black" />
</svg>
