<svg xmlns="http://www.w3.org/2000/svg" viewBox="0 0 80 80">
  <path fill="#fff" d="M0 0h80v80H0z"/>
  <path d="M52.51 47.95c-.38 0-.76-.19-1-.57-.33-.57-.19-1.28.38-1.67l2.33-1.48h.05c1.24-.71 2.05-2.09 2.05-3.52V25.34c0-1.43-.76-2.81-2.05-3.52h-.05l-13.28-8.28c-.57-.33-1.09-.1-1.28 0-.19.1-.67.48-.67 1.14v17.37c0 1.28.67 2.43 1.71 3.09 1.09.67 2.38.71 3.52.14l3.28-1.62c.57-.29 1.28-.05 1.62.52.29.57.05 1.28-.52 1.62l-3.28 1.62c-1.86.95-4.05.86-5.85-.29-1.76-1.09-2.86-3-2.86-5.09V14.69c0-1.33.71-2.52 1.86-3.19 1.14-.67 2.52-.67 3.71 0h.05l13.28 8.28c2 1.14 3.19 3.28 3.19 5.57v15.42c0 2.28-1.24 4.43-3.19 5.57l-2.33 1.48c-.24.1-.43.14-.67.14Z"/>
  <path d="M35.29 53.86c-.62 0-1.24-.14-1.81-.48L22.2 47c-2.14-1.24-3.52-3.57-3.52-6.09v-10.8c0-3.19 1.71-6.14 4.43-7.71l7.95-4.66c.57-.33 1.28-.14 1.62.43.33.57.14 1.28-.43 1.62l-7.95 4.66c-2 1.14-3.24 3.33-3.24 5.66v10.8c0 1.67.9 3.19 2.28 4l11.28 6.38c.57.33 1.09.1 1.28 0 .19-.1.62-.43.62-1.09v-8.14c0-.67.52-1.19 1.19-1.19s1.19.52 1.19 1.19v8.14c0 1.33-.67 2.52-1.81 3.19-.52.33-1.19.48-1.81.48Zm17.32-20.42c.66 0 1.19-.53 1.19-1.19s-.53-1.19-1.19-1.19-1.19.53-1.19 1.19.53 1.19 1.19 1.19ZM11.84 57.39c0-.13.11-.24.24-.24h2.75c1.54 0 2.81 1.24 2.81 2.75s-1.27 2.81-2.78 2.81h-2.07v2.94c0 .13-.11.24-.24.24h-.48c-.13 0-.24-.11-.24-.24v-8.26Zm2.93 4.43c1.03 0 1.91-.77 1.91-1.91s-.87-1.8-1.91-1.8h-1.99v3.71h1.99Zm6.52-1.8c1.59 0 2.91 1.38 2.91 2.99s-1.3 3.05-2.91 3.05-2.91-1.38-2.91-3.05 1.3-2.99 2.91-2.99Zm0 5.19c1.14 0 1.99-1.01 1.99-2.2s-.85-2.17-1.99-2.17-1.99.98-1.99 2.17.85 2.2 1.99 2.2Zm4.18.13c-.05-.05-.08-.16-.03-.24l.19-.32c.08-.13.19-.19.34-.08.21.16.69.5 1.43.5.58 0 .98-.26.98-.72 0-.56-.45-.77-1.3-1.19-.77-.37-1.64-.79-1.64-1.77 0-.61.45-1.51 1.8-1.51.74 0 1.38.24 1.64.45.13.11.16.21.05.4l-.13.24c-.08.16-.26.19-.4.11-.24-.16-.66-.34-1.19-.34-.64 0-.85.37-.85.64 0 .5.4.69 1.11 1.03 1.01.45 1.85.85 1.85 1.88 0 .9-.79 1.64-1.96 1.64-.98 0-1.62-.42-1.91-.72Zm4.98-4.4c-.19 0-.29-.13-.29-.26v-.24c0-.16.11-.26.29-.26h.77v-1.59c0-.16.13-.26.26-.26l.4-.03c.16 0 .26.13.26.26v1.62h1.69c.16 0 .29.11.29.26v.24c0 .16-.13.26-.29.26h-1.69v3.44c0 .61.19.82.5.82.53 0 .9-.21 1.14-.37.21-.13.29-.03.37.11l.11.26c.08.19.05.26-.11.37-.24.19-.85.45-1.62.45-1.11 0-1.32-.69-1.32-1.59v-3.5h-.77Zm10.01 5.01c0 1.99-1.22 2.7-2.52 2.7-.9 0-1.72-.48-2.01-.74a.242.242 0 0 1-.05-.34l.24-.37c.08-.13.24-.13.37 0 .32.26.82.61 1.46.61.9 0 1.62-.5 1.62-1.85v-.42s-.66.5-1.59.5c-1.59 0-2.73-1.35-2.73-3.02S36.36 60 37.95 60c1.03 0 1.72.58 1.72.58l.08-.26c.05-.11.13-.21.26-.21h.19c.16 0 .29.13.29.26l-.03 5.59Zm-2.38-.77c.79 0 1.46-.48 1.46-.48v-3.15s-.58-.69-1.54-.69c-1.14 0-1.85 1.03-1.85 2.15 0 1.24.82 2.17 1.93 2.17Zm4.34-4.77c0-.13.13-.26.26-.26h.21c.11 0 .21.05.24.21l.11.42s.58-.74 1.77-.74c.45 0 1.14.05 1.01.45l-.16.45c-.05.19-.21.21-.34.13-.13-.05-.34-.16-.64-.16-1.11 0-1.56.74-1.56.74v3.97c0 .16-.13.26-.26.26h-.37c-.16 0-.26-.13-.26-.26V60.4Zm7.07-.39c1.51 0 2.62 1.11 2.62 2.62 0 .11 0 .24-.03.34 0 .16-.13.24-.26.24h-4.21c.03.95.85 1.99 1.88 1.99.77 0 1.24-.26 1.56-.48.21-.13.29-.19.45.03l.16.21c.11.19.16.24-.05.4-.34.26-1.11.66-2.12.66-1.75 0-2.81-1.38-2.81-3.02s1.06-2.99 2.81-2.99Zm1.7 2.49c-.03-.85-.69-1.64-1.69-1.64s-1.75.74-1.85 1.64h3.55Zm2.12 2.83c-.05-.05-.08-.16-.03-.24l.19-.32c.08-.13.19-.19.34-.08.21.16.69.5 1.43.5.58 0 .98-.26.98-.72 0-.56-.45-.77-1.3-1.19-.77-.37-1.64-.79-1.64-1.77 0-.61.45-1.51 1.8-1.51.74 0 1.38.24 1.64.45.13.11.16.21.05.4l-.13.24c-.08.16-.26.19-.4.11-.24-.16-.66-.34-1.19-.34-.64 0-.85.37-.85.64 0 .5.4.69 1.11 1.03 1.01.45 1.85.85 1.85 1.88 0 .9-.79 1.64-1.96 1.64-.95 0-1.59-.42-1.91-.72Zm5.93-2c.45 0 .82.37.82.82s-.37.85-.82.85-.82-.4-.82-.85.37-.82.82-.82Zm3.42 3.19c0 1.56-.69 2.28-1.64 2.46-.13.03-.21-.03-.26-.16l-.13-.37c-.05-.19.03-.29.19-.34.58-.21.93-.53.93-1.54v-6.17c0-.16.13-.26.26-.26h.37c.13 0 .26.11.26.26v6.12h.03Zm-1.17-8.55c0-.4.29-.69.69-.69.37 0 .66.29.66.69 0 .37-.29.66-.66.66a.68.68 0 0 1-.69-.66Zm2.81 7.36c-.05-.05-.08-.16-.03-.24l.19-.32c.08-.13.19-.19.34-.08.21.16.69.5 1.43.5.58 0 .98-.26.98-.72 0-.56-.45-.77-1.3-1.19-.77-.37-1.64-.79-1.64-1.77 0-.61.45-1.51 1.8-1.51.74 0 1.38.24 1.64.45.13.11.16.21.05.4l-.13.24c-.08.16-.26.19-.4.11-.24-.16-.66-.34-1.19-.34-.64 0-.85.37-.85.64 0 .5.4.69 1.11 1.03 1.01.45 1.85.85 1.85 1.88 0 .9-.79 1.64-1.96 1.64-.95 0-1.59-.42-1.91-.72Z"/>
</svg>