<svg xmlns="http://www.w3.org/2000/svg" preserveAspectRatio="xMidYMid" viewBox="0 0 256 330"><g fill-opacity=".9"><path fill="#6CCB94" d="M18.8 0 0 91.5l53.8 50.7-35 62.3L90 329.7h77.8l71.4-125.2-35.2-62.3 52-50.7L238.6 0l-73.1 97.4H92.4L18.8 0Z"/><path fill="#5DBD85" d="m18.8 204.5 35-62.3 75 62.3h-110Z"/><path fill="#64C48C" d="m53.8 142.2 75 62.3-36.4-107-38.6 44.7Z"/><path fill="#6ECC95" d="M239.1 204.5 204 142.2l-75 62.3h110Z"/><path fill="#5EBE86" d="M90 329.7h77.7l-38.9-125.2L90 329.7Z"/><path fill="#76D29C" d="m203.9 142.2-75 62.3 36.7-107 38.3 44.7Z"/><path fill="#74D09B" d="m238.7 0 17.1 91.5-52 50.7-38.2-44.8L238.7 0Z"/><path fill="#64C48C" d="m128.8 204.5 39 125.2L239 204.5H128.8Z"/><path fill="#58B880" d="M128.8 204.5 90 329.7 19 204.5h110Z"/><path fill="#5FBF87" d="M18.8 0 0 91.5l53.8 50.7 38.6-44.8L18.8 0Z"/><path fill="#6ECC95" d="m128.8 204.5 36.8-107H92.4l36.4 107Z"/></g></svg>
