<svg width="1491" height="887" viewBox="0 0 1491 887" fill="none" xmlns="http://www.w3.org/2000/svg">
<path d="M233 1.66666C201.933 4.59999 173.267 15.9333 150.867 33.9333C121.667 57.5333 102.733 94.3333 94.8667 143C93.1333 154.2 92.4667 171.4 91.6667 229.667C90.7333 308.2 90.2 313.267 82.7333 334.067C77.1333 349.933 69.6666 361.267 56.4666 374.333C46.7333 384.067 41.9333 387.667 32.0666 392.733C25.2666 396.2 15.2666 400.2 10.0666 401.533L0.333313 404.067V437.133V470.2L9.66665 472.467C41.8 480.6 70.8667 507.133 82.3333 538.867C90.4667 561.133 90.6 561.8 91.6667 649.667C92.6 731.133 93 738.467 98.3333 762.333C101.4 776.6 106.867 792.2 113.267 805.4C132.867 845.8 165.267 871.533 209.8 882.467C222.333 885.533 227.267 886.067 245.667 886.2L267 886.333V856.333V826.333L251.667 825.533C207.133 823.267 177.533 796.333 165 746.733C159.4 724.6 158.333 704.467 158.333 624.2C158.333 548.6 157.933 542.6 150.2 519.667C138.733 485.533 115.133 458.2 83.2667 442.467C77.5333 439.667 73 437.267 73 437C73 436.733 77.6667 434.067 83.4 431C103.933 420.333 122.333 403.533 135.4 383.667C143.533 371.267 149.4 357.8 154.067 340.467L157.533 327.667L158.467 248.333C159.4 165.133 160.067 155.667 166.067 135C172.867 112.2 181.667 96.8667 195.8 83.8C211.533 69.2667 228.467 62.7333 254.733 60.8667L267.667 59.9333L267.4 30.4667L267 0.999995L255.667 0.866661C249.4 0.733328 239.267 1.13333 233 1.66666Z" fill="#00003B"/>
<path d="M1223.67 30.2V59.9333L1236.73 60.8666C1254.47 62.0666 1264.87 64.7333 1277.27 71.1333C1300.2 83.1333 1315.8 103.667 1324.33 133.267C1330.87 155.533 1331.67 166.2 1331.67 238.067C1331.67 308.067 1332.47 321.933 1337.67 342.467C1347.4 380.733 1375 414.867 1410.6 432.6C1414.87 434.733 1418.33 436.867 1418.33 437.133C1418.33 437.4 1415 439.133 1411 440.867C1393.93 448.467 1371.53 466.6 1360.33 481.8C1348.87 497.267 1340.33 516.733 1335.53 538.467C1332.73 551 1332.6 555.933 1331.67 639.667C1330.73 721.8 1330.6 728.467 1327.93 739.667C1317.53 785.4 1297.93 809.8 1261.67 822.333C1257.4 823.8 1249.27 825 1239.4 825.4L1223.67 825.933V856.467V887H1240.07C1284.73 887 1321.67 873 1349.13 845.667C1372.6 822.333 1386.87 793.4 1394.2 754.333C1398.87 729.267 1399.67 714.067 1399.67 647.133C1399.67 610.6 1400.33 577.4 1401 571C1405.13 537.267 1419.8 509.4 1442.6 491.933C1453.8 483.4 1472.33 474.2 1483 471.933L1490.33 470.467L1490.07 437.267L1489.67 404.067L1479.67 401C1467 397.267 1461 394.6 1451.8 388.733C1430.87 375.267 1416.47 357 1408.2 333.533C1400.73 312.467 1400.73 311.533 1399.67 232.333C1398.6 155 1398.2 147.933 1391.8 121.133C1377.4 60.7333 1339.27 20.3333 1283.67 6.33329C1270.47 2.99995 1248.07 0.333287 1232.73 0.333287H1223.67V30.2Z" fill="#00003B"/>
<path d="M671 95.5333C627 112.6 539.133 146.733 475.667 171.267C412.2 195.933 338.333 224.6 311.267 235C284.333 245.533 262.467 254.333 262.867 254.6C263.133 254.867 272.867 258.6 284.467 262.867C296.2 267.133 323.133 277.133 344.333 285C402.6 306.6 448.067 323.4 477.667 334.333C492.333 339.8 524.733 351.8 549.667 361C574.6 370.333 607 382.333 621.667 387.667C636.333 393.133 671.133 405.933 699 416.2C726.733 426.6 750.333 435 751.133 435C752.733 435 764.867 430.6 823 409C858.333 395.933 899.4 380.733 956.333 359.667C975.4 352.6 1004.6 341.8 1021.4 335.667C1038.07 329.4 1065.67 319.267 1082.73 312.867C1099.67 306.6 1124.73 297.4 1138.33 292.333C1151.93 287.267 1178.6 277.4 1197.67 270.333C1216.73 263.4 1234.2 256.867 1236.6 255.933C1240.73 254.333 1237.8 253.133 1147.27 218.067C1095.8 198.067 1004.73 162.867 945 139.533C885.267 116.333 831.267 95.4 825 93C818.733 90.7333 800.2 83.5333 783.667 77C767.133 70.6 753.133 65.1333 752.333 64.8666C751.667 64.6 715 78.4666 671 95.5333Z" fill="#0066C8"/>
<path d="M324.333 359.133C307.533 365.667 286.6 373.8 277.8 377.267C267.533 381.267 262.6 383.667 263.8 384.333C264.867 385 274.067 388.467 284.333 392.333C294.6 396.067 316.867 404.333 333.667 410.6C350.6 416.733 372.467 424.867 382.333 428.6C392.2 432.2 413.8 440.2 430.333 446.333C459.533 457.133 481.933 465.4 533 484.333C546.6 489.4 573.267 499.267 592.333 506.333C629 519.8 658.467 530.733 714.733 551.667C733.667 558.6 750.067 564.333 751.267 564.333C752.467 564.333 768.2 558.867 786.2 552.2C804.2 545.4 834.067 534.467 852.333 527.667C870.733 520.867 916.867 503.8 955 489.667C993.133 475.533 1031.27 461.4 1039.67 458.333C1053.13 453.4 1138.47 421.8 1215.4 393.267C1233.13 386.733 1240.33 383.533 1238.73 382.867C1228.47 378.867 1161.27 352.733 1154.73 350.2L1146.47 346.867L1128.73 353.533C1100.47 363.933 999.267 401.4 980.333 408.333C970.867 411.8 949.8 419.667 933.667 425.667C898.467 438.733 857.267 453.933 807.667 472.333C787.533 479.667 766.467 487.533 761 489.667L751.133 493.4L744.333 490.733C740.733 489.267 725.667 483.667 711 478.333C687.667 469.8 491.533 397.133 459 385C452.467 382.6 438.6 377.4 428.333 373.667C418.067 369.933 397.667 362.333 383.133 356.867C368.6 351.4 356.2 347 355.8 347.133C355.4 347.133 341.267 352.6 324.333 359.133Z" fill="#004A92"/>
<path d="M324.333 488.467C307.533 495 286.6 503.133 277.933 506.6C266.6 511 262.6 513.133 264.067 513.933C265.133 514.467 276.467 518.867 289.267 523.533C301.933 528.2 323.133 536.067 336.333 541C349.533 545.933 368.2 552.867 377.667 556.333C387.267 559.8 426.2 574.2 464.333 588.333C502.467 602.467 548.733 619.533 567 626.333C683.533 669.4 739.267 690.067 744.733 692.2L751 694.6L775.667 685.533C789.267 680.467 813.267 671.533 829 665.8C844.733 659.933 891.933 642.467 933.667 627C975.533 611.4 1013.53 597.4 1018.33 595.667C1023.13 593.933 1036.6 589 1048.33 584.6C1085.13 570.867 1207.67 525.533 1224.2 519.533C1232.87 516.333 1240.33 513.533 1240.47 513.267C1240.73 513 1219.67 504.6 1193.67 494.6L1146.33 476.333L1077.4 501.8C1039.4 515.8 993.4 532.867 975 539.667C934.2 554.733 812.467 599.8 777 613L751 622.6L744.333 620.067C740.733 618.6 706.733 606.067 669 592.067C631.267 578.067 590.733 563.133 579 558.733C567.267 554.333 552.333 548.867 545.667 546.467C539.133 544.067 502.467 530.467 464.333 516.333C362.067 478.467 356.333 476.333 355.667 476.467C355.267 476.467 341.267 481.933 324.333 488.467Z" fill="#002D6D"/>
<path d="M309 623.667C283.667 633.533 262.467 641.8 261.8 642.067C261.133 642.2 280.733 649.8 305.133 658.867C329.667 667.933 364.733 680.867 383 687.667C401.4 694.467 491.4 727.8 583 761.667C674.733 795.667 750.6 823.4 751.667 823.267C752.733 823.267 792.733 808.733 840.333 791C888.067 773.267 939 754.467 953.667 749C968.333 743.667 1009.4 728.467 1045 715.267C1080.6 702.067 1118.07 688.2 1128.33 684.333C1157 673.8 1206.47 655.533 1224.73 648.733C1233.67 645.4 1240.87 642.467 1240.73 642.333C1239 640.6 1148.87 606.6 1146.33 606.6C1144.47 606.6 1131.27 611 1117 616.333C1102.73 621.667 1084.07 628.6 1075.67 631.667C1067.27 634.733 1046.6 642.467 1029.67 648.6C1012.87 654.867 967.8 671.533 929.667 685.667C757.667 749.4 753.267 751 751.133 751C749.267 751 735.933 746.2 601.667 696.333C565.8 683 524.333 667.8 509.667 662.333C495 657 454.467 641.933 419.667 629.133C384.867 616.2 356.067 605.667 355.667 605.667C355.267 605.8 334.333 613.8 309 623.667Z" fill="#00003B"/>
</svg>
