<svg xmlns="http://www.w3.org/2000/svg" viewBox="0 0 64 64"><style>.D{fill:#2f406a}.E{fill:#2379bd}.F{fill:#03afef}</style><path d="M51.73 20.41V43.5L32.14 54.97l-.18.17v8.7l.18.16 27.59-15.94V15.93h-.27l-7.77 4.35v.18" class="D"/><path d="m12.48 43.65 19.7 11.4V64L4.35 48V16h.28l7.76 4.51.08.27v22.97" class="E"/><path d="M12.48 20.73 4.28 16l27.8-16 27.65 15.93-8 4.48-19.69-11.2-19.6 11.48" class="F"/><path d="m31.8 41.01-.22-.21v-8.65l.22-.12v-.2l7.41-4.34h.23v8.93l-7.7 4.56" class="D"/><path d="M23.97 36.74v-9.27h.21l7.55 4.4v9.15l-7.83-4.28" class="E"/><path d="m31.66 22.93-7.7 4.56L31.8 32l7.7-4.5-7.84-4.62" class="F"/><path d="m22.21 46.67-.21-.21v-8.67l.21-.11v-.22l7.42-4.33h.23v8.93l-7.7 4.56" class="D"/><path d="M14.38 42.39v-9.27h.22l7.55 4.4v9.15l-7.76-4.28" class="E"/><path d="m22.1 28.57-7.72 4.55 7.83 4.56 7.7-4.5-7.83-4.63" class="F"/><path d="m42.07 46.88-.22-.2V38l.22-.12v-.21l7.41-4.33h.24v8.92l-7.7 4.56" class="D"/><path d="M34.24 42.6v-9.27h.25l7.55 4.4v9.15L34.2 42.6" class="E"/><path d="m41.94 28.72-7.7 4.56 7.83 4.56 7.7-4.5-7.83-4.62" class="F"/><path d="m32.48 52.53-.2-.21v-8.67l.2-.11v-.22L39.9 39h.23v8.93l-7.7 4.56" class="D"/><path d="M24.64 48.25v-9.26h.21l7.55 4.4v9.16l-7.76-4.3" class="E"/><path d="m32.35 34.43-7.71 4.56 7.84 4.5 7.7-4.5-7.83-4.56" class="F"/><path d="m31.8 28.72-.22-.21v-8.64l.22-.11v-.22l7.41-4.33h.23v8.93l-7.64 4.58" class="D"/><path d="M23.97 24.47V15.2h.21l7.55 4.4v9.12l-7.83-4.28" class="E"/><path d="m31.66 10.67-7.7 4.56 7.84 4.56 7.7-4.5-7.84-4.62" class="F"/><path d="m22.21 34.38-.21-.21v-8.73l.21-.12v-.21l7.42-4.33h.23v8.92l-7.7 4.57" class="D"/><path d="M14.38 30.11v-9.27h.22l7.55 4.4v9.16l-7.76-4.29" class="E"/><path d="m22.1 16.3-7.72 4.54 7.83 4.6 7.7-4.5-7.83-4.63" class="F"/><path d="m42.07 34.6-.22-.22v-8.65l.22-.11v-.22l7.41-4.33h.24V30l-7.7 4.56" class="D"/><path d="M34.24 30.36v-9.3h.25L42 25.44v9.15l-7.76-4.23" class="E"/><path d="m41.94 16.51-7.7 4.56 7.83 4.56 7.7-4.5-7.83-4.62" class="F"/><path d="m32.48 40.2-.2-.2v-8.62l.2-.12v-.21l7.42-4.33h.23v8.92l-7.65 4.57" class="D"/><path d="M24.64 35.97V26.7h.21l7.55 4.4v9.1l-7.76-4.23" class="E"/><path d="m32.35 22.15-7.71 4.55 7.83 4.56 7.7-4.5-7.82-4.6" class="F"/></svg>
