<svg xmlns="http://www.w3.org/2000/svg" width="64" height="64"><style><![CDATA[.D{fill:#2f406a}.E{fill:#2379bd}.F{fill:#03afef}]]></style><path d="M51.733 20.414v23.073L32.14 54.974l-.18.164v8.697l.18.164 27.586-15.934v-32.13h-.263l-7.778 4.35v.18" class="D"/><path d="M12.48 43.65l19.692 11.405V64L4.357 48V16h.28l7.762 4.513.082.263V43.75" class="E"/><path d="M12.48 20.726L4.275 16l27.8-16 27.65 15.934-7.992 4.48L32.04 9.206 12.447 20.693" class="F"/><path d="M31.795 41.01l-.213-.213v-8.648l.213-.115v-.213l7.417-4.332h.23v8.927l-7.696 4.562" class="D"/><path d="M23.967 36.743V27.47h.213l7.55 4.398v9.157l-7.828-4.283" class="E"/><path d="M31.664 22.925l-7.696 4.562L31.795 32l7.696-4.496-7.828-4.628" class="F"/><path d="M22.21 46.67l-.213-.213v-8.665l.213-.115v-.213l7.417-4.332h.23v8.927l-7.696 4.562" class="D"/><path d="M14.384 42.388v-9.272h.213l7.55 4.398v9.157l-7.762-4.283" class="E"/><path d="M22.096 28.57l-7.713 4.546 7.828 4.562 7.696-4.496-7.828-4.628" class="F"/><path d="M42.068 46.884l-.213-.213v-8.665l.213-.115v-.213l7.417-4.332h.23v8.927l-7.696 4.562" class="D"/><path d="M34.24 42.6V33.33h.246l7.55 4.398v9.157L34.207 42.6" class="E"/><path d="M41.936 28.718L34.24 33.28l7.828 4.562 7.696-4.496-7.828-4.628" class="F"/><path d="M32.484 52.53l-.213-.213V43.65l.213-.115v-.213l7.417-4.332h.23v8.927l-7.696 4.562" class="D"/><path d="M24.64 48.246V38.99h.213l7.55 4.398v9.157l-7.762-4.3" class="E"/><path d="M32.353 34.43L24.64 38.99l7.844 4.496 7.696-4.496-7.828-4.562" class="F"/><path d="M31.795 28.718l-.213-.213v-8.632l.213-.115v-.213l7.417-4.332h.23v8.927l-7.647 4.578" class="D"/><path d="M23.967 24.468v-9.272h.213l7.55 4.398v9.124l-7.828-4.283" class="E"/><path d="M31.664 10.667l-7.696 4.562 7.828 4.562 7.696-4.496-7.828-4.628" class="F"/><path d="M22.21 34.38l-.213-.213v-8.73l.213-.115v-.213l7.417-4.332h.23v8.927l-7.696 4.562" class="D"/><path d="M14.384 30.113V20.84h.213l7.55 4.398v9.157l-7.762-4.283" class="E"/><path d="M22.096 16.295l-7.713 4.546 7.828 4.595 7.696-4.496-7.828-4.628" class="F"/><path d="M42.068 34.593l-.213-.213V25.73l.213-.115v-.213l7.417-4.332h.23v8.927l-7.696 4.562" class="D"/><path d="M34.24 30.36v-9.305h.246l7.516 4.382v9.157L34.24 30.36" class="E"/><path d="M41.936 16.51L34.24 21.07l7.828 4.562 7.696-4.496-7.828-4.628" class="F"/><path d="M32.484 40.205l-.213-.213v-8.615l.213-.115v-.213l7.417-4.332h.23v8.927l-7.647 4.562" class="D"/><path d="M24.64 35.97V26.7h.213l7.55 4.398v9.108L24.64 35.97" class="E"/><path d="M32.353 22.154L24.64 26.7l7.828 4.562 7.696-4.496-7.81-4.61" class="F"/></svg>
