<?xml version="1.0" encoding="UTF-8" standalone="no"?>
<svg
   viewBox="-10 0 81 81"
   fill="#ffffff"
   fill-rule="evenodd"
   stroke="#000000"
   stroke-linecap="round"
   stroke-linejoin="round"
   version="1.1"
   id="svg6"
   width="81"
   height="81"
   xmlns:xlink="http://www.w3.org/1999/xlink"
   xmlns="http://www.w3.org/2000/svg"
   xmlns:svg="http://www.w3.org/2000/svg">
  <use
     xlink:href="#A"
     x="0.5"
     y="0.5"
     id="use1" />
  <symbol
     id="A"
     overflow="visible">
    <g
       fill="#0072c6"
       stroke="none"
       id="g2">
      <path
         d="m 0,10.929 v 58.14 C 0,75.106 13.432,80 30,80 V 10.929 Z"
         id="path1" />
      <use
         xlink:href="#C"
         id="use2" />
    </g>
    <use
       xlink:href="#C"
       opacity="0.15"
       stroke="none"
       id="use3" />
    <path
       d="M 60,10.929 C 60,16.965 46.568,21.858 30,21.858 13.432,21.858 0,16.965 0,10.929 0,4.893 13.432,0 30,0 46.568,0 60,4.893 60,10.929"
       stroke="none"
       id="path3" />
    <path
       d="M 53.866,10.299 C 53.866,14.284 43.181,17.51 30,17.51 16.819,17.51 6.132,14.284 6.132,10.299 6.132,6.314 16.819,3.088 30,3.088 c 13.181,0 23.866,3.228 23.866,7.211"
       fill="#7fba00"
       stroke="none"
       id="path4" />
    <path
       d="m 48.867,14.707 c 3.124,-1.219 5.002,-2.745 5.002,-4.404 C 53.868,6.318 43.183,3.09 30,3.09 16.817,3.09 6.134,6.318 6.134,10.303 c 0,1.658 1.877,3.185 5.002,4.404 4.363,-1.704 11.182,-2.803 18.865,-2.803 7.683,0 14.5,1.099 18.866,2.803"
       fill="#b8d432"
       stroke="none"
       id="path5" />
    <path
       d="m 20.472,51.287 c 0,1.807 -0.651,3.206 -1.955,4.197 -1.304,0.991 -3.102,1.488 -5.399,1.488 -1.954,0 -3.587,-0.354 -4.899,-1.063 v -4.251 c 1.514,1.293 3.182,1.94 5.004,1.94 0.88,0 1.561,-0.177 2.041,-0.532 0.48,-0.355 0.72,-0.823 0.72,-1.409 0,-0.575 -0.231,-1.075 -0.693,-1.5 -0.462,-0.425 -1.402,-0.974 -2.819,-1.647 -2.888,-1.362 -4.331,-3.224 -4.331,-5.577 0,-1.708 0.629,-3.078 1.889,-4.11 1.26,-1.032 2.931,-1.547 5.016,-1.547 1.849,0 3.379,0.245 4.596,0.731 v 3.971 c -1.276,-0.886 -2.729,-1.328 -4.357,-1.328 -0.818,0 -1.465,0.174 -1.94,0.523 a 1.65,1.65 0 0 0 -0.712,1.401 c 0,0.602 0.191,1.096 0.575,1.481 0.384,0.385 1.168,0.861 2.356,1.428 1.77,0.842 3.03,1.695 3.784,2.563 0.754,0.868 1.125,1.95 1.125,3.241 z m 20.37,-4.302 c 0,2.24 -0.507,4.185 -1.519,5.83 -1.012,1.645 -2.438,2.801 -4.277,3.466 l 5.491,5.113 H 34.993 L 31.072,56.971 C 29.391,56.91 27.874,56.462 26.523,55.63 25.172,54.798 24.128,53.658 23.394,52.21 22.66,50.762 22.291,49.148 22.291,47.369 c 0,-1.974 0.398,-3.734 1.194,-5.279 0.796,-1.545 1.916,-2.734 3.36,-3.566 1.444,-0.832 3.097,-1.248 4.965,-1.248 1.741,0 3.302,0.403 4.68,1.209 1.378,0.806 2.446,1.951 3.208,3.439 0.762,1.488 1.144,3.175 1.144,5.06 z m -4.488,0.24 c 0,-1.931 -0.418,-3.455 -1.255,-4.576 -0.837,-1.121 -1.98,-1.681 -3.433,-1.681 -1.479,0 -2.662,0.562 -3.552,1.685 -0.89,1.123 -1.333,2.621 -1.333,4.489 0,1.86 0.435,3.344 1.306,4.455 0.871,1.111 2.028,1.666 3.472,1.666 1.471,0 2.636,-0.538 3.499,-1.613 0.863,-1.075 1.296,-2.55 1.296,-4.426 z m 18.893,9.414 H 43.972 V 37.596 h 4.264 V 53.16 h 7.01 z"
       stroke="none"
       id="path6" />
  </symbol>
  <defs
     id="defs6">
    <path
       id="C"
       d="M 29.589,79.999 H 30 c 16.568,0 30,-4.892 30,-10.929 V 10.93 H 29.589 V 80 Z" />
  </defs>
</svg>
