<svg xmlns="http://www.w3.org/2000/svg" xmlns:xlink="http://www.w3.org/1999/xlink" fill="none" viewBox="0 0 109 113"><path fill="url(#a)" d="M63.7 110.3a4.9 4.9 0 0 1-8.7-3l-1-67.2h45.2a9.8 9.8 0 0 1 7.7 15.8l-43.2 54.4Z"/><path fill="url(#b)" fill-opacity=".2" d="M63.7 110.3a4.9 4.9 0 0 1-8.7-3l-1-67.2h45.2a9.8 9.8 0 0 1 7.7 15.8l-43.2 54.4Z"/><path fill="#3ECF8E" d="M45.3 2A4.9 4.9 0 0 1 54 5l.5 67.3H9.8a9.8 9.8 0 0 1-7.6-15.9L45.3 2.1Z"/><defs><linearGradient id="a" x1="54" x2="94.2" y1="55" y2="71.8" gradientUnits="userSpaceOnUse"><stop stop-color="#249361"/><stop offset="1" stop-color="#3ECF8E"/></linearGradient><linearGradient id="b" x1="36.2" x2="54.5" y1="30.6" y2="65.1" gradientUnits="userSpaceOnUse"><stop/><stop offset="1" stop-opacity="0"/></linearGradient></defs></svg>
