<svg xmlns="http://www.w3.org/2000/svg" xmlns:xlink="http://www.w3.org/1999/xlink" preserveAspectRatio="xMidYMid" viewBox="0 0 256 299"><defs><linearGradient id="a" x1="31%" x2="69%" y1="11.7%" y2="88.3%"><stop offset="0%" stop-color="#FF00A0"/><stop offset="100%" stop-color="#9600FF"/></linearGradient></defs><path fill="url(#a)" d="m128 78.6 71.1 39.3v-15.7L128 62.9l-71.1 39.3 156.4 86.4v15.7L128 251.5a76503 76503 0 0 1-85.3-47.2v-47.1l85.3 47.1 14.2-7.9-113.8-62.8v78.6l99.6 55 99.5-55v-31.4L85.3 102.2 128 78.6Zm-99.6 7.8V118l142.2 78.6L128 220l-71.1-39.4v15.8l71 39.3a82053 82053 0 0 1 71.2-39.3L42.7 110V94.3L128 47l85.3 47.2v47.1l-85.3-47-14.2 7.9L227.5 165V86.4l-99.5-55-99.6 55ZM128 0 0 70.7V228l128 70.7L256 228V70.7L128 0Zm113.7 220L128 283 14.2 220V78.6L128 15.7l113.8 62.9V220Z"/></svg>
