<svg width="512" height="512" viewBox="0 0 512 512" fill="none" xmlns="http://www.w3.org/2000/svg">
<path d="M124.485 163.149C125.388 160.675 127.762 159 130.364 159H214.582C218.655 159 221.382 162.969 219.968 166.841L153.345 349.351C152.443 351.825 150.068 353.5 147.467 353.5H63.2485C59.1752 353.5 56.4488 349.531 57.8623 345.659L124.485 163.149Z" fill="#F43F5E"/>
<path d="M241.485 163.149C242.388 160.675 244.762 159 247.364 159H331.582C335.655 159 338.382 162.969 336.968 166.841L270.345 349.351C269.442 351.825 267.068 353.5 264.466 353.5H180.248C176.175 353.5 173.449 349.531 174.862 345.659L241.485 163.149Z" fill="#F43F5E"/>
<path d="M358.485 163.149C359.388 160.675 361.762 159 364.364 159H448.582C452.655 159 455.382 162.969 453.968 166.841L387.345 349.351C386.442 351.825 384.068 353.5 381.466 353.5H297.248C293.175 353.5 290.449 349.531 291.862 345.659L358.485 163.149Z" fill="#F43F5E"/>
</svg>
