<?xml version="1.0" encoding="UTF-8"?>
<svg width="256px" height="233px" viewBox="0 0 256 233" version="1.1" xmlns="http://www.w3.org/2000/svg" preserveAspectRatio="xMidYMid">
    <title>TypeORM</title>
    <g>
        <path d="M138.629836,32.2315678 C141.710631,32.2315678 144.217083,34.6906228 144.293476,37.7530165 L144.295269,37.897001 L144.295269,102.74232 C144.295269,105.823116 141.836214,108.329567 138.773821,108.405959 L138.629836,108.407754 L85.7540854,108.407754 C82.6732906,108.407754 80.1668387,105.948699 80.0904462,102.886305 L80.0886523,102.74232 L80.0886523,37.897001 C80.0886523,34.8162061 82.5477072,32.3097542 85.6101009,32.2333618 L85.7540854,32.2315678 L138.629836,32.2315678 Z M138.629836,34.7522468 L85.7540854,34.7522468 C84.0542689,34.7522468 82.6685766,36.0988966 82.6066143,37.7841596 L82.6044556,37.897001 L82.6044556,102.74232 C82.607082,104.442909 83.9551286,105.827867 85.6411916,105.889793 L85.7540854,105.89195 L138.629836,105.89195 C140.330425,105.889324 141.715384,104.541277 141.777309,102.855215 L141.779466,102.74232 L141.779466,37.897001 C141.776776,36.1594128 140.367426,34.7522468 138.629836,34.7522468 Z M93.3063711,92.6693556 L93.3063711,96.4430606 L89.5277905,96.4430606 L89.5277905,92.6693556 L93.3063711,92.6693556 Z M135.485082,92.6693556 L135.485082,96.4430606 L95.1980992,96.4430606 L95.1980992,92.6693556 L135.485082,92.6693556 Z M93.3063711,76.302007 L93.3063711,80.075712 L89.5277905,80.075712 L89.5277905,76.302007 L93.3063711,76.302007 Z M135.485082,76.302007 L135.485082,80.075712 L95.1980992,80.075712 L95.1980992,76.302007 L135.485082,76.302007 Z M93.3063711,60.5636092 L93.3063711,64.3373142 L89.5277905,64.3373142 L89.5277905,60.5636092 L93.3063711,60.5636092 Z M135.485082,60.5636092 L135.485082,64.3373142 L95.1980992,64.3373142 L95.1980992,60.5636092 L135.485082,60.5636092 Z M135.485082,46.0831131 L135.485082,49.8616937 L89.5277905,49.8616937 L89.5277905,46.0831131 L135.485082,46.0831131 Z" fill="#8E8F8F"></path>
        <path d="M138.629836,121.620597 L138.629836,121.659602 C141.695695,121.659528 144.195841,124.095618 144.292505,127.142755 L144.295269,127.28603 L144.295269,192.131349 C144.295269,195.212144 141.836214,197.718595 138.773821,197.794988 L138.629836,197.796783 L85.7540854,197.796783 C84.2515192,197.796783 82.810494,197.19989 81.7480192,196.137415 C80.7264088,195.115804 80.1352558,193.744204 80.0912937,192.304431 L80.0886523,192.131349 L80.0886523,127.28603 C80.0886523,124.205235 82.5477072,121.698783 85.6101009,121.622391 L85.7540854,121.620597 L138.629836,121.620597 Z M138.629836,124.141275 L85.7540854,124.141275 C84.0542689,124.141275 82.6685766,125.487925 82.6066143,127.173189 L82.6044556,127.28603 L82.6044556,192.131349 C82.607082,193.831938 83.9551286,195.216896 85.6411916,195.278822 L85.7540854,195.280979 L138.629836,195.280979 C140.323018,195.278412 141.704832,193.941679 141.776631,192.263243 L141.779466,192.150851 L141.779466,127.305532 C141.776835,125.605718 140.428037,124.222114 138.742681,124.162762 L138.629836,124.160778 L138.629836,124.141275 Z M93.3063711,182.073011 L93.3063711,185.851591 L89.5277905,185.851591 L89.5277905,182.073011 L93.3063711,182.073011 Z M135.485082,182.102265 L135.485082,185.822339 L95.1980992,185.822339 L95.1980992,182.102265 L135.485082,182.102265 Z M93.3063711,165.705662 L93.3063711,169.484243 L89.5277905,169.484243 L89.5277905,165.705662 L93.3063711,165.705662 Z M135.485082,165.734916 L135.485082,169.45499 L95.1980992,169.45499 L95.1980992,165.734916 L135.485082,165.734916 Z M93.3063711,149.972141 L93.3063711,153.745846 L89.5277905,153.745846 L89.5277905,149.972141 L93.3063711,149.972141 Z M135.485082,150.001393 L135.485082,153.716592 L95.1980992,153.716592 L95.1980992,150.001393 L135.485082,150.001393 Z M135.485082,135.491644 L135.485082,139.270225 L89.5277905,139.270225 L89.5277905,135.491644 L135.485082,135.491644 Z" fill="#8E8F8F"></path>
        <polygon fill="#8E8F8F" points="153.878566 70.3196606 153.878566 73.4644148 172.761718 73.4644148 172.761718 158.994672 153.878566 158.994672 153.878566 162.144302 172.761718 162.144302 175.911348 162.144302 175.911348 158.994672 175.911348 73.4644148 175.911348 70.3196606 172.761718 70.3196606"></polygon>
        <path d="M19.3317061,14.7950419 C23.0552622,8.68840981 29.1886881,5.12618413 35.384627,3.05774285 L36.2296948,2.78484301 L36.2296948,2.78484301 L37.0742148,2.52986913 C37.4961174,2.40676502 37.9173187,2.29016115 38.3370744,2.17972451 L39.1744383,1.96697554 C39.3136042,1.93285498 39.4525544,1.89939501 39.5912614,1.86658328 L40.4203634,1.67739321 C40.557987,1.64712514 40.6953123,1.61748064 40.8323116,1.5884474 L41.6501757,1.42148421 L41.6501757,1.42148421 L42.4588945,1.26859892 L42.4588945,1.26859892 L43.2571452,1.12919954 L43.2571452,1.12919954 L44.0436053,1.00269404 L44.0436053,1.00269404 L44.8169519,0.888490411 L44.8169519,0.888490411 L45.5758624,0.785996648 L45.5758624,0.785996648 L46.319014,0.694620736 L46.319014,0.694620736 L47.0450841,0.613770667 L47.0450841,0.613770667 L47.75275,0.542854428 L47.75275,0.542854428 L48.7768475,0.453810978 L48.7768475,0.453810978 L49.7520952,0.383788586 L49.7520952,0.383788586 L50.674029,0.330789216 L50.674029,0.330789216 L51.6762801,0.287806232 L51.6762801,0.287806232 L52.5928,0.262101114 L52.5928,0.262101114 L53.1526843,0.252996363 L53.6692148,0.249220435 L54.1402912,0.249220435 L54.7570846,0.256924863 L55.1053364,0.264396594 L55.740347,0.285825023 L56.0205051,0.299919021 L56.0205051,15.4142415 C42.6522827,14.1422514 36.6873982,18.1797257 34.0569331,22.4828946 L33.8199716,22.8869412 C33.4788101,23.4937168 33.2010736,24.1026298 32.9754466,24.6996537 L32.8326244,25.0957544 C32.810066,25.1614263 32.7881198,25.2269129 32.7667704,25.2921951 L32.6457111,25.6812801 L32.6457111,25.6812801 L32.5382291,26.0645336 L32.5382291,26.0645336 L32.4435793,26.441032 C32.4288323,26.5031675 32.4145889,26.5649831 32.4008337,26.6264595 L32.3240353,26.9910936 C32.3121704,27.0511363 32.3007626,27.1108013 32.2897963,27.1700695 L32.229173,27.5207614 L32.229173,27.5207614 L32.1784017,27.8610041 L32.1784017,27.8610041 L32.1367375,28.189874 L32.1367375,28.189874 L32.0896872,28.6598347 L32.0896872,28.6598347 L32.0589368,29.0990117 L32.0589368,29.0990117 L32.0438141,29.4433764 L32.0369974,29.761726 L32.0369756,30.0521875 L32.0422376,30.3128875 L32.0512723,30.541953 L32.0685923,30.8221391 L32.1008709,31.1526394 L32.1003832,36.7052464 L32.0678395,48.0418091 L32.0283083,56.2112226 L31.9820424,63.0835976 L31.9313692,68.8912407 L31.8820983,73.4642812 L31.8240754,77.9155176 L31.7645429,81.7107409 L31.6879327,85.7321846 L31.6406976,87.8270001 L31.5899603,89.806403 L31.5242707,92.0116695 L31.5011735,92.7020611 L31.4988676,93.9780379 L31.49197,94.759406 L31.4833551,95.2865023 L31.4623447,96.0851935 L31.4623447,96.0851935 L31.430899,96.8565989 L31.430899,96.8565989 L31.4054106,97.326812 L31.4054106,97.326812 L31.3744026,97.7989139 L31.3744026,97.7989139 L31.3373343,98.2725822 L31.3373343,98.2725822 L31.2691851,98.9853163 L31.2691851,98.9853163 L31.214599,99.4614901 L31.214599,99.4614901 L31.1520593,99.9381017 L31.1520593,99.9381017 L31.0810249,100.414829 C31.0684479,100.494275 31.0554944,100.573713 31.0421531,100.653135 L30.9573624,101.129431 C30.9424251,101.208765 30.9270775,101.28807 30.9113083,101.36734 L30.8115443,101.842479 L30.8115443,101.842479 L30.7011218,102.316444 L30.7011218,102.316444 L30.5795001,102.788912 C30.5370328,102.946116 30.4926088,103.103017 30.446138,103.259562 L30.3004947,103.728069 L30.3004947,103.728069 L30.1420292,104.194113 L30.1420292,104.194113 L29.9702006,104.657371 C28.0343873,109.65974 23.6508822,114.114848 13.72478,116.178017 C23.3809169,118.18287 27.7918403,122.447798 29.8067501,127.278597 L29.9914932,127.740329 C30.1691745,128.203664 30.3259436,128.671644 30.4642619,129.142806 L30.596521,129.614973 C30.6807151,129.930386 30.7570734,130.246996 30.8263252,130.564369 L30.9249642,131.040948 C30.9405461,131.120455 30.9557067,131.199996 30.9704572,131.279565 L31.0541321,131.757252 L31.0541321,131.757252 L31.1285146,132.23527 L31.1285146,132.23527 L31.1941516,132.713296 L31.1941516,132.713296 L31.2515901,133.191003 L31.2515901,133.191003 L31.3013771,133.668066 L31.3013771,133.668066 L31.3440594,134.144161 L31.3440594,134.144161 L31.380184,134.618962 L31.380184,134.618962 L31.4232717,135.328025 L31.4232717,135.328025 L31.445395,135.798168 L31.445395,135.798168 L31.472483,136.585849 L31.472483,136.585849 L31.4844937,137.10635 L31.4925744,137.622616 L31.4990305,138.388058 L31.5011735,139.658849 L31.5686768,141.872311 L31.629028,144.209873 L31.6846401,146.716404 L31.7357113,149.370218 L31.7898197,152.623558 L31.8636627,157.998532 L31.9146557,162.553637 L31.9395881,165.116183 L31.9931777,171.66212 L32.0511436,181.373756 L32.0911196,191.885458 L32.1057464,191.876394 L32.1057464,201.198518 L32.0907765,201.330548 L32.073468,201.529019 L32.0616077,201.707121 L32.0471132,202.03827 L32.0471132,202.03827 L32.0418512,202.29897 L32.0418729,202.589433 L32.0486896,202.907782 L32.0638123,203.252147 L32.0940769,203.685566 L32.0940769,203.685566 L32.1229144,203.99139 L32.1229144,203.99139 L32.1809551,204.473222 L32.1809551,204.473222 L32.2305509,204.808543 L32.2305509,204.808543 L32.289705,205.154108 L32.289705,205.154108 L32.3591345,205.509028 C32.3716022,205.568911 32.3845279,205.629147 32.3979266,205.689718 L32.4841137,206.057002 C32.499464,206.118835 32.5153171,206.180965 32.531688,206.243374 L32.6362463,206.621024 L32.6362463,206.621024 L32.7539483,207.004472 C32.7747005,207.068814 32.7960302,207.13336 32.8179523,207.198093 L32.9567146,207.588572 C33.0054183,207.719377 33.0566114,207.850779 33.1104135,207.982628 L33.279766,208.379372 C35.3792169,213.086568 40.9172111,218.171563 55.2408281,217.006198 L56.0253807,216.936916 L56.0253807,232.051239 L55.623915,232.07042 L54.8799408,232.092202 L54.2678598,232.102534 L53.5409604,232.102534 L53.5409604,232.102534 L52.9963924,232.096563 L52.4065236,232.085371 L51.7736458,232.067213 L50.9516976,232.034369 L50.9516976,232.034369 L50.3724805,232.005036 L50.3724805,232.005036 L49.7696752,231.969121 L49.7696752,231.969121 L49.1444929,231.926082 L49.1444929,231.926082 L48.4981449,231.875374 L48.4981449,231.875374 L47.8318426,231.816457 L47.8318426,231.816457 L47.1467971,231.748786 L47.1467971,231.748786 L46.4442198,231.67182 L46.4442198,231.67182 L45.7253219,231.585015 L45.7253219,231.585015 L44.9913147,231.487829 C44.8677884,231.470736 44.7436829,231.453188 44.6190237,231.435173 L43.8646236,231.321398 C43.7378499,231.301472 43.6105727,231.281057 43.4828175,231.260142 L42.71075,231.128556 C42.581183,231.105594 42.4511884,231.082109 42.3207914,231.058089 L41.5337818,230.907471 C41.4018759,230.881269 41.2696181,230.85451 41.1370335,230.827183 L40.3378071,230.656312 L40.3378071,230.656312 L39.5319503,230.47126 C39.2623609,230.407153 38.9918683,230.340591 38.7206744,230.271485 L37.9051906,230.056444 C30.4143373,228.013608 22.545787,223.97822 18.4979805,216.069062 C19.3755864,206.347139 23.3735685,198.05864 30.5553095,192.900268 C30.8933502,192.661906 31.2357248,192.430767 31.5824333,192.206851 L31.9738322,191.958244 C31.4877607,192.258793 31.0100441,192.57605 30.5406827,192.910019 C23.3735685,198.05864 19.3755864,206.347139 18.4979805,216.030057 C16.6960694,212.391696 15.7520391,208.388742 15.7383978,204.328646 L15.648331,200.161624 L15.531349,195.110485 L15.38496,189.197831 L15.1856357,181.66196 L15.0026764,175.126009 L14.7506673,166.568534 L14.4665899,157.40264 L13.9914809,142.978856 L13.8759232,139.63447 C13.5947923,132.062474 10.5555097,128.374206 7.3925969,126.593775 L7.02007802,126.392996 C6.95794944,126.36096 6.89581304,126.329627 6.8336887,126.298984 L6.46124612,126.12327 C6.33725272,126.067374 6.2134664,126.014115 6.09004605,125.963372 L5.72104178,125.818576 C5.59851225,125.772748 5.47650758,125.729318 5.35518664,125.688167 L4.99343391,125.571429 C4.87363933,125.534716 4.75468737,125.500162 4.63673691,125.467648 L4.35395898,125.393042 L4.07557094,125.325995 L3.80206989,125.266131 L3.53395288,125.213081 L3.14295983,125.145462 L3.14295983,125.145462 L2.89047767,125.10781 L2.64511932,125.075666 L2.29152632,125.03696 L2.29152632,125.03696 L1.98011413,125.035425 L1.34304679,125.027749 C1.01933903,125.023911 0.687443681,125.021609 0.345441801,125.027749 L0,125.03696 L0,107.323949 C0.828849945,107.353203 1.56993931,107.338576 2.29152632,107.299572 L2.64511932,107.260865 L2.89047767,107.228721 L3.14295983,107.191069 L3.53395288,107.123451 L3.53395288,107.123451 L3.80206989,107.070399 L4.07557094,107.010536 L4.35395898,106.943489 L4.63673691,106.868883 L4.99343391,106.765102 L4.99343391,106.765102 L5.35518664,106.648365 L5.35518664,106.648365 L5.72104178,106.517955 C9.39692769,105.14312 13.545181,101.610292 13.8759232,92.7020611 L14.3069361,79.8926105 L14.6387201,69.4282873 L14.8188934,63.4897124 L15.0945361,53.9635476 L15.2754209,47.3378285 L15.4064222,42.2911082 L15.5713181,35.5343987 L15.6669243,31.3331893 L15.7383978,28.0030095 C15.8480444,22.7542766 17.1416618,18.4937399 19.1953824,15.0345329 L19.3326812,14.8060558 L19.3317061,14.7950419 Z M199.974619,15.1655865 L199.974619,0.0512640376 L200.38083,0.0318761953 L200.945186,0.0141537843 L201.310694,0.00674812163 L201.956811,0.000287271066 L201.956811,0.000287271066 L202.449519,0.000287271066 L202.989181,0.00562773943 L203.822433,0.0228494632 L203.822433,0.0228494632 L204.88463,0.0606316358 L204.88463,0.0606316358 L205.453648,0.0879874901 L205.453648,0.0879874901 L206.046355,0.12169907 L206.046355,0.12169907 L206.977228,0.18535245 L206.977228,0.18535245 L207.623945,0.237291391 L207.623945,0.237291391 L208.29018,0.297456494 L208.29018,0.297456494 L208.97474,0.36638217 L208.97474,0.36638217 L209.676432,0.44460283 L209.676432,0.44460283 L210.394065,0.532652883 L210.394065,0.532652883 L211.126447,0.631066741 L211.126447,0.631066741 L211.872385,0.740378814 L211.872385,0.740378814 L212.630687,0.861123512 C212.758035,0.882230037 212.885849,0.903835188 213.014102,0.925950099 L213.788715,1.06484575 L213.788715,1.06484575 L214.572712,1.21651006 L214.572712,1.21651006 L215.3649,1.38147743 L215.3649,1.38147743 L216.164087,1.56028227 L216.164087,1.56028227 L216.969081,1.75345899 C217.372831,1.85372939 217.778312,1.95958966 218.184852,2.07134038 L218.999148,2.30278486 C226.60872,4.53789949 234.431832,8.89534384 238.106593,17.3303476 C239.504897,20.6273256 240.237287,24.1683159 240.261602,27.7494789 L240.35167,31.9171968 L240.468651,36.9690793 L240.551168,40.3492713 L240.680353,45.4085099 L240.859785,52.0716809 L240.997324,56.9556529 L241.249333,65.5136988 L241.53341,74.6800255 L242.008519,89.1041337 L242.124077,92.4485305 C242.409886,100.146513 245.546392,103.828431 248.765372,105.574362 L249.137001,105.767342 C249.198948,105.798113 249.260886,105.828197 249.322795,105.85761 L249.69375,106.026147 L249.69375,106.026147 L250.063075,106.179276 C250.124441,106.203552 250.1857,106.227217 250.246831,106.250284 L250.611938,106.381632 C250.672483,106.402367 250.732861,106.422535 250.793054,106.442149 L251.151817,106.553314 C251.211186,106.570774 251.27033,106.587711 251.329229,106.604139 L251.855271,106.739382 L251.855271,106.739382 L252.19793,106.81551 L252.532177,106.881024 L252.532177,106.881024 L252.857041,106.936653 L253.109522,106.97453 L253.354881,107.006922 L253.708474,107.04604 L253.708474,107.04604 C254.326978,107.079474 254.970555,107.094995 255.654559,107.080326 L256,107.070419 L256,124.788305 C255.17115,124.759052 254.430061,124.773678 253.708474,124.812683 L253.474733,124.837266 L253.233123,124.866796 L252.857041,124.921185 L252.857041,124.921185 L252.466048,124.988804 L252.466048,124.988804 L252.19793,125.041855 L251.924429,125.101718 L251.646041,125.168766 L251.363263,125.243371 L251.185606,125.293686 L251.185606,125.293686 L250.826262,125.403856 C250.765964,125.423308 250.705474,125.443314 250.644814,125.463889 L250.278958,125.594299 C250.217694,125.617213 250.156298,125.640726 250.09479,125.664854 L249.724569,125.817111 C246.197791,127.335855 242.438282,130.947373 242.124077,139.410193 L241.693065,152.212968 L241.36128,162.677801 L241.181107,168.617015 L240.905464,178.144196 L240.724579,184.770413 L240.593578,189.817306 L240.428683,196.573858 L240.333076,200.774685 L240.261602,204.10437 C240.233862,207.219691 239.680658,210.307055 238.626182,213.236647 L238.499565,213.579874 L238.506391,213.611765 C234.7376,223.347023 225.620274,227.923787 217.202036,230.054145 L216.37648,230.255894 C216.239335,230.288236 216.10243,230.319944 215.965793,230.351031 L215.149399,230.530187 C215.01394,230.558835 214.878802,230.586886 214.744012,230.61435 L213.939656,230.772204 C213.806364,230.797373 213.673472,230.82198 213.541008,230.846038 L212.751569,230.983879 C212.620923,231.005784 212.490757,231.027164 212.361099,231.048029 L211.589454,231.167149 L211.589454,231.167149 L210.831271,231.274504 L210.831271,231.274504 L210.087827,231.370668 L210.087827,231.370668 L209.360403,231.456215 L209.360403,231.456215 L208.650277,231.531718 L208.650277,231.531718 L207.958728,231.597751 L207.958728,231.597751 L206.959034,231.680298 L206.959034,231.680298 L206.319522,231.725165 L206.319522,231.725165 L205.403879,231.778651 L205.403879,231.778651 L204.544422,231.817281 L204.544422,231.817281 L203.493339,231.849025 L203.493339,231.849025 L202.895578,231.85924 L202.346327,231.863394 L201.848083,231.863394 L201.403345,231.858005 L201.01461,231.850701 L200.541978,231.837134 L200.131125,231.820052 L199.989247,231.812335 L199.989247,216.698013 C213.984104,218.029628 219.865294,213.542349 222.301167,209.022995 L222.510219,208.618345 C222.576916,208.483535 222.640667,208.348851 222.701596,208.214447 L222.876043,207.812224 C222.931453,207.678532 222.984166,207.545273 223.034305,207.412601 L223.177127,207.0165 L223.177127,207.0165 L223.305255,206.624846 C223.325426,206.559992 223.345016,206.495362 223.364041,206.430974 L223.471523,206.047721 L223.471523,206.047721 L223.566172,205.671223 L223.566172,205.671223 L223.648735,205.302403 L223.648735,205.302403 L223.719955,204.942185 L223.719955,204.942185 L223.780579,204.591493 L223.780579,204.591493 L223.83135,204.251251 L223.83135,204.251251 L223.873014,203.922381 L223.873014,203.922381 L223.920065,203.45242 L223.920065,203.45242 L223.942221,203.156022 L223.942221,203.156022 L223.965938,202.668878 L223.972754,202.350529 L223.972776,202.060067 L223.967514,201.799367 L223.958479,201.570302 L223.947184,201.374744 L223.923851,201.091644 L223.908881,200.959615 L223.908881,192.671115 L223.932265,184.953692 L223.97029,176.991077 L224.014524,170.279825 L224.0736,163.428847 L224.14189,157.280449 L224.190188,153.705407 L224.234926,150.826064 L224.294282,147.524247 L224.337441,145.433948 L224.383585,143.445781 L224.432812,141.571232 L224.498827,139.405317 L224.501106,138.134527 L224.50786,137.361136 L224.516275,136.839456 L224.528752,136.313465 L224.55684,135.517437 L224.55684,135.517437 L224.582979,134.982755 L224.611828,134.50712 L224.611828,134.50712 L224.646614,134.029747 L224.646614,134.029747 L224.687893,133.550966 L224.687893,133.550966 L224.736221,133.07111 L224.736221,133.07111 L224.792154,132.59051 L224.792154,132.59051 L224.856246,132.109498 C224.867639,132.029313 224.879395,131.949125 224.891526,131.86894 L224.9689,131.387931 L224.9689,131.387931 L225.055824,130.907337 L225.055824,130.907337 L225.152852,130.427491 L225.152852,130.427491 L225.260541,129.948724 C225.392612,129.390921 225.547582,128.835998 225.729422,128.286323 L225.891957,127.816514 C226.117692,127.191963 226.380004,126.575152 226.684818,125.969615 L226.921491,125.517631 C229.206545,121.319883 233.646851,117.717917 242.27522,115.924486 C231.392907,113.665049 227.172504,108.536933 225.535738,102.962942 L225.403479,102.490893 C225.319285,102.175559 225.242927,101.859026 225.173675,101.541727 L225.075036,101.06526 C225.059454,100.985771 225.044294,100.906248 225.029543,100.826697 L224.945868,100.349117 L224.945868,100.349117 L224.871486,99.8712009 L224.871486,99.8712009 L224.805849,99.3932741 L224.805849,99.3932741 L224.74841,98.9156615 L224.74841,98.9156615 L224.698623,98.438688 L224.698623,98.438688 L224.655941,97.9626785 L224.655941,97.9626785 L224.619817,97.4879579 L224.619817,97.4879579 L224.576729,96.7790046 L224.576729,96.7790046 L224.554606,96.3089279 L224.554606,96.3089279 L224.527517,95.5213438 L224.527517,95.5213438 L224.515507,95.0008971 L224.507426,94.4846776 L224.500969,93.7192865 L224.498827,92.4485305 L224.452446,90.9717257 L224.400586,89.0936613 L224.342768,86.6771219 L224.289579,84.1032177 L224.240825,81.3934459 L224.182378,77.6062225 L224.113461,72.1604003 L224.06139,67.0711389 L224.012652,61.1756048 L223.949833,50.6928723 L223.908881,39.3338759 L223.908881,39.3338759 C224.768432,38.8590814 225.601743,38.338262 226.405182,37.7736877 C230.409352,34.9045338 233.4245,31.0389205 235.457512,26.49139 L235.597143,26.1729931 C233.562339,30.8590945 230.497166,34.8395482 226.390555,37.7785633 C225.721023,38.2490418 225.030746,38.6891351 224.321826,39.0975293 L223.894254,39.3387514 L223.894254,30.9039844 L223.909224,30.7719558 L223.926532,30.5734841 L223.938393,30.3953825 L223.952887,30.0642325 L223.952887,30.0642325 L223.958149,29.8035324 L223.958128,29.513071 L223.95131,29.1947214 L223.936188,28.8503567 L223.917654,28.5648976 L223.917654,28.5648976 L223.877086,28.1111136 L223.877086,28.1111136 L223.819045,27.6292819 L223.819045,27.6292819 L223.769449,27.2939602 L223.769449,27.2939602 L223.710295,26.9483952 L223.710295,26.9483952 L223.640866,26.5934757 C223.628398,26.5335923 223.615472,26.4733562 223.602074,26.4127858 L223.515886,26.0455014 C223.500536,25.9836683 223.484683,25.921538 223.468312,25.8591291 L223.363754,25.4814797 L223.363754,25.4814797 L223.246052,25.0980316 C223.2253,25.0336897 223.20397,24.9691433 223.182048,24.9044108 L223.043286,24.5139312 C222.994582,24.3831258 222.943389,24.2517244 222.889587,24.1198751 L222.720234,23.7231313 C220.620783,19.0159353 215.082789,13.9309399 200.759172,15.0963044 L199.974619,15.1655865 Z" fill="#FE0902"></path>
        <path d="M31.1696335,36.0916099 C31.3207768,36.2013106 31.4755766,36.3049168 31.6315955,36.4060853 L32.1008709,36.705934 L32.1008709,31.1526394 L32.0859009,31.0206108 L32.0685923,30.8221391 L32.0567321,30.6440375 L32.0422376,30.3128875 L32.0422376,30.3128875 L32.0369756,30.0521875 L32.0369974,29.761726 L32.0438141,29.4433764 L32.0589368,29.0990117 L32.0777501,28.8098014 L32.0777501,28.8098014 L32.1034354,28.5064476 L32.1034354,28.5064476 L32.1367375,28.189874 L32.1367375,28.189874 L32.1784017,27.8610041 L32.1784017,27.8610041 L32.229173,27.5207614 L32.229173,27.5207614 L32.2897963,27.1700695 L32.2897963,27.1700695 L32.3610167,26.8098518 C32.3738113,26.749073 32.3870784,26.6879358 32.4008337,26.6264595 L32.4893467,26.2536849 L32.4893467,26.2536849 L32.5903195,25.8736935 C32.608228,25.8098115 32.6266867,25.7456673 32.6457111,25.6812801 L32.7667704,25.2921951 C32.7881198,25.2269129 32.810066,25.1614263 32.8326244,25.0957544 L32.9754466,24.6996537 C33.2010736,24.1026298 33.4788101,23.4937168 33.8199716,22.8869412 L34.0569331,22.4828946 C36.6873982,18.1797257 42.6522827,14.1422514 56.0205051,15.4142415 L56.0205051,0.299919021 L55.740347,0.285825023 L55.2597915,0.26860312 L54.9376799,0.260464671 L54.1402912,0.249833237 L54.1402912,0.249833237 L53.6692148,0.249220435 L53.1526843,0.252996363 L52.2972567,0.268945577 L52.2972567,0.268945577 L51.5150004,0.293684526 L51.5150004,0.293684526 L50.674029,0.330789216 L49.7520952,0.383788586 L49.7520952,0.383788586 L48.7768475,0.453810978 L48.7768475,0.453810978 L48.099268,0.510936492 L48.099268,0.510936492 L47.0450841,0.613770667 L47.0450841,0.613770667 L46.319014,0.694620736 L46.319014,0.694620736 L45.5758624,0.785996648 L45.5758624,0.785996648 L44.8169519,0.888490411 L44.8169519,0.888490411 L44.0436053,1.00269404 L44.0436053,1.00269404 L43.2571452,1.12919954 L43.2571452,1.12919954 L42.4588945,1.26859892 L42.4588945,1.26859892 L41.6501757,1.42148421 L41.6501757,1.42148421 L40.8323116,1.5884474 C40.6953123,1.61748064 40.557987,1.64712514 40.4203634,1.67739321 L39.5912614,1.86658328 C39.4525544,1.89939501 39.3136042,1.93285498 39.1744383,1.96697554 L38.3370744,2.17972451 C37.9173187,2.29016115 37.4961174,2.40676502 37.0742148,2.52986913 L36.2296948,2.78484301 L36.2296948,2.78484301 L35.384627,3.05774285 C29.1886881,5.12618413 23.0552622,8.68840981 19.3317061,14.7950419 C20.5359762,23.7124921 24.4657001,31.3135337 31.1696335,36.0916099 Z M56.0253807,232.051239 L56.0253807,216.936916 C41.4038875,218.328156 35.6389263,213.367741 33.4065569,208.655148 L33.2237381,208.251972 C33.1365301,208.050842 33.0555311,207.850513 32.9803222,207.651505 L32.8375,207.255404 C32.8149415,207.189732 32.7929954,207.124246 32.771646,207.058963 L32.6505867,206.669878 L32.6505867,206.669878 L32.5431046,206.286625 L32.5431046,206.286625 L32.4484548,205.910127 L32.4484548,205.910127 L32.3658922,205.541307 L32.3658922,205.541307 L32.2946718,205.181089 L32.2946718,205.181089 L32.2340485,204.830397 L32.2340485,204.830397 L32.1832773,204.490155 L32.1832773,204.490155 L32.1416131,204.161285 L32.1416131,204.161285 L32.0945627,203.691324 L32.0945627,203.691324 L32.0638123,203.252147 L32.0638123,203.252147 L32.0486896,202.907782 L32.0418729,202.589433 L32.0418512,202.29897 L32.0471132,202.03827 L32.0561478,201.809205 L32.0674441,201.613647 L32.0907765,201.330548 L32.1057464,201.190057 L32.1057464,191.876394 C31.5791829,192.201434 31.0623706,192.542726 30.5553095,192.900268 C23.3735685,198.05864 19.3755864,206.347139 18.4979805,216.069062 C22.545787,223.97822 30.4143373,228.013608 37.9051906,230.056444 L38.7206744,230.271485 C38.9918683,230.340591 39.2623609,230.407153 39.5319503,230.47126 L40.3378071,230.656312 L40.3378071,230.656312 L41.1370335,230.827183 L41.1370335,230.827183 L41.9284182,230.984417 C42.0595949,231.009516 42.1903944,231.03407 42.3207914,231.058089 L43.0981424,231.195884 C43.2268288,231.217811 43.3550622,231.239227 43.4828175,231.260142 L44.2434095,231.379719 C44.3691512,231.398678 44.4943644,231.417159 44.6190237,231.435173 L45.3601313,231.537754 C45.4824742,231.553948 45.6042129,231.569698 45.7253219,231.585015 L46.4442198,231.67182 L46.4442198,231.67182 L47.1467971,231.748786 L47.1467971,231.748786 L47.8318426,231.816457 L47.8318426,231.816457 L48.4981449,231.875374 L48.4981449,231.875374 L49.1444929,231.926082 L49.1444929,231.926082 L49.7696752,231.969121 L49.7696752,231.969121 L50.3724805,232.005036 L50.3724805,232.005036 L51.2320821,232.046736 L51.2320821,232.046736 L51.7736458,232.067213 L51.7736458,232.067213 L52.4065236,232.085371 L52.9963924,232.096563 L53.5409604,232.101814 L54.2678598,232.100802 L54.8799408,232.092202 L55.3694683,232.07948 L56.0253807,232.051239 Z M238.106593,17.3303476 C234.197912,8.35840774 225.595939,3.99966959 217.54969,1.90124651 L216.747112,1.69885144 L216.747112,1.69885144 L215.949405,1.51100227 C215.816925,1.48087719 215.684696,1.4513364 215.552743,1.42236901 L214.764531,1.25535833 C214.633778,1.22864097 214.503351,1.20247522 214.373272,1.1768502 L213.597177,1.02950156 L213.597177,1.02950156 L212.83062,0.89460737 L212.83062,0.89460737 L212.074766,0.771644766 L212.074766,0.771644766 L211.330783,0.660090883 L211.330783,0.660090883 L210.599835,0.559422858 L210.599835,0.559422858 L209.883091,0.469117827 L209.883091,0.469117827 L209.181716,0.388652926 L209.181716,0.388652926 L208.496877,0.317505291 L208.496877,0.317505291 L207.829739,0.255152059 L207.829739,0.255152059 L206.864777,0.176967952 L206.864777,0.176967952 L205.946206,0.115630142 L205.946206,0.115630142 L205.077962,0.0693739658 L205.077962,0.0693739658 L204.263984,0.0364347571 L204.263984,0.0364347571 L203.753423,0.0210021605 L203.753423,0.0210021605 L203.138565,0.0078908075 L202.570598,0.00125735561 L202.051981,0 L201.585174,0.00301693579 L201.172632,0.00920635813 L200.660945,0.0220287058 L200.285183,0.0357914958 L199.974619,0.0512640376 L199.974619,15.1655865 C214.596113,13.7743473 220.361074,18.7347624 222.593443,23.4473556 L222.776262,23.8505313 C222.86347,24.0516618 222.944469,24.2519907 223.019678,24.4509987 L223.1625,24.8470994 C223.185059,24.9127713 223.207005,24.978258 223.228354,25.0435401 L223.349414,25.4326251 L223.349414,25.4326251 L223.456896,25.8158786 L223.456896,25.8158786 L223.551545,26.192377 L223.551545,26.192377 L223.634108,26.5611968 L223.634108,26.5611968 L223.705328,26.9214145 L223.705328,26.9214145 L223.765952,27.2721064 L223.765952,27.2721064 L223.816723,27.6123491 L223.816723,27.6123491 L223.858387,27.9412191 L223.858387,27.9412191 L223.905437,28.4111797 L223.905437,28.4111797 L223.936188,28.8503567 L223.936188,28.8503567 L223.95131,29.1947214 L223.958128,29.513071 L223.958149,29.8035324 L223.952887,30.0642325 L223.943853,30.293298 L223.926532,30.5734841 L223.894254,30.9062459 L223.894254,39.3387514 C224.753805,38.863957 225.587116,38.3431375 226.390555,37.7785633 C232.889713,33.1272525 236.780432,25.867502 238.106593,17.3303476 Z M227.034133,194.587222 C226.037268,193.878041 224.993083,193.237846 223.908881,192.671115 L223.908881,200.959615 L223.923851,201.091644 L223.941159,201.290116 L223.953019,201.468217 L223.967514,201.799367 L223.967514,201.799367 L223.972776,202.060067 L223.972754,202.350529 L223.965938,202.668878 L223.942221,203.156022 L223.942221,203.156022 L223.920065,203.45242 L223.920065,203.45242 L223.873014,203.922381 L223.873014,203.922381 L223.83135,204.251251 L223.83135,204.251251 L223.780579,204.591493 L223.780579,204.591493 L223.719955,204.942185 L223.719955,204.942185 L223.648735,205.302403 L223.648735,205.302403 L223.566172,205.671223 L223.566172,205.671223 L223.471523,206.047721 L223.471523,206.047721 L223.364041,206.430974 C223.345016,206.495362 223.325426,206.559992 223.305255,206.624846 L223.177127,207.0165 L223.177127,207.0165 L223.034305,207.412601 C222.984166,207.545273 222.931453,207.678532 222.876043,207.812224 L222.701596,208.214447 C222.640667,208.348851 222.576916,208.483535 222.510219,208.618345 L222.301167,209.022995 C219.865294,213.542349 213.984104,218.029628 199.989247,216.698013 L199.989247,231.812335 L200.212914,231.823956 L200.857101,231.846791 L200.857101,231.846791 L201.648194,231.861012 L201.648194,231.861012 L202.128577,231.8636 L202.947953,231.858579 L202.947953,231.858579 L203.556319,231.847613 L204.211374,231.829205 L205.022697,231.797174 L205.022697,231.797174 L205.888904,231.751897 L205.888904,231.751897 L206.494907,231.713475 L206.494907,231.713475 L207.443771,231.642168 L207.443771,231.642168 L208.101206,231.584746 L208.101206,231.584746 L208.777158,231.518802 L208.777158,231.518802 L209.47045,231.443809 L209.47045,231.443809 L210.179908,231.35924 L210.179908,231.35924 L210.904357,231.264567 L210.904357,231.264567 L211.64262,231.159263 L211.64262,231.159263 L212.393524,231.042802 C212.519663,231.022433 212.646279,231.001577 212.773348,230.980223 L213.541008,230.846038 L213.541008,230.846038 L214.31837,230.699377 C214.448673,230.673865 214.579332,230.647811 214.710322,230.621204 L215.500032,230.454843 C215.632247,230.425981 215.764743,230.396545 215.897497,230.366523 L216.696913,230.179275 C225.25277,228.105121 234.662087,223.542082 238.506391,213.611765 C236.985208,205.679184 233.152996,198.970375 227.034133,194.587222 Z" fill="#FFAB00"></path>
    </g>
</svg>
