<svg xmlns="http://www.w3.org/2000/svg" preserveAspectRatio="xMidYMid" viewBox="0 0 256 233"><path fill="#8E8F8F" d="M138.6 32.2c3.1 0 5.6 2.5 5.7 5.6v64.9c0 3.1-2.5 5.6-5.5 5.7h-53a5.7 5.7 0 0 1-5.7-5.5v-65c0-3 2.4-5.6 5.5-5.7h53Zm0 2.6H85.8a3.2 3.2 0 0 0-3.2 3v64.9c0 1.7 1.4 3.1 3 3.2h53c1.7 0 3.1-1.4 3.2-3v-65c0-1.7-1.4-3.1-3.2-3.1ZM93.3 92.7v3.7h-3.8v-3.7h3.8Zm42.2 0v3.7H95.2v-3.7h40.3ZM93.3 76.3v3.8h-3.8v-3.8h3.8Zm42.2 0v3.8H95.2v-3.8h40.3ZM93.3 60.6v3.7h-3.8v-3.7h3.8Zm42.2 0v3.7H95.2v-3.7h40.3Zm0-14.5v3.8h-46V46h46Z"/><path fill="#8E8F8F" d="M138.6 121.6c3.1 0 5.6 2.5 5.7 5.5v65c0 3.1-2.5 5.6-5.5 5.7h-53a5.7 5.7 0 0 1-5.7-5.5v-65c0-3 2.4-5.6 5.5-5.7h53Zm0 2.5H85.8a3.3 3.3 0 0 0-3.2 3v65c0 1.7 1.4 3.1 3 3.2h53c1.7 0 3.1-1.4 3.2-3v-65c0-1.7-1.4-3-3-3.1h-.2Zm-45.3 58v3.8h-3.8V182h3.8Zm42.2 0v3.7H95.2v-3.7h40.3Zm-42.2-16.4v3.8h-3.8v-3.8h3.8Zm42.2 0v3.8H95.2v-3.8h40.3ZM93.3 150v3.7h-3.8V150h3.8Zm42.2 0v3.7H95.2V150h40.3Zm0-14.5v3.8h-46v-3.8h46Z"/><polygon fill="#8E8F8F" points="153.9 70.3 153.9 73.5 172.8 73.5 172.8 159 153.9 159 153.9 162.1 172.8 162.1 175.9 162.1 175.9 159 175.9 73.5 175.9 70.3 172.8 70.3"/><path fill="#FE0902" d="M19.3 14.8a29 29 0 0 1 16-11.7l1-.3.8-.3 1.2-.3.9-.2.4-.1.8-.2.4-.1.9-.2.8-.1.8-.2.7-.1.8-.1.8-.1.7-.1h.7l.8-.2h1l1-.1h.9l1-.1H56v15.1c-13.3-1.3-19.3 2.8-22 7l-.2.5-.8 1.8-.2.4v.2l-.2.4v.4l-.2.3v.6l-.1.2v.3l-.1.4v.3l-.1.5v27.5l-.1 6.9v5.8l-.1 4.6v4.4l-.1 3.8-.1 4v2.1l-.1 2V92l-.1.7v4.6l-.1.5v.5l-.1.7v.5l-.1.4-.1.5v.3l-.1.4v.3l-.2.4-.1.5-.1.5-.2.5-.1.4-.2.5-.1.5c-2 5-6.3 9.4-16.3 11.5 9.7 2 14 6.2 16.1 11l.2.5.5 1.4.1.5.2 1 .1.4v.3l.2.5v.9l.2.5v1.4l.1.7v2.3l.1.8v3.5l.1 2.3v2.5l.1 2.7v3.2l.2 5.4v13.7l.2 9.7v23.1l.1.3v.4l.2.3v.6l.1.1.1.4.2.4v.2l.2.4.1.4.2.4c2 4.7 7.6 9.8 22 8.6h.7v15h-1l-.6.1h-3.9l-.6-.1H49l-.6-.1h-.7l-.7-.2h-.7l-.7-.1-.7-.1h-.4l-.7-.2h-.4l-.8-.2h-.4l-.8-.2H41l-.8-.2-.8-.2-.8-.2-.8-.2c-7.5-2-15.4-6.1-19.4-14a31 31 0 0 1 13-23.9l.5-.2-1.5 1a31 31 0 0 0-12 23 26.6 26.6 0 0 1-2.8-11.7v-4.1l-.2-5-.1-6-.2-7.5-.2-6.6-.2-8.5-.3-9.2L14 143l-.1-3.4c-.3-7.5-3.3-11.2-6.5-13l-.4-.2-.2-.1-.3-.2-.4-.1-.4-.2-.3-.1-.4-.1-.4-.1-.2-.1H4l-.3-.1h-.3l-.4-.2H0v-17.8h2.9l.2-.1h.4l.3-.1h.3l.3-.2h.2l.4-.1.4-.2h.3c3.7-1.5 7.8-5 8.2-13.9l.4-12.8.3-10.5.2-6 .3-9.4.2-6.7.1-5 .2-6.8v-4.2l.1-3.3a26 26 0 0 1 3.5-13l.1-.2Zm180.7.4V0h1.3l.7-.1h3.5l.5.1h1l.6.1.7.1h.7l.7.1.7.1.7.1.8.1.7.2h.4l.8.2.8.1.8.2.8.2.8.2 1.2.3.8.2a28.3 28.3 0 0 1 19.1 15 29 29 0 0 1 2.2 10.4V32l.2 5v3.4l.2 5.1.2 6.7.1 4.9.2 8.5.3 9.2.5 14.4.1 3.3c.3 7.7 3.4 11.4 6.7 13.2l.3.2h.2l.4.2.4.2h.1l.4.2h.2l.4.2h.1l.6.1.3.1h.3l.4.1h.2l.3.1h2.6v17.8h-2.8l-.3.1h-.4l-.3.1-.3.1h-.3l-.2.1h-.2l-.4.2h-.2l-.3.2h-.2l-.4.2c-3.5 1.5-7.3 5.1-7.6 13.6l-.4 12.8-.3 10.5-.2 6-.3 9.4-.2 6.7-.1 5-.2 6.8v4.2l-.1 3.3c0 3.1-.6 6.2-1.7 9.1l-.1.4c-3.8 9.7-12.9 14.3-21.3 16.5l-.8.2h-.4l-.9.2-.4.1-.8.2h-.4l-.7.2h-.4l-.8.2h-.8l-.7.2h-.7l-.7.1-.7.1h-1l-.7.1h-.9l-.9.1H200v-15.1c14 1.3 19.9-3.2 22.3-7.7l.2-.4.2-.4.2-.4.1-.4.2-.4.1-.4v-.2l.2-.4v-.3l.1-.4.1-.4v-.3l.1-.3v-.4l.1-.4V177l.1-6.7v-6.9l.1-6.1v-3.6l.1-2.9v-3.3l.1-2v-2l.1-2 .1-2V135l.1-.5v-.9l.1-.5v-.5l.2-.5v-.7l.2-.5v-.5l.2-.5c0-.5.2-1 .4-1.6l.2-.5.8-1.8.2-.5c2.3-4.2 6.7-7.8 15.4-9.6-11-2.2-15.1-7.4-16.8-13l-.1-.4-.2-1-.1-.4v-.3l-.2-.5v-.9l-.2-.5v-1.4l-.1-.7v-2.3l-.1-.8V91l-.1-2v-2.3l-.1-2.6v-2.7l-.1-3.8v-5.4L224 67v-6l-.2-10.4V39.3c.9-.4 1.7-1 2.5-1.5 4-2.9 7-6.8 9-11.3l.2-.3A27.5 27.5 0 0 1 224.3 39l-.4.2V27.6l-.1-.3v-.4l-.2-.3V26l-.1-.1-.1-.4-.2-.4v-.2l-.2-.4-.1-.4-.2-.4c-2-4.7-7.6-9.8-22-8.6h-.7Z"/><path fill="#FFAB00" d="m31.2 36 .4.4.5.3V28l.1-.4v-.3l.2-.4v-.5l.2-.4v-.2l.2-.4V25l.2-.4.8-1.8.3-.4c2.6-4.3 8.6-8.4 22-7V.2h-6.5l-1 .2H48l-1 .1h-.8l-.7.2h-.8L44 1l-.7.1-.8.2-.8.1-.9.2h-.4l-.8.3h-.4l-.9.3-1.2.3-.9.3-.8.3c-6.2 2-12.3 5.6-16 11.7 1.1 9 5 16.5 11.8 21.3ZM56 232v-15c-14.6 1.3-20.4-3.6-22.6-8.3l-.2-.4-.2-.6-.2-.4v-.2l-.1-.4-.2-.4v-.4l-.1-.4-.1-.3v-.4l-.1-.3v-.3l-.1-.5v-11.8l-1.5 1a31 31 0 0 0-12.1 23.2c4 7.9 12 12 19.4 14l.8.2.8.2.8.2.8.1.8.2h.4l.8.2h.4l.7.2h.4l.8.1h.3l.7.2h.7l.7.1h.7l.6.1h.7l.6.1h2l.6.1h3ZM238.1 17.4C234.2 8.3 225.6 4 217.5 2l-.8-.2-.8-.2h-.3l-.8-.2-.4-.1-.8-.2-.8-.1-.7-.1-.8-.1-.7-.1-.7-.1-.7-.1h-.7l-.7-.1-1-.1h-.9l-.8-.1h-2l-.5-.1H200v15.2c14.6-1.4 20.4 3.5 22.6 8.2l.2.5.2.6.2.3v.2l.1.4.2.4v.4l.1.4.1.3v.4l.1.3v.3l.1.5v10.9c.9-.4 1.7-1 2.5-1.5A30 30 0 0 0 238 17.3Zm-11 177.3-3.2-2v11.7l-.1.3v.3l-.2.4v.4l-.1.3-.1.4v.2l-.2.4-.2.4-.1.4-.2.4-.2.4-.2.4c-2.4 4.5-8.3 9-22.3 7.7v15.1h6.5l1-.2h1.2l.7-.2h.7l.7-.1.7-.1.8-.2h.4l.7-.2.8-.1h.4l.8-.2.4-.1.8-.2c8.6-2 18-6.7 21.8-16.6a29 29 0 0 0-11.5-19Z"/></svg>
