<svg xmlns="http://www.w3.org/2000/svg" viewBox="0 0 361 361"><path fill="#EFDA4F" d="M0 0h361v361H0V0Z"/><path fill="#070702" d="M289.2 228.5A32.4 32.4 0 0 1 303 245c.9 3.6 1.1 6.9 1.2 10.6V266a3268.6 3268.6 0 0 1 .2 26.8v9.7c-.5 3.3-1.8 4.5-4.4 6.5-3.1.4-5 .7-7.7-1.2-1.7-2.4-1.7-3.8-1.7-6.8v-6.4a44198.8 44198.8 0 0 0-.1-28.5V263c0-7.3-1-14-6-19.6-4-3.6-8.7-3.7-13.9-3.6-6.3.8-12 3.9-16.6 8.3-2.5 3.6-3.4 6-3.4 10.3v6.4a41036.2 41036.2 0 0 1-.1 28.7v9.2c-.7 3.2-2 4.4-4.5 6.4-3 .6-3 .6-6 0-2.8-2.7-4-4.4-4.5-8.3V297a596334376 596334376 0 0 1 0-23.5 1144 1144 0 0 0 0-27V236c.6-3.7 1.5-4.9 4.5-7.1 3.4-.5 5.3-.4 8.4 1.3 1.6 1.7 1.6 1.7 1.6 5.7l2.2-1.5 3-1.9 3-1.9c8.6-5.2 21.4-6 31-2.2Z"/><path fill="#050501" d="m161 229 3 2c.4 2.1.4 2.1.4 4.8v9.6a1632.5 1632.5 0 0 1 .2 28c0 6.5.2 13 4.8 18.2 5.8 5.1 11.7 4.7 19.2 4.7 4.7-.4 6.8-1.3 10.4-4.3 3.4-4.5 4.1-8.6 4.2-14v-6.4a13583.4 13583.4 0 0 1 .3-28.3V237l.1-2.7c.5-2.8 1.1-3.7 3.4-5.3 6-.7 6-.7 8.7 1.2 1.8 2.4 1.7 4 1.7 7v3.2l.1 3.5v3.6a1215.3 1215.3 0 0 1 .2 19v10.8c0 10.5-3.5 18.9-11 26.3-9 7.2-19.5 7.2-30.7 6.4-7.6-1.1-13-4.2-18-10-1.3-2.9-1.3-2.9-2-5l-3-1c-1.7-4-2.3-7.5-2.3-11.8v-10.6a1927 1927 0 0 1-.2-27.3v-9.9c.5-2.4.5-2.4 2.3-4.2 3-1.6 5-1.5 8.2-1.2Z"/><path fill="#C4B340" d="m260 242 2 1-10 10c0-4.3 2.1-5.9 5-9l3-2Z"/></svg>
