<?xml version="1.0" encoding="UTF-8"?>
<svg version="1.1" xmlns="http://www.w3.org/2000/svg" width="361" height="361">
<path d="M0 0 C119.13 0 238.26 0 361 0 C361 119.13 361 238.26 361 361 C241.87 361 122.74 361 0 361 C0 241.87 0 122.74 0 0 Z " fill="#EFDA4F" transform="translate(0,0)"/>
<path d="M0 0 C6.42891144 3.56179376 11.11436075 9.75465187 13.8125 16.5 C14.66801852 20.06238464 14.95174303 23.39414857 14.98950195 27.05297852 C15.00875481 28.68475792 15.00875481 28.68475792 15.02839661 30.34950256 C15.03578354 31.51420578 15.04317047 32.678909 15.05078125 33.87890625 C15.058853 35.08312729 15.06692474 36.28734833 15.07524109 37.52806091 C15.08905298 40.07069469 15.09978803 42.61334678 15.10766602 45.15600586 C15.12495173 49.05162149 15.1688735 52.94640412 15.21289062 56.84179688 C15.22301171 59.31249377 15.23152964 61.78319785 15.23828125 64.25390625 C15.25578934 65.4206337 15.27329742 66.58736115 15.29133606 67.78944397 C15.28841049 68.87414474 15.28548492 69.95884552 15.2824707 71.07641602 C15.28833694 72.02952164 15.29420319 72.98262726 15.30024719 73.96461487 C14.66488738 77.26731316 13.43245974 78.45402725 10.8125 80.5 C7.66774142 80.94925123 5.76935038 81.20106601 3.15196228 79.28335571 C1.37646621 76.91946604 1.44042534 75.46973631 1.44360352 72.52880859 C1.43672012 71.51700531 1.42983673 70.50520203 1.42274475 69.46273804 C1.42890305 68.36901886 1.43506134 67.27529968 1.44140625 66.1484375 C1.42401371 63.82942568 1.40642945 61.5104153 1.38867188 59.19140625 C1.37862533 55.53789515 1.37499555 51.88448133 1.37670898 48.23095703 C1.37312236 44.70315746 1.34570507 41.17610361 1.31640625 37.6484375 C1.32458878 36.56686371 1.3327713 35.48528992 1.34120178 34.37094116 C1.27036115 27.09514987 0.34779062 20.42372228 -4.69334412 14.82870483 C-8.73631487 11.23342081 -13.37383303 11.07151067 -18.55859375 11.1796875 C-24.88705857 11.95076345 -30.63901069 15.08528979 -35.1875 19.5 C-37.67767837 23.0564771 -38.56102075 25.44736592 -38.55639648 29.77758789 C-38.56327988 30.80537857 -38.57016327 31.83316925 -38.57725525 32.8921051 C-38.57109695 33.99118698 -38.56493866 35.09026886 -38.55859375 36.22265625 C-38.57596936 38.55794422 -38.59355381 40.89323065 -38.61132812 43.22851562 C-38.62142064 46.90440646 -38.62499181 50.58019937 -38.62329102 54.25610352 C-38.6268524 57.80775222 -38.65415736 61.35864211 -38.68359375 64.91015625 C-38.67541122 66.01126236 -38.6672287 67.11236847 -38.65879822 68.24684143 C-38.66883377 69.27147995 -38.67886932 70.29611847 -38.68920898 71.35180664 C-38.68904282 72.25161758 -38.68887665 73.15142853 -38.68870544 74.07850647 C-39.34992987 77.28854686 -40.65283392 78.48600953 -43.1875 80.5 C-46.1875 81.0625 -46.1875 81.0625 -49.1875 80.5 C-51.97999615 77.7837617 -53.09303219 76.10812944 -53.69543457 72.23020935 C-53.70020813 70.37300011 -53.70020813 70.37300011 -53.70507812 68.47827148 C-53.7120874 67.79146301 -53.71909668 67.10465454 -53.72631836 66.39703369 C-53.74385334 64.1379698 -53.73229438 61.88016926 -53.71875 59.62109375 C-53.72144593 58.04598247 -53.7253292 56.47087281 -53.73034668 54.89576721 C-53.73623531 51.599702 -53.72769857 48.30407124 -53.70898438 45.00805664 C-53.68617585 40.78542545 -53.69933307 36.56381017 -53.72327423 32.34121609 C-53.73773371 29.09064589 -53.73312598 25.84031632 -53.72276306 22.58973885 C-53.72009713 21.03282615 -53.72336087 19.47589152 -53.73268127 17.91900444 C-53.74285217 15.7428594 -53.7273425 13.56835678 -53.70507812 11.39233398 C-53.70189575 10.15499008 -53.69871338 8.91764618 -53.69543457 7.64280701 C-53.09333367 3.91735288 -52.18844858 2.72315387 -49.1875 0.5 C-45.74646468 -0.00181765 -43.89500051 0.12763131 -40.8125 1.75 C-39.1875 3.5 -39.1875 3.5 -39.1875 7.5 C-38.45144531 7.01789063 -37.71539062 6.53578125 -36.95703125 6.0390625 C-35.98121094 5.40742188 -35.00539062 4.77578125 -34 4.125 C-33.03707031 3.49851563 -32.07414062 2.87203125 -31.08203125 2.2265625 C-22.38735695 -2.95973445 -9.55464507 -3.74237398 0 0 Z " fill="#070702" transform="translate(289.1875,228.5)"/>
<path d="M0 0 C0.99 0.66 1.98 1.32 3 2 C3.37854004 4.12283325 3.37854004 4.12283325 3.38476562 6.78173828 C3.39487671 7.77682404 3.40498779 8.77190979 3.41540527 9.79714966 C3.41238403 10.8772934 3.40936279 11.95743713 3.40625 13.0703125 C3.41708618 14.18050751 3.42792236 15.29070251 3.43908691 16.43453979 C3.47346687 19.9980851 3.4889565 23.56131042 3.5 27.125 C3.51460036 31.79457755 3.54840855 36.46344344 3.59375 41.1328125 C3.59072876 42.20081085 3.58770752 43.2688092 3.58459473 44.36917114 C3.64929372 50.85756553 3.83359066 57.43467571 8.38098145 62.55496216 C14.20605728 67.72893695 20.08328583 67.34351218 27.5703125 67.28125 C32.26654949 66.89613717 34.37564872 65.98002216 38 63 C41.38115545 58.49179274 42.11723897 54.4456699 42.15771484 48.91186523 C42.17310806 47.39525551 42.17310806 47.39525551 42.18881226 45.8480072 C42.19611359 44.76250076 42.20341492 43.67699432 42.2109375 42.55859375 C42.23899112 40.2610604 42.26765546 37.96353444 42.296875 35.66601562 C42.33824182 32.04272553 42.37512979 28.41957571 42.40136719 24.79614258 C42.42887903 21.30000374 42.47473315 17.80449279 42.5234375 14.30859375 C42.52669037 13.22106308 42.52994324 12.13353241 42.53329468 11.01304626 C42.54986115 10.00512527 42.56642761 8.99720428 42.58349609 7.95874023 C42.59158295 7.07145737 42.5996698 6.1841745 42.60800171 5.27000427 C43.08368794 2.51537547 43.74357373 1.61764045 46 0 C52.08052294 -0.6514846 52.08052294 -0.6514846 54.69151306 1.19850159 C56.45072324 3.62054666 56.39929859 5.21773123 56.43579102 8.19897461 C56.45493057 9.26115707 56.47407013 10.32333954 56.49378967 11.41770935 C56.49712814 12.5676387 56.50046661 13.71756805 56.50390625 14.90234375 C56.51389145 16.0904213 56.52387665 17.27849884 56.53416443 18.50257874 C56.54937199 21.02357498 56.55638941 23.54463176 56.5559082 26.06567383 C56.56242225 29.89182961 56.61675039 33.71532472 56.67382812 37.54101562 C56.68263966 39.99478284 56.68858753 42.44856233 56.69140625 44.90234375 C56.7129628 46.03405502 56.73451935 47.1657663 56.75672913 48.33177185 C56.66829471 58.78068632 53.20182753 67.16030995 45.75 74.5625 C36.63543754 81.83298846 26.1681982 81.80583544 15 81 C7.44685412 79.89684317 2.02436645 76.77106071 -3 71 C-4.3125 68.125 -4.3125 68.125 -5 66 C-5.99 65.67 -6.98 65.34 -8 65 C-9.72027626 61.02552296 -10.25680059 57.52799583 -10.29052734 53.22583008 C-10.30328705 52.11480423 -10.31604675 51.00377838 -10.32919312 49.85908508 C-10.33253159 48.08225594 -10.33253159 48.08225594 -10.3359375 46.26953125 C-10.3425943 45.04215744 -10.3492511 43.81478363 -10.35610962 42.55021667 C-10.36621507 39.96228532 -10.37092729 37.37432802 -10.37060547 34.78637695 C-10.37499598 30.81613845 -10.41138776 26.84699636 -10.44921875 22.87695312 C-10.45508369 20.36198297 -10.45905524 17.84700754 -10.4609375 15.33203125 C-10.47530853 14.14140579 -10.48967957 12.95078033 -10.50448608 11.72407532 C-10.49833282 10.62250595 -10.49217957 9.52093658 -10.48583984 8.38598633 C-10.48868988 7.41591141 -10.49153992 6.44583649 -10.49447632 5.44636536 C-10 3 -10 3 -8.16104126 1.1829071 C-5.26649221 -0.40150625 -3.25298704 -0.34606245 0 0 Z " fill="#050501" transform="translate(161,229)"/>
<path d="M0 0 C0.66 0.33 1.32 0.66 2 1 C-1.3 4.3 -4.6 7.6 -8 11 C-8 6.67750434 -5.85084926 5.11604454 -3 2 C-2.01 1.34 -1.02 0.68 0 0 Z " fill="#C4B340" transform="translate(260,242)"/>
</svg>
