<svg xmlns="http://www.w3.org/2000/svg" xmlns:xlink="http://www.w3.org/1999/xlink" style="isolation:isolate" viewBox="0 0 64 64"><defs><clipPath id="a"><rect width="64" height="64"/></clipPath></defs><g clip-path="url(#a)"><path fill="#00E9A3" d="M11.345 52.655c9.126 9.127 23.922 9.127 33.048 0 9.126-9.126 9.126-23.922 0-33.048l-4.131 4.131c6.845 6.844 6.845 17.942 0 24.786-6.844 6.845-17.942 6.845-24.786 0l-4.131 4.131Z"/><path fill="#00E9A3" d="M19.607 44.393c4.563 4.563 11.961 4.563 16.524 0 4.563-4.563 4.563-11.961 0-16.524L32 32a5.841 5.841 0 0 1 0 8.262 5.841 5.841 0 0 1-8.262 0l-4.131 4.131Z"/><path fill="#00E9A3" d="M52.655 11.345c-9.126-9.127-23.922-9.127-33.048 0-9.126 9.126-9.126 23.922 0 33.048l4.131-4.131c-6.845-6.844-6.845-17.942 0-24.786 6.844-6.845 17.942-6.845 24.786 0l4.131-4.131Z"/><path fill="#00E9A3" d="M44.393 19.607c-4.563-4.563-11.961-4.563-16.524 0-4.563 4.563-4.563 11.961 0 16.524L32 32a5.841 5.841 0 0 1 0-8.262 5.841 5.841 0 0 1 8.262 0l4.131-4.131Z"/><path fill="#FFF" fill-opacity=".8" d="M52.655 11.345c-9.126-9.127-23.922-9.127-33.048 0-9.126 9.126-9.126 23.922 0 33.048l4.131-4.131c-6.845-6.844-6.845-17.942 0-24.786 6.844-6.845 17.942-6.845 24.786 0l4.131-4.131Z"/><path fill="#FFF" fill-opacity=".8" d="M44.393 19.607c-4.563-4.563-11.961-4.563-16.524 0-4.563 4.563-4.563 11.961 0 16.524L32 32a5.841 5.841 0 0 1 0-8.262 5.841 5.841 0 0 1 8.262 0l4.131-4.131Z"/></g></svg>
