<svg xmlns="http://www.w3.org/2000/svg" fill="none" viewBox="0 0 461 467"><path fill="#06D6A0" d="M389.4 465.6c32.3-32.2 53.8-72.4 60-111.8 6.2-39.4-3.6-74.8-27.1-98.4L300.7 376.7l88.7 89Z"/><path fill="#FB0" d="M71.6 466.3c-32.3-32.2-53.8-72.4-60-111.8-6.2-39.4 3.6-74.8 27.1-98.4l121.6 121.3-88.7 89Z"/><path fill="#FF0075" d="M.7 122.2c0 45.5 18.2 89.2 50.4 121.4l121.6 121.2a171.7 171.7 0 0 0-.3-242.8L50.8.7A171.7 171.7 0 0 0 .7 122.2Z"/><path fill="#0076FF" d="M460.3 121.5c0 45.5-18.2 89.2-50.4 121.4L288.3 364a171.7 171.7 0 0 1 .3-242.8L410.2 0c32.1 32.2 50.2 76 50.1 121.5Z"/></svg>
