<svg
  width="48"
  height="36"
  viewBox="0 0 56 42"
  fill="none"
  xmlns="http://www.w3.org/2000/svg"
  stroke="#E7E8F1"
  stroke-width="1"
>
  <path
    d="M45.8935 7.4645L41.483 11.8749C41.3445 12.0134 41.1633 12.1013 40.9689 12.1245C40.7743 12.1478 40.5777 12.105 40.4103 12.0032C38.6755 10.9566 36.6746 10.4346 34.6494 10.5003C32.6242 10.566 30.6615 11.2165 28.998 12.3734C27.975 13.0855 27.0866 13.9738 26.3745 14.9969C25.219 16.6614 24.5691 18.6242 24.5029 20.6494C24.4367 22.6746 24.957 24.6758 26.0014 26.4122C26.1025 26.5792 26.1448 26.7752 26.1216 26.9692C26.0983 27.163 26.0109 27.3435 25.8731 27.482L21.4627 31.8923C21.3739 31.9817 21.2668 32.0509 21.1488 32.095C21.0308 32.1393 20.9046 32.1573 20.7789 32.1483C20.6532 32.1391 20.531 32.103 20.4206 32.0422C20.3102 31.9814 20.2142 31.8975 20.1393 31.7961C17.753 28.5161 16.5197 24.5383 16.632 20.4836C16.7444 16.4289 18.1959 12.5255 20.7602 9.38257C21.543 8.42097 22.4221 7.54189 23.3837 6.75906C26.5264 4.19551 30.4292 2.74437 34.4833 2.63205C38.5373 2.51973 42.5145 3.75255 45.7943 6.13816C45.8964 6.21286 45.9809 6.3088 46.0422 6.41934C46.1036 6.52989 46.1402 6.65241 46.1497 6.77848C46.1592 6.90455 46.1411 7.03117 46.0969 7.1496C46.0526 7.26803 45.9832 7.37547 45.8935 7.4645Z"
  />
  <path
    d="M45.8897 34.5161L41.4792 30.1057C41.3407 29.9672 41.1595 29.8794 40.9651 29.8561C40.7706 29.8328 40.5739 29.8755 40.4065 29.9773C38.7707 30.9641 36.8965 31.4858 34.9861 31.4858C33.0756 31.4858 31.2014 30.9641 29.5656 29.9773C29.3983 29.8755 29.2016 29.8328 29.007 29.8561C28.8125 29.8794 28.6315 29.9672 28.4929 30.1057L24.0824 34.5161C23.9899 34.6049 23.9182 34.7132 23.8722 34.8329C23.8261 34.9527 23.8071 35.0811 23.8163 35.2091C23.8254 35.3371 23.8626 35.4614 23.9253 35.5734C23.9879 35.6854 24.0744 35.7822 24.1786 35.8569C27.3181 38.1412 31.1007 39.3716 34.9832 39.3716C38.8656 39.3716 42.6482 38.1412 45.7877 35.8569C45.8923 35.7827 45.9793 35.6862 46.0425 35.5744C46.1056 35.4627 46.1434 35.3385 46.1532 35.2105C46.1629 35.0825 46.1443 34.9539 46.0989 34.834C46.0532 34.714 45.9819 34.6054 45.8897 34.5161Z"
  />
  <path
    d="M34.997 26.244C37.8964 26.244 40.247 23.8935 40.247 20.994C40.247 18.0946 37.8964 15.744 34.997 15.744C32.0975 15.744 29.747 18.0946 29.747 20.994C29.747 23.8935 32.0975 26.244 34.997 26.244Z"
  />
  <path
    d="M-10.8935 -13.5355L-6.48304 -9.12508C-6.34447 -8.98664 -6.16334 -8.89874 -5.96889 -8.87548C-5.77429 -8.85223 -5.5777 -8.89496 -5.41035 -8.99681C-3.67546 -10.0434 -1.67461 -10.5654 0.350573 -10.4997C2.37576 -10.434 4.33849 -9.78347 6.00196 -8.6266C7.02502 -7.91449 7.91335 -7.02616 8.62548 -6.00309C9.78097 -4.33862 10.4309 -2.37576 10.4971 -0.350574C10.5633 1.67461 10.0429 3.67576 8.99861 5.41218C8.89748 5.57923 8.85516 5.77521 8.87841 5.9692C8.90165 6.16304 8.98912 6.34355 9.12687 6.48196L13.5373 10.8923C13.6261 10.9817 13.7332 11.0509 13.8512 11.095C13.9692 11.1393 14.0954 11.1573 14.2211 11.1483C14.3468 11.1391 14.469 11.103 14.5794 11.0422C14.6898 10.9814 14.7858 10.8975 14.8607 10.7961C17.247 7.51607 18.4803 3.53827 18.368 -0.516392C18.2556 -4.57108 16.8041 -8.47452 14.2398 -11.6174C13.457 -12.579 12.5779 -13.4581 11.6163 -14.2409C8.47363 -16.8045 4.57076 -18.2556 0.516696 -18.368C-3.53735 -18.4803 -7.51454 -17.2474 -10.7943 -14.8618C-10.8964 -14.7871 -10.981 -14.6912 -11.0422 -14.5807C-11.1036 -14.4701 -11.1402 -14.3476 -11.1497 -14.2215C-11.1592 -14.0955 -11.1411 -13.9688 -11.0969 -13.8504C-11.0526 -13.732 -10.9832 -13.6245 -10.8935 -13.5355Z"
  />
  <path
    d="M-10.8897 13.5161L-6.47923 9.10565C-6.34066 8.96724 -6.15953 8.87936 -5.96508 8.85608C-5.77063 8.83281 -5.57388 8.87553 -5.40654 8.97735C-3.77071 9.96414 -1.89649 10.4858 0.0138683 10.4858C1.92438 10.4858 3.79857 9.96414 5.43441 8.97735C5.60174 8.87553 5.79843 8.83281 5.99295 8.85608C6.18747 8.87936 6.36853 8.96724 6.50713 9.10565L10.9176 13.5161C11.01 13.6049 11.0818 13.7132 11.1278 13.8329C11.1738 13.9527 11.1929 14.0811 11.1837 14.2091C11.1746 14.3371 11.1373 14.4614 11.0747 14.5734C11.0121 14.6854 10.9256 14.7822 10.8214 14.8569C7.68191 17.1412 3.89931 18.3716 0.016777 18.3716C-3.86564 18.3716 -7.64822 17.1412 -10.7877 14.8569C-10.8923 14.7827 -10.9793 14.6862 -11.0425 14.5744C-11.1056 14.4627 -11.1434 14.3385 -11.1532 14.2105C-11.1629 14.0825 -11.1443 13.9539 -11.0989 13.834C-11.0532 13.714 -10.9819 13.6054 -10.8897 13.5161Z"
  />
  <path
    d="M0.00299549 5.24402C-2.89638 5.24402 -5.24701 2.89352 -5.24701 -0.00602722C-5.24701 -2.90543 -2.89638 -5.25598 0.00299549 -5.25598C2.90252 -5.25598 5.25299 -2.90543 5.25299 -0.00602722C5.25299 2.89352 2.90252 5.24402 0.00299549 5.24402Z"
  />
  <path
    d="M45.1065 -13.5355L49.517 -9.12508C49.6555 -8.98664 49.8367 -8.89874 50.0311 -8.87548C50.2257 -8.85223 50.4223 -8.89496 50.5897 -8.99681C52.3245 -10.0434 54.3254 -10.5654 56.3506 -10.4997C58.3758 -10.434 60.3385 -9.78347 62.002 -8.6266C63.025 -7.91449 63.9134 -7.02616 64.6255 -6.00309C65.781 -4.33862 66.4309 -2.37576 66.4971 -0.350574C66.5633 1.67461 66.0429 3.67576 64.9986 5.41218C64.8975 5.57923 64.8552 5.77521 64.8784 5.9692C64.9016 6.16304 64.9891 6.34355 65.1269 6.48196L69.5373 10.8923C69.6261 10.9817 69.7332 11.0509 69.8512 11.095C69.9692 11.1393 70.0954 11.1573 70.2211 11.1483C70.3468 11.1391 70.469 11.103 70.5794 11.0422C70.6898 10.9814 70.7858 10.8975 70.8607 10.7961C73.247 7.51607 74.4803 3.53827 74.368 -0.516392C74.2556 -4.57108 72.8041 -8.47452 70.2398 -11.6174C69.457 -12.579 68.5779 -13.4581 67.6163 -14.2409C64.4736 -16.8045 60.5708 -18.2556 56.5167 -18.368C52.4626 -18.4803 48.4855 -17.2474 45.2057 -14.8618C45.1036 -14.7871 45.019 -14.6912 44.9578 -14.5807C44.8964 -14.4701 44.8598 -14.3476 44.8503 -14.2215C44.8408 -14.0955 44.8589 -13.9688 44.9031 -13.8504C44.9474 -13.732 45.0168 -13.6245 45.1065 -13.5355Z"
  />
  <path
    d="M45.1103 13.5161L49.5208 9.10565C49.6593 8.96724 49.8405 8.87936 50.0349 8.85608C50.2294 8.83281 50.4261 8.87553 50.5935 8.97735C52.2293 9.96414 54.1035 10.4858 56.0139 10.4858C57.9244 10.4858 59.7986 9.96414 61.4344 8.97735C61.6017 8.87553 61.7984 8.83281 61.993 8.85608C62.1875 8.87936 62.3685 8.96724 62.5071 9.10565L66.9176 13.5161C67.01 13.6049 67.0818 13.7132 67.1278 13.8329C67.1739 13.9527 67.1929 14.0811 67.1837 14.2091C67.1746 14.3371 67.1373 14.4614 67.0747 14.5734C67.0121 14.6854 66.9256 14.7822 66.8214 14.8569C63.6819 17.1412 59.8993 18.3716 56.0168 18.3716C52.1344 18.3716 48.3518 17.1412 45.2123 14.8569C45.1077 14.7827 45.0207 14.6862 44.9575 14.5744C44.8944 14.4627 44.8566 14.3385 44.8468 14.2105C44.8371 14.0825 44.8557 13.9539 44.9011 13.834C44.9468 13.714 45.0181 13.6054 45.1103 13.5161Z"
  />
  <path
    d="M56.003 5.24402C53.1036 5.24402 50.753 2.89352 50.753 -0.00602722C50.753 -2.90543 53.1036 -5.25598 56.003 -5.25598C58.9025 -5.25598 61.253 -2.90543 61.253 -0.00602722C61.253 2.89352 58.9025 5.24402 56.003 5.24402Z"
  />
  <path
    d="M-10.8935 28.4645L-6.48304 32.8749C-6.34447 33.0134 -6.16334 33.1013 -5.96889 33.1245C-5.77429 33.1478 -5.5777 33.105 -5.41035 33.0032C-3.67546 31.9566 -1.67461 31.4346 0.350573 31.5003C2.37576 31.566 4.33849 32.2165 6.00196 33.3734C7.02502 34.0855 7.91335 34.9738 8.62548 35.9969C9.78097 37.6614 10.4309 39.6242 10.4971 41.6494C10.5633 43.6746 10.0429 45.6758 8.99861 47.4122C8.89748 47.5792 8.85516 47.7752 8.87841 47.9692C8.90165 48.163 8.98912 48.3436 9.12687 48.482L13.5373 52.8923C13.6261 52.9817 13.7332 53.0509 13.8512 53.095C13.9692 53.1393 14.0954 53.1573 14.2211 53.1483C14.3468 53.1391 14.469 53.103 14.5794 53.0422C14.6898 52.9814 14.7858 52.8975 14.8607 52.7962C17.247 49.5161 18.4803 45.5383 18.368 41.4836C18.2556 37.4289 16.8041 33.5255 14.2398 30.3826C13.457 29.421 12.5779 28.5419 11.6163 27.7591C8.47363 25.1955 4.57076 23.7444 0.516696 23.632C-3.53735 23.5197 -7.51454 24.7526 -10.7943 27.1382C-10.8964 27.2129 -10.981 27.3088 -11.0422 27.4193C-11.1036 27.5299 -11.1402 27.6524 -11.1497 27.7785C-11.1592 27.9045 -11.1411 28.0312 -11.0969 28.1496C-11.0526 28.268 -10.9832 28.3755 -10.8935 28.4645Z"
  />
  <path
    d="M-10.8897 55.5161L-6.47923 51.1057C-6.34066 50.9672 -6.15953 50.8794 -5.96508 50.8561C-5.77063 50.8328 -5.57388 50.8755 -5.40654 50.9773C-3.77071 51.9641 -1.89649 52.4858 0.0138683 52.4858C1.92438 52.4858 3.79857 51.9641 5.43441 50.9773C5.60174 50.8755 5.79843 50.8328 5.99295 50.8561C6.18747 50.8794 6.36853 50.9672 6.50713 51.1057L10.9176 55.5161C11.01 55.6049 11.0818 55.7132 11.1278 55.8329C11.1738 55.9527 11.1929 56.0811 11.1837 56.2091C11.1746 56.3371 11.1373 56.4614 11.0747 56.5734C11.0121 56.6854 10.9256 56.7822 10.8214 56.8569C7.68191 59.1412 3.89931 60.3716 0.016777 60.3716C-3.86564 60.3716 -7.64822 59.1412 -10.7877 56.8569C-10.8923 56.7827 -10.9793 56.6862 -11.0425 56.5744C-11.1056 56.4627 -11.1434 56.3385 -11.1532 56.2105C-11.1629 56.0825 -11.1443 55.9539 -11.0989 55.834C-11.0532 55.714 -10.9819 55.6054 -10.8897 55.5161Z"
  />
  <path
    d="M0.00299549 47.244C-2.89638 47.244 -5.24701 44.8935 -5.24701 41.994C-5.24701 39.0946 -2.89638 36.744 0.00299549 36.744C2.90252 36.744 5.25299 39.0946 5.25299 41.994C5.25299 44.8935 2.90252 47.244 0.00299549 47.244Z"
  />
  <path
    d="M45.1065 28.4645L49.517 32.8749C49.6555 33.0134 49.8367 33.1013 50.0311 33.1245C50.2257 33.1478 50.4223 33.105 50.5897 33.0032C52.3245 31.9566 54.3254 31.4346 56.3506 31.5003C58.3758 31.566 60.3385 32.2165 62.002 33.3734C63.025 34.0855 63.9134 34.9738 64.6255 35.9969C65.781 37.6614 66.4309 39.6242 66.4971 41.6494C66.5633 43.6746 66.0429 45.6758 64.9986 47.4122C64.8975 47.5792 64.8552 47.7752 64.8784 47.9692C64.9016 48.163 64.9891 48.3436 65.1269 48.482L69.5373 52.8923C69.6261 52.9817 69.7332 53.0509 69.8512 53.095C69.9692 53.1393 70.0954 53.1573 70.2211 53.1483C70.3468 53.1391 70.469 53.103 70.5794 53.0422C70.6898 52.9814 70.7858 52.8975 70.8607 52.7962C73.247 49.5161 74.4803 45.5383 74.368 41.4836C74.2556 37.4289 72.8041 33.5255 70.2398 30.3826C69.457 29.421 68.5779 28.5419 67.6163 27.7591C64.4736 25.1955 60.5708 23.7444 56.5167 23.632C52.4626 23.5197 48.4855 24.7526 45.2057 27.1382C45.1036 27.2129 45.019 27.3088 44.9578 27.4193C44.8964 27.5299 44.8598 27.6524 44.8503 27.7785C44.8408 27.9045 44.8589 28.0312 44.9031 28.1496C44.9474 28.268 45.0168 28.3755 45.1065 28.4645Z"
  />
  <path
    d="M45.1103 55.5161L49.5208 51.1057C49.6593 50.9672 49.8405 50.8794 50.0349 50.8561C50.2294 50.8328 50.4261 50.8755 50.5935 50.9773C52.2293 51.9641 54.1035 52.4858 56.0139 52.4858C57.9244 52.4858 59.7986 51.9641 61.4344 50.9773C61.6017 50.8755 61.7984 50.8328 61.993 50.8561C62.1875 50.8794 62.3685 50.9672 62.5071 51.1057L66.9176 55.5161C67.01 55.6049 67.0818 55.7132 67.1278 55.8329C67.1739 55.9527 67.1929 56.0811 67.1837 56.2091C67.1746 56.3371 67.1373 56.4614 67.0747 56.5734C67.0121 56.6854 66.9256 56.7822 66.8214 56.8569C63.6819 59.1412 59.8993 60.3716 56.0168 60.3716C52.1344 60.3716 48.3518 59.1412 45.2123 56.8569C45.1077 56.7827 45.0207 56.6862 44.9575 56.5744C44.8944 56.4627 44.8566 56.3385 44.8468 56.2105C44.8371 56.0825 44.8557 55.9539 44.9011 55.834C44.9468 55.714 45.0181 55.6054 45.1103 55.5161Z"
  />
  <path
    d="M56.003 47.244C53.1036 47.244 50.753 44.8935 50.753 41.994C50.753 39.0946 53.1036 36.744 56.003 36.744C58.9025 36.744 61.253 39.0946 61.253 41.994C61.253 44.8935 58.9025 47.244 56.003 47.244Z"
  />
  <path
    d="M45.8935 7.4645L41.483 11.8749C41.3445 12.0134 41.1633 12.1013 40.9689 12.1245C40.7743 12.1478 40.5777 12.105 40.4103 12.0032C38.6755 10.9566 36.6746 10.4346 34.6494 10.5003C32.6242 10.566 30.6615 11.2165 28.998 12.3734C27.975 13.0855 27.0866 13.9738 26.3745 14.9969C25.219 16.6614 24.5691 18.6242 24.5029 20.6494C24.4367 22.6746 24.957 24.6758 26.0014 26.4122C26.1025 26.5792 26.1448 26.7752 26.1216 26.9692C26.0983 27.163 26.0109 27.3435 25.8731 27.482L21.4627 31.8923C21.3739 31.9817 21.2668 32.0509 21.1488 32.095C21.0308 32.1393 20.9046 32.1573 20.7789 32.1483C20.6532 32.1391 20.531 32.103 20.4206 32.0422C20.3102 31.9814 20.2142 31.8975 20.1393 31.7961C17.753 28.5161 16.5197 24.5383 16.632 20.4836C16.7444 16.4289 18.1959 12.5255 20.7602 9.38257C21.543 8.42097 22.4221 7.54189 23.3837 6.75906C26.5264 4.19551 30.4292 2.74437 34.4833 2.63205C38.5373 2.51973 42.5145 3.75255 45.7943 6.13816C45.8964 6.21286 45.9809 6.3088 46.0422 6.41934C46.1036 6.52989 46.1402 6.65241 46.1497 6.77848C46.1592 6.90455 46.1411 7.03117 46.0969 7.1496C46.0526 7.26803 45.9832 7.37547 45.8935 7.4645Z"
  />
  <path
    d="M45.8897 34.5161L41.4792 30.1057C41.3407 29.9672 41.1595 29.8794 40.9651 29.8561C40.7706 29.8328 40.5739 29.8755 40.4065 29.9773C38.7707 30.9641 36.8965 31.4858 34.9861 31.4858C33.0756 31.4858 31.2014 30.9641 29.5656 29.9773C29.3983 29.8755 29.2016 29.8328 29.007 29.8561C28.8125 29.8794 28.6315 29.9672 28.4929 30.1057L24.0824 34.5161C23.9899 34.6049 23.9182 34.7132 23.8722 34.8329C23.8261 34.9527 23.8071 35.0811 23.8163 35.2091C23.8254 35.3371 23.8626 35.4614 23.9253 35.5734C23.9879 35.6854 24.0744 35.7822 24.1786 35.8569C27.3181 38.1412 31.1007 39.3716 34.9832 39.3716C38.8656 39.3716 42.6482 38.1412 45.7877 35.8569C45.8923 35.7827 45.9793 35.6862 46.0425 35.5744C46.1056 35.4627 46.1434 35.3385 46.1532 35.2105C46.1629 35.0825 46.1443 34.9539 46.0989 34.834C46.0532 34.714 45.9819 34.6054 45.8897 34.5161Z"
  />
  <path
    d="M34.997 26.244C37.8964 26.244 40.247 23.8935 40.247 20.994C40.247 18.0946 37.8964 15.744 34.997 15.744C32.0975 15.744 29.747 18.0946 29.747 20.994C29.747 23.8935 32.0975 26.244 34.997 26.244Z"
  />
  <path
    d="M-10.8935 -13.5355L-6.48304 -9.12508C-6.34447 -8.98664 -6.16334 -8.89874 -5.96889 -8.87548C-5.77429 -8.85223 -5.5777 -8.89496 -5.41035 -8.99681C-3.67546 -10.0434 -1.67461 -10.5654 0.350573 -10.4997C2.37576 -10.434 4.33849 -9.78347 6.00196 -8.6266C7.02502 -7.91449 7.91335 -7.02616 8.62548 -6.00309C9.78097 -4.33862 10.4309 -2.37576 10.4971 -0.350574C10.5633 1.67461 10.0429 3.67576 8.99861 5.41218C8.89748 5.57923 8.85516 5.77521 8.87841 5.9692C8.90165 6.16304 8.98912 6.34355 9.12687 6.48196L13.5373 10.8923C13.6261 10.9817 13.7332 11.0509 13.8512 11.095C13.9692 11.1393 14.0954 11.1573 14.2211 11.1483C14.3468 11.1391 14.469 11.103 14.5794 11.0422C14.6898 10.9814 14.7858 10.8975 14.8607 10.7961C17.247 7.51607 18.4803 3.53827 18.368 -0.516392C18.2556 -4.57108 16.8041 -8.47452 14.2398 -11.6174C13.457 -12.579 12.5779 -13.4581 11.6163 -14.2409C8.47363 -16.8045 4.57076 -18.2556 0.516696 -18.368C-3.53735 -18.4803 -7.51454 -17.2474 -10.7943 -14.8618C-10.8964 -14.7871 -10.981 -14.6912 -11.0422 -14.5807C-11.1036 -14.4701 -11.1402 -14.3476 -11.1497 -14.2215C-11.1592 -14.0955 -11.1411 -13.9688 -11.0969 -13.8504C-11.0526 -13.732 -10.9832 -13.6245 -10.8935 -13.5355Z"
  />
  <path
    d="M-10.8897 13.5161L-6.47923 9.10565C-6.34066 8.96724 -6.15953 8.87936 -5.96508 8.85608C-5.77063 8.83281 -5.57388 8.87553 -5.40654 8.97735C-3.77071 9.96414 -1.89649 10.4858 0.0138683 10.4858C1.92438 10.4858 3.79857 9.96414 5.43441 8.97735C5.60174 8.87553 5.79843 8.83281 5.99295 8.85608C6.18747 8.87936 6.36853 8.96724 6.50713 9.10565L10.9176 13.5161C11.01 13.6049 11.0818 13.7132 11.1278 13.8329C11.1738 13.9527 11.1929 14.0811 11.1837 14.2091C11.1746 14.3371 11.1373 14.4614 11.0747 14.5734C11.0121 14.6854 10.9256 14.7822 10.8214 14.8569C7.68191 17.1412 3.89931 18.3716 0.016777 18.3716C-3.86564 18.3716 -7.64822 17.1412 -10.7877 14.8569C-10.8923 14.7827 -10.9793 14.6862 -11.0425 14.5744C-11.1056 14.4627 -11.1434 14.3385 -11.1532 14.2105C-11.1629 14.0825 -11.1443 13.9539 -11.0989 13.834C-11.0532 13.714 -10.9819 13.6054 -10.8897 13.5161Z"
  />
  <path
    d="M0.00299549 5.24402C-2.89638 5.24402 -5.24701 2.89352 -5.24701 -0.00602722C-5.24701 -2.90543 -2.89638 -5.25598 0.00299549 -5.25598C2.90252 -5.25598 5.25299 -2.90543 5.25299 -0.00602722C5.25299 2.89352 2.90252 5.24402 0.00299549 5.24402Z"
  />
  <path
    d="M45.1065 -13.5355L49.517 -9.12508C49.6555 -8.98664 49.8367 -8.89874 50.0311 -8.87548C50.2257 -8.85223 50.4223 -8.89496 50.5897 -8.99681C52.3245 -10.0434 54.3254 -10.5654 56.3506 -10.4997C58.3758 -10.434 60.3385 -9.78347 62.002 -8.6266C63.025 -7.91449 63.9134 -7.02616 64.6255 -6.00309C65.781 -4.33862 66.4309 -2.37576 66.4971 -0.350574C66.5633 1.67461 66.0429 3.67576 64.9986 5.41218C64.8975 5.57923 64.8552 5.77521 64.8784 5.9692C64.9016 6.16304 64.9891 6.34355 65.1269 6.48196L69.5373 10.8923C69.6261 10.9817 69.7332 11.0509 69.8512 11.095C69.9692 11.1393 70.0954 11.1573 70.2211 11.1483C70.3468 11.1391 70.469 11.103 70.5794 11.0422C70.6898 10.9814 70.7858 10.8975 70.8607 10.7961C73.247 7.51607 74.4803 3.53827 74.368 -0.516392C74.2556 -4.57108 72.8041 -8.47452 70.2398 -11.6174C69.457 -12.579 68.5779 -13.4581 67.6163 -14.2409C64.4736 -16.8045 60.5708 -18.2556 56.5167 -18.368C52.4626 -18.4803 48.4855 -17.2474 45.2057 -14.8618C45.1036 -14.7871 45.019 -14.6912 44.9578 -14.5807C44.8964 -14.4701 44.8598 -14.3476 44.8503 -14.2215C44.8408 -14.0955 44.8589 -13.9688 44.9031 -13.8504C44.9474 -13.732 45.0168 -13.6245 45.1065 -13.5355Z"
  />
  <path
    d="M45.1103 13.5161L49.5208 9.10565C49.6593 8.96724 49.8405 8.87936 50.0349 8.85608C50.2294 8.83281 50.4261 8.87553 50.5935 8.97735C52.2293 9.96414 54.1035 10.4858 56.0139 10.4858C57.9244 10.4858 59.7986 9.96414 61.4344 8.97735C61.6017 8.87553 61.7984 8.83281 61.993 8.85608C62.1875 8.87936 62.3685 8.96724 62.5071 9.10565L66.9176 13.5161C67.01 13.6049 67.0818 13.7132 67.1278 13.8329C67.1739 13.9527 67.1929 14.0811 67.1837 14.2091C67.1746 14.3371 67.1373 14.4614 67.0747 14.5734C67.0121 14.6854 66.9256 14.7822 66.8214 14.8569C63.6819 17.1412 59.8993 18.3716 56.0168 18.3716C52.1344 18.3716 48.3518 17.1412 45.2123 14.8569C45.1077 14.7827 45.0207 14.6862 44.9575 14.5744C44.8944 14.4627 44.8566 14.3385 44.8468 14.2105C44.8371 14.0825 44.8557 13.9539 44.9011 13.834C44.9468 13.714 45.0181 13.6054 45.1103 13.5161Z"
  />
  <path
    d="M56.003 5.24402C53.1036 5.24402 50.753 2.89352 50.753 -0.00602722C50.753 -2.90543 53.1036 -5.25598 56.003 -5.25598C58.9025 -5.25598 61.253 -2.90543 61.253 -0.00602722C61.253 2.89352 58.9025 5.24402 56.003 5.24402Z"
  />
  <path
    d="M-10.8935 28.4645L-6.48304 32.8749C-6.34447 33.0134 -6.16334 33.1013 -5.96889 33.1245C-5.77429 33.1478 -5.5777 33.105 -5.41035 33.0032C-3.67546 31.9566 -1.67461 31.4346 0.350573 31.5003C2.37576 31.566 4.33849 32.2165 6.00196 33.3734C7.02502 34.0855 7.91335 34.9738 8.62548 35.9969C9.78097 37.6614 10.4309 39.6242 10.4971 41.6494C10.5633 43.6746 10.0429 45.6758 8.99861 47.4122C8.89748 47.5792 8.85516 47.7752 8.87841 47.9692C8.90165 48.163 8.98912 48.3436 9.12687 48.482L13.5373 52.8923C13.6261 52.9817 13.7332 53.0509 13.8512 53.095C13.9692 53.1393 14.0954 53.1573 14.2211 53.1483C14.3468 53.1391 14.469 53.103 14.5794 53.0422C14.6898 52.9814 14.7858 52.8975 14.8607 52.7962C17.247 49.5161 18.4803 45.5383 18.368 41.4836C18.2556 37.4289 16.8041 33.5255 14.2398 30.3826C13.457 29.421 12.5779 28.5419 11.6163 27.7591C8.47363 25.1955 4.57076 23.7444 0.516696 23.632C-3.53735 23.5197 -7.51454 24.7526 -10.7943 27.1382C-10.8964 27.2129 -10.981 27.3088 -11.0422 27.4193C-11.1036 27.5299 -11.1402 27.6524 -11.1497 27.7785C-11.1592 27.9045 -11.1411 28.0312 -11.0969 28.1496C-11.0526 28.268 -10.9832 28.3755 -10.8935 28.4645Z"
  />
  <path
    d="M-10.8897 55.5161L-6.47923 51.1057C-6.34066 50.9672 -6.15953 50.8794 -5.96508 50.8561C-5.77063 50.8328 -5.57388 50.8755 -5.40654 50.9773C-3.77071 51.9641 -1.89649 52.4858 0.0138683 52.4858C1.92438 52.4858 3.79857 51.9641 5.43441 50.9773C5.60174 50.8755 5.79843 50.8328 5.99295 50.8561C6.18747 50.8794 6.36853 50.9672 6.50713 51.1057L10.9176 55.5161C11.01 55.6049 11.0818 55.7132 11.1278 55.8329C11.1738 55.9527 11.1929 56.0811 11.1837 56.2091C11.1746 56.3371 11.1373 56.4614 11.0747 56.5734C11.0121 56.6854 10.9256 56.7822 10.8214 56.8569C7.68191 59.1412 3.89931 60.3716 0.016777 60.3716C-3.86564 60.3716 -7.64822 59.1412 -10.7877 56.8569C-10.8923 56.7827 -10.9793 56.6862 -11.0425 56.5744C-11.1056 56.4627 -11.1434 56.3385 -11.1532 56.2105C-11.1629 56.0825 -11.1443 55.9539 -11.0989 55.834C-11.0532 55.714 -10.9819 55.6054 -10.8897 55.5161Z"
  />
  <path
    d="M0.00299549 47.244C-2.89638 47.244 -5.24701 44.8935 -5.24701 41.994C-5.24701 39.0946 -2.89638 36.744 0.00299549 36.744C2.90252 36.744 5.25299 39.0946 5.25299 41.994C5.25299 44.8935 2.90252 47.244 0.00299549 47.244Z"
  />
  <path
    d="M45.1065 28.4645L49.517 32.8749C49.6555 33.0134 49.8367 33.1013 50.0311 33.1245C50.2257 33.1478 50.4223 33.105 50.5897 33.0032C52.3245 31.9566 54.3254 31.4346 56.3506 31.5003C58.3758 31.566 60.3385 32.2165 62.002 33.3734C63.025 34.0855 63.9134 34.9738 64.6255 35.9969C65.781 37.6614 66.4309 39.6242 66.4971 41.6494C66.5633 43.6746 66.0429 45.6758 64.9986 47.4122C64.8975 47.5792 64.8552 47.7752 64.8784 47.9692C64.9016 48.163 64.9891 48.3436 65.1269 48.482L69.5373 52.8923C69.6261 52.9817 69.7332 53.0509 69.8512 53.095C69.9692 53.1393 70.0954 53.1573 70.2211 53.1483C70.3468 53.1391 70.469 53.103 70.5794 53.0422C70.6898 52.9814 70.7858 52.8975 70.8607 52.7962C73.247 49.5161 74.4803 45.5383 74.368 41.4836C74.2556 37.4289 72.8041 33.5255 70.2398 30.3826C69.457 29.421 68.5779 28.5419 67.6163 27.7591C64.4736 25.1955 60.5708 23.7444 56.5167 23.632C52.4626 23.5197 48.4855 24.7526 45.2057 27.1382C45.1036 27.2129 45.019 27.3088 44.9578 27.4193C44.8964 27.5299 44.8598 27.6524 44.8503 27.7785C44.8408 27.9045 44.8589 28.0312 44.9031 28.1496C44.9474 28.268 45.0168 28.3755 45.1065 28.4645Z"
  />
  <path
    d="M45.1103 55.5161L49.5208 51.1057C49.6593 50.9672 49.8405 50.8794 50.0349 50.8561C50.2294 50.8328 50.4261 50.8755 50.5935 50.9773C52.2293 51.9641 54.1035 52.4858 56.0139 52.4858C57.9244 52.4858 59.7986 51.9641 61.4344 50.9773C61.6017 50.8755 61.7984 50.8328 61.993 50.8561C62.1875 50.8794 62.3685 50.9672 62.5071 51.1057L66.9176 55.5161C67.01 55.6049 67.0818 55.7132 67.1278 55.8329C67.1739 55.9527 67.1929 56.0811 67.1837 56.2091C67.1746 56.3371 67.1373 56.4614 67.0747 56.5734C67.0121 56.6854 66.9256 56.7822 66.8214 56.8569C63.6819 59.1412 59.8993 60.3716 56.0168 60.3716C52.1344 60.3716 48.3518 59.1412 45.2123 56.8569C45.1077 56.7827 45.0207 56.6862 44.9575 56.5744C44.8944 56.4627 44.8566 56.3385 44.8468 56.2105C44.8371 56.0825 44.8557 55.9539 44.9011 55.834C44.9468 55.714 45.0181 55.6054 45.1103 55.5161Z"
  />
  <path
    d="M56.003 47.244C53.1036 47.244 50.753 44.8935 50.753 41.994C50.753 39.0946 53.1036 36.744 56.003 36.744C58.9025 36.744 61.253 39.0946 61.253 41.994C61.253 44.8935 58.9025 47.244 56.003 47.244Z"
  />
</svg>
