<svg width="300" height="300" viewBox="0 0 300 300" fill="none" xmlns="http://www.w3.org/2000/svg">
<g clip-path="url(#clip0_423_1347)">
<rect width="300" height="300" rx="24" fill="#F5F6F7"/>
<g filter="url(#filter0_f_423_1347)">
<ellipse cx="150" cy="62" rx="384" ry="200" fill="white"/>
</g>
<g clip-path="url(#clip1_423_1347)">
<mask id="mask0_423_1347" style="mask-type:alpha" maskUnits="userSpaceOnUse" x="-322" y="-707" width="1512" height="1512">
<rect x="-322" y="312" width="1440" height="697" transform="rotate(-45 -322 312)" fill="url(#paint0_radial_423_1347)"/>
</mask>
<g mask="url(#mask0_423_1347)">
<path d="M366.723 5.11447L266.437 105.4L205.725 166.113C204.224 167.613 203.382 169.648 203.381 171.77L203.38 336.971C203.38 339.092 202.537 341.127 201.037 342.627L157.065 386.6" stroke="#747686" stroke-opacity="0.12"/>
<rect opacity="0.04" x="285.405" y="116.131" width="2" height="2" transform="rotate(135 285.405 116.131)" fill="#2B2B31"/>
<rect opacity="0.04" x="274.091" y="101.989" width="2" height="2" transform="rotate(-45 274.091 101.989)" fill="#2B2B31"/>
<rect opacity="0.04" width="2" height="2" transform="matrix(-0.707107 0.707107 0.707107 0.707107 295.304 109.06)" fill="#2B2B31"/>
<rect opacity="0.04" width="2" height="2" transform="matrix(0.707107 -0.707107 -0.707107 -0.707107 300.961 100.575)" fill="#2B2B31"/>
<rect opacity="0.1" x="282.576" y="113.303" width="2" height="2" transform="rotate(135 282.576 113.303)" fill="#2B2B31"/>
<rect opacity="0.1" x="276.919" y="104.818" width="2" height="2" transform="rotate(-45 276.919 104.818)" fill="#2B2B31"/>
<rect opacity="0.1" width="2" height="2" transform="matrix(-0.707107 0.707107 0.707107 0.707107 298.133 111.889)" fill="#2B2B31"/>
<rect opacity="0.1" width="2" height="2" transform="matrix(0.707107 -0.707107 -0.707107 -0.707107 298.133 97.7467)" fill="#2B2B31"/>
<rect opacity="0.04" x="279.748" y="110.475" width="2" height="2" transform="rotate(135 279.748 110.475)" fill="#2B2B31"/>
<rect opacity="0.04" x="279.748" y="107.646" width="2" height="2" transform="rotate(-45 279.748 107.646)" fill="#2B2B31"/>
<rect opacity="0.04" width="2" height="2" transform="matrix(-0.707107 0.707107 0.707107 0.707107 300.961 114.717)" fill="#2B2B31"/>
<rect opacity="0.04" width="2" height="2" transform="matrix(0.707107 -0.707107 -0.707107 -0.707107 295.304 94.9183)" fill="#2B2B31"/>
<rect opacity="0.1" x="276.919" y="107.646" width="2" height="2" transform="rotate(135 276.919 107.646)" fill="#2B2B31"/>
<rect opacity="0.1" width="2" height="2" transform="matrix(0.707107 -0.707107 -0.707107 -0.707107 300.961 111.889)" fill="#2B2B31"/>
<rect opacity="0.1" x="282.576" y="110.475" width="2" height="2" transform="rotate(-45 282.576 110.475)" fill="#2B2B31"/>
<rect opacity="0.1" width="2" height="2" transform="matrix(0.707107 -0.707107 -0.707107 -0.707107 292.476 92.0898)" fill="#2B2B31"/>
<rect opacity="0.04" x="274.091" y="104.818" width="2" height="2" transform="rotate(135 274.091 104.818)" fill="#2B2B31"/>
<rect opacity="0.04" width="2" height="2" transform="matrix(0.707107 -0.707107 -0.707107 -0.707107 298.133 109.06)" fill="#2B2B31"/>
<rect opacity="0.04" x="285.405" y="113.303" width="2" height="2" transform="rotate(-45 285.405 113.303)" fill="#2B2B31"/>
<rect opacity="0.04" width="2" height="2" transform="matrix(0.707107 -0.707107 -0.707107 -0.707107 289.647 89.2614)" fill="#2B2B31"/>
<rect opacity="0.24" x="276.919" y="99.1609" width="2" height="2" transform="rotate(-45 276.919 99.1609)" fill="#2B2B31"/>
<rect opacity="0.24" width="2" height="2" transform="matrix(-0.707107 0.707107 0.707107 0.707107 292.476 111.889)" fill="#2B2B31"/>
<rect opacity="0.04" x="279.748" y="101.989" width="2" height="2" transform="rotate(-45 279.748 101.989)" fill="#2B2B31"/>
<rect opacity="0.04" width="2" height="2" transform="matrix(-0.707107 0.707107 0.707107 0.707107 295.304 114.717)" fill="#2B2B31"/>
<rect opacity="0.04" width="2" height="2" transform="matrix(0.707107 -0.707107 -0.707107 -0.707107 300.961 94.9183)" fill="#2B2B31"/>
<rect opacity="0.04" x="282.576" y="104.818" width="2" height="2" transform="rotate(-45 282.576 104.818)" fill="#2B2B31"/>
<rect opacity="0.04" width="2" height="2" transform="matrix(-0.707107 0.707107 0.707107 0.707107 298.133 117.546)" fill="#2B2B31"/>
<rect opacity="0.04" width="2" height="2" transform="matrix(0.707107 -0.707107 -0.707107 -0.707107 298.133 92.0898)" fill="#2B2B31"/>
<rect opacity="0.1" x="285.405" y="107.646" width="2" height="2" transform="rotate(-45 285.405 107.646)" fill="#2B2B31"/>
<rect opacity="0.1" width="2" height="2" transform="matrix(-0.707107 0.707107 0.707107 0.707107 300.961 120.374)" fill="#2B2B31"/>
<rect opacity="0.1" width="2" height="2" transform="matrix(0.707107 -0.707107 -0.707107 -0.707107 295.304 89.2614)" fill="#2B2B31"/>
<rect opacity="0.04" x="288.233" y="110.475" width="2" height="2" transform="rotate(-45 288.233 110.475)" fill="#2B2B31"/>
<rect opacity="0.04" width="2" height="2" transform="matrix(0.707107 -0.707107 -0.707107 -0.707107 292.476 86.433)" fill="#2B2B31"/>
<rect opacity="0.1" x="279.748" y="96.3325" width="2" height="2" transform="rotate(-45 279.748 96.3325)" fill="#2B2B31"/>
<rect opacity="0.1" width="2" height="2" transform="matrix(-0.707107 0.707107 0.707107 0.707107 289.647 114.717)" fill="#2B2B31"/>
<rect opacity="0.04" x="282.576" y="99.1609" width="2" height="2" transform="rotate(-45 282.576 99.1609)" fill="#2B2B31"/>
<rect opacity="0.04" width="2" height="2" transform="matrix(-0.707107 0.707107 0.707107 0.707107 292.476 117.546)" fill="#2B2B31"/>
<rect opacity="0.04" x="285.405" y="101.989" width="2" height="2" transform="rotate(-45 285.405 101.989)" fill="#2B2B31"/>
<rect opacity="0.04" width="2" height="2" transform="matrix(-0.707107 0.707107 0.707107 0.707107 295.304 120.374)" fill="#2B2B31"/>
<rect opacity="0.04" width="2" height="2" transform="matrix(0.707107 -0.707107 -0.707107 -0.707107 300.961 89.2614)" fill="#2B2B31"/>
<rect opacity="0.13" x="288.233" y="104.818" width="2" height="2" transform="rotate(-45 288.233 104.818)" fill="#2B2B31"/>
<rect opacity="0.13" width="2" height="2" transform="matrix(-0.707107 0.707107 0.707107 0.707107 298.133 123.203)" fill="#2B2B31"/>
<rect opacity="0.13" width="2" height="2" transform="matrix(0.707107 -0.707107 -0.707107 -0.707107 298.133 86.433)" fill="#2B2B31"/>
<rect opacity="0.04" x="291.062" y="107.646" width="2" height="2" transform="rotate(-45 291.062 107.646)" fill="#2B2B31"/>
<rect opacity="0.04" width="2" height="2" transform="matrix(-0.707107 0.707107 0.707107 0.707107 300.961 126.031)" fill="#2B2B31"/>
<rect opacity="0.04" width="2" height="2" transform="matrix(0.707107 -0.707107 -0.707107 -0.707107 295.304 83.6046)" fill="#2B2B31"/>
<rect opacity="0.24" x="282.576" y="93.504" width="2" height="2" transform="rotate(-45 282.576 93.504)" fill="#2B2B31"/>
<rect opacity="0.24" width="2" height="2" transform="matrix(-0.707107 0.707107 0.707107 0.707107 286.819 117.546)" fill="#2B2B31"/>
<rect opacity="0.24" width="2" height="2" transform="matrix(-0.707107 0.707107 0.707107 0.707107 300.961 131.688)" fill="#2B2B31"/>
<rect opacity="0.04" x="285.405" y="96.3325" width="2" height="2" transform="rotate(-45 285.405 96.3325)" fill="#2B2B31"/>
<rect opacity="0.04" width="2" height="2" transform="matrix(-0.707107 0.707107 0.707107 0.707107 289.647 120.374)" fill="#2B2B31"/>
<rect opacity="0.1" x="288.233" y="99.1609" width="2" height="2" transform="rotate(-45 288.233 99.1609)" fill="#2B2B31"/>
<rect opacity="0.1" width="2" height="2" transform="matrix(-0.707107 0.707107 0.707107 0.707107 292.476 123.203)" fill="#2B2B31"/>
<rect opacity="0.04" x="291.062" y="101.989" width="2" height="2" transform="rotate(-45 291.062 101.989)" fill="#2B2B31"/>
<rect opacity="0.04" width="2" height="2" transform="matrix(-0.707107 0.707107 0.707107 0.707107 295.304 126.031)" fill="#2B2B31"/>
<rect opacity="0.04" width="2" height="2" transform="matrix(0.707107 -0.707107 -0.707107 -0.707107 300.961 83.6046)" fill="#2B2B31"/>
<rect opacity="0.1" x="293.89" y="104.818" width="2" height="2" transform="rotate(-45 293.89 104.818)" fill="#2B2B31"/>
<rect opacity="0.1" width="2" height="2" transform="matrix(-0.707107 0.707107 0.707107 0.707107 298.133 128.859)" fill="#2B2B31"/>
<rect opacity="0.1" width="2" height="2" transform="matrix(0.707107 -0.707107 -0.707107 -0.707107 298.133 80.7761)" fill="#2B2B31"/>
<rect opacity="0.04" x="285.405" y="90.6756" width="2" height="2" transform="rotate(-45 285.405 90.6756)" fill="#2B2B31"/>
<rect opacity="0.04" x="288.233" y="93.504" width="2" height="2" transform="rotate(-45 288.233 93.504)" fill="#2B2B31"/>
<rect opacity="0.04" x="291.062" y="96.3325" width="2" height="2" transform="rotate(-45 291.062 96.3325)" fill="#2B2B31"/>
<rect opacity="0.04" x="293.89" y="99.1609" width="2" height="2" transform="rotate(-45 293.89 99.1609)" fill="#2B2B31"/>
<rect opacity="0.1" x="296.718" y="101.989" width="2" height="2" transform="rotate(-45 296.718 101.989)" fill="#2B2B31"/>
<rect opacity="0.04" x="299.547" y="104.818" width="2" height="2" transform="rotate(-45 299.547 104.818)" fill="#2B2B31"/>
<rect opacity="0.1" width="2" height="2" transform="matrix(0.707107 -0.707107 -0.707107 -0.707107 300.961 77.9477)" fill="#2B2B31"/>
<path opacity="0.2" d="M211.159 -28.8254L307.325 67.3409" stroke="#9091A0" stroke-width="2"/>
<g filter="url(#filter1_bd_423_1347)">
<path d="M113.578 224.905L113.578 150.194C113.578 149.663 113.788 149.155 114.164 148.78L171.561 91.3827C172.342 90.6016 173.608 90.6016 174.389 91.3827L242.978 159.972C243.759 160.753 243.759 162.019 242.978 162.8L148.226 257.553C147.445 258.334 146.179 258.334 145.398 257.553L114.164 226.319C113.788 225.944 113.578 225.435 113.578 224.905Z" fill="#B7B8C2" fill-opacity="0.06" shape-rendering="crispEdges"/>
<path d="M113.578 224.905L113.578 150.194C113.578 149.663 113.788 149.155 114.164 148.78L171.561 91.3827C172.342 90.6016 173.608 90.6016 174.389 91.3827L242.978 159.972C243.759 160.753 243.759 162.019 242.978 162.8L148.226 257.553C147.445 258.334 146.179 258.334 145.398 257.553L114.164 226.319C113.788 225.944 113.578 225.435 113.578 224.905Z" stroke="#EEEEF0" shape-rendering="crispEdges"/>
</g>
<path opacity="0.12" d="M233.079 138.759L123.477 29.1573" stroke="#9091A0"/>
<path opacity="0.12" d="M169.439 32.6928L182.299 45.5525C183.799 47.0528 185.834 47.8956 187.956 47.8956H236.968" stroke="#9091A0"/>
<path opacity="0.12" d="M148.933 24.9147L138.326 14.3081" stroke="#9091A0"/>
<path opacity="0.12" d="M155.297 18.5507L144.69 7.94412" stroke="#9091A0"/>
<path opacity="0.12" d="M247.928 123.91L163.075 39.0568" stroke="#9091A0"/>
<path opacity="0.12" d="M161.661 12.1867L151.054 1.58011" stroke="#9091A0"/>
<path opacity="0.12" d="M197.016 47.542L175.803 26.3288" stroke="#9091A0"/>
<path d="M257.12 -104.486L366.722 5.11566" stroke="#D9DADD" stroke-opacity="0.4"/>
<path opacity="0.12" d="M170.146 12.1867L229.543 -47.2103C232.667 -50.3345 237.733 -50.3345 240.857 -47.2103L258.535 -29.5326" stroke="#9091A0"/>
<path opacity="0.12" d="M175.803 17.8436L180.223 13.4241C181.785 11.8621 184.317 11.8621 185.879 13.4241L220.351 47.8956" stroke="#9091A0"/>
<path opacity="0.12" d="M346.216 285.837L286.819 345.234" stroke="#9091A0"/>
<path opacity="0.12" d="M340.559 280.18L281.162 339.577" stroke="#9091A0"/>
<path opacity="0.12" d="M290.354 128.152L203.38 215.126" stroke="#9091A0"/>
<path opacity="0.12" d="M206.916 112.596L114.164 205.348C113.788 205.723 113.578 206.232 113.578 206.762V222.833C113.578 224.69 114.315 226.47 115.628 227.783L175.803 287.958" stroke="#9091A0"/>
<path opacity="0.12" d="M148.933 33.3999L138.326 44.0065" stroke="#9091A0"/>
<path opacity="0.12" d="M155.297 38.3497L143.983 49.6634" stroke="#9091A0"/>
<path opacity="0.12" d="M335.609 139.466L267.727 207.348" stroke="#9091A0"/>
<path opacity="0.12" d="M257.12 -104.486L123.477 29.1573" stroke="#9091A0"/>
<path opacity="0.12" d="M329.952 133.809L267.727 196.034C264.603 199.159 264.603 204.224 267.727 207.348L373.44 313.061" stroke="#9091A0"/>
<path opacity="0.12" d="M202.673 261.088L284.698 343.113" stroke="#9091A0"/>
<g filter="url(#filter2_ddddd_423_1347)">
<rect x="293.183" y="65.9269" width="18" height="18" rx="4" transform="rotate(-45 293.183 65.9269)" fill="#F5F6F7"/>
<rect x="293.183" y="65.9269" width="18" height="18" rx="4" transform="rotate(-45 293.183 65.9269)" fill="url(#paint1_linear_423_1347)"/>
</g>
<g filter="url(#filter3_d_423_1347)">
<rect x="296.011" y="65.9269" width="14" height="14" rx="2" transform="rotate(-45 296.011 65.9269)" fill="#404750" fill-opacity="0.02" shape-rendering="crispEdges"/>
<rect x="296.718" y="65.9269" width="13" height="13" rx="1.5" transform="rotate(-45 296.718 65.9269)" stroke="#404750" stroke-opacity="0.08" shape-rendering="crispEdges"/>
</g>
<g filter="url(#filter4_ddddd_423_1347)">
<rect x="194.188" y="261.088" width="12" height="12" rx="3" transform="rotate(-45 194.188 261.088)" fill="#F5F6F7"/>
<rect x="194.188" y="261.088" width="12" height="12" rx="3" transform="rotate(-45 194.188 261.088)" fill="url(#paint2_linear_423_1347)"/>
</g>
<g filter="url(#filter5_i_423_1347)">
<rect width="6" height="6" rx="0.5" transform="matrix(0.707107 -0.707107 -0.707107 -0.707107 202.673 265.331)" fill="#E8E9ED"/>
</g>
<path opacity="0.12" d="M145.398 96.1253C145.674 96.1253 145.898 95.9015 145.898 95.6253C145.898 95.3492 145.674 95.1253 145.398 95.1253L145.398 96.1253ZM70.2224 95.6253L70.2224 96.1253L70.2224 95.6253ZM-50.1175 213.359L64.9191 98.322L64.212 97.6149L-50.8246 212.652L-50.1175 213.359ZM70.2224 96.1253L145.398 96.1253L145.398 95.1253L70.2224 95.1253L70.2224 96.1253ZM64.9191 98.322C66.3256 96.9155 68.2333 96.1253 70.2224 96.1253L70.2224 95.1253C67.9681 95.1253 65.8061 96.0209 64.212 97.6149L64.9191 98.322Z" fill="#9091A0"/>
<g filter="url(#filter6_ddddd_423_1347)">
<rect x="296.011" y="241.289" width="8" height="8" rx="2" transform="rotate(-45 296.011 241.289)" fill="#F5F6F7"/>
<rect x="296.011" y="241.289" width="8" height="8" rx="2" transform="rotate(-45 296.011 241.289)" fill="url(#paint3_linear_423_1347)"/>
</g>
<g filter="url(#filter7_i_423_1347)">
<rect width="4" height="4" rx="0.5" transform="matrix(0.707107 -0.707107 -0.707107 -0.707107 301.668 244.118)" fill="#E8E9ED"/>
</g>
<rect width="2" height="2.96595" transform="matrix(0.707107 -0.707107 -0.707107 -0.707107 162.368 39.7639)" fill="#B7B8C2"/>
<rect width="2" height="3.0024" transform="matrix(0.707107 -0.707107 -0.707107 -0.707107 150.349 27.7448)" fill="#B7B8C2"/>
<path d="M176.51 18.5507L175.096 17.1364L173.007 19.2256L174.421 20.6398L176.51 18.5507Z" fill="#B7B8C2"/>
<path d="M157.421 37.6398L156.007 36.2256L153.883 38.3496L155.297 39.7639L157.421 37.6398Z" fill="#B7B8C2"/>
<path d="M151.733 32.0142L150.319 30.6L148.226 32.6928L149.64 34.107L151.733 32.0142Z" fill="#B7B8C2"/>
<path d="M170.853 12.8938L169.439 11.4796L167.35 13.5688L168.764 14.983L170.853 12.8938Z" fill="#B7B8C2"/>
<rect width="2" height="2.98034" transform="matrix(0.707107 -0.707107 -0.707107 -0.707107 156.697 21.3651)" fill="#B7B8C2"/>
<rect width="2" height="2.98801" transform="matrix(0.707107 -0.707107 -0.707107 -0.707107 168.732 33.3998)" fill="#B7B8C2"/>
<rect width="2" height="3.00242" transform="matrix(0.707107 -0.707107 -0.707107 -0.707107 163.077 15.0168)" fill="#B7B8C2"/>
<rect width="2" height="2.96593" transform="matrix(0.707107 -0.707107 -0.707107 -0.707107 175.096 27.0359)" fill="#B7B8C2"/>
<g filter="url(#filter8_ddddd_423_1347)">
<rect x="148.933" y="29.1573" width="24" height="14" rx="2" transform="rotate(-45 148.933 29.1573)" fill="url(#paint4_linear_423_1347)"/>
</g>
<rect width="16" height="1" transform="matrix(0.707107 -0.707107 -0.707107 -0.707107 159.54 34.107)" fill="#EBEBED"/>
<rect width="16" height="1" transform="matrix(0.707107 -0.707107 -0.707107 -0.707107 154.59 29.1572)" fill="#EBEBED"/>
<path opacity="0.12" d="M312.982 150.78L239.665 77.4624C238.164 75.9621 237.321 73.9273 237.321 71.8055L237.321 -5.00565C237.321 -7.12738 238.164 -9.16221 239.665 -10.6625L295.304 -66.3021" stroke="#9091A0"/>
<g filter="url(#filter9_iii_423_1347)">
<circle cx="2" cy="2" r="2" transform="matrix(0.707107 -0.707107 -0.707107 -0.707107 267.02 107.646)" fill="#E6E7EA"/>
</g>
<g filter="url(#filter10_iii_423_1347)">
<circle cx="2" cy="2" r="2" transform="matrix(0.707107 -0.707107 -0.707107 -0.707107 267.727 210.177)" fill="#E6E7EA"/>
</g>
<g filter="url(#filter11_iii_423_1347)">
<circle cx="123.477" cy="29.1573" r="2" transform="rotate(-45 123.477 29.1573)" fill="#E6E7EA"/>
</g>
<path opacity="0.2" d="M167.317 72.9987L18.4029 221.913C17.3288 222.987 16.8013 224.491 16.969 226.001L19.3383 247.325C19.4637 248.453 19.9694 249.505 20.7722 250.308L163.732 393.268C164.669 394.205 165.196 395.477 165.196 396.803L165.197 447.279C165.197 449.401 164.354 451.436 162.853 452.936L140.094 475.695C136.97 478.819 131.905 478.819 128.781 475.695L-13.7014 333.213C-16.8256 330.089 -16.8256 325.024 -13.7014 321.9L22.361 285.837" stroke="#9091A0" stroke-width="2"/>
<path opacity="0.2" d="M117.82 345.941L198.431 265.331" stroke="#9091A0" stroke-width="2"/>
<path opacity="0.12" d="M150.701 1.93371V-37.179C150.701 -39.3007 149.858 -41.3356 148.358 -42.8358L136.912 -54.2813" stroke="#9091A0"/>
<path opacity="0.12" d="M-27.8436 99.868L28.2605 155.972C29.0106 156.722 29.4321 157.74 29.4321 158.8L29.4321 207.813C29.4321 208.874 29.8535 209.891 30.6036 210.641L141.155 321.192" stroke="#9091A0"/>
<g filter="url(#filter12_ddddd_423_1347)">
<rect x="109.578" y="209.933" width="8" height="8" rx="2" transform="rotate(-90 109.578 209.933)" fill="#F5F6F7"/>
<rect x="109.578" y="209.933" width="8" height="8" rx="2" transform="rotate(-90 109.578 209.933)" fill="url(#paint5_linear_423_1347)"/>
</g>
<g filter="url(#filter13_i_423_1347)">
<rect width="4" height="4" rx="0.5" transform="matrix(0 -1 -1 0 115.578 207.934)" fill="#E8E9ED"/>
</g>
<circle opacity="0.1" cx="17.4112" cy="121.081" r="9" transform="rotate(-45 17.4112 121.081)" fill="#9091A0"/>
<g filter="url(#filter14_ddddd_423_1347)">
<circle cx="17.4112" cy="121.081" r="6" transform="rotate(-45 17.4112 121.081)" fill="#F5F6F7"/>
<circle cx="17.4112" cy="121.081" r="6" transform="rotate(-45 17.4112 121.081)" fill="url(#paint6_linear_423_1347)"/>
</g>
<g filter="url(#filter15_di_423_1347)">
<path d="M13.8757 123.202C15.0473 122.031 15.0473 120.131 13.8757 118.96L15.2899 117.546C16.4615 118.717 18.361 118.717 19.5326 117.546L20.9468 118.96C19.7752 120.131 19.7752 122.031 20.9468 123.202L19.5326 124.617C18.361 123.445 16.4615 123.445 15.2899 124.617L13.8757 123.202Z" fill="#B7B8C2"/>
</g>
<mask id="mask1_423_1347" style="mask-type:alpha" maskUnits="userSpaceOnUse" x="146" y="37" width="100" height="97">
<path d="M146.812 49.6634L158.833 37.6426L245.1 123.91L236.614 132.395C234.662 134.348 231.496 134.348 229.543 132.395L146.812 49.6634Z" fill="#D9D9D9"/>
</mask>
<g mask="url(#mask1_423_1347)">
<path d="M119.588 37.9962H172.621" stroke="#9091A0" stroke-opacity="0.1"/>
<path d="M122.417 40.8246H175.45" stroke="#9091A0" stroke-opacity="0.1"/>
<path d="M125.245 43.653H178.278" stroke="#9091A0" stroke-opacity="0.1"/>
<path d="M128.073 46.4814H181.106" stroke="#9091A0" stroke-opacity="0.1"/>
<path d="M130.902 49.3098H183.935" stroke="#9091A0" stroke-opacity="0.1"/>
<path d="M133.73 52.1382H186.763" stroke="#9091A0" stroke-opacity="0.1"/>
<path d="M136.559 54.9667H189.592" stroke="#9091A0" stroke-opacity="0.1"/>
<path d="M139.387 57.7951H192.42" stroke="#9091A0" stroke-opacity="0.1"/>
<path d="M142.216 60.6235H195.249" stroke="#9091A0" stroke-opacity="0.1"/>
<path d="M145.044 63.452H198.077" stroke="#9091A0" stroke-opacity="0.1"/>
<path d="M147.872 66.2804H200.905" stroke="#9091A0" stroke-opacity="0.1"/>
<path d="M150.701 69.1088H203.734" stroke="#9091A0" stroke-opacity="0.1"/>
<path d="M153.529 71.9373H206.562" stroke="#9091A0" stroke-opacity="0.1"/>
<path d="M156.358 74.7657H209.391" stroke="#9091A0" stroke-opacity="0.1"/>
<path d="M159.186 77.5941H212.219" stroke="#9091A0" stroke-opacity="0.1"/>
<path d="M162.015 80.4225H215.048" stroke="#9091A0" stroke-opacity="0.1"/>
<path d="M164.843 83.251H217.876" stroke="#9091A0" stroke-opacity="0.1"/>
<path d="M167.671 86.0794H220.704" stroke="#9091A0" stroke-opacity="0.1"/>
<path d="M170.5 88.9078H223.533" stroke="#9091A0" stroke-opacity="0.1"/>
<path d="M173.328 91.7363H226.361" stroke="#9091A0" stroke-opacity="0.1"/>
<path d="M176.157 94.5647H229.19" stroke="#9091A0" stroke-opacity="0.1"/>
<path d="M178.985 97.3931H232.018" stroke="#9091A0" stroke-opacity="0.1"/>
<path d="M181.814 100.221H234.847" stroke="#9091A0" stroke-opacity="0.1"/>
<path d="M184.642 103.05H237.675" stroke="#9091A0" stroke-opacity="0.1"/>
<path d="M187.47 105.878H240.503" stroke="#9091A0" stroke-opacity="0.1"/>
<path d="M190.299 108.707H243.332" stroke="#9091A0" stroke-opacity="0.1"/>
<path d="M193.127 111.535H246.16" stroke="#9091A0" stroke-opacity="0.1"/>
<path d="M195.956 114.364H248.989" stroke="#9091A0" stroke-opacity="0.1"/>
<path d="M198.784 117.192H251.817" stroke="#9091A0" stroke-opacity="0.1"/>
<path d="M201.613 120.021H254.646" stroke="#9091A0" stroke-opacity="0.1"/>
<path d="M204.441 122.849H257.474" stroke="#9091A0" stroke-opacity="0.1"/>
<path d="M207.269 125.677H260.302" stroke="#9091A0" stroke-opacity="0.1"/>
<path d="M210.098 128.506H263.131" stroke="#9091A0" stroke-opacity="0.1"/>
<path d="M212.926 131.334H265.959" stroke="#9091A0" stroke-opacity="0.1"/>
<path d="M215.755 134.163H268.788" stroke="#9091A0" stroke-opacity="0.1"/>
</g>
<path opacity="0.12" d="M-49.0568 214.419L60.5448 324.021C63.669 327.145 68.7343 327.145 71.8585 324.021L82.4651 313.414" stroke="#9091A0"/>
<path opacity="0.12" d="M-50.471 213.005L-165.851 328.385C-166.226 328.76 -166.437 329.269 -166.437 329.799V345.87C-166.437 347.727 -165.699 349.507 -164.386 350.82L-15.8228 499.383" stroke="#9091A0"/>
</g>
</g>
<g style="mix-blend-mode:color-burn" filter="url(#filter16_f_423_1347)">
<path d="M1485 804.5H-19V-65H951H1485V804.5Z" fill="url(#paint7_radial_423_1347)"/>
</g>
<path d="M44.792 101.6H48.224V119H44.792V111.488H36.992V119H33.56V101.6H36.992V108.704H44.792V101.6ZM56.2931 108.392C54.4691 108.392 53.1731 109.856 53.1731 112.568C53.1731 115.28 54.4691 116.72 56.2931 116.72C58.1171 116.72 59.4131 115.28 59.4131 112.568C59.4131 109.856 58.1171 108.392 56.2931 108.392ZM56.2931 119.312C53.0291 119.312 49.8131 117.08 49.8131 112.568C49.8131 108.032 53.0291 105.8 56.2931 105.8C59.5571 105.8 62.7731 108.032 62.7731 112.568C62.7731 117.08 59.5571 119.312 56.2931 119.312ZM67.9254 115.016L69.9414 106.088H73.4694L75.5094 114.992L77.2374 106.088H80.5254L77.4774 119H74.0694L71.7174 109.208L69.3414 119H65.9334L62.9094 106.088H66.1974L67.9254 115.016ZM87.5324 123.2H86.1404V120.656H87.3884C88.4924 120.656 88.9724 120.68 89.5484 119.312L89.6924 118.952L84.7484 106.088H88.3724L91.3004 115.4L94.3004 106.088H97.6604L92.9324 118.616C91.3964 122.624 90.7484 123.2 87.5324 123.2ZM103.932 108.392C102.108 108.392 100.812 109.856 100.812 112.568C100.812 115.28 102.108 116.72 103.932 116.72C105.756 116.72 107.052 115.28 107.052 112.568C107.052 109.856 105.756 108.392 103.932 108.392ZM103.932 119.312C100.668 119.312 97.4521 117.08 97.4521 112.568C97.4521 108.032 100.668 105.8 103.932 105.8C107.196 105.8 110.412 108.032 110.412 112.568C110.412 117.08 107.196 119.312 103.932 119.312ZM119.863 119V117.296C119.119 118.616 117.703 119.312 116.095 119.312C112.999 119.312 111.751 117.416 111.751 114.248V106.088H115.063V113.528C115.063 115.256 115.327 116.648 117.175 116.648C119.383 116.648 119.863 114.848 119.863 112.808V106.088H123.175V119H119.863ZM130.816 106.088V102.584H134.128V106.088H136.816V108.368H134.128V115.04C134.128 116.36 134.584 116.624 135.76 116.624H136.768V119H134.344C131.368 119 130.816 118.088 130.816 115.52V108.368H128.992V106.088H130.816ZM141.65 101.6V107.792C142.394 106.472 143.786 105.8 145.394 105.8C148.49 105.8 149.858 107.672 149.858 110.864V119H146.546V111.584C146.546 109.928 146.186 108.464 144.314 108.464C142.13 108.464 141.65 110.24 141.65 112.28V119H138.338V101.6H141.65ZM157.651 108.392C155.827 108.392 154.531 109.856 154.531 112.568C154.531 115.28 155.827 116.72 157.651 116.72C159.475 116.72 160.771 115.28 160.771 112.568C160.771 109.856 159.475 108.392 157.651 108.392ZM157.651 119.312C154.387 119.312 151.171 117.08 151.171 112.568C151.171 108.032 154.387 105.8 157.651 105.8C160.915 105.8 164.131 108.032 164.131 112.568C164.131 117.08 160.915 119.312 157.651 119.312ZM173.582 119V117.296C172.838 118.616 171.422 119.312 169.814 119.312C166.718 119.312 165.47 117.416 165.47 114.248V106.088H168.782V113.528C168.782 115.256 169.046 116.648 170.894 116.648C173.102 116.648 173.582 114.848 173.582 112.808V106.088H176.894V119H173.582ZM184.881 116.024C186.729 116.024 187.857 114.464 187.857 112.16C187.857 109.88 186.729 108.32 184.881 108.32C183.177 108.32 181.905 110.024 181.905 112.184C181.905 114.32 183.177 116.024 184.881 116.024ZM187.737 106.088H191.025V117.704C191.025 121.928 188.649 123.512 184.689 123.512C181.929 123.512 179.505 122.504 179.049 119.504H182.193C182.481 120.56 183.369 121.088 184.857 121.088C186.585 121.088 187.737 120.272 187.737 118.328V116.6C186.897 118.016 185.385 118.544 184.041 118.544C180.873 118.544 178.425 115.928 178.425 112.16C178.425 108.488 180.801 105.8 184.041 105.8C185.673 105.8 187.161 106.64 187.737 107.768V106.088ZM196.742 101.6V107.792C197.486 106.472 198.878 105.8 200.486 105.8C203.582 105.8 204.95 107.672 204.95 110.864V119H201.638V111.584C201.638 109.928 201.278 108.464 199.406 108.464C197.222 108.464 196.742 110.24 196.742 112.28V119H193.43V101.6H196.742ZM207.583 106.088V102.584H210.895V106.088H213.583V108.368H210.895V115.04C210.895 116.36 211.351 116.624 212.527 116.624H213.535V119H211.111C208.135 119 207.583 118.088 207.583 115.52V108.368H205.759V106.088H207.583ZM41.552 146.056V145.096C37.832 145.48 36.368 145.912 36.368 147.352C36.368 148.288 37.088 149.056 38.6 149.056C40.688 149.056 41.552 147.952 41.552 146.056ZM41.84 149.392C40.904 150.736 39.56 151.312 37.616 151.312C35.144 151.312 32.96 149.872 32.96 147.52C32.96 144.472 36.368 143.56 41.456 142.984V142.768C41.456 140.776 40.376 140.08 39.032 140.08C37.76 140.08 36.704 140.728 36.632 142.168H33.536C33.8 139.624 35.864 137.752 39.2 137.752C42.248 137.752 44.768 139.096 44.768 143.44C44.768 143.824 44.72 145.576 44.72 146.728C44.72 148.768 44.84 149.92 45.104 151H42.056C41.96 150.592 41.912 150.04 41.84 149.392ZM58.7351 151H55.4231V149.368C54.5831 150.808 53.0471 151.312 51.7031 151.312C48.6311 151.312 46.0871 148.672 46.0871 144.544C46.0871 140.488 48.5831 137.8 51.7031 137.8C53.3351 137.8 54.7271 138.52 55.4231 139.744V133.6H58.7351V151ZM52.5191 148.768C54.3431 148.768 55.5431 147.208 55.5431 144.544C55.5431 141.952 54.3431 140.344 52.5191 140.344C50.7911 140.344 49.5671 142.048 49.5671 144.568C49.5671 147.088 50.7911 148.768 52.5191 148.768ZM72.9241 151H69.6121V149.368C68.7721 150.808 67.2361 151.312 65.8921 151.312C62.8201 151.312 60.2761 148.672 60.2761 144.544C60.2761 140.488 62.7721 137.8 65.8921 137.8C67.5241 137.8 68.9161 138.52 69.6121 139.744V133.6H72.9241V151ZM66.7081 148.768C68.5321 148.768 69.7321 147.208 69.7321 144.544C69.7321 141.952 68.5321 140.344 66.7081 140.344C64.9801 140.344 63.7561 142.048 63.7561 144.568C63.7561 147.088 64.9801 148.768 66.7081 148.768ZM75.3052 138.088H78.6172V151H75.3052V138.088ZM75.3052 133.6H78.6172V136.672H75.3052V133.6ZM84.2984 138.088V139.792C85.0424 138.472 86.4344 137.8 88.0424 137.8C91.1384 137.8 92.5064 139.672 92.5064 142.864V151H89.1944V143.584C89.1944 141.928 88.8344 140.464 86.9624 140.464C84.7784 140.464 84.2984 142.24 84.2984 144.28V151H80.9864V138.088H84.2984ZM100.299 148.024C102.147 148.024 103.275 146.464 103.275 144.16C103.275 141.88 102.147 140.32 100.299 140.32C98.5953 140.32 97.3233 142.024 97.3233 144.184C97.3233 146.32 98.5953 148.024 100.299 148.024ZM103.155 138.088H106.443V149.704C106.443 153.928 104.067 155.512 100.107 155.512C97.3473 155.512 94.9233 154.504 94.4673 151.504H97.6113C97.8993 152.56 98.7873 153.088 100.275 153.088C102.003 153.088 103.155 152.272 103.155 150.328V148.6C102.315 150.016 100.803 150.544 99.4593 150.544C96.2913 150.544 93.8433 147.928 93.8433 144.16C93.8433 140.488 96.2193 137.8 99.4593 137.8C101.091 137.8 102.579 138.64 103.155 139.768V138.088ZM121.727 146.056V145.096C118.007 145.48 116.543 145.912 116.543 147.352C116.543 148.288 117.263 149.056 118.775 149.056C120.863 149.056 121.727 147.952 121.727 146.056ZM122.015 149.392C121.079 150.736 119.735 151.312 117.791 151.312C115.319 151.312 113.135 149.872 113.135 147.52C113.135 144.472 116.543 143.56 121.631 142.984V142.768C121.631 140.776 120.551 140.08 119.207 140.08C117.935 140.08 116.879 140.728 116.807 142.168H113.711C113.975 139.624 116.039 137.752 119.375 137.752C122.423 137.752 124.943 139.096 124.943 143.44C124.943 143.824 124.895 145.576 124.895 146.728C124.895 148.768 125.015 149.92 125.279 151H122.231C122.135 150.592 122.087 150.04 122.015 149.392ZM135.046 151V149.296C134.302 150.616 132.886 151.312 131.278 151.312C128.182 151.312 126.934 149.416 126.934 146.248V138.088H130.246V145.528C130.246 147.256 130.51 148.648 132.358 148.648C134.566 148.648 135.046 146.848 135.046 144.808V138.088H138.358V151H135.046ZM141.185 138.088V134.584H144.497V138.088H147.185V140.368H144.497V147.04C144.497 148.36 144.953 148.624 146.129 148.624H147.137V151H144.713C141.737 151 141.185 150.088 141.185 147.52V140.368H139.361V138.088H141.185ZM152.019 133.6V139.792C152.763 138.472 154.155 137.8 155.763 137.8C158.859 137.8 160.227 139.672 160.227 142.864V151H156.915V143.584C156.915 141.928 156.555 140.464 154.683 140.464C152.499 140.464 152.019 142.24 152.019 144.28V151H148.707V133.6H152.019ZM170.746 147.016L172.762 138.088H176.29L178.33 146.992L180.058 138.088H183.346L180.298 151H176.89L174.538 141.208L172.162 151H168.754L165.73 138.088H169.018L170.746 147.016ZM189.976 140.392C188.152 140.392 186.856 141.856 186.856 144.568C186.856 147.28 188.152 148.72 189.976 148.72C191.8 148.72 193.096 147.28 193.096 144.568C193.096 141.856 191.8 140.392 189.976 140.392ZM189.976 151.312C186.712 151.312 183.496 149.08 183.496 144.568C183.496 140.032 186.712 137.8 189.976 137.8C193.24 137.8 196.456 140.032 196.456 144.568C196.456 149.08 193.24 151.312 189.976 151.312ZM205.907 151V149.296C205.163 150.616 203.747 151.312 202.139 151.312C199.043 151.312 197.795 149.416 197.795 146.248V138.088H201.107V145.528C201.107 147.256 201.371 148.648 203.219 148.648C205.427 148.648 205.907 146.848 205.907 144.808V138.088H209.219V151H205.907ZM214.902 133.6V151H211.59V133.6H214.902ZM229.079 151H225.767V149.368C224.927 150.808 223.391 151.312 222.047 151.312C218.975 151.312 216.431 148.672 216.431 144.544C216.431 140.488 218.927 137.8 222.047 137.8C223.679 137.8 225.071 138.52 225.767 139.744V133.6H229.079V151ZM222.863 148.768C224.687 148.768 225.887 147.208 225.887 144.544C225.887 141.952 224.687 140.344 222.863 140.344C221.135 140.344 219.911 142.048 219.911 144.568C219.911 147.088 221.135 148.768 222.863 148.768ZM242.49 148.768C244.218 148.768 245.442 147.088 245.442 144.568C245.442 142.048 244.218 140.344 242.49 140.344C240.666 140.344 239.466 141.952 239.466 144.544C239.466 147.208 240.666 148.768 242.49 148.768ZM239.586 151H236.274V133.6H239.586V139.744C240.282 138.52 241.674 137.8 243.306 137.8C246.426 137.8 248.922 140.488 248.922 144.544C248.922 148.672 246.378 151.312 243.306 151.312C241.962 151.312 240.426 150.808 239.586 149.368V151ZM262.627 145.456H253.099C253.291 147.664 254.779 148.744 256.363 148.744C257.395 148.744 258.403 148.384 259.075 147.256H262.483C261.787 149.176 259.915 151.312 256.387 151.312C252.235 151.312 249.811 148.216 249.811 144.496C249.811 140.656 252.475 137.8 256.291 137.8C260.275 137.8 262.747 140.896 262.627 145.456ZM256.267 140.224C255.019 140.224 253.411 140.992 253.147 143.176H259.267C259.195 140.992 257.659 140.224 256.267 140.224ZM266.932 151H263.38V147.4H266.932V151Z" fill="#131316"/>
<path d="M38.786 174.575L40.528 182.193L42.114 174.575H43.674L41.399 184H39.618L37.915 176.499L36.238 184H34.457L32.143 174.575H33.768L35.432 182.193L37.057 174.575H38.786ZM47.363 183.012C48.351 183.012 48.897 182.609 49.196 181.946H50.561C50.249 183.103 49.183 184.169 47.415 184.169C45.166 184.169 43.931 182.518 43.931 180.49C43.931 178.319 45.387 176.876 47.376 176.876C49.534 176.876 50.795 178.644 50.652 180.919H45.322C45.465 182.219 46.258 183.012 47.363 183.012ZM47.363 177.981C46.31 177.981 45.543 178.514 45.348 179.853H49.248C49.209 178.826 48.468 177.981 47.363 177.981ZM56.3772 174.575V178.02C56.7802 177.331 57.4822 176.876 58.5742 176.876C60.2642 176.876 60.9142 177.968 60.9142 179.593V184H59.5622V179.957C59.5622 178.956 59.4062 178.007 58.1192 178.007C56.9362 178.007 56.3772 178.839 56.3772 180.243V184H55.0252V174.575H56.3772ZM66.9723 181.179V180.672C64.8013 180.88 63.6573 181.192 63.6573 182.089C63.6573 182.726 64.1513 183.129 64.9833 183.129C66.0883 183.129 66.9723 182.57 66.9723 181.179ZM64.6843 184.169C63.2673 184.169 62.1883 183.389 62.1883 182.115C62.1883 180.412 64.2033 179.944 66.9073 179.671V179.528C66.9073 178.293 66.2573 177.877 65.3993 177.877C64.4633 177.877 63.9303 178.345 63.8783 179.216H62.5133C62.6173 177.721 63.8523 176.837 65.4513 176.837C67.2583 176.837 68.2853 177.708 68.2723 179.801C68.2723 179.97 68.2463 181.179 68.2463 181.478C68.2463 182.531 68.3113 183.376 68.4413 184H67.1413C67.0893 183.727 67.0633 183.532 67.0243 183.077C66.6083 183.792 65.8283 184.169 64.6843 184.169ZM71.2942 177.006V178.02C71.6972 177.331 72.3992 176.876 73.4912 176.876C75.1812 176.876 75.8312 177.968 75.8312 179.593V184H74.4792V179.957C74.4792 178.956 74.3232 178.007 73.0362 178.007C71.8532 178.007 71.2942 178.839 71.2942 180.243V184H69.9422V177.006H71.2942ZM82.2403 178.033V174.575H83.5923V184H82.2403V183.012C81.8113 183.74 81.0963 184.169 80.0563 184.169C78.4313 184.169 77.0403 182.804 77.0403 180.516C77.0403 178.228 78.4313 176.876 80.0563 176.876C81.0963 176.876 81.8113 177.305 82.2403 178.033ZM82.2923 180.516C82.2923 178.787 81.4083 178.007 80.3683 178.007C79.2373 178.007 78.4833 178.943 78.4833 180.516C78.4833 182.089 79.2373 183.038 80.3683 183.038C81.4083 183.038 82.2923 182.245 82.2923 180.516ZM86.7698 174.575V184H85.4178V174.575H86.7698ZM91.5426 183.012C92.5306 183.012 93.0766 182.609 93.3756 181.946H94.7406C94.4286 183.103 93.3626 184.169 91.5946 184.169C89.3456 184.169 88.1106 182.518 88.1106 180.49C88.1106 178.319 89.5666 176.876 91.5556 176.876C93.7136 176.876 94.9746 178.644 94.8316 180.919H89.5016C89.6446 182.219 90.4376 183.012 91.5426 183.012ZM91.5426 177.981C90.4896 177.981 89.7226 178.514 89.5276 179.853H93.4276C93.3886 178.826 92.6476 177.981 91.5426 177.981ZM103.573 181.179V180.672C101.402 180.88 100.258 181.192 100.258 182.089C100.258 182.726 100.752 183.129 101.584 183.129C102.689 183.129 103.573 182.57 103.573 181.179ZM101.285 184.169C99.8679 184.169 98.7889 183.389 98.7889 182.115C98.7889 180.412 100.804 179.944 103.508 179.671V179.528C103.508 178.293 102.858 177.877 102 177.877C101.064 177.877 100.531 178.345 100.479 179.216H99.1139C99.2179 177.721 100.453 176.837 102.052 176.837C103.859 176.837 104.886 177.708 104.873 179.801C104.873 179.97 104.847 181.179 104.847 181.478C104.847 182.531 104.912 183.376 105.042 184H103.742C103.69 183.727 103.664 183.532 103.625 183.077C103.209 183.792 102.429 184.169 101.285 184.169ZM110.859 184V183.012C110.456 183.727 109.78 184.169 108.727 184.169C107.076 184.169 106.439 183.155 106.439 181.452V177.006H107.791V181.088C107.791 182.089 107.96 183.025 109.182 183.025C110.326 183.025 110.872 182.193 110.872 180.802V177.006H112.224V184H110.859ZM114.306 177.006V175.212H115.658V177.006H117.036V178.033H115.658V182.024C115.658 182.739 115.775 182.921 116.451 182.921H117.023V184H116.035C114.618 184 114.306 183.649 114.306 182.206V178.033H113.24V177.006H114.306ZM119.828 174.575V178.02C120.231 177.331 120.933 176.876 122.025 176.876C123.715 176.876 124.365 177.968 124.365 179.593V184H123.013V179.957C123.013 178.956 122.857 178.007 121.57 178.007C120.387 178.007 119.828 178.839 119.828 180.243V184H118.476V174.575H119.828ZM129.007 183.012C129.995 183.012 130.541 182.609 130.84 181.946H132.205C131.893 183.103 130.827 184.169 129.059 184.169C126.81 184.169 125.575 182.518 125.575 180.49C125.575 178.319 127.031 176.876 129.02 176.876C131.178 176.876 132.439 178.644 132.296 180.919H126.966C127.109 182.219 127.902 183.012 129.007 183.012ZM129.007 177.981C127.954 177.981 127.187 178.514 126.992 179.853H130.892C130.853 178.826 130.112 177.981 129.007 177.981ZM134.974 177.006V178.02C135.377 177.331 136.079 176.876 137.171 176.876C138.861 176.876 139.511 177.968 139.511 179.593V184H138.159V179.957C138.159 178.956 138.003 178.007 136.716 178.007C135.533 178.007 134.974 178.839 134.974 180.243V184H133.622V177.006H134.974ZM141.474 177.006V175.212H142.826V177.006H144.204V178.033H142.826V182.024C142.826 182.739 142.943 182.921 143.619 182.921H144.191V184H143.203C141.786 184 141.474 183.649 141.474 182.206V178.033H140.408V177.006H141.474ZM145.644 177.006H146.996V184H145.644V177.006ZM145.644 174.575H146.996V176.07H145.644V174.575ZM151.717 176.876C153.316 176.876 154.538 178.007 154.746 179.372H153.394C153.251 178.579 152.536 178.033 151.652 178.033C150.677 178.033 149.78 178.8 149.78 180.503C149.78 182.232 150.677 183.012 151.652 183.012C152.523 183.012 153.251 182.505 153.446 181.673H154.811C154.525 183.142 153.173 184.169 151.626 184.169C149.598 184.169 148.337 182.635 148.337 180.516C148.337 178.449 149.65 176.876 151.717 176.876ZM160.448 181.179V180.672C158.277 180.88 157.133 181.192 157.133 182.089C157.133 182.726 157.627 183.129 158.459 183.129C159.564 183.129 160.448 182.57 160.448 181.179ZM158.16 184.169C156.743 184.169 155.664 183.389 155.664 182.115C155.664 180.412 157.679 179.944 160.383 179.671V179.528C160.383 178.293 159.733 177.877 158.875 177.877C157.939 177.877 157.406 178.345 157.354 179.216H155.989C156.093 177.721 157.328 176.837 158.927 176.837C160.734 176.837 161.761 177.708 161.748 179.801C161.748 179.97 161.722 181.179 161.722 181.478C161.722 182.531 161.787 183.376 161.917 184H160.617C160.565 183.727 160.539 183.532 160.5 183.077C160.084 183.792 159.304 184.169 158.16 184.169ZM163.691 177.006V175.212H165.043V177.006H166.421V178.033H165.043V182.024C165.043 182.739 165.16 182.921 165.836 182.921H166.408V184H165.42C164.003 184 163.691 183.649 163.691 182.206V178.033H162.625V177.006H163.691ZM167.861 177.006H169.213V184H167.861V177.006ZM167.861 174.575H169.213V176.07H167.861V174.575ZM171.997 180.529C171.997 182.245 172.946 183.025 173.96 183.025C175 183.025 175.936 182.232 175.936 180.529C175.936 178.8 175 178.02 173.96 178.02C172.946 178.02 171.997 178.761 171.997 180.529ZM173.96 176.876C175.624 176.876 177.366 177.994 177.366 180.529C177.366 183.051 175.624 184.169 173.96 184.169C172.309 184.169 170.567 183.051 170.567 180.529C170.567 177.994 172.309 176.876 173.96 176.876ZM180.068 177.006V178.02C180.471 177.331 181.173 176.876 182.265 176.876C183.955 176.876 184.605 177.968 184.605 179.593V184H183.253V179.957C183.253 178.956 183.097 178.007 181.81 178.007C180.627 178.007 180.068 178.839 180.068 180.243V184H178.716V177.006H180.068ZM192.241 176.876C193.84 176.876 195.062 178.007 195.27 179.372H193.918C193.775 178.579 193.06 178.033 192.176 178.033C191.201 178.033 190.304 178.8 190.304 180.503C190.304 182.232 191.201 183.012 192.176 183.012C193.047 183.012 193.775 182.505 193.97 181.673H195.335C195.049 183.142 193.697 184.169 192.15 184.169C190.122 184.169 188.861 182.635 188.861 180.516C188.861 178.449 190.174 176.876 192.241 176.876ZM197.629 180.529C197.629 182.245 198.578 183.025 199.592 183.025C200.632 183.025 201.568 182.232 201.568 180.529C201.568 178.8 200.632 178.02 199.592 178.02C198.578 178.02 197.629 178.761 197.629 180.529ZM199.592 176.876C201.256 176.876 202.998 177.994 202.998 180.529C202.998 183.051 201.256 184.169 199.592 184.169C197.941 184.169 196.199 183.051 196.199 180.529C196.199 177.994 197.941 176.876 199.592 176.876ZM205.7 180.243V184H204.348V177.006H205.7V178.02C206.103 177.331 206.766 176.876 207.767 176.876C208.859 176.876 209.483 177.331 209.795 178.111C210.38 177.227 211.186 176.876 212.109 176.876C213.747 176.876 214.384 177.968 214.384 179.593V184H213.032V179.957C213.032 178.956 212.863 178.007 211.654 178.007C210.575 178.007 210.042 178.839 210.042 180.243V184H208.69V179.957C208.69 178.956 208.521 178.007 207.312 178.007C206.22 178.007 205.7 178.839 205.7 180.243ZM216.091 177.006H217.443V178.033C217.872 177.305 218.587 176.876 219.627 176.876C221.252 176.876 222.643 178.228 222.643 180.516C222.643 182.804 221.252 184.169 219.627 184.169C218.587 184.169 217.872 183.74 217.443 183.012V186.275H216.091V177.006ZM217.391 180.516C217.391 182.245 218.275 183.038 219.315 183.038C220.446 183.038 221.2 182.089 221.2 180.516C221.2 178.943 220.446 178.007 219.315 178.007C218.275 178.007 217.391 178.787 217.391 180.516ZM225.339 174.575V184H223.987V174.575H225.339ZM230.112 183.012C231.1 183.012 231.646 182.609 231.945 181.946H233.31C232.998 183.103 231.932 184.169 230.164 184.169C227.915 184.169 226.68 182.518 226.68 180.49C226.68 178.319 228.136 176.876 230.125 176.876C232.283 176.876 233.544 178.644 233.401 180.919H228.071C228.214 182.219 229.007 183.012 230.112 183.012ZM230.112 177.981C229.059 177.981 228.292 178.514 228.097 179.853H231.997C231.958 178.826 231.217 177.981 230.112 177.981ZM240.243 177.006L237.851 180.347L240.438 184H238.826L237.045 181.478L235.264 184H233.743L236.304 180.425L233.899 177.006H235.498L237.11 179.294L238.748 177.006H240.243ZM241.431 177.006H242.783V184H241.431V177.006ZM241.431 174.575H242.783V176.07H241.431V174.575ZM244.877 177.006V175.212H246.229V177.006H247.607V178.033H246.229V182.024C246.229 182.739 246.346 182.921 247.022 182.921H247.594V184H246.606C245.189 184 244.877 183.649 244.877 182.206V178.033H243.811V177.006H244.877ZM249.048 177.006H250.4V184H249.048V177.006ZM249.048 174.575H250.4V176.07H249.048V174.575ZM255.173 183.012C256.161 183.012 256.707 182.609 257.006 181.946H258.371C258.059 183.103 256.993 184.169 255.225 184.169C252.976 184.169 251.741 182.518 251.741 180.49C251.741 178.319 253.197 176.876 255.186 176.876C257.344 176.876 258.605 178.644 258.462 180.919H253.132C253.275 182.219 254.068 183.012 255.173 183.012ZM255.173 177.981C254.12 177.981 253.353 178.514 253.158 179.853H257.058C257.019 178.826 256.278 177.981 255.173 177.981ZM265.13 178.956H263.791C263.596 178.228 262.998 177.955 262.205 177.955C261.542 177.955 260.827 178.228 260.827 178.8C260.827 179.32 261.165 179.528 261.802 179.671L262.803 179.866C264.116 180.139 265.286 180.568 265.286 181.946C265.286 183.363 263.96 184.169 262.348 184.169C260.567 184.169 259.501 183.142 259.332 181.829H260.71C260.905 182.622 261.399 183.09 262.387 183.09C263.271 183.09 263.934 182.726 263.934 182.102C263.934 181.465 263.323 181.192 262.595 181.049L261.542 180.841C260.489 180.633 259.501 180.178 259.501 178.852C259.501 177.617 260.814 176.863 262.335 176.863C263.752 176.863 264.857 177.604 265.13 178.956ZM38.227 196.956H36.888C36.693 196.228 36.095 195.955 35.302 195.955C34.639 195.955 33.924 196.228 33.924 196.8C33.924 197.32 34.262 197.528 34.899 197.671L35.9 197.866C37.213 198.139 38.383 198.568 38.383 199.946C38.383 201.363 37.057 202.169 35.445 202.169C33.664 202.169 32.598 201.142 32.429 199.829H33.807C34.002 200.622 34.496 201.09 35.484 201.09C36.368 201.09 37.031 200.726 37.031 200.102C37.031 199.465 36.42 199.192 35.692 199.049L34.639 198.841C33.586 198.633 32.598 198.178 32.598 196.852C32.598 195.617 33.911 194.863 35.432 194.863C36.849 194.863 37.954 195.604 38.227 196.956ZM40.7021 198.529C40.7021 200.245 41.6511 201.025 42.6651 201.025C43.7051 201.025 44.6411 200.232 44.6411 198.529C44.6411 196.8 43.7051 196.02 42.6651 196.02C41.6511 196.02 40.7021 196.761 40.7021 198.529ZM42.6651 194.876C44.3291 194.876 46.0711 195.994 46.0711 198.529C46.0711 201.051 44.3291 202.169 42.6651 202.169C41.0141 202.169 39.2721 201.051 39.2721 198.529C39.2721 195.994 41.0141 194.876 42.6651 194.876ZM50.7406 195.006V193.212H52.0926V195.006H53.4706V196.033H52.0926V200.024C52.0926 200.739 52.2096 200.921 52.8856 200.921H53.4576V202H52.4696C51.0526 202 50.7406 201.649 50.7406 200.206V196.033H49.6746V195.006H50.7406ZM56.263 192.575V196.02C56.666 195.331 57.368 194.876 58.46 194.876C60.15 194.876 60.8 195.968 60.8 197.593V202H59.448V197.957C59.448 196.956 59.292 196.007 58.005 196.007C56.822 196.007 56.263 196.839 56.263 198.243V202H54.911V192.575H56.263ZM66.8581 199.179V198.672C64.6871 198.88 63.5431 199.192 63.5431 200.089C63.5431 200.726 64.0371 201.129 64.8691 201.129C65.9741 201.129 66.8581 200.57 66.8581 199.179ZM64.5701 202.169C63.1531 202.169 62.0741 201.389 62.0741 200.115C62.0741 198.412 64.0891 197.944 66.7931 197.671V197.528C66.7931 196.293 66.1431 195.877 65.2851 195.877C64.3491 195.877 63.8161 196.345 63.7641 197.216H62.3991C62.5031 195.721 63.7381 194.837 65.3371 194.837C67.1441 194.837 68.1711 195.708 68.1581 197.801C68.1581 197.97 68.1321 199.179 68.1321 199.478C68.1321 200.531 68.1971 201.376 68.3271 202H67.0271C66.9751 201.727 66.9491 201.532 66.9101 201.077C66.4941 201.792 65.7141 202.169 64.5701 202.169ZM70.101 195.006V193.212H71.453V195.006H72.831V196.033H71.453V200.024C71.453 200.739 71.57 200.921 72.246 200.921H72.818V202H71.83C70.413 202 70.101 201.649 70.101 200.206V196.033H69.035V195.006H70.101ZM77.4903 204.275H76.8403V203.196H77.3733C78.1013 203.196 78.4133 203.131 78.7513 202.143L78.8033 201.987L76.2812 195.006H77.7763L79.4663 200.219L81.1173 195.006H82.5213L80.0513 202.156C79.4663 203.807 79.0763 204.275 77.4903 204.275ZM84.2724 198.529C84.2724 200.245 85.2214 201.025 86.2354 201.025C87.2754 201.025 88.2114 200.232 88.2114 198.529C88.2114 196.8 87.2754 196.02 86.2354 196.02C85.2214 196.02 84.2724 196.761 84.2724 198.529ZM86.2354 194.876C87.8994 194.876 89.6414 195.994 89.6414 198.529C89.6414 201.051 87.8994 202.169 86.2354 202.169C84.5844 202.169 82.8424 201.051 82.8424 198.529C82.8424 195.994 84.5844 194.876 86.2354 194.876ZM95.3071 202V201.012C94.9041 201.727 94.2281 202.169 93.1751 202.169C91.5241 202.169 90.8871 201.155 90.8871 199.452V195.006H92.2391V199.088C92.2391 200.089 92.4081 201.025 93.6301 201.025C94.7741 201.025 95.3201 200.193 95.3201 198.802V195.006H96.6721V202H95.3071ZM104.427 194.876C106.026 194.876 107.248 196.007 107.456 197.372H106.104C105.961 196.579 105.246 196.033 104.362 196.033C103.387 196.033 102.49 196.8 102.49 198.503C102.49 200.232 103.387 201.012 104.362 201.012C105.233 201.012 105.961 200.505 106.156 199.673H107.521C107.235 201.142 105.883 202.169 104.336 202.169C102.308 202.169 101.047 200.635 101.047 198.516C101.047 196.449 102.36 194.876 104.427 194.876ZM113.158 199.179V198.672C110.987 198.88 109.843 199.192 109.843 200.089C109.843 200.726 110.337 201.129 111.169 201.129C112.274 201.129 113.158 200.57 113.158 199.179ZM110.87 202.169C109.453 202.169 108.374 201.389 108.374 200.115C108.374 198.412 110.389 197.944 113.093 197.671V197.528C113.093 196.293 112.443 195.877 111.585 195.877C110.649 195.877 110.116 196.345 110.064 197.216H108.699C108.803 195.721 110.038 194.837 111.637 194.837C113.444 194.837 114.471 195.708 114.458 197.801C114.458 197.97 114.432 199.179 114.432 199.478C114.432 200.531 114.497 201.376 114.627 202H113.327C113.275 201.727 113.249 201.532 113.21 201.077C112.794 201.792 112.014 202.169 110.87 202.169ZM117.48 195.006V196.02C117.883 195.331 118.585 194.876 119.677 194.876C121.367 194.876 122.017 195.968 122.017 197.593V202H120.665V197.957C120.665 196.956 120.509 196.007 119.222 196.007C118.039 196.007 117.48 196.839 117.48 198.243V202H116.128V195.006H117.48ZM127.001 195.006V194.538C127.001 192.991 127.469 192.575 129.094 192.575H129.705V193.654H129.185C128.496 193.654 128.353 193.797 128.353 194.525V195.006H129.705V196.033H128.353V202H127.001V196.033H126.026V195.006H127.001ZM131.727 198.529C131.727 200.245 132.676 201.025 133.69 201.025C134.73 201.025 135.666 200.232 135.666 198.529C135.666 196.8 134.73 196.02 133.69 196.02C132.676 196.02 131.727 196.761 131.727 198.529ZM133.69 194.876C135.354 194.876 137.096 195.994 137.096 198.529C137.096 201.051 135.354 202.169 133.69 202.169C132.039 202.169 130.297 201.051 130.297 198.529C130.297 195.994 132.039 194.876 133.69 194.876ZM141.447 194.876C143.046 194.876 144.268 196.007 144.476 197.372H143.124C142.981 196.579 142.266 196.033 141.382 196.033C140.407 196.033 139.51 196.8 139.51 198.503C139.51 200.232 140.407 201.012 141.382 201.012C142.253 201.012 142.981 200.505 143.176 199.673H144.541C144.255 201.142 142.903 202.169 141.356 202.169C139.328 202.169 138.067 200.635 138.067 198.516C138.067 196.449 139.38 194.876 141.447 194.876ZM150.125 202V201.012C149.722 201.727 149.046 202.169 147.993 202.169C146.342 202.169 145.705 201.155 145.705 199.452V195.006H147.057V199.088C147.057 200.089 147.226 201.025 148.448 201.025C149.592 201.025 150.138 200.193 150.138 198.802V195.006H151.49V202H150.125ZM158.617 196.956H157.278C157.083 196.228 156.485 195.955 155.692 195.955C155.029 195.955 154.314 196.228 154.314 196.8C154.314 197.32 154.652 197.528 155.289 197.671L156.29 197.866C157.603 198.139 158.773 198.568 158.773 199.946C158.773 201.363 157.447 202.169 155.835 202.169C154.054 202.169 152.988 201.142 152.819 199.829H154.197C154.392 200.622 154.886 201.09 155.874 201.09C156.758 201.09 157.421 200.726 157.421 200.102C157.421 199.465 156.81 199.192 156.082 199.049L155.029 198.841C153.976 198.633 152.988 198.178 152.988 196.852C152.988 195.617 154.301 194.863 155.822 194.863C157.239 194.863 158.344 195.604 158.617 196.956ZM164.139 198.529C164.139 200.245 165.088 201.025 166.102 201.025C167.142 201.025 168.078 200.232 168.078 198.529C168.078 196.8 167.142 196.02 166.102 196.02C165.088 196.02 164.139 196.761 164.139 198.529ZM166.102 194.876C167.766 194.876 169.508 195.994 169.508 198.529C169.508 201.051 167.766 202.169 166.102 202.169C164.451 202.169 162.709 201.051 162.709 198.529C162.709 195.994 164.451 194.876 166.102 194.876ZM172.209 195.006V196.02C172.612 195.331 173.314 194.876 174.406 194.876C176.096 194.876 176.746 195.968 176.746 197.593V202H175.394V197.957C175.394 196.956 175.238 196.007 173.951 196.007C172.768 196.007 172.209 196.839 172.209 198.243V202H170.857V195.006H172.209ZM181.782 204.275H181.132V203.196H181.665C182.393 203.196 182.705 203.131 183.043 202.143L183.095 201.987L180.573 195.006H182.068L183.758 200.219L185.409 195.006H186.813L184.343 202.156C183.758 203.807 183.368 204.275 181.782 204.275ZM188.564 198.529C188.564 200.245 189.513 201.025 190.527 201.025C191.567 201.025 192.503 200.232 192.503 198.529C192.503 196.8 191.567 196.02 190.527 196.02C189.513 196.02 188.564 196.761 188.564 198.529ZM190.527 194.876C192.191 194.876 193.933 195.994 193.933 198.529C193.933 201.051 192.191 202.169 190.527 202.169C188.876 202.169 187.134 201.051 187.134 198.529C187.134 195.994 188.876 194.876 190.527 194.876ZM199.599 202V201.012C199.196 201.727 198.52 202.169 197.467 202.169C195.816 202.169 195.179 201.155 195.179 199.452V195.006H196.531V199.088C196.531 200.089 196.7 201.025 197.922 201.025C199.066 201.025 199.612 200.193 199.612 198.802V195.006H200.964V202H199.599ZM206.413 194.993V196.397C206.166 196.371 205.932 196.358 205.711 196.358C204.671 196.358 204.125 196.865 204.125 198.334V202H202.773V195.006H204.099V196.241C204.463 195.448 205.152 194.993 206.036 194.98C206.153 194.98 206.296 194.98 206.413 194.993ZM214.898 199.179V198.672C212.727 198.88 211.583 199.192 211.583 200.089C211.583 200.726 212.077 201.129 212.909 201.129C214.014 201.129 214.898 200.57 214.898 199.179ZM212.61 202.169C211.193 202.169 210.114 201.389 210.114 200.115C210.114 198.412 212.129 197.944 214.833 197.671V197.528C214.833 196.293 214.183 195.877 213.325 195.877C212.389 195.877 211.856 196.345 211.804 197.216H210.439C210.543 195.721 211.778 194.837 213.377 194.837C215.184 194.837 216.211 195.708 216.198 197.801C216.198 197.97 216.172 199.179 216.172 199.478C216.172 200.531 216.237 201.376 216.367 202H215.067C215.015 201.727 214.989 201.532 214.95 201.077C214.534 201.792 213.754 202.169 212.61 202.169ZM217.868 195.006H219.22V196.033C219.649 195.305 220.364 194.876 221.404 194.876C223.029 194.876 224.42 196.228 224.42 198.516C224.42 200.804 223.029 202.169 221.404 202.169C220.364 202.169 219.649 201.74 219.22 201.012V204.275H217.868V195.006ZM219.168 198.516C219.168 200.245 220.052 201.038 221.092 201.038C222.223 201.038 222.977 200.089 222.977 198.516C222.977 196.943 222.223 196.007 221.092 196.007C220.052 196.007 219.168 196.787 219.168 198.516ZM225.764 195.006H227.116V196.033C227.545 195.305 228.26 194.876 229.3 194.876C230.925 194.876 232.316 196.228 232.316 198.516C232.316 200.804 230.925 202.169 229.3 202.169C228.26 202.169 227.545 201.74 227.116 201.012V204.275H225.764V195.006ZM227.064 198.516C227.064 200.245 227.948 201.038 228.988 201.038C230.119 201.038 230.873 200.089 230.873 198.516C230.873 196.943 230.119 196.007 228.988 196.007C227.948 196.007 227.064 196.787 227.064 198.516ZM234.889 202H233.264V200.375H234.889V202Z" fill="#5E5F6E"/>
<g filter="url(#filter17_di_423_1347)">
<rect x="32" y="238" width="156" height="30" rx="6" fill="#6248F6"/>
<rect x="32" y="238" width="156" height="30" rx="6" fill="url(#paint8_linear_423_1347)" fill-opacity="0.1"/>
<rect x="32" y="238" width="156" height="30" rx="6" fill="url(#paint9_linear_423_1347)" fill-opacity="0.1" style="mix-blend-mode:overlay"/>
<path d="M49.096 248.406C51.215 248.406 52.671 249.55 53.074 251.565H51.501C51.189 250.408 50.305 249.758 49.057 249.758C47.445 249.758 46.275 250.941 46.275 253.255C46.275 255.543 47.38 256.817 49.044 256.817C50.162 256.817 51.566 256.323 51.566 254.646V254.464H49.161V253.073H53.1V258H51.8L51.748 256.869C51.189 257.701 50.162 258.169 48.862 258.169C46.184 258.169 44.572 256.219 44.572 253.255C44.572 250.33 46.288 248.406 49.096 248.406ZM61.2437 254.945H56.0307C56.1347 256.245 57.0447 256.882 57.9287 256.882C58.7477 256.882 59.3717 256.57 59.6447 255.907H61.1657C60.8537 257.025 59.7877 258.169 57.9937 258.169C55.7447 258.169 54.4577 256.466 54.4577 254.451C54.4577 252.345 55.9007 250.85 57.8897 250.85C60.0347 250.85 61.3867 252.605 61.2437 254.945ZM57.8897 252.059C57.1617 252.059 56.1737 252.501 56.0307 253.814H59.6707C59.6317 252.722 58.7997 252.059 57.8897 252.059ZM62.7385 251.006V249.16H64.2855V251.006H65.6895V252.124H64.2855V255.933C64.2855 256.648 64.4545 256.817 65.1175 256.817H65.6765V258H64.5325C63.0375 258 62.7385 257.597 62.7385 256.167V252.124H61.6985V251.006H62.7385ZM75.3785 252.917H73.9225C73.7535 252.28 73.1685 252.033 72.3885 252.033C71.7125 252.033 71.0885 252.332 71.0885 252.8C71.0885 253.268 71.4135 253.515 72.0245 253.632L73.0125 253.827C74.4295 254.1 75.5085 254.542 75.5085 255.907C75.5085 257.363 74.1305 258.169 72.5445 258.169C70.8285 258.169 69.6845 257.181 69.5155 255.868H71.0235C71.1665 256.596 71.6735 256.999 72.5965 256.999C73.4155 256.999 74.0005 256.661 74.0005 256.089C74.0005 255.517 73.4805 255.27 72.7915 255.127L71.7385 254.919C70.5555 254.672 69.6325 254.165 69.6325 252.878C69.6325 251.643 70.9715 250.85 72.4795 250.85C73.8445 250.85 75.0925 251.513 75.3785 252.917ZM77.0842 251.006V249.16H78.6312V251.006H80.0352V252.124H78.6312V255.933C78.6312 256.648 78.8002 256.817 79.4632 256.817H80.0222V258H78.8782C77.3832 258 77.0842 257.597 77.0842 256.167V252.124H76.0442V251.006H77.0842ZM85.6102 255.244V254.711C83.4002 254.919 82.5032 255.244 82.5032 256.037C82.5032 256.648 83.0102 257.012 83.7902 257.012C84.9342 257.012 85.6102 256.44 85.6102 255.244ZM83.4522 258.169C81.9312 258.169 80.8652 257.35 80.8652 256.076C80.8652 254.321 83.0232 253.905 85.5712 253.632V253.502C85.5712 252.306 84.8952 251.942 84.1152 251.942C83.3352 251.942 82.7502 252.358 82.7112 253.203H81.1902C81.2942 251.786 82.4772 250.798 84.1672 250.798C85.8442 250.798 87.1572 251.565 87.1182 253.801C87.1182 254.139 87.0922 254.971 87.0922 255.608C87.0922 256.492 87.1572 257.415 87.3002 258H85.8832C85.8312 257.701 85.7922 257.532 85.7532 257.051C85.2982 257.818 84.4922 258.169 83.4522 258.169ZM92.5045 251.019V252.579C92.2445 252.553 91.9975 252.54 91.7635 252.54C90.7885 252.54 90.2295 252.93 90.2295 254.334V258H88.6825V251.006H90.2035V252.254C90.5805 251.474 91.2565 251.006 92.1015 250.993C92.2185 250.993 92.3875 251.006 92.5045 251.019ZM93.7024 251.006V249.16H95.2494V251.006H96.6534V252.124H95.2494V255.933C95.2494 256.648 95.4184 256.817 96.0814 256.817H96.6404V258H95.4964C94.0014 258 93.7024 257.597 93.7024 256.167V252.124H92.6624V251.006H93.7024ZM104.217 254.945H99.0043C99.1083 256.245 100.018 256.882 100.902 256.882C101.721 256.882 102.345 256.57 102.618 255.907H104.139C103.827 257.025 102.761 258.169 100.967 258.169C98.7183 258.169 97.4313 256.466 97.4313 254.451C97.4313 252.345 98.8743 250.85 100.863 250.85C103.008 250.85 104.36 252.605 104.217 254.945ZM100.863 252.059C100.135 252.059 99.1473 252.501 99.0043 253.814H102.644C102.605 252.722 101.773 252.059 100.863 252.059ZM110.208 251.942V248.575H111.755V258H110.208V257.077C109.792 257.766 109.064 258.169 108.128 258.169C106.464 258.169 105.086 256.752 105.086 254.503C105.086 252.267 106.464 250.85 108.128 250.85C109.064 250.85 109.792 251.253 110.208 251.942ZM110.273 254.503C110.273 252.891 109.467 252.111 108.466 252.111C107.426 252.111 106.698 253.047 106.698 254.503C106.698 255.998 107.426 256.908 108.466 256.908C109.467 256.908 110.273 256.115 110.273 254.503ZM116.706 251.006V250.577C116.706 248.952 117.317 248.575 119.02 248.575H119.631V249.758H119.189C118.422 249.758 118.253 249.901 118.253 250.629V251.006H119.631V252.124H118.253V258H116.706V252.124H115.731V251.006H116.706ZM121.641 254.516C121.641 256.128 122.499 256.908 123.487 256.908C124.475 256.908 125.333 256.128 125.333 254.516C125.333 252.904 124.475 252.111 123.487 252.111C122.499 252.111 121.641 252.904 121.641 254.516ZM123.487 250.85C125.19 250.85 126.932 251.994 126.932 254.516C126.932 257.051 125.19 258.169 123.487 258.169C121.784 258.169 120.042 257.051 120.042 254.516C120.042 251.994 121.784 250.85 123.487 250.85ZM132.025 251.019V252.579C131.765 252.553 131.518 252.54 131.284 252.54C130.309 252.54 129.75 252.93 129.75 254.334V258H128.203V251.006H129.724V252.254C130.101 251.474 130.777 251.006 131.622 250.993C131.739 250.993 131.908 251.006 132.025 251.019ZM136.206 251.006V250.577C136.206 248.952 136.817 248.575 138.52 248.575H139.131V249.758H138.689C137.922 249.758 137.753 249.901 137.753 250.629V251.006H139.131V252.124H137.753V258H136.206V252.124H135.231V251.006H136.206ZM144.022 251.019V252.579C143.762 252.553 143.515 252.54 143.281 252.54C142.306 252.54 141.747 252.93 141.747 254.334V258H140.2V251.006H141.721V252.254C142.098 251.474 142.774 251.006 143.619 250.993C143.736 250.993 143.905 251.006 144.022 251.019ZM151.165 254.945H145.952C146.056 256.245 146.966 256.882 147.85 256.882C148.669 256.882 149.293 256.57 149.566 255.907H151.087C150.775 257.025 149.709 258.169 147.915 258.169C145.666 258.169 144.379 256.466 144.379 254.451C144.379 252.345 145.822 250.85 147.811 250.85C149.956 250.85 151.308 252.605 151.165 254.945ZM147.811 252.059C147.083 252.059 146.095 252.501 145.952 253.814H149.592C149.553 252.722 148.721 252.059 147.811 252.059ZM158.833 254.945H153.62C153.724 256.245 154.634 256.882 155.518 256.882C156.337 256.882 156.961 256.57 157.234 255.907H158.755C158.443 257.025 157.377 258.169 155.583 258.169C153.334 258.169 152.047 256.466 152.047 254.451C152.047 252.345 153.49 250.85 155.479 250.85C157.624 250.85 158.976 252.605 158.833 254.945ZM155.479 252.059C154.751 252.059 153.763 252.501 153.62 253.814H157.26C157.221 252.722 156.389 252.059 155.479 252.059Z" fill="white"/>
<g opacity="0.6">
<path d="M175.25 253L171.75 250.75V255.25L175.25 253Z" fill="white" stroke="white" stroke-width="1.5" stroke-linecap="round" stroke-linejoin="round"/>
</g>
<rect x="31.5" y="237.5" width="157" height="31" rx="6.5" stroke="url(#paint10_linear_423_1347)"/>
</g>
<ellipse cx="40.0002" cy="54" rx="2.49999" ry="2.5" fill="#654BF6"/>
<path d="M44.5046 59.9191C44.7173 60.1318 44.6959 60.4839 44.446 60.6513C43.1744 61.503 41.645 61.9998 39.9996 61.9998C38.3541 61.9998 36.8247 61.503 35.5531 60.6513C35.3032 60.4839 35.2818 60.1318 35.4945 59.9191L37.3215 58.0921C37.4866 57.927 37.7428 57.9009 37.9506 58.0073C38.5652 58.3222 39.2616 58.4998 39.9996 58.4998C40.7375 58.4998 41.434 58.3222 42.0485 58.0073C42.2563 57.9009 42.5125 57.927 42.6776 58.0921L44.5046 59.9191Z" fill="#654BF6"/>
<path opacity="0.5" d="M44.4464 47.3485C44.6963 47.5159 44.7177 47.868 44.505 48.0807L42.678 49.9077C42.5129 50.0728 42.2567 50.0989 42.0489 49.9925C41.4344 49.6776 40.7379 49.5 40 49.5C37.5147 49.5 35.5 51.5147 35.5 54C35.5 54.7379 35.6776 55.4344 35.9924 56.0489C36.0989 56.2568 36.0728 56.5129 35.9077 56.6781L34.0807 58.505C33.868 58.7177 33.5159 58.6964 33.3485 58.4465C32.4968 57.1749 32 55.6454 32 54C32 49.5817 35.5817 46 40 46C41.6454 46 43.1748 46.4968 44.4464 47.3485Z" fill="#654BF6"/>
<path fill-rule="evenodd" clip-rule="evenodd" d="M58.1251 47.625C58.1251 47.556 58.1811 47.5 58.2501 47.5H60.1251C60.1941 47.5 60.2501 47.556 60.2501 47.625V60.375C60.2501 60.444 60.1941 60.5 60.1251 60.5H58.2501C58.1811 60.5 58.1251 60.444 58.1251 60.375V47.625ZM55.479 57.7956C55.4292 57.7526 55.3547 57.7558 55.3069 57.801C55.0147 58.0768 54.6724 58.2975 54.2974 58.4514C53.8859 58.6203 53.4437 58.7054 52.9975 58.7014C52.6208 58.7126 52.2457 58.6481 51.8953 58.512C51.545 58.3759 51.2268 58.1711 50.9605 57.9101C50.4765 57.4161 50.198 56.7108 50.198 55.8699C50.198 54.1868 51.3178 53.0355 52.9975 53.0355C53.448 53.0293 53.8944 53.1205 54.3047 53.3026C54.6767 53.4678 55.0107 53.7038 55.2874 53.9967C55.3347 54.0468 55.4133 54.0526 55.4654 54.0075L56.7313 52.9122C56.783 52.8674 56.7893 52.7893 56.7437 52.7384C55.7915 51.6744 54.2999 51.125 52.8814 51.125C50.0253 51.125 48.0002 53.0515 48.0002 55.8859C48.0002 57.2878 48.5035 58.4683 49.3522 59.3018C50.201 60.1354 51.4102 60.625 52.8054 60.625C54.5549 60.625 55.963 59.9541 56.7885 59.0935C56.8369 59.043 56.8316 58.9626 56.7786 58.9169L55.479 57.7956ZM70.5788 56.4938C70.5718 56.5565 70.5185 56.6033 70.4556 56.6033H63.8873C63.8075 56.6033 63.7481 56.6773 63.7689 56.7544C64.0957 57.9657 65.0699 58.6987 66.3997 58.6987C66.848 58.7081 67.2923 58.6158 67.6984 58.4291C68.0768 58.2551 68.4125 58.0034 68.683 57.6914C68.7157 57.6537 68.7727 57.6481 68.811 57.6801L70.1316 58.8298C70.1821 58.8738 70.1891 58.95 70.1458 59.0011C69.3485 59.9416 68.0568 60.625 66.2841 60.625C63.5571 60.625 61.5001 58.7365 61.5001 55.8674C61.5001 54.4598 61.9847 53.2795 62.7924 52.446C63.2187 52.0174 63.7298 51.6792 64.2941 51.4522C64.8584 51.2251 65.4641 51.1141 66.0737 51.1258C68.8377 51.1258 70.625 53.0697 70.625 55.7538C70.6216 56.0011 70.6061 56.248 70.5788 56.4938ZM63.8083 54.7519C63.7851 54.829 63.8447 54.9042 63.9253 54.9042H68.2926C68.3734 54.9042 68.433 54.8286 68.4106 54.751C68.1129 53.7208 67.3577 53.0333 66.1848 53.0333C65.8398 53.0223 65.4965 53.0848 65.1783 53.2163C64.8601 53.3478 64.5745 53.5454 64.3412 53.7954C64.0957 54.0736 63.9143 54.3999 63.8083 54.7519ZM77.1236 51.1264C77.1932 51.1256 77.25 51.1818 77.25 51.2514V53.3507C77.25 53.4234 77.1881 53.4808 77.1156 53.4754C76.9129 53.4604 76.7214 53.4476 76.5958 53.4476C74.9602 53.4476 74 54.5987 74 56.1097V60.375C74 60.444 73.9441 60.5 73.875 60.5H72C71.931 60.5 71.875 60.444 71.875 60.375V51.3811C71.875 51.3121 71.931 51.2561 72 51.2561H73.875C73.9441 51.2561 74 51.3121 74 51.3811V52.6435C74 52.6506 74.0058 52.6564 74.0129 52.6564C74.017 52.6564 74.0208 52.6545 74.0233 52.6512C74.7562 51.6724 75.838 51.1279 76.9809 51.1279L77.1236 51.1264ZM82.2027 56.6244C82.2103 56.6162 82.221 56.6115 82.2323 56.6115C82.2463 56.6115 82.2593 56.6188 82.2666 56.6306L84.6375 60.441C84.6603 60.4777 84.7004 60.5 84.7436 60.5L86.875 60.5C86.973 60.5 87.0329 60.3924 86.9813 60.3091L83.7287 55.0613C83.6994 55.0139 83.7049 54.9528 83.7424 54.9115L86.8761 51.454C86.9489 51.3736 86.8919 51.245 86.7835 51.245H84.5599C84.5249 51.245 84.4915 51.2597 84.4678 51.2855L80.8421 55.2378C80.7651 55.3218 80.625 55.2672 80.625 55.1533V47.625C80.625 47.556 80.569 47.5 80.5 47.5H78.625C78.556 47.5 78.5 47.556 78.5 47.625V60.375C78.5 60.444 78.556 60.5 78.625 60.5L80.5 60.5C80.569 60.5 80.625 60.444 80.625 60.375V58.3686C80.625 58.337 80.637 58.3066 80.6585 58.2835L82.2027 56.6244Z" fill="#131316"/>
</g>
<defs>
<filter id="filter0_f_423_1347" x="-406" y="-310" width="1112" height="744" filterUnits="userSpaceOnUse" color-interpolation-filters="sRGB">
<feFlood flood-opacity="0" result="BackgroundImageFix"/>
<feBlend mode="normal" in="SourceGraphic" in2="BackgroundImageFix" result="shape"/>
<feGaussianBlur stdDeviation="86" result="effect1_foregroundBlur_423_1347"/>
</filter>
<filter id="filter1_bd_423_1347" x="109.078" y="86.2969" width="138.986" height="176.342" filterUnits="userSpaceOnUse" color-interpolation-filters="sRGB">
<feFlood flood-opacity="0" result="BackgroundImageFix"/>
<feGaussianBlur in="BackgroundImageFix" stdDeviation="2"/>
<feComposite in2="SourceAlpha" operator="in" result="effect1_backgroundBlur_423_1347"/>
<feColorMatrix in="SourceAlpha" type="matrix" values="0 0 0 0 0 0 0 0 0 0 0 0 0 0 0 0 0 0 127 0" result="hardAlpha"/>
<feOffset dy="1"/>
<feComposite in2="hardAlpha" operator="out"/>
<feColorMatrix type="matrix" values="0 0 0 0 1 0 0 0 0 1 0 0 0 0 1 0 0 0 0.55 0"/>
<feBlend mode="normal" in2="effect1_backgroundBlur_423_1347" result="effect2_dropShadow_423_1347"/>
<feBlend mode="normal" in="SourceGraphic" in2="effect2_dropShadow_423_1347" result="shape"/>
</filter>
<filter id="filter2_ddddd_423_1347" x="274.84" y="38.8558" width="62.1422" height="62.1421" filterUnits="userSpaceOnUse" color-interpolation-filters="sRGB">
<feFlood flood-opacity="0" result="BackgroundImageFix"/>
<feColorMatrix in="SourceAlpha" type="matrix" values="0 0 0 0 0 0 0 0 0 0 0 0 0 0 0 0 0 0 127 0" result="hardAlpha"/>
<feOffset dy="4"/>
<feGaussianBlur stdDeviation="10"/>
<feComposite in2="hardAlpha" operator="out"/>
<feColorMatrix type="matrix" values="0 0 0 0 0.396078 0 0 0 0 0.294118 0 0 0 0 0.964706 0 0 0 0.1 0"/>
<feBlend mode="normal" in2="BackgroundImageFix" result="effect1_dropShadow_423_1347"/>
<feColorMatrix in="SourceAlpha" type="matrix" values="0 0 0 0 0 0 0 0 0 0 0 0 0 0 0 0 0 0 127 0" result="hardAlpha"/>
<feOffset dy="1"/>
<feGaussianBlur stdDeviation="0.5"/>
<feComposite in2="hardAlpha" operator="out"/>
<feColorMatrix type="matrix" values="0 0 0 0 0 0 0 0 0 0 0 0 0 0 0 0 0 0 0.05 0"/>
<feBlend mode="normal" in2="effect1_dropShadow_423_1347" result="effect2_dropShadow_423_1347"/>
<feColorMatrix in="SourceAlpha" type="matrix" values="0 0 0 0 0 0 0 0 0 0 0 0 0 0 0 0 0 0 127 0" result="hardAlpha"/>
<feMorphology radius="1" operator="dilate" in="SourceAlpha" result="effect3_dropShadow_423_1347"/>
<feOffset/>
<feComposite in2="hardAlpha" operator="out"/>
<feColorMatrix type="matrix" values="0 0 0 0 0.133333 0 0 0 0 0.164706 0 0 0 0 0.207843 0 0 0 0.05 0"/>
<feBlend mode="normal" in2="effect2_dropShadow_423_1347" result="effect3_dropShadow_423_1347"/>
<feColorMatrix in="SourceAlpha" type="matrix" values="0 0 0 0 0 0 0 0 0 0 0 0 0 0 0 0 0 0 127 0" result="hardAlpha"/>
<feOffset dy="4"/>
<feGaussianBlur stdDeviation="3"/>
<feComposite in2="hardAlpha" operator="out"/>
<feColorMatrix type="matrix" values="0 0 0 0 0.133333 0 0 0 0 0.164706 0 0 0 0 0.207843 0 0 0 0.08 0"/>
<feBlend mode="normal" in2="effect3_dropShadow_423_1347" result="effect4_dropShadow_423_1347"/>
<feColorMatrix in="SourceAlpha" type="matrix" values="0 0 0 0 0 0 0 0 0 0 0 0 0 0 0 0 0 0 127 0" result="hardAlpha"/>
<feOffset dy="1"/>
<feGaussianBlur stdDeviation="0.5"/>
<feComposite in2="hardAlpha" operator="out"/>
<feColorMatrix type="matrix" values="0 0 0 0 0.133333 0 0 0 0 0.164706 0 0 0 0 0.207843 0 0 0 0.1 0"/>
<feBlend mode="normal" in2="effect4_dropShadow_423_1347" result="effect5_dropShadow_423_1347"/>
<feBlend mode="normal" in="SourceGraphic" in2="effect5_dropShadow_423_1347" result="shape"/>
</filter>
<filter id="filter3_d_423_1347" x="296.84" y="56.8558" width="18.1422" height="19.1421" filterUnits="userSpaceOnUse" color-interpolation-filters="sRGB">
<feFlood flood-opacity="0" result="BackgroundImageFix"/>
<feColorMatrix in="SourceAlpha" type="matrix" values="0 0 0 0 0 0 0 0 0 0 0 0 0 0 0 0 0 0 127 0" result="hardAlpha"/>
<feOffset dy="1"/>
<feComposite in2="hardAlpha" operator="out"/>
<feColorMatrix type="matrix" values="0 0 0 0 1 0 0 0 0 1 0 0 0 0 1 0 0 0 0.5 0"/>
<feBlend mode="normal" in2="BackgroundImageFix" result="effect1_dropShadow_423_1347"/>
<feBlend mode="normal" in="SourceGraphic" in2="effect1_dropShadow_423_1347" result="shape"/>
</filter>
<filter id="filter4_ddddd_423_1347" x="175.431" y="237.846" width="54.4853" height="54.4852" filterUnits="userSpaceOnUse" color-interpolation-filters="sRGB">
<feFlood flood-opacity="0" result="BackgroundImageFix"/>
<feColorMatrix in="SourceAlpha" type="matrix" values="0 0 0 0 0 0 0 0 0 0 0 0 0 0 0 0 0 0 127 0" result="hardAlpha"/>
<feOffset dy="4"/>
<feGaussianBlur stdDeviation="10"/>
<feComposite in2="hardAlpha" operator="out"/>
<feColorMatrix type="matrix" values="0 0 0 0 0.396078 0 0 0 0 0.294118 0 0 0 0 0.964706 0 0 0 0.1 0"/>
<feBlend mode="normal" in2="BackgroundImageFix" result="effect1_dropShadow_423_1347"/>
<feColorMatrix in="SourceAlpha" type="matrix" values="0 0 0 0 0 0 0 0 0 0 0 0 0 0 0 0 0 0 127 0" result="hardAlpha"/>
<feOffset dy="1"/>
<feGaussianBlur stdDeviation="0.5"/>
<feComposite in2="hardAlpha" operator="out"/>
<feColorMatrix type="matrix" values="0 0 0 0 0 0 0 0 0 0 0 0 0 0 0 0 0 0 0.05 0"/>
<feBlend mode="normal" in2="effect1_dropShadow_423_1347" result="effect2_dropShadow_423_1347"/>
<feColorMatrix in="SourceAlpha" type="matrix" values="0 0 0 0 0 0 0 0 0 0 0 0 0 0 0 0 0 0 127 0" result="hardAlpha"/>
<feMorphology radius="1" operator="dilate" in="SourceAlpha" result="effect3_dropShadow_423_1347"/>
<feOffset/>
<feComposite in2="hardAlpha" operator="out"/>
<feColorMatrix type="matrix" values="0 0 0 0 0.133333 0 0 0 0 0.164706 0 0 0 0 0.207843 0 0 0 0.05 0"/>
<feBlend mode="normal" in2="effect2_dropShadow_423_1347" result="effect3_dropShadow_423_1347"/>
<feColorMatrix in="SourceAlpha" type="matrix" values="0 0 0 0 0 0 0 0 0 0 0 0 0 0 0 0 0 0 127 0" result="hardAlpha"/>
<feOffset dy="4"/>
<feGaussianBlur stdDeviation="3"/>
<feComposite in2="hardAlpha" operator="out"/>
<feColorMatrix type="matrix" values="0 0 0 0 0.133333 0 0 0 0 0.164706 0 0 0 0 0.207843 0 0 0 0.08 0"/>
<feBlend mode="normal" in2="effect3_dropShadow_423_1347" result="effect4_dropShadow_423_1347"/>
<feColorMatrix in="SourceAlpha" type="matrix" values="0 0 0 0 0 0 0 0 0 0 0 0 0 0 0 0 0 0 127 0" result="hardAlpha"/>
<feOffset dy="1"/>
<feGaussianBlur stdDeviation="0.5"/>
<feComposite in2="hardAlpha" operator="out"/>
<feColorMatrix type="matrix" values="0 0 0 0 0.133333 0 0 0 0 0.164706 0 0 0 0 0.207843 0 0 0 0.1 0"/>
<feBlend mode="normal" in2="effect4_dropShadow_423_1347" result="effect5_dropShadow_423_1347"/>
<feBlend mode="normal" in="SourceGraphic" in2="effect5_dropShadow_423_1347" result="shape"/>
</filter>
<filter id="filter5_i_423_1347" x="198.638" y="257.053" width="8.07104" height="8.07111" filterUnits="userSpaceOnUse" color-interpolation-filters="sRGB">
<feFlood flood-opacity="0" result="BackgroundImageFix"/>
<feBlend mode="normal" in="SourceGraphic" in2="BackgroundImageFix" result="shape"/>
<feColorMatrix in="SourceAlpha" type="matrix" values="0 0 0 0 0 0 0 0 0 0 0 0 0 0 0 0 0 0 127 0" result="hardAlpha"/>
<feOffset dy="1"/>
<feComposite in2="hardAlpha" operator="arithmetic" k2="-1" k3="1"/>
<feColorMatrix type="matrix" values="0 0 0 0 0 0 0 0 0 0 0 0 0 0 0 0 0 0 0.04 0"/>
<feBlend mode="normal" in2="shape" result="effect1_innerShadow_423_1347"/>
</filter>
<filter id="filter6_ddddd_423_1347" x="276.84" y="220.461" width="49.6569" height="49.6569" filterUnits="userSpaceOnUse" color-interpolation-filters="sRGB">
<feFlood flood-opacity="0" result="BackgroundImageFix"/>
<feColorMatrix in="SourceAlpha" type="matrix" values="0 0 0 0 0 0 0 0 0 0 0 0 0 0 0 0 0 0 127 0" result="hardAlpha"/>
<feOffset dy="4"/>
<feGaussianBlur stdDeviation="10"/>
<feComposite in2="hardAlpha" operator="out"/>
<feColorMatrix type="matrix" values="0 0 0 0 0.396078 0 0 0 0 0.294118 0 0 0 0 0.964706 0 0 0 0.1 0"/>
<feBlend mode="normal" in2="BackgroundImageFix" result="effect1_dropShadow_423_1347"/>
<feColorMatrix in="SourceAlpha" type="matrix" values="0 0 0 0 0 0 0 0 0 0 0 0 0 0 0 0 0 0 127 0" result="hardAlpha"/>
<feOffset dy="1"/>
<feGaussianBlur stdDeviation="0.5"/>
<feComposite in2="hardAlpha" operator="out"/>
<feColorMatrix type="matrix" values="0 0 0 0 0 0 0 0 0 0 0 0 0 0 0 0 0 0 0.05 0"/>
<feBlend mode="normal" in2="effect1_dropShadow_423_1347" result="effect2_dropShadow_423_1347"/>
<feColorMatrix in="SourceAlpha" type="matrix" values="0 0 0 0 0 0 0 0 0 0 0 0 0 0 0 0 0 0 127 0" result="hardAlpha"/>
<feMorphology radius="1" operator="dilate" in="SourceAlpha" result="effect3_dropShadow_423_1347"/>
<feOffset/>
<feComposite in2="hardAlpha" operator="out"/>
<feColorMatrix type="matrix" values="0 0 0 0 0.133333 0 0 0 0 0.164706 0 0 0 0 0.207843 0 0 0 0.05 0"/>
<feBlend mode="normal" in2="effect2_dropShadow_423_1347" result="effect3_dropShadow_423_1347"/>
<feColorMatrix in="SourceAlpha" type="matrix" values="0 0 0 0 0 0 0 0 0 0 0 0 0 0 0 0 0 0 127 0" result="hardAlpha"/>
<feOffset dy="4"/>
<feGaussianBlur stdDeviation="3"/>
<feComposite in2="hardAlpha" operator="out"/>
<feColorMatrix type="matrix" values="0 0 0 0 0.133333 0 0 0 0 0.164706 0 0 0 0 0.207843 0 0 0 0.08 0"/>
<feBlend mode="normal" in2="effect3_dropShadow_423_1347" result="effect4_dropShadow_423_1347"/>
<feColorMatrix in="SourceAlpha" type="matrix" values="0 0 0 0 0 0 0 0 0 0 0 0 0 0 0 0 0 0 127 0" result="hardAlpha"/>
<feOffset dy="1"/>
<feGaussianBlur stdDeviation="0.5"/>
<feComposite in2="hardAlpha" operator="out"/>
<feColorMatrix type="matrix" values="0 0 0 0 0.133333 0 0 0 0 0.164706 0 0 0 0 0.207843 0 0 0 0.1 0"/>
<feBlend mode="normal" in2="effect4_dropShadow_423_1347" result="effect5_dropShadow_423_1347"/>
<feBlend mode="normal" in="SourceGraphic" in2="effect5_dropShadow_423_1347" result="shape"/>
</filter>
<filter id="filter7_i_423_1347" x="299.047" y="238.668" width="5.24268" height="5.24268" filterUnits="userSpaceOnUse" color-interpolation-filters="sRGB">
<feFlood flood-opacity="0" result="BackgroundImageFix"/>
<feBlend mode="normal" in="SourceGraphic" in2="BackgroundImageFix" result="shape"/>
<feColorMatrix in="SourceAlpha" type="matrix" values="0 0 0 0 0 0 0 0 0 0 0 0 0 0 0 0 0 0 127 0" result="hardAlpha"/>
<feOffset dy="1"/>
<feComposite in2="hardAlpha" operator="arithmetic" k2="-1" k3="1"/>
<feColorMatrix type="matrix" values="0 0 0 0 0 0 0 0 0 0 0 0 0 0 0 0 0 0 0.04 0"/>
<feBlend mode="normal" in2="shape" result="effect1_innerShadow_423_1347"/>
</filter>
<filter id="filter8_ddddd_423_1347" x="129.761" y="-2.98486" width="65.2132" height="65.2132" filterUnits="userSpaceOnUse" color-interpolation-filters="sRGB">
<feFlood flood-opacity="0" result="BackgroundImageFix"/>
<feColorMatrix in="SourceAlpha" type="matrix" values="0 0 0 0 0 0 0 0 0 0 0 0 0 0 0 0 0 0 127 0" result="hardAlpha"/>
<feOffset dy="4"/>
<feGaussianBlur stdDeviation="10"/>
<feComposite in2="hardAlpha" operator="out"/>
<feColorMatrix type="matrix" values="0 0 0 0 0.396078 0 0 0 0 0.294118 0 0 0 0 0.964706 0 0 0 0.1 0"/>
<feBlend mode="normal" in2="BackgroundImageFix" result="effect1_dropShadow_423_1347"/>
<feColorMatrix in="SourceAlpha" type="matrix" values="0 0 0 0 0 0 0 0 0 0 0 0 0 0 0 0 0 0 127 0" result="hardAlpha"/>
<feOffset dy="1"/>
<feGaussianBlur stdDeviation="0.5"/>
<feComposite in2="hardAlpha" operator="out"/>
<feColorMatrix type="matrix" values="0 0 0 0 0 0 0 0 0 0 0 0 0 0 0 0 0 0 0.05 0"/>
<feBlend mode="normal" in2="effect1_dropShadow_423_1347" result="effect2_dropShadow_423_1347"/>
<feColorMatrix in="SourceAlpha" type="matrix" values="0 0 0 0 0 0 0 0 0 0 0 0 0 0 0 0 0 0 127 0" result="hardAlpha"/>
<feMorphology radius="1" operator="dilate" in="SourceAlpha" result="effect3_dropShadow_423_1347"/>
<feOffset/>
<feComposite in2="hardAlpha" operator="out"/>
<feColorMatrix type="matrix" values="0 0 0 0 0.133333 0 0 0 0 0.164706 0 0 0 0 0.207843 0 0 0 0.05 0"/>
<feBlend mode="normal" in2="effect2_dropShadow_423_1347" result="effect3_dropShadow_423_1347"/>
<feColorMatrix in="SourceAlpha" type="matrix" values="0 0 0 0 0 0 0 0 0 0 0 0 0 0 0 0 0 0 127 0" result="hardAlpha"/>
<feOffset dy="4"/>
<feGaussianBlur stdDeviation="3"/>
<feComposite in2="hardAlpha" operator="out"/>
<feColorMatrix type="matrix" values="0 0 0 0 0.133333 0 0 0 0 0.164706 0 0 0 0 0.207843 0 0 0 0.08 0"/>
<feBlend mode="normal" in2="effect3_dropShadow_423_1347" result="effect4_dropShadow_423_1347"/>
<feColorMatrix in="SourceAlpha" type="matrix" values="0 0 0 0 0 0 0 0 0 0 0 0 0 0 0 0 0 0 127 0" result="hardAlpha"/>
<feOffset dy="1"/>
<feGaussianBlur stdDeviation="0.5"/>
<feComposite in2="hardAlpha" operator="out"/>
<feColorMatrix type="matrix" values="0 0 0 0 0.133333 0 0 0 0 0.164706 0 0 0 0 0.207843 0 0 0 0.1 0"/>
<feBlend mode="normal" in2="effect4_dropShadow_423_1347" result="effect5_dropShadow_423_1347"/>
<feBlend mode="normal" in="SourceGraphic" in2="effect5_dropShadow_423_1347" result="shape"/>
</filter>
<filter id="filter9_iii_423_1347" x="265.02" y="102.818" width="4" height="4" filterUnits="userSpaceOnUse" color-interpolation-filters="sRGB">
<feFlood flood-opacity="0" result="BackgroundImageFix"/>
<feBlend mode="normal" in="SourceGraphic" in2="BackgroundImageFix" result="shape"/>
<feColorMatrix in="SourceAlpha" type="matrix" values="0 0 0 0 0 0 0 0 0 0 0 0 0 0 0 0 0 0 127 0" result="hardAlpha"/>
<feOffset dy="1"/>
<feComposite in2="hardAlpha" operator="arithmetic" k2="-1" k3="1"/>
<feColorMatrix type="matrix" values="0 0 0 0 1 0 0 0 0 1 0 0 0 0 1 0 0 0 0.25 0"/>
<feBlend mode="normal" in2="shape" result="effect1_innerShadow_423_1347"/>
<feColorMatrix in="SourceAlpha" type="matrix" values="0 0 0 0 0 0 0 0 0 0 0 0 0 0 0 0 0 0 127 0" result="hardAlpha"/>
<feOffset/>
<feGaussianBlur stdDeviation="0.5"/>
<feComposite in2="hardAlpha" operator="arithmetic" k2="-1" k3="1"/>
<feColorMatrix type="matrix" values="0 0 0 0 0 0 0 0 0 0 0 0 0 0 0 0 0 0 0.25 0"/>
<feBlend mode="normal" in2="effect1_innerShadow_423_1347" result="effect2_innerShadow_423_1347"/>
<feColorMatrix in="SourceAlpha" type="matrix" values="0 0 0 0 0 0 0 0 0 0 0 0 0 0 0 0 0 0 127 0" result="hardAlpha"/>
<feOffset dy="-0.5"/>
<feComposite in2="hardAlpha" operator="arithmetic" k2="-1" k3="1"/>
<feColorMatrix type="matrix" values="0 0 0 0 0 0 0 0 0 0 0 0 0 0 0 0 0 0 0.11 0"/>
<feBlend mode="normal" in2="effect2_innerShadow_423_1347" result="effect3_innerShadow_423_1347"/>
</filter>
<filter id="filter10_iii_423_1347" x="265.727" y="205.348" width="4" height="4" filterUnits="userSpaceOnUse" color-interpolation-filters="sRGB">
<feFlood flood-opacity="0" result="BackgroundImageFix"/>
<feBlend mode="normal" in="SourceGraphic" in2="BackgroundImageFix" result="shape"/>
<feColorMatrix in="SourceAlpha" type="matrix" values="0 0 0 0 0 0 0 0 0 0 0 0 0 0 0 0 0 0 127 0" result="hardAlpha"/>
<feOffset dy="1"/>
<feComposite in2="hardAlpha" operator="arithmetic" k2="-1" k3="1"/>
<feColorMatrix type="matrix" values="0 0 0 0 1 0 0 0 0 1 0 0 0 0 1 0 0 0 0.25 0"/>
<feBlend mode="normal" in2="shape" result="effect1_innerShadow_423_1347"/>
<feColorMatrix in="SourceAlpha" type="matrix" values="0 0 0 0 0 0 0 0 0 0 0 0 0 0 0 0 0 0 127 0" result="hardAlpha"/>
<feOffset/>
<feGaussianBlur stdDeviation="0.5"/>
<feComposite in2="hardAlpha" operator="arithmetic" k2="-1" k3="1"/>
<feColorMatrix type="matrix" values="0 0 0 0 0 0 0 0 0 0 0 0 0 0 0 0 0 0 0.25 0"/>
<feBlend mode="normal" in2="effect1_innerShadow_423_1347" result="effect2_innerShadow_423_1347"/>
<feColorMatrix in="SourceAlpha" type="matrix" values="0 0 0 0 0 0 0 0 0 0 0 0 0 0 0 0 0 0 127 0" result="hardAlpha"/>
<feOffset dy="-0.5"/>
<feComposite in2="hardAlpha" operator="arithmetic" k2="-1" k3="1"/>
<feColorMatrix type="matrix" values="0 0 0 0 0 0 0 0 0 0 0 0 0 0 0 0 0 0 0.11 0"/>
<feBlend mode="normal" in2="effect2_innerShadow_423_1347" result="effect3_innerShadow_423_1347"/>
</filter>
<filter id="filter11_iii_423_1347" x="121.477" y="27.1573" width="4" height="4" filterUnits="userSpaceOnUse" color-interpolation-filters="sRGB">
<feFlood flood-opacity="0" result="BackgroundImageFix"/>
<feBlend mode="normal" in="SourceGraphic" in2="BackgroundImageFix" result="shape"/>
<feColorMatrix in="SourceAlpha" type="matrix" values="0 0 0 0 0 0 0 0 0 0 0 0 0 0 0 0 0 0 127 0" result="hardAlpha"/>
<feOffset dy="1"/>
<feComposite in2="hardAlpha" operator="arithmetic" k2="-1" k3="1"/>
<feColorMatrix type="matrix" values="0 0 0 0 1 0 0 0 0 1 0 0 0 0 1 0 0 0 0.25 0"/>
<feBlend mode="normal" in2="shape" result="effect1_innerShadow_423_1347"/>
<feColorMatrix in="SourceAlpha" type="matrix" values="0 0 0 0 0 0 0 0 0 0 0 0 0 0 0 0 0 0 127 0" result="hardAlpha"/>
<feOffset/>
<feGaussianBlur stdDeviation="0.5"/>
<feComposite in2="hardAlpha" operator="arithmetic" k2="-1" k3="1"/>
<feColorMatrix type="matrix" values="0 0 0 0 0 0 0 0 0 0 0 0 0 0 0 0 0 0 0.25 0"/>
<feBlend mode="normal" in2="effect1_innerShadow_423_1347" result="effect2_innerShadow_423_1347"/>
<feColorMatrix in="SourceAlpha" type="matrix" values="0 0 0 0 0 0 0 0 0 0 0 0 0 0 0 0 0 0 127 0" result="hardAlpha"/>
<feOffset dy="-0.5"/>
<feComposite in2="hardAlpha" operator="arithmetic" k2="-1" k3="1"/>
<feColorMatrix type="matrix" values="0 0 0 0 0 0 0 0 0 0 0 0 0 0 0 0 0 0 0.11 0"/>
<feBlend mode="normal" in2="effect2_innerShadow_423_1347" result="effect3_innerShadow_423_1347"/>
</filter>
<filter id="filter12_ddddd_423_1347" x="89.5784" y="185.933" width="48" height="48" filterUnits="userSpaceOnUse" color-interpolation-filters="sRGB">
<feFlood flood-opacity="0" result="BackgroundImageFix"/>
<feColorMatrix in="SourceAlpha" type="matrix" values="0 0 0 0 0 0 0 0 0 0 0 0 0 0 0 0 0 0 127 0" result="hardAlpha"/>
<feOffset dy="4"/>
<feGaussianBlur stdDeviation="10"/>
<feComposite in2="hardAlpha" operator="out"/>
<feColorMatrix type="matrix" values="0 0 0 0 0.396078 0 0 0 0 0.294118 0 0 0 0 0.964706 0 0 0 0.1 0"/>
<feBlend mode="normal" in2="BackgroundImageFix" result="effect1_dropShadow_423_1347"/>
<feColorMatrix in="SourceAlpha" type="matrix" values="0 0 0 0 0 0 0 0 0 0 0 0 0 0 0 0 0 0 127 0" result="hardAlpha"/>
<feOffset dy="1"/>
<feGaussianBlur stdDeviation="0.5"/>
<feComposite in2="hardAlpha" operator="out"/>
<feColorMatrix type="matrix" values="0 0 0 0 0 0 0 0 0 0 0 0 0 0 0 0 0 0 0.05 0"/>
<feBlend mode="normal" in2="effect1_dropShadow_423_1347" result="effect2_dropShadow_423_1347"/>
<feColorMatrix in="SourceAlpha" type="matrix" values="0 0 0 0 0 0 0 0 0 0 0 0 0 0 0 0 0 0 127 0" result="hardAlpha"/>
<feMorphology radius="1" operator="dilate" in="SourceAlpha" result="effect3_dropShadow_423_1347"/>
<feOffset/>
<feComposite in2="hardAlpha" operator="out"/>
<feColorMatrix type="matrix" values="0 0 0 0 0.133333 0 0 0 0 0.164706 0 0 0 0 0.207843 0 0 0 0.05 0"/>
<feBlend mode="normal" in2="effect2_dropShadow_423_1347" result="effect3_dropShadow_423_1347"/>
<feColorMatrix in="SourceAlpha" type="matrix" values="0 0 0 0 0 0 0 0 0 0 0 0 0 0 0 0 0 0 127 0" result="hardAlpha"/>
<feOffset dy="4"/>
<feGaussianBlur stdDeviation="3"/>
<feComposite in2="hardAlpha" operator="out"/>
<feColorMatrix type="matrix" values="0 0 0 0 0.133333 0 0 0 0 0.164706 0 0 0 0 0.207843 0 0 0 0.08 0"/>
<feBlend mode="normal" in2="effect3_dropShadow_423_1347" result="effect4_dropShadow_423_1347"/>
<feColorMatrix in="SourceAlpha" type="matrix" values="0 0 0 0 0 0 0 0 0 0 0 0 0 0 0 0 0 0 127 0" result="hardAlpha"/>
<feOffset dy="1"/>
<feGaussianBlur stdDeviation="0.5"/>
<feComposite in2="hardAlpha" operator="out"/>
<feColorMatrix type="matrix" values="0 0 0 0 0.133333 0 0 0 0 0.164706 0 0 0 0 0.207843 0 0 0 0.1 0"/>
<feBlend mode="normal" in2="effect4_dropShadow_423_1347" result="effect5_dropShadow_423_1347"/>
<feBlend mode="normal" in="SourceGraphic" in2="effect5_dropShadow_423_1347" result="shape"/>
</filter>
<filter id="filter13_i_423_1347" x="111.578" y="203.934" width="4" height="4" filterUnits="userSpaceOnUse" color-interpolation-filters="sRGB">
<feFlood flood-opacity="0" result="BackgroundImageFix"/>
<feBlend mode="normal" in="SourceGraphic" in2="BackgroundImageFix" result="shape"/>
<feColorMatrix in="SourceAlpha" type="matrix" values="0 0 0 0 0 0 0 0 0 0 0 0 0 0 0 0 0 0 127 0" result="hardAlpha"/>
<feOffset dy="1"/>
<feComposite in2="hardAlpha" operator="arithmetic" k2="-1" k3="1"/>
<feColorMatrix type="matrix" values="0 0 0 0 0 0 0 0 0 0 0 0 0 0 0 0 0 0 0.04 0"/>
<feBlend mode="normal" in2="shape" result="effect1_innerShadow_423_1347"/>
</filter>
<filter id="filter14_ddddd_423_1347" x="-8.58875" y="99.0812" width="52" height="52" filterUnits="userSpaceOnUse" color-interpolation-filters="sRGB">
<feFlood flood-opacity="0" result="BackgroundImageFix"/>
<feColorMatrix in="SourceAlpha" type="matrix" values="0 0 0 0 0 0 0 0 0 0 0 0 0 0 0 0 0 0 127 0" result="hardAlpha"/>
<feOffset dy="4"/>
<feGaussianBlur stdDeviation="10"/>
<feComposite in2="hardAlpha" operator="out"/>
<feColorMatrix type="matrix" values="0 0 0 0 0.396078 0 0 0 0 0.294118 0 0 0 0 0.964706 0 0 0 0.1 0"/>
<feBlend mode="normal" in2="BackgroundImageFix" result="effect1_dropShadow_423_1347"/>
<feColorMatrix in="SourceAlpha" type="matrix" values="0 0 0 0 0 0 0 0 0 0 0 0 0 0 0 0 0 0 127 0" result="hardAlpha"/>
<feOffset dy="1"/>
<feGaussianBlur stdDeviation="0.5"/>
<feComposite in2="hardAlpha" operator="out"/>
<feColorMatrix type="matrix" values="0 0 0 0 0 0 0 0 0 0 0 0 0 0 0 0 0 0 0.05 0"/>
<feBlend mode="normal" in2="effect1_dropShadow_423_1347" result="effect2_dropShadow_423_1347"/>
<feColorMatrix in="SourceAlpha" type="matrix" values="0 0 0 0 0 0 0 0 0 0 0 0 0 0 0 0 0 0 127 0" result="hardAlpha"/>
<feMorphology radius="1" operator="dilate" in="SourceAlpha" result="effect3_dropShadow_423_1347"/>
<feOffset/>
<feComposite in2="hardAlpha" operator="out"/>
<feColorMatrix type="matrix" values="0 0 0 0 0.133333 0 0 0 0 0.164706 0 0 0 0 0.207843 0 0 0 0.05 0"/>
<feBlend mode="normal" in2="effect2_dropShadow_423_1347" result="effect3_dropShadow_423_1347"/>
<feColorMatrix in="SourceAlpha" type="matrix" values="0 0 0 0 0 0 0 0 0 0 0 0 0 0 0 0 0 0 127 0" result="hardAlpha"/>
<feOffset dy="4"/>
<feGaussianBlur stdDeviation="3"/>
<feComposite in2="hardAlpha" operator="out"/>
<feColorMatrix type="matrix" values="0 0 0 0 0.133333 0 0 0 0 0.164706 0 0 0 0 0.207843 0 0 0 0.08 0"/>
<feBlend mode="normal" in2="effect3_dropShadow_423_1347" result="effect4_dropShadow_423_1347"/>
<feColorMatrix in="SourceAlpha" type="matrix" values="0 0 0 0 0 0 0 0 0 0 0 0 0 0 0 0 0 0 127 0" result="hardAlpha"/>
<feOffset dy="1"/>
<feGaussianBlur stdDeviation="0.5"/>
<feComposite in2="hardAlpha" operator="out"/>
<feColorMatrix type="matrix" values="0 0 0 0 0.133333 0 0 0 0 0.164706 0 0 0 0 0.207843 0 0 0 0.1 0"/>
<feBlend mode="normal" in2="effect4_dropShadow_423_1347" result="effect5_dropShadow_423_1347"/>
<feBlend mode="normal" in="SourceGraphic" in2="effect5_dropShadow_423_1347" result="shape"/>
</filter>
<filter id="filter15_di_423_1347" x="13.8757" y="117.546" width="7.07108" height="8.07104" filterUnits="userSpaceOnUse" color-interpolation-filters="sRGB">
<feFlood flood-opacity="0" result="BackgroundImageFix"/>
<feColorMatrix in="SourceAlpha" type="matrix" values="0 0 0 0 0 0 0 0 0 0 0 0 0 0 0 0 0 0 127 0" result="hardAlpha"/>
<feOffset dy="1"/>
<feComposite in2="hardAlpha" operator="out"/>
<feColorMatrix type="matrix" values="0 0 0 0 1 0 0 0 0 1 0 0 0 0 1 0 0 0 0.55 0"/>
<feBlend mode="normal" in2="BackgroundImageFix" result="effect1_dropShadow_423_1347"/>
<feBlend mode="normal" in="SourceGraphic" in2="effect1_dropShadow_423_1347" result="shape"/>
<feColorMatrix in="SourceAlpha" type="matrix" values="0 0 0 0 0 0 0 0 0 0 0 0 0 0 0 0 0 0 127 0" result="hardAlpha"/>
<feMorphology radius="1" operator="erode" in="SourceAlpha" result="effect2_innerShadow_423_1347"/>
<feOffset/>
<feComposite in2="hardAlpha" operator="arithmetic" k2="-1" k3="1"/>
<feColorMatrix type="matrix" values="0 0 0 0 0 0 0 0 0 0 0 0 0 0 0 0 0 0 0.03 0"/>
<feBlend mode="normal" in2="shape" result="effect2_innerShadow_423_1347"/>
</filter>
<filter id="filter16_f_423_1347" x="-127" y="-173" width="1720" height="1085.5" filterUnits="userSpaceOnUse" color-interpolation-filters="sRGB">
<feFlood flood-opacity="0" result="BackgroundImageFix"/>
<feBlend mode="normal" in="SourceGraphic" in2="BackgroundImageFix" result="shape"/>
<feGaussianBlur stdDeviation="54" result="effect1_foregroundBlur_423_1347"/>
</filter>
<filter id="filter17_di_423_1347" x="28" y="236" width="164" height="38" filterUnits="userSpaceOnUse" color-interpolation-filters="sRGB">
<feFlood flood-opacity="0" result="BackgroundImageFix"/>
<feColorMatrix in="SourceAlpha" type="matrix" values="0 0 0 0 0 0 0 0 0 0 0 0 0 0 0 0 0 0 127 0" result="hardAlpha"/>
<feOffset dy="2"/>
<feGaussianBlur stdDeviation="1.5"/>
<feComposite in2="hardAlpha" operator="out"/>
<feColorMatrix type="matrix" values="0 0 0 0 0.133333 0 0 0 0 0.164706 0 0 0 0 0.207843 0 0 0 0.2 0"/>
<feBlend mode="normal" in2="BackgroundImageFix" result="effect1_dropShadow_423_1347"/>
<feBlend mode="normal" in="SourceGraphic" in2="effect1_dropShadow_423_1347" result="shape"/>
<feColorMatrix in="SourceAlpha" type="matrix" values="0 0 0 0 0 0 0 0 0 0 0 0 0 0 0 0 0 0 127 0" result="hardAlpha"/>
<feOffset dy="1"/>
<feComposite in2="hardAlpha" operator="arithmetic" k2="-1" k3="1"/>
<feColorMatrix type="matrix" values="0 0 0 0 1 0 0 0 0 1 0 0 0 0 1 0 0 0 0.07 0"/>
<feBlend mode="normal" in2="shape" result="effect2_innerShadow_423_1347"/>
</filter>
<radialGradient id="paint0_radial_423_1347" cx="0" cy="0" r="1" gradientUnits="userSpaceOnUse" gradientTransform="translate(309 418) rotate(132.588) scale(319.188 1154.97)">
<stop stop-color="#D9D9D9"/>
<stop offset="1" stop-color="#D9D9D9" stop-opacity="0"/>
</radialGradient>
<linearGradient id="paint1_linear_423_1347" x1="302.183" y1="65.9269" x2="302.183" y2="83.9269" gradientUnits="userSpaceOnUse">
<stop stop-color="white"/>
<stop offset="1" stop-color="white" stop-opacity="0"/>
</linearGradient>
<linearGradient id="paint2_linear_423_1347" x1="200.188" y1="261.088" x2="200.188" y2="273.088" gradientUnits="userSpaceOnUse">
<stop stop-color="white"/>
<stop offset="1" stop-color="white" stop-opacity="0"/>
</linearGradient>
<linearGradient id="paint3_linear_423_1347" x1="300.011" y1="241.289" x2="300.011" y2="249.289" gradientUnits="userSpaceOnUse">
<stop stop-color="white"/>
<stop offset="1" stop-color="white" stop-opacity="0"/>
</linearGradient>
<linearGradient id="paint4_linear_423_1347" x1="160.933" y1="29.1573" x2="160.933" y2="43.1573" gradientUnits="userSpaceOnUse">
<stop stop-color="white"/>
<stop offset="1" stop-color="#F5F6F7"/>
</linearGradient>
<linearGradient id="paint5_linear_423_1347" x1="113.578" y1="209.933" x2="113.578" y2="217.933" gradientUnits="userSpaceOnUse">
<stop stop-color="white"/>
<stop offset="1" stop-color="white" stop-opacity="0"/>
</linearGradient>
<linearGradient id="paint6_linear_423_1347" x1="17.4112" y1="115.081" x2="17.4112" y2="127.081" gradientUnits="userSpaceOnUse">
<stop stop-color="white"/>
<stop offset="1" stop-color="white" stop-opacity="0"/>
</linearGradient>
<radialGradient id="paint7_radial_423_1347" cx="0" cy="0" r="1" gradientUnits="userSpaceOnUse" gradientTransform="translate(313 -3.00006) rotate(125.169) scale(505.223 1311.64)">
<stop offset="0.195267" stop-color="#6C47FF" stop-opacity="0.8"/>
<stop offset="0.573113" stop-color="#38DAFD" stop-opacity="0.9"/>
<stop offset="1" stop-color="#6248F6" stop-opacity="0"/>
</radialGradient>
<linearGradient id="paint8_linear_423_1347" x1="110" y1="238" x2="110" y2="268" gradientUnits="userSpaceOnUse">
<stop stop-color="white"/>
<stop offset="1" stop-color="white" stop-opacity="0"/>
</linearGradient>
<linearGradient id="paint9_linear_423_1347" x1="110" y1="238" x2="110" y2="268" gradientUnits="userSpaceOnUse">
<stop offset="0.477083" stop-color="white"/>
<stop offset="0.522917" stop-color="white" stop-opacity="0"/>
</linearGradient>
<linearGradient id="paint10_linear_423_1347" x1="110" y1="238" x2="110" y2="268" gradientUnits="userSpaceOnUse">
<stop stop-color="#6C47FF"/>
<stop offset="1" stop-color="#6430F7"/>
</linearGradient>
<clipPath id="clip0_423_1347">
<rect width="300" height="300" rx="24" fill="white"/>
</clipPath>
<clipPath id="clip1_423_1347">
<rect width="1440" height="553" fill="white" transform="translate(-322 312) rotate(-45)"/>
</clipPath>
</defs>
</svg>
