<svg height="1509" viewBox=".145 .207 147.685 89.291" width="2500" xmlns="http://www.w3.org/2000/svg"><path d="m34.992 23.495h27.855v2.219h-25.301v16.699h23.792v2.219h-23.792v18.334h25.591v2.219h-28.145zm30.35 0h2.96l13.115 18.334 13.405-18.334 18.233-23.288-29.955 43.549 15.436 21.429h-3.076l-14.043-19.502-14.101 19.502h-3.018l15.552-21.429-14.507-20.261zm34.297 2.219v-2.219h31.742v2.219h-14.623v39.47h-2.554v-39.47h-14.564zm-99.494-2.219h3.192l44.011 66.003-18.188-24.313-26.346-38.537-.116 38.537h-2.553zm130.98 38.801c-.523 0-.914-.405-.914-.928 0-.524.391-.929.913-.929.528 0 .913.405.913.929 0 .523-.385.928-.913.928zm2.508-2.443h1.367c.019.742.56 1.24 1.354 1.24.888 0 1.391-.535 1.391-1.539v-6.356h1.391v6.362c0 1.808-1.043 2.849-2.77 2.849-1.62 0-2.732-1.01-2.732-2.556zm7.322-.08h1.379c.118.853.95 1.395 2.149 1.395 1.117 0 1.937-.58 1.937-1.377 0-.685-.521-1.097-1.708-1.377l-1.155-.28c-1.62-.38-2.36-1.166-2.36-2.487 0-1.602 1.304-2.668 3.26-2.668 1.82 0 3.15 1.066 3.23 2.58h-1.354c-.13-.828-.85-1.346-1.894-1.346-1.1 0-1.832.53-1.832 1.34 0 .642.472 1.01 1.64 1.284l.987.243c1.838.43 2.596 1.178 2.596 2.53 0 1.72-1.33 2.799-3.453 2.799-1.987 0-3.323-1.029-3.422-2.637z"/></svg>