<svg xmlns="http://www.w3.org/2000/svg" viewBox="0 0 600 580.44" width="32" height="32">
  <path d="M473.49,197.63c-75.94-35.11-185.08-57.42-287.78-49.11,5.15-34,17.85-57.69,38.7-62.68,28.69-6.88,60,12,89.84,46.35,19.55,2.53,42.73,7,58.86,10.71C318.7,40.56,245.72-16.8,190.21,4.36,148,20.47,126.39,78.59,129,156.69c-55,11.7-97.87,32.49-125.31,62.39-1.39,1.61-4.53,5.67-3.41,7.61.85,1.47,3.65-.18,4.85-1,31.83-22.26,72.58-34.31,125.66-41.89,7.56,83.32,42.81,189,101.36,273.78-32,12.56-58.89,13.39-73.64-2.17-20.29-21.41-19.61-57.95-4.77-101-7.58-18.2-15.31-40.51-20.15-56.34C72.12,396.41,58.93,488.29,105,525.78c35.07,28.52,96.18,18.15,162.54-23.12,37.64,41.79,77.07,68.51,116.69,77.33,2.09.39,7.17,1.09,8.29-.85.85-1.47-2-3.08-3.28-3.71-35.19-16.44-66-45.71-99.1-87.88C358.53,439.34,432.42,356,476.57,262.88c26.9,21.47,41,44.3,34.94,64.85-8.4,28.29-40.38,46-85.06,54.63C414.48,398,399,415.86,387.74,428c115.84,4,202-30.47,211.43-89.12,7.17-44.64-32.37-92.38-101.3-129.21,17.38-53.49,20.8-101,8.63-139.72-.71-2-2.64-6.76-4.88-6.76-1.7,0-1.68,3.26-1.58,4.7C503.41,106.55,493.47,147.88,473.49,197.63ZM260.21,444.33c-49-78.61-77.24-171.21-77.06-264.84h0C275.71,176.39,370,198.2,451,245.17h0c-43.59,81.71-109.64,152.49-190.82,199.15Z" fill="#fff"/>
</svg>
