<?xml version="1.0" encoding="UTF-8" standalone="no"?>
<svg
   id="Layer_1"
   data-name="Layer 1"
   viewBox="0 0 512 512"
   version="1.1"
   sodipodi:docname="keycloak_icon_512px.svg"
   inkscape:version="1.1.1 (3bf5ae0d25, 2021-09-20)"
   xmlns:inkscape="http://www.inkscape.org/namespaces/inkscape"
   xmlns:sodipodi="http://sodipodi.sourceforge.net/DTD/sodipodi-0.dtd"
   xmlns="http://www.w3.org/2000/svg"
   xmlns:svg="http://www.w3.org/2000/svg">
  <sodipodi:namedview
     id="namedview113"
     pagecolor="#ffffff"
     bordercolor="#666666"
     borderopacity="1.0"
     inkscape:pageshadow="2"
     inkscape:pageopacity="0.0"
     inkscape:pagecheckerboard="0"
     showgrid="false"
     inkscape:zoom="2.1434174"
     inkscape:cx="279.92681"
     inkscape:cy="239.33742"
     inkscape:window-width="1920"
     inkscape:window-height="1011"
     inkscape:window-x="0"
     inkscape:window-y="0"
     inkscape:window-maximized="1"
     inkscape:current-layer="g110" />
  <defs
     id="defs10">
    <style
       id="style2">.cls-1{fill:none;}.cls-2{clip-path:url(#clip-path);}.cls-3{fill:#b17c81;stroke:#b17c81;}.cls-10,.cls-11,.cls-12,.cls-13,.cls-3,.cls-4,.cls-5,.cls-6,.cls-7,.cls-8,.cls-9{stroke-width:1.51px;}.cls-4{fill:#a2747c;stroke:#a2747c;}.cls-5{fill:#996976;stroke:#996976;}.cls-6{fill:#aa787e;stroke:#aa787e;}.cls-7{fill:#b2777e;stroke:#b2777e;}.cls-8{fill:#b27a7f;stroke:#b27a7f;}.cls-9{fill:#c78485;stroke:#c78485;}.cls-10{fill:#c08184;stroke:#c08184;}.cls-11{fill:#c48485;stroke:#c48485;}.cls-12{fill:#d58b88;stroke:#d58b88;}.cls-13{fill:#e09790;stroke:#e09790;}.cls-14{clip-path:url(#clip-path-2);}.cls-15{fill:#4d4d4d;}.cls-16{fill:#e1e1e1;}.cls-17{fill:#c8c8c8;}.cls-18{fill:#c2c2c2;}.cls-19{fill:#c7c7c7;}.cls-20{fill:#cecece;}.cls-21{fill:#d3d3d3;}.cls-22{fill:#c6c6c6;}.cls-23{fill:#d5d5d5;}.cls-24{fill:#d0d0d0;}.cls-25{fill:#bfbfbf;}.cls-26{fill:#d9d9d9;}.cls-27{fill:#d4d4d4;}.cls-28{fill:#d8d8d8;}.cls-29{fill:#e2e2e2;}.cls-30{fill:#e4e4e4;}.cls-31{fill:#dedede;}.cls-32{fill:#c5c5c5;}.cls-33{fill:#d1d1d1;}.cls-34{fill:#ddd;}.cls-35{fill:#e3e3e3;}.cls-36{fill:#00b8e3;}.cls-37{fill:#33c6e9;}.cls-38{fill:#008aaa;}</style>
    <clipPath
       id="clip-path">
      <rect
         class="cls-1"
         x="-1018.62"
         y="565.7"
         width="1881.24"
         height="1175.78"
         id="rect4" />
    </clipPath>
    <clipPath
       id="clip-path-2">
      <rect
         class="cls-1"
         width="512"
         height="512"
         id="rect7" />
    </clipPath>
  </defs>
  <title
     id="title12">keycloak_deliverables</title>
  <g
     class="cls-2"
     clip-path="url(#clip-path)"
     id="g36">
    <path
       class="cls-3"
       d="M-42.82,358l245,24.8,199.4,2Z"
       id="path14" />
    <path
       class="cls-4"
       d="M-42.82,358l444.44,26.79,227.18-2Z"
       id="path16" />
    <path
       class="cls-5"
       d="M401.62,384.74L565.31,523.63,628.8,382.76Z"
       id="path18" />
    <path
       class="cls-6"
       d="M202.22,382.76l54.56,14.88,144.84-12.9Z"
       id="path20" />
    <path
       class="cls-7"
       d="M401.62,384.74L356,537.52l209.32-13.89Z"
       id="path22" />
    <path
       class="cls-8"
       d="M256.78,397.64L356,537.52l45.63-152.78Z"
       id="path24" />
    <path
       class="cls-9"
       d="M256.78,397.64L164.52,533.55l191.47,4Z"
       id="path26" />
    <path
       class="cls-10"
       d="M202.22,382.76l-37.7,150.79,92.26-135.91Z"
       id="path28" />
    <path
       class="cls-11"
       d="M-42.82,358L164.52,533.55l37.7-150.79Z"
       id="path30" />
    <path
       class="cls-12"
       d="M-42.82,358l-51.59,137.9,258.93,37.7Z"
       id="path32" />
    <path
       class="cls-13"
       d="M-94.41,495.85L-33.89,598l198.41-64.48Z"
       id="path34" />
  </g>
  <g
     class="cls-14"
     clip-path="url(#clip-path-2)"
     id="g110">
    <path
       class="cls-15"
       d="m 438.48,152 c -1.36647,0.0146 -2.635,-0.70753 -3.32,-1.89 L 377.39,49.94 C 376.67452,48.754034 375.38499,48.035096 374,48.05 H 138.33 c -1.37003,-0.01824 -2.64324,0.704388 -3.33,1.89 L 75,153.89 19.17,254.09 c -0.670238,1.18514 -0.670238,2.63486 0,3.82 L 75,358 135,462 c 0.685,1.18247 1.95353,1.90461 3.32,1.89 H 374 c 1.37433,0.004 2.64999,-0.71328 3.36,-1.89 L 435.2,361.9 c 0.685,-1.18247 1.95353,-1.90461 3.32,-1.89 h 71.93 c 2.38587,0 4.32,-1.93413 4.32,-4.32 V 156.32 c 0,-2.38587 -1.93413,-4.32 -4.32,-4.32 h -72 z"
       id="path38"
       sodipodi:nodetypes="ccccccccccccccccsssscc" />
    <path
       style="fill:#e2e2e2;stroke:none;stroke-width:1px;stroke-linecap:butt;stroke-linejoin:miter;stroke-opacity:1;fill-opacity:1"
       d="M 72.85,157.64 17.658505,256.00902 23.53,268.94 78.375,358.53222 114.19,360 401.46,359.98 H 461 L 499.26418,350.30026 514.76,307.49 514.77,258.13 V 212.41 L 510.46,152 h -71.98 l -22.11,0.01 H 367.16 147.94 l -75.09,5.63"
       id="path27674" />
    <path
       class="cls-1"
       d="M510.46,152H78.34A3.91,3.91,0,0,0,75,153.89s0,0.07,0,.07l-2.14,3.69L46.41,203.48,17.18,254.11a3.8,3.8,0,0,0,0,3.83l6.35,11L75,358.06A3.84,3.84,0,0,0,78.34,360H510.52a4.27,4.27,0,0,0,4.24-4.28V156.34A4.32,4.32,0,0,0,510.46,152Z"
       id="path40" />
    <path
       class="cls-16"
       d="M88.1,245.5L23.53,268.94l-6.35-11a3.8,3.8,0,0,1,0-3.83l29.23-50.63Z"
       id="path42" />
    <polygon
       class="cls-17"
       points="472.21 264.21 514.77 258.13 514.77 307.49 472.21 264.21"
       id="polygon44" />
    <path
       class="cls-18"
       d="M472.21,264.21l42.55,43.28V355.7a4.27,4.27,0,0,1-4.24,4.28H461Z"
       id="path46" />
    <polygon
       class="cls-19"
       points="472.21 264.21 461 359.98 401.46 359.98 383.42 316.53 472.21 264.21"
       id="polygon48" />
    <polygon
       class="cls-20"
       points="472.21 264.21 514.77 212.41 514.77 258.13 472.21 264.21"
       id="polygon50" />
    <path
       class="cls-21"
       d="M514.77,156.33v56.08l-42.55,51.8L440.12,152h70.33A4.32,4.32,0,0,1,514.77,156.33Z"
       id="path52" />
    <polygon
       class="cls-22"
       points="401.46 359.98 370.06 359.98 361.92 348.31 383.42 316.53 401.46 359.98"
       id="polygon54" />
    <polygon
       class="cls-23"
       points="472.21 264.21 354.42 214.42 416.37 152.01 440.12 152.01 472.21 264.21"
       id="polygon56" />
    <path
       class="cls-24"
       d="M354.42,214.42l29,102.11,88.8-52.32Z"
       id="path58" />
    <polygon
       class="cls-25"
       points="370.06 359.98 361.54 359.98 361.92 348.31 370.06 359.98"
       id="polygon60" />
    <polygon
       class="cls-26"
       points="416.37 152.01 354.42 214.42 343.24 158.6 367.16 152.01 416.37 152.01"
       id="polygon62" />
    <path
       class="cls-27"
       d="M354.42,214.42l-143,33L361.92,348.31Z"
       id="path64" />
    <path
       class="cls-24"
       d="M354.42,214.42l7.49,133.9,21.5-31.78Z"
       id="path66" />
    <path
       class="cls-26"
       d="M343.24,158.6L211.47,247.39l143-33Z"
       id="path68" />
    <polygon
       class="cls-28"
       points="211.47 247.39 149.5 359.98 114.19 359.98 88.1 245.5 211.47 247.39"
       id="polygon70" />
    <path
       class="cls-29"
       d="M147.94,152L88.1,245.5,72.85,157.64,75,153.94s0-.07,0-0.07A3.91,3.91,0,0,1,78.33,152h69.61Z"
       id="path72" />
    <path
       class="cls-28"
       d="M114.19,360H78.33A3.84,3.84,0,0,1,75,358L23.53,268.94,88.1,245.5Z"
       id="path74" />
    <polygon
       class="cls-30"
       points="46.41,203.47 72.85,157.64 88.1,245.5 "
       id="polygon76" />
    <polygon
       class="cls-31"
       points="276.77 152.01 235.53 152.01 172.39 152.01 211.47 247.39 343.24 158.6 303.52 152.01 276.77 152.01"
       id="polygon78" />
    <polygon
       class="cls-31"
       points="156.09 152.01 147.94 152.01 88.1 245.5 211.47 247.39 172.39 152.01 156.09 152.01"
       id="polygon80" />
    <polygon
       class="cls-32"
       points="333.23 359.98 356.22 359.98 361.54 359.98 361.92 348.31 333.23 359.98"
       id="polygon82" />
    <polygon
       class="cls-24"
       points="361.92 348.31 211.47 247.39 238.57 359.98 276.77 359.98 333.23 359.98 361.92 348.31"
       id="polygon84" />
    <polygon
       class="cls-33"
       points="149.5 359.98 156.09 359.98 235.53 359.98 238.57 359.98 211.47 247.39 149.5 359.98"
       id="polygon86" />
    <polygon
       class="cls-34"
       points="343.65 152.01 343.24 158.6 367.16 152.01 356.22 152.01 343.65 152.01"
       id="polygon88" />
    <polygon
       class="cls-35"
       points="303.52 152.01 343.24 158.6 339.58 152.01 303.52 152.01"
       id="polygon90" />
    <polygon
       class="cls-29"
       points="339.58 152.01 343.24 158.6 343.65 152.01 339.58 152.01"
       id="polygon92" />
    <path
       class="cls-36"
       d="M235.15,153.81L177,254.46a3.38,3.38,0,0,0-.42,1.64H136.07l79.74-138.18a3.14,3.14,0,0,1,1.19,1.15l0.11,0.11,18.08,31.41A3.49,3.49,0,0,1,235.15,153.81Z"
       id="path94" />
    <path
       class="cls-37"
       d="M235.08,361.89l-18,31.27a3.51,3.51,0,0,1-1.22,1.15L136,256.14v0H176.6a3.09,3.09,0,0,0,.38,1.57,0.37,0.37,0,0,0,.07.17l58,100.58A3.41,3.41,0,0,1,235.08,361.89Z"
       id="path96" />
    <path
       class="cls-38"
       d="M215.81,117.92L136.07,256.1h0v0l-20,34.66-19.1-33.12a3.09,3.09,0,0,1-.38-1.57,3.38,3.38,0,0,1,.42-1.64L116.31,221l58.75-101.74a3.4,3.4,0,0,1,3-1.75H214.1A3.58,3.58,0,0,1,215.81,117.92Z"
       id="path98" />
    <path
       class="cls-36"
       d="M215.81,394.31a3.58,3.58,0,0,1-1.71.45H178a3.4,3.4,0,0,1-3-1.75l-53.72-93L116,290.79l20-34.66Z"
       id="path100" />
    <path
       class="cls-38"
       d="M376.19,256.1L296.39,394.31a3.73,3.73,0,0,1-1.19-1.15l-0.07-.1L277,361.72a3.49,3.49,0,0,1,0-3.22l58.06-100.65a3.38,3.38,0,0,0,.49-1.75h40.57Z"
       id="path102" />
    <path
       class="cls-36"
       d="M415.68,256.1a3.38,3.38,0,0,1-.49,1.75L337.06,393.16a3.42,3.42,0,0,1-2.9,1.61h-36a3.72,3.72,0,0,1-1.75-.45L376.19,256.1l20-34.62,19,32.91A3.35,3.35,0,0,1,415.68,256.1Z"
       id="path104" />
    <path
       class="cls-36"
       d="M376.19,256.1H335.63a3.35,3.35,0,0,0-.49-1.71l-58-100.55a3.41,3.41,0,0,1,0-3.46l18.08-31.3a3.73,3.73,0,0,1,1.19-1.15Z"
       id="path106" />
    <path
       class="cls-37"
       d="M396.2,221.44v0l-20,34.62L296.39,117.92a3.72,3.72,0,0,1,1.75-.45h36a3.42,3.42,0,0,1,2.9,1.61Z"
       id="path108" />
  </g>
</svg>
