<svg width="32" height="32" viewBox="0 0 59 51" fill="none" xmlns="http://www.w3.org/2000/svg">
<path d="M0 25.4002C0 26.5139 0.293079 27.6276 0.859699 28.585L11.137 46.3847C12.1921 48.2018 13.7943 49.6867 15.7872 50.351C19.7145 51.6601 23.7785 49.9798 25.7128 46.6192L28.1942 42.3207L18.4054 25.4002L28.7413 7.48329L31.2227 3.1848C31.9652 1.89525 32.9617 0.840161 34.134 0H33.0594H18.1905C15.3964 0 12.8173 1.48494 11.4301 3.90772L0.859699 22.2154C0.293079 23.1728 0 24.2865 0 25.4002Z" fill="#fff"></path>
<path d="M58.6151 25.4001C58.6151 24.2864 58.322 23.1727 57.7554 22.2153L47.3413 4.18118C45.407 0.840078 41.343 -0.840243 37.4157 0.449306C35.4228 1.11362 33.8206 2.59855 32.7655 4.41565L30.4209 8.46014L40.2097 25.4001L29.8738 43.317L27.3924 47.6155C26.6499 48.8856 25.6535 49.9602 24.4811 50.8003H25.5558H40.4247C43.2187 50.8003 45.7978 49.3154 47.185 46.8926L57.7554 28.5849C58.322 27.6275 58.6151 26.5138 58.6151 25.4001Z" fill="#fff"></path>
</svg>
