<?xml version="1.0" encoding="utf-8"?>
<!-- Generator: Adobe Illustrator 26.5.0, SVG Export Plug-In . SVG Version: 6.00 Build 0)  -->
<svg version="1.1" id="Layer_1"
	xmlns="http://www.w3.org/2000/svg"
	xmlns:xlink="http://www.w3.org/1999/xlink" x="0px" y="0px" viewBox="0 0 189.3 162" style="enable-background:new 0 0 189.3 162;" xml:space="preserve">
	<style type="text/css">
	
		.st0{clip-path:url(#SVGID_00000013879980047908369760000014333962450926967714_);fill:url(#SVGID_00000078733767835006856550000006406972695347467450_);}
	
		.st1{clip-path:url(#SVGID_00000166657476033872553300000009290018689514942103_);fill:url(#SVGID_00000098211131999124439290000005169890874362699711_);}
	
		.st2{clip-path:url(#SVGID_00000146479414203068755060000016979134224437623728_);fill:url(#SVGID_00000059285692623184630360000001939970175973229744_);}
	
		.st3{clip-path:url(#SVGID_00000126316706323320366270000003443020999953567882_);fill:url(#SVGID_00000057146489597920305920000000095531551485622941_);}
	
		.st4{clip-path:url(#SVGID_00000026133452627006666250000000783177764216147076_);fill:url(#SVGID_00000139986013050778127310000015816529348737596301_);}
	
		.st5{clip-path:url(#SVGID_00000059296638833140507400000008861971299043677096_);fill:url(#SVGID_00000068637401408036592480000016595487892732985731_);}
	
		.st6{clip-path:url(#SVGID_00000172429222656778552100000016729080874745752493_);fill:url(#SVGID_00000055696528104929319780000017787341016400387243_);}
	
		.st7{clip-path:url(#SVGID_00000138543928091543779610000002511334883899467966_);fill:url(#SVGID_00000116194030819667900180000011798705412116101279_);}
	</style>
	<g>
		<g>
			<defs>
				<path id="SVGID_1_" d="M87.8,149.1l26.9-2.1c0,0,9.2-1.5,14.6-10.4l-19-4.6L87.8,149.1z"/>
			</defs>
			<clipPath id="SVGID_00000147182750622660896660000006407372419834521264_">
				<use xlink:href="#SVGID_1_" style="overflow:visible;"/>
			</clipPath>

			<linearGradient id="SVGID_00000043455066869680698080000005568379131735620027_" gradientUnits="userSpaceOnUse" x1="-19.413" y1="-133.61" x2="-18.413" y2="-133.61" gradientTransform="matrix(-35.4765 174.8486 -174.8486 -35.4765 -23914.8516 -1337.4067)">
				<stop offset="0" style="stop-color:#1593F5"/>
				<stop offset="1" style="stop-color:#0084CE"/>
			</linearGradient>

			<polygon style="clip-path:url(#SVGID_00000147182750622660896660000006407372419834521264_);fill:url(#SVGID_00000043455066869680698080000005568379131735620027_);" points="
			132.6,132.7 127.7,157.2 84.4,148.4 89.4,123.9 		"/>
		</g>
	</g>
	<g>
		<g>
			<defs>
				<path id="SVGID_00000117666701953909478440000000358665142799502254_" d="M50.6,86c-8,0.4-22.8,1.8-22.8,1.8l64.5,46.9l14.7,3.7
				l22.3-1.7l-64.9-47c0,0-5.2-3.7-12.7-3.7C51.3,86,51,86,50.6,86"/>
			</defs>
			<clipPath id="SVGID_00000021826999385872549080000006033995051984800693_">
				<use xlink:href="#SVGID_00000117666701953909478440000000358665142799502254_" style="overflow:visible;"/>
			</clipPath>

			<linearGradient id="SVGID_00000178165318439686096770000016761567998857907644_" gradientUnits="userSpaceOnUse" x1="-20.1016" y1="-134.4351" x2="-19.1016" y2="-134.4351" gradientTransform="matrix(-148.6635 -238.1995 238.1995 -148.6635 29165.9043 -24576.1035)">
				<stop offset="0" style="stop-color:#1593F5"/>
				<stop offset="1" style="stop-color:#0084CE"/>
			</linearGradient>

			<polygon style="clip-path:url(#SVGID_00000021826999385872549080000006033995051984800693_);fill:url(#SVGID_00000178165318439686096770000016761567998857907644_);" points="
			56.2,184 4.2,100.7 100.8,40.4 152.9,123.7 		"/>
		</g>
	</g>
	<g>
		<g>
			<defs>
				<path id="SVGID_00000156577277383517703870000010068914798521039488_" d="M133.8,76.7l27.7-1.7c0,0,9.5-1.4,14.9-10.2l-19.7-4.9
				L133.8,76.7z"/>
			</defs>
			<clipPath id="SVGID_00000142889961474463198250000008302825665989277093_">
				<use xlink:href="#SVGID_00000156577277383517703870000010068914798521039488_" style="overflow:visible;"/>
			</clipPath>

			<linearGradient id="SVGID_00000132086538092097319310000013227422625556950408_" gradientUnits="userSpaceOnUse" x1="-20.1877" y1="-134.65" x2="-19.1877" y2="-134.65" gradientTransform="matrix(-89.536 -160.489 160.489 -89.536 20031.8984 -15094.2344)">
				<stop offset="0" style="stop-color:#FFFFFF"/>
				<stop offset="1" style="stop-color:#15ABFF"/>
			</linearGradient>

			<polygon style="clip-path:url(#SVGID_00000142889961474463198250000008302825665989277093_);fill:url(#SVGID_00000132086538092097319310000013227422625556950408_);" points="
			143.9,94.8 126.6,63.8 166.3,41.7 183.6,72.7 		"/>
		</g>
	</g>
	<g>
		<g>
			<defs>
				<path id="SVGID_00000098205560235091293490000000421317058630212272_" d="M94.6,12.7c-8.3,0.3-23.5,1.5-23.5,1.5l67.2,48
				l15.2,3.9l23-1.4l-67.6-48.1c0,0-5.6-3.9-13.5-3.9C95.2,12.7,94.9,12.7,94.6,12.7"/>
			</defs>
			<clipPath id="SVGID_00000093861389545452675440000006562489652059062448_">
				<use xlink:href="#SVGID_00000098205560235091293490000000421317058630212272_" style="overflow:visible;"/>
			</clipPath>

			<linearGradient id="SVGID_00000028286881209211410930000013657892739144660655_" gradientUnits="userSpaceOnUse" x1="-19.7576" y1="-133.3852" x2="-18.7576" y2="-133.3852" gradientTransform="matrix(76.0211 174.0039 -174.0039 76.0211 -21636.4453 13496.8467)">
				<stop offset="0" style="stop-color:#FFFFFF"/>
				<stop offset="1" style="stop-color:#79CFFF"/>
			</linearGradient>

			<polygon style="clip-path:url(#SVGID_00000093861389545452675440000006562489652059062448_);fill:url(#SVGID_00000028286881209211410930000013657892739144660655_);" points="
			159.6,-25.9 196.1,57.6 88,104.8 51.5,21.3 		"/>
		</g>
	</g>
	<g>
		<g>
			<defs>
				<path id="SVGID_00000124852738755951175750000014112089622672183742_" d="M11.8,98.2c-0.1,0.1-0.1,0.2-0.1,0.3l17.7,12.8
				L46.9,124l29.4,21.3c9.9,7.1,23.3,4.1,30.1-6.9l-17.9-12.9l-17.9-12.9L41.5,91.4c-3.6-2.6-7.6-3.8-11.6-3.8
				C22.9,87.6,16,91.3,11.8,98.2"/>
			</defs>
			<clipPath id="SVGID_00000173141673324521593940000008495516377158554543_">
				<use xlink:href="#SVGID_00000124852738755951175750000014112089622672183742_" style="overflow:visible;"/>
			</clipPath>

			<linearGradient id="SVGID_00000041979392027505662920000001185191142966959546_" gradientUnits="userSpaceOnUse" x1="-19.3994" y1="-133.9089" x2="-18.3994" y2="-133.9089" gradientTransform="matrix(-120.7891 167.2465 -167.2465 -120.7891 -24582.5547 -12945.1768)">
				<stop offset="0" style="stop-color:#0057E5"/>
				<stop offset="1" style="stop-color:#0084CE"/>
			</linearGradient>

			<polygon style="clip-path:url(#SVGID_00000173141673324521593940000008495516377158554543_);fill:url(#SVGID_00000041979392027505662920000001185191142966959546_);" points="
			137.2,109.8 73.9,197.4 -19.1,130.2 44.1,42.6 		"/>
		</g>
	</g>
	<g>
		<g>
			<defs>
				<path id="SVGID_00000149381950616545464640000006795646713605551536_" d="M55.4,24.5c0,0.1-0.1,0.2-0.2,0.3l18.4,13.1L92,50.9
				l30.6,21.8c10.3,7.3,24.1,4.4,30.9-6.5l-18.6-13.3l-18.6-13.2L85.9,18c-3.8-2.7-8.1-4-12.3-4C66.5,14.1,59.6,17.7,55.4,24.5"/>
			</defs>
			<clipPath id="SVGID_00000033332812682631022190000015239929743782804902_">
				<use xlink:href="#SVGID_00000149381950616545464640000006795646713605551536_" style="overflow:visible;"/>
			</clipPath>

			<linearGradient id="SVGID_00000127026399759025924800000014634641933690009743_" gradientUnits="userSpaceOnUse" x1="-18.9789" y1="-133.53" x2="-17.9789" y2="-133.53" gradientTransform="matrix(-38.0106 104.7402 -104.7402 -38.0106 -14578.2188 -3108.949)">
				<stop offset="0" style="stop-color:#FFFFFF"/>
				<stop offset="1" style="stop-color:#15ABFF"/>
			</linearGradient>

			<polygon style="clip-path:url(#SVGID_00000033332812682631022190000015239929743782804902_);fill:url(#SVGID_00000127026399759025924800000014634641933690009743_);" points="
			174.6,21.7 142.1,111.5 34.1,72.3 66.7,-17.5 		"/>
		</g>
	</g>
	<g>
		<g>
			<defs>
				<path id="SVGID_00000107570939368200823020000005836291322447728054_" d="M42.4,39.3l23.7,26c1.1,1.5,2.3,2.9,3.7,4.1l46.2,50.8
				l23-1.4c6.8-10.9,4-25.7-6.3-33L102.1,64L83.8,51L65.4,37.9L42.4,39.3z"/>
			</defs>
			<clipPath id="SVGID_00000060738096654201270220000007292607683568861614_">
				<use xlink:href="#SVGID_00000107570939368200823020000005836291322447728054_" style="overflow:visible;"/>
			</clipPath>

			<linearGradient id="SVGID_00000056428342560333279100000016968355024903630220_" gradientUnits="userSpaceOnUse" x1="-20.0549" y1="-134.41" x2="-19.0549" y2="-134.41" gradientTransform="matrix(-190.8975 -251.7144 251.7144 -190.8975 30181.0039 -30518.9199)">
				<stop offset="0" style="stop-color:#FFFFFF"/>
				<stop offset="1" style="stop-color:#79CFFF"/>
			</linearGradient>

			<polygon style="clip-path:url(#SVGID_00000060738096654201270220000007292607683568861614_);fill:url(#SVGID_00000056428342560333279100000016968355024903630220_);" points="
			80.2,170.1 2.7,68 108.1,-11.9 185.5,90.2 		"/>
		</g>
	</g>
	<g>
		<g>
			<defs>
				<path id="SVGID_00000122720151179349157490000018212233550025661058_" d="M42.2,39.6c-6.7,10.8-3.9,25.4,6.2,32.6l30.3,21.6
				L97.4,107l18.6,13.2c6.8-10.9,4-25.7-6.3-33L79.2,65.5L60.8,52.4L42.4,39.3C42.4,39.4,42.3,39.5,42.2,39.6"/>
			</defs>
			<clipPath id="SVGID_00000055708945144556612230000014551721053078643382_">
				<use xlink:href="#SVGID_00000122720151179349157490000018212233550025661058_" style="overflow:visible;"/>
			</clipPath>

			<linearGradient id="SVGID_00000127756858579337829260000014186552904843483300_" gradientUnits="userSpaceOnUse" x1="-19.4497" y1="-133.8208" x2="-18.4497" y2="-133.8208" gradientTransform="matrix(-97.9828 193.4315 -193.4315 -97.9828 -27647.6406 -9396.6328)">
				<stop offset="0" style="stop-color:#FFFFFF"/>
				<stop offset="1" style="stop-color:#79CFFF"/>
			</linearGradient>

			<polygon style="clip-path:url(#SVGID_00000055708945144556612230000014551721053078643382_);fill:url(#SVGID_00000127756858579337829260000014186552904843483300_);" points="
			155.5,55.9 105,155.5 2.9,103.8 53.4,4.1 		"/>
		</g>
	</g>
</svg>
