<svg xmlns="http://www.w3.org/2000/svg" xmlns:xlink="http://www.w3.org/1999/xlink" viewBox="0 0 91 81" fill="#fff" fill-rule="evenodd" stroke="#000" stroke-linecap="round" stroke-linejoin="round"><use xlink:href="#A" x=".5" y=".5"/><symbol id="A" overflow="visible"><path d="M67.678 0H22.559L0 40l22.559 40h44.881L90 40 67.678 0zM42.982 20.976H53.43v10.732H42.982V20.976zm0 13.415H53.43v10.732H42.982V34.39zm0 13.414H53.43v10.732H42.982V47.805zM29.921 20.976h10.448v10.732H29.921V20.976zm0 13.415h10.448v10.732H29.921V34.39zm0 13.414h10.448v10.732H29.921V47.805zM66.254 64.39H23.747V20.732h2.849v40.732h0 0 39.657v2.927zm.237-5.854H56.042V47.805h10.448v10.732zm0-13.414H56.042V34.39h10.448v10.732zm0-13.415H56.042V20.976h10.448v10.732z" fill="#0078d7" stroke="none"/></symbol></svg>