<svg width="133" height="40" viewBox="0 0 133 40" fill="none" xmlns="http://www.w3.org/2000/svg">
  <path d="M43.0312 8.11182H49.8728C52.5201 8.1303 54.5054 9.26544 55.829 11.5176C56.3025 12.2746 56.6019 13.0682 56.727 13.8991C56.8253 14.73 56.8744 16.1652 56.8744 18.2051C56.8744 20.3742 56.7984 21.8879 56.6464 22.7467C56.5746 23.1802 56.4672 23.568 56.3245 23.9095C56.1721 24.2417 55.9891 24.588 55.7742 24.948C55.202 25.8987 54.4061 26.683 53.3868 27.3016C52.3762 27.9661 51.1375 28.2983 49.6711 28.2983H43.0314V8.11182H43.0312ZM45.9913 25.42H49.5366C51.2014 25.42 52.4096 24.8325 53.1621 23.6578C53.4934 23.2233 53.7037 22.6726 53.7928 22.0068C53.8733 21.3497 53.914 20.1199 53.914 18.316C53.914 16.5586 53.8733 15.301 53.7928 14.5419C53.6857 13.7837 53.4305 13.1686 53.0278 12.6968C52.2039 11.522 51.0399 10.9533 49.5366 10.9902H45.9913V25.42Z" fill="black"/>
  <path d="M69.8833 26.7982C68.9633 27.8726 67.7663 28.4278 66.2919 28.465C65.39 28.4461 64.6397 28.2473 64.0415 27.869C63.4155 27.509 62.9381 27.1209 62.6072 26.705C62.2407 26.2341 61.9774 25.6565 61.8167 24.973C61.6467 24.2988 61.5623 23.015 61.5623 21.1213C61.5623 19.1908 61.6467 17.8839 61.8167 17.2002C61.9774 16.5263 62.2407 15.9578 62.6072 15.4962C62.9381 15.0465 63.4155 14.6425 64.0415 14.2838C64.6397 13.9446 65.39 13.7653 66.2919 13.747C67.6765 13.747 68.8739 14.3146 69.8833 15.4498V13.927H72.6771V27.9525C72.6415 30.1124 72.0389 31.7001 70.8695 32.7155C69.691 33.7586 68.2801 34.2798 66.6373 34.2798C64.7537 34.2431 63.1465 33.4416 61.8163 31.8759L63.9872 30.0932C64.3445 30.4367 64.7552 30.7288 65.2196 30.9701C65.6935 31.2391 66.1843 31.3826 66.6939 31.4015C67.6491 31.4015 68.4182 31.1278 68.9985 30.581C69.5704 30.0246 69.865 29.255 69.8831 28.2723V26.7982H69.8833ZM64.3565 21.1263C64.3565 22.2285 64.3921 22.9884 64.4639 23.4049C64.526 23.8401 64.6739 24.2016 64.9064 24.4887C65.094 24.7481 65.3803 24.9842 65.7649 25.1971C66.131 25.4565 66.5877 25.5862 67.133 25.5862C67.6788 25.5862 68.1347 25.4565 68.5016 25.1971C68.8681 24.984 69.1452 24.748 69.3336 24.4887C69.5654 24.2016 69.7225 23.8401 69.8031 23.4049C69.8568 22.9885 69.8833 22.2286 69.8833 21.1263C69.8833 20.0057 69.8568 19.2279 69.8031 18.7926C69.7225 18.3574 69.5656 18.0055 69.3336 17.7369C69.1452 17.4774 68.8682 17.2226 68.5016 16.9724C68.1347 16.7597 67.6788 16.6439 67.133 16.6254C66.5877 16.6439 66.131 16.7597 65.7649 16.9724C65.3803 17.2226 65.094 17.4774 64.9064 17.7369C64.6738 18.0055 64.526 18.3574 64.4639 18.7926C64.3921 19.2279 64.3565 20.0058 64.3565 21.1263Z" fill="black"/>
  <path d="M78.1962 13.9267H80.9904V15.4495H81.0488C81.9702 14.3143 83.1772 13.7467 84.6708 13.7467C85.7891 13.7652 86.7642 14.1331 87.5959 14.8504L85.555 17.3471C84.9643 16.8661 84.3511 16.6254 83.716 16.6254C82.9999 16.6254 82.3866 16.8655 81.8766 17.3463C81.304 17.8175 81.0081 18.5802 80.9904 19.6337V28.298H78.1962V13.9267Z" fill="black"/>
  <path d="M97.4467 27.0253H97.393C97.134 27.5141 96.7318 27.8741 96.1871 28.1047C95.6507 28.3446 94.9087 28.4648 93.962 28.4648C92.4067 28.4459 91.2092 28.0217 90.3695 27.191C89.4845 26.3789 89.0425 25.3408 89.0425 24.0759C89.0425 22.8673 89.4271 21.8657 90.1949 21.0716C90.9635 20.2599 92.0892 19.8447 93.5729 19.8259H97.4467V18.3093C97.4652 17.0388 96.5131 16.4222 94.5904 16.459C93.893 16.459 93.3435 16.5335 92.9409 16.6816C92.5206 16.8577 92.1898 17.1548 91.9492 17.5719L89.7494 15.8396C90.8125 14.4073 92.3802 13.7099 94.4526 13.7464C96.2033 13.7279 97.6011 14.0696 98.6465 14.7708C99.6919 15.4912 100.223 16.728 100.241 18.4814V28.2979H97.4469V27.0253H97.4467ZM97.4467 22.2051H94.0888C92.4581 22.2423 91.6521 22.819 91.6706 23.937C91.6706 24.4263 91.8809 24.842 92.3019 25.1839C92.7052 25.5626 93.3723 25.7518 94.3033 25.7518C95.4765 25.7707 96.3047 25.6274 96.7886 25.3228C97.2277 25.0178 97.4467 24.3255 97.4467 23.2443V22.2051Z" fill="black"/>
  <path d="M105.732 13.9267H108.526V15.4219C109.455 14.3515 110.653 13.7927 112.118 13.7467C113.825 13.7927 115.072 14.4204 115.858 15.6298C116.241 16.0821 116.504 16.6771 116.647 17.4155C116.78 18.1451 116.847 19.3821 116.847 21.1263C116.847 22.8249 116.78 24.0431 116.646 24.7816C116.503 25.5202 116.24 26.1246 115.856 26.5955C115.472 27.1488 114.967 27.5922 114.341 27.9245C113.725 28.2663 112.984 28.4461 112.117 28.4648C111.402 28.4648 110.764 28.3036 110.201 27.9824C109.593 27.6887 109.035 27.2845 108.526 26.7703V34.1135H105.732V13.9267H105.732ZM111.276 25.5861C111.938 25.5861 112.461 25.4565 112.846 25.197C113.23 24.9284 113.503 24.5861 113.664 24.1689C113.842 23.7337 113.963 23.2522 114.026 22.7241C114.044 22.2056 114.053 21.673 114.053 21.1264C114.053 20.5525 114.044 19.992 114.026 19.4455C113.963 18.8991 113.842 18.4174 113.664 18.0008C113.503 17.5654 113.23 17.2227 112.846 16.9724C112.461 16.7411 111.938 16.6255 111.276 16.6255C110.65 16.6255 110.154 16.7598 109.787 17.0283C109.402 17.2972 109.12 17.6487 108.942 18.0842C108.772 18.5194 108.66 18.9918 108.607 19.5011C108.553 20.0388 108.526 20.5803 108.526 21.1264C108.526 21.6361 108.553 22.1453 108.607 22.6551C108.66 23.1919 108.772 23.6782 108.942 24.1134C109.12 24.5489 109.402 24.9005 109.787 25.1691C110.154 25.4469 110.65 25.5861 111.276 25.5861Z" fill="black"/>
  <path d="M121.867 8.11182H124.662V15.4496H124.715C125.635 14.3143 126.842 13.7467 128.333 13.7467C129.485 13.7467 130.54 14.1669 131.495 15.0066C132.442 15.8561 132.938 17.102 132.983 18.7449V28.2981H130.189V19.7307C130.189 18.7233 129.929 17.9561 129.41 17.4291C128.9 16.8929 128.244 16.6251 127.438 16.6251C126.634 16.6251 125.972 16.8929 125.453 17.4291C124.925 17.956 124.662 18.7232 124.662 19.7307V28.2981H121.868V8.11182H121.867Z" fill="black"/>
  <path d="M27.1983 7.19828C27.5754 6.50862 27.7802 5.71121 27.7802 4.85991C27.7802 2.17672 25.6034 0 22.9203 0C20.6358 0 18.7177 1.57328 18.1897 3.69612C17.7371 3.67457 17.2845 3.64224 16.8319 3.64224C7.53233 3.64224 0 11.1638 0 20.4741C0 25.0431 1.8319 29.1918 4.78448 32.2198C4.17026 33.0388 3.80388 34.0517 3.80388 35.1401C3.80388 37.8233 5.9806 40 8.66379 40C10.7328 40 12.4892 38.6961 13.2112 36.8858C14.3858 37.1552 15.5819 37.2845 16.8319 37.2845C26.1315 37.2845 33.6638 29.7629 33.6638 20.4526C33.6853 15.0647 31.1638 10.2802 27.1983 7.19828ZM22.9418 7.83405C22.6724 7.83405 22.4353 7.8125 22.1983 7.72629L20.1832 13.5991L23.1358 13.125L18.9871 19.903L22.4461 19.0517L10.7759 32.9526C11.3578 33.4806 11.7026 34.2565 11.7026 35.1293C11.7026 36.778 10.3772 38.1034 8.72845 38.1034C7.07974 38.1034 5.75431 36.778 5.75431 35.1293C5.75431 33.4806 7.07974 32.1552 8.72845 32.1552C9.1056 32.1552 9.47198 32.2306 9.81681 32.3707L13.1142 25.1616L9.89224 26.0345L15.1293 18.5345L11.9073 19.3103L21.0345 7.16595C20.3664 6.6056 19.9677 5.78664 19.9677 4.88147C19.9677 3.23276 21.2931 1.90733 22.9418 1.90733C24.5905 1.90733 25.9159 3.23276 25.9159 4.88147C25.9267 6.49784 24.5905 7.83405 22.9418 7.83405Z" fill="url(#paint0_linear)"/>
  <defs>
    <linearGradient id="paint0_linear" x1="0.00334052" y1="19.9946" x2="33.6605" y2="19.9946" gradientUnits="userSpaceOnUse">
      <stop stop-color="#FF4200"/>
      <stop offset="1" stop-color="#E50695"/>
    </linearGradient>
  </defs>
</svg>