<svg viewBox="0 0 120 40" fill="none" xmlns="http://www.w3.org/2000/svg">
  <path d="M21.6945 10.5028C19.7767 11.1429 18.8533 12.2911 18.2242 14.0793C18.0618 14.5569 17.6559 15.0852 17.1993 15.4408L18.7721 17.1275L13.7797 13.6323L0 4C0 4 0.994414 10.4621 1.33942 12.8397C1.58295 14.5162 1.99898 15.2681 3.3181 16.0302L3.84574 16.3147L6.11869 17.5136L4.76913 16.8125L10.9994 20.2163L10.9589 20.3078L4.25163 17.1986C4.60678 18.4179 5.29678 20.765 5.59104 21.8014C5.9056 22.919 6.26075 23.3255 7.34649 23.7217L9.34546 24.4533L10.5834 23.9656L9.01061 25.0121L1.14662 35C6.37237 30.1432 10.7965 28.4159 14.0334 27.0036C18.1633 25.2153 20.6493 24.0672 22.2728 19.942C23.4296 17.0462 24.3327 13.3376 25.4793 11.9049L27.9248 8.77548C27.9248 8.77548 22.8614 10.1167 21.6945 10.5028Z" fill="#3F00A5"/>
</svg>
