<svg xmlns="http://www.w3.org/2000/svg" width="500" height="200" viewBox="0 0 3063.6 460.827">
    <path fill="#1A1A1A" d="M44.742 29.035c.404-3.777 1.892-6.911 4.48-9.395 2.58-2.491 5.856-3.739 9.843-3.739h74.571c6.962 0 11.541 3.785 13.732 11.339L252.68 320.795c17.696-49.32 35.445-98.25 53.247-146.77A14887.035 14887.035 0 0 0 358.882 27.24c2.782-7.555 7.353-11.339 13.725-11.339h74.877c3.972 0 7.211 1.302 9.694 3.889 2.491 2.581 3.83 5.662 4.023 9.245a55375.918 55375.918 0 0 0 22.379 208.528c7.555 69.215 15.116 138.633 22.678 208.229v.897c0 8.161-4.383 12.229-13.127 12.229h-57.876c-8.953 0-13.628-4.367-14.024-13.127l-30.426-282.216-99.342 274.468c-1.003 2.78-2.588 5.361-4.78 7.748-2.191 2.387-4.473 3.575-6.859 3.575h-53.695c-2.588 0-4.982-1.137-7.158-3.419a20.896 20.896 0 0 1-4.78-7.904 18196.33 18196.33 0 0 0-49.214-136.935 73781.554 73781.554 0 0 1-49.829-137.241L84.72 445.792c0 8.76-4.578 13.127-13.732 13.127H13.126C4.368 458.919 0 454.552 0 445.792L44.742 29.035zm538.18 0c0-3.583 1.084-6.664 3.268-9.245 2.177-2.587 5.453-3.889 9.814-3.889h59.155c3.381 0 6.545 1.197 9.522 3.59 2.969 2.372 4.458 5.565 4.458 9.544v416.757c0 8.76-4.66 13.127-13.979 13.127h-59.155c-8.721 0-13.082-4.367-13.082-13.127V29.035zm183.165 0c0-3.583 1.151-6.664 3.425-9.245 2.289-2.587 5.527-3.889 9.701-3.889h60.569c1.384 0 2.933.299 4.623.905a14.429 14.429 0 0 1 4.622 2.685 18.138 18.138 0 0 1 3.575 4.174c1.003 1.593 1.496 3.381 1.496 5.37v177.211l167.361-181.093c3.972-6.164 8.347-9.252 13.119-9.252h85.334c5.355 0 8.048 1.197 8.048 3.59 0 1.593-1.189 3.673-3.583 6.261l-157.51 183.472 183.771 237.766c2.977 3.979 4.473 6.858 4.473 8.652 0 2.185-2.094 3.277-6.268 3.277h-90.689c-4.771 0-9.147-3.082-13.126-9.253L904.809 270.975l-50.711 52.505v122.313c0 8.76-4.771 13.127-14.316 13.127h-60.569c-8.75 0-13.126-4.367-13.126-13.127V29.035zm447.191.891c0-9.35 4.375-14.024 13.126-14.024h182.574c20.083 0 38.886 3.785 56.389 11.339 17.494 7.561 32.768 17.801 45.789 30.725 13.029 12.932 23.269 28.146 30.733 45.64 7.457 17.517 11.181 36.104 11.181 55.789 0 13.732-1.892 26.852-5.668 39.387-3.785 12.528-9.051 24.166-15.812 34.899a144.027 144.027 0 0 1-24.159 29.087 144.876 144.876 0 0 1-31.032 21.93l77.569 153.046c.389 1.98 1.092 3.97 2.087 5.959a13.822 13.822 0 0 1 1.488 6.261c0 5.978-3.478 8.954-10.434 8.954h-69.215c-7.166 0-11.93-3.68-14.323-11.04l-72.192-143.195c-3.187 0-6.612.052-10.284.149-3.695.105-8.759.157-15.221.157h-65.781V446.09c0 8.557-4.57 12.828-13.725 12.828h-59.963c-3.979 0-7.158-1.047-9.543-3.126-2.393-2.095-3.583-5.318-3.583-9.702V29.926zm251.491 129.918c0-8.527-1.594-16.821-4.771-24.847-3.187-8.033-7.66-15.236-13.426-21.585-5.767-6.343-12.633-11.503-20.583-15.475-7.966-3.972-16.612-6.261-25.961-6.851-6.956-.194-13.762-.345-20.426-.449-6.672-.097-13.583-.142-20.741-.142h-58.766v138.423h89.941c3.478 0 7.21-.202 11.189-.605 9.349-.591 17.943-2.768 25.812-6.545 7.846-3.77 14.555-8.773 20.135-15.034 5.564-6.26 9.88-13.403 12.977-21.429 3.079-8.041 4.62-16.523 4.62-25.461z"/>
    <path fill="#166788" d="M2162.052 29.926c0-9.35 4.367-14.024 13.127-14.024h182.572c20.092 0 38.879 3.785 56.39 11.339 17.495 7.561 32.759 17.801 45.789 30.725 13.028 12.932 23.268 28.146 30.733 45.64 7.456 17.517 11.19 36.104 11.19 55.789 0 13.732-1.901 26.852-5.678 39.387-3.778 12.528-9.05 24.166-15.812 34.899a143.768 143.768 0 0 1-24.16 29.087 144.875 144.875 0 0 1-31.024 21.93l77.562 153.046c.405 1.98 1.093 3.97 2.088 5.959a13.834 13.834 0 0 1 1.487 6.261c0 5.978-3.477 8.954-10.441 8.954h-69.199c-7.165 0-11.945-3.68-14.329-11.04l-72.193-143.195c-3.187 0-6.611.052-10.291.149-3.675.105-8.76.157-15.215.157h-65.782V446.09c0 8.557-4.57 12.828-13.724 12.828h-59.963c-3.973 0-7.159-1.047-9.538-3.126-2.392-2.095-3.589-5.318-3.589-9.702V29.926zm251.489 129.918c0-8.527-1.601-16.821-4.771-24.847-3.181-8.033-7.666-15.236-13.425-21.585-5.768-6.343-12.634-11.503-20.577-15.475-7.959-3.972-16.611-6.261-25.963-6.851-6.962-.194-13.776-.345-20.432-.449a1428.27 1428.27 0 0 0-20.741-.142h-58.768v138.423h89.956c3.463 0 7.203-.202 11.182-.605 9.343-.591 17.943-2.768 25.799-6.545 7.86-3.77 14.568-8.773 20.141-15.034 5.564-6.26 9.889-13.403 12.977-21.429 3.074-8.041 4.622-16.523 4.622-25.461zm188.543-130.809c.397-3.777 1.894-6.911 4.475-9.395 2.586-2.491 5.863-3.739 9.841-3.739h74.58c6.954 0 11.541 3.785 13.725 11.339l105.318 293.555c17.688-49.32 35.438-98.25 53.247-146.77a15148.8 15148.8 0 0 0 52.946-146.785c2.783-7.555 7.359-11.339 13.727-11.339h74.884c3.979 0 7.194 1.302 9.694 3.889 2.482 2.581 3.822 5.662 4.021 9.245a57091.109 57091.109 0 0 0 22.379 208.528c7.563 69.215 15.108 138.633 22.679 208.229v.897c0 8.161-4.384 12.229-13.136 12.229h-57.874c-8.946 0-13.62-4.367-14.03-13.127l-30.422-282.216-99.343 274.468c-1 2.78-2.578 5.361-4.771 7.748-2.191 2.387-4.479 3.575-6.86 3.575h-53.693c-2.59 0-4.981-1.137-7.174-3.419a20.836 20.836 0 0 1-4.765-7.904 18555.92 18555.92 0 0 0-49.222-136.935 78400.157 78400.157 0 0 1-49.822-137.241l-30.427 281.924c0 8.76-4.584 13.127-13.732 13.127h-57.866c-8.751 0-13.127-4.367-13.127-13.127l44.748-416.756zm-581.222 293.496c-43.695 25.228-101.639 39.117-163.181 39.117s-119.5-13.89-163.181-39.117c-16.53-9.544-30.284-20.292-41.1-31.938-10.052 14.226-15.639 29.724-15.639 45.947 0 68.527 98.655 124.287 219.92 124.287 121.258 0 219.91-55.76 219.91-124.287 0-16.23-5.587-31.721-15.64-45.947-10.821 11.646-24.567 22.394-41.089 31.938z"/>
    <path fill="#166788" d="M2066.263 185.334c-11.385 13.53-26.591 25.976-45.4 36.844-5.027 2.902-10.264 5.632-15.655 8.235a268.611 268.611 0 0 1-7.601 3.493 322.519 322.519 0 0 1-7.861 3.328c-38.504 15.61-84.188 24.054-132.063 24.054-47.892 0-93.562-8.444-132.073-24.054a311.849 311.849 0 0 1-7.869-3.328 279.229 279.229 0 0 1-7.599-3.493c-5.385-2.603-10.621-5.333-15.64-8.235-18.826-10.868-34.039-23.313-45.408-36.844-7.315 12.378-11.332 25.572-11.332 39.312 0 16.215 5.587 31.72 15.624 45.931a126.84 126.84 0 0 0 3.95 5.236 131.462 131.462 0 0 0 4.054 4.779c36.291 40.494 110.622 68.333 196.292 68.333 85.655 0 159.986-27.839 196.284-68.333a119.467 119.467 0 0 0 4.047-4.779 112.103 112.103 0 0 0 3.939-5.229c10.053-14.219 15.64-29.708 15.64-45.939 0-13.739-4.009-26.94-11.329-39.311z"/>
    <path fill="#1A1A1A" d="M1857.682 0c-121.265 0-219.92 55.759-219.92 124.287 0 13.732 4.016 26.941 11.332 39.297a95.826 95.826 0 0 0 3.627 5.677 131.285 131.285 0 0 0 3.814 5.206c15.311 19.522 39.23 36.417 69.074 49.126a253.465 253.465 0 0 0 8.601 3.493 306.503 306.503 0 0 0 9.125 3.328c33.344 11.511 72.492 18.16 114.347 18.16 41.839 0 80.995-6.649 114.339-18.16a316.74 316.74 0 0 0 9.124-3.328 261.755 261.755 0 0 0 8.601-3.493c29.838-12.708 53.757-29.604 69.06-49.126a107.24 107.24 0 0 0 3.83-5.206 99.8 99.8 0 0 0 3.628-5.669c7.32-12.364 11.329-25.572 11.329-39.305C2077.592 55.759 1978.939 0 1857.682 0zm114.616 145.88a53.535 53.535 0 0 1-1.997 3.126 57.159 57.159 0 0 1-2.097 2.857c-8.414 10.718-21.563 20.007-37.941 26.986a142.574 142.574 0 0 1-4.743 1.922 173.019 173.019 0 0 1-5.003 1.84c-18.324 6.313-39.844 9.978-62.835 9.978-22.992 0-44.512-3.665-62.836-9.978a180.965 180.965 0 0 1-5.019-1.84 134.639 134.639 0 0 1-4.72-1.922c-16.395-6.979-29.537-16.268-37.958-26.986a70.948 70.948 0 0 1-2.095-2.857 52.167 52.167 0 0 1-1.989-3.126c-4.024-6.799-6.238-14.039-6.238-21.593 0-37.659 54.212-68.303 120.854-68.303s120.847 30.644 120.847 68.303c0 7.554-2.208 14.794-6.23 21.593z"/>
</svg>
