<?xml version="1.0"?>
<svg version="1.1" xmlns="http://www.w3.org/2000/svg" width="400" height="130" style="">
	<path fill="#25c2a0"
		d="M35.02685546875,96.89697265625q2.5390625,0,6.09375-1.11083984375l0,7.20458984375q-3.6181640625,1.61865234375-8.88671875,1.61865234375q-5.80810546875,0-8.458251953125-2.935791015625t-2.650146484375-8.807373046875l0-17.10693359375l-4.6337890625,0l0-4.09423828125l5.33203125-3.2373046875l2.79296875-7.490234375l6.18896484375,0l0,7.5537109375l9.93408203125,0l0,7.26806640625l-9.93408203125,0l0,17.10693359375q0,2.06298828125,1.158447265625,3.046875t3.062744140625,0.98388671875z M47.683129882813,68.4912109375l10.6005859375,0l6.69677734375,19.96337890625q0.85693359375,2.6025390625,1.17431640625,6.1572265625l0.1904296875,0q0.34912109375-3.26904296875,1.36474609375-6.1572265625l6.56982421875-19.96337890625l10.37841796875,0l-15.01220703125,40.02197265625q-2.06298828125,5.55419921875-5.887451171875,8.3154296875t-8.934326171875,2.76123046875q-2.50732421875,0-4.91943359375-0.53955078125l0-7.6806640625q1.74560546875,0.41259765625,3.80859375,0.41259765625q2.57080078125,0,4.490966796875-1.571044921875t2.999267578125-4.744873046875l0.5712890625-1.74560546875z M113.69145507813,104.609375q-6.25244140625,0-9.80712890625-4.53857421875l-0.5078125,0q0.5078125,4.443359375,0.5078125,5.1416015625l0,14.37744140625l-9.68017578125,0l0-51.0986328125l7.87109375,0l1.36474609375,4.60205078125l0.4443359375,0q3.39599609375-5.2685546875,10.06103515625-5.2685546875q6.2841796875,0,9.8388671875,4.85595703125t3.5546875,13.48876953125q0,5.68115234375-1.666259765625,9.87060546875t-4.744873046875,6.37939453125t-7.236328125,2.18994140625z M110.83500976563,75.56884765625q-3.58642578125,0-5.23681640625,2.205810546875t-1.7138671875,7.283935546875l0,1.04736328125q0,5.712890625,1.697998046875,8.1884765625t5.379638671875,2.4755859375q6.50634765625,0,6.50634765625-10.7275390625q0-5.23681640625-1.602783203125-7.855224609375t-5.030517578125-2.618408203125z M154.49958496094,74.7119140625q-3.07861328125,0-4.82421875,1.951904296875t-1.99951171875,5.538330078125l13.583984375,0q-0.0634765625-3.58642578125-1.87255859375-5.538330078125t-4.8876953125-1.951904296875z M155.86433105469,104.609375q-8.5693359375,0-13.3935546875-4.72900390625t-4.82421875-13.3935546875q0-8.91845703125,4.459228515625-13.790283203125t12.330322265625-4.871826171875q7.52197265625,0,11.71142578125,4.28466796875t4.189453125,11.83837890625l0,4.697265625l-22.88330078125,0q0.15869140625,4.1259765625,2.44384765625,6.44287109375t6.4111328125,2.31689453125q3.20556640625,0,6.06201171875-0.66650390625t5.966796875-2.12646484375l0,7.490234375q-2.5390625,1.26953125-5.42724609375,1.888427734375t-7.0458984375,0.618896484375z M213.5572265625,68.4912109375l0,4.91943359375l-5.55419921875,1.42822265625q1.5234375,2.38037109375,1.5234375,5.33203125q0,5.712890625-3.983154296875,8.902587890625t-11.060791015625,3.189697265625l-1.74560546875-0.09521484375l-1.42822265625-0.15869140625q-1.49169921875,1.142578125-1.49169921875,2.5390625q0,2.0947265625,5.33203125,2.0947265625l6.0302734375,0q5.83984375,0,8.902587890625,2.50732421875t3.062744140625,7.36328125q0,6.220703125-5.189208984375,9.6484375t-14.901123046875,3.427734375q-7.4267578125,0-11.346435546875-2.586669921875t-3.919677734375-7.252197265625q0-3.20556640625,1.99951171875-5.36376953125t5.87158203125-3.07861328125q-1.49169921875-0.634765625-2.6025390625-2.078857421875t-1.11083984375-3.062744140625q0-2.03125,1.17431640625-3.380126953125t3.39599609375-2.650146484375q-2.79296875-1.2060546875-4.427490234375-3.8720703125t-1.634521484375-6.2841796875q0-5.80810546875,3.77685546875-8.98193359375t10.791015625-3.173828125q1.49169921875,0,3.538818359375,0.269775390625t2.618408203125,0.396728515625l12.3779296875,0z M186.16708984375,108.9892578125q0,1.99951171875,1.920166015625,3.14208984375t5.379638671875,1.142578125q5.205078125,0,8.15673828125-1.42822265625t2.95166015625-3.90380859375q0-1.99951171875-1.74560546875-2.76123046875t-5.3955078125-0.76171875l-5.0146484375,0q-2.666015625,0-4.459228515625,1.253662109375t-1.793212890625,3.316650390625z M189.6900390625,80.107421875q0,2.88818359375,1.317138671875,4.5703125t4.014892578125,1.68212890625q2.7294921875,0,3.9990234375-1.68212890625t1.26953125-4.5703125q0-6.4111328125-5.2685546875-6.4111328125q-5.33203125,0-5.33203125,6.4111328125z M231.57727050781,86.16943359375q0,5.2685546875,1.729736328125,7.96630859375t5.633544921875,2.69775390625q3.8720703125,0,5.570068359375-2.681884765625t1.697998046875-7.982177734375q0-5.2685546875-1.7138671875-7.90283203125t-5.61767578125-2.63427734375q-3.8720703125,0-5.5859375,2.618408203125t-1.7138671875,7.918701171875z M256.11096191406,86.16943359375q0,8.66455078125-4.5703125,13.55224609375t-12.72705078125,4.8876953125q-5.10986328125,0-9.013671875-2.237548828125t-5.99853515625-6.427001953125t-2.0947265625-9.775390625q0-8.6962890625,4.53857421875-13.5205078125t12.7587890625-4.82421875q5.10986328125,0,9.013671875,2.2216796875t5.99853515625,6.37939453125t2.0947265625,9.74365234375z M276.28920898438,86.16943359375q0,5.2685546875,1.729736328125,7.96630859375t5.633544921875,2.69775390625q3.8720703125,0,5.570068359375-2.681884765625t1.697998046875-7.982177734375q0-5.2685546875-1.7138671875-7.90283203125t-5.61767578125-2.63427734375q-3.8720703125,0-5.5859375,2.618408203125t-1.7138671875,7.918701171875z M300.82290039063,86.16943359375q0,8.66455078125-4.5703125,13.55224609375t-12.72705078125,4.8876953125q-5.10986328125,0-9.013671875-2.237548828125t-5.99853515625-6.427001953125t-2.0947265625-9.775390625q0-8.6962890625,4.53857421875-13.5205078125t12.7587890625-4.82421875q5.10986328125,0,9.013671875,2.2216796875t5.99853515625,6.37939453125t2.0947265625,9.74365234375z M338.04460449219,93.4375q0,5.458984375-3.792724609375,8.3154296875t-11.346435546875,2.8564453125q-3.8720703125,0-6.6015625-0.523681640625t-5.10986328125-1.539306640625l0-7.998046875q2.69775390625,1.26953125,6.077880859375,2.12646484375t5.950927734375,0.85693359375q5.2685546875,0,5.2685546875-3.046875q0-1.142578125-0.6982421875-1.856689453125t-2.412109375-1.61865234375t-4.5703125-2.110595703125q-4.09423828125-1.7138671875-6.014404296875-3.173828125t-2.79296875-3.348388671875t-0.872802734375-4.649658203125q0-4.72900390625,3.665771484375-7.315673828125t10.394287109375-2.586669921875q6.4111328125,0,12.47314453125,2.79296875l-2.919921875,6.982421875q-2.666015625-1.142578125-4.98291015625-1.87255859375t-4.72900390625-0.72998046875q-4.28466796875,0-4.28466796875,2.31689453125q0,1.30126953125,1.380615234375,2.25341796875t6.046142578125,2.82470703125q4.15771484375,1.68212890625,6.09375,3.14208984375t2.8564453125,3.3642578125t0.92041015625,4.53857421875z M364.7609375,74.7119140625q-3.07861328125,0-4.82421875,1.951904296875t-1.99951171875,5.538330078125l13.583984375,0q-0.0634765625-3.58642578125-1.87255859375-5.538330078125t-4.8876953125-1.951904296875z M366.12568359375,104.609375q-8.5693359375,0-13.3935546875-4.72900390625t-4.82421875-13.3935546875q0-8.91845703125,4.459228515625-13.790283203125t12.330322265625-4.871826171875q7.52197265625,0,11.71142578125,4.28466796875t4.189453125,11.83837890625l0,4.697265625l-22.88330078125,0q0.15869140625,4.1259765625,2.44384765625,6.44287109375t6.4111328125,2.31689453125q3.20556640625,0,6.06201171875-0.66650390625t5.966796875-2.12646484375l0,7.490234375q-2.5390625,1.26953125-5.42724609375,1.888427734375t-7.0458984375,0.618896484375z" />
	<path fill="#" d="" />
</svg>