<svg width="32" height="32" viewBox="0 0 32 32" fill="none" xmlns="http://www.w3.org/2000/svg">
<g clip-path="url(#clip0_7_788)">
<path d="M31.0425 6.98752V28.86C31.0425 30.065 30.065 31.0425 28.86 31.0425H3.13999C1.93499 31.0425 0.957489 30.065 0.957489 28.86V3.14002C0.957489 1.93502 1.93499 0.95752 3.13999 0.95752H25.55C26.44 0.95752 27.285 1.35502 27.8525 2.04252L30.3625 5.09002C30.8025 5.62502 31.0425 6.29502 31.0425 6.98752Z" fill="#616161"/>
<path d="M25.985 31.0425H6V17.8125C6 17.36 6.3675 16.9925 6.82 16.9925H25.1675C25.62 16.9925 25.9875 17.36 25.9875 17.8125V31.0425H25.985Z" fill="white"/>
<path d="M6 27.98H25.985V31.0425H6V27.98Z" fill="#039BE5"/>
<path d="M4.1875 0.95752V12.895C4.1875 13.34 4.58 13.6875 5.1 13.6875H24.2625C24.7825 13.6875 25.185 13.3425 25.185 12.895V0.95752H4.1875Z" fill="#424242"/>
<path d="M8.75 0.95752V12.2125C8.75 12.6325 9.045 12.9575 9.435 12.9575H23.8C24.19 12.9575 24.4925 12.6325 24.4925 12.2125V0.95752H8.75ZM21.4925 11.63C21.4925 11.81 21.345 11.9575 21.165 11.9575H16.82C16.64 11.9575 16.4925 11.81 16.4925 11.63V2.28502C16.4925 2.10502 16.64 1.95752 16.82 1.95752H21.165C21.345 1.95752 21.4925 2.10502 21.4925 2.28502V11.63Z" fill="#E0E0E0"/>
</g>
<defs>
<clipPath id="clip0_7_788">
<rect width="32" height="32" fill="white"/>
</clipPath>
</defs>
</svg>
