<?xml version="1.0" encoding="UTF-8" standalone="no"?><!-- Generator: Gravit.io --><svg xmlns="http://www.w3.org/2000/svg" xmlns:xlink="http://www.w3.org/1999/xlink" style="isolation:isolate" viewBox="0 0 64 64" width="64pt" height="64pt"><defs><clipPath id="_clipPath_0GZgkC1sGFwXBtEcYp8TM28piRREWSRA"><rect width="64" height="64"/></clipPath></defs><g clip-path="url(#_clipPath_0GZgkC1sGFwXBtEcYp8TM28piRREWSRA)"><g><path d=" M 11.345 52.655 C 20.471 61.782 35.267 61.782 44.393 52.655 C 53.519 43.529 53.519 28.733 44.393 19.607 L 40.262 23.738 C 47.107 30.582 47.107 41.68 40.262 48.524 C 33.418 55.369 22.32 55.369 15.476 48.524 L 11.345 52.655 Z " fill="rgb(0,233,163)"/><path d=" M 19.607 44.393 C 24.17 48.956 31.568 48.956 36.131 44.393 C 40.694 39.83 40.694 32.432 36.131 27.869 L 32 32 C 34.282 34.282 34.282 37.981 32 40.262 C 29.718 42.544 26.019 42.544 23.738 40.262 L 19.607 44.393 Z " fill="rgb(0,233,163)"/><path d=" M 52.655 11.345 C 43.529 2.218 28.733 2.218 19.607 11.345 C 10.481 20.471 10.481 35.267 19.607 44.393 L 23.738 40.262 C 16.893 33.418 16.893 22.32 23.738 15.476 C 30.582 8.631 41.68 8.631 48.524 15.476 L 52.655 11.345 Z " fill="rgb(0,233,163)"/><path d=" M 44.393 19.607 C 39.83 15.044 32.432 15.044 27.869 19.607 C 23.306 24.17 23.306 31.568 27.869 36.131 L 32 32 C 29.718 29.719 29.718 26.019 32 23.738 C 34.281 21.456 37.98 21.456 40.262 23.738 L 44.393 19.607 Z " fill="rgb(0,233,163)"/><path d=" M 52.655 11.345 C 43.529 2.218 28.733 2.218 19.607 11.345 C 10.481 20.471 10.481 35.267 19.607 44.393 L 23.738 40.262 C 16.893 33.418 16.893 22.32 23.738 15.476 C 30.582 8.631 41.68 8.631 48.524 15.476 L 52.655 11.345 Z " fill="rgb(255,255,255)" fill-opacity="0.8"/><path d=" M 44.393 19.607 C 39.83 15.044 32.432 15.044 27.869 19.607 C 23.306 24.17 23.306 31.568 27.869 36.131 L 32 32 C 29.718 29.719 29.718 26.019 32 23.738 C 34.281 21.456 37.98 21.456 40.262 23.738 L 44.393 19.607 Z " fill="rgb(255,255,255)" fill-opacity="0.8"/></g></g></svg>